G04 #@! TF.GenerationSoftware,KiCad,Pcbnew,5.1.6-c6e7f7d~86~ubuntu20.04.1*
G04 #@! TF.CreationDate,2020-05-17T01:15:17+03:00*
G04 #@! TF.ProjectId,BRK-SSOP-16-4.4x5.2-P0.65,42524b2d-5353-44f5-902d-31362d342e34,v1.1*
G04 #@! TF.SameCoordinates,Original*
G04 #@! TF.FileFunction,Legend,Top*
G04 #@! TF.FilePolarity,Positive*
%FSLAX46Y46*%
G04 Gerber Fmt 4.6, Leading zero omitted, Abs format (unit mm)*
G04 Created by KiCad (PCBNEW 5.1.6-c6e7f7d~86~ubuntu20.04.1) date 2020-05-17 01:15:17*
%MOMM*%
%LPD*%
G01*
G04 APERTURE LIST*
%ADD10C,0.300000*%
G04 #@! TA.AperFunction,Profile*
%ADD11C,0.150000*%
G04 #@! TD*
%ADD12C,0.150000*%
%ADD13C,0.250000*%
%ADD14C,0.120000*%
G04 APERTURE END LIST*
D10*
X55252142Y-77757142D02*
X55137857Y-77700000D01*
X55080714Y-77642857D01*
X55023571Y-77528571D01*
X55023571Y-77471428D01*
X55080714Y-77357142D01*
X55137857Y-77300000D01*
X55252142Y-77242857D01*
X55480714Y-77242857D01*
X55595000Y-77300000D01*
X55652142Y-77357142D01*
X55709285Y-77471428D01*
X55709285Y-77528571D01*
X55652142Y-77642857D01*
X55595000Y-77700000D01*
X55480714Y-77757142D01*
X55252142Y-77757142D01*
X55137857Y-77814285D01*
X55080714Y-77871428D01*
X55023571Y-77985714D01*
X55023571Y-78214285D01*
X55080714Y-78328571D01*
X55137857Y-78385714D01*
X55252142Y-78442857D01*
X55480714Y-78442857D01*
X55595000Y-78385714D01*
X55652142Y-78328571D01*
X55709285Y-78214285D01*
X55709285Y-77985714D01*
X55652142Y-77871428D01*
X55595000Y-77814285D01*
X55480714Y-77757142D01*
X54966428Y-74642857D02*
X55766428Y-74642857D01*
X55252142Y-75842857D01*
X55595000Y-72142857D02*
X55366428Y-72142857D01*
X55252142Y-72200000D01*
X55195000Y-72257142D01*
X55080714Y-72428571D01*
X55023571Y-72657142D01*
X55023571Y-73114285D01*
X55080714Y-73228571D01*
X55137857Y-73285714D01*
X55252142Y-73342857D01*
X55480714Y-73342857D01*
X55595000Y-73285714D01*
X55652142Y-73228571D01*
X55709285Y-73114285D01*
X55709285Y-72828571D01*
X55652142Y-72714285D01*
X55595000Y-72657142D01*
X55480714Y-72600000D01*
X55252142Y-72600000D01*
X55137857Y-72657142D01*
X55080714Y-72714285D01*
X55023571Y-72828571D01*
X55652142Y-69542857D02*
X55080714Y-69542857D01*
X55023571Y-70114285D01*
X55080714Y-70057142D01*
X55195000Y-70000000D01*
X55480714Y-70000000D01*
X55595000Y-70057142D01*
X55652142Y-70114285D01*
X55709285Y-70228571D01*
X55709285Y-70514285D01*
X55652142Y-70628571D01*
X55595000Y-70685714D01*
X55480714Y-70742857D01*
X55195000Y-70742857D01*
X55080714Y-70685714D01*
X55023571Y-70628571D01*
X70305000Y-78442857D02*
X70533571Y-78442857D01*
X70647857Y-78385714D01*
X70705000Y-78328571D01*
X70819285Y-78157142D01*
X70876428Y-77928571D01*
X70876428Y-77471428D01*
X70819285Y-77357142D01*
X70762142Y-77300000D01*
X70647857Y-77242857D01*
X70419285Y-77242857D01*
X70305000Y-77300000D01*
X70247857Y-77357142D01*
X70190714Y-77471428D01*
X70190714Y-77757142D01*
X70247857Y-77871428D01*
X70305000Y-77928571D01*
X70419285Y-77985714D01*
X70647857Y-77985714D01*
X70762142Y-77928571D01*
X70819285Y-77871428D01*
X70876428Y-77757142D01*
X69733571Y-75842857D02*
X69047857Y-75842857D01*
X69390714Y-75842857D02*
X69390714Y-74642857D01*
X69276428Y-74814285D01*
X69162142Y-74928571D01*
X69047857Y-74985714D01*
X70476428Y-74642857D02*
X70590714Y-74642857D01*
X70705000Y-74700000D01*
X70762142Y-74757142D01*
X70819285Y-74871428D01*
X70876428Y-75100000D01*
X70876428Y-75385714D01*
X70819285Y-75614285D01*
X70762142Y-75728571D01*
X70705000Y-75785714D01*
X70590714Y-75842857D01*
X70476428Y-75842857D01*
X70362142Y-75785714D01*
X70305000Y-75728571D01*
X70247857Y-75614285D01*
X70190714Y-75385714D01*
X70190714Y-75100000D01*
X70247857Y-74871428D01*
X70305000Y-74757142D01*
X70362142Y-74700000D01*
X70476428Y-74642857D01*
X69733571Y-73342857D02*
X69047857Y-73342857D01*
X69390714Y-73342857D02*
X69390714Y-72142857D01*
X69276428Y-72314285D01*
X69162142Y-72428571D01*
X69047857Y-72485714D01*
X70876428Y-73342857D02*
X70190714Y-73342857D01*
X70533571Y-73342857D02*
X70533571Y-72142857D01*
X70419285Y-72314285D01*
X70305000Y-72428571D01*
X70190714Y-72485714D01*
X69733571Y-70842857D02*
X69047857Y-70842857D01*
X69390714Y-70842857D02*
X69390714Y-69642857D01*
X69276428Y-69814285D01*
X69162142Y-69928571D01*
X69047857Y-69985714D01*
X70190714Y-69757142D02*
X70247857Y-69700000D01*
X70362142Y-69642857D01*
X70647857Y-69642857D01*
X70762142Y-69700000D01*
X70819285Y-69757142D01*
X70876428Y-69871428D01*
X70876428Y-69985714D01*
X70819285Y-70157142D01*
X70133571Y-70842857D01*
X70876428Y-70842857D01*
X55595000Y-67492857D02*
X55595000Y-68292857D01*
X55309285Y-67035714D02*
X55023571Y-67892857D01*
X55766428Y-67892857D01*
X69753571Y-68292857D02*
X69067857Y-68292857D01*
X69410714Y-68292857D02*
X69410714Y-67092857D01*
X69296428Y-67264285D01*
X69182142Y-67378571D01*
X69067857Y-67435714D01*
X70153571Y-67092857D02*
X70896428Y-67092857D01*
X70496428Y-67550000D01*
X70667857Y-67550000D01*
X70782142Y-67607142D01*
X70839285Y-67664285D01*
X70896428Y-67778571D01*
X70896428Y-68064285D01*
X70839285Y-68178571D01*
X70782142Y-68235714D01*
X70667857Y-68292857D01*
X70325000Y-68292857D01*
X70210714Y-68235714D01*
X70153571Y-68178571D01*
D11*
X53000000Y-80700000D02*
G75*
G02*
X51000000Y-78700000I0J2000000D01*
G01*
X75000000Y-78700000D02*
G75*
G02*
X73000000Y-80700000I-2000000J0D01*
G01*
X73000000Y-48000000D02*
G75*
G02*
X75000000Y-50000000I0J-2000000D01*
G01*
X51000000Y-50000000D02*
G75*
G02*
X53000000Y-48000000I2000000J0D01*
G01*
D10*
X69753571Y-65742857D02*
X69067857Y-65742857D01*
X69410714Y-65742857D02*
X69410714Y-64542857D01*
X69296428Y-64714285D01*
X69182142Y-64828571D01*
X69067857Y-64885714D01*
X70782142Y-64942857D02*
X70782142Y-65742857D01*
X70496428Y-64485714D02*
X70210714Y-65342857D01*
X70953571Y-65342857D01*
X69753571Y-63242857D02*
X69067857Y-63242857D01*
X69410714Y-63242857D02*
X69410714Y-62042857D01*
X69296428Y-62214285D01*
X69182142Y-62328571D01*
X69067857Y-62385714D01*
X70839285Y-62042857D02*
X70267857Y-62042857D01*
X70210714Y-62614285D01*
X70267857Y-62557142D01*
X70382142Y-62500000D01*
X70667857Y-62500000D01*
X70782142Y-62557142D01*
X70839285Y-62614285D01*
X70896428Y-62728571D01*
X70896428Y-63014285D01*
X70839285Y-63128571D01*
X70782142Y-63185714D01*
X70667857Y-63242857D01*
X70382142Y-63242857D01*
X70267857Y-63185714D01*
X70210714Y-63128571D01*
X69753571Y-60592857D02*
X69067857Y-60592857D01*
X69410714Y-60592857D02*
X69410714Y-59392857D01*
X69296428Y-59564285D01*
X69182142Y-59678571D01*
X69067857Y-59735714D01*
X70782142Y-59392857D02*
X70553571Y-59392857D01*
X70439285Y-59450000D01*
X70382142Y-59507142D01*
X70267857Y-59678571D01*
X70210714Y-59907142D01*
X70210714Y-60364285D01*
X70267857Y-60478571D01*
X70325000Y-60535714D01*
X70439285Y-60592857D01*
X70667857Y-60592857D01*
X70782142Y-60535714D01*
X70839285Y-60478571D01*
X70896428Y-60364285D01*
X70896428Y-60078571D01*
X70839285Y-59964285D01*
X70782142Y-59907142D01*
X70667857Y-59850000D01*
X70439285Y-59850000D01*
X70325000Y-59907142D01*
X70267857Y-59964285D01*
X70210714Y-60078571D01*
X54966428Y-64592857D02*
X55709285Y-64592857D01*
X55309285Y-65050000D01*
X55480714Y-65050000D01*
X55595000Y-65107142D01*
X55652142Y-65164285D01*
X55709285Y-65278571D01*
X55709285Y-65564285D01*
X55652142Y-65678571D01*
X55595000Y-65735714D01*
X55480714Y-65792857D01*
X55137857Y-65792857D01*
X55023571Y-65735714D01*
X54966428Y-65678571D01*
X55023571Y-62107142D02*
X55080714Y-62050000D01*
X55195000Y-61992857D01*
X55480714Y-61992857D01*
X55595000Y-62050000D01*
X55652142Y-62107142D01*
X55709285Y-62221428D01*
X55709285Y-62335714D01*
X55652142Y-62507142D01*
X54966428Y-63192857D01*
X55709285Y-63192857D01*
X55709285Y-60642857D02*
X55023571Y-60642857D01*
X55366428Y-60642857D02*
X55366428Y-59442857D01*
X55252142Y-59614285D01*
X55137857Y-59728571D01*
X55023571Y-59785714D01*
D11*
X73000000Y-80700000D02*
X53000000Y-80700000D01*
D12*
G36*
X74400000Y-57500000D02*
G01*
X51500000Y-57500000D01*
X51500000Y-53500000D01*
X74400000Y-53500000D01*
X74400000Y-57500000D01*
G37*
X74400000Y-57500000D02*
X51500000Y-57500000D01*
X51500000Y-53500000D01*
X74400000Y-53500000D01*
X74400000Y-57500000D01*
D11*
X75000000Y-50000000D02*
X75000000Y-78700000D01*
D13*
X58595714Y-50426190D02*
X58781428Y-50488095D01*
X59090952Y-50488095D01*
X59214761Y-50426190D01*
X59276666Y-50364285D01*
X59338571Y-50240476D01*
X59338571Y-50116666D01*
X59276666Y-49992857D01*
X59214761Y-49930952D01*
X59090952Y-49869047D01*
X58843333Y-49807142D01*
X58719523Y-49745238D01*
X58657619Y-49683333D01*
X58595714Y-49559523D01*
X58595714Y-49435714D01*
X58657619Y-49311904D01*
X58719523Y-49250000D01*
X58843333Y-49188095D01*
X59152857Y-49188095D01*
X59338571Y-49250000D01*
X59833809Y-50426190D02*
X60019523Y-50488095D01*
X60329047Y-50488095D01*
X60452857Y-50426190D01*
X60514761Y-50364285D01*
X60576666Y-50240476D01*
X60576666Y-50116666D01*
X60514761Y-49992857D01*
X60452857Y-49930952D01*
X60329047Y-49869047D01*
X60081428Y-49807142D01*
X59957619Y-49745238D01*
X59895714Y-49683333D01*
X59833809Y-49559523D01*
X59833809Y-49435714D01*
X59895714Y-49311904D01*
X59957619Y-49250000D01*
X60081428Y-49188095D01*
X60390952Y-49188095D01*
X60576666Y-49250000D01*
X61381428Y-49188095D02*
X61629047Y-49188095D01*
X61752857Y-49250000D01*
X61876666Y-49373809D01*
X61938571Y-49621428D01*
X61938571Y-50054761D01*
X61876666Y-50302380D01*
X61752857Y-50426190D01*
X61629047Y-50488095D01*
X61381428Y-50488095D01*
X61257619Y-50426190D01*
X61133809Y-50302380D01*
X61071904Y-50054761D01*
X61071904Y-49621428D01*
X61133809Y-49373809D01*
X61257619Y-49250000D01*
X61381428Y-49188095D01*
X62495714Y-50488095D02*
X62495714Y-49188095D01*
X62990952Y-49188095D01*
X63114761Y-49250000D01*
X63176666Y-49311904D01*
X63238571Y-49435714D01*
X63238571Y-49621428D01*
X63176666Y-49745238D01*
X63114761Y-49807142D01*
X62990952Y-49869047D01*
X62495714Y-49869047D01*
X63795714Y-49992857D02*
X64786190Y-49992857D01*
X66086190Y-50488095D02*
X65343333Y-50488095D01*
X65714761Y-50488095D02*
X65714761Y-49188095D01*
X65590952Y-49373809D01*
X65467142Y-49497619D01*
X65343333Y-49559523D01*
X67200476Y-49188095D02*
X66952857Y-49188095D01*
X66829047Y-49250000D01*
X66767142Y-49311904D01*
X66643333Y-49497619D01*
X66581428Y-49745238D01*
X66581428Y-50240476D01*
X66643333Y-50364285D01*
X66705238Y-50426190D01*
X66829047Y-50488095D01*
X67076666Y-50488095D01*
X67200476Y-50426190D01*
X67262380Y-50364285D01*
X67324285Y-50240476D01*
X67324285Y-49930952D01*
X67262380Y-49807142D01*
X67200476Y-49745238D01*
X67076666Y-49683333D01*
X66829047Y-49683333D01*
X66705238Y-49745238D01*
X66643333Y-49807142D01*
X66581428Y-49930952D01*
X56583809Y-51821428D02*
X56583809Y-52688095D01*
X56274285Y-51326190D02*
X55964761Y-52254761D01*
X56769523Y-52254761D01*
X57264761Y-52564285D02*
X57326666Y-52626190D01*
X57264761Y-52688095D01*
X57202857Y-52626190D01*
X57264761Y-52564285D01*
X57264761Y-52688095D01*
X58440952Y-51821428D02*
X58440952Y-52688095D01*
X58131428Y-51326190D02*
X57821904Y-52254761D01*
X58626666Y-52254761D01*
X58998095Y-52688095D02*
X59679047Y-51821428D01*
X58998095Y-51821428D02*
X59679047Y-52688095D01*
X60793333Y-51388095D02*
X60174285Y-51388095D01*
X60112380Y-52007142D01*
X60174285Y-51945238D01*
X60298095Y-51883333D01*
X60607619Y-51883333D01*
X60731428Y-51945238D01*
X60793333Y-52007142D01*
X60855238Y-52130952D01*
X60855238Y-52440476D01*
X60793333Y-52564285D01*
X60731428Y-52626190D01*
X60607619Y-52688095D01*
X60298095Y-52688095D01*
X60174285Y-52626190D01*
X60112380Y-52564285D01*
X61412380Y-52564285D02*
X61474285Y-52626190D01*
X61412380Y-52688095D01*
X61350476Y-52626190D01*
X61412380Y-52564285D01*
X61412380Y-52688095D01*
X61969523Y-51511904D02*
X62031428Y-51450000D01*
X62155238Y-51388095D01*
X62464761Y-51388095D01*
X62588571Y-51450000D01*
X62650476Y-51511904D01*
X62712380Y-51635714D01*
X62712380Y-51759523D01*
X62650476Y-51945238D01*
X61907619Y-52688095D01*
X62712380Y-52688095D01*
X63269523Y-52192857D02*
X64260000Y-52192857D01*
X64879047Y-52688095D02*
X64879047Y-51388095D01*
X65374285Y-51388095D01*
X65498095Y-51450000D01*
X65560000Y-51511904D01*
X65621904Y-51635714D01*
X65621904Y-51821428D01*
X65560000Y-51945238D01*
X65498095Y-52007142D01*
X65374285Y-52069047D01*
X64879047Y-52069047D01*
X66426666Y-51388095D02*
X66550476Y-51388095D01*
X66674285Y-51450000D01*
X66736190Y-51511904D01*
X66798095Y-51635714D01*
X66860000Y-51883333D01*
X66860000Y-52192857D01*
X66798095Y-52440476D01*
X66736190Y-52564285D01*
X66674285Y-52626190D01*
X66550476Y-52688095D01*
X66426666Y-52688095D01*
X66302857Y-52626190D01*
X66240952Y-52564285D01*
X66179047Y-52440476D01*
X66117142Y-52192857D01*
X66117142Y-51883333D01*
X66179047Y-51635714D01*
X66240952Y-51511904D01*
X66302857Y-51450000D01*
X66426666Y-51388095D01*
X67417142Y-52564285D02*
X67479047Y-52626190D01*
X67417142Y-52688095D01*
X67355238Y-52626190D01*
X67417142Y-52564285D01*
X67417142Y-52688095D01*
X68593333Y-51388095D02*
X68345714Y-51388095D01*
X68221904Y-51450000D01*
X68160000Y-51511904D01*
X68036190Y-51697619D01*
X67974285Y-51945238D01*
X67974285Y-52440476D01*
X68036190Y-52564285D01*
X68098095Y-52626190D01*
X68221904Y-52688095D01*
X68469523Y-52688095D01*
X68593333Y-52626190D01*
X68655238Y-52564285D01*
X68717142Y-52440476D01*
X68717142Y-52130952D01*
X68655238Y-52007142D01*
X68593333Y-51945238D01*
X68469523Y-51883333D01*
X68221904Y-51883333D01*
X68098095Y-51945238D01*
X68036190Y-52007142D01*
X67974285Y-52130952D01*
X69893333Y-51388095D02*
X69274285Y-51388095D01*
X69212380Y-52007142D01*
X69274285Y-51945238D01*
X69398095Y-51883333D01*
X69707619Y-51883333D01*
X69831428Y-51945238D01*
X69893333Y-52007142D01*
X69955238Y-52130952D01*
X69955238Y-52440476D01*
X69893333Y-52564285D01*
X69831428Y-52626190D01*
X69707619Y-52688095D01*
X69398095Y-52688095D01*
X69274285Y-52626190D01*
X69212380Y-52564285D01*
D11*
X53000000Y-48000000D02*
X73000000Y-48000000D01*
X51000000Y-78700000D02*
X51000000Y-50000000D01*
D14*
X74450000Y-58770000D02*
X71790000Y-58770000D01*
X74450000Y-76610000D02*
X74450000Y-58770000D01*
X71790000Y-76610000D02*
X71790000Y-58770000D01*
X74450000Y-76610000D02*
X71790000Y-76610000D01*
X74450000Y-77880000D02*
X74450000Y-79210000D01*
X74450000Y-79210000D02*
X73120000Y-79210000D01*
X51470000Y-79210000D02*
X54130000Y-79210000D01*
X51470000Y-61370000D02*
X51470000Y-79210000D01*
X54130000Y-61370000D02*
X54130000Y-79210000D01*
X51470000Y-61370000D02*
X54130000Y-61370000D01*
X51470000Y-60100000D02*
X51470000Y-58770000D01*
X51470000Y-58770000D02*
X52800000Y-58770000D01*
D12*
X65260000Y-66190000D02*
X65260000Y-66290000D01*
X65285000Y-71715000D02*
X65285000Y-71690000D01*
X60635000Y-71715000D02*
X60635000Y-71690000D01*
X59560000Y-66190000D02*
X65260000Y-66190000D01*
X60635000Y-71715000D02*
X65285000Y-71715000D01*
M02*
