G04 #@! TF.GenerationSoftware,KiCad,Pcbnew,5.1.6-c6e7f7d~86~ubuntu20.04.1*
G04 #@! TF.CreationDate,2020-05-17T01:15:17+03:00*
G04 #@! TF.ProjectId,BRK-SSOP-16-4.4x5.2-P0.65,42524b2d-5353-44f5-902d-31362d342e34,v1.1*
G04 #@! TF.SameCoordinates,Original*
G04 #@! TF.FileFunction,Copper,L1,Top*
G04 #@! TF.FilePolarity,Positive*
%FSLAX46Y46*%
G04 Gerber Fmt 4.6, Leading zero omitted, Abs format (unit mm)*
G04 Created by KiCad (PCBNEW 5.1.6-c6e7f7d~86~ubuntu20.04.1) date 2020-05-17 01:15:17*
%MOMM*%
%LPD*%
G01*
G04 APERTURE LIST*
G04 #@! TA.AperFunction,Profile*
%ADD10C,0.150000*%
G04 #@! TD*
G04 #@! TA.AperFunction,ComponentPad*
%ADD11O,1.700000X1.700000*%
G04 #@! TD*
G04 #@! TA.AperFunction,ComponentPad*
%ADD12R,1.700000X1.700000*%
G04 #@! TD*
G04 #@! TA.AperFunction,SMDPad,CuDef*
%ADD13R,1.000000X0.400000*%
G04 #@! TD*
G04 #@! TA.AperFunction,Conductor*
%ADD14C,0.300000*%
G04 #@! TD*
G04 APERTURE END LIST*
D10*
X53000000Y-80700000D02*
G75*
G02*
X51000000Y-78700000I0J2000000D01*
G01*
X75000000Y-78700000D02*
G75*
G02*
X73000000Y-80700000I-2000000J0D01*
G01*
X73000000Y-48000000D02*
G75*
G02*
X75000000Y-50000000I0J-2000000D01*
G01*
X51000000Y-50000000D02*
G75*
G02*
X53000000Y-48000000I2000000J0D01*
G01*
X73000000Y-80700000D02*
X53000000Y-80700000D01*
X75000000Y-50000000D02*
X75000000Y-78700000D01*
X53000000Y-48000000D02*
X73000000Y-48000000D01*
X51000000Y-78700000D02*
X51000000Y-50000000D01*
D11*
X73120000Y-60100000D03*
X73120000Y-62640000D03*
X73120000Y-65180000D03*
X73120000Y-67720000D03*
X73120000Y-70260000D03*
X73120000Y-72800000D03*
X73120000Y-75340000D03*
D12*
X73120000Y-77880000D03*
D11*
X52800000Y-77880000D03*
X52800000Y-75340000D03*
X52800000Y-72800000D03*
X52800000Y-70260000D03*
X52800000Y-67720000D03*
X52800000Y-65180000D03*
X52800000Y-62640000D03*
D12*
X52800000Y-60100000D03*
D13*
X65860000Y-66715000D03*
X65860000Y-67365000D03*
X65860000Y-68015000D03*
X65860000Y-68665000D03*
X65860000Y-69315000D03*
X65860000Y-69965000D03*
X65860000Y-70615000D03*
X65860000Y-71265000D03*
X60060000Y-71265000D03*
X60060000Y-70615000D03*
X60060000Y-69965000D03*
X60060000Y-69315000D03*
X60060000Y-68665000D03*
X60060000Y-68015000D03*
X60060000Y-67365000D03*
X60060000Y-66715000D03*
D14*
X59260000Y-66715000D02*
X54600000Y-62055000D01*
X60060000Y-66715000D02*
X59260000Y-66715000D01*
X53950000Y-60100000D02*
X52800000Y-60100000D01*
X54600000Y-60750000D02*
X53950000Y-60100000D01*
X54600000Y-62055000D02*
X54600000Y-60750000D01*
X52840000Y-62600000D02*
X52800000Y-62640000D01*
X57525000Y-67365000D02*
X52800000Y-62640000D01*
X60060000Y-67365000D02*
X57525000Y-67365000D01*
X55635000Y-68015000D02*
X52800000Y-65180000D01*
X60060000Y-68015000D02*
X55635000Y-68015000D01*
X66660000Y-71265000D02*
X71300000Y-75905000D01*
X65860000Y-71265000D02*
X66660000Y-71265000D01*
X71300000Y-77210000D02*
X71970000Y-77880000D01*
X71970000Y-77880000D02*
X73120000Y-77880000D01*
X71300000Y-75905000D02*
X71300000Y-77210000D01*
X68395000Y-70615000D02*
X73120000Y-75340000D01*
X65860000Y-70615000D02*
X68395000Y-70615000D01*
X70285000Y-69965000D02*
X73120000Y-72800000D01*
X65860000Y-69965000D02*
X70285000Y-69965000D01*
X53745000Y-68665000D02*
X52800000Y-67720000D01*
X60060000Y-68665000D02*
X53745000Y-68665000D01*
X72175000Y-69315000D02*
X73120000Y-70260000D01*
X65860000Y-69315000D02*
X72175000Y-69315000D01*
X53745000Y-69315000D02*
X52800000Y-70260000D01*
X60060000Y-69315000D02*
X53745000Y-69315000D01*
X53649999Y-71950001D02*
X52800000Y-72800000D01*
X55635000Y-69965000D02*
X53649999Y-71950001D01*
X60060000Y-69965000D02*
X55635000Y-69965000D01*
X57525000Y-70615000D02*
X52800000Y-75340000D01*
X60060000Y-70615000D02*
X57525000Y-70615000D01*
X59415000Y-71265000D02*
X60060000Y-71265000D01*
X52800000Y-77880000D02*
X59415000Y-71265000D01*
X72175000Y-68665000D02*
X73120000Y-67720000D01*
X65860000Y-68665000D02*
X72175000Y-68665000D01*
X70285000Y-68015000D02*
X73120000Y-65180000D01*
X65860000Y-68015000D02*
X70285000Y-68015000D01*
X68395000Y-67365000D02*
X73120000Y-62640000D01*
X65860000Y-67365000D02*
X68395000Y-67365000D01*
X66505000Y-66715000D02*
X65860000Y-66715000D01*
X73120000Y-60100000D02*
X66505000Y-66715000D01*
M02*
