%TF.GenerationSoftware,KiCad,Pcbnew,5.1.7-a382d34a8~87~ubuntu20.04.1*%
%TF.CreationDate,2020-11-06T18:29:39+02:00*%
%TF.ProjectId,BRK-SOIC-8-3.9x4.9-P1.27,42524b2d-534f-4494-932d-382d332e3978,v1.0*%
%TF.SameCoordinates,Original*%
%TF.FileFunction,Copper,L1,Top*%
%TF.FilePolarity,Positive*%
%FSLAX46Y46*%
G04 Gerber Fmt 4.6, Leading zero omitted, Abs format (unit mm)*
G04 Created by KiCad (PCBNEW 5.1.7-a382d34a8~87~ubuntu20.04.1) date 2020-11-06 18:29:39*
%MOMM*%
%LPD*%
G01*
G04 APERTURE LIST*
%TA.AperFunction,ComponentPad*%
%ADD10O,1.700000X1.700000*%
%TD*%
%TA.AperFunction,ComponentPad*%
%ADD11R,1.700000X1.700000*%
%TD*%
%TA.AperFunction,Conductor*%
%ADD12C,0.250000*%
%TD*%
G04 APERTURE END LIST*
D10*
%TO.P,J2,4*%
%TO.N,PIN8*%
X107620000Y-96190000D03*
%TO.P,J2,3*%
%TO.N,PIN7*%
X107620000Y-98730000D03*
%TO.P,J2,2*%
%TO.N,PIN6*%
X107620000Y-101270000D03*
D11*
%TO.P,J2,1*%
%TO.N,PIN5*%
X107620000Y-103810000D03*
%TD*%
D10*
%TO.P,J1,4*%
%TO.N,PIN4*%
X92380000Y-103810000D03*
%TO.P,J1,3*%
%TO.N,PIN3*%
X92380000Y-101270000D03*
%TO.P,J1,2*%
%TO.N,PIN2*%
X92380000Y-98730000D03*
D11*
%TO.P,J1,1*%
%TO.N,PIN1*%
X92380000Y-96190000D03*
%TD*%
%TO.P,U1,8*%
%TO.N,PIN8*%
%TA.AperFunction,SMDPad,CuDef*%
G36*
G01*
X101500000Y-98245000D02*
X101500000Y-97945000D01*
G75*
G02*
X101650000Y-97795000I150000J0D01*
G01*
X103300000Y-97795000D01*
G75*
G02*
X103450000Y-97945000I0J-150000D01*
G01*
X103450000Y-98245000D01*
G75*
G02*
X103300000Y-98395000I-150000J0D01*
G01*
X101650000Y-98395000D01*
G75*
G02*
X101500000Y-98245000I0J150000D01*
G01*
G37*
%TD.AperFunction*%
%TO.P,U1,7*%
%TO.N,PIN7*%
%TA.AperFunction,SMDPad,CuDef*%
G36*
G01*
X101500000Y-99515000D02*
X101500000Y-99215000D01*
G75*
G02*
X101650000Y-99065000I150000J0D01*
G01*
X103300000Y-99065000D01*
G75*
G02*
X103450000Y-99215000I0J-150000D01*
G01*
X103450000Y-99515000D01*
G75*
G02*
X103300000Y-99665000I-150000J0D01*
G01*
X101650000Y-99665000D01*
G75*
G02*
X101500000Y-99515000I0J150000D01*
G01*
G37*
%TD.AperFunction*%
%TO.P,U1,6*%
%TO.N,PIN6*%
%TA.AperFunction,SMDPad,CuDef*%
G36*
G01*
X101500000Y-100785000D02*
X101500000Y-100485000D01*
G75*
G02*
X101650000Y-100335000I150000J0D01*
G01*
X103300000Y-100335000D01*
G75*
G02*
X103450000Y-100485000I0J-150000D01*
G01*
X103450000Y-100785000D01*
G75*
G02*
X103300000Y-100935000I-150000J0D01*
G01*
X101650000Y-100935000D01*
G75*
G02*
X101500000Y-100785000I0J150000D01*
G01*
G37*
%TD.AperFunction*%
%TO.P,U1,5*%
%TO.N,PIN5*%
%TA.AperFunction,SMDPad,CuDef*%
G36*
G01*
X101500000Y-102055000D02*
X101500000Y-101755000D01*
G75*
G02*
X101650000Y-101605000I150000J0D01*
G01*
X103300000Y-101605000D01*
G75*
G02*
X103450000Y-101755000I0J-150000D01*
G01*
X103450000Y-102055000D01*
G75*
G02*
X103300000Y-102205000I-150000J0D01*
G01*
X101650000Y-102205000D01*
G75*
G02*
X101500000Y-102055000I0J150000D01*
G01*
G37*
%TD.AperFunction*%
%TO.P,U1,4*%
%TO.N,PIN4*%
%TA.AperFunction,SMDPad,CuDef*%
G36*
G01*
X96550000Y-102055000D02*
X96550000Y-101755000D01*
G75*
G02*
X96700000Y-101605000I150000J0D01*
G01*
X98350000Y-101605000D01*
G75*
G02*
X98500000Y-101755000I0J-150000D01*
G01*
X98500000Y-102055000D01*
G75*
G02*
X98350000Y-102205000I-150000J0D01*
G01*
X96700000Y-102205000D01*
G75*
G02*
X96550000Y-102055000I0J150000D01*
G01*
G37*
%TD.AperFunction*%
%TO.P,U1,3*%
%TO.N,PIN3*%
%TA.AperFunction,SMDPad,CuDef*%
G36*
G01*
X96550000Y-100785000D02*
X96550000Y-100485000D01*
G75*
G02*
X96700000Y-100335000I150000J0D01*
G01*
X98350000Y-100335000D01*
G75*
G02*
X98500000Y-100485000I0J-150000D01*
G01*
X98500000Y-100785000D01*
G75*
G02*
X98350000Y-100935000I-150000J0D01*
G01*
X96700000Y-100935000D01*
G75*
G02*
X96550000Y-100785000I0J150000D01*
G01*
G37*
%TD.AperFunction*%
%TO.P,U1,2*%
%TO.N,PIN2*%
%TA.AperFunction,SMDPad,CuDef*%
G36*
G01*
X96550000Y-99515000D02*
X96550000Y-99215000D01*
G75*
G02*
X96700000Y-99065000I150000J0D01*
G01*
X98350000Y-99065000D01*
G75*
G02*
X98500000Y-99215000I0J-150000D01*
G01*
X98500000Y-99515000D01*
G75*
G02*
X98350000Y-99665000I-150000J0D01*
G01*
X96700000Y-99665000D01*
G75*
G02*
X96550000Y-99515000I0J150000D01*
G01*
G37*
%TD.AperFunction*%
%TO.P,U1,1*%
%TO.N,PIN1*%
%TA.AperFunction,SMDPad,CuDef*%
G36*
G01*
X96550000Y-98245000D02*
X96550000Y-97945000D01*
G75*
G02*
X96700000Y-97795000I150000J0D01*
G01*
X98350000Y-97795000D01*
G75*
G02*
X98500000Y-97945000I0J-150000D01*
G01*
X98500000Y-98245000D01*
G75*
G02*
X98350000Y-98395000I-150000J0D01*
G01*
X96700000Y-98395000D01*
G75*
G02*
X96550000Y-98245000I0J150000D01*
G01*
G37*
%TD.AperFunction*%
%TD*%
D12*
%TO.N,PIN1*%
X97525000Y-98095000D02*
X96095000Y-98095000D01*
X94190000Y-96190000D02*
X92380000Y-96190000D01*
X96095000Y-98095000D02*
X94190000Y-96190000D01*
%TO.N,PIN2*%
X97525000Y-99365000D02*
X95765000Y-99365000D01*
X95130000Y-98730000D02*
X92380000Y-98730000D01*
X95765000Y-99365000D02*
X95130000Y-98730000D01*
%TO.N,PIN3*%
X97525000Y-100635000D02*
X95865000Y-100635000D01*
X95230000Y-101270000D02*
X92380000Y-101270000D01*
X95865000Y-100635000D02*
X95230000Y-101270000D01*
%TO.N,PIN4*%
X93990000Y-103810000D02*
X92380000Y-103810000D01*
X95895000Y-101905000D02*
X93990000Y-103810000D01*
X97525000Y-101905000D02*
X95895000Y-101905000D01*
%TO.N,PIN5*%
X106010000Y-103810000D02*
X107620000Y-103810000D01*
X104105000Y-101905000D02*
X106010000Y-103810000D01*
X102475000Y-101905000D02*
X104105000Y-101905000D01*
%TO.N,PIN6*%
X102475000Y-100635000D02*
X104335000Y-100635000D01*
X104970000Y-101270000D02*
X107620000Y-101270000D01*
X104335000Y-100635000D02*
X104970000Y-101270000D01*
%TO.N,PIN7*%
X102475000Y-99365000D02*
X104335000Y-99365000D01*
X104970000Y-98730000D02*
X107620000Y-98730000D01*
X104335000Y-99365000D02*
X104970000Y-98730000D01*
%TO.N,PIN8*%
X106110000Y-96190000D02*
X107620000Y-96190000D01*
X104205000Y-98095000D02*
X106110000Y-96190000D01*
X102475000Y-98095000D02*
X104205000Y-98095000D01*
%TD*%
M02*
