%TF.GenerationSoftware,KiCad,Pcbnew,5.1.7-a382d34a8~87~ubuntu20.04.1*%
%TF.CreationDate,2020-11-06T18:29:39+02:00*%
%TF.ProjectId,BRK-SOIC-8-3.9x4.9-P1.27,42524b2d-534f-4494-932d-382d332e3978,v1.0*%
%TF.SameCoordinates,Original*%
%TF.FileFunction,Legend,Top*%
%TF.FilePolarity,Positive*%
%FSLAX46Y46*%
G04 Gerber Fmt 4.6, Leading zero omitted, Abs format (unit mm)*
G04 Created by KiCad (PCBNEW 5.1.7-a382d34a8~87~ubuntu20.04.1) date 2020-11-06 18:29:39*
%MOMM*%
%LPD*%
G01*
G04 APERTURE LIST*
%ADD10C,0.250000*%
%ADD11C,0.150000*%
%ADD12C,0.120000*%
G04 APERTURE END LIST*
D10*
X104884642Y-96035238D02*
X104760833Y-95973333D01*
X104698928Y-95911428D01*
X104637023Y-95787619D01*
X104637023Y-95725714D01*
X104698928Y-95601904D01*
X104760833Y-95540000D01*
X104884642Y-95478095D01*
X105132261Y-95478095D01*
X105256071Y-95540000D01*
X105317976Y-95601904D01*
X105379880Y-95725714D01*
X105379880Y-95787619D01*
X105317976Y-95911428D01*
X105256071Y-95973333D01*
X105132261Y-96035238D01*
X104884642Y-96035238D01*
X104760833Y-96097142D01*
X104698928Y-96159047D01*
X104637023Y-96282857D01*
X104637023Y-96530476D01*
X104698928Y-96654285D01*
X104760833Y-96716190D01*
X104884642Y-96778095D01*
X105132261Y-96778095D01*
X105256071Y-96716190D01*
X105317976Y-96654285D01*
X105379880Y-96530476D01*
X105379880Y-96282857D01*
X105317976Y-96159047D01*
X105256071Y-96097142D01*
X105132261Y-96035238D01*
X104575119Y-98018095D02*
X105441785Y-98018095D01*
X104884642Y-99318095D01*
X105256071Y-100558095D02*
X105008452Y-100558095D01*
X104884642Y-100620000D01*
X104822738Y-100681904D01*
X104698928Y-100867619D01*
X104637023Y-101115238D01*
X104637023Y-101610476D01*
X104698928Y-101734285D01*
X104760833Y-101796190D01*
X104884642Y-101858095D01*
X105132261Y-101858095D01*
X105256071Y-101796190D01*
X105317976Y-101734285D01*
X105379880Y-101610476D01*
X105379880Y-101300952D01*
X105317976Y-101177142D01*
X105256071Y-101115238D01*
X105132261Y-101053333D01*
X104884642Y-101053333D01*
X104760833Y-101115238D01*
X104698928Y-101177142D01*
X104637023Y-101300952D01*
X105317976Y-103098095D02*
X104698928Y-103098095D01*
X104637023Y-103717142D01*
X104698928Y-103655238D01*
X104822738Y-103593333D01*
X105132261Y-103593333D01*
X105256071Y-103655238D01*
X105317976Y-103717142D01*
X105379880Y-103840952D01*
X105379880Y-104150476D01*
X105317976Y-104274285D01*
X105256071Y-104336190D01*
X105132261Y-104398095D01*
X104822738Y-104398095D01*
X104698928Y-104336190D01*
X104637023Y-104274285D01*
X95239166Y-103531428D02*
X95239166Y-104398095D01*
X94929642Y-103036190D02*
X94620119Y-103964761D01*
X95424880Y-103964761D01*
X94558214Y-100558095D02*
X95362976Y-100558095D01*
X94929642Y-101053333D01*
X95115357Y-101053333D01*
X95239166Y-101115238D01*
X95301071Y-101177142D01*
X95362976Y-101300952D01*
X95362976Y-101610476D01*
X95301071Y-101734285D01*
X95239166Y-101796190D01*
X95115357Y-101858095D01*
X94743928Y-101858095D01*
X94620119Y-101796190D01*
X94558214Y-101734285D01*
X94620119Y-98141904D02*
X94682023Y-98080000D01*
X94805833Y-98018095D01*
X95115357Y-98018095D01*
X95239166Y-98080000D01*
X95301071Y-98141904D01*
X95362976Y-98265714D01*
X95362976Y-98389523D01*
X95301071Y-98575238D01*
X94558214Y-99318095D01*
X95362976Y-99318095D01*
X95362976Y-96778095D02*
X94620119Y-96778095D01*
X94991547Y-96778095D02*
X94991547Y-95478095D01*
X94867738Y-95663809D01*
X94743928Y-95787619D01*
X94620119Y-95849523D01*
D11*
G36*
X109020000Y-92700000D02*
G01*
X90980000Y-92700000D01*
X90980000Y-86700000D01*
X109020000Y-86700000D01*
X109020000Y-92700000D01*
G37*
X109020000Y-92700000D02*
X90980000Y-92700000D01*
X90980000Y-86700000D01*
X109020000Y-86700000D01*
X109020000Y-92700000D01*
D12*
%TO.C,J2*%
X108950000Y-94860000D02*
X106290000Y-94860000D01*
X108950000Y-102540000D02*
X108950000Y-94860000D01*
X106290000Y-102540000D02*
X106290000Y-94860000D01*
X108950000Y-102540000D02*
X106290000Y-102540000D01*
X108950000Y-103810000D02*
X108950000Y-105140000D01*
X108950000Y-105140000D02*
X107620000Y-105140000D01*
%TO.C,J1*%
X91050000Y-105140000D02*
X93710000Y-105140000D01*
X91050000Y-97460000D02*
X91050000Y-105140000D01*
X93710000Y-97460000D02*
X93710000Y-105140000D01*
X91050000Y-97460000D02*
X93710000Y-97460000D01*
X91050000Y-96190000D02*
X91050000Y-94860000D01*
X91050000Y-94860000D02*
X92380000Y-94860000D01*
%TO.C,U1*%
X100000000Y-102560000D02*
X101950000Y-102560000D01*
X100000000Y-102560000D02*
X98050000Y-102560000D01*
X100000000Y-97440000D02*
X101950000Y-97440000D01*
X100000000Y-97440000D02*
X96550000Y-97440000D01*
%TD*%
M02*
