G04 #@! TF.GenerationSoftware,KiCad,Pcbnew,5.1.6-c6e7f7d~86~ubuntu20.04.1*
G04 #@! TF.CreationDate,2020-05-17T01:14:19+03:00*
G04 #@! TF.ProjectId,BRK-SC-70-6,42524b2d-5343-42d3-9730-2d362e6b6963,v1.1*
G04 #@! TF.SameCoordinates,Original*
G04 #@! TF.FileFunction,Legend,Top*
G04 #@! TF.FilePolarity,Positive*
%FSLAX46Y46*%
G04 Gerber Fmt 4.6, Leading zero omitted, Abs format (unit mm)*
G04 Created by KiCad (PCBNEW 5.1.6-c6e7f7d~86~ubuntu20.04.1) date 2020-05-17 01:14:19*
%MOMM*%
%LPD*%
G01*
G04 APERTURE LIST*
G04 #@! TA.AperFunction,Profile*
%ADD10C,0.150000*%
G04 #@! TD*
%ADD11C,0.300000*%
%ADD12C,0.150000*%
%ADD13C,0.120000*%
G04 APERTURE END LIST*
D10*
X53000000Y-68000000D02*
G75*
G02*
X51000000Y-66000000I0J2000000D01*
G01*
X67300000Y-66000000D02*
G75*
G02*
X65300000Y-68000000I-2000000J0D01*
G01*
X65300000Y-50000000D02*
G75*
G02*
X67300000Y-52000000I0J-2000000D01*
G01*
X51000000Y-52000000D02*
G75*
G02*
X53000000Y-50000000I2000000J0D01*
G01*
D11*
X63162142Y-64942857D02*
X63162142Y-65742857D01*
X62876428Y-64485714D02*
X62590714Y-65342857D01*
X63333571Y-65342857D01*
X63219285Y-62042857D02*
X62647857Y-62042857D01*
X62590714Y-62614285D01*
X62647857Y-62557142D01*
X62762142Y-62500000D01*
X63047857Y-62500000D01*
X63162142Y-62557142D01*
X63219285Y-62614285D01*
X63276428Y-62728571D01*
X63276428Y-63014285D01*
X63219285Y-63128571D01*
X63162142Y-63185714D01*
X63047857Y-63242857D01*
X62762142Y-63242857D01*
X62647857Y-63185714D01*
X62590714Y-63128571D01*
X63162142Y-59392857D02*
X62933571Y-59392857D01*
X62819285Y-59450000D01*
X62762142Y-59507142D01*
X62647857Y-59678571D01*
X62590714Y-59907142D01*
X62590714Y-60364285D01*
X62647857Y-60478571D01*
X62705000Y-60535714D01*
X62819285Y-60592857D01*
X63047857Y-60592857D01*
X63162142Y-60535714D01*
X63219285Y-60478571D01*
X63276428Y-60364285D01*
X63276428Y-60078571D01*
X63219285Y-59964285D01*
X63162142Y-59907142D01*
X63047857Y-59850000D01*
X62819285Y-59850000D01*
X62705000Y-59907142D01*
X62647857Y-59964285D01*
X62590714Y-60078571D01*
X54966428Y-64592857D02*
X55709285Y-64592857D01*
X55309285Y-65050000D01*
X55480714Y-65050000D01*
X55595000Y-65107142D01*
X55652142Y-65164285D01*
X55709285Y-65278571D01*
X55709285Y-65564285D01*
X55652142Y-65678571D01*
X55595000Y-65735714D01*
X55480714Y-65792857D01*
X55137857Y-65792857D01*
X55023571Y-65735714D01*
X54966428Y-65678571D01*
X55023571Y-62107142D02*
X55080714Y-62050000D01*
X55195000Y-61992857D01*
X55480714Y-61992857D01*
X55595000Y-62050000D01*
X55652142Y-62107142D01*
X55709285Y-62221428D01*
X55709285Y-62335714D01*
X55652142Y-62507142D01*
X54966428Y-63192857D01*
X55709285Y-63192857D01*
X55709285Y-60642857D02*
X55023571Y-60642857D01*
X55366428Y-60642857D02*
X55366428Y-59442857D01*
X55252142Y-59614285D01*
X55137857Y-59728571D01*
X55023571Y-59785714D01*
D10*
X65300000Y-68000000D02*
X53000000Y-68000000D01*
D12*
G36*
X66800000Y-57500000D02*
G01*
X51500000Y-57500000D01*
X51500000Y-53500000D01*
X66800000Y-53500000D01*
X66800000Y-57500000D01*
G37*
X66800000Y-57500000D02*
X51500000Y-57500000D01*
X51500000Y-53500000D01*
X66800000Y-53500000D01*
X66800000Y-57500000D01*
D10*
X67300000Y-52000000D02*
X67300000Y-66000000D01*
D11*
X53971428Y-52607142D02*
X54185714Y-52678571D01*
X54542857Y-52678571D01*
X54685714Y-52607142D01*
X54757142Y-52535714D01*
X54828571Y-52392857D01*
X54828571Y-52250000D01*
X54757142Y-52107142D01*
X54685714Y-52035714D01*
X54542857Y-51964285D01*
X54257142Y-51892857D01*
X54114285Y-51821428D01*
X54042857Y-51750000D01*
X53971428Y-51607142D01*
X53971428Y-51464285D01*
X54042857Y-51321428D01*
X54114285Y-51250000D01*
X54257142Y-51178571D01*
X54614285Y-51178571D01*
X54828571Y-51250000D01*
X56328571Y-52535714D02*
X56257142Y-52607142D01*
X56042857Y-52678571D01*
X55900000Y-52678571D01*
X55685714Y-52607142D01*
X55542857Y-52464285D01*
X55471428Y-52321428D01*
X55400000Y-52035714D01*
X55400000Y-51821428D01*
X55471428Y-51535714D01*
X55542857Y-51392857D01*
X55685714Y-51250000D01*
X55900000Y-51178571D01*
X56042857Y-51178571D01*
X56257142Y-51250000D01*
X56328571Y-51321428D01*
X56971428Y-52107142D02*
X58114285Y-52107142D01*
X58685714Y-51178571D02*
X59685714Y-51178571D01*
X59042857Y-52678571D01*
X60542857Y-51178571D02*
X60685714Y-51178571D01*
X60828571Y-51250000D01*
X60900000Y-51321428D01*
X60971428Y-51464285D01*
X61042857Y-51750000D01*
X61042857Y-52107142D01*
X60971428Y-52392857D01*
X60900000Y-52535714D01*
X60828571Y-52607142D01*
X60685714Y-52678571D01*
X60542857Y-52678571D01*
X60400000Y-52607142D01*
X60328571Y-52535714D01*
X60257142Y-52392857D01*
X60185714Y-52107142D01*
X60185714Y-51750000D01*
X60257142Y-51464285D01*
X60328571Y-51321428D01*
X60400000Y-51250000D01*
X60542857Y-51178571D01*
X61685714Y-52107142D02*
X62828571Y-52107142D01*
X64185714Y-51178571D02*
X63900000Y-51178571D01*
X63757142Y-51250000D01*
X63685714Y-51321428D01*
X63542857Y-51535714D01*
X63471428Y-51821428D01*
X63471428Y-52392857D01*
X63542857Y-52535714D01*
X63614285Y-52607142D01*
X63757142Y-52678571D01*
X64042857Y-52678571D01*
X64185714Y-52607142D01*
X64257142Y-52535714D01*
X64328571Y-52392857D01*
X64328571Y-52035714D01*
X64257142Y-51892857D01*
X64185714Y-51821428D01*
X64042857Y-51750000D01*
X63757142Y-51750000D01*
X63614285Y-51821428D01*
X63542857Y-51892857D01*
X63471428Y-52035714D01*
D10*
X53000000Y-50000000D02*
X65300000Y-50000000D01*
X51000000Y-66000000D02*
X51000000Y-52000000D01*
D13*
X66830000Y-58770000D02*
X64170000Y-58770000D01*
X66830000Y-63910000D02*
X66830000Y-58770000D01*
X64170000Y-63910000D02*
X64170000Y-58770000D01*
X66830000Y-63910000D02*
X64170000Y-63910000D01*
X66830000Y-65180000D02*
X66830000Y-66510000D01*
X66830000Y-66510000D02*
X65500000Y-66510000D01*
X51470000Y-66510000D02*
X54130000Y-66510000D01*
X51470000Y-61370000D02*
X51470000Y-66510000D01*
X54130000Y-61370000D02*
X54130000Y-66510000D01*
X51470000Y-61370000D02*
X54130000Y-61370000D01*
X51470000Y-60100000D02*
X51470000Y-58770000D01*
X51470000Y-58770000D02*
X52800000Y-58770000D01*
X59850000Y-61440000D02*
X57950000Y-61440000D01*
X58450000Y-63760000D02*
X59850000Y-63760000D01*
M02*
