G04 #@! TF.GenerationSoftware,KiCad,Pcbnew,5.0.1-33cea8e~68~ubuntu18.10.1*
G04 #@! TF.CreationDate,2018-11-20T09:41:42+02:00*
G04 #@! TF.ProjectId,BUS-BLASTER-AVR-1.27,4255532D424C41535445522D4156522D,v1.0*
G04 #@! TF.SameCoordinates,Original*
G04 #@! TF.FileFunction,Legend,Bot*
G04 #@! TF.FilePolarity,Positive*
%FSLAX46Y46*%
G04 Gerber Fmt 4.6, Leading zero omitted, Abs format (unit mm)*
G04 Created by KiCad (PCBNEW 5.0.1-33cea8e~68~ubuntu18.10.1) date ti 20. marraskuuta 2018 09.41.42*
%MOMM*%
%LPD*%
G01*
G04 APERTURE LIST*
%ADD10C,0.150000*%
%ADD11C,0.200000*%
G04 APERTURE END LIST*
D10*
X65000000Y-87000000D02*
G75*
G02X63000000Y-85000000I0J2000000D01*
G01*
X102000000Y-85000000D02*
G75*
G02X100000000Y-87000000I-2000000J0D01*
G01*
X100000000Y-50000000D02*
G75*
G02X102000000Y-52000000I0J-2000000D01*
G01*
X63000000Y-52000000D02*
G75*
G02X65000000Y-50000000I2000000J0D01*
G01*
D11*
X90778571Y-57545238D02*
X90826190Y-57688095D01*
X90873809Y-57735714D01*
X90969047Y-57783333D01*
X91111904Y-57783333D01*
X91207142Y-57735714D01*
X91254761Y-57688095D01*
X91302380Y-57592857D01*
X91302380Y-57211904D01*
X90302380Y-57211904D01*
X90302380Y-57545238D01*
X90350000Y-57640476D01*
X90397619Y-57688095D01*
X90492857Y-57735714D01*
X90588095Y-57735714D01*
X90683333Y-57688095D01*
X90730952Y-57640476D01*
X90778571Y-57545238D01*
X90778571Y-57211904D01*
X90302380Y-58211904D02*
X91111904Y-58211904D01*
X91207142Y-58259523D01*
X91254761Y-58307142D01*
X91302380Y-58402380D01*
X91302380Y-58592857D01*
X91254761Y-58688095D01*
X91207142Y-58735714D01*
X91111904Y-58783333D01*
X90302380Y-58783333D01*
X91254761Y-59211904D02*
X91302380Y-59354761D01*
X91302380Y-59592857D01*
X91254761Y-59688095D01*
X91207142Y-59735714D01*
X91111904Y-59783333D01*
X91016666Y-59783333D01*
X90921428Y-59735714D01*
X90873809Y-59688095D01*
X90826190Y-59592857D01*
X90778571Y-59402380D01*
X90730952Y-59307142D01*
X90683333Y-59259523D01*
X90588095Y-59211904D01*
X90492857Y-59211904D01*
X90397619Y-59259523D01*
X90350000Y-59307142D01*
X90302380Y-59402380D01*
X90302380Y-59640476D01*
X90350000Y-59783333D01*
X90921428Y-60211904D02*
X90921428Y-60973809D01*
X90778571Y-61783333D02*
X90826190Y-61926190D01*
X90873809Y-61973809D01*
X90969047Y-62021428D01*
X91111904Y-62021428D01*
X91207142Y-61973809D01*
X91254761Y-61926190D01*
X91302380Y-61830952D01*
X91302380Y-61450000D01*
X90302380Y-61450000D01*
X90302380Y-61783333D01*
X90350000Y-61878571D01*
X90397619Y-61926190D01*
X90492857Y-61973809D01*
X90588095Y-61973809D01*
X90683333Y-61926190D01*
X90730952Y-61878571D01*
X90778571Y-61783333D01*
X90778571Y-61450000D01*
X91302380Y-62926190D02*
X91302380Y-62450000D01*
X90302380Y-62450000D01*
X91016666Y-63211904D02*
X91016666Y-63688095D01*
X91302380Y-63116666D02*
X90302380Y-63450000D01*
X91302380Y-63783333D01*
X91254761Y-64069047D02*
X91302380Y-64211904D01*
X91302380Y-64450000D01*
X91254761Y-64545238D01*
X91207142Y-64592857D01*
X91111904Y-64640476D01*
X91016666Y-64640476D01*
X90921428Y-64592857D01*
X90873809Y-64545238D01*
X90826190Y-64450000D01*
X90778571Y-64259523D01*
X90730952Y-64164285D01*
X90683333Y-64116666D01*
X90588095Y-64069047D01*
X90492857Y-64069047D01*
X90397619Y-64116666D01*
X90350000Y-64164285D01*
X90302380Y-64259523D01*
X90302380Y-64497619D01*
X90350000Y-64640476D01*
X90302380Y-64926190D02*
X90302380Y-65497619D01*
X91302380Y-65211904D02*
X90302380Y-65211904D01*
X90778571Y-65830952D02*
X90778571Y-66164285D01*
X91302380Y-66307142D02*
X91302380Y-65830952D01*
X90302380Y-65830952D01*
X90302380Y-66307142D01*
X91302380Y-67307142D02*
X90826190Y-66973809D01*
X91302380Y-66735714D02*
X90302380Y-66735714D01*
X90302380Y-67116666D01*
X90350000Y-67211904D01*
X90397619Y-67259523D01*
X90492857Y-67307142D01*
X90635714Y-67307142D01*
X90730952Y-67259523D01*
X90778571Y-67211904D01*
X90826190Y-67116666D01*
X90826190Y-66735714D01*
X90921428Y-67735714D02*
X90921428Y-68497619D01*
X91016666Y-68926190D02*
X91016666Y-69402380D01*
X91302380Y-68830952D02*
X90302380Y-69164285D01*
X91302380Y-69497619D01*
X90302380Y-69688095D02*
X91302380Y-70021428D01*
X90302380Y-70354761D01*
X91302380Y-71259523D02*
X90826190Y-70926190D01*
X91302380Y-70688095D02*
X90302380Y-70688095D01*
X90302380Y-71069047D01*
X90350000Y-71164285D01*
X90397619Y-71211904D01*
X90492857Y-71259523D01*
X90635714Y-71259523D01*
X90730952Y-71211904D01*
X90778571Y-71164285D01*
X90826190Y-71069047D01*
X90826190Y-70688095D01*
X90921428Y-71688095D02*
X90921428Y-72450000D01*
X91302380Y-73450000D02*
X91302380Y-72878571D01*
X91302380Y-73164285D02*
X90302380Y-73164285D01*
X90445238Y-73069047D01*
X90540476Y-72973809D01*
X90588095Y-72878571D01*
X91207142Y-73878571D02*
X91254761Y-73926190D01*
X91302380Y-73878571D01*
X91254761Y-73830952D01*
X91207142Y-73878571D01*
X91302380Y-73878571D01*
X90397619Y-74307142D02*
X90350000Y-74354761D01*
X90302380Y-74450000D01*
X90302380Y-74688095D01*
X90350000Y-74783333D01*
X90397619Y-74830952D01*
X90492857Y-74878571D01*
X90588095Y-74878571D01*
X90730952Y-74830952D01*
X91302380Y-74259523D01*
X91302380Y-74878571D01*
X90302380Y-75211904D02*
X90302380Y-75878571D01*
X91302380Y-75450000D01*
X90635714Y-76926190D02*
X91302380Y-77164285D01*
X90635714Y-77402380D01*
X91302380Y-78307142D02*
X91302380Y-77735714D01*
X91302380Y-78021428D02*
X90302380Y-78021428D01*
X90445238Y-77926190D01*
X90540476Y-77830952D01*
X90588095Y-77735714D01*
X91207142Y-78735714D02*
X91254761Y-78783333D01*
X91302380Y-78735714D01*
X91254761Y-78688095D01*
X91207142Y-78735714D01*
X91302380Y-78735714D01*
X90302380Y-79402380D02*
X90302380Y-79497619D01*
X90350000Y-79592857D01*
X90397619Y-79640476D01*
X90492857Y-79688095D01*
X90683333Y-79735714D01*
X90921428Y-79735714D01*
X91111904Y-79688095D01*
X91207142Y-79640476D01*
X91254761Y-79592857D01*
X91302380Y-79497619D01*
X91302380Y-79402380D01*
X91254761Y-79307142D01*
X91207142Y-79259523D01*
X91111904Y-79211904D01*
X90921428Y-79164285D01*
X90683333Y-79164285D01*
X90492857Y-79211904D01*
X90397619Y-79259523D01*
X90350000Y-79307142D01*
X90302380Y-79402380D01*
X93002380Y-62378571D02*
X92002380Y-62378571D01*
X93002380Y-62807142D02*
X92478571Y-62807142D01*
X92383333Y-62759523D01*
X92335714Y-62664285D01*
X92335714Y-62521428D01*
X92383333Y-62426190D01*
X92430952Y-62378571D01*
X92335714Y-63140476D02*
X92335714Y-63521428D01*
X92002380Y-63283333D02*
X92859523Y-63283333D01*
X92954761Y-63330952D01*
X93002380Y-63426190D01*
X93002380Y-63521428D01*
X92335714Y-63711904D02*
X92335714Y-64092857D01*
X92002380Y-63854761D02*
X92859523Y-63854761D01*
X92954761Y-63902380D01*
X93002380Y-63997619D01*
X93002380Y-64092857D01*
X92335714Y-64426190D02*
X93335714Y-64426190D01*
X92383333Y-64426190D02*
X92335714Y-64521428D01*
X92335714Y-64711904D01*
X92383333Y-64807142D01*
X92430952Y-64854761D01*
X92526190Y-64902380D01*
X92811904Y-64902380D01*
X92907142Y-64854761D01*
X92954761Y-64807142D01*
X93002380Y-64711904D01*
X93002380Y-64521428D01*
X92954761Y-64426190D01*
X92954761Y-65283333D02*
X93002380Y-65378571D01*
X93002380Y-65569047D01*
X92954761Y-65664285D01*
X92859523Y-65711904D01*
X92811904Y-65711904D01*
X92716666Y-65664285D01*
X92669047Y-65569047D01*
X92669047Y-65426190D01*
X92621428Y-65330952D01*
X92526190Y-65283333D01*
X92478571Y-65283333D01*
X92383333Y-65330952D01*
X92335714Y-65426190D01*
X92335714Y-65569047D01*
X92383333Y-65664285D01*
X92907142Y-66140476D02*
X92954761Y-66188095D01*
X93002380Y-66140476D01*
X92954761Y-66092857D01*
X92907142Y-66140476D01*
X93002380Y-66140476D01*
X92383333Y-66140476D02*
X92430952Y-66188095D01*
X92478571Y-66140476D01*
X92430952Y-66092857D01*
X92383333Y-66140476D01*
X92478571Y-66140476D01*
X91954761Y-67330952D02*
X93240476Y-66473809D01*
X91954761Y-68378571D02*
X93240476Y-67521428D01*
X92335714Y-69140476D02*
X93145238Y-69140476D01*
X93240476Y-69092857D01*
X93288095Y-69045238D01*
X93335714Y-68950000D01*
X93335714Y-68807142D01*
X93288095Y-68711904D01*
X92954761Y-69140476D02*
X93002380Y-69045238D01*
X93002380Y-68854761D01*
X92954761Y-68759523D01*
X92907142Y-68711904D01*
X92811904Y-68664285D01*
X92526190Y-68664285D01*
X92430952Y-68711904D01*
X92383333Y-68759523D01*
X92335714Y-68854761D01*
X92335714Y-69045238D01*
X92383333Y-69140476D01*
X92954761Y-69997619D02*
X93002380Y-69902380D01*
X93002380Y-69711904D01*
X92954761Y-69616666D01*
X92859523Y-69569047D01*
X92478571Y-69569047D01*
X92383333Y-69616666D01*
X92335714Y-69711904D01*
X92335714Y-69902380D01*
X92383333Y-69997619D01*
X92478571Y-70045238D01*
X92573809Y-70045238D01*
X92669047Y-69569047D01*
X93002380Y-70473809D02*
X92002380Y-70473809D01*
X92621428Y-70569047D02*
X93002380Y-70854761D01*
X92335714Y-70854761D02*
X92716666Y-70473809D01*
X93002380Y-71283333D02*
X92002380Y-71283333D01*
X92621428Y-71378571D02*
X93002380Y-71664285D01*
X92335714Y-71664285D02*
X92716666Y-71283333D01*
X93002380Y-72092857D02*
X92335714Y-72092857D01*
X92002380Y-72092857D02*
X92050000Y-72045238D01*
X92097619Y-72092857D01*
X92050000Y-72140476D01*
X92002380Y-72092857D01*
X92097619Y-72092857D01*
X93002380Y-72711904D02*
X92954761Y-72616666D01*
X92907142Y-72569047D01*
X92811904Y-72521428D01*
X92526190Y-72521428D01*
X92430952Y-72569047D01*
X92383333Y-72616666D01*
X92335714Y-72711904D01*
X92335714Y-72854761D01*
X92383333Y-72950000D01*
X92430952Y-72997619D01*
X92526190Y-73045238D01*
X92811904Y-73045238D01*
X92907142Y-72997619D01*
X92954761Y-72950000D01*
X93002380Y-72854761D01*
X93002380Y-72711904D01*
X92907142Y-73473809D02*
X92954761Y-73521428D01*
X93002380Y-73473809D01*
X92954761Y-73426190D01*
X92907142Y-73473809D01*
X93002380Y-73473809D01*
X92335714Y-73807142D02*
X92335714Y-74188095D01*
X93002380Y-73950000D02*
X92145238Y-73950000D01*
X92050000Y-73997619D01*
X92002380Y-74092857D01*
X92002380Y-74188095D01*
X93002380Y-74521428D02*
X92335714Y-74521428D01*
X92002380Y-74521428D02*
X92050000Y-74473809D01*
X92097619Y-74521428D01*
X92050000Y-74569047D01*
X92002380Y-74521428D01*
X92097619Y-74521428D01*
D10*
X65000000Y-50000000D02*
X100000000Y-50000000D01*
X102000000Y-85000000D02*
X102000000Y-52000000D01*
X65000000Y-87000000D02*
X100000000Y-87000000D01*
X63000000Y-52000000D02*
X63000000Y-85000000D01*
M02*
