M48
;DRILL file {KiCad 5.0.1-33cea8e~68~ubuntu18.10.1} date ma 26. marraskuuta 2018 23.36.54
;FORMAT={-:-/ absolute / inch / decimal}
FMAT,2
INCH,TZ
T1C0.0236
T2C0.0256
T3C0.0400
%
G90
G05
M72
T1
X2.5787Y-2.6378
X2.5807Y-3.0906
X2.7972Y-2.4941
X2.8287Y-2.9508
X2.8307Y-2.3031
X2.8543Y-2.6476
X2.8681Y-2.4764
X2.9272Y-2.4213
X2.9567Y-3.1535
X2.9843Y-2.1417
X2.9882Y-2.5906
X3.Y-2.7894
X3.0453Y-2.7106
X3.0945Y-3.0197
X3.1063Y-2.7657
X3.1555Y-2.8681
X3.1654Y-2.6181
X3.1949Y-2.3996
X3.2224Y-3.2972
X3.5276Y-3.2638
X3.5709Y-2.185
X3.6043Y-2.4685
X3.6201Y-2.8996
X3.8248Y-2.6791
T2
X2.6791Y-2.5972
X2.6791Y-2.6472
X2.6791Y-2.6972
X2.6791Y-2.7472
X2.6791Y-2.7972
X2.7291Y-2.5972
X2.7291Y-2.6472
X2.7291Y-2.6972
X2.7291Y-2.7472
X2.7291Y-2.7972
T3
X3.2717Y-2.2472
X3.2717Y-2.3472
X3.2717Y-2.4472
X3.2717Y-2.5472
X3.2717Y-2.6472
X3.2717Y-2.7472
X3.2717Y-2.8472
X3.2717Y-2.9472
X3.2717Y-3.0472
X3.2717Y-3.1472
X3.3717Y-2.2472
X3.3717Y-2.3472
X3.3717Y-2.4472
X3.3717Y-2.5472
X3.3717Y-2.6472
X3.3717Y-2.7472
X3.3717Y-2.8472
X3.3717Y-2.9472
X3.3717Y-3.0472
X3.3717Y-3.1472
T0
M30
