G04 #@! TF.GenerationSoftware,KiCad,Pcbnew,5.0.1-33cea8e~68~ubuntu18.10.1*
G04 #@! TF.CreationDate,2018-11-20T09:41:42+02:00*
G04 #@! TF.ProjectId,BUS-BLASTER-AVR-1.27,4255532D424C41535445522D4156522D,v1.0*
G04 #@! TF.SameCoordinates,Original*
G04 #@! TF.FileFunction,Legend,Top*
G04 #@! TF.FilePolarity,Positive*
%FSLAX46Y46*%
G04 Gerber Fmt 4.6, Leading zero omitted, Abs format (unit mm)*
G04 Created by KiCad (PCBNEW 5.0.1-33cea8e~68~ubuntu18.10.1) date ti 20. marraskuuta 2018 09.41.42*
%MOMM*%
%LPD*%
G01*
G04 APERTURE LIST*
%ADD10C,0.150000*%
%ADD11C,0.200000*%
%ADD12C,0.300000*%
%ADD13C,0.120000*%
G04 APERTURE END LIST*
D10*
X65000000Y-87000000D02*
G75*
G02X63000000Y-85000000I0J2000000D01*
G01*
X102000000Y-85000000D02*
G75*
G02X100000000Y-87000000I-2000000J0D01*
G01*
X100000000Y-50000000D02*
G75*
G02X102000000Y-52000000I0J-2000000D01*
G01*
X63000000Y-52000000D02*
G75*
G02X65000000Y-50000000I2000000J0D01*
G01*
G36*
X66850000Y-67850000D02*
X66850000Y-69150000D01*
X66400000Y-69150000D01*
X66400000Y-67850000D01*
X66850000Y-67850000D01*
G37*
X66850000Y-67850000D02*
X66850000Y-69150000D01*
X66400000Y-69150000D01*
X66400000Y-67850000D01*
X66850000Y-67850000D01*
X74869166Y-74685714D02*
X74869166Y-75352380D01*
X74869166Y-74780952D02*
X74916785Y-74733333D01*
X75012023Y-74685714D01*
X75154880Y-74685714D01*
X75250119Y-74733333D01*
X75297738Y-74828571D01*
X75297738Y-75352380D01*
X75726309Y-75304761D02*
X75869166Y-75352380D01*
X76107261Y-75352380D01*
X76202500Y-75304761D01*
X76250119Y-75257142D01*
X76297738Y-75161904D01*
X76297738Y-75066666D01*
X76250119Y-74971428D01*
X76202500Y-74923809D01*
X76107261Y-74876190D01*
X75916785Y-74828571D01*
X75821547Y-74780952D01*
X75773928Y-74733333D01*
X75726309Y-74638095D01*
X75726309Y-74542857D01*
X75773928Y-74447619D01*
X75821547Y-74400000D01*
X75916785Y-74352380D01*
X76154880Y-74352380D01*
X76297738Y-74400000D01*
X77297738Y-75352380D02*
X76964404Y-74876190D01*
X76726309Y-75352380D02*
X76726309Y-74352380D01*
X77107261Y-74352380D01*
X77202500Y-74400000D01*
X77250119Y-74447619D01*
X77297738Y-74542857D01*
X77297738Y-74685714D01*
X77250119Y-74780952D01*
X77202500Y-74828571D01*
X77107261Y-74876190D01*
X76726309Y-74876190D01*
X77678690Y-75304761D02*
X77821547Y-75352380D01*
X78059642Y-75352380D01*
X78154880Y-75304761D01*
X78202500Y-75257142D01*
X78250119Y-75161904D01*
X78250119Y-75066666D01*
X78202500Y-74971428D01*
X78154880Y-74923809D01*
X78059642Y-74876190D01*
X77869166Y-74828571D01*
X77773928Y-74780952D01*
X77726309Y-74733333D01*
X77678690Y-74638095D01*
X77678690Y-74542857D01*
X77726309Y-74447619D01*
X77773928Y-74400000D01*
X77869166Y-74352380D01*
X78107261Y-74352380D01*
X78250119Y-74400000D01*
X78535833Y-74352380D02*
X79107261Y-74352380D01*
X78821547Y-75352380D02*
X78821547Y-74352380D01*
X76488214Y-71852380D02*
X77059642Y-71852380D01*
X76773928Y-72852380D02*
X76773928Y-71852380D01*
X77392976Y-72852380D02*
X77392976Y-71852380D01*
X77631071Y-71852380D01*
X77773928Y-71900000D01*
X77869166Y-71995238D01*
X77916785Y-72090476D01*
X77964404Y-72280952D01*
X77964404Y-72423809D01*
X77916785Y-72614285D01*
X77869166Y-72709523D01*
X77773928Y-72804761D01*
X77631071Y-72852380D01*
X77392976Y-72852380D01*
X78583452Y-71852380D02*
X78773928Y-71852380D01*
X78869166Y-71900000D01*
X78964404Y-71995238D01*
X79012023Y-72185714D01*
X79012023Y-72519047D01*
X78964404Y-72709523D01*
X78869166Y-72804761D01*
X78773928Y-72852380D01*
X78583452Y-72852380D01*
X78488214Y-72804761D01*
X78392976Y-72709523D01*
X78345357Y-72519047D01*
X78345357Y-72185714D01*
X78392976Y-71995238D01*
X78488214Y-71900000D01*
X78583452Y-71852380D01*
X76535833Y-66652380D02*
X77107261Y-66652380D01*
X76821547Y-67652380D02*
X76821547Y-66652380D01*
X78012023Y-67557142D02*
X77964404Y-67604761D01*
X77821547Y-67652380D01*
X77726309Y-67652380D01*
X77583452Y-67604761D01*
X77488214Y-67509523D01*
X77440595Y-67414285D01*
X77392976Y-67223809D01*
X77392976Y-67080952D01*
X77440595Y-66890476D01*
X77488214Y-66795238D01*
X77583452Y-66700000D01*
X77726309Y-66652380D01*
X77821547Y-66652380D01*
X77964404Y-66700000D01*
X78012023Y-66747619D01*
X78440595Y-67652380D02*
X78440595Y-66652380D01*
X79012023Y-67652380D02*
X78583452Y-67080952D01*
X79012023Y-66652380D02*
X78440595Y-67223809D01*
X76440595Y-64152380D02*
X77012023Y-64152380D01*
X76726309Y-65152380D02*
X76726309Y-64152380D01*
X77345357Y-65152380D02*
X77345357Y-64152380D01*
X77678690Y-64866666D01*
X78012023Y-64152380D01*
X78012023Y-65152380D01*
X78440595Y-65104761D02*
X78583452Y-65152380D01*
X78821547Y-65152380D01*
X78916785Y-65104761D01*
X78964404Y-65057142D01*
X79012023Y-64961904D01*
X79012023Y-64866666D01*
X78964404Y-64771428D01*
X78916785Y-64723809D01*
X78821547Y-64676190D01*
X78631071Y-64628571D01*
X78535833Y-64580952D01*
X78488214Y-64533333D01*
X78440595Y-64438095D01*
X78440595Y-64342857D01*
X78488214Y-64247619D01*
X78535833Y-64200000D01*
X78631071Y-64152380D01*
X78869166Y-64152380D01*
X79012023Y-64200000D01*
X77059642Y-61552380D02*
X77631071Y-61552380D01*
X77345357Y-62552380D02*
X77345357Y-61552380D01*
X77964404Y-62552380D02*
X77964404Y-61552380D01*
X78202500Y-61552380D01*
X78345357Y-61600000D01*
X78440595Y-61695238D01*
X78488214Y-61790476D01*
X78535833Y-61980952D01*
X78535833Y-62123809D01*
X78488214Y-62314285D01*
X78440595Y-62409523D01*
X78345357Y-62504761D01*
X78202500Y-62552380D01*
X77964404Y-62552380D01*
X78964404Y-62552380D02*
X78964404Y-61552380D01*
X75059642Y-59385714D02*
X75059642Y-60052380D01*
X75059642Y-59480952D02*
X75107261Y-59433333D01*
X75202500Y-59385714D01*
X75345357Y-59385714D01*
X75440595Y-59433333D01*
X75488214Y-59528571D01*
X75488214Y-60052380D01*
X75821547Y-59052380D02*
X76392976Y-59052380D01*
X76107261Y-60052380D02*
X76107261Y-59052380D01*
X77297738Y-60052380D02*
X76964404Y-59576190D01*
X76726309Y-60052380D02*
X76726309Y-59052380D01*
X77107261Y-59052380D01*
X77202500Y-59100000D01*
X77250119Y-59147619D01*
X77297738Y-59242857D01*
X77297738Y-59385714D01*
X77250119Y-59480952D01*
X77202500Y-59528571D01*
X77107261Y-59576190D01*
X76726309Y-59576190D01*
X77678690Y-60004761D02*
X77821547Y-60052380D01*
X78059642Y-60052380D01*
X78154880Y-60004761D01*
X78202500Y-59957142D01*
X78250119Y-59861904D01*
X78250119Y-59766666D01*
X78202500Y-59671428D01*
X78154880Y-59623809D01*
X78059642Y-59576190D01*
X77869166Y-59528571D01*
X77773928Y-59480952D01*
X77726309Y-59433333D01*
X77678690Y-59338095D01*
X77678690Y-59242857D01*
X77726309Y-59147619D01*
X77773928Y-59100000D01*
X77869166Y-59052380D01*
X78107261Y-59052380D01*
X78250119Y-59100000D01*
X78535833Y-59052380D02*
X79107261Y-59052380D01*
X78821547Y-60052380D02*
X78821547Y-59052380D01*
X75678690Y-56552380D02*
X76012023Y-57552380D01*
X76345357Y-56552380D01*
X77250119Y-57552380D02*
X76916785Y-57076190D01*
X76678690Y-57552380D02*
X76678690Y-56552380D01*
X77059642Y-56552380D01*
X77154880Y-56600000D01*
X77202500Y-56647619D01*
X77250119Y-56742857D01*
X77250119Y-56885714D01*
X77202500Y-56980952D01*
X77154880Y-57028571D01*
X77059642Y-57076190D01*
X76678690Y-57076190D01*
X77678690Y-57028571D02*
X78012023Y-57028571D01*
X78154880Y-57552380D02*
X77678690Y-57552380D01*
X77678690Y-56552380D01*
X78154880Y-56552380D01*
X78916785Y-57028571D02*
X78583452Y-57028571D01*
X78583452Y-57552380D02*
X78583452Y-56552380D01*
X79059642Y-56552380D01*
D11*
X91000000Y-80000000D02*
X91000000Y-69800000D01*
X89400000Y-80000000D02*
X91000000Y-80000000D01*
X91000000Y-59600000D02*
X91000000Y-67050000D01*
X89500000Y-59600000D02*
X91000000Y-59600000D01*
D12*
X91337857Y-67750000D02*
X91195000Y-67678571D01*
X90980714Y-67678571D01*
X90766428Y-67750000D01*
X90623571Y-67892857D01*
X90552142Y-68035714D01*
X90480714Y-68321428D01*
X90480714Y-68535714D01*
X90552142Y-68821428D01*
X90623571Y-68964285D01*
X90766428Y-69107142D01*
X90980714Y-69178571D01*
X91123571Y-69178571D01*
X91337857Y-69107142D01*
X91409285Y-69035714D01*
X91409285Y-68535714D01*
X91123571Y-68535714D01*
X92052142Y-69178571D02*
X92052142Y-67678571D01*
X92909285Y-69178571D01*
X92909285Y-67678571D01*
X93623571Y-69178571D02*
X93623571Y-67678571D01*
X93980714Y-67678571D01*
X94195000Y-67750000D01*
X94337857Y-67892857D01*
X94409285Y-68035714D01*
X94480714Y-68321428D01*
X94480714Y-68535714D01*
X94409285Y-68821428D01*
X94337857Y-68964285D01*
X94195000Y-69107142D01*
X93980714Y-69178571D01*
X93623571Y-69178571D01*
D10*
X89592738Y-56552380D02*
X89926071Y-57552380D01*
X90259404Y-56552380D01*
X91164166Y-57552380D02*
X90830833Y-57076190D01*
X90592738Y-57552380D02*
X90592738Y-56552380D01*
X90973690Y-56552380D01*
X91068928Y-56600000D01*
X91116547Y-56647619D01*
X91164166Y-56742857D01*
X91164166Y-56885714D01*
X91116547Y-56980952D01*
X91068928Y-57028571D01*
X90973690Y-57076190D01*
X90592738Y-57076190D01*
X91592738Y-57028571D02*
X91926071Y-57028571D01*
X92068928Y-57552380D02*
X91592738Y-57552380D01*
X91592738Y-56552380D01*
X92068928Y-56552380D01*
X92830833Y-57028571D02*
X92497500Y-57028571D01*
X92497500Y-57552380D02*
X92497500Y-56552380D01*
X92973690Y-56552380D01*
X65000000Y-50000000D02*
X100000000Y-50000000D01*
X102000000Y-85000000D02*
X102000000Y-52000000D01*
X65000000Y-87000000D02*
X100000000Y-87000000D01*
X63000000Y-52000000D02*
X63000000Y-85000000D01*
D13*
G04 #@! TO.C,J1*
X66920000Y-71745000D02*
X67742470Y-71745000D01*
X69627530Y-71745000D02*
X70450000Y-71745000D01*
X68357530Y-71745000D02*
X69012470Y-71745000D01*
X66920000Y-66730000D02*
X66920000Y-71745000D01*
X70450000Y-65275000D02*
X70450000Y-71745000D01*
X66920000Y-66730000D02*
X67486529Y-66730000D01*
X68613471Y-66730000D02*
X68756529Y-66730000D01*
X68810000Y-66676529D02*
X68810000Y-66533471D01*
X68810000Y-65406529D02*
X68810000Y-65275000D01*
X68810000Y-65275000D02*
X69012470Y-65275000D01*
X69627530Y-65275000D02*
X70450000Y-65275000D01*
X66920000Y-65970000D02*
X66920000Y-65210000D01*
X66920000Y-65210000D02*
X68050000Y-65210000D01*
G04 #@! TO.C,J2*
X89045000Y-51730000D02*
X89045000Y-85290000D01*
X89045000Y-85290000D02*
X79695000Y-85290000D01*
X79695000Y-85290000D02*
X79695000Y-51730000D01*
X79695000Y-51730000D02*
X89045000Y-51730000D01*
X79445000Y-51480000D02*
X79445000Y-54020000D01*
X79445000Y-51480000D02*
X81985000Y-51480000D01*
G04 #@! TD*
G04 #@! TO.C,J1*
D10*
X68351666Y-63727380D02*
X68351666Y-64441666D01*
X68304047Y-64584523D01*
X68208809Y-64679761D01*
X68065952Y-64727380D01*
X67970714Y-64727380D01*
X69351666Y-64727380D02*
X68780238Y-64727380D01*
X69065952Y-64727380D02*
X69065952Y-63727380D01*
X68970714Y-63870238D01*
X68875476Y-63965476D01*
X68780238Y-64013095D01*
G04 #@! TO.C,J2*
X90016666Y-83702380D02*
X90016666Y-84416666D01*
X89969047Y-84559523D01*
X89873809Y-84654761D01*
X89730952Y-84702380D01*
X89635714Y-84702380D01*
X90445238Y-83797619D02*
X90492857Y-83750000D01*
X90588095Y-83702380D01*
X90826190Y-83702380D01*
X90921428Y-83750000D01*
X90969047Y-83797619D01*
X91016666Y-83892857D01*
X91016666Y-83988095D01*
X90969047Y-84130952D01*
X90397619Y-84702380D01*
X91016666Y-84702380D01*
G04 #@! TD*
M02*
