G04 #@! TF.GenerationSoftware,KiCad,Pcbnew,5.0.1-33cea8e~68~ubuntu18.10.1*
G04 #@! TF.CreationDate,2018-11-20T09:41:42+02:00*
G04 #@! TF.ProjectId,BUS-BLASTER-AVR-1.27,4255532D424C41535445522D4156522D,v1.0*
G04 #@! TF.SameCoordinates,Original*
G04 #@! TF.FileFunction,Soldermask,Top*
G04 #@! TF.FilePolarity,Negative*
%FSLAX46Y46*%
G04 Gerber Fmt 4.6, Leading zero omitted, Abs format (unit mm)*
G04 Created by KiCad (PCBNEW 5.0.1-33cea8e~68~ubuntu18.10.1) date ti 20. marraskuuta 2018 09.41.42*
%MOMM*%
%LPD*%
G01*
G04 APERTURE LIST*
%ADD10C,0.150000*%
%ADD11C,0.100000*%
G04 APERTURE END LIST*
D10*
X65000000Y-87000000D02*
G75*
G02X63000000Y-85000000I0J2000000D01*
G01*
X102000000Y-85000000D02*
G75*
G02X100000000Y-87000000I-2000000J0D01*
G01*
X100000000Y-50000000D02*
G75*
G02X102000000Y-52000000I0J-2000000D01*
G01*
X63000000Y-52000000D02*
G75*
G02X65000000Y-50000000I2000000J0D01*
G01*
X65000000Y-50000000D02*
X100000000Y-50000000D01*
X102000000Y-85000000D02*
X102000000Y-52000000D01*
X65000000Y-87000000D02*
X100000000Y-87000000D01*
X63000000Y-52000000D02*
X63000000Y-85000000D01*
D11*
G36*
X97466703Y-80461487D02*
X97466705Y-80461488D01*
X97466706Y-80461488D01*
X97757884Y-80582098D01*
X98019939Y-80757197D01*
X98242803Y-80980061D01*
X98417902Y-81242116D01*
X98538512Y-81533294D01*
X98600000Y-81842416D01*
X98600000Y-82157584D01*
X98538512Y-82466706D01*
X98417902Y-82757884D01*
X98242803Y-83019939D01*
X98019939Y-83242803D01*
X97757884Y-83417902D01*
X97466706Y-83538512D01*
X97466705Y-83538512D01*
X97466703Y-83538513D01*
X97157586Y-83600000D01*
X96842414Y-83600000D01*
X96533297Y-83538513D01*
X96533295Y-83538512D01*
X96533294Y-83538512D01*
X96242116Y-83417902D01*
X95980061Y-83242803D01*
X95757197Y-83019939D01*
X95582098Y-82757884D01*
X95461488Y-82466706D01*
X95400000Y-82157584D01*
X95400000Y-81842416D01*
X95461488Y-81533294D01*
X95582098Y-81242116D01*
X95757197Y-80980061D01*
X95980061Y-80757197D01*
X96242116Y-80582098D01*
X96533294Y-80461488D01*
X96533295Y-80461488D01*
X96533297Y-80461487D01*
X96842414Y-80400000D01*
X97157586Y-80400000D01*
X97466703Y-80461487D01*
X97466703Y-80461487D01*
G37*
G36*
X68466703Y-80461487D02*
X68466705Y-80461488D01*
X68466706Y-80461488D01*
X68757884Y-80582098D01*
X69019939Y-80757197D01*
X69242803Y-80980061D01*
X69417902Y-81242116D01*
X69538512Y-81533294D01*
X69600000Y-81842416D01*
X69600000Y-82157584D01*
X69538512Y-82466706D01*
X69417902Y-82757884D01*
X69242803Y-83019939D01*
X69019939Y-83242803D01*
X68757884Y-83417902D01*
X68466706Y-83538512D01*
X68466705Y-83538512D01*
X68466703Y-83538513D01*
X68157586Y-83600000D01*
X67842414Y-83600000D01*
X67533297Y-83538513D01*
X67533295Y-83538512D01*
X67533294Y-83538512D01*
X67242116Y-83417902D01*
X66980061Y-83242803D01*
X66757197Y-83019939D01*
X66582098Y-82757884D01*
X66461488Y-82466706D01*
X66400000Y-82157584D01*
X66400000Y-81842416D01*
X66461488Y-81533294D01*
X66582098Y-81242116D01*
X66757197Y-80980061D01*
X66980061Y-80757197D01*
X67242116Y-80582098D01*
X67533294Y-80461488D01*
X67533295Y-80461488D01*
X67533297Y-80461487D01*
X67842414Y-80400000D01*
X68157586Y-80400000D01*
X68466703Y-80461487D01*
X68466703Y-80461487D01*
G37*
G36*
X85809293Y-79088895D02*
X85972085Y-79138278D01*
X86122114Y-79218470D01*
X86253612Y-79326388D01*
X86361530Y-79457886D01*
X86441722Y-79607915D01*
X86491105Y-79770707D01*
X86507779Y-79940000D01*
X86491105Y-80109293D01*
X86441722Y-80272085D01*
X86361530Y-80422114D01*
X86253612Y-80553612D01*
X86122114Y-80661530D01*
X85972085Y-80741722D01*
X85809293Y-80791105D01*
X85682426Y-80803600D01*
X85597574Y-80803600D01*
X85470707Y-80791105D01*
X85307915Y-80741722D01*
X85157886Y-80661530D01*
X85026388Y-80553612D01*
X84918470Y-80422114D01*
X84838278Y-80272085D01*
X84788895Y-80109293D01*
X84772221Y-79940000D01*
X84788895Y-79770707D01*
X84838278Y-79607915D01*
X84918470Y-79457886D01*
X85026388Y-79326388D01*
X85157886Y-79218470D01*
X85307915Y-79138278D01*
X85470707Y-79088895D01*
X85597574Y-79076400D01*
X85682426Y-79076400D01*
X85809293Y-79088895D01*
X85809293Y-79088895D01*
G37*
G36*
X83269293Y-79088895D02*
X83432085Y-79138278D01*
X83582114Y-79218470D01*
X83713612Y-79326388D01*
X83821530Y-79457886D01*
X83901722Y-79607915D01*
X83951105Y-79770707D01*
X83967779Y-79940000D01*
X83951105Y-80109293D01*
X83901722Y-80272085D01*
X83821530Y-80422114D01*
X83713612Y-80553612D01*
X83582114Y-80661530D01*
X83432085Y-80741722D01*
X83269293Y-80791105D01*
X83142426Y-80803600D01*
X83057574Y-80803600D01*
X82930707Y-80791105D01*
X82767915Y-80741722D01*
X82617886Y-80661530D01*
X82486388Y-80553612D01*
X82378470Y-80422114D01*
X82298278Y-80272085D01*
X82248895Y-80109293D01*
X82232221Y-79940000D01*
X82248895Y-79770707D01*
X82298278Y-79607915D01*
X82378470Y-79457886D01*
X82486388Y-79326388D01*
X82617886Y-79218470D01*
X82767915Y-79138278D01*
X82930707Y-79088895D01*
X83057574Y-79076400D01*
X83142426Y-79076400D01*
X83269293Y-79088895D01*
X83269293Y-79088895D01*
G37*
G36*
X85809293Y-76548895D02*
X85972085Y-76598278D01*
X86122114Y-76678470D01*
X86253612Y-76786388D01*
X86361530Y-76917886D01*
X86441722Y-77067915D01*
X86491105Y-77230707D01*
X86507779Y-77400000D01*
X86491105Y-77569293D01*
X86441722Y-77732085D01*
X86361530Y-77882114D01*
X86253612Y-78013612D01*
X86122114Y-78121530D01*
X85972085Y-78201722D01*
X85809293Y-78251105D01*
X85682426Y-78263600D01*
X85597574Y-78263600D01*
X85470707Y-78251105D01*
X85307915Y-78201722D01*
X85157886Y-78121530D01*
X85026388Y-78013612D01*
X84918470Y-77882114D01*
X84838278Y-77732085D01*
X84788895Y-77569293D01*
X84772221Y-77400000D01*
X84788895Y-77230707D01*
X84838278Y-77067915D01*
X84918470Y-76917886D01*
X85026388Y-76786388D01*
X85157886Y-76678470D01*
X85307915Y-76598278D01*
X85470707Y-76548895D01*
X85597574Y-76536400D01*
X85682426Y-76536400D01*
X85809293Y-76548895D01*
X85809293Y-76548895D01*
G37*
G36*
X83269293Y-76548895D02*
X83432085Y-76598278D01*
X83582114Y-76678470D01*
X83713612Y-76786388D01*
X83821530Y-76917886D01*
X83901722Y-77067915D01*
X83951105Y-77230707D01*
X83967779Y-77400000D01*
X83951105Y-77569293D01*
X83901722Y-77732085D01*
X83821530Y-77882114D01*
X83713612Y-78013612D01*
X83582114Y-78121530D01*
X83432085Y-78201722D01*
X83269293Y-78251105D01*
X83142426Y-78263600D01*
X83057574Y-78263600D01*
X82930707Y-78251105D01*
X82767915Y-78201722D01*
X82617886Y-78121530D01*
X82486388Y-78013612D01*
X82378470Y-77882114D01*
X82298278Y-77732085D01*
X82248895Y-77569293D01*
X82232221Y-77400000D01*
X82248895Y-77230707D01*
X82298278Y-77067915D01*
X82378470Y-76917886D01*
X82486388Y-76786388D01*
X82617886Y-76678470D01*
X82767915Y-76598278D01*
X82930707Y-76548895D01*
X83057574Y-76536400D01*
X83142426Y-76536400D01*
X83269293Y-76548895D01*
X83269293Y-76548895D01*
G37*
G36*
X83269293Y-74008895D02*
X83432085Y-74058278D01*
X83582114Y-74138470D01*
X83713612Y-74246388D01*
X83821530Y-74377886D01*
X83901722Y-74527915D01*
X83951105Y-74690707D01*
X83967779Y-74860000D01*
X83951105Y-75029293D01*
X83901722Y-75192085D01*
X83821530Y-75342114D01*
X83713612Y-75473612D01*
X83582114Y-75581530D01*
X83432085Y-75661722D01*
X83269293Y-75711105D01*
X83142426Y-75723600D01*
X83057574Y-75723600D01*
X82930707Y-75711105D01*
X82767915Y-75661722D01*
X82617886Y-75581530D01*
X82486388Y-75473612D01*
X82378470Y-75342114D01*
X82298278Y-75192085D01*
X82248895Y-75029293D01*
X82232221Y-74860000D01*
X82248895Y-74690707D01*
X82298278Y-74527915D01*
X82378470Y-74377886D01*
X82486388Y-74246388D01*
X82617886Y-74138470D01*
X82767915Y-74058278D01*
X82930707Y-74008895D01*
X83057574Y-73996400D01*
X83142426Y-73996400D01*
X83269293Y-74008895D01*
X83269293Y-74008895D01*
G37*
G36*
X85809293Y-74008895D02*
X85972085Y-74058278D01*
X86122114Y-74138470D01*
X86253612Y-74246388D01*
X86361530Y-74377886D01*
X86441722Y-74527915D01*
X86491105Y-74690707D01*
X86507779Y-74860000D01*
X86491105Y-75029293D01*
X86441722Y-75192085D01*
X86361530Y-75342114D01*
X86253612Y-75473612D01*
X86122114Y-75581530D01*
X85972085Y-75661722D01*
X85809293Y-75711105D01*
X85682426Y-75723600D01*
X85597574Y-75723600D01*
X85470707Y-75711105D01*
X85307915Y-75661722D01*
X85157886Y-75581530D01*
X85026388Y-75473612D01*
X84918470Y-75342114D01*
X84838278Y-75192085D01*
X84788895Y-75029293D01*
X84772221Y-74860000D01*
X84788895Y-74690707D01*
X84838278Y-74527915D01*
X84918470Y-74377886D01*
X85026388Y-74246388D01*
X85157886Y-74138470D01*
X85307915Y-74058278D01*
X85470707Y-74008895D01*
X85597574Y-73996400D01*
X85682426Y-73996400D01*
X85809293Y-74008895D01*
X85809293Y-74008895D01*
G37*
G36*
X83269293Y-71468895D02*
X83432085Y-71518278D01*
X83582114Y-71598470D01*
X83713612Y-71706388D01*
X83821530Y-71837886D01*
X83901722Y-71987915D01*
X83951105Y-72150707D01*
X83967779Y-72320000D01*
X83951105Y-72489293D01*
X83901722Y-72652085D01*
X83821530Y-72802114D01*
X83713612Y-72933612D01*
X83582114Y-73041530D01*
X83432085Y-73121722D01*
X83269293Y-73171105D01*
X83142426Y-73183600D01*
X83057574Y-73183600D01*
X82930707Y-73171105D01*
X82767915Y-73121722D01*
X82617886Y-73041530D01*
X82486388Y-72933612D01*
X82378470Y-72802114D01*
X82298278Y-72652085D01*
X82248895Y-72489293D01*
X82232221Y-72320000D01*
X82248895Y-72150707D01*
X82298278Y-71987915D01*
X82378470Y-71837886D01*
X82486388Y-71706388D01*
X82617886Y-71598470D01*
X82767915Y-71518278D01*
X82930707Y-71468895D01*
X83057574Y-71456400D01*
X83142426Y-71456400D01*
X83269293Y-71468895D01*
X83269293Y-71468895D01*
G37*
G36*
X85809293Y-71468895D02*
X85972085Y-71518278D01*
X86122114Y-71598470D01*
X86253612Y-71706388D01*
X86361530Y-71837886D01*
X86441722Y-71987915D01*
X86491105Y-72150707D01*
X86507779Y-72320000D01*
X86491105Y-72489293D01*
X86441722Y-72652085D01*
X86361530Y-72802114D01*
X86253612Y-72933612D01*
X86122114Y-73041530D01*
X85972085Y-73121722D01*
X85809293Y-73171105D01*
X85682426Y-73183600D01*
X85597574Y-73183600D01*
X85470707Y-73171105D01*
X85307915Y-73121722D01*
X85157886Y-73041530D01*
X85026388Y-72933612D01*
X84918470Y-72802114D01*
X84838278Y-72652085D01*
X84788895Y-72489293D01*
X84772221Y-72320000D01*
X84788895Y-72150707D01*
X84838278Y-71987915D01*
X84918470Y-71837886D01*
X85026388Y-71706388D01*
X85157886Y-71598470D01*
X85307915Y-71518278D01*
X85470707Y-71468895D01*
X85597574Y-71456400D01*
X85682426Y-71456400D01*
X85809293Y-71468895D01*
X85809293Y-71468895D01*
G37*
G36*
X69418016Y-70557234D02*
X69512267Y-70585825D01*
X69599130Y-70632254D01*
X69675264Y-70694736D01*
X69737746Y-70770870D01*
X69784175Y-70857733D01*
X69812766Y-70951984D01*
X69822420Y-71050000D01*
X69812766Y-71148016D01*
X69784175Y-71242267D01*
X69737746Y-71329130D01*
X69675264Y-71405264D01*
X69599130Y-71467746D01*
X69512267Y-71514175D01*
X69418016Y-71542766D01*
X69344566Y-71550000D01*
X69295434Y-71550000D01*
X69221984Y-71542766D01*
X69127733Y-71514175D01*
X69040870Y-71467746D01*
X68964736Y-71405264D01*
X68902254Y-71329130D01*
X68855825Y-71242267D01*
X68827234Y-71148016D01*
X68817580Y-71050000D01*
X68827234Y-70951984D01*
X68855825Y-70857733D01*
X68902254Y-70770870D01*
X68964736Y-70694736D01*
X69040870Y-70632254D01*
X69127733Y-70585825D01*
X69221984Y-70557234D01*
X69295434Y-70550000D01*
X69344566Y-70550000D01*
X69418016Y-70557234D01*
X69418016Y-70557234D01*
G37*
G36*
X68148016Y-70557234D02*
X68242267Y-70585825D01*
X68329130Y-70632254D01*
X68405264Y-70694736D01*
X68467746Y-70770870D01*
X68514175Y-70857733D01*
X68542766Y-70951984D01*
X68552420Y-71050000D01*
X68542766Y-71148016D01*
X68514175Y-71242267D01*
X68467746Y-71329130D01*
X68405264Y-71405264D01*
X68329130Y-71467746D01*
X68242267Y-71514175D01*
X68148016Y-71542766D01*
X68074566Y-71550000D01*
X68025434Y-71550000D01*
X67951984Y-71542766D01*
X67857733Y-71514175D01*
X67770870Y-71467746D01*
X67694736Y-71405264D01*
X67632254Y-71329130D01*
X67585825Y-71242267D01*
X67557234Y-71148016D01*
X67547580Y-71050000D01*
X67557234Y-70951984D01*
X67585825Y-70857733D01*
X67632254Y-70770870D01*
X67694736Y-70694736D01*
X67770870Y-70632254D01*
X67857733Y-70585825D01*
X67951984Y-70557234D01*
X68025434Y-70550000D01*
X68074566Y-70550000D01*
X68148016Y-70557234D01*
X68148016Y-70557234D01*
G37*
G36*
X85809293Y-68928895D02*
X85972085Y-68978278D01*
X86122114Y-69058470D01*
X86253612Y-69166388D01*
X86361530Y-69297886D01*
X86441722Y-69447915D01*
X86491105Y-69610707D01*
X86507779Y-69780000D01*
X86491105Y-69949293D01*
X86441722Y-70112085D01*
X86361530Y-70262114D01*
X86253612Y-70393612D01*
X86122114Y-70501530D01*
X85972085Y-70581722D01*
X85809293Y-70631105D01*
X85682426Y-70643600D01*
X85597574Y-70643600D01*
X85470707Y-70631105D01*
X85307915Y-70581722D01*
X85157886Y-70501530D01*
X85026388Y-70393612D01*
X84918470Y-70262114D01*
X84838278Y-70112085D01*
X84788895Y-69949293D01*
X84772221Y-69780000D01*
X84788895Y-69610707D01*
X84838278Y-69447915D01*
X84918470Y-69297886D01*
X85026388Y-69166388D01*
X85157886Y-69058470D01*
X85307915Y-68978278D01*
X85470707Y-68928895D01*
X85597574Y-68916400D01*
X85682426Y-68916400D01*
X85809293Y-68928895D01*
X85809293Y-68928895D01*
G37*
G36*
X83269293Y-68928895D02*
X83432085Y-68978278D01*
X83582114Y-69058470D01*
X83713612Y-69166388D01*
X83821530Y-69297886D01*
X83901722Y-69447915D01*
X83951105Y-69610707D01*
X83967779Y-69780000D01*
X83951105Y-69949293D01*
X83901722Y-70112085D01*
X83821530Y-70262114D01*
X83713612Y-70393612D01*
X83582114Y-70501530D01*
X83432085Y-70581722D01*
X83269293Y-70631105D01*
X83142426Y-70643600D01*
X83057574Y-70643600D01*
X82930707Y-70631105D01*
X82767915Y-70581722D01*
X82617886Y-70501530D01*
X82486388Y-70393612D01*
X82378470Y-70262114D01*
X82298278Y-70112085D01*
X82248895Y-69949293D01*
X82232221Y-69780000D01*
X82248895Y-69610707D01*
X82298278Y-69447915D01*
X82378470Y-69297886D01*
X82486388Y-69166388D01*
X82617886Y-69058470D01*
X82767915Y-68978278D01*
X82930707Y-68928895D01*
X83057574Y-68916400D01*
X83142426Y-68916400D01*
X83269293Y-68928895D01*
X83269293Y-68928895D01*
G37*
G36*
X69418016Y-69287234D02*
X69512267Y-69315825D01*
X69599130Y-69362254D01*
X69675264Y-69424736D01*
X69737746Y-69500870D01*
X69784175Y-69587733D01*
X69812766Y-69681984D01*
X69822420Y-69780000D01*
X69812766Y-69878016D01*
X69784175Y-69972267D01*
X69737746Y-70059130D01*
X69675264Y-70135264D01*
X69599130Y-70197746D01*
X69512267Y-70244175D01*
X69418016Y-70272766D01*
X69344566Y-70280000D01*
X69295434Y-70280000D01*
X69221984Y-70272766D01*
X69127733Y-70244175D01*
X69040870Y-70197746D01*
X68964736Y-70135264D01*
X68902254Y-70059130D01*
X68855825Y-69972267D01*
X68827234Y-69878016D01*
X68817580Y-69780000D01*
X68827234Y-69681984D01*
X68855825Y-69587733D01*
X68902254Y-69500870D01*
X68964736Y-69424736D01*
X69040870Y-69362254D01*
X69127733Y-69315825D01*
X69221984Y-69287234D01*
X69295434Y-69280000D01*
X69344566Y-69280000D01*
X69418016Y-69287234D01*
X69418016Y-69287234D01*
G37*
G36*
X68148016Y-69287234D02*
X68242267Y-69315825D01*
X68329130Y-69362254D01*
X68405264Y-69424736D01*
X68467746Y-69500870D01*
X68514175Y-69587733D01*
X68542766Y-69681984D01*
X68552420Y-69780000D01*
X68542766Y-69878016D01*
X68514175Y-69972267D01*
X68467746Y-70059130D01*
X68405264Y-70135264D01*
X68329130Y-70197746D01*
X68242267Y-70244175D01*
X68148016Y-70272766D01*
X68074566Y-70280000D01*
X68025434Y-70280000D01*
X67951984Y-70272766D01*
X67857733Y-70244175D01*
X67770870Y-70197746D01*
X67694736Y-70135264D01*
X67632254Y-70059130D01*
X67585825Y-69972267D01*
X67557234Y-69878016D01*
X67547580Y-69780000D01*
X67557234Y-69681984D01*
X67585825Y-69587733D01*
X67632254Y-69500870D01*
X67694736Y-69424736D01*
X67770870Y-69362254D01*
X67857733Y-69315825D01*
X67951984Y-69287234D01*
X68025434Y-69280000D01*
X68074566Y-69280000D01*
X68148016Y-69287234D01*
X68148016Y-69287234D01*
G37*
G36*
X68148016Y-68017234D02*
X68242267Y-68045825D01*
X68329130Y-68092254D01*
X68405264Y-68154736D01*
X68467746Y-68230870D01*
X68514175Y-68317733D01*
X68542766Y-68411984D01*
X68552420Y-68510000D01*
X68542766Y-68608016D01*
X68514175Y-68702267D01*
X68467746Y-68789130D01*
X68405264Y-68865264D01*
X68329130Y-68927746D01*
X68242267Y-68974175D01*
X68148016Y-69002766D01*
X68074566Y-69010000D01*
X68025434Y-69010000D01*
X67951984Y-69002766D01*
X67857733Y-68974175D01*
X67770870Y-68927746D01*
X67694736Y-68865264D01*
X67632254Y-68789130D01*
X67585825Y-68702267D01*
X67557234Y-68608016D01*
X67547580Y-68510000D01*
X67557234Y-68411984D01*
X67585825Y-68317733D01*
X67632254Y-68230870D01*
X67694736Y-68154736D01*
X67770870Y-68092254D01*
X67857733Y-68045825D01*
X67951984Y-68017234D01*
X68025434Y-68010000D01*
X68074566Y-68010000D01*
X68148016Y-68017234D01*
X68148016Y-68017234D01*
G37*
G36*
X69418016Y-68017234D02*
X69512267Y-68045825D01*
X69599130Y-68092254D01*
X69675264Y-68154736D01*
X69737746Y-68230870D01*
X69784175Y-68317733D01*
X69812766Y-68411984D01*
X69822420Y-68510000D01*
X69812766Y-68608016D01*
X69784175Y-68702267D01*
X69737746Y-68789130D01*
X69675264Y-68865264D01*
X69599130Y-68927746D01*
X69512267Y-68974175D01*
X69418016Y-69002766D01*
X69344566Y-69010000D01*
X69295434Y-69010000D01*
X69221984Y-69002766D01*
X69127733Y-68974175D01*
X69040870Y-68927746D01*
X68964736Y-68865264D01*
X68902254Y-68789130D01*
X68855825Y-68702267D01*
X68827234Y-68608016D01*
X68817580Y-68510000D01*
X68827234Y-68411984D01*
X68855825Y-68317733D01*
X68902254Y-68230870D01*
X68964736Y-68154736D01*
X69040870Y-68092254D01*
X69127733Y-68045825D01*
X69221984Y-68017234D01*
X69295434Y-68010000D01*
X69344566Y-68010000D01*
X69418016Y-68017234D01*
X69418016Y-68017234D01*
G37*
G36*
X83269293Y-66388895D02*
X83432085Y-66438278D01*
X83582114Y-66518470D01*
X83713612Y-66626388D01*
X83821530Y-66757886D01*
X83901722Y-66907915D01*
X83951105Y-67070707D01*
X83967779Y-67240000D01*
X83951105Y-67409293D01*
X83901722Y-67572085D01*
X83821530Y-67722114D01*
X83713612Y-67853612D01*
X83582114Y-67961530D01*
X83432085Y-68041722D01*
X83269293Y-68091105D01*
X83142426Y-68103600D01*
X83057574Y-68103600D01*
X82930707Y-68091105D01*
X82767915Y-68041722D01*
X82617886Y-67961530D01*
X82486388Y-67853612D01*
X82378470Y-67722114D01*
X82298278Y-67572085D01*
X82248895Y-67409293D01*
X82232221Y-67240000D01*
X82248895Y-67070707D01*
X82298278Y-66907915D01*
X82378470Y-66757886D01*
X82486388Y-66626388D01*
X82617886Y-66518470D01*
X82767915Y-66438278D01*
X82930707Y-66388895D01*
X83057574Y-66376400D01*
X83142426Y-66376400D01*
X83269293Y-66388895D01*
X83269293Y-66388895D01*
G37*
G36*
X85809293Y-66388895D02*
X85972085Y-66438278D01*
X86122114Y-66518470D01*
X86253612Y-66626388D01*
X86361530Y-66757886D01*
X86441722Y-66907915D01*
X86491105Y-67070707D01*
X86507779Y-67240000D01*
X86491105Y-67409293D01*
X86441722Y-67572085D01*
X86361530Y-67722114D01*
X86253612Y-67853612D01*
X86122114Y-67961530D01*
X85972085Y-68041722D01*
X85809293Y-68091105D01*
X85682426Y-68103600D01*
X85597574Y-68103600D01*
X85470707Y-68091105D01*
X85307915Y-68041722D01*
X85157886Y-67961530D01*
X85026388Y-67853612D01*
X84918470Y-67722114D01*
X84838278Y-67572085D01*
X84788895Y-67409293D01*
X84772221Y-67240000D01*
X84788895Y-67070707D01*
X84838278Y-66907915D01*
X84918470Y-66757886D01*
X85026388Y-66626388D01*
X85157886Y-66518470D01*
X85307915Y-66438278D01*
X85470707Y-66388895D01*
X85597574Y-66376400D01*
X85682426Y-66376400D01*
X85809293Y-66388895D01*
X85809293Y-66388895D01*
G37*
G36*
X68148016Y-66747234D02*
X68242267Y-66775825D01*
X68329130Y-66822254D01*
X68405264Y-66884736D01*
X68467746Y-66960870D01*
X68514175Y-67047733D01*
X68542766Y-67141984D01*
X68552420Y-67240000D01*
X68542766Y-67338016D01*
X68514175Y-67432267D01*
X68467746Y-67519130D01*
X68405264Y-67595264D01*
X68329130Y-67657746D01*
X68242267Y-67704175D01*
X68148016Y-67732766D01*
X68074566Y-67740000D01*
X68025434Y-67740000D01*
X67951984Y-67732766D01*
X67857733Y-67704175D01*
X67770870Y-67657746D01*
X67694736Y-67595264D01*
X67632254Y-67519130D01*
X67585825Y-67432267D01*
X67557234Y-67338016D01*
X67547580Y-67240000D01*
X67557234Y-67141984D01*
X67585825Y-67047733D01*
X67632254Y-66960870D01*
X67694736Y-66884736D01*
X67770870Y-66822254D01*
X67857733Y-66775825D01*
X67951984Y-66747234D01*
X68025434Y-66740000D01*
X68074566Y-66740000D01*
X68148016Y-66747234D01*
X68148016Y-66747234D01*
G37*
G36*
X69418016Y-66747234D02*
X69512267Y-66775825D01*
X69599130Y-66822254D01*
X69675264Y-66884736D01*
X69737746Y-66960870D01*
X69784175Y-67047733D01*
X69812766Y-67141984D01*
X69822420Y-67240000D01*
X69812766Y-67338016D01*
X69784175Y-67432267D01*
X69737746Y-67519130D01*
X69675264Y-67595264D01*
X69599130Y-67657746D01*
X69512267Y-67704175D01*
X69418016Y-67732766D01*
X69344566Y-67740000D01*
X69295434Y-67740000D01*
X69221984Y-67732766D01*
X69127733Y-67704175D01*
X69040870Y-67657746D01*
X68964736Y-67595264D01*
X68902254Y-67519130D01*
X68855825Y-67432267D01*
X68827234Y-67338016D01*
X68817580Y-67240000D01*
X68827234Y-67141984D01*
X68855825Y-67047733D01*
X68902254Y-66960870D01*
X68964736Y-66884736D01*
X69040870Y-66822254D01*
X69127733Y-66775825D01*
X69221984Y-66747234D01*
X69295434Y-66740000D01*
X69344566Y-66740000D01*
X69418016Y-66747234D01*
X69418016Y-66747234D01*
G37*
G36*
X68550000Y-66470000D02*
X67550000Y-66470000D01*
X67550000Y-65470000D01*
X68550000Y-65470000D01*
X68550000Y-66470000D01*
X68550000Y-66470000D01*
G37*
G36*
X69418016Y-65477234D02*
X69512267Y-65505825D01*
X69599130Y-65552254D01*
X69675264Y-65614736D01*
X69737746Y-65690870D01*
X69784175Y-65777733D01*
X69812766Y-65871984D01*
X69822420Y-65970000D01*
X69812766Y-66068016D01*
X69784175Y-66162267D01*
X69737746Y-66249130D01*
X69675264Y-66325264D01*
X69599130Y-66387746D01*
X69512267Y-66434175D01*
X69418016Y-66462766D01*
X69344566Y-66470000D01*
X69295434Y-66470000D01*
X69221984Y-66462766D01*
X69127733Y-66434175D01*
X69040870Y-66387746D01*
X68964736Y-66325264D01*
X68902254Y-66249130D01*
X68855825Y-66162267D01*
X68827234Y-66068016D01*
X68817580Y-65970000D01*
X68827234Y-65871984D01*
X68855825Y-65777733D01*
X68902254Y-65690870D01*
X68964736Y-65614736D01*
X69040870Y-65552254D01*
X69127733Y-65505825D01*
X69221984Y-65477234D01*
X69295434Y-65470000D01*
X69344566Y-65470000D01*
X69418016Y-65477234D01*
X69418016Y-65477234D01*
G37*
G36*
X83269293Y-63848895D02*
X83432085Y-63898278D01*
X83582114Y-63978470D01*
X83713612Y-64086388D01*
X83821530Y-64217886D01*
X83901722Y-64367915D01*
X83951105Y-64530707D01*
X83967779Y-64700000D01*
X83951105Y-64869293D01*
X83901722Y-65032085D01*
X83821530Y-65182114D01*
X83713612Y-65313612D01*
X83582114Y-65421530D01*
X83432085Y-65501722D01*
X83269293Y-65551105D01*
X83142426Y-65563600D01*
X83057574Y-65563600D01*
X82930707Y-65551105D01*
X82767915Y-65501722D01*
X82617886Y-65421530D01*
X82486388Y-65313612D01*
X82378470Y-65182114D01*
X82298278Y-65032085D01*
X82248895Y-64869293D01*
X82232221Y-64700000D01*
X82248895Y-64530707D01*
X82298278Y-64367915D01*
X82378470Y-64217886D01*
X82486388Y-64086388D01*
X82617886Y-63978470D01*
X82767915Y-63898278D01*
X82930707Y-63848895D01*
X83057574Y-63836400D01*
X83142426Y-63836400D01*
X83269293Y-63848895D01*
X83269293Y-63848895D01*
G37*
G36*
X85809293Y-63848895D02*
X85972085Y-63898278D01*
X86122114Y-63978470D01*
X86253612Y-64086388D01*
X86361530Y-64217886D01*
X86441722Y-64367915D01*
X86491105Y-64530707D01*
X86507779Y-64700000D01*
X86491105Y-64869293D01*
X86441722Y-65032085D01*
X86361530Y-65182114D01*
X86253612Y-65313612D01*
X86122114Y-65421530D01*
X85972085Y-65501722D01*
X85809293Y-65551105D01*
X85682426Y-65563600D01*
X85597574Y-65563600D01*
X85470707Y-65551105D01*
X85307915Y-65501722D01*
X85157886Y-65421530D01*
X85026388Y-65313612D01*
X84918470Y-65182114D01*
X84838278Y-65032085D01*
X84788895Y-64869293D01*
X84772221Y-64700000D01*
X84788895Y-64530707D01*
X84838278Y-64367915D01*
X84918470Y-64217886D01*
X85026388Y-64086388D01*
X85157886Y-63978470D01*
X85307915Y-63898278D01*
X85470707Y-63848895D01*
X85597574Y-63836400D01*
X85682426Y-63836400D01*
X85809293Y-63848895D01*
X85809293Y-63848895D01*
G37*
G36*
X85809293Y-61308895D02*
X85972085Y-61358278D01*
X86122114Y-61438470D01*
X86253612Y-61546388D01*
X86361530Y-61677886D01*
X86441722Y-61827915D01*
X86491105Y-61990707D01*
X86507779Y-62160000D01*
X86491105Y-62329293D01*
X86441722Y-62492085D01*
X86361530Y-62642114D01*
X86253612Y-62773612D01*
X86122114Y-62881530D01*
X85972085Y-62961722D01*
X85809293Y-63011105D01*
X85682426Y-63023600D01*
X85597574Y-63023600D01*
X85470707Y-63011105D01*
X85307915Y-62961722D01*
X85157886Y-62881530D01*
X85026388Y-62773612D01*
X84918470Y-62642114D01*
X84838278Y-62492085D01*
X84788895Y-62329293D01*
X84772221Y-62160000D01*
X84788895Y-61990707D01*
X84838278Y-61827915D01*
X84918470Y-61677886D01*
X85026388Y-61546388D01*
X85157886Y-61438470D01*
X85307915Y-61358278D01*
X85470707Y-61308895D01*
X85597574Y-61296400D01*
X85682426Y-61296400D01*
X85809293Y-61308895D01*
X85809293Y-61308895D01*
G37*
G36*
X83269293Y-61308895D02*
X83432085Y-61358278D01*
X83582114Y-61438470D01*
X83713612Y-61546388D01*
X83821530Y-61677886D01*
X83901722Y-61827915D01*
X83951105Y-61990707D01*
X83967779Y-62160000D01*
X83951105Y-62329293D01*
X83901722Y-62492085D01*
X83821530Y-62642114D01*
X83713612Y-62773612D01*
X83582114Y-62881530D01*
X83432085Y-62961722D01*
X83269293Y-63011105D01*
X83142426Y-63023600D01*
X83057574Y-63023600D01*
X82930707Y-63011105D01*
X82767915Y-62961722D01*
X82617886Y-62881530D01*
X82486388Y-62773612D01*
X82378470Y-62642114D01*
X82298278Y-62492085D01*
X82248895Y-62329293D01*
X82232221Y-62160000D01*
X82248895Y-61990707D01*
X82298278Y-61827915D01*
X82378470Y-61677886D01*
X82486388Y-61546388D01*
X82617886Y-61438470D01*
X82767915Y-61358278D01*
X82930707Y-61308895D01*
X83057574Y-61296400D01*
X83142426Y-61296400D01*
X83269293Y-61308895D01*
X83269293Y-61308895D01*
G37*
G36*
X83269293Y-58768895D02*
X83432085Y-58818278D01*
X83582114Y-58898470D01*
X83713612Y-59006388D01*
X83821530Y-59137886D01*
X83901722Y-59287915D01*
X83951105Y-59450707D01*
X83967779Y-59620000D01*
X83951105Y-59789293D01*
X83901722Y-59952085D01*
X83821530Y-60102114D01*
X83713612Y-60233612D01*
X83582114Y-60341530D01*
X83432085Y-60421722D01*
X83269293Y-60471105D01*
X83142426Y-60483600D01*
X83057574Y-60483600D01*
X82930707Y-60471105D01*
X82767915Y-60421722D01*
X82617886Y-60341530D01*
X82486388Y-60233612D01*
X82378470Y-60102114D01*
X82298278Y-59952085D01*
X82248895Y-59789293D01*
X82232221Y-59620000D01*
X82248895Y-59450707D01*
X82298278Y-59287915D01*
X82378470Y-59137886D01*
X82486388Y-59006388D01*
X82617886Y-58898470D01*
X82767915Y-58818278D01*
X82930707Y-58768895D01*
X83057574Y-58756400D01*
X83142426Y-58756400D01*
X83269293Y-58768895D01*
X83269293Y-58768895D01*
G37*
G36*
X85809293Y-58768895D02*
X85972085Y-58818278D01*
X86122114Y-58898470D01*
X86253612Y-59006388D01*
X86361530Y-59137886D01*
X86441722Y-59287915D01*
X86491105Y-59450707D01*
X86507779Y-59620000D01*
X86491105Y-59789293D01*
X86441722Y-59952085D01*
X86361530Y-60102114D01*
X86253612Y-60233612D01*
X86122114Y-60341530D01*
X85972085Y-60421722D01*
X85809293Y-60471105D01*
X85682426Y-60483600D01*
X85597574Y-60483600D01*
X85470707Y-60471105D01*
X85307915Y-60421722D01*
X85157886Y-60341530D01*
X85026388Y-60233612D01*
X84918470Y-60102114D01*
X84838278Y-59952085D01*
X84788895Y-59789293D01*
X84772221Y-59620000D01*
X84788895Y-59450707D01*
X84838278Y-59287915D01*
X84918470Y-59137886D01*
X85026388Y-59006388D01*
X85157886Y-58898470D01*
X85307915Y-58818278D01*
X85470707Y-58768895D01*
X85597574Y-58756400D01*
X85682426Y-58756400D01*
X85809293Y-58768895D01*
X85809293Y-58768895D01*
G37*
G36*
X85809293Y-56228895D02*
X85972085Y-56278278D01*
X86122114Y-56358470D01*
X86253612Y-56466388D01*
X86361530Y-56597886D01*
X86441722Y-56747915D01*
X86491105Y-56910707D01*
X86507779Y-57080000D01*
X86491105Y-57249293D01*
X86441722Y-57412085D01*
X86361530Y-57562114D01*
X86253612Y-57693612D01*
X86122114Y-57801530D01*
X85972085Y-57881722D01*
X85809293Y-57931105D01*
X85682426Y-57943600D01*
X85597574Y-57943600D01*
X85470707Y-57931105D01*
X85307915Y-57881722D01*
X85157886Y-57801530D01*
X85026388Y-57693612D01*
X84918470Y-57562114D01*
X84838278Y-57412085D01*
X84788895Y-57249293D01*
X84772221Y-57080000D01*
X84788895Y-56910707D01*
X84838278Y-56747915D01*
X84918470Y-56597886D01*
X85026388Y-56466388D01*
X85157886Y-56358470D01*
X85307915Y-56278278D01*
X85470707Y-56228895D01*
X85597574Y-56216400D01*
X85682426Y-56216400D01*
X85809293Y-56228895D01*
X85809293Y-56228895D01*
G37*
G36*
X83963600Y-57943600D02*
X82236400Y-57943600D01*
X82236400Y-56216400D01*
X83963600Y-56216400D01*
X83963600Y-57943600D01*
X83963600Y-57943600D01*
G37*
G36*
X97466703Y-53461487D02*
X97466705Y-53461488D01*
X97466706Y-53461488D01*
X97757884Y-53582098D01*
X98019939Y-53757197D01*
X98242803Y-53980061D01*
X98417902Y-54242116D01*
X98538512Y-54533294D01*
X98600000Y-54842416D01*
X98600000Y-55157584D01*
X98538512Y-55466706D01*
X98417902Y-55757884D01*
X98242803Y-56019939D01*
X98019939Y-56242803D01*
X97757884Y-56417902D01*
X97466706Y-56538512D01*
X97466705Y-56538512D01*
X97466703Y-56538513D01*
X97157586Y-56600000D01*
X96842414Y-56600000D01*
X96533297Y-56538513D01*
X96533295Y-56538512D01*
X96533294Y-56538512D01*
X96242116Y-56417902D01*
X95980061Y-56242803D01*
X95757197Y-56019939D01*
X95582098Y-55757884D01*
X95461488Y-55466706D01*
X95400000Y-55157584D01*
X95400000Y-54842416D01*
X95461488Y-54533294D01*
X95582098Y-54242116D01*
X95757197Y-53980061D01*
X95980061Y-53757197D01*
X96242116Y-53582098D01*
X96533294Y-53461488D01*
X96533295Y-53461488D01*
X96533297Y-53461487D01*
X96842414Y-53400000D01*
X97157586Y-53400000D01*
X97466703Y-53461487D01*
X97466703Y-53461487D01*
G37*
G36*
X68466703Y-53461487D02*
X68466705Y-53461488D01*
X68466706Y-53461488D01*
X68757884Y-53582098D01*
X69019939Y-53757197D01*
X69242803Y-53980061D01*
X69417902Y-54242116D01*
X69538512Y-54533294D01*
X69600000Y-54842416D01*
X69600000Y-55157584D01*
X69538512Y-55466706D01*
X69417902Y-55757884D01*
X69242803Y-56019939D01*
X69019939Y-56242803D01*
X68757884Y-56417902D01*
X68466706Y-56538512D01*
X68466705Y-56538512D01*
X68466703Y-56538513D01*
X68157586Y-56600000D01*
X67842414Y-56600000D01*
X67533297Y-56538513D01*
X67533295Y-56538512D01*
X67533294Y-56538512D01*
X67242116Y-56417902D01*
X66980061Y-56242803D01*
X66757197Y-56019939D01*
X66582098Y-55757884D01*
X66461488Y-55466706D01*
X66400000Y-55157584D01*
X66400000Y-54842416D01*
X66461488Y-54533294D01*
X66582098Y-54242116D01*
X66757197Y-53980061D01*
X66980061Y-53757197D01*
X67242116Y-53582098D01*
X67533294Y-53461488D01*
X67533295Y-53461488D01*
X67533297Y-53461487D01*
X67842414Y-53400000D01*
X68157586Y-53400000D01*
X68466703Y-53461487D01*
X68466703Y-53461487D01*
G37*
M02*
