%TF.GenerationSoftware,KiCad,Pcbnew,5.1.7-a382d34a8~87~ubuntu20.04.1*%
%TF.CreationDate,2020-11-06T18:28:57+02:00*%
%TF.ProjectId,BRK-MSOP-8-1EP-3x3-P0.65-EP1.68x1.88,42524b2d-4d53-44f5-902d-382d3145502d,v1.0*%
%TF.SameCoordinates,Original*%
%TF.FileFunction,Copper,L1,Top*%
%TF.FilePolarity,Positive*%
%FSLAX46Y46*%
G04 Gerber Fmt 4.6, Leading zero omitted, Abs format (unit mm)*
G04 Created by KiCad (PCBNEW 5.1.7-a382d34a8~87~ubuntu20.04.1) date 2020-11-06 18:28:57*
%MOMM*%
%LPD*%
G01*
G04 APERTURE LIST*
%TA.AperFunction,ComponentPad*%
%ADD10O,1.700000X1.700000*%
%TD*%
%TA.AperFunction,ComponentPad*%
%ADD11R,1.700000X1.700000*%
%TD*%
%TA.AperFunction,SMDPad,CuDef*%
%ADD12R,1.680000X1.880000*%
%TD*%
%TA.AperFunction,ViaPad*%
%ADD13C,0.600000*%
%TD*%
%TA.AperFunction,Conductor*%
%ADD14C,0.250000*%
%TD*%
%TA.AperFunction,Conductor*%
%ADD15C,0.800000*%
%TD*%
G04 APERTURE END LIST*
D10*
%TO.P,J2,5*%
%TO.N,EP*%
X106350000Y-93650000D03*
%TO.P,J2,4*%
%TO.N,PIN8*%
X106350000Y-96190000D03*
%TO.P,J2,3*%
%TO.N,PIN7*%
X106350000Y-98730000D03*
%TO.P,J2,2*%
%TO.N,PIN6*%
X106350000Y-101270000D03*
D11*
%TO.P,J2,1*%
%TO.N,PIN5*%
X106350000Y-103810000D03*
%TD*%
D10*
%TO.P,J1,4*%
%TO.N,PIN4*%
X93650000Y-103810000D03*
%TO.P,J1,3*%
%TO.N,PIN3*%
X93650000Y-101270000D03*
%TO.P,J1,2*%
%TO.N,PIN2*%
X93650000Y-98730000D03*
D11*
%TO.P,J1,1*%
%TO.N,PIN1*%
X93650000Y-96190000D03*
%TD*%
D12*
%TO.P,U1,9*%
%TO.N,EP*%
X100000000Y-100000000D03*
%TO.P,U1,8*%
%TO.N,PIN8*%
%TA.AperFunction,SMDPad,CuDef*%
G36*
G01*
X101425000Y-99125000D02*
X101425000Y-98925000D01*
G75*
G02*
X101525000Y-98825000I100000J0D01*
G01*
X102775000Y-98825000D01*
G75*
G02*
X102875000Y-98925000I0J-100000D01*
G01*
X102875000Y-99125000D01*
G75*
G02*
X102775000Y-99225000I-100000J0D01*
G01*
X101525000Y-99225000D01*
G75*
G02*
X101425000Y-99125000I0J100000D01*
G01*
G37*
%TD.AperFunction*%
%TO.P,U1,7*%
%TO.N,PIN7*%
%TA.AperFunction,SMDPad,CuDef*%
G36*
G01*
X101425000Y-99775000D02*
X101425000Y-99575000D01*
G75*
G02*
X101525000Y-99475000I100000J0D01*
G01*
X102775000Y-99475000D01*
G75*
G02*
X102875000Y-99575000I0J-100000D01*
G01*
X102875000Y-99775000D01*
G75*
G02*
X102775000Y-99875000I-100000J0D01*
G01*
X101525000Y-99875000D01*
G75*
G02*
X101425000Y-99775000I0J100000D01*
G01*
G37*
%TD.AperFunction*%
%TO.P,U1,6*%
%TO.N,PIN6*%
%TA.AperFunction,SMDPad,CuDef*%
G36*
G01*
X101425000Y-100425000D02*
X101425000Y-100225000D01*
G75*
G02*
X101525000Y-100125000I100000J0D01*
G01*
X102775000Y-100125000D01*
G75*
G02*
X102875000Y-100225000I0J-100000D01*
G01*
X102875000Y-100425000D01*
G75*
G02*
X102775000Y-100525000I-100000J0D01*
G01*
X101525000Y-100525000D01*
G75*
G02*
X101425000Y-100425000I0J100000D01*
G01*
G37*
%TD.AperFunction*%
%TO.P,U1,5*%
%TO.N,PIN5*%
%TA.AperFunction,SMDPad,CuDef*%
G36*
G01*
X101425000Y-101075000D02*
X101425000Y-100875000D01*
G75*
G02*
X101525000Y-100775000I100000J0D01*
G01*
X102775000Y-100775000D01*
G75*
G02*
X102875000Y-100875000I0J-100000D01*
G01*
X102875000Y-101075000D01*
G75*
G02*
X102775000Y-101175000I-100000J0D01*
G01*
X101525000Y-101175000D01*
G75*
G02*
X101425000Y-101075000I0J100000D01*
G01*
G37*
%TD.AperFunction*%
%TO.P,U1,4*%
%TO.N,PIN4*%
%TA.AperFunction,SMDPad,CuDef*%
G36*
G01*
X97125000Y-101075000D02*
X97125000Y-100875000D01*
G75*
G02*
X97225000Y-100775000I100000J0D01*
G01*
X98475000Y-100775000D01*
G75*
G02*
X98575000Y-100875000I0J-100000D01*
G01*
X98575000Y-101075000D01*
G75*
G02*
X98475000Y-101175000I-100000J0D01*
G01*
X97225000Y-101175000D01*
G75*
G02*
X97125000Y-101075000I0J100000D01*
G01*
G37*
%TD.AperFunction*%
%TO.P,U1,3*%
%TO.N,PIN3*%
%TA.AperFunction,SMDPad,CuDef*%
G36*
G01*
X97125000Y-100425000D02*
X97125000Y-100225000D01*
G75*
G02*
X97225000Y-100125000I100000J0D01*
G01*
X98475000Y-100125000D01*
G75*
G02*
X98575000Y-100225000I0J-100000D01*
G01*
X98575000Y-100425000D01*
G75*
G02*
X98475000Y-100525000I-100000J0D01*
G01*
X97225000Y-100525000D01*
G75*
G02*
X97125000Y-100425000I0J100000D01*
G01*
G37*
%TD.AperFunction*%
%TO.P,U1,2*%
%TO.N,PIN2*%
%TA.AperFunction,SMDPad,CuDef*%
G36*
G01*
X97125000Y-99775000D02*
X97125000Y-99575000D01*
G75*
G02*
X97225000Y-99475000I100000J0D01*
G01*
X98475000Y-99475000D01*
G75*
G02*
X98575000Y-99575000I0J-100000D01*
G01*
X98575000Y-99775000D01*
G75*
G02*
X98475000Y-99875000I-100000J0D01*
G01*
X97225000Y-99875000D01*
G75*
G02*
X97125000Y-99775000I0J100000D01*
G01*
G37*
%TD.AperFunction*%
%TO.P,U1,1*%
%TO.N,PIN1*%
%TA.AperFunction,SMDPad,CuDef*%
G36*
G01*
X97125000Y-99125000D02*
X97125000Y-98925000D01*
G75*
G02*
X97225000Y-98825000I100000J0D01*
G01*
X98475000Y-98825000D01*
G75*
G02*
X98575000Y-98925000I0J-100000D01*
G01*
X98575000Y-99125000D01*
G75*
G02*
X98475000Y-99225000I-100000J0D01*
G01*
X97225000Y-99225000D01*
G75*
G02*
X97125000Y-99125000I0J100000D01*
G01*
G37*
%TD.AperFunction*%
%TD*%
D13*
%TO.N,EP*%
X100000000Y-100000000D03*
%TD*%
D14*
%TO.N,PIN1*%
X94690000Y-96190000D02*
X93650000Y-96190000D01*
X95500000Y-97000000D02*
X94690000Y-96190000D01*
X95500000Y-98000000D02*
X95500000Y-97000000D01*
X96525000Y-99025000D02*
X95500000Y-98000000D01*
X97850000Y-99025000D02*
X96525000Y-99025000D01*
%TO.N,PIN2*%
X94595000Y-99675000D02*
X93650000Y-98730000D01*
X97850000Y-99675000D02*
X94595000Y-99675000D01*
%TO.N,PIN3*%
X94595000Y-100325000D02*
X93650000Y-101270000D01*
X97850000Y-100325000D02*
X94595000Y-100325000D01*
%TO.N,PIN4*%
X96485000Y-100975000D02*
X93650000Y-103810000D01*
X97850000Y-100975000D02*
X96485000Y-100975000D01*
%TO.N,PIN5*%
X105410000Y-103810000D02*
X106350000Y-103810000D01*
X104500000Y-102900000D02*
X105410000Y-103810000D01*
X104500000Y-101900000D02*
X104500000Y-102900000D01*
X103575000Y-100975000D02*
X104500000Y-101900000D01*
X102150000Y-100975000D02*
X103575000Y-100975000D01*
%TO.N,PIN6*%
X105405000Y-100325000D02*
X106350000Y-101270000D01*
X102150000Y-100325000D02*
X105405000Y-100325000D01*
%TO.N,PIN7*%
X105405000Y-99675000D02*
X106350000Y-98730000D01*
X102150000Y-99675000D02*
X105405000Y-99675000D01*
%TO.N,PIN8*%
X103515000Y-99025000D02*
X106350000Y-96190000D01*
X102150000Y-99025000D02*
X103515000Y-99025000D01*
D15*
%TO.N,EP*%
X100000000Y-98600000D02*
X104950000Y-93650000D01*
X104950000Y-93650000D02*
X106350000Y-93650000D01*
X100000000Y-100000000D02*
X100000000Y-98600000D01*
%TD*%
M02*
