%TF.GenerationSoftware,KiCad,Pcbnew,5.1.7-a382d34a8~87~ubuntu20.04.1*%
%TF.CreationDate,2020-11-06T18:28:57+02:00*%
%TF.ProjectId,BRK-MSOP-8-1EP-3x3-P0.65-EP1.68x1.88,42524b2d-4d53-44f5-902d-382d3145502d,v1.0*%
%TF.SameCoordinates,Original*%
%TF.FileFunction,Legend,Bot*%
%TF.FilePolarity,Positive*%
%FSLAX46Y46*%
G04 Gerber Fmt 4.6, Leading zero omitted, Abs format (unit mm)*
G04 Created by KiCad (PCBNEW 5.1.7-a382d34a8~87~ubuntu20.04.1) date 2020-11-06 18:28:57*
%MOMM*%
%LPD*%
G01*
G04 APERTURE LIST*
%ADD10C,0.250000*%
G04 APERTURE END LIST*
D10*
X106469047Y-85098095D02*
X106469047Y-83798095D01*
X106035714Y-84726666D01*
X105602380Y-83798095D01*
X105602380Y-85098095D01*
X105045238Y-85036190D02*
X104859523Y-85098095D01*
X104550000Y-85098095D01*
X104426190Y-85036190D01*
X104364285Y-84974285D01*
X104302380Y-84850476D01*
X104302380Y-84726666D01*
X104364285Y-84602857D01*
X104426190Y-84540952D01*
X104550000Y-84479047D01*
X104797619Y-84417142D01*
X104921428Y-84355238D01*
X104983333Y-84293333D01*
X105045238Y-84169523D01*
X105045238Y-84045714D01*
X104983333Y-83921904D01*
X104921428Y-83860000D01*
X104797619Y-83798095D01*
X104488095Y-83798095D01*
X104302380Y-83860000D01*
X103497619Y-83798095D02*
X103250000Y-83798095D01*
X103126190Y-83860000D01*
X103002380Y-83983809D01*
X102940476Y-84231428D01*
X102940476Y-84664761D01*
X103002380Y-84912380D01*
X103126190Y-85036190D01*
X103250000Y-85098095D01*
X103497619Y-85098095D01*
X103621428Y-85036190D01*
X103745238Y-84912380D01*
X103807142Y-84664761D01*
X103807142Y-84231428D01*
X103745238Y-83983809D01*
X103621428Y-83860000D01*
X103497619Y-83798095D01*
X102383333Y-85098095D02*
X102383333Y-83798095D01*
X101888095Y-83798095D01*
X101764285Y-83860000D01*
X101702380Y-83921904D01*
X101640476Y-84045714D01*
X101640476Y-84231428D01*
X101702380Y-84355238D01*
X101764285Y-84417142D01*
X101888095Y-84479047D01*
X102383333Y-84479047D01*
X101083333Y-84602857D02*
X100092857Y-84602857D01*
X99288095Y-84355238D02*
X99411904Y-84293333D01*
X99473809Y-84231428D01*
X99535714Y-84107619D01*
X99535714Y-84045714D01*
X99473809Y-83921904D01*
X99411904Y-83860000D01*
X99288095Y-83798095D01*
X99040476Y-83798095D01*
X98916666Y-83860000D01*
X98854761Y-83921904D01*
X98792857Y-84045714D01*
X98792857Y-84107619D01*
X98854761Y-84231428D01*
X98916666Y-84293333D01*
X99040476Y-84355238D01*
X99288095Y-84355238D01*
X99411904Y-84417142D01*
X99473809Y-84479047D01*
X99535714Y-84602857D01*
X99535714Y-84850476D01*
X99473809Y-84974285D01*
X99411904Y-85036190D01*
X99288095Y-85098095D01*
X99040476Y-85098095D01*
X98916666Y-85036190D01*
X98854761Y-84974285D01*
X98792857Y-84850476D01*
X98792857Y-84602857D01*
X98854761Y-84479047D01*
X98916666Y-84417142D01*
X99040476Y-84355238D01*
X98235714Y-84602857D02*
X97245238Y-84602857D01*
X95945238Y-85098095D02*
X96688095Y-85098095D01*
X96316666Y-85098095D02*
X96316666Y-83798095D01*
X96440476Y-83983809D01*
X96564285Y-84107619D01*
X96688095Y-84169523D01*
X95388095Y-84417142D02*
X94954761Y-84417142D01*
X94769047Y-85098095D02*
X95388095Y-85098095D01*
X95388095Y-83798095D01*
X94769047Y-83798095D01*
X94211904Y-85098095D02*
X94211904Y-83798095D01*
X93716666Y-83798095D01*
X93592857Y-83860000D01*
X93530952Y-83921904D01*
X93469047Y-84045714D01*
X93469047Y-84231428D01*
X93530952Y-84355238D01*
X93592857Y-84417142D01*
X93716666Y-84479047D01*
X94211904Y-84479047D01*
X105200000Y-85998095D02*
X104395238Y-85998095D01*
X104828571Y-86493333D01*
X104642857Y-86493333D01*
X104519047Y-86555238D01*
X104457142Y-86617142D01*
X104395238Y-86740952D01*
X104395238Y-87050476D01*
X104457142Y-87174285D01*
X104519047Y-87236190D01*
X104642857Y-87298095D01*
X105014285Y-87298095D01*
X105138095Y-87236190D01*
X105200000Y-87174285D01*
X103961904Y-87298095D02*
X103280952Y-86431428D01*
X103961904Y-86431428D02*
X103280952Y-87298095D01*
X102909523Y-85998095D02*
X102104761Y-85998095D01*
X102538095Y-86493333D01*
X102352380Y-86493333D01*
X102228571Y-86555238D01*
X102166666Y-86617142D01*
X102104761Y-86740952D01*
X102104761Y-87050476D01*
X102166666Y-87174285D01*
X102228571Y-87236190D01*
X102352380Y-87298095D01*
X102723809Y-87298095D01*
X102847619Y-87236190D01*
X102909523Y-87174285D01*
X101547619Y-86802857D02*
X100557142Y-86802857D01*
X99938095Y-87298095D02*
X99938095Y-85998095D01*
X99442857Y-85998095D01*
X99319047Y-86060000D01*
X99257142Y-86121904D01*
X99195238Y-86245714D01*
X99195238Y-86431428D01*
X99257142Y-86555238D01*
X99319047Y-86617142D01*
X99442857Y-86679047D01*
X99938095Y-86679047D01*
X98390476Y-85998095D02*
X98266666Y-85998095D01*
X98142857Y-86060000D01*
X98080952Y-86121904D01*
X98019047Y-86245714D01*
X97957142Y-86493333D01*
X97957142Y-86802857D01*
X98019047Y-87050476D01*
X98080952Y-87174285D01*
X98142857Y-87236190D01*
X98266666Y-87298095D01*
X98390476Y-87298095D01*
X98514285Y-87236190D01*
X98576190Y-87174285D01*
X98638095Y-87050476D01*
X98700000Y-86802857D01*
X98700000Y-86493333D01*
X98638095Y-86245714D01*
X98576190Y-86121904D01*
X98514285Y-86060000D01*
X98390476Y-85998095D01*
X97400000Y-87174285D02*
X97338095Y-87236190D01*
X97400000Y-87298095D01*
X97461904Y-87236190D01*
X97400000Y-87174285D01*
X97400000Y-87298095D01*
X96223809Y-85998095D02*
X96471428Y-85998095D01*
X96595238Y-86060000D01*
X96657142Y-86121904D01*
X96780952Y-86307619D01*
X96842857Y-86555238D01*
X96842857Y-87050476D01*
X96780952Y-87174285D01*
X96719047Y-87236190D01*
X96595238Y-87298095D01*
X96347619Y-87298095D01*
X96223809Y-87236190D01*
X96161904Y-87174285D01*
X96100000Y-87050476D01*
X96100000Y-86740952D01*
X96161904Y-86617142D01*
X96223809Y-86555238D01*
X96347619Y-86493333D01*
X96595238Y-86493333D01*
X96719047Y-86555238D01*
X96780952Y-86617142D01*
X96842857Y-86740952D01*
X94923809Y-85998095D02*
X95542857Y-85998095D01*
X95604761Y-86617142D01*
X95542857Y-86555238D01*
X95419047Y-86493333D01*
X95109523Y-86493333D01*
X94985714Y-86555238D01*
X94923809Y-86617142D01*
X94861904Y-86740952D01*
X94861904Y-87050476D01*
X94923809Y-87174285D01*
X94985714Y-87236190D01*
X95109523Y-87298095D01*
X95419047Y-87298095D01*
X95542857Y-87236190D01*
X95604761Y-87174285D01*
X105788095Y-88817142D02*
X105354761Y-88817142D01*
X105169047Y-89498095D02*
X105788095Y-89498095D01*
X105788095Y-88198095D01*
X105169047Y-88198095D01*
X104611904Y-89498095D02*
X104611904Y-88198095D01*
X104116666Y-88198095D01*
X103992857Y-88260000D01*
X103930952Y-88321904D01*
X103869047Y-88445714D01*
X103869047Y-88631428D01*
X103930952Y-88755238D01*
X103992857Y-88817142D01*
X104116666Y-88879047D01*
X104611904Y-88879047D01*
X102630952Y-89498095D02*
X103373809Y-89498095D01*
X103002380Y-89498095D02*
X103002380Y-88198095D01*
X103126190Y-88383809D01*
X103250000Y-88507619D01*
X103373809Y-88569523D01*
X102073809Y-89374285D02*
X102011904Y-89436190D01*
X102073809Y-89498095D01*
X102135714Y-89436190D01*
X102073809Y-89374285D01*
X102073809Y-89498095D01*
X100897619Y-88198095D02*
X101145238Y-88198095D01*
X101269047Y-88260000D01*
X101330952Y-88321904D01*
X101454761Y-88507619D01*
X101516666Y-88755238D01*
X101516666Y-89250476D01*
X101454761Y-89374285D01*
X101392857Y-89436190D01*
X101269047Y-89498095D01*
X101021428Y-89498095D01*
X100897619Y-89436190D01*
X100835714Y-89374285D01*
X100773809Y-89250476D01*
X100773809Y-88940952D01*
X100835714Y-88817142D01*
X100897619Y-88755238D01*
X101021428Y-88693333D01*
X101269047Y-88693333D01*
X101392857Y-88755238D01*
X101454761Y-88817142D01*
X101516666Y-88940952D01*
X100030952Y-88755238D02*
X100154761Y-88693333D01*
X100216666Y-88631428D01*
X100278571Y-88507619D01*
X100278571Y-88445714D01*
X100216666Y-88321904D01*
X100154761Y-88260000D01*
X100030952Y-88198095D01*
X99783333Y-88198095D01*
X99659523Y-88260000D01*
X99597619Y-88321904D01*
X99535714Y-88445714D01*
X99535714Y-88507619D01*
X99597619Y-88631428D01*
X99659523Y-88693333D01*
X99783333Y-88755238D01*
X100030952Y-88755238D01*
X100154761Y-88817142D01*
X100216666Y-88879047D01*
X100278571Y-89002857D01*
X100278571Y-89250476D01*
X100216666Y-89374285D01*
X100154761Y-89436190D01*
X100030952Y-89498095D01*
X99783333Y-89498095D01*
X99659523Y-89436190D01*
X99597619Y-89374285D01*
X99535714Y-89250476D01*
X99535714Y-89002857D01*
X99597619Y-88879047D01*
X99659523Y-88817142D01*
X99783333Y-88755238D01*
X99102380Y-89498095D02*
X98421428Y-88631428D01*
X99102380Y-88631428D02*
X98421428Y-89498095D01*
X97245238Y-89498095D02*
X97988095Y-89498095D01*
X97616666Y-89498095D02*
X97616666Y-88198095D01*
X97740476Y-88383809D01*
X97864285Y-88507619D01*
X97988095Y-88569523D01*
X96688095Y-89374285D02*
X96626190Y-89436190D01*
X96688095Y-89498095D01*
X96750000Y-89436190D01*
X96688095Y-89374285D01*
X96688095Y-89498095D01*
X95883333Y-88755238D02*
X96007142Y-88693333D01*
X96069047Y-88631428D01*
X96130952Y-88507619D01*
X96130952Y-88445714D01*
X96069047Y-88321904D01*
X96007142Y-88260000D01*
X95883333Y-88198095D01*
X95635714Y-88198095D01*
X95511904Y-88260000D01*
X95450000Y-88321904D01*
X95388095Y-88445714D01*
X95388095Y-88507619D01*
X95450000Y-88631428D01*
X95511904Y-88693333D01*
X95635714Y-88755238D01*
X95883333Y-88755238D01*
X96007142Y-88817142D01*
X96069047Y-88879047D01*
X96130952Y-89002857D01*
X96130952Y-89250476D01*
X96069047Y-89374285D01*
X96007142Y-89436190D01*
X95883333Y-89498095D01*
X95635714Y-89498095D01*
X95511904Y-89436190D01*
X95450000Y-89374285D01*
X95388095Y-89250476D01*
X95388095Y-89002857D01*
X95450000Y-88879047D01*
X95511904Y-88817142D01*
X95635714Y-88755238D01*
X94645238Y-88755238D02*
X94769047Y-88693333D01*
X94830952Y-88631428D01*
X94892857Y-88507619D01*
X94892857Y-88445714D01*
X94830952Y-88321904D01*
X94769047Y-88260000D01*
X94645238Y-88198095D01*
X94397619Y-88198095D01*
X94273809Y-88260000D01*
X94211904Y-88321904D01*
X94150000Y-88445714D01*
X94150000Y-88507619D01*
X94211904Y-88631428D01*
X94273809Y-88693333D01*
X94397619Y-88755238D01*
X94645238Y-88755238D01*
X94769047Y-88817142D01*
X94830952Y-88879047D01*
X94892857Y-89002857D01*
X94892857Y-89250476D01*
X94830952Y-89374285D01*
X94769047Y-89436190D01*
X94645238Y-89498095D01*
X94397619Y-89498095D01*
X94273809Y-89436190D01*
X94211904Y-89374285D01*
X94150000Y-89250476D01*
X94150000Y-89002857D01*
X94211904Y-88879047D01*
X94273809Y-88817142D01*
X94397619Y-88755238D01*
M02*
