%TF.GenerationSoftware,KiCad,Pcbnew,5.1.7-a382d34a8~87~ubuntu20.04.1*%
%TF.CreationDate,2020-11-06T18:29:47+02:00*%
%TF.ProjectId,BRK-SOIC-8-7.5x5.85-P1.27,42524b2d-534f-4494-932d-382d372e3578,v1.0*%
%TF.SameCoordinates,Original*%
%TF.FileFunction,Paste,Top*%
%TF.FilePolarity,Positive*%
%FSLAX46Y46*%
G04 Gerber Fmt 4.6, Leading zero omitted, Abs format (unit mm)*
G04 Created by KiCad (PCBNEW 5.1.7-a382d34a8~87~ubuntu20.04.1) date 2020-11-06 18:29:47*
%MOMM*%
%LPD*%
G01*
G04 APERTURE LIST*
G04 APERTURE END LIST*
%TO.C,U1*%
G36*
G01*
X104425000Y-98245000D02*
X104425000Y-97945000D01*
G75*
G02*
X104575000Y-97795000I150000J0D01*
G01*
X106075000Y-97795000D01*
G75*
G02*
X106225000Y-97945000I0J-150000D01*
G01*
X106225000Y-98245000D01*
G75*
G02*
X106075000Y-98395000I-150000J0D01*
G01*
X104575000Y-98395000D01*
G75*
G02*
X104425000Y-98245000I0J150000D01*
G01*
G37*
G36*
G01*
X104425000Y-99515000D02*
X104425000Y-99215000D01*
G75*
G02*
X104575000Y-99065000I150000J0D01*
G01*
X106075000Y-99065000D01*
G75*
G02*
X106225000Y-99215000I0J-150000D01*
G01*
X106225000Y-99515000D01*
G75*
G02*
X106075000Y-99665000I-150000J0D01*
G01*
X104575000Y-99665000D01*
G75*
G02*
X104425000Y-99515000I0J150000D01*
G01*
G37*
G36*
G01*
X104425000Y-100785000D02*
X104425000Y-100485000D01*
G75*
G02*
X104575000Y-100335000I150000J0D01*
G01*
X106075000Y-100335000D01*
G75*
G02*
X106225000Y-100485000I0J-150000D01*
G01*
X106225000Y-100785000D01*
G75*
G02*
X106075000Y-100935000I-150000J0D01*
G01*
X104575000Y-100935000D01*
G75*
G02*
X104425000Y-100785000I0J150000D01*
G01*
G37*
G36*
G01*
X104425000Y-102055000D02*
X104425000Y-101755000D01*
G75*
G02*
X104575000Y-101605000I150000J0D01*
G01*
X106075000Y-101605000D01*
G75*
G02*
X106225000Y-101755000I0J-150000D01*
G01*
X106225000Y-102055000D01*
G75*
G02*
X106075000Y-102205000I-150000J0D01*
G01*
X104575000Y-102205000D01*
G75*
G02*
X104425000Y-102055000I0J150000D01*
G01*
G37*
G36*
G01*
X93775000Y-102055000D02*
X93775000Y-101755000D01*
G75*
G02*
X93925000Y-101605000I150000J0D01*
G01*
X95425000Y-101605000D01*
G75*
G02*
X95575000Y-101755000I0J-150000D01*
G01*
X95575000Y-102055000D01*
G75*
G02*
X95425000Y-102205000I-150000J0D01*
G01*
X93925000Y-102205000D01*
G75*
G02*
X93775000Y-102055000I0J150000D01*
G01*
G37*
G36*
G01*
X93775000Y-100785000D02*
X93775000Y-100485000D01*
G75*
G02*
X93925000Y-100335000I150000J0D01*
G01*
X95425000Y-100335000D01*
G75*
G02*
X95575000Y-100485000I0J-150000D01*
G01*
X95575000Y-100785000D01*
G75*
G02*
X95425000Y-100935000I-150000J0D01*
G01*
X93925000Y-100935000D01*
G75*
G02*
X93775000Y-100785000I0J150000D01*
G01*
G37*
G36*
G01*
X93775000Y-99515000D02*
X93775000Y-99215000D01*
G75*
G02*
X93925000Y-99065000I150000J0D01*
G01*
X95425000Y-99065000D01*
G75*
G02*
X95575000Y-99215000I0J-150000D01*
G01*
X95575000Y-99515000D01*
G75*
G02*
X95425000Y-99665000I-150000J0D01*
G01*
X93925000Y-99665000D01*
G75*
G02*
X93775000Y-99515000I0J150000D01*
G01*
G37*
G36*
G01*
X93775000Y-98245000D02*
X93775000Y-97945000D01*
G75*
G02*
X93925000Y-97795000I150000J0D01*
G01*
X95425000Y-97795000D01*
G75*
G02*
X95575000Y-97945000I0J-150000D01*
G01*
X95575000Y-98245000D01*
G75*
G02*
X95425000Y-98395000I-150000J0D01*
G01*
X93925000Y-98395000D01*
G75*
G02*
X93775000Y-98245000I0J150000D01*
G01*
G37*
%TD*%
M02*
