%TF.GenerationSoftware,KiCad,Pcbnew,5.1.7-a382d34a8~87~ubuntu20.04.1*%
%TF.CreationDate,2020-11-06T18:29:47+02:00*%
%TF.ProjectId,BRK-SOIC-8-7.5x5.85-P1.27,42524b2d-534f-4494-932d-382d372e3578,v1.0*%
%TF.SameCoordinates,Original*%
%TF.FileFunction,Legend,Top*%
%TF.FilePolarity,Positive*%
%FSLAX46Y46*%
G04 Gerber Fmt 4.6, Leading zero omitted, Abs format (unit mm)*
G04 Created by KiCad (PCBNEW 5.1.7-a382d34a8~87~ubuntu20.04.1) date 2020-11-06 18:29:47*
%MOMM*%
%LPD*%
G01*
G04 APERTURE LIST*
%ADD10C,0.250000*%
%ADD11C,0.150000*%
%ADD12C,0.120000*%
G04 APERTURE END LIST*
D10*
X107424642Y-96035238D02*
X107300833Y-95973333D01*
X107238928Y-95911428D01*
X107177023Y-95787619D01*
X107177023Y-95725714D01*
X107238928Y-95601904D01*
X107300833Y-95540000D01*
X107424642Y-95478095D01*
X107672261Y-95478095D01*
X107796071Y-95540000D01*
X107857976Y-95601904D01*
X107919880Y-95725714D01*
X107919880Y-95787619D01*
X107857976Y-95911428D01*
X107796071Y-95973333D01*
X107672261Y-96035238D01*
X107424642Y-96035238D01*
X107300833Y-96097142D01*
X107238928Y-96159047D01*
X107177023Y-96282857D01*
X107177023Y-96530476D01*
X107238928Y-96654285D01*
X107300833Y-96716190D01*
X107424642Y-96778095D01*
X107672261Y-96778095D01*
X107796071Y-96716190D01*
X107857976Y-96654285D01*
X107919880Y-96530476D01*
X107919880Y-96282857D01*
X107857976Y-96159047D01*
X107796071Y-96097142D01*
X107672261Y-96035238D01*
X107115119Y-98018095D02*
X107981785Y-98018095D01*
X107424642Y-99318095D01*
X107796071Y-100558095D02*
X107548452Y-100558095D01*
X107424642Y-100620000D01*
X107362738Y-100681904D01*
X107238928Y-100867619D01*
X107177023Y-101115238D01*
X107177023Y-101610476D01*
X107238928Y-101734285D01*
X107300833Y-101796190D01*
X107424642Y-101858095D01*
X107672261Y-101858095D01*
X107796071Y-101796190D01*
X107857976Y-101734285D01*
X107919880Y-101610476D01*
X107919880Y-101300952D01*
X107857976Y-101177142D01*
X107796071Y-101115238D01*
X107672261Y-101053333D01*
X107424642Y-101053333D01*
X107300833Y-101115238D01*
X107238928Y-101177142D01*
X107177023Y-101300952D01*
X107857976Y-103098095D02*
X107238928Y-103098095D01*
X107177023Y-103717142D01*
X107238928Y-103655238D01*
X107362738Y-103593333D01*
X107672261Y-103593333D01*
X107796071Y-103655238D01*
X107857976Y-103717142D01*
X107919880Y-103840952D01*
X107919880Y-104150476D01*
X107857976Y-104274285D01*
X107796071Y-104336190D01*
X107672261Y-104398095D01*
X107362738Y-104398095D01*
X107238928Y-104336190D01*
X107177023Y-104274285D01*
X92699166Y-103531428D02*
X92699166Y-104398095D01*
X92389642Y-103036190D02*
X92080119Y-103964761D01*
X92884880Y-103964761D01*
X92018214Y-100558095D02*
X92822976Y-100558095D01*
X92389642Y-101053333D01*
X92575357Y-101053333D01*
X92699166Y-101115238D01*
X92761071Y-101177142D01*
X92822976Y-101300952D01*
X92822976Y-101610476D01*
X92761071Y-101734285D01*
X92699166Y-101796190D01*
X92575357Y-101858095D01*
X92203928Y-101858095D01*
X92080119Y-101796190D01*
X92018214Y-101734285D01*
X92080119Y-98141904D02*
X92142023Y-98080000D01*
X92265833Y-98018095D01*
X92575357Y-98018095D01*
X92699166Y-98080000D01*
X92761071Y-98141904D01*
X92822976Y-98265714D01*
X92822976Y-98389523D01*
X92761071Y-98575238D01*
X92018214Y-99318095D01*
X92822976Y-99318095D01*
X92822976Y-96778095D02*
X92080119Y-96778095D01*
X92451547Y-96778095D02*
X92451547Y-95478095D01*
X92327738Y-95663809D01*
X92203928Y-95787619D01*
X92080119Y-95849523D01*
D11*
G36*
X111560000Y-92700000D02*
G01*
X88440000Y-92700000D01*
X88440000Y-86700000D01*
X111560000Y-86700000D01*
X111560000Y-92700000D01*
G37*
X111560000Y-92700000D02*
X88440000Y-92700000D01*
X88440000Y-86700000D01*
X111560000Y-86700000D01*
X111560000Y-92700000D01*
D12*
%TO.C,J2*%
X111490000Y-94860000D02*
X108830000Y-94860000D01*
X111490000Y-102540000D02*
X111490000Y-94860000D01*
X108830000Y-102540000D02*
X108830000Y-94860000D01*
X111490000Y-102540000D02*
X108830000Y-102540000D01*
X111490000Y-103810000D02*
X111490000Y-105140000D01*
X111490000Y-105140000D02*
X110160000Y-105140000D01*
%TO.C,J1*%
X88510000Y-105140000D02*
X91170000Y-105140000D01*
X88510000Y-97460000D02*
X88510000Y-105140000D01*
X91170000Y-97460000D02*
X91170000Y-105140000D01*
X88510000Y-97460000D02*
X91170000Y-97460000D01*
X88510000Y-96190000D02*
X88510000Y-94860000D01*
X88510000Y-94860000D02*
X89840000Y-94860000D01*
%TO.C,U1*%
X100000000Y-103035000D02*
X103860000Y-103035000D01*
X103860000Y-103035000D02*
X103860000Y-102465000D01*
X100000000Y-103035000D02*
X96140000Y-103035000D01*
X96140000Y-103035000D02*
X96140000Y-102465000D01*
X100000000Y-96965000D02*
X103860000Y-96965000D01*
X103860000Y-96965000D02*
X103860000Y-97535000D01*
X100000000Y-96965000D02*
X96140000Y-96965000D01*
X96140000Y-96965000D02*
X96140000Y-97535000D01*
X96140000Y-97535000D02*
X93775000Y-97535000D01*
%TD*%
M02*
