%TF.GenerationSoftware,KiCad,Pcbnew,5.1.7-a382d34a8~87~ubuntu20.04.1*%
%TF.CreationDate,2020-11-06T18:29:20+02:00*%
%TF.ProjectId,BRK-MSOP-10-3x3-P0.5,42524b2d-4d53-44f5-902d-31302d337833,v1.0*%
%TF.SameCoordinates,Original*%
%TF.FileFunction,Legend,Bot*%
%TF.FilePolarity,Positive*%
%FSLAX46Y46*%
G04 Gerber Fmt 4.6, Leading zero omitted, Abs format (unit mm)*
G04 Created by KiCad (PCBNEW 5.1.7-a382d34a8~87~ubuntu20.04.1) date 2020-11-06 18:29:20*
%MOMM*%
%LPD*%
G01*
G04 APERTURE LIST*
%ADD10C,0.250000*%
G04 APERTURE END LIST*
D10*
X104426190Y-88568095D02*
X104426190Y-87268095D01*
X103992857Y-88196666D01*
X103559523Y-87268095D01*
X103559523Y-88568095D01*
X103002380Y-88506190D02*
X102816666Y-88568095D01*
X102507142Y-88568095D01*
X102383333Y-88506190D01*
X102321428Y-88444285D01*
X102259523Y-88320476D01*
X102259523Y-88196666D01*
X102321428Y-88072857D01*
X102383333Y-88010952D01*
X102507142Y-87949047D01*
X102754761Y-87887142D01*
X102878571Y-87825238D01*
X102940476Y-87763333D01*
X103002380Y-87639523D01*
X103002380Y-87515714D01*
X102940476Y-87391904D01*
X102878571Y-87330000D01*
X102754761Y-87268095D01*
X102445238Y-87268095D01*
X102259523Y-87330000D01*
X101454761Y-87268095D02*
X101207142Y-87268095D01*
X101083333Y-87330000D01*
X100959523Y-87453809D01*
X100897619Y-87701428D01*
X100897619Y-88134761D01*
X100959523Y-88382380D01*
X101083333Y-88506190D01*
X101207142Y-88568095D01*
X101454761Y-88568095D01*
X101578571Y-88506190D01*
X101702380Y-88382380D01*
X101764285Y-88134761D01*
X101764285Y-87701428D01*
X101702380Y-87453809D01*
X101578571Y-87330000D01*
X101454761Y-87268095D01*
X100340476Y-88568095D02*
X100340476Y-87268095D01*
X99845238Y-87268095D01*
X99721428Y-87330000D01*
X99659523Y-87391904D01*
X99597619Y-87515714D01*
X99597619Y-87701428D01*
X99659523Y-87825238D01*
X99721428Y-87887142D01*
X99845238Y-87949047D01*
X100340476Y-87949047D01*
X99040476Y-88072857D02*
X98050000Y-88072857D01*
X96750000Y-88568095D02*
X97492857Y-88568095D01*
X97121428Y-88568095D02*
X97121428Y-87268095D01*
X97245238Y-87453809D01*
X97369047Y-87577619D01*
X97492857Y-87639523D01*
X95945238Y-87268095D02*
X95821428Y-87268095D01*
X95697619Y-87330000D01*
X95635714Y-87391904D01*
X95573809Y-87515714D01*
X95511904Y-87763333D01*
X95511904Y-88072857D01*
X95573809Y-88320476D01*
X95635714Y-88444285D01*
X95697619Y-88506190D01*
X95821428Y-88568095D01*
X95945238Y-88568095D01*
X96069047Y-88506190D01*
X96130952Y-88444285D01*
X96192857Y-88320476D01*
X96254761Y-88072857D01*
X96254761Y-87763333D01*
X96192857Y-87515714D01*
X96130952Y-87391904D01*
X96069047Y-87330000D01*
X95945238Y-87268095D01*
X104580952Y-89468095D02*
X103776190Y-89468095D01*
X104209523Y-89963333D01*
X104023809Y-89963333D01*
X103900000Y-90025238D01*
X103838095Y-90087142D01*
X103776190Y-90210952D01*
X103776190Y-90520476D01*
X103838095Y-90644285D01*
X103900000Y-90706190D01*
X104023809Y-90768095D01*
X104395238Y-90768095D01*
X104519047Y-90706190D01*
X104580952Y-90644285D01*
X103342857Y-90768095D02*
X102661904Y-89901428D01*
X103342857Y-89901428D02*
X102661904Y-90768095D01*
X102290476Y-89468095D02*
X101485714Y-89468095D01*
X101919047Y-89963333D01*
X101733333Y-89963333D01*
X101609523Y-90025238D01*
X101547619Y-90087142D01*
X101485714Y-90210952D01*
X101485714Y-90520476D01*
X101547619Y-90644285D01*
X101609523Y-90706190D01*
X101733333Y-90768095D01*
X102104761Y-90768095D01*
X102228571Y-90706190D01*
X102290476Y-90644285D01*
X100928571Y-90272857D02*
X99938095Y-90272857D01*
X99319047Y-90768095D02*
X99319047Y-89468095D01*
X98823809Y-89468095D01*
X98700000Y-89530000D01*
X98638095Y-89591904D01*
X98576190Y-89715714D01*
X98576190Y-89901428D01*
X98638095Y-90025238D01*
X98700000Y-90087142D01*
X98823809Y-90149047D01*
X99319047Y-90149047D01*
X97771428Y-89468095D02*
X97647619Y-89468095D01*
X97523809Y-89530000D01*
X97461904Y-89591904D01*
X97400000Y-89715714D01*
X97338095Y-89963333D01*
X97338095Y-90272857D01*
X97400000Y-90520476D01*
X97461904Y-90644285D01*
X97523809Y-90706190D01*
X97647619Y-90768095D01*
X97771428Y-90768095D01*
X97895238Y-90706190D01*
X97957142Y-90644285D01*
X98019047Y-90520476D01*
X98080952Y-90272857D01*
X98080952Y-89963333D01*
X98019047Y-89715714D01*
X97957142Y-89591904D01*
X97895238Y-89530000D01*
X97771428Y-89468095D01*
X96780952Y-90644285D02*
X96719047Y-90706190D01*
X96780952Y-90768095D01*
X96842857Y-90706190D01*
X96780952Y-90644285D01*
X96780952Y-90768095D01*
X95542857Y-89468095D02*
X96161904Y-89468095D01*
X96223809Y-90087142D01*
X96161904Y-90025238D01*
X96038095Y-89963333D01*
X95728571Y-89963333D01*
X95604761Y-90025238D01*
X95542857Y-90087142D01*
X95480952Y-90210952D01*
X95480952Y-90520476D01*
X95542857Y-90644285D01*
X95604761Y-90706190D01*
X95728571Y-90768095D01*
X96038095Y-90768095D01*
X96161904Y-90706190D01*
X96223809Y-90644285D01*
M02*
