%TF.GenerationSoftware,KiCad,Pcbnew,5.1.7-a382d34a8~87~ubuntu20.04.1*%
%TF.CreationDate,2020-11-06T18:29:20+02:00*%
%TF.ProjectId,BRK-MSOP-10-3x3-P0.5,42524b2d-4d53-44f5-902d-31302d337833,v1.0*%
%TF.SameCoordinates,Original*%
%TF.FileFunction,Legend,Top*%
%TF.FilePolarity,Positive*%
%FSLAX46Y46*%
G04 Gerber Fmt 4.6, Leading zero omitted, Abs format (unit mm)*
G04 Created by KiCad (PCBNEW 5.1.7-a382d34a8~87~ubuntu20.04.1) date 2020-11-06 18:29:20*
%MOMM*%
%LPD*%
G01*
G04 APERTURE LIST*
%ADD10C,0.250000*%
%ADD11C,0.150000*%
%ADD12C,0.120000*%
G04 APERTURE END LIST*
D10*
X102871785Y-95508095D02*
X102128928Y-95508095D01*
X102500357Y-95508095D02*
X102500357Y-94208095D01*
X102376547Y-94393809D01*
X102252738Y-94517619D01*
X102128928Y-94579523D01*
X103676547Y-94208095D02*
X103800357Y-94208095D01*
X103924166Y-94270000D01*
X103986071Y-94331904D01*
X104047976Y-94455714D01*
X104109880Y-94703333D01*
X104109880Y-95012857D01*
X104047976Y-95260476D01*
X103986071Y-95384285D01*
X103924166Y-95446190D01*
X103800357Y-95508095D01*
X103676547Y-95508095D01*
X103552738Y-95446190D01*
X103490833Y-95384285D01*
X103428928Y-95260476D01*
X103367023Y-95012857D01*
X103367023Y-94703333D01*
X103428928Y-94455714D01*
X103490833Y-94331904D01*
X103552738Y-94270000D01*
X103676547Y-94208095D01*
X103490833Y-98048095D02*
X103738452Y-98048095D01*
X103862261Y-97986190D01*
X103924166Y-97924285D01*
X104047976Y-97738571D01*
X104109880Y-97490952D01*
X104109880Y-96995714D01*
X104047976Y-96871904D01*
X103986071Y-96810000D01*
X103862261Y-96748095D01*
X103614642Y-96748095D01*
X103490833Y-96810000D01*
X103428928Y-96871904D01*
X103367023Y-96995714D01*
X103367023Y-97305238D01*
X103428928Y-97429047D01*
X103490833Y-97490952D01*
X103614642Y-97552857D01*
X103862261Y-97552857D01*
X103986071Y-97490952D01*
X104047976Y-97429047D01*
X104109880Y-97305238D01*
X103614642Y-99845238D02*
X103490833Y-99783333D01*
X103428928Y-99721428D01*
X103367023Y-99597619D01*
X103367023Y-99535714D01*
X103428928Y-99411904D01*
X103490833Y-99350000D01*
X103614642Y-99288095D01*
X103862261Y-99288095D01*
X103986071Y-99350000D01*
X104047976Y-99411904D01*
X104109880Y-99535714D01*
X104109880Y-99597619D01*
X104047976Y-99721428D01*
X103986071Y-99783333D01*
X103862261Y-99845238D01*
X103614642Y-99845238D01*
X103490833Y-99907142D01*
X103428928Y-99969047D01*
X103367023Y-100092857D01*
X103367023Y-100340476D01*
X103428928Y-100464285D01*
X103490833Y-100526190D01*
X103614642Y-100588095D01*
X103862261Y-100588095D01*
X103986071Y-100526190D01*
X104047976Y-100464285D01*
X104109880Y-100340476D01*
X104109880Y-100092857D01*
X104047976Y-99969047D01*
X103986071Y-99907142D01*
X103862261Y-99845238D01*
X103305119Y-101828095D02*
X104171785Y-101828095D01*
X103614642Y-103128095D01*
X103986071Y-104368095D02*
X103738452Y-104368095D01*
X103614642Y-104430000D01*
X103552738Y-104491904D01*
X103428928Y-104677619D01*
X103367023Y-104925238D01*
X103367023Y-105420476D01*
X103428928Y-105544285D01*
X103490833Y-105606190D01*
X103614642Y-105668095D01*
X103862261Y-105668095D01*
X103986071Y-105606190D01*
X104047976Y-105544285D01*
X104109880Y-105420476D01*
X104109880Y-105110952D01*
X104047976Y-104987142D01*
X103986071Y-104925238D01*
X103862261Y-104863333D01*
X103614642Y-104863333D01*
X103490833Y-104925238D01*
X103428928Y-104987142D01*
X103367023Y-105110952D01*
X96571071Y-104368095D02*
X95952023Y-104368095D01*
X95890119Y-104987142D01*
X95952023Y-104925238D01*
X96075833Y-104863333D01*
X96385357Y-104863333D01*
X96509166Y-104925238D01*
X96571071Y-104987142D01*
X96632976Y-105110952D01*
X96632976Y-105420476D01*
X96571071Y-105544285D01*
X96509166Y-105606190D01*
X96385357Y-105668095D01*
X96075833Y-105668095D01*
X95952023Y-105606190D01*
X95890119Y-105544285D01*
X96509166Y-102261428D02*
X96509166Y-103128095D01*
X96199642Y-101766190D02*
X95890119Y-102694761D01*
X96694880Y-102694761D01*
X95828214Y-99288095D02*
X96632976Y-99288095D01*
X96199642Y-99783333D01*
X96385357Y-99783333D01*
X96509166Y-99845238D01*
X96571071Y-99907142D01*
X96632976Y-100030952D01*
X96632976Y-100340476D01*
X96571071Y-100464285D01*
X96509166Y-100526190D01*
X96385357Y-100588095D01*
X96013928Y-100588095D01*
X95890119Y-100526190D01*
X95828214Y-100464285D01*
X95890119Y-96871904D02*
X95952023Y-96810000D01*
X96075833Y-96748095D01*
X96385357Y-96748095D01*
X96509166Y-96810000D01*
X96571071Y-96871904D01*
X96632976Y-96995714D01*
X96632976Y-97119523D01*
X96571071Y-97305238D01*
X95828214Y-98048095D01*
X96632976Y-98048095D01*
X96632976Y-95508095D02*
X95890119Y-95508095D01*
X96261547Y-95508095D02*
X96261547Y-94208095D01*
X96137738Y-94393809D01*
X96013928Y-94517619D01*
X95890119Y-94579523D01*
D11*
G36*
X107750000Y-91430000D02*
G01*
X92250000Y-91430000D01*
X92250000Y-85430000D01*
X107750000Y-85430000D01*
X107750000Y-91430000D01*
G37*
X107750000Y-91430000D02*
X92250000Y-91430000D01*
X92250000Y-85430000D01*
X107750000Y-85430000D01*
X107750000Y-91430000D01*
D12*
%TO.C,J2*%
X107680000Y-93590000D02*
X105020000Y-93590000D01*
X107680000Y-103810000D02*
X107680000Y-93590000D01*
X105020000Y-103810000D02*
X105020000Y-93590000D01*
X107680000Y-103810000D02*
X105020000Y-103810000D01*
X107680000Y-105080000D02*
X107680000Y-106410000D01*
X107680000Y-106410000D02*
X106350000Y-106410000D01*
%TO.C,J1*%
X92320000Y-106410000D02*
X94980000Y-106410000D01*
X92320000Y-96190000D02*
X92320000Y-106410000D01*
X94980000Y-96190000D02*
X94980000Y-106410000D01*
X92320000Y-96190000D02*
X94980000Y-96190000D01*
X92320000Y-94920000D02*
X92320000Y-93590000D01*
X92320000Y-93590000D02*
X93650000Y-93590000D01*
D11*
%TO.C,U1*%
X98325000Y-98325000D02*
X98325000Y-98550000D01*
X101675000Y-98325000D02*
X101675000Y-98625000D01*
X101675000Y-101675000D02*
X101675000Y-101375000D01*
X98325000Y-101675000D02*
X98325000Y-101375000D01*
X98325000Y-98325000D02*
X101675000Y-98325000D01*
X98325000Y-101675000D02*
X101675000Y-101675000D01*
X98325000Y-98550000D02*
X97100000Y-98550000D01*
%TD*%
M02*
