G04 #@! TF.GenerationSoftware,KiCad,Pcbnew,5.0.1-33cea8e~68~ubuntu18.10.1*
G04 #@! TF.CreationDate,2018-11-26T23:37:03+02:00*
G04 #@! TF.ProjectId,PIC-ICSP-504050,5049432D494353502D3530343035302E,v1.0*
G04 #@! TF.SameCoordinates,Original*
G04 #@! TF.FileFunction,Copper,L1,Top,Signal*
G04 #@! TF.FilePolarity,Positive*
%FSLAX46Y46*%
G04 Gerber Fmt 4.6, Leading zero omitted, Abs format (unit mm)*
G04 Created by KiCad (PCBNEW 5.0.1-33cea8e~68~ubuntu18.10.1) date ma 26. marraskuuta 2018 23.37.03*
%MOMM*%
%LPD*%
G01*
G04 APERTURE LIST*
G04 #@! TA.AperFunction,NonConductor*
%ADD10C,0.150000*%
G04 #@! TD*
G04 #@! TA.AperFunction,SMDPad,CuDef*
%ADD11R,1.000000X0.600000*%
G04 #@! TD*
G04 #@! TA.AperFunction,SMDPad,CuDef*
%ADD12R,1.800000X1.250000*%
G04 #@! TD*
G04 #@! TA.AperFunction,ComponentPad*
%ADD13R,1.700000X1.700000*%
G04 #@! TD*
G04 #@! TA.AperFunction,ComponentPad*
%ADD14O,1.700000X1.700000*%
G04 #@! TD*
G04 #@! TA.AperFunction,Conductor*
%ADD15C,0.600000*%
G04 #@! TD*
G04 #@! TA.AperFunction,Conductor*
%ADD16C,0.254000*%
G04 #@! TD*
G04 APERTURE END LIST*
D10*
X78000000Y-50000000D02*
G75*
G02X80000000Y-52000000I0J-2000000D01*
G01*
X80000000Y-88000000D02*
G75*
G02X78000000Y-90000000I-2000000J0D01*
G01*
X52000000Y-90000000D02*
G75*
G02X50000000Y-88000000I0J2000000D01*
G01*
X50000000Y-52000000D02*
G75*
G02X52000000Y-50000000I2000000J0D01*
G01*
X50000000Y-88000000D02*
X50000000Y-52000000D01*
X52000000Y-90000000D02*
X78000000Y-90000000D01*
X80000000Y-52000000D02*
X80000000Y-88000000D01*
X52000000Y-50000000D02*
X78000000Y-50000000D01*
D11*
G04 #@! TO.P,J1,1*
G04 #@! TO.N,/PGC*
X59095000Y-72900000D03*
G04 #@! TO.P,J1,2*
G04 #@! TO.N,/PGD*
X59095000Y-71400000D03*
G04 #@! TO.P,J1,3*
G04 #@! TO.N,GND*
X59095000Y-69900000D03*
G04 #@! TO.P,J1,4*
G04 #@! TO.N,/VDD*
X59095000Y-68400000D03*
G04 #@! TO.P,J1,5*
G04 #@! TO.N,/VPP*
X59095000Y-66900000D03*
D12*
G04 #@! TO.P,J1,MP*
G04 #@! TO.N,GND*
X53905000Y-75505000D03*
X53905000Y-64295000D03*
G04 #@! TD*
D13*
G04 #@! TO.P,J2,1*
G04 #@! TO.N,/VPP*
X70900000Y-63700000D03*
D14*
G04 #@! TO.P,J2,2*
G04 #@! TO.N,/VDD*
X70900000Y-66240000D03*
G04 #@! TO.P,J2,3*
G04 #@! TO.N,GND*
X70900000Y-68780000D03*
G04 #@! TO.P,J2,4*
G04 #@! TO.N,/PGD*
X70900000Y-71320000D03*
G04 #@! TO.P,J2,5*
G04 #@! TO.N,/PGC*
X70900000Y-73860000D03*
G04 #@! TO.P,J2,6*
G04 #@! TO.N,Net-(J2-Pad6)*
X70900000Y-76400000D03*
G04 #@! TD*
D15*
G04 #@! TO.N,/VPP*
X63395000Y-63700000D02*
X69450000Y-63700000D01*
X69450000Y-63700000D02*
X70900000Y-63700000D01*
X60195000Y-66900000D02*
X63395000Y-63700000D01*
X59095000Y-66900000D02*
X60195000Y-66900000D01*
G04 #@! TO.N,/VDD*
X68360000Y-66240000D02*
X70900000Y-66240000D01*
X59095000Y-68400000D02*
X66200000Y-68400000D01*
X66200000Y-68400000D02*
X68360000Y-66240000D01*
G04 #@! TO.N,/PGD*
X70820000Y-71400000D02*
X70900000Y-71320000D01*
X59095000Y-71400000D02*
X70820000Y-71400000D01*
G04 #@! TO.N,/PGC*
X70890000Y-73850000D02*
X70900000Y-73860000D01*
X67950000Y-73850000D02*
X70890000Y-73850000D01*
X59095000Y-72900000D02*
X67000000Y-72900000D01*
X67000000Y-72900000D02*
X67950000Y-73850000D01*
G04 #@! TD*
D16*
G04 #@! TO.N,GND*
G36*
X78360027Y-50768803D02*
X78691110Y-50919338D01*
X78966639Y-51156749D01*
X79164456Y-51461944D01*
X79275700Y-51833917D01*
X79290000Y-52026348D01*
X79290001Y-87949413D01*
X79231197Y-88360027D01*
X79080661Y-88691112D01*
X78843251Y-88966639D01*
X78538056Y-89164456D01*
X78166083Y-89275700D01*
X77973652Y-89290000D01*
X52050580Y-89290000D01*
X51639973Y-89231197D01*
X51308888Y-89080661D01*
X51033361Y-88843251D01*
X50835544Y-88538056D01*
X50724300Y-88166083D01*
X50710000Y-87973652D01*
X50710000Y-84537131D01*
X52673000Y-84537131D01*
X52673000Y-85462869D01*
X53027264Y-86318140D01*
X53681860Y-86972736D01*
X54537131Y-87327000D01*
X55462869Y-87327000D01*
X56318140Y-86972736D01*
X56972736Y-86318140D01*
X57327000Y-85462869D01*
X57327000Y-84537131D01*
X72673000Y-84537131D01*
X72673000Y-85462869D01*
X73027264Y-86318140D01*
X73681860Y-86972736D01*
X74537131Y-87327000D01*
X75462869Y-87327000D01*
X76318140Y-86972736D01*
X76972736Y-86318140D01*
X77327000Y-85462869D01*
X77327000Y-84537131D01*
X76972736Y-83681860D01*
X76318140Y-83027264D01*
X75462869Y-82673000D01*
X74537131Y-82673000D01*
X73681860Y-83027264D01*
X73027264Y-83681860D01*
X72673000Y-84537131D01*
X57327000Y-84537131D01*
X56972736Y-83681860D01*
X56318140Y-83027264D01*
X55462869Y-82673000D01*
X54537131Y-82673000D01*
X53681860Y-83027264D01*
X53027264Y-83681860D01*
X52673000Y-84537131D01*
X50710000Y-84537131D01*
X50710000Y-75790750D01*
X52370000Y-75790750D01*
X52370000Y-76256309D01*
X52466673Y-76489698D01*
X52645301Y-76668327D01*
X52878690Y-76765000D01*
X53619250Y-76765000D01*
X53778000Y-76606250D01*
X53778000Y-75632000D01*
X54032000Y-75632000D01*
X54032000Y-76606250D01*
X54190750Y-76765000D01*
X54931310Y-76765000D01*
X55164699Y-76668327D01*
X55343327Y-76489698D01*
X55440000Y-76256309D01*
X55440000Y-75790750D01*
X55281250Y-75632000D01*
X54032000Y-75632000D01*
X53778000Y-75632000D01*
X52528750Y-75632000D01*
X52370000Y-75790750D01*
X50710000Y-75790750D01*
X50710000Y-74753691D01*
X52370000Y-74753691D01*
X52370000Y-75219250D01*
X52528750Y-75378000D01*
X53778000Y-75378000D01*
X53778000Y-74403750D01*
X54032000Y-74403750D01*
X54032000Y-75378000D01*
X55281250Y-75378000D01*
X55440000Y-75219250D01*
X55440000Y-74753691D01*
X55343327Y-74520302D01*
X55164699Y-74341673D01*
X54931310Y-74245000D01*
X54190750Y-74245000D01*
X54032000Y-74403750D01*
X53778000Y-74403750D01*
X53619250Y-74245000D01*
X52878690Y-74245000D01*
X52645301Y-74341673D01*
X52466673Y-74520302D01*
X52370000Y-74753691D01*
X50710000Y-74753691D01*
X50710000Y-71100000D01*
X57853758Y-71100000D01*
X57853758Y-71700000D01*
X57910182Y-71983661D01*
X58021326Y-72150000D01*
X57910182Y-72316339D01*
X57853758Y-72600000D01*
X57853758Y-73200000D01*
X57910182Y-73483661D01*
X58070863Y-73724137D01*
X58311339Y-73884818D01*
X58595000Y-73941242D01*
X59595000Y-73941242D01*
X59666599Y-73927000D01*
X66574604Y-73927000D01*
X67152275Y-74504672D01*
X67209574Y-74590426D01*
X67549285Y-74817413D01*
X67848850Y-74877000D01*
X67848851Y-74877000D01*
X67950000Y-74897120D01*
X68051149Y-74877000D01*
X69682897Y-74877000D01*
X69763047Y-74996953D01*
X69962166Y-75130000D01*
X69763047Y-75263047D01*
X69414499Y-75784685D01*
X69292105Y-76400000D01*
X69414499Y-77015315D01*
X69763047Y-77536953D01*
X70284685Y-77885501D01*
X70744681Y-77977000D01*
X71055319Y-77977000D01*
X71515315Y-77885501D01*
X72036953Y-77536953D01*
X72385501Y-77015315D01*
X72507895Y-76400000D01*
X72385501Y-75784685D01*
X72036953Y-75263047D01*
X71837834Y-75130000D01*
X72036953Y-74996953D01*
X72385501Y-74475315D01*
X72507895Y-73860000D01*
X72385501Y-73244685D01*
X72036953Y-72723047D01*
X71837834Y-72590000D01*
X72036953Y-72456953D01*
X72385501Y-71935315D01*
X72507895Y-71320000D01*
X72385501Y-70704685D01*
X72036953Y-70183047D01*
X71748768Y-69990488D01*
X71781358Y-69975183D01*
X72171645Y-69546924D01*
X72341476Y-69136890D01*
X72220155Y-68907000D01*
X71027000Y-68907000D01*
X71027000Y-68927000D01*
X70773000Y-68927000D01*
X70773000Y-68907000D01*
X69579845Y-68907000D01*
X69458524Y-69136890D01*
X69628355Y-69546924D01*
X70018642Y-69975183D01*
X70051232Y-69990488D01*
X69763047Y-70183047D01*
X69636124Y-70373000D01*
X60210660Y-70373000D01*
X60230000Y-70326309D01*
X60230000Y-70185750D01*
X60071250Y-70027000D01*
X59222000Y-70027000D01*
X59222000Y-70047000D01*
X58968000Y-70047000D01*
X58968000Y-70027000D01*
X58118750Y-70027000D01*
X57960000Y-70185750D01*
X57960000Y-70326309D01*
X58056673Y-70559698D01*
X58072047Y-70575072D01*
X58070863Y-70575863D01*
X57910182Y-70816339D01*
X57853758Y-71100000D01*
X50710000Y-71100000D01*
X50710000Y-66600000D01*
X57853758Y-66600000D01*
X57853758Y-67200000D01*
X57910182Y-67483661D01*
X58021326Y-67650000D01*
X57910182Y-67816339D01*
X57853758Y-68100000D01*
X57853758Y-68700000D01*
X57910182Y-68983661D01*
X58070863Y-69224137D01*
X58072047Y-69224928D01*
X58056673Y-69240302D01*
X57960000Y-69473691D01*
X57960000Y-69614250D01*
X58118750Y-69773000D01*
X58968000Y-69773000D01*
X58968000Y-69753000D01*
X59222000Y-69753000D01*
X59222000Y-69773000D01*
X60071250Y-69773000D01*
X60230000Y-69614250D01*
X60230000Y-69473691D01*
X60210660Y-69427000D01*
X66098851Y-69427000D01*
X66200000Y-69447120D01*
X66301149Y-69427000D01*
X66301150Y-69427000D01*
X66600715Y-69367413D01*
X66940426Y-69140426D01*
X66997726Y-69054670D01*
X68785398Y-67267000D01*
X69689579Y-67267000D01*
X69763047Y-67376953D01*
X70051232Y-67569512D01*
X70018642Y-67584817D01*
X69628355Y-68013076D01*
X69458524Y-68423110D01*
X69579845Y-68653000D01*
X70773000Y-68653000D01*
X70773000Y-68633000D01*
X71027000Y-68633000D01*
X71027000Y-68653000D01*
X72220155Y-68653000D01*
X72341476Y-68423110D01*
X72171645Y-68013076D01*
X71781358Y-67584817D01*
X71748768Y-67569512D01*
X72036953Y-67376953D01*
X72385501Y-66855315D01*
X72507895Y-66240000D01*
X72385501Y-65624685D01*
X72096807Y-65192625D01*
X72274137Y-65074137D01*
X72434818Y-64833661D01*
X72491242Y-64550000D01*
X72491242Y-62850000D01*
X72434818Y-62566339D01*
X72274137Y-62325863D01*
X72033661Y-62165182D01*
X71750000Y-62108758D01*
X70050000Y-62108758D01*
X69766339Y-62165182D01*
X69525863Y-62325863D01*
X69365182Y-62566339D01*
X69343966Y-62673000D01*
X63496148Y-62673000D01*
X63394999Y-62652880D01*
X63293850Y-62673000D01*
X62994285Y-62732587D01*
X62994284Y-62732588D01*
X62994283Y-62732588D01*
X62821615Y-62847961D01*
X62654574Y-62959574D01*
X62597277Y-63045325D01*
X59769604Y-65873000D01*
X59666599Y-65873000D01*
X59595000Y-65858758D01*
X58595000Y-65858758D01*
X58311339Y-65915182D01*
X58070863Y-66075863D01*
X57910182Y-66316339D01*
X57853758Y-66600000D01*
X50710000Y-66600000D01*
X50710000Y-64580750D01*
X52370000Y-64580750D01*
X52370000Y-65046309D01*
X52466673Y-65279698D01*
X52645301Y-65458327D01*
X52878690Y-65555000D01*
X53619250Y-65555000D01*
X53778000Y-65396250D01*
X53778000Y-64422000D01*
X54032000Y-64422000D01*
X54032000Y-65396250D01*
X54190750Y-65555000D01*
X54931310Y-65555000D01*
X55164699Y-65458327D01*
X55343327Y-65279698D01*
X55440000Y-65046309D01*
X55440000Y-64580750D01*
X55281250Y-64422000D01*
X54032000Y-64422000D01*
X53778000Y-64422000D01*
X52528750Y-64422000D01*
X52370000Y-64580750D01*
X50710000Y-64580750D01*
X50710000Y-63543691D01*
X52370000Y-63543691D01*
X52370000Y-64009250D01*
X52528750Y-64168000D01*
X53778000Y-64168000D01*
X53778000Y-63193750D01*
X54032000Y-63193750D01*
X54032000Y-64168000D01*
X55281250Y-64168000D01*
X55440000Y-64009250D01*
X55440000Y-63543691D01*
X55343327Y-63310302D01*
X55164699Y-63131673D01*
X54931310Y-63035000D01*
X54190750Y-63035000D01*
X54032000Y-63193750D01*
X53778000Y-63193750D01*
X53619250Y-63035000D01*
X52878690Y-63035000D01*
X52645301Y-63131673D01*
X52466673Y-63310302D01*
X52370000Y-63543691D01*
X50710000Y-63543691D01*
X50710000Y-54537131D01*
X52673000Y-54537131D01*
X52673000Y-55462869D01*
X53027264Y-56318140D01*
X53681860Y-56972736D01*
X54537131Y-57327000D01*
X55462869Y-57327000D01*
X56318140Y-56972736D01*
X56972736Y-56318140D01*
X57327000Y-55462869D01*
X57327000Y-54537131D01*
X72673000Y-54537131D01*
X72673000Y-55462869D01*
X73027264Y-56318140D01*
X73681860Y-56972736D01*
X74537131Y-57327000D01*
X75462869Y-57327000D01*
X76318140Y-56972736D01*
X76972736Y-56318140D01*
X77327000Y-55462869D01*
X77327000Y-54537131D01*
X76972736Y-53681860D01*
X76318140Y-53027264D01*
X75462869Y-52673000D01*
X74537131Y-52673000D01*
X73681860Y-53027264D01*
X73027264Y-53681860D01*
X72673000Y-54537131D01*
X57327000Y-54537131D01*
X56972736Y-53681860D01*
X56318140Y-53027264D01*
X55462869Y-52673000D01*
X54537131Y-52673000D01*
X53681860Y-53027264D01*
X53027264Y-53681860D01*
X52673000Y-54537131D01*
X50710000Y-54537131D01*
X50710000Y-52050580D01*
X50768803Y-51639973D01*
X50919338Y-51308890D01*
X51156749Y-51033361D01*
X51461944Y-50835544D01*
X51833917Y-50724300D01*
X52026348Y-50710000D01*
X77949420Y-50710000D01*
X78360027Y-50768803D01*
X78360027Y-50768803D01*
G37*
X78360027Y-50768803D02*
X78691110Y-50919338D01*
X78966639Y-51156749D01*
X79164456Y-51461944D01*
X79275700Y-51833917D01*
X79290000Y-52026348D01*
X79290001Y-87949413D01*
X79231197Y-88360027D01*
X79080661Y-88691112D01*
X78843251Y-88966639D01*
X78538056Y-89164456D01*
X78166083Y-89275700D01*
X77973652Y-89290000D01*
X52050580Y-89290000D01*
X51639973Y-89231197D01*
X51308888Y-89080661D01*
X51033361Y-88843251D01*
X50835544Y-88538056D01*
X50724300Y-88166083D01*
X50710000Y-87973652D01*
X50710000Y-84537131D01*
X52673000Y-84537131D01*
X52673000Y-85462869D01*
X53027264Y-86318140D01*
X53681860Y-86972736D01*
X54537131Y-87327000D01*
X55462869Y-87327000D01*
X56318140Y-86972736D01*
X56972736Y-86318140D01*
X57327000Y-85462869D01*
X57327000Y-84537131D01*
X72673000Y-84537131D01*
X72673000Y-85462869D01*
X73027264Y-86318140D01*
X73681860Y-86972736D01*
X74537131Y-87327000D01*
X75462869Y-87327000D01*
X76318140Y-86972736D01*
X76972736Y-86318140D01*
X77327000Y-85462869D01*
X77327000Y-84537131D01*
X76972736Y-83681860D01*
X76318140Y-83027264D01*
X75462869Y-82673000D01*
X74537131Y-82673000D01*
X73681860Y-83027264D01*
X73027264Y-83681860D01*
X72673000Y-84537131D01*
X57327000Y-84537131D01*
X56972736Y-83681860D01*
X56318140Y-83027264D01*
X55462869Y-82673000D01*
X54537131Y-82673000D01*
X53681860Y-83027264D01*
X53027264Y-83681860D01*
X52673000Y-84537131D01*
X50710000Y-84537131D01*
X50710000Y-75790750D01*
X52370000Y-75790750D01*
X52370000Y-76256309D01*
X52466673Y-76489698D01*
X52645301Y-76668327D01*
X52878690Y-76765000D01*
X53619250Y-76765000D01*
X53778000Y-76606250D01*
X53778000Y-75632000D01*
X54032000Y-75632000D01*
X54032000Y-76606250D01*
X54190750Y-76765000D01*
X54931310Y-76765000D01*
X55164699Y-76668327D01*
X55343327Y-76489698D01*
X55440000Y-76256309D01*
X55440000Y-75790750D01*
X55281250Y-75632000D01*
X54032000Y-75632000D01*
X53778000Y-75632000D01*
X52528750Y-75632000D01*
X52370000Y-75790750D01*
X50710000Y-75790750D01*
X50710000Y-74753691D01*
X52370000Y-74753691D01*
X52370000Y-75219250D01*
X52528750Y-75378000D01*
X53778000Y-75378000D01*
X53778000Y-74403750D01*
X54032000Y-74403750D01*
X54032000Y-75378000D01*
X55281250Y-75378000D01*
X55440000Y-75219250D01*
X55440000Y-74753691D01*
X55343327Y-74520302D01*
X55164699Y-74341673D01*
X54931310Y-74245000D01*
X54190750Y-74245000D01*
X54032000Y-74403750D01*
X53778000Y-74403750D01*
X53619250Y-74245000D01*
X52878690Y-74245000D01*
X52645301Y-74341673D01*
X52466673Y-74520302D01*
X52370000Y-74753691D01*
X50710000Y-74753691D01*
X50710000Y-71100000D01*
X57853758Y-71100000D01*
X57853758Y-71700000D01*
X57910182Y-71983661D01*
X58021326Y-72150000D01*
X57910182Y-72316339D01*
X57853758Y-72600000D01*
X57853758Y-73200000D01*
X57910182Y-73483661D01*
X58070863Y-73724137D01*
X58311339Y-73884818D01*
X58595000Y-73941242D01*
X59595000Y-73941242D01*
X59666599Y-73927000D01*
X66574604Y-73927000D01*
X67152275Y-74504672D01*
X67209574Y-74590426D01*
X67549285Y-74817413D01*
X67848850Y-74877000D01*
X67848851Y-74877000D01*
X67950000Y-74897120D01*
X68051149Y-74877000D01*
X69682897Y-74877000D01*
X69763047Y-74996953D01*
X69962166Y-75130000D01*
X69763047Y-75263047D01*
X69414499Y-75784685D01*
X69292105Y-76400000D01*
X69414499Y-77015315D01*
X69763047Y-77536953D01*
X70284685Y-77885501D01*
X70744681Y-77977000D01*
X71055319Y-77977000D01*
X71515315Y-77885501D01*
X72036953Y-77536953D01*
X72385501Y-77015315D01*
X72507895Y-76400000D01*
X72385501Y-75784685D01*
X72036953Y-75263047D01*
X71837834Y-75130000D01*
X72036953Y-74996953D01*
X72385501Y-74475315D01*
X72507895Y-73860000D01*
X72385501Y-73244685D01*
X72036953Y-72723047D01*
X71837834Y-72590000D01*
X72036953Y-72456953D01*
X72385501Y-71935315D01*
X72507895Y-71320000D01*
X72385501Y-70704685D01*
X72036953Y-70183047D01*
X71748768Y-69990488D01*
X71781358Y-69975183D01*
X72171645Y-69546924D01*
X72341476Y-69136890D01*
X72220155Y-68907000D01*
X71027000Y-68907000D01*
X71027000Y-68927000D01*
X70773000Y-68927000D01*
X70773000Y-68907000D01*
X69579845Y-68907000D01*
X69458524Y-69136890D01*
X69628355Y-69546924D01*
X70018642Y-69975183D01*
X70051232Y-69990488D01*
X69763047Y-70183047D01*
X69636124Y-70373000D01*
X60210660Y-70373000D01*
X60230000Y-70326309D01*
X60230000Y-70185750D01*
X60071250Y-70027000D01*
X59222000Y-70027000D01*
X59222000Y-70047000D01*
X58968000Y-70047000D01*
X58968000Y-70027000D01*
X58118750Y-70027000D01*
X57960000Y-70185750D01*
X57960000Y-70326309D01*
X58056673Y-70559698D01*
X58072047Y-70575072D01*
X58070863Y-70575863D01*
X57910182Y-70816339D01*
X57853758Y-71100000D01*
X50710000Y-71100000D01*
X50710000Y-66600000D01*
X57853758Y-66600000D01*
X57853758Y-67200000D01*
X57910182Y-67483661D01*
X58021326Y-67650000D01*
X57910182Y-67816339D01*
X57853758Y-68100000D01*
X57853758Y-68700000D01*
X57910182Y-68983661D01*
X58070863Y-69224137D01*
X58072047Y-69224928D01*
X58056673Y-69240302D01*
X57960000Y-69473691D01*
X57960000Y-69614250D01*
X58118750Y-69773000D01*
X58968000Y-69773000D01*
X58968000Y-69753000D01*
X59222000Y-69753000D01*
X59222000Y-69773000D01*
X60071250Y-69773000D01*
X60230000Y-69614250D01*
X60230000Y-69473691D01*
X60210660Y-69427000D01*
X66098851Y-69427000D01*
X66200000Y-69447120D01*
X66301149Y-69427000D01*
X66301150Y-69427000D01*
X66600715Y-69367413D01*
X66940426Y-69140426D01*
X66997726Y-69054670D01*
X68785398Y-67267000D01*
X69689579Y-67267000D01*
X69763047Y-67376953D01*
X70051232Y-67569512D01*
X70018642Y-67584817D01*
X69628355Y-68013076D01*
X69458524Y-68423110D01*
X69579845Y-68653000D01*
X70773000Y-68653000D01*
X70773000Y-68633000D01*
X71027000Y-68633000D01*
X71027000Y-68653000D01*
X72220155Y-68653000D01*
X72341476Y-68423110D01*
X72171645Y-68013076D01*
X71781358Y-67584817D01*
X71748768Y-67569512D01*
X72036953Y-67376953D01*
X72385501Y-66855315D01*
X72507895Y-66240000D01*
X72385501Y-65624685D01*
X72096807Y-65192625D01*
X72274137Y-65074137D01*
X72434818Y-64833661D01*
X72491242Y-64550000D01*
X72491242Y-62850000D01*
X72434818Y-62566339D01*
X72274137Y-62325863D01*
X72033661Y-62165182D01*
X71750000Y-62108758D01*
X70050000Y-62108758D01*
X69766339Y-62165182D01*
X69525863Y-62325863D01*
X69365182Y-62566339D01*
X69343966Y-62673000D01*
X63496148Y-62673000D01*
X63394999Y-62652880D01*
X63293850Y-62673000D01*
X62994285Y-62732587D01*
X62994284Y-62732588D01*
X62994283Y-62732588D01*
X62821615Y-62847961D01*
X62654574Y-62959574D01*
X62597277Y-63045325D01*
X59769604Y-65873000D01*
X59666599Y-65873000D01*
X59595000Y-65858758D01*
X58595000Y-65858758D01*
X58311339Y-65915182D01*
X58070863Y-66075863D01*
X57910182Y-66316339D01*
X57853758Y-66600000D01*
X50710000Y-66600000D01*
X50710000Y-64580750D01*
X52370000Y-64580750D01*
X52370000Y-65046309D01*
X52466673Y-65279698D01*
X52645301Y-65458327D01*
X52878690Y-65555000D01*
X53619250Y-65555000D01*
X53778000Y-65396250D01*
X53778000Y-64422000D01*
X54032000Y-64422000D01*
X54032000Y-65396250D01*
X54190750Y-65555000D01*
X54931310Y-65555000D01*
X55164699Y-65458327D01*
X55343327Y-65279698D01*
X55440000Y-65046309D01*
X55440000Y-64580750D01*
X55281250Y-64422000D01*
X54032000Y-64422000D01*
X53778000Y-64422000D01*
X52528750Y-64422000D01*
X52370000Y-64580750D01*
X50710000Y-64580750D01*
X50710000Y-63543691D01*
X52370000Y-63543691D01*
X52370000Y-64009250D01*
X52528750Y-64168000D01*
X53778000Y-64168000D01*
X53778000Y-63193750D01*
X54032000Y-63193750D01*
X54032000Y-64168000D01*
X55281250Y-64168000D01*
X55440000Y-64009250D01*
X55440000Y-63543691D01*
X55343327Y-63310302D01*
X55164699Y-63131673D01*
X54931310Y-63035000D01*
X54190750Y-63035000D01*
X54032000Y-63193750D01*
X53778000Y-63193750D01*
X53619250Y-63035000D01*
X52878690Y-63035000D01*
X52645301Y-63131673D01*
X52466673Y-63310302D01*
X52370000Y-63543691D01*
X50710000Y-63543691D01*
X50710000Y-54537131D01*
X52673000Y-54537131D01*
X52673000Y-55462869D01*
X53027264Y-56318140D01*
X53681860Y-56972736D01*
X54537131Y-57327000D01*
X55462869Y-57327000D01*
X56318140Y-56972736D01*
X56972736Y-56318140D01*
X57327000Y-55462869D01*
X57327000Y-54537131D01*
X72673000Y-54537131D01*
X72673000Y-55462869D01*
X73027264Y-56318140D01*
X73681860Y-56972736D01*
X74537131Y-57327000D01*
X75462869Y-57327000D01*
X76318140Y-56972736D01*
X76972736Y-56318140D01*
X77327000Y-55462869D01*
X77327000Y-54537131D01*
X76972736Y-53681860D01*
X76318140Y-53027264D01*
X75462869Y-52673000D01*
X74537131Y-52673000D01*
X73681860Y-53027264D01*
X73027264Y-53681860D01*
X72673000Y-54537131D01*
X57327000Y-54537131D01*
X56972736Y-53681860D01*
X56318140Y-53027264D01*
X55462869Y-52673000D01*
X54537131Y-52673000D01*
X53681860Y-53027264D01*
X53027264Y-53681860D01*
X52673000Y-54537131D01*
X50710000Y-54537131D01*
X50710000Y-52050580D01*
X50768803Y-51639973D01*
X50919338Y-51308890D01*
X51156749Y-51033361D01*
X51461944Y-50835544D01*
X51833917Y-50724300D01*
X52026348Y-50710000D01*
X77949420Y-50710000D01*
X78360027Y-50768803D01*
G04 #@! TD*
M02*
