G04 #@! TF.GenerationSoftware,KiCad,Pcbnew,5.1.6-c6e7f7d~86~ubuntu20.04.1*
G04 #@! TF.CreationDate,2020-05-17T01:17:36+03:00*
G04 #@! TF.ProjectId,PIC-ICSP-504050,5049432d-4943-4535-902d-353034303530,v1.0*
G04 #@! TF.SameCoordinates,Original*
G04 #@! TF.FileFunction,Copper,L1,Top*
G04 #@! TF.FilePolarity,Positive*
%FSLAX46Y46*%
G04 Gerber Fmt 4.6, Leading zero omitted, Abs format (unit mm)*
G04 Created by KiCad (PCBNEW 5.1.6-c6e7f7d~86~ubuntu20.04.1) date 2020-05-17 01:17:36*
%MOMM*%
%LPD*%
G01*
G04 APERTURE LIST*
G04 #@! TA.AperFunction,Profile*
%ADD10C,0.150000*%
G04 #@! TD*
G04 #@! TA.AperFunction,SMDPad,CuDef*
%ADD11R,1.000000X0.600000*%
G04 #@! TD*
G04 #@! TA.AperFunction,SMDPad,CuDef*
%ADD12R,1.800000X1.250000*%
G04 #@! TD*
G04 #@! TA.AperFunction,ComponentPad*
%ADD13R,1.700000X1.700000*%
G04 #@! TD*
G04 #@! TA.AperFunction,ComponentPad*
%ADD14O,1.700000X1.700000*%
G04 #@! TD*
G04 #@! TA.AperFunction,Conductor*
%ADD15C,0.600000*%
G04 #@! TD*
G04 #@! TA.AperFunction,Conductor*
%ADD16C,0.254000*%
G04 #@! TD*
G04 APERTURE END LIST*
D10*
X78000000Y-50000000D02*
G75*
G02*
X80000000Y-52000000I0J-2000000D01*
G01*
X80000000Y-88000000D02*
G75*
G02*
X78000000Y-90000000I-2000000J0D01*
G01*
X52000000Y-90000000D02*
G75*
G02*
X50000000Y-88000000I0J2000000D01*
G01*
X50000000Y-52000000D02*
G75*
G02*
X52000000Y-50000000I2000000J0D01*
G01*
X50000000Y-88000000D02*
X50000000Y-52000000D01*
X52000000Y-90000000D02*
X78000000Y-90000000D01*
X80000000Y-52000000D02*
X80000000Y-88000000D01*
X52000000Y-50000000D02*
X78000000Y-50000000D01*
D11*
X59095000Y-72900000D03*
X59095000Y-71400000D03*
X59095000Y-69900000D03*
X59095000Y-68400000D03*
X59095000Y-66900000D03*
D12*
X53905000Y-75505000D03*
X53905000Y-64295000D03*
D13*
X70900000Y-63700000D03*
D14*
X70900000Y-66240000D03*
X70900000Y-68780000D03*
X70900000Y-71320000D03*
X70900000Y-73860000D03*
X70900000Y-76400000D03*
D15*
X63395000Y-63700000D02*
X69450000Y-63700000D01*
X69450000Y-63700000D02*
X70900000Y-63700000D01*
X60195000Y-66900000D02*
X63395000Y-63700000D01*
X59095000Y-66900000D02*
X60195000Y-66900000D01*
X68360000Y-66240000D02*
X70900000Y-66240000D01*
X59095000Y-68400000D02*
X66200000Y-68400000D01*
X66200000Y-68400000D02*
X68360000Y-66240000D01*
X70820000Y-71400000D02*
X70900000Y-71320000D01*
X59095000Y-71400000D02*
X70820000Y-71400000D01*
X70890000Y-73850000D02*
X70900000Y-73860000D01*
X67950000Y-73850000D02*
X70890000Y-73850000D01*
X59095000Y-72900000D02*
X67000000Y-72900000D01*
X67000000Y-72900000D02*
X67950000Y-73850000D01*
D16*
G36*
X78249899Y-50737907D02*
G01*
X78490285Y-50810484D01*
X78711991Y-50928368D01*
X78906577Y-51087068D01*
X79066635Y-51280545D01*
X79186064Y-51501424D01*
X79260317Y-51741297D01*
X79290000Y-52023716D01*
X79290001Y-87965269D01*
X79262093Y-88249899D01*
X79189517Y-88490282D01*
X79071633Y-88711989D01*
X78912929Y-88906580D01*
X78719455Y-89066635D01*
X78498576Y-89186064D01*
X78258701Y-89260317D01*
X77976291Y-89290000D01*
X52034721Y-89290000D01*
X51750101Y-89262093D01*
X51509718Y-89189517D01*
X51288011Y-89071633D01*
X51093420Y-88912929D01*
X50933365Y-88719455D01*
X50813936Y-88498576D01*
X50739683Y-88258701D01*
X50710000Y-87976291D01*
X50710000Y-84770811D01*
X52673000Y-84770811D01*
X52673000Y-85229189D01*
X52762426Y-85678761D01*
X52937840Y-86102248D01*
X53192501Y-86483376D01*
X53516624Y-86807499D01*
X53897752Y-87062160D01*
X54321239Y-87237574D01*
X54770811Y-87327000D01*
X55229189Y-87327000D01*
X55678761Y-87237574D01*
X56102248Y-87062160D01*
X56483376Y-86807499D01*
X56807499Y-86483376D01*
X57062160Y-86102248D01*
X57237574Y-85678761D01*
X57327000Y-85229189D01*
X57327000Y-84770811D01*
X72673000Y-84770811D01*
X72673000Y-85229189D01*
X72762426Y-85678761D01*
X72937840Y-86102248D01*
X73192501Y-86483376D01*
X73516624Y-86807499D01*
X73897752Y-87062160D01*
X74321239Y-87237574D01*
X74770811Y-87327000D01*
X75229189Y-87327000D01*
X75678761Y-87237574D01*
X76102248Y-87062160D01*
X76483376Y-86807499D01*
X76807499Y-86483376D01*
X77062160Y-86102248D01*
X77237574Y-85678761D01*
X77327000Y-85229189D01*
X77327000Y-84770811D01*
X77237574Y-84321239D01*
X77062160Y-83897752D01*
X76807499Y-83516624D01*
X76483376Y-83192501D01*
X76102248Y-82937840D01*
X75678761Y-82762426D01*
X75229189Y-82673000D01*
X74770811Y-82673000D01*
X74321239Y-82762426D01*
X73897752Y-82937840D01*
X73516624Y-83192501D01*
X73192501Y-83516624D01*
X72937840Y-83897752D01*
X72762426Y-84321239D01*
X72673000Y-84770811D01*
X57327000Y-84770811D01*
X57237574Y-84321239D01*
X57062160Y-83897752D01*
X56807499Y-83516624D01*
X56483376Y-83192501D01*
X56102248Y-82937840D01*
X55678761Y-82762426D01*
X55229189Y-82673000D01*
X54770811Y-82673000D01*
X54321239Y-82762426D01*
X53897752Y-82937840D01*
X53516624Y-83192501D01*
X53192501Y-83516624D01*
X52937840Y-83897752D01*
X52762426Y-84321239D01*
X52673000Y-84770811D01*
X50710000Y-84770811D01*
X50710000Y-76130000D01*
X52366928Y-76130000D01*
X52379188Y-76254482D01*
X52415498Y-76374180D01*
X52474463Y-76484494D01*
X52553815Y-76581185D01*
X52650506Y-76660537D01*
X52760820Y-76719502D01*
X52880518Y-76755812D01*
X53005000Y-76768072D01*
X53619250Y-76765000D01*
X53778000Y-76606250D01*
X53778000Y-75632000D01*
X54032000Y-75632000D01*
X54032000Y-76606250D01*
X54190750Y-76765000D01*
X54805000Y-76768072D01*
X54929482Y-76755812D01*
X55049180Y-76719502D01*
X55159494Y-76660537D01*
X55256185Y-76581185D01*
X55335537Y-76484494D01*
X55394502Y-76374180D01*
X55430812Y-76254482D01*
X55443072Y-76130000D01*
X55440000Y-75790750D01*
X55281250Y-75632000D01*
X54032000Y-75632000D01*
X53778000Y-75632000D01*
X52528750Y-75632000D01*
X52370000Y-75790750D01*
X52366928Y-76130000D01*
X50710000Y-76130000D01*
X50710000Y-74880000D01*
X52366928Y-74880000D01*
X52370000Y-75219250D01*
X52528750Y-75378000D01*
X53778000Y-75378000D01*
X53778000Y-74403750D01*
X54032000Y-74403750D01*
X54032000Y-75378000D01*
X55281250Y-75378000D01*
X55440000Y-75219250D01*
X55443072Y-74880000D01*
X55430812Y-74755518D01*
X55394502Y-74635820D01*
X55335537Y-74525506D01*
X55256185Y-74428815D01*
X55159494Y-74349463D01*
X55049180Y-74290498D01*
X54929482Y-74254188D01*
X54805000Y-74241928D01*
X54190750Y-74245000D01*
X54032000Y-74403750D01*
X53778000Y-74403750D01*
X53619250Y-74245000D01*
X53005000Y-74241928D01*
X52880518Y-74254188D01*
X52760820Y-74290498D01*
X52650506Y-74349463D01*
X52553815Y-74428815D01*
X52474463Y-74525506D01*
X52415498Y-74635820D01*
X52379188Y-74755518D01*
X52366928Y-74880000D01*
X50710000Y-74880000D01*
X50710000Y-71100000D01*
X57864483Y-71100000D01*
X57864483Y-71700000D01*
X57878520Y-71842517D01*
X57920090Y-71979557D01*
X57987597Y-72105853D01*
X58023827Y-72150000D01*
X57987597Y-72194147D01*
X57920090Y-72320443D01*
X57878520Y-72457483D01*
X57864483Y-72600000D01*
X57864483Y-73200000D01*
X57878520Y-73342517D01*
X57920090Y-73479557D01*
X57987597Y-73605853D01*
X58078446Y-73716554D01*
X58189147Y-73807403D01*
X58315443Y-73874910D01*
X58452483Y-73916480D01*
X58595000Y-73930517D01*
X59595000Y-73930517D01*
X59630708Y-73927000D01*
X66574604Y-73927000D01*
X67188127Y-74540524D01*
X67220288Y-74579712D01*
X67376669Y-74708051D01*
X67555083Y-74803415D01*
X67689947Y-74844326D01*
X67748672Y-74862140D01*
X67766831Y-74863928D01*
X67899549Y-74877000D01*
X67899556Y-74877000D01*
X67950000Y-74881968D01*
X68000443Y-74877000D01*
X69686785Y-74877000D01*
X69894721Y-75084936D01*
X69962164Y-75130000D01*
X69894721Y-75175064D01*
X69675064Y-75394721D01*
X69502481Y-75653011D01*
X69383604Y-75940006D01*
X69323000Y-76244679D01*
X69323000Y-76555321D01*
X69383604Y-76859994D01*
X69502481Y-77146989D01*
X69675064Y-77405279D01*
X69894721Y-77624936D01*
X70153011Y-77797519D01*
X70440006Y-77916396D01*
X70744679Y-77977000D01*
X71055321Y-77977000D01*
X71359994Y-77916396D01*
X71646989Y-77797519D01*
X71905279Y-77624936D01*
X72124936Y-77405279D01*
X72297519Y-77146989D01*
X72416396Y-76859994D01*
X72477000Y-76555321D01*
X72477000Y-76244679D01*
X72416396Y-75940006D01*
X72297519Y-75653011D01*
X72124936Y-75394721D01*
X71905279Y-75175064D01*
X71837836Y-75130000D01*
X71905279Y-75084936D01*
X72124936Y-74865279D01*
X72297519Y-74606989D01*
X72416396Y-74319994D01*
X72477000Y-74015321D01*
X72477000Y-73704679D01*
X72416396Y-73400006D01*
X72297519Y-73113011D01*
X72124936Y-72854721D01*
X71905279Y-72635064D01*
X71837836Y-72590000D01*
X71905279Y-72544936D01*
X72124936Y-72325279D01*
X72297519Y-72066989D01*
X72416396Y-71779994D01*
X72477000Y-71475321D01*
X72477000Y-71164679D01*
X72416396Y-70860006D01*
X72297519Y-70573011D01*
X72124936Y-70314721D01*
X71905279Y-70095064D01*
X71752014Y-69992656D01*
X71781355Y-69975178D01*
X71997588Y-69780269D01*
X72171641Y-69546920D01*
X72296825Y-69284099D01*
X72341476Y-69136890D01*
X72220155Y-68907000D01*
X71027000Y-68907000D01*
X71027000Y-68927000D01*
X70773000Y-68927000D01*
X70773000Y-68907000D01*
X69579845Y-68907000D01*
X69458524Y-69136890D01*
X69503175Y-69284099D01*
X69628359Y-69546920D01*
X69802412Y-69780269D01*
X70018645Y-69975178D01*
X70047986Y-69992656D01*
X69894721Y-70095064D01*
X69675064Y-70314721D01*
X69636123Y-70373000D01*
X60206094Y-70373000D01*
X60220812Y-70324482D01*
X60233072Y-70200000D01*
X60230000Y-70185750D01*
X60071250Y-70027000D01*
X59222000Y-70027000D01*
X59222000Y-70047000D01*
X58968000Y-70047000D01*
X58968000Y-70027000D01*
X58118750Y-70027000D01*
X57960000Y-70185750D01*
X57956928Y-70200000D01*
X57969188Y-70324482D01*
X58005498Y-70444180D01*
X58064463Y-70554494D01*
X58084288Y-70578651D01*
X58078446Y-70583446D01*
X57987597Y-70694147D01*
X57920090Y-70820443D01*
X57878520Y-70957483D01*
X57864483Y-71100000D01*
X50710000Y-71100000D01*
X50710000Y-66600000D01*
X57864483Y-66600000D01*
X57864483Y-67200000D01*
X57878520Y-67342517D01*
X57920090Y-67479557D01*
X57987597Y-67605853D01*
X58023827Y-67650000D01*
X57987597Y-67694147D01*
X57920090Y-67820443D01*
X57878520Y-67957483D01*
X57864483Y-68100000D01*
X57864483Y-68700000D01*
X57878520Y-68842517D01*
X57920090Y-68979557D01*
X57987597Y-69105853D01*
X58078446Y-69216554D01*
X58084288Y-69221349D01*
X58064463Y-69245506D01*
X58005498Y-69355820D01*
X57969188Y-69475518D01*
X57956928Y-69600000D01*
X57960000Y-69614250D01*
X58118750Y-69773000D01*
X58968000Y-69773000D01*
X58968000Y-69753000D01*
X59222000Y-69753000D01*
X59222000Y-69773000D01*
X60071250Y-69773000D01*
X60230000Y-69614250D01*
X60233072Y-69600000D01*
X60220812Y-69475518D01*
X60206094Y-69427000D01*
X66149559Y-69427000D01*
X66200000Y-69431968D01*
X66250441Y-69427000D01*
X66250451Y-69427000D01*
X66401327Y-69412140D01*
X66594917Y-69353415D01*
X66773331Y-69258051D01*
X66929712Y-69129712D01*
X66961877Y-69090519D01*
X68785397Y-67267000D01*
X69696785Y-67267000D01*
X69894721Y-67464936D01*
X70047986Y-67567344D01*
X70018645Y-67584822D01*
X69802412Y-67779731D01*
X69628359Y-68013080D01*
X69503175Y-68275901D01*
X69458524Y-68423110D01*
X69579845Y-68653000D01*
X70773000Y-68653000D01*
X70773000Y-68633000D01*
X71027000Y-68633000D01*
X71027000Y-68653000D01*
X72220155Y-68653000D01*
X72341476Y-68423110D01*
X72296825Y-68275901D01*
X72171641Y-68013080D01*
X71997588Y-67779731D01*
X71781355Y-67584822D01*
X71752014Y-67567344D01*
X71905279Y-67464936D01*
X72124936Y-67245279D01*
X72297519Y-66986989D01*
X72416396Y-66699994D01*
X72477000Y-66395321D01*
X72477000Y-66084679D01*
X72416396Y-65780006D01*
X72297519Y-65493011D01*
X72124936Y-65234721D01*
X72085319Y-65195104D01*
X72155853Y-65157403D01*
X72266554Y-65066554D01*
X72357403Y-64955853D01*
X72424910Y-64829557D01*
X72466480Y-64692517D01*
X72480517Y-64550000D01*
X72480517Y-62850000D01*
X72466480Y-62707483D01*
X72424910Y-62570443D01*
X72357403Y-62444147D01*
X72266554Y-62333446D01*
X72155853Y-62242597D01*
X72029557Y-62175090D01*
X71892517Y-62133520D01*
X71750000Y-62119483D01*
X70050000Y-62119483D01*
X69907483Y-62133520D01*
X69770443Y-62175090D01*
X69644147Y-62242597D01*
X69533446Y-62333446D01*
X69442597Y-62444147D01*
X69375090Y-62570443D01*
X69343980Y-62673000D01*
X63445440Y-62673000D01*
X63394999Y-62668032D01*
X63344558Y-62673000D01*
X63344549Y-62673000D01*
X63193673Y-62687860D01*
X63000083Y-62746585D01*
X62821669Y-62841949D01*
X62665288Y-62970288D01*
X62633128Y-63009475D01*
X59769604Y-65873000D01*
X59630708Y-65873000D01*
X59595000Y-65869483D01*
X58595000Y-65869483D01*
X58452483Y-65883520D01*
X58315443Y-65925090D01*
X58189147Y-65992597D01*
X58078446Y-66083446D01*
X57987597Y-66194147D01*
X57920090Y-66320443D01*
X57878520Y-66457483D01*
X57864483Y-66600000D01*
X50710000Y-66600000D01*
X50710000Y-64920000D01*
X52366928Y-64920000D01*
X52379188Y-65044482D01*
X52415498Y-65164180D01*
X52474463Y-65274494D01*
X52553815Y-65371185D01*
X52650506Y-65450537D01*
X52760820Y-65509502D01*
X52880518Y-65545812D01*
X53005000Y-65558072D01*
X53619250Y-65555000D01*
X53778000Y-65396250D01*
X53778000Y-64422000D01*
X54032000Y-64422000D01*
X54032000Y-65396250D01*
X54190750Y-65555000D01*
X54805000Y-65558072D01*
X54929482Y-65545812D01*
X55049180Y-65509502D01*
X55159494Y-65450537D01*
X55256185Y-65371185D01*
X55335537Y-65274494D01*
X55394502Y-65164180D01*
X55430812Y-65044482D01*
X55443072Y-64920000D01*
X55440000Y-64580750D01*
X55281250Y-64422000D01*
X54032000Y-64422000D01*
X53778000Y-64422000D01*
X52528750Y-64422000D01*
X52370000Y-64580750D01*
X52366928Y-64920000D01*
X50710000Y-64920000D01*
X50710000Y-63670000D01*
X52366928Y-63670000D01*
X52370000Y-64009250D01*
X52528750Y-64168000D01*
X53778000Y-64168000D01*
X53778000Y-63193750D01*
X54032000Y-63193750D01*
X54032000Y-64168000D01*
X55281250Y-64168000D01*
X55440000Y-64009250D01*
X55443072Y-63670000D01*
X55430812Y-63545518D01*
X55394502Y-63425820D01*
X55335537Y-63315506D01*
X55256185Y-63218815D01*
X55159494Y-63139463D01*
X55049180Y-63080498D01*
X54929482Y-63044188D01*
X54805000Y-63031928D01*
X54190750Y-63035000D01*
X54032000Y-63193750D01*
X53778000Y-63193750D01*
X53619250Y-63035000D01*
X53005000Y-63031928D01*
X52880518Y-63044188D01*
X52760820Y-63080498D01*
X52650506Y-63139463D01*
X52553815Y-63218815D01*
X52474463Y-63315506D01*
X52415498Y-63425820D01*
X52379188Y-63545518D01*
X52366928Y-63670000D01*
X50710000Y-63670000D01*
X50710000Y-54770811D01*
X52673000Y-54770811D01*
X52673000Y-55229189D01*
X52762426Y-55678761D01*
X52937840Y-56102248D01*
X53192501Y-56483376D01*
X53516624Y-56807499D01*
X53897752Y-57062160D01*
X54321239Y-57237574D01*
X54770811Y-57327000D01*
X55229189Y-57327000D01*
X55678761Y-57237574D01*
X56102248Y-57062160D01*
X56483376Y-56807499D01*
X56807499Y-56483376D01*
X57062160Y-56102248D01*
X57237574Y-55678761D01*
X57327000Y-55229189D01*
X57327000Y-54770811D01*
X72673000Y-54770811D01*
X72673000Y-55229189D01*
X72762426Y-55678761D01*
X72937840Y-56102248D01*
X73192501Y-56483376D01*
X73516624Y-56807499D01*
X73897752Y-57062160D01*
X74321239Y-57237574D01*
X74770811Y-57327000D01*
X75229189Y-57327000D01*
X75678761Y-57237574D01*
X76102248Y-57062160D01*
X76483376Y-56807499D01*
X76807499Y-56483376D01*
X77062160Y-56102248D01*
X77237574Y-55678761D01*
X77327000Y-55229189D01*
X77327000Y-54770811D01*
X77237574Y-54321239D01*
X77062160Y-53897752D01*
X76807499Y-53516624D01*
X76483376Y-53192501D01*
X76102248Y-52937840D01*
X75678761Y-52762426D01*
X75229189Y-52673000D01*
X74770811Y-52673000D01*
X74321239Y-52762426D01*
X73897752Y-52937840D01*
X73516624Y-53192501D01*
X73192501Y-53516624D01*
X72937840Y-53897752D01*
X72762426Y-54321239D01*
X72673000Y-54770811D01*
X57327000Y-54770811D01*
X57237574Y-54321239D01*
X57062160Y-53897752D01*
X56807499Y-53516624D01*
X56483376Y-53192501D01*
X56102248Y-52937840D01*
X55678761Y-52762426D01*
X55229189Y-52673000D01*
X54770811Y-52673000D01*
X54321239Y-52762426D01*
X53897752Y-52937840D01*
X53516624Y-53192501D01*
X53192501Y-53516624D01*
X52937840Y-53897752D01*
X52762426Y-54321239D01*
X52673000Y-54770811D01*
X50710000Y-54770811D01*
X50710000Y-52034721D01*
X50737907Y-51750101D01*
X50810484Y-51509715D01*
X50928368Y-51288009D01*
X51087068Y-51093423D01*
X51280545Y-50933365D01*
X51501424Y-50813936D01*
X51741297Y-50739683D01*
X52023716Y-50710000D01*
X77965279Y-50710000D01*
X78249899Y-50737907D01*
G37*
X78249899Y-50737907D02*
X78490285Y-50810484D01*
X78711991Y-50928368D01*
X78906577Y-51087068D01*
X79066635Y-51280545D01*
X79186064Y-51501424D01*
X79260317Y-51741297D01*
X79290000Y-52023716D01*
X79290001Y-87965269D01*
X79262093Y-88249899D01*
X79189517Y-88490282D01*
X79071633Y-88711989D01*
X78912929Y-88906580D01*
X78719455Y-89066635D01*
X78498576Y-89186064D01*
X78258701Y-89260317D01*
X77976291Y-89290000D01*
X52034721Y-89290000D01*
X51750101Y-89262093D01*
X51509718Y-89189517D01*
X51288011Y-89071633D01*
X51093420Y-88912929D01*
X50933365Y-88719455D01*
X50813936Y-88498576D01*
X50739683Y-88258701D01*
X50710000Y-87976291D01*
X50710000Y-84770811D01*
X52673000Y-84770811D01*
X52673000Y-85229189D01*
X52762426Y-85678761D01*
X52937840Y-86102248D01*
X53192501Y-86483376D01*
X53516624Y-86807499D01*
X53897752Y-87062160D01*
X54321239Y-87237574D01*
X54770811Y-87327000D01*
X55229189Y-87327000D01*
X55678761Y-87237574D01*
X56102248Y-87062160D01*
X56483376Y-86807499D01*
X56807499Y-86483376D01*
X57062160Y-86102248D01*
X57237574Y-85678761D01*
X57327000Y-85229189D01*
X57327000Y-84770811D01*
X72673000Y-84770811D01*
X72673000Y-85229189D01*
X72762426Y-85678761D01*
X72937840Y-86102248D01*
X73192501Y-86483376D01*
X73516624Y-86807499D01*
X73897752Y-87062160D01*
X74321239Y-87237574D01*
X74770811Y-87327000D01*
X75229189Y-87327000D01*
X75678761Y-87237574D01*
X76102248Y-87062160D01*
X76483376Y-86807499D01*
X76807499Y-86483376D01*
X77062160Y-86102248D01*
X77237574Y-85678761D01*
X77327000Y-85229189D01*
X77327000Y-84770811D01*
X77237574Y-84321239D01*
X77062160Y-83897752D01*
X76807499Y-83516624D01*
X76483376Y-83192501D01*
X76102248Y-82937840D01*
X75678761Y-82762426D01*
X75229189Y-82673000D01*
X74770811Y-82673000D01*
X74321239Y-82762426D01*
X73897752Y-82937840D01*
X73516624Y-83192501D01*
X73192501Y-83516624D01*
X72937840Y-83897752D01*
X72762426Y-84321239D01*
X72673000Y-84770811D01*
X57327000Y-84770811D01*
X57237574Y-84321239D01*
X57062160Y-83897752D01*
X56807499Y-83516624D01*
X56483376Y-83192501D01*
X56102248Y-82937840D01*
X55678761Y-82762426D01*
X55229189Y-82673000D01*
X54770811Y-82673000D01*
X54321239Y-82762426D01*
X53897752Y-82937840D01*
X53516624Y-83192501D01*
X53192501Y-83516624D01*
X52937840Y-83897752D01*
X52762426Y-84321239D01*
X52673000Y-84770811D01*
X50710000Y-84770811D01*
X50710000Y-76130000D01*
X52366928Y-76130000D01*
X52379188Y-76254482D01*
X52415498Y-76374180D01*
X52474463Y-76484494D01*
X52553815Y-76581185D01*
X52650506Y-76660537D01*
X52760820Y-76719502D01*
X52880518Y-76755812D01*
X53005000Y-76768072D01*
X53619250Y-76765000D01*
X53778000Y-76606250D01*
X53778000Y-75632000D01*
X54032000Y-75632000D01*
X54032000Y-76606250D01*
X54190750Y-76765000D01*
X54805000Y-76768072D01*
X54929482Y-76755812D01*
X55049180Y-76719502D01*
X55159494Y-76660537D01*
X55256185Y-76581185D01*
X55335537Y-76484494D01*
X55394502Y-76374180D01*
X55430812Y-76254482D01*
X55443072Y-76130000D01*
X55440000Y-75790750D01*
X55281250Y-75632000D01*
X54032000Y-75632000D01*
X53778000Y-75632000D01*
X52528750Y-75632000D01*
X52370000Y-75790750D01*
X52366928Y-76130000D01*
X50710000Y-76130000D01*
X50710000Y-74880000D01*
X52366928Y-74880000D01*
X52370000Y-75219250D01*
X52528750Y-75378000D01*
X53778000Y-75378000D01*
X53778000Y-74403750D01*
X54032000Y-74403750D01*
X54032000Y-75378000D01*
X55281250Y-75378000D01*
X55440000Y-75219250D01*
X55443072Y-74880000D01*
X55430812Y-74755518D01*
X55394502Y-74635820D01*
X55335537Y-74525506D01*
X55256185Y-74428815D01*
X55159494Y-74349463D01*
X55049180Y-74290498D01*
X54929482Y-74254188D01*
X54805000Y-74241928D01*
X54190750Y-74245000D01*
X54032000Y-74403750D01*
X53778000Y-74403750D01*
X53619250Y-74245000D01*
X53005000Y-74241928D01*
X52880518Y-74254188D01*
X52760820Y-74290498D01*
X52650506Y-74349463D01*
X52553815Y-74428815D01*
X52474463Y-74525506D01*
X52415498Y-74635820D01*
X52379188Y-74755518D01*
X52366928Y-74880000D01*
X50710000Y-74880000D01*
X50710000Y-71100000D01*
X57864483Y-71100000D01*
X57864483Y-71700000D01*
X57878520Y-71842517D01*
X57920090Y-71979557D01*
X57987597Y-72105853D01*
X58023827Y-72150000D01*
X57987597Y-72194147D01*
X57920090Y-72320443D01*
X57878520Y-72457483D01*
X57864483Y-72600000D01*
X57864483Y-73200000D01*
X57878520Y-73342517D01*
X57920090Y-73479557D01*
X57987597Y-73605853D01*
X58078446Y-73716554D01*
X58189147Y-73807403D01*
X58315443Y-73874910D01*
X58452483Y-73916480D01*
X58595000Y-73930517D01*
X59595000Y-73930517D01*
X59630708Y-73927000D01*
X66574604Y-73927000D01*
X67188127Y-74540524D01*
X67220288Y-74579712D01*
X67376669Y-74708051D01*
X67555083Y-74803415D01*
X67689947Y-74844326D01*
X67748672Y-74862140D01*
X67766831Y-74863928D01*
X67899549Y-74877000D01*
X67899556Y-74877000D01*
X67950000Y-74881968D01*
X68000443Y-74877000D01*
X69686785Y-74877000D01*
X69894721Y-75084936D01*
X69962164Y-75130000D01*
X69894721Y-75175064D01*
X69675064Y-75394721D01*
X69502481Y-75653011D01*
X69383604Y-75940006D01*
X69323000Y-76244679D01*
X69323000Y-76555321D01*
X69383604Y-76859994D01*
X69502481Y-77146989D01*
X69675064Y-77405279D01*
X69894721Y-77624936D01*
X70153011Y-77797519D01*
X70440006Y-77916396D01*
X70744679Y-77977000D01*
X71055321Y-77977000D01*
X71359994Y-77916396D01*
X71646989Y-77797519D01*
X71905279Y-77624936D01*
X72124936Y-77405279D01*
X72297519Y-77146989D01*
X72416396Y-76859994D01*
X72477000Y-76555321D01*
X72477000Y-76244679D01*
X72416396Y-75940006D01*
X72297519Y-75653011D01*
X72124936Y-75394721D01*
X71905279Y-75175064D01*
X71837836Y-75130000D01*
X71905279Y-75084936D01*
X72124936Y-74865279D01*
X72297519Y-74606989D01*
X72416396Y-74319994D01*
X72477000Y-74015321D01*
X72477000Y-73704679D01*
X72416396Y-73400006D01*
X72297519Y-73113011D01*
X72124936Y-72854721D01*
X71905279Y-72635064D01*
X71837836Y-72590000D01*
X71905279Y-72544936D01*
X72124936Y-72325279D01*
X72297519Y-72066989D01*
X72416396Y-71779994D01*
X72477000Y-71475321D01*
X72477000Y-71164679D01*
X72416396Y-70860006D01*
X72297519Y-70573011D01*
X72124936Y-70314721D01*
X71905279Y-70095064D01*
X71752014Y-69992656D01*
X71781355Y-69975178D01*
X71997588Y-69780269D01*
X72171641Y-69546920D01*
X72296825Y-69284099D01*
X72341476Y-69136890D01*
X72220155Y-68907000D01*
X71027000Y-68907000D01*
X71027000Y-68927000D01*
X70773000Y-68927000D01*
X70773000Y-68907000D01*
X69579845Y-68907000D01*
X69458524Y-69136890D01*
X69503175Y-69284099D01*
X69628359Y-69546920D01*
X69802412Y-69780269D01*
X70018645Y-69975178D01*
X70047986Y-69992656D01*
X69894721Y-70095064D01*
X69675064Y-70314721D01*
X69636123Y-70373000D01*
X60206094Y-70373000D01*
X60220812Y-70324482D01*
X60233072Y-70200000D01*
X60230000Y-70185750D01*
X60071250Y-70027000D01*
X59222000Y-70027000D01*
X59222000Y-70047000D01*
X58968000Y-70047000D01*
X58968000Y-70027000D01*
X58118750Y-70027000D01*
X57960000Y-70185750D01*
X57956928Y-70200000D01*
X57969188Y-70324482D01*
X58005498Y-70444180D01*
X58064463Y-70554494D01*
X58084288Y-70578651D01*
X58078446Y-70583446D01*
X57987597Y-70694147D01*
X57920090Y-70820443D01*
X57878520Y-70957483D01*
X57864483Y-71100000D01*
X50710000Y-71100000D01*
X50710000Y-66600000D01*
X57864483Y-66600000D01*
X57864483Y-67200000D01*
X57878520Y-67342517D01*
X57920090Y-67479557D01*
X57987597Y-67605853D01*
X58023827Y-67650000D01*
X57987597Y-67694147D01*
X57920090Y-67820443D01*
X57878520Y-67957483D01*
X57864483Y-68100000D01*
X57864483Y-68700000D01*
X57878520Y-68842517D01*
X57920090Y-68979557D01*
X57987597Y-69105853D01*
X58078446Y-69216554D01*
X58084288Y-69221349D01*
X58064463Y-69245506D01*
X58005498Y-69355820D01*
X57969188Y-69475518D01*
X57956928Y-69600000D01*
X57960000Y-69614250D01*
X58118750Y-69773000D01*
X58968000Y-69773000D01*
X58968000Y-69753000D01*
X59222000Y-69753000D01*
X59222000Y-69773000D01*
X60071250Y-69773000D01*
X60230000Y-69614250D01*
X60233072Y-69600000D01*
X60220812Y-69475518D01*
X60206094Y-69427000D01*
X66149559Y-69427000D01*
X66200000Y-69431968D01*
X66250441Y-69427000D01*
X66250451Y-69427000D01*
X66401327Y-69412140D01*
X66594917Y-69353415D01*
X66773331Y-69258051D01*
X66929712Y-69129712D01*
X66961877Y-69090519D01*
X68785397Y-67267000D01*
X69696785Y-67267000D01*
X69894721Y-67464936D01*
X70047986Y-67567344D01*
X70018645Y-67584822D01*
X69802412Y-67779731D01*
X69628359Y-68013080D01*
X69503175Y-68275901D01*
X69458524Y-68423110D01*
X69579845Y-68653000D01*
X70773000Y-68653000D01*
X70773000Y-68633000D01*
X71027000Y-68633000D01*
X71027000Y-68653000D01*
X72220155Y-68653000D01*
X72341476Y-68423110D01*
X72296825Y-68275901D01*
X72171641Y-68013080D01*
X71997588Y-67779731D01*
X71781355Y-67584822D01*
X71752014Y-67567344D01*
X71905279Y-67464936D01*
X72124936Y-67245279D01*
X72297519Y-66986989D01*
X72416396Y-66699994D01*
X72477000Y-66395321D01*
X72477000Y-66084679D01*
X72416396Y-65780006D01*
X72297519Y-65493011D01*
X72124936Y-65234721D01*
X72085319Y-65195104D01*
X72155853Y-65157403D01*
X72266554Y-65066554D01*
X72357403Y-64955853D01*
X72424910Y-64829557D01*
X72466480Y-64692517D01*
X72480517Y-64550000D01*
X72480517Y-62850000D01*
X72466480Y-62707483D01*
X72424910Y-62570443D01*
X72357403Y-62444147D01*
X72266554Y-62333446D01*
X72155853Y-62242597D01*
X72029557Y-62175090D01*
X71892517Y-62133520D01*
X71750000Y-62119483D01*
X70050000Y-62119483D01*
X69907483Y-62133520D01*
X69770443Y-62175090D01*
X69644147Y-62242597D01*
X69533446Y-62333446D01*
X69442597Y-62444147D01*
X69375090Y-62570443D01*
X69343980Y-62673000D01*
X63445440Y-62673000D01*
X63394999Y-62668032D01*
X63344558Y-62673000D01*
X63344549Y-62673000D01*
X63193673Y-62687860D01*
X63000083Y-62746585D01*
X62821669Y-62841949D01*
X62665288Y-62970288D01*
X62633128Y-63009475D01*
X59769604Y-65873000D01*
X59630708Y-65873000D01*
X59595000Y-65869483D01*
X58595000Y-65869483D01*
X58452483Y-65883520D01*
X58315443Y-65925090D01*
X58189147Y-65992597D01*
X58078446Y-66083446D01*
X57987597Y-66194147D01*
X57920090Y-66320443D01*
X57878520Y-66457483D01*
X57864483Y-66600000D01*
X50710000Y-66600000D01*
X50710000Y-64920000D01*
X52366928Y-64920000D01*
X52379188Y-65044482D01*
X52415498Y-65164180D01*
X52474463Y-65274494D01*
X52553815Y-65371185D01*
X52650506Y-65450537D01*
X52760820Y-65509502D01*
X52880518Y-65545812D01*
X53005000Y-65558072D01*
X53619250Y-65555000D01*
X53778000Y-65396250D01*
X53778000Y-64422000D01*
X54032000Y-64422000D01*
X54032000Y-65396250D01*
X54190750Y-65555000D01*
X54805000Y-65558072D01*
X54929482Y-65545812D01*
X55049180Y-65509502D01*
X55159494Y-65450537D01*
X55256185Y-65371185D01*
X55335537Y-65274494D01*
X55394502Y-65164180D01*
X55430812Y-65044482D01*
X55443072Y-64920000D01*
X55440000Y-64580750D01*
X55281250Y-64422000D01*
X54032000Y-64422000D01*
X53778000Y-64422000D01*
X52528750Y-64422000D01*
X52370000Y-64580750D01*
X52366928Y-64920000D01*
X50710000Y-64920000D01*
X50710000Y-63670000D01*
X52366928Y-63670000D01*
X52370000Y-64009250D01*
X52528750Y-64168000D01*
X53778000Y-64168000D01*
X53778000Y-63193750D01*
X54032000Y-63193750D01*
X54032000Y-64168000D01*
X55281250Y-64168000D01*
X55440000Y-64009250D01*
X55443072Y-63670000D01*
X55430812Y-63545518D01*
X55394502Y-63425820D01*
X55335537Y-63315506D01*
X55256185Y-63218815D01*
X55159494Y-63139463D01*
X55049180Y-63080498D01*
X54929482Y-63044188D01*
X54805000Y-63031928D01*
X54190750Y-63035000D01*
X54032000Y-63193750D01*
X53778000Y-63193750D01*
X53619250Y-63035000D01*
X53005000Y-63031928D01*
X52880518Y-63044188D01*
X52760820Y-63080498D01*
X52650506Y-63139463D01*
X52553815Y-63218815D01*
X52474463Y-63315506D01*
X52415498Y-63425820D01*
X52379188Y-63545518D01*
X52366928Y-63670000D01*
X50710000Y-63670000D01*
X50710000Y-54770811D01*
X52673000Y-54770811D01*
X52673000Y-55229189D01*
X52762426Y-55678761D01*
X52937840Y-56102248D01*
X53192501Y-56483376D01*
X53516624Y-56807499D01*
X53897752Y-57062160D01*
X54321239Y-57237574D01*
X54770811Y-57327000D01*
X55229189Y-57327000D01*
X55678761Y-57237574D01*
X56102248Y-57062160D01*
X56483376Y-56807499D01*
X56807499Y-56483376D01*
X57062160Y-56102248D01*
X57237574Y-55678761D01*
X57327000Y-55229189D01*
X57327000Y-54770811D01*
X72673000Y-54770811D01*
X72673000Y-55229189D01*
X72762426Y-55678761D01*
X72937840Y-56102248D01*
X73192501Y-56483376D01*
X73516624Y-56807499D01*
X73897752Y-57062160D01*
X74321239Y-57237574D01*
X74770811Y-57327000D01*
X75229189Y-57327000D01*
X75678761Y-57237574D01*
X76102248Y-57062160D01*
X76483376Y-56807499D01*
X76807499Y-56483376D01*
X77062160Y-56102248D01*
X77237574Y-55678761D01*
X77327000Y-55229189D01*
X77327000Y-54770811D01*
X77237574Y-54321239D01*
X77062160Y-53897752D01*
X76807499Y-53516624D01*
X76483376Y-53192501D01*
X76102248Y-52937840D01*
X75678761Y-52762426D01*
X75229189Y-52673000D01*
X74770811Y-52673000D01*
X74321239Y-52762426D01*
X73897752Y-52937840D01*
X73516624Y-53192501D01*
X73192501Y-53516624D01*
X72937840Y-53897752D01*
X72762426Y-54321239D01*
X72673000Y-54770811D01*
X57327000Y-54770811D01*
X57237574Y-54321239D01*
X57062160Y-53897752D01*
X56807499Y-53516624D01*
X56483376Y-53192501D01*
X56102248Y-52937840D01*
X55678761Y-52762426D01*
X55229189Y-52673000D01*
X54770811Y-52673000D01*
X54321239Y-52762426D01*
X53897752Y-52937840D01*
X53516624Y-53192501D01*
X53192501Y-53516624D01*
X52937840Y-53897752D01*
X52762426Y-54321239D01*
X52673000Y-54770811D01*
X50710000Y-54770811D01*
X50710000Y-52034721D01*
X50737907Y-51750101D01*
X50810484Y-51509715D01*
X50928368Y-51288009D01*
X51087068Y-51093423D01*
X51280545Y-50933365D01*
X51501424Y-50813936D01*
X51741297Y-50739683D01*
X52023716Y-50710000D01*
X77965279Y-50710000D01*
X78249899Y-50737907D01*
M02*
