G04 #@! TF.GenerationSoftware,KiCad,Pcbnew,5.0.1-33cea8e~68~ubuntu18.04.1*
G04 #@! TF.CreationDate,2018-10-27T22:05:16+03:00*
G04 #@! TF.ProjectId,PIC-ICSP-504050,5049432D494353502D3530343035302E,v1.0*
G04 #@! TF.SameCoordinates,Original*
G04 #@! TF.FileFunction,Soldermask,Bot*
G04 #@! TF.FilePolarity,Negative*
%FSLAX46Y46*%
G04 Gerber Fmt 4.6, Leading zero omitted, Abs format (unit mm)*
G04 Created by KiCad (PCBNEW 5.0.1-33cea8e~68~ubuntu18.04.1) date la 27. lokakuuta 2018 22.05.16*
%MOMM*%
%LPD*%
G01*
G04 APERTURE LIST*
%ADD10C,0.150000*%
%ADD11C,0.100000*%
G04 APERTURE END LIST*
D10*
X50000000Y-90000000D02*
X50000000Y-50000000D01*
X50000000Y-90000000D02*
X80000000Y-90000000D01*
X80000000Y-50000000D02*
X80000000Y-90000000D01*
X50000000Y-50000000D02*
X80000000Y-50000000D01*
D11*
G36*
X55525041Y-83269173D02*
X55852620Y-83404861D01*
X56147433Y-83601849D01*
X56398151Y-83852567D01*
X56595139Y-84147380D01*
X56730827Y-84474959D01*
X56800000Y-84822716D01*
X56800000Y-85177284D01*
X56730827Y-85525041D01*
X56595139Y-85852620D01*
X56398151Y-86147433D01*
X56147433Y-86398151D01*
X55852620Y-86595139D01*
X55525041Y-86730827D01*
X55177284Y-86800000D01*
X54822716Y-86800000D01*
X54474959Y-86730827D01*
X54147380Y-86595139D01*
X53852567Y-86398151D01*
X53601849Y-86147433D01*
X53404861Y-85852620D01*
X53269173Y-85525041D01*
X53200000Y-85177284D01*
X53200000Y-84822716D01*
X53269173Y-84474959D01*
X53404861Y-84147380D01*
X53601849Y-83852567D01*
X53852567Y-83601849D01*
X54147380Y-83404861D01*
X54474959Y-83269173D01*
X54822716Y-83200000D01*
X55177284Y-83200000D01*
X55525041Y-83269173D01*
X55525041Y-83269173D01*
G37*
G36*
X75525041Y-83269173D02*
X75852620Y-83404861D01*
X76147433Y-83601849D01*
X76398151Y-83852567D01*
X76595139Y-84147380D01*
X76730827Y-84474959D01*
X76800000Y-84822716D01*
X76800000Y-85177284D01*
X76730827Y-85525041D01*
X76595139Y-85852620D01*
X76398151Y-86147433D01*
X76147433Y-86398151D01*
X75852620Y-86595139D01*
X75525041Y-86730827D01*
X75177284Y-86800000D01*
X74822716Y-86800000D01*
X74474959Y-86730827D01*
X74147380Y-86595139D01*
X73852567Y-86398151D01*
X73601849Y-86147433D01*
X73404861Y-85852620D01*
X73269173Y-85525041D01*
X73200000Y-85177284D01*
X73200000Y-84822716D01*
X73269173Y-84474959D01*
X73404861Y-84147380D01*
X73601849Y-83852567D01*
X73852567Y-83601849D01*
X74147380Y-83404861D01*
X74474959Y-83269173D01*
X74822716Y-83200000D01*
X75177284Y-83200000D01*
X75525041Y-83269173D01*
X75525041Y-83269173D01*
G37*
G36*
X71067272Y-75361395D02*
X71105836Y-75365193D01*
X71303762Y-75425233D01*
X71486171Y-75522733D01*
X71646054Y-75653946D01*
X71777267Y-75813829D01*
X71874767Y-75996238D01*
X71934807Y-76194164D01*
X71934807Y-76194166D01*
X71955081Y-76400000D01*
X71938143Y-76571961D01*
X71934807Y-76605836D01*
X71874767Y-76803762D01*
X71777267Y-76986171D01*
X71646054Y-77146054D01*
X71486171Y-77277267D01*
X71303762Y-77374767D01*
X71105836Y-77434807D01*
X71067271Y-77438605D01*
X70951584Y-77450000D01*
X70848416Y-77450000D01*
X70732729Y-77438605D01*
X70694164Y-77434807D01*
X70496238Y-77374767D01*
X70313829Y-77277267D01*
X70153946Y-77146054D01*
X70022733Y-76986171D01*
X69925233Y-76803762D01*
X69865193Y-76605836D01*
X69861857Y-76571961D01*
X69844919Y-76400000D01*
X69865193Y-76194166D01*
X69865193Y-76194164D01*
X69925233Y-75996238D01*
X70022733Y-75813829D01*
X70153946Y-75653946D01*
X70313829Y-75522733D01*
X70496238Y-75425233D01*
X70694164Y-75365193D01*
X70732728Y-75361395D01*
X70848416Y-75350000D01*
X70951584Y-75350000D01*
X71067272Y-75361395D01*
X71067272Y-75361395D01*
G37*
G36*
X71067272Y-72821395D02*
X71105836Y-72825193D01*
X71303762Y-72885233D01*
X71486171Y-72982733D01*
X71646054Y-73113946D01*
X71777267Y-73273829D01*
X71874767Y-73456238D01*
X71934807Y-73654164D01*
X71934807Y-73654166D01*
X71955081Y-73860000D01*
X71938143Y-74031961D01*
X71934807Y-74065836D01*
X71874767Y-74263762D01*
X71777267Y-74446171D01*
X71646054Y-74606054D01*
X71486171Y-74737267D01*
X71303762Y-74834767D01*
X71105836Y-74894807D01*
X71067271Y-74898605D01*
X70951584Y-74910000D01*
X70848416Y-74910000D01*
X70732729Y-74898605D01*
X70694164Y-74894807D01*
X70496238Y-74834767D01*
X70313829Y-74737267D01*
X70153946Y-74606054D01*
X70022733Y-74446171D01*
X69925233Y-74263762D01*
X69865193Y-74065836D01*
X69861857Y-74031961D01*
X69844919Y-73860000D01*
X69865193Y-73654166D01*
X69865193Y-73654164D01*
X69925233Y-73456238D01*
X70022733Y-73273829D01*
X70153946Y-73113946D01*
X70313829Y-72982733D01*
X70496238Y-72885233D01*
X70694164Y-72825193D01*
X70732728Y-72821395D01*
X70848416Y-72810000D01*
X70951584Y-72810000D01*
X71067272Y-72821395D01*
X71067272Y-72821395D01*
G37*
G36*
X71067271Y-70281395D02*
X71105836Y-70285193D01*
X71303762Y-70345233D01*
X71486171Y-70442733D01*
X71646054Y-70573946D01*
X71777267Y-70733829D01*
X71874767Y-70916238D01*
X71934807Y-71114164D01*
X71934807Y-71114166D01*
X71955081Y-71320000D01*
X71938143Y-71491961D01*
X71934807Y-71525836D01*
X71874767Y-71723762D01*
X71777267Y-71906171D01*
X71646054Y-72066054D01*
X71486171Y-72197267D01*
X71303762Y-72294767D01*
X71105836Y-72354807D01*
X71067271Y-72358605D01*
X70951584Y-72370000D01*
X70848416Y-72370000D01*
X70732729Y-72358605D01*
X70694164Y-72354807D01*
X70496238Y-72294767D01*
X70313829Y-72197267D01*
X70153946Y-72066054D01*
X70022733Y-71906171D01*
X69925233Y-71723762D01*
X69865193Y-71525836D01*
X69861857Y-71491961D01*
X69844919Y-71320000D01*
X69865193Y-71114166D01*
X69865193Y-71114164D01*
X69925233Y-70916238D01*
X70022733Y-70733829D01*
X70153946Y-70573946D01*
X70313829Y-70442733D01*
X70496238Y-70345233D01*
X70694164Y-70285193D01*
X70732729Y-70281395D01*
X70848416Y-70270000D01*
X70951584Y-70270000D01*
X71067271Y-70281395D01*
X71067271Y-70281395D01*
G37*
G36*
X71067271Y-67741395D02*
X71105836Y-67745193D01*
X71303762Y-67805233D01*
X71486171Y-67902733D01*
X71646054Y-68033946D01*
X71777267Y-68193829D01*
X71874767Y-68376238D01*
X71934807Y-68574164D01*
X71934807Y-68574166D01*
X71955081Y-68780000D01*
X71938143Y-68951961D01*
X71934807Y-68985836D01*
X71874767Y-69183762D01*
X71777267Y-69366171D01*
X71646054Y-69526054D01*
X71486171Y-69657267D01*
X71303762Y-69754767D01*
X71105836Y-69814807D01*
X71067271Y-69818605D01*
X70951584Y-69830000D01*
X70848416Y-69830000D01*
X70732729Y-69818605D01*
X70694164Y-69814807D01*
X70496238Y-69754767D01*
X70313829Y-69657267D01*
X70153946Y-69526054D01*
X70022733Y-69366171D01*
X69925233Y-69183762D01*
X69865193Y-68985836D01*
X69861857Y-68951961D01*
X69844919Y-68780000D01*
X69865193Y-68574166D01*
X69865193Y-68574164D01*
X69925233Y-68376238D01*
X70022733Y-68193829D01*
X70153946Y-68033946D01*
X70313829Y-67902733D01*
X70496238Y-67805233D01*
X70694164Y-67745193D01*
X70732729Y-67741395D01*
X70848416Y-67730000D01*
X70951584Y-67730000D01*
X71067271Y-67741395D01*
X71067271Y-67741395D01*
G37*
G36*
X71067271Y-65201395D02*
X71105836Y-65205193D01*
X71303762Y-65265233D01*
X71486171Y-65362733D01*
X71646054Y-65493946D01*
X71777267Y-65653829D01*
X71874767Y-65836238D01*
X71934807Y-66034164D01*
X71934807Y-66034166D01*
X71955081Y-66240000D01*
X71938143Y-66411961D01*
X71934807Y-66445836D01*
X71874767Y-66643762D01*
X71777267Y-66826171D01*
X71646054Y-66986054D01*
X71486171Y-67117267D01*
X71303762Y-67214767D01*
X71105836Y-67274807D01*
X71067271Y-67278605D01*
X70951584Y-67290000D01*
X70848416Y-67290000D01*
X70732729Y-67278605D01*
X70694164Y-67274807D01*
X70496238Y-67214767D01*
X70313829Y-67117267D01*
X70153946Y-66986054D01*
X70022733Y-66826171D01*
X69925233Y-66643762D01*
X69865193Y-66445836D01*
X69861857Y-66411961D01*
X69844919Y-66240000D01*
X69865193Y-66034166D01*
X69865193Y-66034164D01*
X69925233Y-65836238D01*
X70022733Y-65653829D01*
X70153946Y-65493946D01*
X70313829Y-65362733D01*
X70496238Y-65265233D01*
X70694164Y-65205193D01*
X70732729Y-65201395D01*
X70848416Y-65190000D01*
X70951584Y-65190000D01*
X71067271Y-65201395D01*
X71067271Y-65201395D01*
G37*
G36*
X71950000Y-64750000D02*
X69850000Y-64750000D01*
X69850000Y-62650000D01*
X71950000Y-62650000D01*
X71950000Y-64750000D01*
X71950000Y-64750000D01*
G37*
G36*
X55525041Y-53269173D02*
X55852620Y-53404861D01*
X56147433Y-53601849D01*
X56398151Y-53852567D01*
X56595139Y-54147380D01*
X56730827Y-54474959D01*
X56800000Y-54822716D01*
X56800000Y-55177284D01*
X56730827Y-55525041D01*
X56595139Y-55852620D01*
X56398151Y-56147433D01*
X56147433Y-56398151D01*
X55852620Y-56595139D01*
X55525041Y-56730827D01*
X55177284Y-56800000D01*
X54822716Y-56800000D01*
X54474959Y-56730827D01*
X54147380Y-56595139D01*
X53852567Y-56398151D01*
X53601849Y-56147433D01*
X53404861Y-55852620D01*
X53269173Y-55525041D01*
X53200000Y-55177284D01*
X53200000Y-54822716D01*
X53269173Y-54474959D01*
X53404861Y-54147380D01*
X53601849Y-53852567D01*
X53852567Y-53601849D01*
X54147380Y-53404861D01*
X54474959Y-53269173D01*
X54822716Y-53200000D01*
X55177284Y-53200000D01*
X55525041Y-53269173D01*
X55525041Y-53269173D01*
G37*
G36*
X75525041Y-53269173D02*
X75852620Y-53404861D01*
X76147433Y-53601849D01*
X76398151Y-53852567D01*
X76595139Y-54147380D01*
X76730827Y-54474959D01*
X76800000Y-54822716D01*
X76800000Y-55177284D01*
X76730827Y-55525041D01*
X76595139Y-55852620D01*
X76398151Y-56147433D01*
X76147433Y-56398151D01*
X75852620Y-56595139D01*
X75525041Y-56730827D01*
X75177284Y-56800000D01*
X74822716Y-56800000D01*
X74474959Y-56730827D01*
X74147380Y-56595139D01*
X73852567Y-56398151D01*
X73601849Y-56147433D01*
X73404861Y-55852620D01*
X73269173Y-55525041D01*
X73200000Y-55177284D01*
X73200000Y-54822716D01*
X73269173Y-54474959D01*
X73404861Y-54147380D01*
X73601849Y-53852567D01*
X73852567Y-53601849D01*
X74147380Y-53404861D01*
X74474959Y-53269173D01*
X74822716Y-53200000D01*
X75177284Y-53200000D01*
X75525041Y-53269173D01*
X75525041Y-53269173D01*
G37*
M02*
