G04 #@! TF.GenerationSoftware,KiCad,Pcbnew,5.0.1-33cea8e~68~ubuntu18.10.1*
G04 #@! TF.CreationDate,2018-11-26T23:37:03+02:00*
G04 #@! TF.ProjectId,PIC-ICSP-504050,5049432D494353502D3530343035302E,v1.0*
G04 #@! TF.SameCoordinates,Original*
G04 #@! TF.FileFunction,Soldermask,Top*
G04 #@! TF.FilePolarity,Negative*
%FSLAX46Y46*%
G04 Gerber Fmt 4.6, Leading zero omitted, Abs format (unit mm)*
G04 Created by KiCad (PCBNEW 5.0.1-33cea8e~68~ubuntu18.10.1) date ma 26. marraskuuta 2018 23.37.03*
%MOMM*%
%LPD*%
G01*
G04 APERTURE LIST*
%ADD10C,0.150000*%
%ADD11C,0.100000*%
G04 APERTURE END LIST*
D10*
X78000000Y-50000000D02*
G75*
G02X80000000Y-52000000I0J-2000000D01*
G01*
X80000000Y-88000000D02*
G75*
G02X78000000Y-90000000I-2000000J0D01*
G01*
X52000000Y-90000000D02*
G75*
G02X50000000Y-88000000I0J2000000D01*
G01*
X50000000Y-52000000D02*
G75*
G02X52000000Y-50000000I2000000J0D01*
G01*
X50000000Y-88000000D02*
X50000000Y-52000000D01*
X52000000Y-90000000D02*
X78000000Y-90000000D01*
X80000000Y-52000000D02*
X80000000Y-88000000D01*
X52000000Y-50000000D02*
X78000000Y-50000000D01*
D11*
G36*
X75466703Y-83461487D02*
X75466705Y-83461488D01*
X75466706Y-83461488D01*
X75757884Y-83582098D01*
X76019939Y-83757197D01*
X76242803Y-83980061D01*
X76417902Y-84242116D01*
X76538512Y-84533294D01*
X76600000Y-84842416D01*
X76600000Y-85157584D01*
X76538512Y-85466706D01*
X76417902Y-85757884D01*
X76242803Y-86019939D01*
X76019939Y-86242803D01*
X75757884Y-86417902D01*
X75466706Y-86538512D01*
X75466705Y-86538512D01*
X75466703Y-86538513D01*
X75157586Y-86600000D01*
X74842414Y-86600000D01*
X74533297Y-86538513D01*
X74533295Y-86538512D01*
X74533294Y-86538512D01*
X74242116Y-86417902D01*
X73980061Y-86242803D01*
X73757197Y-86019939D01*
X73582098Y-85757884D01*
X73461488Y-85466706D01*
X73400000Y-85157584D01*
X73400000Y-84842416D01*
X73461488Y-84533294D01*
X73582098Y-84242116D01*
X73757197Y-83980061D01*
X73980061Y-83757197D01*
X74242116Y-83582098D01*
X74533294Y-83461488D01*
X74533295Y-83461488D01*
X74533297Y-83461487D01*
X74842414Y-83400000D01*
X75157586Y-83400000D01*
X75466703Y-83461487D01*
X75466703Y-83461487D01*
G37*
G36*
X55466703Y-83461487D02*
X55466705Y-83461488D01*
X55466706Y-83461488D01*
X55757884Y-83582098D01*
X56019939Y-83757197D01*
X56242803Y-83980061D01*
X56417902Y-84242116D01*
X56538512Y-84533294D01*
X56600000Y-84842416D01*
X56600000Y-85157584D01*
X56538512Y-85466706D01*
X56417902Y-85757884D01*
X56242803Y-86019939D01*
X56019939Y-86242803D01*
X55757884Y-86417902D01*
X55466706Y-86538512D01*
X55466705Y-86538512D01*
X55466703Y-86538513D01*
X55157586Y-86600000D01*
X54842414Y-86600000D01*
X54533297Y-86538513D01*
X54533295Y-86538512D01*
X54533294Y-86538512D01*
X54242116Y-86417902D01*
X53980061Y-86242803D01*
X53757197Y-86019939D01*
X53582098Y-85757884D01*
X53461488Y-85466706D01*
X53400000Y-85157584D01*
X53400000Y-84842416D01*
X53461488Y-84533294D01*
X53582098Y-84242116D01*
X53757197Y-83980061D01*
X53980061Y-83757197D01*
X54242116Y-83582098D01*
X54533294Y-83461488D01*
X54533295Y-83461488D01*
X54533297Y-83461487D01*
X54842414Y-83400000D01*
X55157586Y-83400000D01*
X55466703Y-83461487D01*
X55466703Y-83461487D01*
G37*
G36*
X71066627Y-75562299D02*
X71157088Y-75589740D01*
X71226855Y-75610903D01*
X71280712Y-75639691D01*
X71374517Y-75689830D01*
X71503948Y-75796052D01*
X71610170Y-75925483D01*
X71660309Y-76019288D01*
X71689097Y-76073145D01*
X71689097Y-76073146D01*
X71737701Y-76233373D01*
X71754113Y-76400000D01*
X71737701Y-76566627D01*
X71737700Y-76566629D01*
X71689097Y-76726855D01*
X71660309Y-76780712D01*
X71610170Y-76874517D01*
X71503948Y-77003948D01*
X71374517Y-77110170D01*
X71280712Y-77160309D01*
X71226855Y-77189097D01*
X71157088Y-77210260D01*
X71066627Y-77237701D01*
X70941757Y-77250000D01*
X70858243Y-77250000D01*
X70733373Y-77237701D01*
X70642912Y-77210260D01*
X70573145Y-77189097D01*
X70519288Y-77160309D01*
X70425483Y-77110170D01*
X70296052Y-77003948D01*
X70189830Y-76874517D01*
X70139691Y-76780712D01*
X70110903Y-76726855D01*
X70062300Y-76566629D01*
X70062299Y-76566627D01*
X70045887Y-76400000D01*
X70062299Y-76233373D01*
X70110903Y-76073146D01*
X70110903Y-76073145D01*
X70139691Y-76019288D01*
X70189830Y-75925483D01*
X70296052Y-75796052D01*
X70425483Y-75689830D01*
X70519288Y-75639691D01*
X70573145Y-75610903D01*
X70642912Y-75589740D01*
X70733373Y-75562299D01*
X70858243Y-75550000D01*
X70941757Y-75550000D01*
X71066627Y-75562299D01*
X71066627Y-75562299D01*
G37*
G36*
X54805000Y-76130000D02*
X53005000Y-76130000D01*
X53005000Y-74880000D01*
X54805000Y-74880000D01*
X54805000Y-76130000D01*
X54805000Y-76130000D01*
G37*
G36*
X71066627Y-73022299D02*
X71157088Y-73049740D01*
X71226855Y-73070903D01*
X71280712Y-73099691D01*
X71374517Y-73149830D01*
X71503948Y-73256052D01*
X71610170Y-73385483D01*
X71660309Y-73479288D01*
X71689097Y-73533145D01*
X71689097Y-73533146D01*
X71737701Y-73693373D01*
X71754113Y-73860000D01*
X71737701Y-74026627D01*
X71737700Y-74026629D01*
X71689097Y-74186855D01*
X71660309Y-74240712D01*
X71610170Y-74334517D01*
X71503948Y-74463948D01*
X71374517Y-74570170D01*
X71280712Y-74620309D01*
X71226855Y-74649097D01*
X71157088Y-74670260D01*
X71066627Y-74697701D01*
X70941757Y-74710000D01*
X70858243Y-74710000D01*
X70733373Y-74697701D01*
X70642912Y-74670260D01*
X70573145Y-74649097D01*
X70519288Y-74620309D01*
X70425483Y-74570170D01*
X70296052Y-74463948D01*
X70189830Y-74334517D01*
X70139691Y-74240712D01*
X70110903Y-74186855D01*
X70062300Y-74026629D01*
X70062299Y-74026627D01*
X70045887Y-73860000D01*
X70062299Y-73693373D01*
X70110903Y-73533146D01*
X70110903Y-73533145D01*
X70139691Y-73479288D01*
X70189830Y-73385483D01*
X70296052Y-73256052D01*
X70425483Y-73149830D01*
X70519288Y-73099691D01*
X70573145Y-73070903D01*
X70642912Y-73049740D01*
X70733373Y-73022299D01*
X70858243Y-73010000D01*
X70941757Y-73010000D01*
X71066627Y-73022299D01*
X71066627Y-73022299D01*
G37*
G36*
X59595000Y-73200000D02*
X58595000Y-73200000D01*
X58595000Y-72600000D01*
X59595000Y-72600000D01*
X59595000Y-73200000D01*
X59595000Y-73200000D01*
G37*
G36*
X71066627Y-70482299D02*
X71157088Y-70509740D01*
X71226855Y-70530903D01*
X71280712Y-70559691D01*
X71374517Y-70609830D01*
X71503948Y-70716052D01*
X71610170Y-70845483D01*
X71660309Y-70939288D01*
X71689097Y-70993145D01*
X71689097Y-70993146D01*
X71737701Y-71153373D01*
X71754113Y-71320000D01*
X71737701Y-71486627D01*
X71737700Y-71486629D01*
X71689097Y-71646855D01*
X71660690Y-71700000D01*
X71610170Y-71794517D01*
X71503948Y-71923948D01*
X71374517Y-72030170D01*
X71280712Y-72080309D01*
X71226855Y-72109097D01*
X71157088Y-72130260D01*
X71066627Y-72157701D01*
X70941757Y-72170000D01*
X70858243Y-72170000D01*
X70733373Y-72157701D01*
X70642912Y-72130260D01*
X70573145Y-72109097D01*
X70519288Y-72080309D01*
X70425483Y-72030170D01*
X70296052Y-71923948D01*
X70189830Y-71794517D01*
X70139310Y-71700000D01*
X70110903Y-71646855D01*
X70062300Y-71486629D01*
X70062299Y-71486627D01*
X70045887Y-71320000D01*
X70062299Y-71153373D01*
X70110903Y-70993146D01*
X70110903Y-70993145D01*
X70139691Y-70939288D01*
X70189830Y-70845483D01*
X70296052Y-70716052D01*
X70425483Y-70609830D01*
X70519288Y-70559691D01*
X70573145Y-70530903D01*
X70642912Y-70509740D01*
X70733373Y-70482299D01*
X70858243Y-70470000D01*
X70941757Y-70470000D01*
X71066627Y-70482299D01*
X71066627Y-70482299D01*
G37*
G36*
X59595000Y-71700000D02*
X58595000Y-71700000D01*
X58595000Y-71100000D01*
X59595000Y-71100000D01*
X59595000Y-71700000D01*
X59595000Y-71700000D01*
G37*
G36*
X59595000Y-70200000D02*
X58595000Y-70200000D01*
X58595000Y-69600000D01*
X59595000Y-69600000D01*
X59595000Y-70200000D01*
X59595000Y-70200000D01*
G37*
G36*
X71066627Y-67942299D02*
X71157088Y-67969740D01*
X71226855Y-67990903D01*
X71280712Y-68019691D01*
X71374517Y-68069830D01*
X71503948Y-68176052D01*
X71610170Y-68305483D01*
X71660309Y-68399288D01*
X71689097Y-68453145D01*
X71689097Y-68453146D01*
X71737701Y-68613373D01*
X71754113Y-68780000D01*
X71737701Y-68946627D01*
X71737700Y-68946629D01*
X71689097Y-69106855D01*
X71660309Y-69160712D01*
X71610170Y-69254517D01*
X71503948Y-69383948D01*
X71374517Y-69490170D01*
X71280712Y-69540309D01*
X71226855Y-69569097D01*
X71157088Y-69590260D01*
X71066627Y-69617701D01*
X70941757Y-69630000D01*
X70858243Y-69630000D01*
X70733373Y-69617701D01*
X70642912Y-69590260D01*
X70573145Y-69569097D01*
X70519288Y-69540309D01*
X70425483Y-69490170D01*
X70296052Y-69383948D01*
X70189830Y-69254517D01*
X70139691Y-69160712D01*
X70110903Y-69106855D01*
X70062300Y-68946629D01*
X70062299Y-68946627D01*
X70045887Y-68780000D01*
X70062299Y-68613373D01*
X70110903Y-68453146D01*
X70110903Y-68453145D01*
X70139691Y-68399288D01*
X70189830Y-68305483D01*
X70296052Y-68176052D01*
X70425483Y-68069830D01*
X70519288Y-68019691D01*
X70573145Y-67990903D01*
X70642912Y-67969740D01*
X70733373Y-67942299D01*
X70858243Y-67930000D01*
X70941757Y-67930000D01*
X71066627Y-67942299D01*
X71066627Y-67942299D01*
G37*
G36*
X59595000Y-68700000D02*
X58595000Y-68700000D01*
X58595000Y-68100000D01*
X59595000Y-68100000D01*
X59595000Y-68700000D01*
X59595000Y-68700000D01*
G37*
G36*
X59595000Y-67200000D02*
X58595000Y-67200000D01*
X58595000Y-66600000D01*
X59595000Y-66600000D01*
X59595000Y-67200000D01*
X59595000Y-67200000D01*
G37*
G36*
X71066627Y-65402299D02*
X71157088Y-65429740D01*
X71226855Y-65450903D01*
X71280712Y-65479691D01*
X71374517Y-65529830D01*
X71503948Y-65636052D01*
X71610170Y-65765483D01*
X71660309Y-65859288D01*
X71689097Y-65913145D01*
X71689097Y-65913146D01*
X71737701Y-66073373D01*
X71754113Y-66240000D01*
X71737701Y-66406627D01*
X71737700Y-66406629D01*
X71689097Y-66566855D01*
X71671380Y-66600000D01*
X71610170Y-66714517D01*
X71503948Y-66843948D01*
X71374517Y-66950170D01*
X71280712Y-67000309D01*
X71226855Y-67029097D01*
X71157088Y-67050260D01*
X71066627Y-67077701D01*
X70941757Y-67090000D01*
X70858243Y-67090000D01*
X70733373Y-67077701D01*
X70642912Y-67050260D01*
X70573145Y-67029097D01*
X70519288Y-67000309D01*
X70425483Y-66950170D01*
X70296052Y-66843948D01*
X70189830Y-66714517D01*
X70128620Y-66600000D01*
X70110903Y-66566855D01*
X70062300Y-66406629D01*
X70062299Y-66406627D01*
X70045887Y-66240000D01*
X70062299Y-66073373D01*
X70110903Y-65913146D01*
X70110903Y-65913145D01*
X70139691Y-65859288D01*
X70189830Y-65765483D01*
X70296052Y-65636052D01*
X70425483Y-65529830D01*
X70519288Y-65479691D01*
X70573145Y-65450903D01*
X70642912Y-65429740D01*
X70733373Y-65402299D01*
X70858243Y-65390000D01*
X70941757Y-65390000D01*
X71066627Y-65402299D01*
X71066627Y-65402299D01*
G37*
G36*
X54805000Y-64920000D02*
X53005000Y-64920000D01*
X53005000Y-63670000D01*
X54805000Y-63670000D01*
X54805000Y-64920000D01*
X54805000Y-64920000D01*
G37*
G36*
X71750000Y-64550000D02*
X70050000Y-64550000D01*
X70050000Y-62850000D01*
X71750000Y-62850000D01*
X71750000Y-64550000D01*
X71750000Y-64550000D01*
G37*
G36*
X55466703Y-53461487D02*
X55466705Y-53461488D01*
X55466706Y-53461488D01*
X55757884Y-53582098D01*
X56019939Y-53757197D01*
X56242803Y-53980061D01*
X56417902Y-54242116D01*
X56538512Y-54533294D01*
X56600000Y-54842416D01*
X56600000Y-55157584D01*
X56538512Y-55466706D01*
X56417902Y-55757884D01*
X56242803Y-56019939D01*
X56019939Y-56242803D01*
X55757884Y-56417902D01*
X55466706Y-56538512D01*
X55466705Y-56538512D01*
X55466703Y-56538513D01*
X55157586Y-56600000D01*
X54842414Y-56600000D01*
X54533297Y-56538513D01*
X54533295Y-56538512D01*
X54533294Y-56538512D01*
X54242116Y-56417902D01*
X53980061Y-56242803D01*
X53757197Y-56019939D01*
X53582098Y-55757884D01*
X53461488Y-55466706D01*
X53400000Y-55157584D01*
X53400000Y-54842416D01*
X53461488Y-54533294D01*
X53582098Y-54242116D01*
X53757197Y-53980061D01*
X53980061Y-53757197D01*
X54242116Y-53582098D01*
X54533294Y-53461488D01*
X54533295Y-53461488D01*
X54533297Y-53461487D01*
X54842414Y-53400000D01*
X55157586Y-53400000D01*
X55466703Y-53461487D01*
X55466703Y-53461487D01*
G37*
G36*
X75466703Y-53461487D02*
X75466705Y-53461488D01*
X75466706Y-53461488D01*
X75757884Y-53582098D01*
X76019939Y-53757197D01*
X76242803Y-53980061D01*
X76417902Y-54242116D01*
X76538512Y-54533294D01*
X76600000Y-54842416D01*
X76600000Y-55157584D01*
X76538512Y-55466706D01*
X76417902Y-55757884D01*
X76242803Y-56019939D01*
X76019939Y-56242803D01*
X75757884Y-56417902D01*
X75466706Y-56538512D01*
X75466705Y-56538512D01*
X75466703Y-56538513D01*
X75157586Y-56600000D01*
X74842414Y-56600000D01*
X74533297Y-56538513D01*
X74533295Y-56538512D01*
X74533294Y-56538512D01*
X74242116Y-56417902D01*
X73980061Y-56242803D01*
X73757197Y-56019939D01*
X73582098Y-55757884D01*
X73461488Y-55466706D01*
X73400000Y-55157584D01*
X73400000Y-54842416D01*
X73461488Y-54533294D01*
X73582098Y-54242116D01*
X73757197Y-53980061D01*
X73980061Y-53757197D01*
X74242116Y-53582098D01*
X74533294Y-53461488D01*
X74533295Y-53461488D01*
X74533297Y-53461487D01*
X74842414Y-53400000D01*
X75157586Y-53400000D01*
X75466703Y-53461487D01*
X75466703Y-53461487D01*
G37*
M02*
