G04 #@! TF.GenerationSoftware,KiCad,Pcbnew,5.1.6-c6e7f7d~86~ubuntu20.04.1*
G04 #@! TF.CreationDate,2020-05-17T01:17:36+03:00*
G04 #@! TF.ProjectId,PIC-ICSP-504050,5049432d-4943-4535-902d-353034303530,v1.0*
G04 #@! TF.SameCoordinates,Original*
G04 #@! TF.FileFunction,Legend,Top*
G04 #@! TF.FilePolarity,Positive*
%FSLAX46Y46*%
G04 Gerber Fmt 4.6, Leading zero omitted, Abs format (unit mm)*
G04 Created by KiCad (PCBNEW 5.1.6-c6e7f7d~86~ubuntu20.04.1) date 2020-05-17 01:17:36*
%MOMM*%
%LPD*%
G01*
G04 APERTURE LIST*
G04 #@! TA.AperFunction,Profile*
%ADD10C,0.150000*%
G04 #@! TD*
%ADD11C,0.300000*%
%ADD12C,0.120000*%
%ADD13C,0.150000*%
G04 APERTURE END LIST*
D10*
X78000000Y-50000000D02*
G75*
G02*
X80000000Y-52000000I0J-2000000D01*
G01*
X80000000Y-88000000D02*
G75*
G02*
X78000000Y-90000000I-2000000J0D01*
G01*
X52000000Y-90000000D02*
G75*
G02*
X50000000Y-88000000I0J2000000D01*
G01*
X50000000Y-52000000D02*
G75*
G02*
X52000000Y-50000000I2000000J0D01*
G01*
D11*
X54635714Y-79942857D02*
X54635714Y-78742857D01*
X55092857Y-78742857D01*
X55207142Y-78800000D01*
X55264285Y-78857142D01*
X55321428Y-78971428D01*
X55321428Y-79142857D01*
X55264285Y-79257142D01*
X55207142Y-79314285D01*
X55092857Y-79371428D01*
X54635714Y-79371428D01*
X55835714Y-79942857D02*
X55835714Y-78742857D01*
X57092857Y-79828571D02*
X57035714Y-79885714D01*
X56864285Y-79942857D01*
X56750000Y-79942857D01*
X56578571Y-79885714D01*
X56464285Y-79771428D01*
X56407142Y-79657142D01*
X56350000Y-79428571D01*
X56350000Y-79257142D01*
X56407142Y-79028571D01*
X56464285Y-78914285D01*
X56578571Y-78800000D01*
X56750000Y-78742857D01*
X56864285Y-78742857D01*
X57035714Y-78800000D01*
X57092857Y-78857142D01*
X57607142Y-79485714D02*
X58521428Y-79485714D01*
X59092857Y-79942857D02*
X59092857Y-78742857D01*
X60350000Y-79828571D02*
X60292857Y-79885714D01*
X60121428Y-79942857D01*
X60007142Y-79942857D01*
X59835714Y-79885714D01*
X59721428Y-79771428D01*
X59664285Y-79657142D01*
X59607142Y-79428571D01*
X59607142Y-79257142D01*
X59664285Y-79028571D01*
X59721428Y-78914285D01*
X59835714Y-78800000D01*
X60007142Y-78742857D01*
X60121428Y-78742857D01*
X60292857Y-78800000D01*
X60350000Y-78857142D01*
X60807142Y-79885714D02*
X60978571Y-79942857D01*
X61264285Y-79942857D01*
X61378571Y-79885714D01*
X61435714Y-79828571D01*
X61492857Y-79714285D01*
X61492857Y-79600000D01*
X61435714Y-79485714D01*
X61378571Y-79428571D01*
X61264285Y-79371428D01*
X61035714Y-79314285D01*
X60921428Y-79257142D01*
X60864285Y-79200000D01*
X60807142Y-79085714D01*
X60807142Y-78971428D01*
X60864285Y-78857142D01*
X60921428Y-78800000D01*
X61035714Y-78742857D01*
X61321428Y-78742857D01*
X61492857Y-78800000D01*
X62007142Y-79942857D02*
X62007142Y-78742857D01*
X62464285Y-78742857D01*
X62578571Y-78800000D01*
X62635714Y-78857142D01*
X62692857Y-78971428D01*
X62692857Y-79142857D01*
X62635714Y-79257142D01*
X62578571Y-79314285D01*
X62464285Y-79371428D01*
X62007142Y-79371428D01*
X63207142Y-79485714D02*
X64121428Y-79485714D01*
X65264285Y-78742857D02*
X64692857Y-78742857D01*
X64635714Y-79314285D01*
X64692857Y-79257142D01*
X64807142Y-79200000D01*
X65092857Y-79200000D01*
X65207142Y-79257142D01*
X65264285Y-79314285D01*
X65321428Y-79428571D01*
X65321428Y-79714285D01*
X65264285Y-79828571D01*
X65207142Y-79885714D01*
X65092857Y-79942857D01*
X64807142Y-79942857D01*
X64692857Y-79885714D01*
X64635714Y-79828571D01*
X66064285Y-78742857D02*
X66178571Y-78742857D01*
X66292857Y-78800000D01*
X66350000Y-78857142D01*
X66407142Y-78971428D01*
X66464285Y-79200000D01*
X66464285Y-79485714D01*
X66407142Y-79714285D01*
X66350000Y-79828571D01*
X66292857Y-79885714D01*
X66178571Y-79942857D01*
X66064285Y-79942857D01*
X65950000Y-79885714D01*
X65892857Y-79828571D01*
X65835714Y-79714285D01*
X65778571Y-79485714D01*
X65778571Y-79200000D01*
X65835714Y-78971428D01*
X65892857Y-78857142D01*
X65950000Y-78800000D01*
X66064285Y-78742857D01*
X67492857Y-79142857D02*
X67492857Y-79942857D01*
X67207142Y-78685714D02*
X66921428Y-79542857D01*
X67664285Y-79542857D01*
X68350000Y-78742857D02*
X68464285Y-78742857D01*
X68578571Y-78800000D01*
X68635714Y-78857142D01*
X68692857Y-78971428D01*
X68750000Y-79200000D01*
X68750000Y-79485714D01*
X68692857Y-79714285D01*
X68635714Y-79828571D01*
X68578571Y-79885714D01*
X68464285Y-79942857D01*
X68350000Y-79942857D01*
X68235714Y-79885714D01*
X68178571Y-79828571D01*
X68121428Y-79714285D01*
X68064285Y-79485714D01*
X68064285Y-79200000D01*
X68121428Y-78971428D01*
X68178571Y-78857142D01*
X68235714Y-78800000D01*
X68350000Y-78742857D01*
X69835714Y-78742857D02*
X69264285Y-78742857D01*
X69207142Y-79314285D01*
X69264285Y-79257142D01*
X69378571Y-79200000D01*
X69664285Y-79200000D01*
X69778571Y-79257142D01*
X69835714Y-79314285D01*
X69892857Y-79428571D01*
X69892857Y-79714285D01*
X69835714Y-79828571D01*
X69778571Y-79885714D01*
X69664285Y-79942857D01*
X69378571Y-79942857D01*
X69264285Y-79885714D01*
X69207142Y-79828571D01*
X70635714Y-78742857D02*
X70750000Y-78742857D01*
X70864285Y-78800000D01*
X70921428Y-78857142D01*
X70978571Y-78971428D01*
X71035714Y-79200000D01*
X71035714Y-79485714D01*
X70978571Y-79714285D01*
X70921428Y-79828571D01*
X70864285Y-79885714D01*
X70750000Y-79942857D01*
X70635714Y-79942857D01*
X70521428Y-79885714D01*
X70464285Y-79828571D01*
X70407142Y-79714285D01*
X70350000Y-79485714D01*
X70350000Y-79200000D01*
X70407142Y-78971428D01*
X70464285Y-78857142D01*
X70521428Y-78800000D01*
X70635714Y-78742857D01*
X72349999Y-79142857D02*
X72635714Y-79942857D01*
X72921428Y-79142857D01*
X74007142Y-79942857D02*
X73321428Y-79942857D01*
X73664285Y-79942857D02*
X73664285Y-78742857D01*
X73549999Y-78914285D01*
X73435714Y-79028571D01*
X73321428Y-79085714D01*
X74521428Y-79828571D02*
X74578571Y-79885714D01*
X74521428Y-79942857D01*
X74464285Y-79885714D01*
X74521428Y-79828571D01*
X74521428Y-79942857D01*
X75321428Y-78742857D02*
X75435714Y-78742857D01*
X75549999Y-78800000D01*
X75607142Y-78857142D01*
X75664285Y-78971428D01*
X75721428Y-79200000D01*
X75721428Y-79485714D01*
X75664285Y-79714285D01*
X75607142Y-79828571D01*
X75549999Y-79885714D01*
X75435714Y-79942857D01*
X75321428Y-79942857D01*
X75207142Y-79885714D01*
X75149999Y-79828571D01*
X75092857Y-79714285D01*
X75035714Y-79485714D01*
X75035714Y-79200000D01*
X75092857Y-78971428D01*
X75149999Y-78857142D01*
X75207142Y-78800000D01*
X75321428Y-78742857D01*
X57864285Y-82042857D02*
X57864285Y-80842857D01*
X58378571Y-82042857D02*
X58378571Y-81414285D01*
X58321428Y-81300000D01*
X58207142Y-81242857D01*
X58035714Y-81242857D01*
X57921428Y-81300000D01*
X57864285Y-81357142D01*
X58778571Y-81242857D02*
X59235714Y-81242857D01*
X58950000Y-80842857D02*
X58950000Y-81871428D01*
X59007142Y-81985714D01*
X59121428Y-82042857D01*
X59235714Y-82042857D01*
X59464285Y-81242857D02*
X59921428Y-81242857D01*
X59635714Y-80842857D02*
X59635714Y-81871428D01*
X59692857Y-81985714D01*
X59807142Y-82042857D01*
X59921428Y-82042857D01*
X60321428Y-81242857D02*
X60321428Y-82442857D01*
X60321428Y-81300000D02*
X60435714Y-81242857D01*
X60664285Y-81242857D01*
X60778571Y-81300000D01*
X60835714Y-81357142D01*
X60892857Y-81471428D01*
X60892857Y-81814285D01*
X60835714Y-81928571D01*
X60778571Y-81985714D01*
X60664285Y-82042857D01*
X60435714Y-82042857D01*
X60321428Y-81985714D01*
X61350000Y-81985714D02*
X61464285Y-82042857D01*
X61692857Y-82042857D01*
X61807142Y-81985714D01*
X61864285Y-81871428D01*
X61864285Y-81814285D01*
X61807142Y-81700000D01*
X61692857Y-81642857D01*
X61521428Y-81642857D01*
X61407142Y-81585714D01*
X61350000Y-81471428D01*
X61350000Y-81414285D01*
X61407142Y-81300000D01*
X61521428Y-81242857D01*
X61692857Y-81242857D01*
X61807142Y-81300000D01*
X62378571Y-81928571D02*
X62435714Y-81985714D01*
X62378571Y-82042857D01*
X62321428Y-81985714D01*
X62378571Y-81928571D01*
X62378571Y-82042857D01*
X62378571Y-81300000D02*
X62435714Y-81357142D01*
X62378571Y-81414285D01*
X62321428Y-81357142D01*
X62378571Y-81300000D01*
X62378571Y-81414285D01*
X63807142Y-80785714D02*
X62778571Y-82328571D01*
X65064285Y-80785714D02*
X64035714Y-82328571D01*
X65978571Y-81242857D02*
X65978571Y-82214285D01*
X65921428Y-82328571D01*
X65864285Y-82385714D01*
X65750000Y-82442857D01*
X65578571Y-82442857D01*
X65464285Y-82385714D01*
X65978571Y-81985714D02*
X65864285Y-82042857D01*
X65635714Y-82042857D01*
X65521428Y-81985714D01*
X65464285Y-81928571D01*
X65407142Y-81814285D01*
X65407142Y-81471428D01*
X65464285Y-81357142D01*
X65521428Y-81300000D01*
X65635714Y-81242857D01*
X65864285Y-81242857D01*
X65978571Y-81300000D01*
X67007142Y-81985714D02*
X66892857Y-82042857D01*
X66664285Y-82042857D01*
X66550000Y-81985714D01*
X66492857Y-81871428D01*
X66492857Y-81414285D01*
X66550000Y-81300000D01*
X66664285Y-81242857D01*
X66892857Y-81242857D01*
X67007142Y-81300000D01*
X67064285Y-81414285D01*
X67064285Y-81528571D01*
X66492857Y-81642857D01*
X67578571Y-82042857D02*
X67578571Y-80842857D01*
X67692857Y-81585714D02*
X68035714Y-82042857D01*
X68035714Y-81242857D02*
X67578571Y-81700000D01*
X68550000Y-82042857D02*
X68550000Y-80842857D01*
X68664285Y-81585714D02*
X69007142Y-82042857D01*
X69007142Y-81242857D02*
X68550000Y-81700000D01*
X69521428Y-82042857D02*
X69521428Y-81242857D01*
X69521428Y-80842857D02*
X69464285Y-80900000D01*
X69521428Y-80957142D01*
X69578571Y-80900000D01*
X69521428Y-80842857D01*
X69521428Y-80957142D01*
X70264285Y-82042857D02*
X70150000Y-81985714D01*
X70092857Y-81928571D01*
X70035714Y-81814285D01*
X70035714Y-81471428D01*
X70092857Y-81357142D01*
X70150000Y-81300000D01*
X70264285Y-81242857D01*
X70435714Y-81242857D01*
X70550000Y-81300000D01*
X70607142Y-81357142D01*
X70664285Y-81471428D01*
X70664285Y-81814285D01*
X70607142Y-81928571D01*
X70550000Y-81985714D01*
X70435714Y-82042857D01*
X70264285Y-82042857D01*
X71178571Y-81928571D02*
X71235714Y-81985714D01*
X71178571Y-82042857D01*
X71121428Y-81985714D01*
X71178571Y-81928571D01*
X71178571Y-82042857D01*
X71578571Y-81242857D02*
X72035714Y-81242857D01*
X71750000Y-82042857D02*
X71750000Y-81014285D01*
X71807142Y-80900000D01*
X71921428Y-80842857D01*
X72035714Y-80842857D01*
X72435714Y-82042857D02*
X72435714Y-81242857D01*
X72435714Y-80842857D02*
X72378571Y-80900000D01*
X72435714Y-80957142D01*
X72492857Y-80900000D01*
X72435714Y-80842857D01*
X72435714Y-80957142D01*
X74652142Y-77078571D02*
X74652142Y-75578571D01*
X75509285Y-77078571D01*
X75509285Y-75578571D01*
X77080714Y-76935714D02*
X77009285Y-77007142D01*
X76795000Y-77078571D01*
X76652142Y-77078571D01*
X76437857Y-77007142D01*
X76295000Y-76864285D01*
X76223571Y-76721428D01*
X76152142Y-76435714D01*
X76152142Y-76221428D01*
X76223571Y-75935714D01*
X76295000Y-75792857D01*
X76437857Y-75650000D01*
X76652142Y-75578571D01*
X76795000Y-75578571D01*
X77009285Y-75650000D01*
X77080714Y-75721428D01*
X74652142Y-74578571D02*
X74652142Y-73078571D01*
X75223571Y-73078571D01*
X75366428Y-73150000D01*
X75437857Y-73221428D01*
X75509285Y-73364285D01*
X75509285Y-73578571D01*
X75437857Y-73721428D01*
X75366428Y-73792857D01*
X75223571Y-73864285D01*
X74652142Y-73864285D01*
X76937857Y-73150000D02*
X76795000Y-73078571D01*
X76580714Y-73078571D01*
X76366428Y-73150000D01*
X76223571Y-73292857D01*
X76152142Y-73435714D01*
X76080714Y-73721428D01*
X76080714Y-73935714D01*
X76152142Y-74221428D01*
X76223571Y-74364285D01*
X76366428Y-74507142D01*
X76580714Y-74578571D01*
X76723571Y-74578571D01*
X76937857Y-74507142D01*
X77009285Y-74435714D01*
X77009285Y-73935714D01*
X76723571Y-73935714D01*
X78509285Y-74435714D02*
X78437857Y-74507142D01*
X78223571Y-74578571D01*
X78080714Y-74578571D01*
X77866428Y-74507142D01*
X77723571Y-74364285D01*
X77652142Y-74221428D01*
X77580714Y-73935714D01*
X77580714Y-73721428D01*
X77652142Y-73435714D01*
X77723571Y-73292857D01*
X77866428Y-73150000D01*
X78080714Y-73078571D01*
X78223571Y-73078571D01*
X78437857Y-73150000D01*
X78509285Y-73221428D01*
X74652142Y-72078571D02*
X74652142Y-70578571D01*
X75223571Y-70578571D01*
X75366428Y-70650000D01*
X75437857Y-70721428D01*
X75509285Y-70864285D01*
X75509285Y-71078571D01*
X75437857Y-71221428D01*
X75366428Y-71292857D01*
X75223571Y-71364285D01*
X74652142Y-71364285D01*
X76937857Y-70650000D02*
X76795000Y-70578571D01*
X76580714Y-70578571D01*
X76366428Y-70650000D01*
X76223571Y-70792857D01*
X76152142Y-70935714D01*
X76080714Y-71221428D01*
X76080714Y-71435714D01*
X76152142Y-71721428D01*
X76223571Y-71864285D01*
X76366428Y-72007142D01*
X76580714Y-72078571D01*
X76723571Y-72078571D01*
X76937857Y-72007142D01*
X77009285Y-71935714D01*
X77009285Y-71435714D01*
X76723571Y-71435714D01*
X77652142Y-72078571D02*
X77652142Y-70578571D01*
X78009285Y-70578571D01*
X78223571Y-70650000D01*
X78366428Y-70792857D01*
X78437857Y-70935714D01*
X78509285Y-71221428D01*
X78509285Y-71435714D01*
X78437857Y-71721428D01*
X78366428Y-71864285D01*
X78223571Y-72007142D01*
X78009285Y-72078571D01*
X77652142Y-72078571D01*
X75437857Y-68050000D02*
X75295000Y-67978571D01*
X75080714Y-67978571D01*
X74866428Y-68050000D01*
X74723571Y-68192857D01*
X74652142Y-68335714D01*
X74580714Y-68621428D01*
X74580714Y-68835714D01*
X74652142Y-69121428D01*
X74723571Y-69264285D01*
X74866428Y-69407142D01*
X75080714Y-69478571D01*
X75223571Y-69478571D01*
X75437857Y-69407142D01*
X75509285Y-69335714D01*
X75509285Y-68835714D01*
X75223571Y-68835714D01*
X76152142Y-69478571D02*
X76152142Y-67978571D01*
X77009285Y-69478571D01*
X77009285Y-67978571D01*
X77723571Y-69478571D02*
X77723571Y-67978571D01*
X78080714Y-67978571D01*
X78295000Y-68050000D01*
X78437857Y-68192857D01*
X78509285Y-68335714D01*
X78580714Y-68621428D01*
X78580714Y-68835714D01*
X78509285Y-69121428D01*
X78437857Y-69264285D01*
X78295000Y-69407142D01*
X78080714Y-69478571D01*
X77723571Y-69478571D01*
X74437857Y-65478571D02*
X74937857Y-66978571D01*
X75437857Y-65478571D01*
X75937857Y-66978571D02*
X75937857Y-65478571D01*
X76295000Y-65478571D01*
X76509285Y-65550000D01*
X76652142Y-65692857D01*
X76723571Y-65835714D01*
X76795000Y-66121428D01*
X76795000Y-66335714D01*
X76723571Y-66621428D01*
X76652142Y-66764285D01*
X76509285Y-66907142D01*
X76295000Y-66978571D01*
X75937857Y-66978571D01*
X77437857Y-66978571D02*
X77437857Y-65478571D01*
X77795000Y-65478571D01*
X78009285Y-65550000D01*
X78152142Y-65692857D01*
X78223571Y-65835714D01*
X78295000Y-66121428D01*
X78295000Y-66335714D01*
X78223571Y-66621428D01*
X78152142Y-66764285D01*
X78009285Y-66907142D01*
X77795000Y-66978571D01*
X77437857Y-66978571D01*
X74437857Y-62878571D02*
X74937857Y-64378571D01*
X75437857Y-62878571D01*
X75937857Y-64378571D02*
X75937857Y-62878571D01*
X76509285Y-62878571D01*
X76652142Y-62950000D01*
X76723571Y-63021428D01*
X76795000Y-63164285D01*
X76795000Y-63378571D01*
X76723571Y-63521428D01*
X76652142Y-63592857D01*
X76509285Y-63664285D01*
X75937857Y-63664285D01*
X77437857Y-64378571D02*
X77437857Y-62878571D01*
X78009285Y-62878571D01*
X78152142Y-62950000D01*
X78223571Y-63021428D01*
X78295000Y-63164285D01*
X78295000Y-63378571D01*
X78223571Y-63521428D01*
X78152142Y-63592857D01*
X78009285Y-63664285D01*
X77437857Y-63664285D01*
D10*
X50000000Y-88000000D02*
X50000000Y-52000000D01*
X52000000Y-90000000D02*
X78000000Y-90000000D01*
X80000000Y-52000000D02*
X80000000Y-88000000D01*
X52000000Y-50000000D02*
X78000000Y-50000000D01*
D12*
X55065000Y-75635000D02*
X59195000Y-75635000D01*
X59195000Y-75635000D02*
X59195000Y-73460000D01*
X59195000Y-73460000D02*
X59595000Y-73460000D01*
X55065000Y-64165000D02*
X59195000Y-64165000D01*
X59195000Y-64165000D02*
X59195000Y-66340000D01*
X52875000Y-74620000D02*
X52875000Y-73465000D01*
X52875000Y-73465000D02*
X54875000Y-73465000D01*
X54875000Y-73465000D02*
X54875000Y-66335000D01*
X54875000Y-66335000D02*
X52875000Y-66335000D01*
X52875000Y-66335000D02*
X52875000Y-65180000D01*
X69570000Y-77730000D02*
X72230000Y-77730000D01*
X69570000Y-64970000D02*
X69570000Y-77730000D01*
X72230000Y-64970000D02*
X72230000Y-77730000D01*
X69570000Y-64970000D02*
X72230000Y-64970000D01*
X69570000Y-63700000D02*
X69570000Y-62370000D01*
X69570000Y-62370000D02*
X70900000Y-62370000D01*
D13*
X51232380Y-70233333D02*
X51946666Y-70233333D01*
X52089523Y-70280952D01*
X52184761Y-70376190D01*
X52232380Y-70519047D01*
X52232380Y-70614285D01*
X52232380Y-69233333D02*
X52232380Y-69804761D01*
X52232380Y-69519047D02*
X51232380Y-69519047D01*
X51375238Y-69614285D01*
X51470476Y-69709523D01*
X51518095Y-69804761D01*
X70566666Y-60822380D02*
X70566666Y-61536666D01*
X70519047Y-61679523D01*
X70423809Y-61774761D01*
X70280952Y-61822380D01*
X70185714Y-61822380D01*
X70995238Y-60917619D02*
X71042857Y-60870000D01*
X71138095Y-60822380D01*
X71376190Y-60822380D01*
X71471428Y-60870000D01*
X71519047Y-60917619D01*
X71566666Y-61012857D01*
X71566666Y-61108095D01*
X71519047Y-61250952D01*
X70947619Y-61822380D01*
X71566666Y-61822380D01*
M02*
