G04 #@! TF.GenerationSoftware,KiCad,Pcbnew,5.1.5-52549c5~84~ubuntu19.10.1*
G04 #@! TF.CreationDate,2020-02-24T20:41:03+02:00*
G04 #@! TF.ProjectId,BRK-TSSOP-24-4.4x7.8-P0.65,42524b2d-5453-4534-9f50-2d32342d342e,v1.0*
G04 #@! TF.SameCoordinates,Original*
G04 #@! TF.FileFunction,Legend,Top*
G04 #@! TF.FilePolarity,Positive*
%FSLAX46Y46*%
G04 Gerber Fmt 4.6, Leading zero omitted, Abs format (unit mm)*
G04 Created by KiCad (PCBNEW 5.1.5-52549c5~84~ubuntu19.10.1) date 2020-02-24 20:41:03*
%MOMM*%
%LPD*%
G04 APERTURE LIST*
%ADD10C,0.200000*%
%ADD11C,0.150000*%
%ADD12C,0.250000*%
%ADD13C,0.120000*%
G04 APERTURE END LIST*
D10*
X65027142Y-85952380D02*
X64455714Y-85952380D01*
X64741428Y-85952380D02*
X64741428Y-84952380D01*
X64646190Y-85095238D01*
X64550952Y-85190476D01*
X64455714Y-85238095D01*
X65884285Y-85285714D02*
X65884285Y-85952380D01*
X65646190Y-84904761D02*
X65408095Y-85619047D01*
X66027142Y-85619047D01*
X65027142Y-88552380D02*
X64455714Y-88552380D01*
X64741428Y-88552380D02*
X64741428Y-87552380D01*
X64646190Y-87695238D01*
X64550952Y-87790476D01*
X64455714Y-87838095D01*
X65360476Y-87552380D02*
X65979523Y-87552380D01*
X65646190Y-87933333D01*
X65789047Y-87933333D01*
X65884285Y-87980952D01*
X65931904Y-88028571D01*
X65979523Y-88123809D01*
X65979523Y-88361904D01*
X65931904Y-88457142D01*
X65884285Y-88504761D01*
X65789047Y-88552380D01*
X65503333Y-88552380D01*
X65408095Y-88504761D01*
X65360476Y-88457142D01*
X55491904Y-88552380D02*
X54920476Y-88552380D01*
X55206190Y-88552380D02*
X55206190Y-87552380D01*
X55110952Y-87695238D01*
X55015714Y-87790476D01*
X54920476Y-87838095D01*
X55872857Y-87647619D02*
X55920476Y-87600000D01*
X56015714Y-87552380D01*
X56253809Y-87552380D01*
X56349047Y-87600000D01*
X56396666Y-87647619D01*
X56444285Y-87742857D01*
X56444285Y-87838095D01*
X56396666Y-87980952D01*
X55825238Y-88552380D01*
X56444285Y-88552380D01*
X55491904Y-85952380D02*
X54920476Y-85952380D01*
X55206190Y-85952380D02*
X55206190Y-84952380D01*
X55110952Y-85095238D01*
X55015714Y-85190476D01*
X54920476Y-85238095D01*
X56444285Y-85952380D02*
X55872857Y-85952380D01*
X56158571Y-85952380D02*
X56158571Y-84952380D01*
X56063333Y-85095238D01*
X55968095Y-85190476D01*
X55872857Y-85238095D01*
X65027142Y-75752380D02*
X64455714Y-75752380D01*
X64741428Y-75752380D02*
X64741428Y-74752380D01*
X64646190Y-74895238D01*
X64550952Y-74990476D01*
X64455714Y-75038095D01*
X65598571Y-75180952D02*
X65503333Y-75133333D01*
X65455714Y-75085714D01*
X65408095Y-74990476D01*
X65408095Y-74942857D01*
X65455714Y-74847619D01*
X65503333Y-74800000D01*
X65598571Y-74752380D01*
X65789047Y-74752380D01*
X65884285Y-74800000D01*
X65931904Y-74847619D01*
X65979523Y-74942857D01*
X65979523Y-74990476D01*
X65931904Y-75085714D01*
X65884285Y-75133333D01*
X65789047Y-75180952D01*
X65598571Y-75180952D01*
X65503333Y-75228571D01*
X65455714Y-75276190D01*
X65408095Y-75371428D01*
X65408095Y-75561904D01*
X65455714Y-75657142D01*
X65503333Y-75704761D01*
X65598571Y-75752380D01*
X65789047Y-75752380D01*
X65884285Y-75704761D01*
X65931904Y-75657142D01*
X65979523Y-75561904D01*
X65979523Y-75371428D01*
X65931904Y-75276190D01*
X65884285Y-75228571D01*
X65789047Y-75180952D01*
X65027142Y-78352380D02*
X64455714Y-78352380D01*
X64741428Y-78352380D02*
X64741428Y-77352380D01*
X64646190Y-77495238D01*
X64550952Y-77590476D01*
X64455714Y-77638095D01*
X65360476Y-77352380D02*
X66027142Y-77352380D01*
X65598571Y-78352380D01*
X65027142Y-80852380D02*
X64455714Y-80852380D01*
X64741428Y-80852380D02*
X64741428Y-79852380D01*
X64646190Y-79995238D01*
X64550952Y-80090476D01*
X64455714Y-80138095D01*
X65884285Y-79852380D02*
X65693809Y-79852380D01*
X65598571Y-79900000D01*
X65550952Y-79947619D01*
X65455714Y-80090476D01*
X65408095Y-80280952D01*
X65408095Y-80661904D01*
X65455714Y-80757142D01*
X65503333Y-80804761D01*
X65598571Y-80852380D01*
X65789047Y-80852380D01*
X65884285Y-80804761D01*
X65931904Y-80757142D01*
X65979523Y-80661904D01*
X65979523Y-80423809D01*
X65931904Y-80328571D01*
X65884285Y-80280952D01*
X65789047Y-80233333D01*
X65598571Y-80233333D01*
X65503333Y-80280952D01*
X65455714Y-80328571D01*
X65408095Y-80423809D01*
X55491904Y-83352380D02*
X54920476Y-83352380D01*
X55206190Y-83352380D02*
X55206190Y-82352380D01*
X55110952Y-82495238D01*
X55015714Y-82590476D01*
X54920476Y-82638095D01*
X56110952Y-82352380D02*
X56206190Y-82352380D01*
X56301428Y-82400000D01*
X56349047Y-82447619D01*
X56396666Y-82542857D01*
X56444285Y-82733333D01*
X56444285Y-82971428D01*
X56396666Y-83161904D01*
X56349047Y-83257142D01*
X56301428Y-83304761D01*
X56206190Y-83352380D01*
X56110952Y-83352380D01*
X56015714Y-83304761D01*
X55968095Y-83257142D01*
X55920476Y-83161904D01*
X55872857Y-82971428D01*
X55872857Y-82733333D01*
X55920476Y-82542857D01*
X55968095Y-82447619D01*
X56015714Y-82400000D01*
X56110952Y-82352380D01*
X55015714Y-80852380D02*
X55206190Y-80852380D01*
X55301428Y-80804761D01*
X55349047Y-80757142D01*
X55444285Y-80614285D01*
X55491904Y-80423809D01*
X55491904Y-80042857D01*
X55444285Y-79947619D01*
X55396666Y-79900000D01*
X55301428Y-79852380D01*
X55110952Y-79852380D01*
X55015714Y-79900000D01*
X54968095Y-79947619D01*
X54920476Y-80042857D01*
X54920476Y-80280952D01*
X54968095Y-80376190D01*
X55015714Y-80423809D01*
X55110952Y-80471428D01*
X55301428Y-80471428D01*
X55396666Y-80423809D01*
X55444285Y-80376190D01*
X55491904Y-80280952D01*
X55110952Y-77780952D02*
X55015714Y-77733333D01*
X54968095Y-77685714D01*
X54920476Y-77590476D01*
X54920476Y-77542857D01*
X54968095Y-77447619D01*
X55015714Y-77400000D01*
X55110952Y-77352380D01*
X55301428Y-77352380D01*
X55396666Y-77400000D01*
X55444285Y-77447619D01*
X55491904Y-77542857D01*
X55491904Y-77590476D01*
X55444285Y-77685714D01*
X55396666Y-77733333D01*
X55301428Y-77780952D01*
X55110952Y-77780952D01*
X55015714Y-77828571D01*
X54968095Y-77876190D01*
X54920476Y-77971428D01*
X54920476Y-78161904D01*
X54968095Y-78257142D01*
X55015714Y-78304761D01*
X55110952Y-78352380D01*
X55301428Y-78352380D01*
X55396666Y-78304761D01*
X55444285Y-78257142D01*
X55491904Y-78161904D01*
X55491904Y-77971428D01*
X55444285Y-77876190D01*
X55396666Y-77828571D01*
X55301428Y-77780952D01*
X65027142Y-83452380D02*
X64455714Y-83452380D01*
X64741428Y-83452380D02*
X64741428Y-82452380D01*
X64646190Y-82595238D01*
X64550952Y-82690476D01*
X64455714Y-82738095D01*
X65931904Y-82452380D02*
X65455714Y-82452380D01*
X65408095Y-82928571D01*
X65455714Y-82880952D01*
X65550952Y-82833333D01*
X65789047Y-82833333D01*
X65884285Y-82880952D01*
X65931904Y-82928571D01*
X65979523Y-83023809D01*
X65979523Y-83261904D01*
X65931904Y-83357142D01*
X65884285Y-83404761D01*
X65789047Y-83452380D01*
X65550952Y-83452380D01*
X65455714Y-83404761D01*
X65408095Y-83357142D01*
X65027142Y-73252380D02*
X64455714Y-73252380D01*
X64741428Y-73252380D02*
X64741428Y-72252380D01*
X64646190Y-72395238D01*
X64550952Y-72490476D01*
X64455714Y-72538095D01*
X65503333Y-73252380D02*
X65693809Y-73252380D01*
X65789047Y-73204761D01*
X65836666Y-73157142D01*
X65931904Y-73014285D01*
X65979523Y-72823809D01*
X65979523Y-72442857D01*
X65931904Y-72347619D01*
X65884285Y-72300000D01*
X65789047Y-72252380D01*
X65598571Y-72252380D01*
X65503333Y-72300000D01*
X65455714Y-72347619D01*
X65408095Y-72442857D01*
X65408095Y-72680952D01*
X65455714Y-72776190D01*
X65503333Y-72823809D01*
X65598571Y-72871428D01*
X65789047Y-72871428D01*
X65884285Y-72823809D01*
X65931904Y-72776190D01*
X65979523Y-72680952D01*
X64455714Y-69747619D02*
X64503333Y-69700000D01*
X64598571Y-69652380D01*
X64836666Y-69652380D01*
X64931904Y-69700000D01*
X64979523Y-69747619D01*
X65027142Y-69842857D01*
X65027142Y-69938095D01*
X64979523Y-70080952D01*
X64408095Y-70652380D01*
X65027142Y-70652380D01*
X65646190Y-69652380D02*
X65741428Y-69652380D01*
X65836666Y-69700000D01*
X65884285Y-69747619D01*
X65931904Y-69842857D01*
X65979523Y-70033333D01*
X65979523Y-70271428D01*
X65931904Y-70461904D01*
X65884285Y-70557142D01*
X65836666Y-70604761D01*
X65741428Y-70652380D01*
X65646190Y-70652380D01*
X65550952Y-70604761D01*
X65503333Y-70557142D01*
X65455714Y-70461904D01*
X65408095Y-70271428D01*
X65408095Y-70033333D01*
X65455714Y-69842857D01*
X65503333Y-69747619D01*
X65550952Y-69700000D01*
X65646190Y-69652380D01*
X54872857Y-74852380D02*
X55539523Y-74852380D01*
X55110952Y-75852380D01*
X55396666Y-72252380D02*
X55206190Y-72252380D01*
X55110952Y-72300000D01*
X55063333Y-72347619D01*
X54968095Y-72490476D01*
X54920476Y-72680952D01*
X54920476Y-73061904D01*
X54968095Y-73157142D01*
X55015714Y-73204761D01*
X55110952Y-73252380D01*
X55301428Y-73252380D01*
X55396666Y-73204761D01*
X55444285Y-73157142D01*
X55491904Y-73061904D01*
X55491904Y-72823809D01*
X55444285Y-72728571D01*
X55396666Y-72680952D01*
X55301428Y-72633333D01*
X55110952Y-72633333D01*
X55015714Y-72680952D01*
X54968095Y-72728571D01*
X54920476Y-72823809D01*
X55444285Y-69752380D02*
X54968095Y-69752380D01*
X54920476Y-70228571D01*
X54968095Y-70180952D01*
X55063333Y-70133333D01*
X55301428Y-70133333D01*
X55396666Y-70180952D01*
X55444285Y-70228571D01*
X55491904Y-70323809D01*
X55491904Y-70561904D01*
X55444285Y-70657142D01*
X55396666Y-70704761D01*
X55301428Y-70752380D01*
X55063333Y-70752380D01*
X54968095Y-70704761D01*
X54920476Y-70657142D01*
X55396666Y-67485714D02*
X55396666Y-68152380D01*
X55158571Y-67104761D02*
X54920476Y-67819047D01*
X55539523Y-67819047D01*
X54872857Y-64652380D02*
X55491904Y-64652380D01*
X55158571Y-65033333D01*
X55301428Y-65033333D01*
X55396666Y-65080952D01*
X55444285Y-65128571D01*
X55491904Y-65223809D01*
X55491904Y-65461904D01*
X55444285Y-65557142D01*
X55396666Y-65604761D01*
X55301428Y-65652380D01*
X55015714Y-65652380D01*
X54920476Y-65604761D01*
X54872857Y-65557142D01*
X64455714Y-67297619D02*
X64503333Y-67250000D01*
X64598571Y-67202380D01*
X64836666Y-67202380D01*
X64931904Y-67250000D01*
X64979523Y-67297619D01*
X65027142Y-67392857D01*
X65027142Y-67488095D01*
X64979523Y-67630952D01*
X64408095Y-68202380D01*
X65027142Y-68202380D01*
X65979523Y-68202380D02*
X65408095Y-68202380D01*
X65693809Y-68202380D02*
X65693809Y-67202380D01*
X65598571Y-67345238D01*
X65503333Y-67440476D01*
X65408095Y-67488095D01*
D11*
X53000000Y-90900000D02*
G75*
G02X51000000Y-88900000I0J2000000D01*
G01*
X69900000Y-88900000D02*
G75*
G02X67900000Y-90900000I-2000000J0D01*
G01*
X67900000Y-48000000D02*
G75*
G02X69900000Y-50000000I0J-2000000D01*
G01*
X51000000Y-50000000D02*
G75*
G02X53000000Y-48000000I2000000J0D01*
G01*
D10*
X64455714Y-64747619D02*
X64503333Y-64700000D01*
X64598571Y-64652380D01*
X64836666Y-64652380D01*
X64931904Y-64700000D01*
X64979523Y-64747619D01*
X65027142Y-64842857D01*
X65027142Y-64938095D01*
X64979523Y-65080952D01*
X64408095Y-65652380D01*
X65027142Y-65652380D01*
X65408095Y-64747619D02*
X65455714Y-64700000D01*
X65550952Y-64652380D01*
X65789047Y-64652380D01*
X65884285Y-64700000D01*
X65931904Y-64747619D01*
X65979523Y-64842857D01*
X65979523Y-64938095D01*
X65931904Y-65080952D01*
X65360476Y-65652380D01*
X65979523Y-65652380D01*
X64455714Y-62247619D02*
X64503333Y-62200000D01*
X64598571Y-62152380D01*
X64836666Y-62152380D01*
X64931904Y-62200000D01*
X64979523Y-62247619D01*
X65027142Y-62342857D01*
X65027142Y-62438095D01*
X64979523Y-62580952D01*
X64408095Y-63152380D01*
X65027142Y-63152380D01*
X65360476Y-62152380D02*
X65979523Y-62152380D01*
X65646190Y-62533333D01*
X65789047Y-62533333D01*
X65884285Y-62580952D01*
X65931904Y-62628571D01*
X65979523Y-62723809D01*
X65979523Y-62961904D01*
X65931904Y-63057142D01*
X65884285Y-63104761D01*
X65789047Y-63152380D01*
X65503333Y-63152380D01*
X65408095Y-63104761D01*
X65360476Y-63057142D01*
X64455714Y-59507142D02*
X64503333Y-59450000D01*
X64598571Y-59392857D01*
X64836666Y-59392857D01*
X64931904Y-59450000D01*
X64979523Y-59507142D01*
X65027142Y-59621428D01*
X65027142Y-59735714D01*
X64979523Y-59907142D01*
X64408095Y-60592857D01*
X65027142Y-60592857D01*
X65884285Y-59792857D02*
X65884285Y-60592857D01*
X65646190Y-59335714D02*
X65408095Y-60192857D01*
X66027142Y-60192857D01*
X54920476Y-62197619D02*
X54968095Y-62150000D01*
X55063333Y-62102380D01*
X55301428Y-62102380D01*
X55396666Y-62150000D01*
X55444285Y-62197619D01*
X55491904Y-62292857D01*
X55491904Y-62388095D01*
X55444285Y-62530952D01*
X54872857Y-63102380D01*
X55491904Y-63102380D01*
X55491904Y-60552380D02*
X54920476Y-60552380D01*
X55206190Y-60552380D02*
X55206190Y-59552380D01*
X55110952Y-59695238D01*
X55015714Y-59790476D01*
X54920476Y-59838095D01*
D11*
X67900000Y-90900000D02*
X53000000Y-90900000D01*
G36*
X69400000Y-57500000D02*
G01*
X51500000Y-57500000D01*
X51500000Y-53500000D01*
X69400000Y-53500000D01*
X69400000Y-57500000D01*
G37*
X69400000Y-57500000D02*
X51500000Y-57500000D01*
X51500000Y-53500000D01*
X69400000Y-53500000D01*
X69400000Y-57500000D01*
X69900000Y-50000000D02*
X69900000Y-88900000D01*
D12*
X55466666Y-49188095D02*
X56209523Y-49188095D01*
X55838095Y-50488095D02*
X55838095Y-49188095D01*
X56580952Y-50426190D02*
X56766666Y-50488095D01*
X57076190Y-50488095D01*
X57200000Y-50426190D01*
X57261904Y-50364285D01*
X57323809Y-50240476D01*
X57323809Y-50116666D01*
X57261904Y-49992857D01*
X57200000Y-49930952D01*
X57076190Y-49869047D01*
X56828571Y-49807142D01*
X56704761Y-49745238D01*
X56642857Y-49683333D01*
X56580952Y-49559523D01*
X56580952Y-49435714D01*
X56642857Y-49311904D01*
X56704761Y-49250000D01*
X56828571Y-49188095D01*
X57138095Y-49188095D01*
X57323809Y-49250000D01*
X57819047Y-50426190D02*
X58004761Y-50488095D01*
X58314285Y-50488095D01*
X58438095Y-50426190D01*
X58500000Y-50364285D01*
X58561904Y-50240476D01*
X58561904Y-50116666D01*
X58500000Y-49992857D01*
X58438095Y-49930952D01*
X58314285Y-49869047D01*
X58066666Y-49807142D01*
X57942857Y-49745238D01*
X57880952Y-49683333D01*
X57819047Y-49559523D01*
X57819047Y-49435714D01*
X57880952Y-49311904D01*
X57942857Y-49250000D01*
X58066666Y-49188095D01*
X58376190Y-49188095D01*
X58561904Y-49250000D01*
X59366666Y-49188095D02*
X59614285Y-49188095D01*
X59738095Y-49250000D01*
X59861904Y-49373809D01*
X59923809Y-49621428D01*
X59923809Y-50054761D01*
X59861904Y-50302380D01*
X59738095Y-50426190D01*
X59614285Y-50488095D01*
X59366666Y-50488095D01*
X59242857Y-50426190D01*
X59119047Y-50302380D01*
X59057142Y-50054761D01*
X59057142Y-49621428D01*
X59119047Y-49373809D01*
X59242857Y-49250000D01*
X59366666Y-49188095D01*
X60480952Y-50488095D02*
X60480952Y-49188095D01*
X60976190Y-49188095D01*
X61100000Y-49250000D01*
X61161904Y-49311904D01*
X61223809Y-49435714D01*
X61223809Y-49621428D01*
X61161904Y-49745238D01*
X61100000Y-49807142D01*
X60976190Y-49869047D01*
X60480952Y-49869047D01*
X61780952Y-49992857D02*
X62771428Y-49992857D01*
X63328571Y-49311904D02*
X63390476Y-49250000D01*
X63514285Y-49188095D01*
X63823809Y-49188095D01*
X63947619Y-49250000D01*
X64009523Y-49311904D01*
X64071428Y-49435714D01*
X64071428Y-49559523D01*
X64009523Y-49745238D01*
X63266666Y-50488095D01*
X64071428Y-50488095D01*
X65185714Y-49621428D02*
X65185714Y-50488095D01*
X64876190Y-49126190D02*
X64566666Y-50054761D01*
X65371428Y-50054761D01*
X54073809Y-51821428D02*
X54073809Y-52688095D01*
X53764285Y-51326190D02*
X53454761Y-52254761D01*
X54259523Y-52254761D01*
X54754761Y-52564285D02*
X54816666Y-52626190D01*
X54754761Y-52688095D01*
X54692857Y-52626190D01*
X54754761Y-52564285D01*
X54754761Y-52688095D01*
X55930952Y-51821428D02*
X55930952Y-52688095D01*
X55621428Y-51326190D02*
X55311904Y-52254761D01*
X56116666Y-52254761D01*
X56488095Y-52688095D02*
X57169047Y-51821428D01*
X56488095Y-51821428D02*
X57169047Y-52688095D01*
X57540476Y-51388095D02*
X58407142Y-51388095D01*
X57850000Y-52688095D01*
X58902380Y-52564285D02*
X58964285Y-52626190D01*
X58902380Y-52688095D01*
X58840476Y-52626190D01*
X58902380Y-52564285D01*
X58902380Y-52688095D01*
X59707142Y-51945238D02*
X59583333Y-51883333D01*
X59521428Y-51821428D01*
X59459523Y-51697619D01*
X59459523Y-51635714D01*
X59521428Y-51511904D01*
X59583333Y-51450000D01*
X59707142Y-51388095D01*
X59954761Y-51388095D01*
X60078571Y-51450000D01*
X60140476Y-51511904D01*
X60202380Y-51635714D01*
X60202380Y-51697619D01*
X60140476Y-51821428D01*
X60078571Y-51883333D01*
X59954761Y-51945238D01*
X59707142Y-51945238D01*
X59583333Y-52007142D01*
X59521428Y-52069047D01*
X59459523Y-52192857D01*
X59459523Y-52440476D01*
X59521428Y-52564285D01*
X59583333Y-52626190D01*
X59707142Y-52688095D01*
X59954761Y-52688095D01*
X60078571Y-52626190D01*
X60140476Y-52564285D01*
X60202380Y-52440476D01*
X60202380Y-52192857D01*
X60140476Y-52069047D01*
X60078571Y-52007142D01*
X59954761Y-51945238D01*
X60759523Y-52192857D02*
X61750000Y-52192857D01*
X62369047Y-52688095D02*
X62369047Y-51388095D01*
X62864285Y-51388095D01*
X62988095Y-51450000D01*
X63050000Y-51511904D01*
X63111904Y-51635714D01*
X63111904Y-51821428D01*
X63050000Y-51945238D01*
X62988095Y-52007142D01*
X62864285Y-52069047D01*
X62369047Y-52069047D01*
X63916666Y-51388095D02*
X64040476Y-51388095D01*
X64164285Y-51450000D01*
X64226190Y-51511904D01*
X64288095Y-51635714D01*
X64350000Y-51883333D01*
X64350000Y-52192857D01*
X64288095Y-52440476D01*
X64226190Y-52564285D01*
X64164285Y-52626190D01*
X64040476Y-52688095D01*
X63916666Y-52688095D01*
X63792857Y-52626190D01*
X63730952Y-52564285D01*
X63669047Y-52440476D01*
X63607142Y-52192857D01*
X63607142Y-51883333D01*
X63669047Y-51635714D01*
X63730952Y-51511904D01*
X63792857Y-51450000D01*
X63916666Y-51388095D01*
X64907142Y-52564285D02*
X64969047Y-52626190D01*
X64907142Y-52688095D01*
X64845238Y-52626190D01*
X64907142Y-52564285D01*
X64907142Y-52688095D01*
X66083333Y-51388095D02*
X65835714Y-51388095D01*
X65711904Y-51450000D01*
X65650000Y-51511904D01*
X65526190Y-51697619D01*
X65464285Y-51945238D01*
X65464285Y-52440476D01*
X65526190Y-52564285D01*
X65588095Y-52626190D01*
X65711904Y-52688095D01*
X65959523Y-52688095D01*
X66083333Y-52626190D01*
X66145238Y-52564285D01*
X66207142Y-52440476D01*
X66207142Y-52130952D01*
X66145238Y-52007142D01*
X66083333Y-51945238D01*
X65959523Y-51883333D01*
X65711904Y-51883333D01*
X65588095Y-51945238D01*
X65526190Y-52007142D01*
X65464285Y-52130952D01*
X67383333Y-51388095D02*
X66764285Y-51388095D01*
X66702380Y-52007142D01*
X66764285Y-51945238D01*
X66888095Y-51883333D01*
X67197619Y-51883333D01*
X67321428Y-51945238D01*
X67383333Y-52007142D01*
X67445238Y-52130952D01*
X67445238Y-52440476D01*
X67383333Y-52564285D01*
X67321428Y-52626190D01*
X67197619Y-52688095D01*
X66888095Y-52688095D01*
X66764285Y-52626190D01*
X66702380Y-52564285D01*
D11*
X53000000Y-48000000D02*
X67900000Y-48000000D01*
X51000000Y-88900000D02*
X51000000Y-50000000D01*
X57675000Y-78025000D02*
X62325000Y-78025000D01*
X56600000Y-69925000D02*
X62325000Y-69925000D01*
X57675000Y-78025000D02*
X57675000Y-78000000D01*
X62325000Y-78025000D02*
X62325000Y-78000000D01*
X62325000Y-69975000D02*
X62325000Y-70000000D01*
D13*
X69370000Y-89370000D02*
X68040000Y-89370000D01*
X69370000Y-88040000D02*
X69370000Y-89370000D01*
X69370000Y-86770000D02*
X66710000Y-86770000D01*
X66710000Y-86770000D02*
X66710000Y-58770000D01*
X69370000Y-86770000D02*
X69370000Y-58770000D01*
X69370000Y-58770000D02*
X66710000Y-58770000D01*
X51470000Y-58770000D02*
X52800000Y-58770000D01*
X51470000Y-60100000D02*
X51470000Y-58770000D01*
X51470000Y-61370000D02*
X54130000Y-61370000D01*
X54130000Y-61370000D02*
X54130000Y-89370000D01*
X51470000Y-61370000D02*
X51470000Y-89370000D01*
X51470000Y-89370000D02*
X54130000Y-89370000D01*
M02*
