M48
; DRILL file {KiCad 5.1.5-52549c5~84~ubuntu19.10.1} date ma 24. helmikuuta 2020 20.41.05
; FORMAT={-:-/ absolute / inch / decimal}
; #@! TF.CreationDate,2020-02-24T20:41:05+02:00
; #@! TF.GenerationSoftware,Kicad,Pcbnew,5.1.5-52549c5~84~ubuntu19.10.1
; #@! TF.FileFunction,Plated,1,2,PTH
FMAT,2
INCH
T1C0.0394
%
G90
G05
T1
X2.0787Y-2.3661
X2.0787Y-2.4661
X2.0787Y-2.5661
X2.0787Y-2.6661
X2.0787Y-2.7661
X2.0787Y-2.8661
X2.0787Y-2.9661
X2.0787Y-3.0661
X2.0787Y-3.1661
X2.0787Y-3.2661
X2.0787Y-3.3661
X2.0787Y-3.4661
X2.6787Y-2.3661
X2.6787Y-2.4661
X2.6787Y-2.5661
X2.6787Y-2.6661
X2.6787Y-2.7661
X2.6787Y-2.8661
X2.6787Y-2.9661
X2.6787Y-3.0661
X2.6787Y-3.1661
X2.6787Y-3.2661
X2.6787Y-3.3661
X2.6787Y-3.4661
T0
M30
