G04 #@! TF.GenerationSoftware,KiCad,Pcbnew,5.1.6-c6e7f7d~86~ubuntu20.04.1*
G04 #@! TF.CreationDate,2020-05-17T01:16:34+03:00*
G04 #@! TF.ProjectId,BRK-TSSOP-24-4.4x7.8-P0.65,42524b2d-5453-4534-9f50-2d32342d342e,v1.0*
G04 #@! TF.SameCoordinates,Original*
G04 #@! TF.FileFunction,Soldermask,Bot*
G04 #@! TF.FilePolarity,Negative*
%FSLAX46Y46*%
G04 Gerber Fmt 4.6, Leading zero omitted, Abs format (unit mm)*
G04 Created by KiCad (PCBNEW 5.1.6-c6e7f7d~86~ubuntu20.04.1) date 2020-05-17 01:16:34*
%MOMM*%
%LPD*%
G01*
G04 APERTURE LIST*
G04 #@! TA.AperFunction,Profile*
%ADD10C,0.150000*%
G04 #@! TD*
%ADD11O,1.700000X1.700000*%
%ADD12R,1.700000X1.700000*%
G04 APERTURE END LIST*
D10*
X53000000Y-90900000D02*
G75*
G02*
X51000000Y-88900000I0J2000000D01*
G01*
X69900000Y-88900000D02*
G75*
G02*
X67900000Y-90900000I-2000000J0D01*
G01*
X67900000Y-48000000D02*
G75*
G02*
X69900000Y-50000000I0J-2000000D01*
G01*
X51000000Y-50000000D02*
G75*
G02*
X53000000Y-48000000I2000000J0D01*
G01*
X67900000Y-90900000D02*
X53000000Y-90900000D01*
X69900000Y-50000000D02*
X69900000Y-88900000D01*
X53000000Y-48000000D02*
X67900000Y-48000000D01*
X51000000Y-88900000D02*
X51000000Y-50000000D01*
D11*
X68040000Y-60100000D03*
X68040000Y-62640000D03*
X68040000Y-65180000D03*
X68040000Y-67720000D03*
X68040000Y-70260000D03*
X68040000Y-72800000D03*
X68040000Y-75340000D03*
X68040000Y-77880000D03*
X68040000Y-80420000D03*
X68040000Y-82960000D03*
X68040000Y-85500000D03*
D12*
X68040000Y-88040000D03*
D11*
X52800000Y-88040000D03*
X52800000Y-85500000D03*
X52800000Y-82960000D03*
X52800000Y-80420000D03*
X52800000Y-77880000D03*
X52800000Y-75340000D03*
X52800000Y-72800000D03*
X52800000Y-70260000D03*
X52800000Y-67720000D03*
X52800000Y-65180000D03*
X52800000Y-62640000D03*
D12*
X52800000Y-60100000D03*
M02*
