G04 #@! TF.GenerationSoftware,KiCad,Pcbnew,5.1.6-c6e7f7d~86~ubuntu20.04.1*
G04 #@! TF.CreationDate,2020-05-17T01:16:34+03:00*
G04 #@! TF.ProjectId,BRK-TSSOP-24-4.4x7.8-P0.65,42524b2d-5453-4534-9f50-2d32342d342e,v1.0*
G04 #@! TF.SameCoordinates,Original*
G04 #@! TF.FileFunction,Paste,Top*
G04 #@! TF.FilePolarity,Positive*
%FSLAX46Y46*%
G04 Gerber Fmt 4.6, Leading zero omitted, Abs format (unit mm)*
G04 Created by KiCad (PCBNEW 5.1.6-c6e7f7d~86~ubuntu20.04.1) date 2020-05-17 01:16:34*
%MOMM*%
%LPD*%
G01*
G04 APERTURE LIST*
G04 #@! TA.AperFunction,Profile*
%ADD10C,0.150000*%
G04 #@! TD*
%ADD11R,1.100000X0.400000*%
G04 APERTURE END LIST*
D10*
X53000000Y-90900000D02*
G75*
G02*
X51000000Y-88900000I0J2000000D01*
G01*
X69900000Y-88900000D02*
G75*
G02*
X67900000Y-90900000I-2000000J0D01*
G01*
X67900000Y-48000000D02*
G75*
G02*
X69900000Y-50000000I0J-2000000D01*
G01*
X51000000Y-50000000D02*
G75*
G02*
X53000000Y-48000000I2000000J0D01*
G01*
X67900000Y-90900000D02*
X53000000Y-90900000D01*
X69900000Y-50000000D02*
X69900000Y-88900000D01*
X53000000Y-48000000D02*
X67900000Y-48000000D01*
X51000000Y-88900000D02*
X51000000Y-50000000D01*
D11*
X62850000Y-70425000D03*
X62850000Y-71075000D03*
X62850000Y-71725000D03*
X62850000Y-72375000D03*
X62850000Y-73025000D03*
X62850000Y-73675000D03*
X62850000Y-74325000D03*
X62850000Y-74975000D03*
X62850000Y-75625000D03*
X62850000Y-76275000D03*
X62850000Y-76925000D03*
X62850000Y-77575000D03*
X57150000Y-77575000D03*
X57150000Y-76925000D03*
X57150000Y-76275000D03*
X57150000Y-75625000D03*
X57150000Y-74975000D03*
X57150000Y-74325000D03*
X57150000Y-73675000D03*
X57150000Y-73025000D03*
X57150000Y-72375000D03*
X57150000Y-71725000D03*
X57150000Y-71075000D03*
X57150000Y-70425000D03*
M02*
