%TF.GenerationSoftware,KiCad,Pcbnew,5.1.7-a382d34a8~87~ubuntu20.04.1*%
%TF.CreationDate,2020-11-06T18:29:06+02:00*%
%TF.ProjectId,BRK-MSOP-8-3x3-P0.65,42524b2d-4d53-44f5-902d-382d3378332d,v1.0*%
%TF.SameCoordinates,Original*%
%TF.FileFunction,Paste,Top*%
%TF.FilePolarity,Positive*%
%FSLAX46Y46*%
G04 Gerber Fmt 4.6, Leading zero omitted, Abs format (unit mm)*
G04 Created by KiCad (PCBNEW 5.1.7-a382d34a8~87~ubuntu20.04.1) date 2020-11-06 18:29:06*
%MOMM*%
%LPD*%
G01*
G04 APERTURE LIST*
G04 APERTURE END LIST*
%TO.C,U1*%
G36*
G01*
X101300000Y-99125000D02*
X101300000Y-98925000D01*
G75*
G02*
X101400000Y-98825000I100000J0D01*
G01*
X102825000Y-98825000D01*
G75*
G02*
X102925000Y-98925000I0J-100000D01*
G01*
X102925000Y-99125000D01*
G75*
G02*
X102825000Y-99225000I-100000J0D01*
G01*
X101400000Y-99225000D01*
G75*
G02*
X101300000Y-99125000I0J100000D01*
G01*
G37*
G36*
G01*
X101300000Y-99775000D02*
X101300000Y-99575000D01*
G75*
G02*
X101400000Y-99475000I100000J0D01*
G01*
X102825000Y-99475000D01*
G75*
G02*
X102925000Y-99575000I0J-100000D01*
G01*
X102925000Y-99775000D01*
G75*
G02*
X102825000Y-99875000I-100000J0D01*
G01*
X101400000Y-99875000D01*
G75*
G02*
X101300000Y-99775000I0J100000D01*
G01*
G37*
G36*
G01*
X101300000Y-100425000D02*
X101300000Y-100225000D01*
G75*
G02*
X101400000Y-100125000I100000J0D01*
G01*
X102825000Y-100125000D01*
G75*
G02*
X102925000Y-100225000I0J-100000D01*
G01*
X102925000Y-100425000D01*
G75*
G02*
X102825000Y-100525000I-100000J0D01*
G01*
X101400000Y-100525000D01*
G75*
G02*
X101300000Y-100425000I0J100000D01*
G01*
G37*
G36*
G01*
X101300000Y-101075000D02*
X101300000Y-100875000D01*
G75*
G02*
X101400000Y-100775000I100000J0D01*
G01*
X102825000Y-100775000D01*
G75*
G02*
X102925000Y-100875000I0J-100000D01*
G01*
X102925000Y-101075000D01*
G75*
G02*
X102825000Y-101175000I-100000J0D01*
G01*
X101400000Y-101175000D01*
G75*
G02*
X101300000Y-101075000I0J100000D01*
G01*
G37*
G36*
G01*
X97075000Y-101075000D02*
X97075000Y-100875000D01*
G75*
G02*
X97175000Y-100775000I100000J0D01*
G01*
X98600000Y-100775000D01*
G75*
G02*
X98700000Y-100875000I0J-100000D01*
G01*
X98700000Y-101075000D01*
G75*
G02*
X98600000Y-101175000I-100000J0D01*
G01*
X97175000Y-101175000D01*
G75*
G02*
X97075000Y-101075000I0J100000D01*
G01*
G37*
G36*
G01*
X97075000Y-100425000D02*
X97075000Y-100225000D01*
G75*
G02*
X97175000Y-100125000I100000J0D01*
G01*
X98600000Y-100125000D01*
G75*
G02*
X98700000Y-100225000I0J-100000D01*
G01*
X98700000Y-100425000D01*
G75*
G02*
X98600000Y-100525000I-100000J0D01*
G01*
X97175000Y-100525000D01*
G75*
G02*
X97075000Y-100425000I0J100000D01*
G01*
G37*
G36*
G01*
X97075000Y-99775000D02*
X97075000Y-99575000D01*
G75*
G02*
X97175000Y-99475000I100000J0D01*
G01*
X98600000Y-99475000D01*
G75*
G02*
X98700000Y-99575000I0J-100000D01*
G01*
X98700000Y-99775000D01*
G75*
G02*
X98600000Y-99875000I-100000J0D01*
G01*
X97175000Y-99875000D01*
G75*
G02*
X97075000Y-99775000I0J100000D01*
G01*
G37*
G36*
G01*
X97075000Y-99125000D02*
X97075000Y-98925000D01*
G75*
G02*
X97175000Y-98825000I100000J0D01*
G01*
X98600000Y-98825000D01*
G75*
G02*
X98700000Y-98925000I0J-100000D01*
G01*
X98700000Y-99125000D01*
G75*
G02*
X98600000Y-99225000I-100000J0D01*
G01*
X97175000Y-99225000D01*
G75*
G02*
X97075000Y-99125000I0J100000D01*
G01*
G37*
%TD*%
M02*
