G04 #@! TF.GenerationSoftware,KiCad,Pcbnew,5.1.6-c6e7f7d~86~ubuntu20.04.1*
G04 #@! TF.CreationDate,2020-05-17T01:00:28+03:00*
G04 #@! TF.ProjectId,EV-BA33Dxx,45562d42-4133-4334-9478-782e6b696361,v1.0*
G04 #@! TF.SameCoordinates,Original*
G04 #@! TF.FileFunction,Copper,L1,Top*
G04 #@! TF.FilePolarity,Positive*
%FSLAX46Y46*%
G04 Gerber Fmt 4.6, Leading zero omitted, Abs format (unit mm)*
G04 Created by KiCad (PCBNEW 5.1.6-c6e7f7d~86~ubuntu20.04.1) date 2020-05-17 01:00:28*
%MOMM*%
%LPD*%
G01*
G04 APERTURE LIST*
G04 #@! TA.AperFunction,Profile*
%ADD10C,0.050000*%
G04 #@! TD*
G04 #@! TA.AperFunction,SMDPad,CuDef*
%ADD11R,1.070000X1.370000*%
G04 #@! TD*
G04 #@! TA.AperFunction,SMDPad,CuDef*
%ADD12R,10.000000X9.000000*%
G04 #@! TD*
G04 #@! TA.AperFunction,ViaPad*
%ADD13C,0.600000*%
G04 #@! TD*
G04 #@! TA.AperFunction,ComponentPad*
%ADD14O,1.700000X1.700000*%
G04 #@! TD*
G04 #@! TA.AperFunction,ComponentPad*
%ADD15R,1.700000X1.700000*%
G04 #@! TD*
G04 #@! TA.AperFunction,ViaPad*
%ADD16C,0.800000*%
G04 #@! TD*
G04 #@! TA.AperFunction,Conductor*
%ADD17C,0.800000*%
G04 #@! TD*
G04 #@! TA.AperFunction,Conductor*
%ADD18C,0.200000*%
G04 #@! TD*
G04 APERTURE END LIST*
D10*
X53000000Y-79000000D02*
G75*
G02*
X50000000Y-76000000I0J3000000D01*
G01*
X50000000Y-53000000D02*
G75*
G02*
X53000000Y-50000000I3000000J0D01*
G01*
X67000000Y-50000000D02*
G75*
G02*
X70000000Y-53000000I0J-3000000D01*
G01*
X70000000Y-76000000D02*
G75*
G02*
X67000000Y-79000000I-3000000J0D01*
G01*
X50000000Y-76000000D02*
X50000000Y-53000000D01*
X67000000Y-79000000D02*
X53000000Y-79000000D01*
X70000000Y-53000000D02*
X70000000Y-76000000D01*
X53000000Y-50000000D02*
X67000000Y-50000000D01*
D11*
X56560000Y-62670000D03*
X58280000Y-62670000D03*
X60000000Y-62670000D03*
D12*
X60000000Y-56545000D03*
D13*
X55800000Y-60145000D03*
X57000000Y-60145000D03*
X58200000Y-60145000D03*
X59400000Y-60145000D03*
X60600000Y-60145000D03*
X61800000Y-60145000D03*
X63000000Y-60145000D03*
X64200000Y-60145000D03*
X55800000Y-58945000D03*
X57000000Y-58945000D03*
X58200000Y-58945000D03*
X59400000Y-58945000D03*
X60600000Y-58945000D03*
X61800000Y-58945000D03*
X63000000Y-58945000D03*
X64200000Y-58945000D03*
X55800000Y-57745000D03*
X57000000Y-57745000D03*
X58200000Y-57745000D03*
X59400000Y-57745000D03*
X60600000Y-57745000D03*
X61800000Y-57745000D03*
X63000000Y-57745000D03*
X64200000Y-57745000D03*
X55800000Y-56545000D03*
X57000000Y-56545000D03*
X58200000Y-56545000D03*
X59400000Y-56545000D03*
X60600000Y-56545000D03*
X61800000Y-56545000D03*
X63000000Y-56545000D03*
X64200000Y-56545000D03*
X55800000Y-55345000D03*
X57000000Y-55345000D03*
X58200000Y-55345000D03*
X59400000Y-55345000D03*
X60600000Y-55345000D03*
X61800000Y-55345000D03*
X63000000Y-55345000D03*
X64200000Y-55345000D03*
X55800000Y-54145000D03*
X57000000Y-54145000D03*
X58200000Y-54145000D03*
X59400000Y-54145000D03*
X60600000Y-54145000D03*
X61800000Y-54145000D03*
X63000000Y-54145000D03*
X64200000Y-54145000D03*
X55800000Y-52945000D03*
X57000000Y-52945000D03*
X58200000Y-52945000D03*
X59400000Y-52945000D03*
X60600000Y-52945000D03*
X61800000Y-52945000D03*
X63000000Y-52945000D03*
X64200000Y-52945000D03*
D11*
X61720000Y-62670000D03*
X63440000Y-62670000D03*
D14*
X65060000Y-77200000D03*
X62520000Y-77200000D03*
X59980000Y-77200000D03*
X57440000Y-77200000D03*
D15*
X54900000Y-77200000D03*
G04 #@! TA.AperFunction,SMDPad,CuDef*
G36*
G01*
X59225000Y-65725000D02*
X59225000Y-67875000D01*
G75*
G02*
X58975000Y-68125000I-250000J0D01*
G01*
X58050000Y-68125000D01*
G75*
G02*
X57800000Y-67875000I0J250000D01*
G01*
X57800000Y-65725000D01*
G75*
G02*
X58050000Y-65475000I250000J0D01*
G01*
X58975000Y-65475000D01*
G75*
G02*
X59225000Y-65725000I0J-250000D01*
G01*
G37*
G04 #@! TD.AperFunction*
G04 #@! TA.AperFunction,SMDPad,CuDef*
G36*
G01*
X62200000Y-65725000D02*
X62200000Y-67875000D01*
G75*
G02*
X61950000Y-68125000I-250000J0D01*
G01*
X61025000Y-68125000D01*
G75*
G02*
X60775000Y-67875000I0J250000D01*
G01*
X60775000Y-65725000D01*
G75*
G02*
X61025000Y-65475000I250000J0D01*
G01*
X61950000Y-65475000D01*
G75*
G02*
X62200000Y-65725000I0J-250000D01*
G01*
G37*
G04 #@! TD.AperFunction*
G04 #@! TA.AperFunction,SMDPad,CuDef*
G36*
G01*
X65975000Y-67875000D02*
X65975000Y-65725000D01*
G75*
G02*
X66225000Y-65475000I250000J0D01*
G01*
X67150000Y-65475000D01*
G75*
G02*
X67400000Y-65725000I0J-250000D01*
G01*
X67400000Y-67875000D01*
G75*
G02*
X67150000Y-68125000I-250000J0D01*
G01*
X66225000Y-68125000D01*
G75*
G02*
X65975000Y-67875000I0J250000D01*
G01*
G37*
G04 #@! TD.AperFunction*
G04 #@! TA.AperFunction,SMDPad,CuDef*
G36*
G01*
X63000000Y-67875000D02*
X63000000Y-65725000D01*
G75*
G02*
X63250000Y-65475000I250000J0D01*
G01*
X64175000Y-65475000D01*
G75*
G02*
X64425000Y-65725000I0J-250000D01*
G01*
X64425000Y-67875000D01*
G75*
G02*
X64175000Y-68125000I-250000J0D01*
G01*
X63250000Y-68125000D01*
G75*
G02*
X63000000Y-67875000I0J250000D01*
G01*
G37*
G04 #@! TD.AperFunction*
G04 #@! TA.AperFunction,SMDPad,CuDef*
G36*
G01*
X54025000Y-64475000D02*
X54025000Y-65725000D01*
G75*
G02*
X53775000Y-65975000I-250000J0D01*
G01*
X52850000Y-65975000D01*
G75*
G02*
X52600000Y-65725000I0J250000D01*
G01*
X52600000Y-64475000D01*
G75*
G02*
X52850000Y-64225000I250000J0D01*
G01*
X53775000Y-64225000D01*
G75*
G02*
X54025000Y-64475000I0J-250000D01*
G01*
G37*
G04 #@! TD.AperFunction*
G04 #@! TA.AperFunction,SMDPad,CuDef*
G36*
G01*
X57000000Y-64475000D02*
X57000000Y-65725000D01*
G75*
G02*
X56750000Y-65975000I-250000J0D01*
G01*
X55825000Y-65975000D01*
G75*
G02*
X55575000Y-65725000I0J250000D01*
G01*
X55575000Y-64475000D01*
G75*
G02*
X55825000Y-64225000I250000J0D01*
G01*
X56750000Y-64225000D01*
G75*
G02*
X57000000Y-64475000I0J-250000D01*
G01*
G37*
G04 #@! TD.AperFunction*
D16*
X60000000Y-64100000D03*
X53300000Y-66700000D03*
X53300000Y-63500000D03*
X58500000Y-64800000D03*
X58500000Y-68800000D03*
X66700000Y-64800000D03*
X66700000Y-68800000D03*
X68200000Y-70800000D03*
X67900000Y-75500000D03*
X51500000Y-76100000D03*
X52200000Y-71500000D03*
X53300000Y-58900000D03*
X52300000Y-51800000D03*
X68000000Y-51800000D03*
X66400000Y-58600000D03*
X58500000Y-72000000D03*
D17*
X60000000Y-62670000D02*
X60000000Y-64100000D01*
X53312500Y-65100000D02*
X53312500Y-66687500D01*
X53312500Y-66687500D02*
X53300000Y-66700000D01*
X53312500Y-65100000D02*
X53312500Y-63512500D01*
X53312500Y-63512500D02*
X53300000Y-63500000D01*
X58512500Y-66800000D02*
X58512500Y-64812500D01*
X58512500Y-64812500D02*
X58500000Y-64800000D01*
X58512500Y-66800000D02*
X58512500Y-68787500D01*
X58512500Y-68787500D02*
X58500000Y-68800000D01*
X66687500Y-66800000D02*
X66687500Y-64812500D01*
X66687500Y-64812500D02*
X66700000Y-64800000D01*
X66687500Y-66800000D02*
X66687500Y-68787500D01*
X66687500Y-68787500D02*
X66700000Y-68800000D01*
X56560000Y-64827500D02*
X56287500Y-65100000D01*
X56560000Y-62670000D02*
X56560000Y-64827500D01*
X56287500Y-66612500D02*
X56287500Y-65100000D01*
X54900000Y-68000000D02*
X56287500Y-66612500D01*
X54900000Y-68000000D02*
X54900000Y-77200000D01*
X63440000Y-66527500D02*
X63712500Y-66800000D01*
X63440000Y-62670000D02*
X63440000Y-66527500D01*
X63712500Y-68512500D02*
X63712500Y-66800000D01*
X65060000Y-69860000D02*
X63712500Y-68512500D01*
X65060000Y-69860000D02*
X65060000Y-77200000D01*
X61720000Y-66567500D02*
X61487500Y-66800000D01*
X61720000Y-62670000D02*
X61720000Y-66567500D01*
X61487500Y-68987500D02*
X61487500Y-66800000D01*
X62520000Y-70020000D02*
X61487500Y-68987500D01*
X62520000Y-70020000D02*
X62520000Y-77200000D01*
D18*
G36*
X67499759Y-50476041D02*
G01*
X67980480Y-50621179D01*
X68423856Y-50856925D01*
X68812996Y-51174300D01*
X69133081Y-51561216D01*
X69371919Y-52002939D01*
X69520410Y-52482634D01*
X69575000Y-53002025D01*
X69575001Y-75979200D01*
X69523959Y-76499759D01*
X69378821Y-76980480D01*
X69143075Y-77423856D01*
X68825697Y-77812998D01*
X68438784Y-78133081D01*
X67997061Y-78371919D01*
X67517368Y-78520410D01*
X66997975Y-78575000D01*
X53020790Y-78575000D01*
X52500241Y-78523959D01*
X52019520Y-78378821D01*
X51576144Y-78143075D01*
X51187002Y-77825697D01*
X50866919Y-77438784D01*
X50628081Y-76997061D01*
X50479590Y-76517368D01*
X50462000Y-76350000D01*
X53648065Y-76350000D01*
X53648065Y-78050000D01*
X53655788Y-78128414D01*
X53678660Y-78203814D01*
X53715803Y-78273303D01*
X53765789Y-78334211D01*
X53826697Y-78384197D01*
X53896186Y-78421340D01*
X53971586Y-78444212D01*
X54050000Y-78451935D01*
X55750000Y-78451935D01*
X55828414Y-78444212D01*
X55903814Y-78421340D01*
X55973303Y-78384197D01*
X56034211Y-78334211D01*
X56084197Y-78273303D01*
X56121340Y-78203814D01*
X56144212Y-78128414D01*
X56151935Y-78050000D01*
X56151935Y-77076886D01*
X56190000Y-77076886D01*
X56190000Y-77323114D01*
X56238037Y-77564611D01*
X56332265Y-77792097D01*
X56469062Y-77996828D01*
X56643172Y-78170938D01*
X56847903Y-78307735D01*
X57075389Y-78401963D01*
X57316886Y-78450000D01*
X57563114Y-78450000D01*
X57804611Y-78401963D01*
X58032097Y-78307735D01*
X58236828Y-78170938D01*
X58410938Y-77996828D01*
X58547735Y-77792097D01*
X58641963Y-77564611D01*
X58690000Y-77323114D01*
X58690000Y-77076886D01*
X58641963Y-76835389D01*
X58547735Y-76607903D01*
X58410938Y-76403172D01*
X58236828Y-76229062D01*
X58032097Y-76092265D01*
X57804611Y-75998037D01*
X57563114Y-75950000D01*
X57316886Y-75950000D01*
X57075389Y-75998037D01*
X56847903Y-76092265D01*
X56643172Y-76229062D01*
X56469062Y-76403172D01*
X56332265Y-76607903D01*
X56238037Y-76835389D01*
X56190000Y-77076886D01*
X56151935Y-77076886D01*
X56151935Y-76350000D01*
X56144212Y-76271586D01*
X56121340Y-76196186D01*
X56084197Y-76126697D01*
X56034211Y-76065789D01*
X55973303Y-76015803D01*
X55903814Y-75978660D01*
X55828414Y-75955788D01*
X55750000Y-75948065D01*
X55700000Y-75948065D01*
X55700000Y-68331370D01*
X56825403Y-67205968D01*
X56855922Y-67180922D01*
X56892852Y-67135922D01*
X56955893Y-67059107D01*
X56981769Y-67010697D01*
X57030179Y-66920128D01*
X57075924Y-66769327D01*
X57087500Y-66651793D01*
X57087500Y-66651784D01*
X57091369Y-66612501D01*
X57087500Y-66573218D01*
X57087500Y-66280264D01*
X57112196Y-66267064D01*
X57210988Y-66185988D01*
X57292064Y-66087196D01*
X57352309Y-65974485D01*
X57389408Y-65852186D01*
X57401935Y-65725000D01*
X60373065Y-65725000D01*
X60373065Y-67875000D01*
X60385592Y-68002186D01*
X60422691Y-68124485D01*
X60482936Y-68237196D01*
X60564012Y-68335988D01*
X60662804Y-68417064D01*
X60687500Y-68430264D01*
X60687500Y-68948209D01*
X60683630Y-68987500D01*
X60687500Y-69026791D01*
X60687500Y-69026792D01*
X60699076Y-69144326D01*
X60713419Y-69191607D01*
X60744821Y-69295127D01*
X60819107Y-69434106D01*
X60833446Y-69451578D01*
X60919078Y-69555922D01*
X60949603Y-69580973D01*
X61720000Y-70351371D01*
X61720001Y-76232233D01*
X61549062Y-76403172D01*
X61412265Y-76607903D01*
X61318037Y-76835389D01*
X61270000Y-77076886D01*
X61270000Y-77323114D01*
X61318037Y-77564611D01*
X61412265Y-77792097D01*
X61549062Y-77996828D01*
X61723172Y-78170938D01*
X61927903Y-78307735D01*
X62155389Y-78401963D01*
X62396886Y-78450000D01*
X62643114Y-78450000D01*
X62884611Y-78401963D01*
X63112097Y-78307735D01*
X63316828Y-78170938D01*
X63490938Y-77996828D01*
X63627735Y-77792097D01*
X63721963Y-77564611D01*
X63770000Y-77323114D01*
X63770000Y-77076886D01*
X63721963Y-76835389D01*
X63627735Y-76607903D01*
X63490938Y-76403172D01*
X63320000Y-76232234D01*
X63320000Y-70059291D01*
X63323870Y-70020000D01*
X63320000Y-69980707D01*
X63308424Y-69863173D01*
X63262679Y-69712372D01*
X63188394Y-69573395D01*
X63188393Y-69573393D01*
X63113470Y-69482099D01*
X63113469Y-69482098D01*
X63088422Y-69451578D01*
X63057903Y-69426532D01*
X62287500Y-68656130D01*
X62287500Y-68430264D01*
X62312196Y-68417064D01*
X62410988Y-68335988D01*
X62492064Y-68237196D01*
X62552309Y-68124485D01*
X62589408Y-68002186D01*
X62600000Y-67894646D01*
X62610592Y-68002186D01*
X62647691Y-68124485D01*
X62707936Y-68237196D01*
X62789012Y-68335988D01*
X62887804Y-68417064D01*
X62912500Y-68430264D01*
X62912500Y-68473209D01*
X62908630Y-68512500D01*
X62912500Y-68551791D01*
X62912500Y-68551792D01*
X62924076Y-68669326D01*
X62969821Y-68820127D01*
X63044107Y-68959106D01*
X63089651Y-69014601D01*
X63144078Y-69080922D01*
X63174603Y-69105973D01*
X64260000Y-70191370D01*
X64260001Y-76232233D01*
X64089062Y-76403172D01*
X63952265Y-76607903D01*
X63858037Y-76835389D01*
X63810000Y-77076886D01*
X63810000Y-77323114D01*
X63858037Y-77564611D01*
X63952265Y-77792097D01*
X64089062Y-77996828D01*
X64263172Y-78170938D01*
X64467903Y-78307735D01*
X64695389Y-78401963D01*
X64936886Y-78450000D01*
X65183114Y-78450000D01*
X65424611Y-78401963D01*
X65652097Y-78307735D01*
X65856828Y-78170938D01*
X66030938Y-77996828D01*
X66167735Y-77792097D01*
X66261963Y-77564611D01*
X66310000Y-77323114D01*
X66310000Y-77076886D01*
X66261963Y-76835389D01*
X66167735Y-76607903D01*
X66030938Y-76403172D01*
X65860000Y-76232234D01*
X65860000Y-69899291D01*
X65863870Y-69860000D01*
X65860000Y-69820707D01*
X65848424Y-69703173D01*
X65802679Y-69552372D01*
X65739464Y-69434106D01*
X65728393Y-69413393D01*
X65677686Y-69351607D01*
X65628422Y-69291578D01*
X65597898Y-69266528D01*
X64650128Y-68318758D01*
X64717064Y-68237196D01*
X64777309Y-68124485D01*
X64814408Y-68002186D01*
X64826935Y-67875000D01*
X64826935Y-65725000D01*
X64814408Y-65597814D01*
X64777309Y-65475515D01*
X64717064Y-65362804D01*
X64635988Y-65264012D01*
X64537196Y-65182936D01*
X64424485Y-65122691D01*
X64302186Y-65085592D01*
X64240000Y-65079467D01*
X64240000Y-63654977D01*
X64259211Y-63639211D01*
X64309197Y-63578303D01*
X64346340Y-63508814D01*
X64369212Y-63433414D01*
X64376935Y-63355000D01*
X64376935Y-61985000D01*
X64369212Y-61906586D01*
X64346340Y-61831186D01*
X64309197Y-61761697D01*
X64259211Y-61700789D01*
X64198303Y-61650803D01*
X64128814Y-61613660D01*
X64053414Y-61590788D01*
X63975000Y-61583065D01*
X62905000Y-61583065D01*
X62826586Y-61590788D01*
X62751186Y-61613660D01*
X62681697Y-61650803D01*
X62620789Y-61700789D01*
X62580000Y-61750490D01*
X62539211Y-61700789D01*
X62478303Y-61650803D01*
X62408814Y-61613660D01*
X62333414Y-61590788D01*
X62255000Y-61583065D01*
X61185000Y-61583065D01*
X61106586Y-61590788D01*
X61031186Y-61613660D01*
X60961697Y-61650803D01*
X60900789Y-61700789D01*
X60850803Y-61761697D01*
X60813660Y-61831186D01*
X60790788Y-61906586D01*
X60783065Y-61985000D01*
X60783065Y-63355000D01*
X60790788Y-63433414D01*
X60813660Y-63508814D01*
X60850803Y-63578303D01*
X60900789Y-63639211D01*
X60920000Y-63654977D01*
X60920001Y-65083407D01*
X60897814Y-65085592D01*
X60775515Y-65122691D01*
X60662804Y-65182936D01*
X60564012Y-65264012D01*
X60482936Y-65362804D01*
X60422691Y-65475515D01*
X60385592Y-65597814D01*
X60373065Y-65725000D01*
X57401935Y-65725000D01*
X57401935Y-64475000D01*
X57389408Y-64347814D01*
X57360000Y-64250869D01*
X57360000Y-63654977D01*
X57379211Y-63639211D01*
X57420000Y-63589510D01*
X57460789Y-63639211D01*
X57521697Y-63689197D01*
X57591186Y-63726340D01*
X57666586Y-63749212D01*
X57745000Y-63756935D01*
X58815000Y-63756935D01*
X58893414Y-63749212D01*
X58968814Y-63726340D01*
X59038303Y-63689197D01*
X59099211Y-63639211D01*
X59149197Y-63578303D01*
X59186340Y-63508814D01*
X59209212Y-63433414D01*
X59216935Y-63355000D01*
X59216935Y-61985000D01*
X59209212Y-61906586D01*
X59186340Y-61831186D01*
X59149197Y-61761697D01*
X59099211Y-61700789D01*
X59038303Y-61650803D01*
X58968814Y-61613660D01*
X58893414Y-61590788D01*
X58815000Y-61583065D01*
X57745000Y-61583065D01*
X57666586Y-61590788D01*
X57591186Y-61613660D01*
X57521697Y-61650803D01*
X57460789Y-61700789D01*
X57420000Y-61750490D01*
X57379211Y-61700789D01*
X57318303Y-61650803D01*
X57248814Y-61613660D01*
X57173414Y-61590788D01*
X57095000Y-61583065D01*
X56025000Y-61583065D01*
X55946586Y-61590788D01*
X55871186Y-61613660D01*
X55801697Y-61650803D01*
X55740789Y-61700789D01*
X55690803Y-61761697D01*
X55653660Y-61831186D01*
X55630788Y-61906586D01*
X55623065Y-61985000D01*
X55623065Y-63355000D01*
X55630788Y-63433414D01*
X55653660Y-63508814D01*
X55690803Y-63578303D01*
X55740789Y-63639211D01*
X55760000Y-63654977D01*
X55760001Y-63829467D01*
X55697814Y-63835592D01*
X55575515Y-63872691D01*
X55462804Y-63932936D01*
X55364012Y-64014012D01*
X55282936Y-64112804D01*
X55222691Y-64225515D01*
X55185592Y-64347814D01*
X55173065Y-64475000D01*
X55173065Y-65725000D01*
X55185592Y-65852186D01*
X55222691Y-65974485D01*
X55282936Y-66087196D01*
X55364012Y-66185988D01*
X55462804Y-66267064D01*
X55487500Y-66280264D01*
X55487500Y-66281129D01*
X54362103Y-67406527D01*
X54331578Y-67431578D01*
X54277151Y-67497899D01*
X54231607Y-67553394D01*
X54204627Y-67603870D01*
X54157321Y-67692373D01*
X54111576Y-67843174D01*
X54104105Y-67919031D01*
X54096130Y-68000000D01*
X54100000Y-68039291D01*
X54100001Y-75948065D01*
X54050000Y-75948065D01*
X53971586Y-75955788D01*
X53896186Y-75978660D01*
X53826697Y-76015803D01*
X53765789Y-76065789D01*
X53715803Y-76126697D01*
X53678660Y-76196186D01*
X53655788Y-76271586D01*
X53648065Y-76350000D01*
X50462000Y-76350000D01*
X50425000Y-75997975D01*
X50425000Y-53020790D01*
X50476041Y-52500241D01*
X50621179Y-52019520D01*
X50856925Y-51576144D01*
X51174300Y-51187004D01*
X51561216Y-50866919D01*
X52002939Y-50628081D01*
X52482634Y-50479590D01*
X53002025Y-50425000D01*
X66979210Y-50425000D01*
X67499759Y-50476041D01*
G37*
X67499759Y-50476041D02*
X67980480Y-50621179D01*
X68423856Y-50856925D01*
X68812996Y-51174300D01*
X69133081Y-51561216D01*
X69371919Y-52002939D01*
X69520410Y-52482634D01*
X69575000Y-53002025D01*
X69575001Y-75979200D01*
X69523959Y-76499759D01*
X69378821Y-76980480D01*
X69143075Y-77423856D01*
X68825697Y-77812998D01*
X68438784Y-78133081D01*
X67997061Y-78371919D01*
X67517368Y-78520410D01*
X66997975Y-78575000D01*
X53020790Y-78575000D01*
X52500241Y-78523959D01*
X52019520Y-78378821D01*
X51576144Y-78143075D01*
X51187002Y-77825697D01*
X50866919Y-77438784D01*
X50628081Y-76997061D01*
X50479590Y-76517368D01*
X50462000Y-76350000D01*
X53648065Y-76350000D01*
X53648065Y-78050000D01*
X53655788Y-78128414D01*
X53678660Y-78203814D01*
X53715803Y-78273303D01*
X53765789Y-78334211D01*
X53826697Y-78384197D01*
X53896186Y-78421340D01*
X53971586Y-78444212D01*
X54050000Y-78451935D01*
X55750000Y-78451935D01*
X55828414Y-78444212D01*
X55903814Y-78421340D01*
X55973303Y-78384197D01*
X56034211Y-78334211D01*
X56084197Y-78273303D01*
X56121340Y-78203814D01*
X56144212Y-78128414D01*
X56151935Y-78050000D01*
X56151935Y-77076886D01*
X56190000Y-77076886D01*
X56190000Y-77323114D01*
X56238037Y-77564611D01*
X56332265Y-77792097D01*
X56469062Y-77996828D01*
X56643172Y-78170938D01*
X56847903Y-78307735D01*
X57075389Y-78401963D01*
X57316886Y-78450000D01*
X57563114Y-78450000D01*
X57804611Y-78401963D01*
X58032097Y-78307735D01*
X58236828Y-78170938D01*
X58410938Y-77996828D01*
X58547735Y-77792097D01*
X58641963Y-77564611D01*
X58690000Y-77323114D01*
X58690000Y-77076886D01*
X58641963Y-76835389D01*
X58547735Y-76607903D01*
X58410938Y-76403172D01*
X58236828Y-76229062D01*
X58032097Y-76092265D01*
X57804611Y-75998037D01*
X57563114Y-75950000D01*
X57316886Y-75950000D01*
X57075389Y-75998037D01*
X56847903Y-76092265D01*
X56643172Y-76229062D01*
X56469062Y-76403172D01*
X56332265Y-76607903D01*
X56238037Y-76835389D01*
X56190000Y-77076886D01*
X56151935Y-77076886D01*
X56151935Y-76350000D01*
X56144212Y-76271586D01*
X56121340Y-76196186D01*
X56084197Y-76126697D01*
X56034211Y-76065789D01*
X55973303Y-76015803D01*
X55903814Y-75978660D01*
X55828414Y-75955788D01*
X55750000Y-75948065D01*
X55700000Y-75948065D01*
X55700000Y-68331370D01*
X56825403Y-67205968D01*
X56855922Y-67180922D01*
X56892852Y-67135922D01*
X56955893Y-67059107D01*
X56981769Y-67010697D01*
X57030179Y-66920128D01*
X57075924Y-66769327D01*
X57087500Y-66651793D01*
X57087500Y-66651784D01*
X57091369Y-66612501D01*
X57087500Y-66573218D01*
X57087500Y-66280264D01*
X57112196Y-66267064D01*
X57210988Y-66185988D01*
X57292064Y-66087196D01*
X57352309Y-65974485D01*
X57389408Y-65852186D01*
X57401935Y-65725000D01*
X60373065Y-65725000D01*
X60373065Y-67875000D01*
X60385592Y-68002186D01*
X60422691Y-68124485D01*
X60482936Y-68237196D01*
X60564012Y-68335988D01*
X60662804Y-68417064D01*
X60687500Y-68430264D01*
X60687500Y-68948209D01*
X60683630Y-68987500D01*
X60687500Y-69026791D01*
X60687500Y-69026792D01*
X60699076Y-69144326D01*
X60713419Y-69191607D01*
X60744821Y-69295127D01*
X60819107Y-69434106D01*
X60833446Y-69451578D01*
X60919078Y-69555922D01*
X60949603Y-69580973D01*
X61720000Y-70351371D01*
X61720001Y-76232233D01*
X61549062Y-76403172D01*
X61412265Y-76607903D01*
X61318037Y-76835389D01*
X61270000Y-77076886D01*
X61270000Y-77323114D01*
X61318037Y-77564611D01*
X61412265Y-77792097D01*
X61549062Y-77996828D01*
X61723172Y-78170938D01*
X61927903Y-78307735D01*
X62155389Y-78401963D01*
X62396886Y-78450000D01*
X62643114Y-78450000D01*
X62884611Y-78401963D01*
X63112097Y-78307735D01*
X63316828Y-78170938D01*
X63490938Y-77996828D01*
X63627735Y-77792097D01*
X63721963Y-77564611D01*
X63770000Y-77323114D01*
X63770000Y-77076886D01*
X63721963Y-76835389D01*
X63627735Y-76607903D01*
X63490938Y-76403172D01*
X63320000Y-76232234D01*
X63320000Y-70059291D01*
X63323870Y-70020000D01*
X63320000Y-69980707D01*
X63308424Y-69863173D01*
X63262679Y-69712372D01*
X63188394Y-69573395D01*
X63188393Y-69573393D01*
X63113470Y-69482099D01*
X63113469Y-69482098D01*
X63088422Y-69451578D01*
X63057903Y-69426532D01*
X62287500Y-68656130D01*
X62287500Y-68430264D01*
X62312196Y-68417064D01*
X62410988Y-68335988D01*
X62492064Y-68237196D01*
X62552309Y-68124485D01*
X62589408Y-68002186D01*
X62600000Y-67894646D01*
X62610592Y-68002186D01*
X62647691Y-68124485D01*
X62707936Y-68237196D01*
X62789012Y-68335988D01*
X62887804Y-68417064D01*
X62912500Y-68430264D01*
X62912500Y-68473209D01*
X62908630Y-68512500D01*
X62912500Y-68551791D01*
X62912500Y-68551792D01*
X62924076Y-68669326D01*
X62969821Y-68820127D01*
X63044107Y-68959106D01*
X63089651Y-69014601D01*
X63144078Y-69080922D01*
X63174603Y-69105973D01*
X64260000Y-70191370D01*
X64260001Y-76232233D01*
X64089062Y-76403172D01*
X63952265Y-76607903D01*
X63858037Y-76835389D01*
X63810000Y-77076886D01*
X63810000Y-77323114D01*
X63858037Y-77564611D01*
X63952265Y-77792097D01*
X64089062Y-77996828D01*
X64263172Y-78170938D01*
X64467903Y-78307735D01*
X64695389Y-78401963D01*
X64936886Y-78450000D01*
X65183114Y-78450000D01*
X65424611Y-78401963D01*
X65652097Y-78307735D01*
X65856828Y-78170938D01*
X66030938Y-77996828D01*
X66167735Y-77792097D01*
X66261963Y-77564611D01*
X66310000Y-77323114D01*
X66310000Y-77076886D01*
X66261963Y-76835389D01*
X66167735Y-76607903D01*
X66030938Y-76403172D01*
X65860000Y-76232234D01*
X65860000Y-69899291D01*
X65863870Y-69860000D01*
X65860000Y-69820707D01*
X65848424Y-69703173D01*
X65802679Y-69552372D01*
X65739464Y-69434106D01*
X65728393Y-69413393D01*
X65677686Y-69351607D01*
X65628422Y-69291578D01*
X65597898Y-69266528D01*
X64650128Y-68318758D01*
X64717064Y-68237196D01*
X64777309Y-68124485D01*
X64814408Y-68002186D01*
X64826935Y-67875000D01*
X64826935Y-65725000D01*
X64814408Y-65597814D01*
X64777309Y-65475515D01*
X64717064Y-65362804D01*
X64635988Y-65264012D01*
X64537196Y-65182936D01*
X64424485Y-65122691D01*
X64302186Y-65085592D01*
X64240000Y-65079467D01*
X64240000Y-63654977D01*
X64259211Y-63639211D01*
X64309197Y-63578303D01*
X64346340Y-63508814D01*
X64369212Y-63433414D01*
X64376935Y-63355000D01*
X64376935Y-61985000D01*
X64369212Y-61906586D01*
X64346340Y-61831186D01*
X64309197Y-61761697D01*
X64259211Y-61700789D01*
X64198303Y-61650803D01*
X64128814Y-61613660D01*
X64053414Y-61590788D01*
X63975000Y-61583065D01*
X62905000Y-61583065D01*
X62826586Y-61590788D01*
X62751186Y-61613660D01*
X62681697Y-61650803D01*
X62620789Y-61700789D01*
X62580000Y-61750490D01*
X62539211Y-61700789D01*
X62478303Y-61650803D01*
X62408814Y-61613660D01*
X62333414Y-61590788D01*
X62255000Y-61583065D01*
X61185000Y-61583065D01*
X61106586Y-61590788D01*
X61031186Y-61613660D01*
X60961697Y-61650803D01*
X60900789Y-61700789D01*
X60850803Y-61761697D01*
X60813660Y-61831186D01*
X60790788Y-61906586D01*
X60783065Y-61985000D01*
X60783065Y-63355000D01*
X60790788Y-63433414D01*
X60813660Y-63508814D01*
X60850803Y-63578303D01*
X60900789Y-63639211D01*
X60920000Y-63654977D01*
X60920001Y-65083407D01*
X60897814Y-65085592D01*
X60775515Y-65122691D01*
X60662804Y-65182936D01*
X60564012Y-65264012D01*
X60482936Y-65362804D01*
X60422691Y-65475515D01*
X60385592Y-65597814D01*
X60373065Y-65725000D01*
X57401935Y-65725000D01*
X57401935Y-64475000D01*
X57389408Y-64347814D01*
X57360000Y-64250869D01*
X57360000Y-63654977D01*
X57379211Y-63639211D01*
X57420000Y-63589510D01*
X57460789Y-63639211D01*
X57521697Y-63689197D01*
X57591186Y-63726340D01*
X57666586Y-63749212D01*
X57745000Y-63756935D01*
X58815000Y-63756935D01*
X58893414Y-63749212D01*
X58968814Y-63726340D01*
X59038303Y-63689197D01*
X59099211Y-63639211D01*
X59149197Y-63578303D01*
X59186340Y-63508814D01*
X59209212Y-63433414D01*
X59216935Y-63355000D01*
X59216935Y-61985000D01*
X59209212Y-61906586D01*
X59186340Y-61831186D01*
X59149197Y-61761697D01*
X59099211Y-61700789D01*
X59038303Y-61650803D01*
X58968814Y-61613660D01*
X58893414Y-61590788D01*
X58815000Y-61583065D01*
X57745000Y-61583065D01*
X57666586Y-61590788D01*
X57591186Y-61613660D01*
X57521697Y-61650803D01*
X57460789Y-61700789D01*
X57420000Y-61750490D01*
X57379211Y-61700789D01*
X57318303Y-61650803D01*
X57248814Y-61613660D01*
X57173414Y-61590788D01*
X57095000Y-61583065D01*
X56025000Y-61583065D01*
X55946586Y-61590788D01*
X55871186Y-61613660D01*
X55801697Y-61650803D01*
X55740789Y-61700789D01*
X55690803Y-61761697D01*
X55653660Y-61831186D01*
X55630788Y-61906586D01*
X55623065Y-61985000D01*
X55623065Y-63355000D01*
X55630788Y-63433414D01*
X55653660Y-63508814D01*
X55690803Y-63578303D01*
X55740789Y-63639211D01*
X55760000Y-63654977D01*
X55760001Y-63829467D01*
X55697814Y-63835592D01*
X55575515Y-63872691D01*
X55462804Y-63932936D01*
X55364012Y-64014012D01*
X55282936Y-64112804D01*
X55222691Y-64225515D01*
X55185592Y-64347814D01*
X55173065Y-64475000D01*
X55173065Y-65725000D01*
X55185592Y-65852186D01*
X55222691Y-65974485D01*
X55282936Y-66087196D01*
X55364012Y-66185988D01*
X55462804Y-66267064D01*
X55487500Y-66280264D01*
X55487500Y-66281129D01*
X54362103Y-67406527D01*
X54331578Y-67431578D01*
X54277151Y-67497899D01*
X54231607Y-67553394D01*
X54204627Y-67603870D01*
X54157321Y-67692373D01*
X54111576Y-67843174D01*
X54104105Y-67919031D01*
X54096130Y-68000000D01*
X54100000Y-68039291D01*
X54100001Y-75948065D01*
X54050000Y-75948065D01*
X53971586Y-75955788D01*
X53896186Y-75978660D01*
X53826697Y-76015803D01*
X53765789Y-76065789D01*
X53715803Y-76126697D01*
X53678660Y-76196186D01*
X53655788Y-76271586D01*
X53648065Y-76350000D01*
X50462000Y-76350000D01*
X50425000Y-75997975D01*
X50425000Y-53020790D01*
X50476041Y-52500241D01*
X50621179Y-52019520D01*
X50856925Y-51576144D01*
X51174300Y-51187004D01*
X51561216Y-50866919D01*
X52002939Y-50628081D01*
X52482634Y-50479590D01*
X53002025Y-50425000D01*
X66979210Y-50425000D01*
X67499759Y-50476041D01*
M02*
