G04 #@! TF.GenerationSoftware,KiCad,Pcbnew,5.1.6-c6e7f7d~86~ubuntu20.04.1*
G04 #@! TF.CreationDate,2020-05-17T01:00:28+03:00*
G04 #@! TF.ProjectId,EV-BA33Dxx,45562d42-4133-4334-9478-782e6b696361,v1.0*
G04 #@! TF.SameCoordinates,Original*
G04 #@! TF.FileFunction,Copper,L2,Bot*
G04 #@! TF.FilePolarity,Positive*
%FSLAX46Y46*%
G04 Gerber Fmt 4.6, Leading zero omitted, Abs format (unit mm)*
G04 Created by KiCad (PCBNEW 5.1.6-c6e7f7d~86~ubuntu20.04.1) date 2020-05-17 01:00:28*
%MOMM*%
%LPD*%
G01*
G04 APERTURE LIST*
G04 #@! TA.AperFunction,Profile*
%ADD10C,0.050000*%
G04 #@! TD*
G04 #@! TA.AperFunction,Conductor*
%ADD11R,10.000000X9.000000*%
G04 #@! TD*
G04 #@! TA.AperFunction,ViaPad*
%ADD12C,0.600000*%
G04 #@! TD*
G04 #@! TA.AperFunction,ComponentPad*
%ADD13O,1.700000X1.700000*%
G04 #@! TD*
G04 #@! TA.AperFunction,ComponentPad*
%ADD14R,1.700000X1.700000*%
G04 #@! TD*
G04 #@! TA.AperFunction,ViaPad*
%ADD15C,0.800000*%
G04 #@! TD*
G04 #@! TA.AperFunction,Conductor*
%ADD16C,0.200000*%
G04 #@! TD*
G04 APERTURE END LIST*
D10*
X53000000Y-79000000D02*
G75*
G02*
X50000000Y-76000000I0J3000000D01*
G01*
X50000000Y-53000000D02*
G75*
G02*
X53000000Y-50000000I3000000J0D01*
G01*
X67000000Y-50000000D02*
G75*
G02*
X70000000Y-53000000I0J-3000000D01*
G01*
X70000000Y-76000000D02*
G75*
G02*
X67000000Y-79000000I-3000000J0D01*
G01*
X50000000Y-76000000D02*
X50000000Y-53000000D01*
X67000000Y-79000000D02*
X53000000Y-79000000D01*
X70000000Y-53000000D02*
X70000000Y-76000000D01*
X53000000Y-50000000D02*
X67000000Y-50000000D01*
D11*
X60000000Y-56545000D03*
D12*
X55800000Y-60145000D03*
X57000000Y-60145000D03*
X58200000Y-60145000D03*
X59400000Y-60145000D03*
X60600000Y-60145000D03*
X61800000Y-60145000D03*
X63000000Y-60145000D03*
X64200000Y-60145000D03*
X55800000Y-58945000D03*
X57000000Y-58945000D03*
X58200000Y-58945000D03*
X59400000Y-58945000D03*
X60600000Y-58945000D03*
X61800000Y-58945000D03*
X63000000Y-58945000D03*
X64200000Y-58945000D03*
X55800000Y-57745000D03*
X57000000Y-57745000D03*
X58200000Y-57745000D03*
X59400000Y-57745000D03*
X60600000Y-57745000D03*
X61800000Y-57745000D03*
X63000000Y-57745000D03*
X64200000Y-57745000D03*
X55800000Y-56545000D03*
X57000000Y-56545000D03*
X58200000Y-56545000D03*
X59400000Y-56545000D03*
X60600000Y-56545000D03*
X61800000Y-56545000D03*
X63000000Y-56545000D03*
X64200000Y-56545000D03*
X55800000Y-55345000D03*
X57000000Y-55345000D03*
X58200000Y-55345000D03*
X59400000Y-55345000D03*
X60600000Y-55345000D03*
X61800000Y-55345000D03*
X63000000Y-55345000D03*
X64200000Y-55345000D03*
X55800000Y-54145000D03*
X57000000Y-54145000D03*
X58200000Y-54145000D03*
X59400000Y-54145000D03*
X60600000Y-54145000D03*
X61800000Y-54145000D03*
X63000000Y-54145000D03*
X64200000Y-54145000D03*
X55800000Y-52945000D03*
X57000000Y-52945000D03*
X58200000Y-52945000D03*
X59400000Y-52945000D03*
X60600000Y-52945000D03*
X61800000Y-52945000D03*
X63000000Y-52945000D03*
X64200000Y-52945000D03*
D13*
X65060000Y-77200000D03*
X62520000Y-77200000D03*
X59980000Y-77200000D03*
X57440000Y-77200000D03*
D14*
X54900000Y-77200000D03*
D15*
X60000000Y-64100000D03*
X53300000Y-66700000D03*
X53300000Y-63500000D03*
X58500000Y-64800000D03*
X58500000Y-68800000D03*
X66700000Y-64800000D03*
X66700000Y-68800000D03*
X68200000Y-70800000D03*
X67900000Y-75500000D03*
X51500000Y-76100000D03*
X52200000Y-71500000D03*
X53300000Y-58900000D03*
X52300000Y-51800000D03*
X68000000Y-51800000D03*
X66400000Y-58600000D03*
X58500000Y-72000000D03*
D16*
G36*
X67499759Y-50476041D02*
G01*
X67980480Y-50621179D01*
X68423856Y-50856925D01*
X68812996Y-51174300D01*
X69133081Y-51561216D01*
X69371919Y-52002939D01*
X69520410Y-52482634D01*
X69575000Y-53002025D01*
X69575001Y-75979200D01*
X69523959Y-76499759D01*
X69378821Y-76980480D01*
X69143075Y-77423856D01*
X68825697Y-77812998D01*
X68438784Y-78133081D01*
X67997061Y-78371919D01*
X67517368Y-78520410D01*
X66997975Y-78575000D01*
X53020790Y-78575000D01*
X52500241Y-78523959D01*
X52019520Y-78378821D01*
X51576144Y-78143075D01*
X51187002Y-77825697D01*
X50866919Y-77438784D01*
X50628081Y-76997061D01*
X50479590Y-76517368D01*
X50462000Y-76350000D01*
X53648065Y-76350000D01*
X53648065Y-78050000D01*
X53655788Y-78128414D01*
X53678660Y-78203814D01*
X53715803Y-78273303D01*
X53765789Y-78334211D01*
X53826697Y-78384197D01*
X53896186Y-78421340D01*
X53971586Y-78444212D01*
X54050000Y-78451935D01*
X55750000Y-78451935D01*
X55828414Y-78444212D01*
X55903814Y-78421340D01*
X55973303Y-78384197D01*
X56034211Y-78334211D01*
X56084197Y-78273303D01*
X56121340Y-78203814D01*
X56144212Y-78128414D01*
X56151935Y-78050000D01*
X56151935Y-77076886D01*
X56190000Y-77076886D01*
X56190000Y-77323114D01*
X56238037Y-77564611D01*
X56332265Y-77792097D01*
X56469062Y-77996828D01*
X56643172Y-78170938D01*
X56847903Y-78307735D01*
X57075389Y-78401963D01*
X57316886Y-78450000D01*
X57563114Y-78450000D01*
X57804611Y-78401963D01*
X58032097Y-78307735D01*
X58236828Y-78170938D01*
X58410938Y-77996828D01*
X58547735Y-77792097D01*
X58641963Y-77564611D01*
X58690000Y-77323114D01*
X58690000Y-77076886D01*
X61270000Y-77076886D01*
X61270000Y-77323114D01*
X61318037Y-77564611D01*
X61412265Y-77792097D01*
X61549062Y-77996828D01*
X61723172Y-78170938D01*
X61927903Y-78307735D01*
X62155389Y-78401963D01*
X62396886Y-78450000D01*
X62643114Y-78450000D01*
X62884611Y-78401963D01*
X63112097Y-78307735D01*
X63316828Y-78170938D01*
X63490938Y-77996828D01*
X63627735Y-77792097D01*
X63721963Y-77564611D01*
X63770000Y-77323114D01*
X63770000Y-77076886D01*
X63810000Y-77076886D01*
X63810000Y-77323114D01*
X63858037Y-77564611D01*
X63952265Y-77792097D01*
X64089062Y-77996828D01*
X64263172Y-78170938D01*
X64467903Y-78307735D01*
X64695389Y-78401963D01*
X64936886Y-78450000D01*
X65183114Y-78450000D01*
X65424611Y-78401963D01*
X65652097Y-78307735D01*
X65856828Y-78170938D01*
X66030938Y-77996828D01*
X66167735Y-77792097D01*
X66261963Y-77564611D01*
X66310000Y-77323114D01*
X66310000Y-77076886D01*
X66261963Y-76835389D01*
X66167735Y-76607903D01*
X66030938Y-76403172D01*
X65856828Y-76229062D01*
X65652097Y-76092265D01*
X65424611Y-75998037D01*
X65183114Y-75950000D01*
X64936886Y-75950000D01*
X64695389Y-75998037D01*
X64467903Y-76092265D01*
X64263172Y-76229062D01*
X64089062Y-76403172D01*
X63952265Y-76607903D01*
X63858037Y-76835389D01*
X63810000Y-77076886D01*
X63770000Y-77076886D01*
X63721963Y-76835389D01*
X63627735Y-76607903D01*
X63490938Y-76403172D01*
X63316828Y-76229062D01*
X63112097Y-76092265D01*
X62884611Y-75998037D01*
X62643114Y-75950000D01*
X62396886Y-75950000D01*
X62155389Y-75998037D01*
X61927903Y-76092265D01*
X61723172Y-76229062D01*
X61549062Y-76403172D01*
X61412265Y-76607903D01*
X61318037Y-76835389D01*
X61270000Y-77076886D01*
X58690000Y-77076886D01*
X58641963Y-76835389D01*
X58547735Y-76607903D01*
X58410938Y-76403172D01*
X58236828Y-76229062D01*
X58032097Y-76092265D01*
X57804611Y-75998037D01*
X57563114Y-75950000D01*
X57316886Y-75950000D01*
X57075389Y-75998037D01*
X56847903Y-76092265D01*
X56643172Y-76229062D01*
X56469062Y-76403172D01*
X56332265Y-76607903D01*
X56238037Y-76835389D01*
X56190000Y-77076886D01*
X56151935Y-77076886D01*
X56151935Y-76350000D01*
X56144212Y-76271586D01*
X56121340Y-76196186D01*
X56084197Y-76126697D01*
X56034211Y-76065789D01*
X55973303Y-76015803D01*
X55903814Y-75978660D01*
X55828414Y-75955788D01*
X55750000Y-75948065D01*
X54050000Y-75948065D01*
X53971586Y-75955788D01*
X53896186Y-75978660D01*
X53826697Y-76015803D01*
X53765789Y-76065789D01*
X53715803Y-76126697D01*
X53678660Y-76196186D01*
X53655788Y-76271586D01*
X53648065Y-76350000D01*
X50462000Y-76350000D01*
X50425000Y-75997975D01*
X50425000Y-53020790D01*
X50476041Y-52500241D01*
X50621179Y-52019520D01*
X50856925Y-51576144D01*
X51174300Y-51187004D01*
X51561216Y-50866919D01*
X52002939Y-50628081D01*
X52482634Y-50479590D01*
X53002025Y-50425000D01*
X66979210Y-50425000D01*
X67499759Y-50476041D01*
G37*
X67499759Y-50476041D02*
X67980480Y-50621179D01*
X68423856Y-50856925D01*
X68812996Y-51174300D01*
X69133081Y-51561216D01*
X69371919Y-52002939D01*
X69520410Y-52482634D01*
X69575000Y-53002025D01*
X69575001Y-75979200D01*
X69523959Y-76499759D01*
X69378821Y-76980480D01*
X69143075Y-77423856D01*
X68825697Y-77812998D01*
X68438784Y-78133081D01*
X67997061Y-78371919D01*
X67517368Y-78520410D01*
X66997975Y-78575000D01*
X53020790Y-78575000D01*
X52500241Y-78523959D01*
X52019520Y-78378821D01*
X51576144Y-78143075D01*
X51187002Y-77825697D01*
X50866919Y-77438784D01*
X50628081Y-76997061D01*
X50479590Y-76517368D01*
X50462000Y-76350000D01*
X53648065Y-76350000D01*
X53648065Y-78050000D01*
X53655788Y-78128414D01*
X53678660Y-78203814D01*
X53715803Y-78273303D01*
X53765789Y-78334211D01*
X53826697Y-78384197D01*
X53896186Y-78421340D01*
X53971586Y-78444212D01*
X54050000Y-78451935D01*
X55750000Y-78451935D01*
X55828414Y-78444212D01*
X55903814Y-78421340D01*
X55973303Y-78384197D01*
X56034211Y-78334211D01*
X56084197Y-78273303D01*
X56121340Y-78203814D01*
X56144212Y-78128414D01*
X56151935Y-78050000D01*
X56151935Y-77076886D01*
X56190000Y-77076886D01*
X56190000Y-77323114D01*
X56238037Y-77564611D01*
X56332265Y-77792097D01*
X56469062Y-77996828D01*
X56643172Y-78170938D01*
X56847903Y-78307735D01*
X57075389Y-78401963D01*
X57316886Y-78450000D01*
X57563114Y-78450000D01*
X57804611Y-78401963D01*
X58032097Y-78307735D01*
X58236828Y-78170938D01*
X58410938Y-77996828D01*
X58547735Y-77792097D01*
X58641963Y-77564611D01*
X58690000Y-77323114D01*
X58690000Y-77076886D01*
X61270000Y-77076886D01*
X61270000Y-77323114D01*
X61318037Y-77564611D01*
X61412265Y-77792097D01*
X61549062Y-77996828D01*
X61723172Y-78170938D01*
X61927903Y-78307735D01*
X62155389Y-78401963D01*
X62396886Y-78450000D01*
X62643114Y-78450000D01*
X62884611Y-78401963D01*
X63112097Y-78307735D01*
X63316828Y-78170938D01*
X63490938Y-77996828D01*
X63627735Y-77792097D01*
X63721963Y-77564611D01*
X63770000Y-77323114D01*
X63770000Y-77076886D01*
X63810000Y-77076886D01*
X63810000Y-77323114D01*
X63858037Y-77564611D01*
X63952265Y-77792097D01*
X64089062Y-77996828D01*
X64263172Y-78170938D01*
X64467903Y-78307735D01*
X64695389Y-78401963D01*
X64936886Y-78450000D01*
X65183114Y-78450000D01*
X65424611Y-78401963D01*
X65652097Y-78307735D01*
X65856828Y-78170938D01*
X66030938Y-77996828D01*
X66167735Y-77792097D01*
X66261963Y-77564611D01*
X66310000Y-77323114D01*
X66310000Y-77076886D01*
X66261963Y-76835389D01*
X66167735Y-76607903D01*
X66030938Y-76403172D01*
X65856828Y-76229062D01*
X65652097Y-76092265D01*
X65424611Y-75998037D01*
X65183114Y-75950000D01*
X64936886Y-75950000D01*
X64695389Y-75998037D01*
X64467903Y-76092265D01*
X64263172Y-76229062D01*
X64089062Y-76403172D01*
X63952265Y-76607903D01*
X63858037Y-76835389D01*
X63810000Y-77076886D01*
X63770000Y-77076886D01*
X63721963Y-76835389D01*
X63627735Y-76607903D01*
X63490938Y-76403172D01*
X63316828Y-76229062D01*
X63112097Y-76092265D01*
X62884611Y-75998037D01*
X62643114Y-75950000D01*
X62396886Y-75950000D01*
X62155389Y-75998037D01*
X61927903Y-76092265D01*
X61723172Y-76229062D01*
X61549062Y-76403172D01*
X61412265Y-76607903D01*
X61318037Y-76835389D01*
X61270000Y-77076886D01*
X58690000Y-77076886D01*
X58641963Y-76835389D01*
X58547735Y-76607903D01*
X58410938Y-76403172D01*
X58236828Y-76229062D01*
X58032097Y-76092265D01*
X57804611Y-75998037D01*
X57563114Y-75950000D01*
X57316886Y-75950000D01*
X57075389Y-75998037D01*
X56847903Y-76092265D01*
X56643172Y-76229062D01*
X56469062Y-76403172D01*
X56332265Y-76607903D01*
X56238037Y-76835389D01*
X56190000Y-77076886D01*
X56151935Y-77076886D01*
X56151935Y-76350000D01*
X56144212Y-76271586D01*
X56121340Y-76196186D01*
X56084197Y-76126697D01*
X56034211Y-76065789D01*
X55973303Y-76015803D01*
X55903814Y-75978660D01*
X55828414Y-75955788D01*
X55750000Y-75948065D01*
X54050000Y-75948065D01*
X53971586Y-75955788D01*
X53896186Y-75978660D01*
X53826697Y-76015803D01*
X53765789Y-76065789D01*
X53715803Y-76126697D01*
X53678660Y-76196186D01*
X53655788Y-76271586D01*
X53648065Y-76350000D01*
X50462000Y-76350000D01*
X50425000Y-75997975D01*
X50425000Y-53020790D01*
X50476041Y-52500241D01*
X50621179Y-52019520D01*
X50856925Y-51576144D01*
X51174300Y-51187004D01*
X51561216Y-50866919D01*
X52002939Y-50628081D01*
X52482634Y-50479590D01*
X53002025Y-50425000D01*
X66979210Y-50425000D01*
X67499759Y-50476041D01*
M02*
