M48
; DRILL file {KiCad 5.1.6-c6e7f7d~86~ubuntu20.04.1} date Sun May 17 01:00:29 2020
; FORMAT={-:-/ absolute / inch / decimal}
; #@! TF.CreationDate,2020-05-17T01:00:29+03:00
; #@! TF.GenerationSoftware,Kicad,Pcbnew,5.1.6-c6e7f7d~86~ubuntu20.04.1
; #@! TF.FileFunction,Plated,1,2,PTH
FMAT,2
INCH
T1C0.0118
T2C0.0157
T3C0.0394
%
G90
G05
T1
X2.1969Y-2.0844
X2.1969Y-2.1317
X2.1969Y-2.1789
X2.1969Y-2.2262
X2.1969Y-2.2734
X2.1969Y-2.3207
X2.1969Y-2.3679
X2.2441Y-2.0844
X2.2441Y-2.1317
X2.2441Y-2.1789
X2.2441Y-2.2262
X2.2441Y-2.2734
X2.2441Y-2.3207
X2.2441Y-2.3679
X2.2913Y-2.0844
X2.2913Y-2.1317
X2.2913Y-2.1789
X2.2913Y-2.2262
X2.2913Y-2.2734
X2.2913Y-2.3207
X2.2913Y-2.3679
X2.3386Y-2.0844
X2.3386Y-2.1317
X2.3386Y-2.1789
X2.3386Y-2.2262
X2.3386Y-2.2734
X2.3386Y-2.3207
X2.3386Y-2.3679
X2.3858Y-2.0844
X2.3858Y-2.1317
X2.3858Y-2.1789
X2.3858Y-2.2262
X2.3858Y-2.2734
X2.3858Y-2.3207
X2.3858Y-2.3679
X2.4331Y-2.0844
X2.4331Y-2.1317
X2.4331Y-2.1789
X2.4331Y-2.2262
X2.4331Y-2.2734
X2.4331Y-2.3207
X2.4331Y-2.3679
X2.4803Y-2.0844
X2.4803Y-2.1317
X2.4803Y-2.1789
X2.4803Y-2.2262
X2.4803Y-2.2734
X2.4803Y-2.3207
X2.4803Y-2.3679
X2.5276Y-2.0844
X2.5276Y-2.1317
X2.5276Y-2.1789
X2.5276Y-2.2262
X2.5276Y-2.2734
X2.5276Y-2.3207
X2.5276Y-2.3679
T2
X2.0276Y-2.9961
X2.0551Y-2.815
X2.0591Y-2.0394
X2.0984Y-2.3189
X2.0984Y-2.5
X2.0984Y-2.626
X2.3031Y-2.5512
X2.3031Y-2.7087
X2.3031Y-2.8346
X2.3622Y-2.5236
X2.6142Y-2.3071
X2.626Y-2.5512
X2.626Y-2.7087
X2.6732Y-2.9724
X2.6772Y-2.0394
X2.685Y-2.7874
T3
X2.1614Y-3.0394
X2.2614Y-3.0394
X2.3614Y-3.0394
X2.4614Y-3.0394
X2.5614Y-3.0394
T0
M30
