G04 #@! TF.GenerationSoftware,KiCad,Pcbnew,5.1.6-c6e7f7d~86~ubuntu20.04.1*
G04 #@! TF.CreationDate,2020-05-17T01:00:28+03:00*
G04 #@! TF.ProjectId,EV-BA33Dxx,45562d42-4133-4334-9478-782e6b696361,v1.0*
G04 #@! TF.SameCoordinates,Original*
G04 #@! TF.FileFunction,Legend,Top*
G04 #@! TF.FilePolarity,Positive*
%FSLAX46Y46*%
G04 Gerber Fmt 4.6, Leading zero omitted, Abs format (unit mm)*
G04 Created by KiCad (PCBNEW 5.1.6-c6e7f7d~86~ubuntu20.04.1) date 2020-05-17 01:00:28*
%MOMM*%
%LPD*%
G01*
G04 APERTURE LIST*
%ADD10C,0.150000*%
%ADD11C,0.100000*%
G04 #@! TA.AperFunction,Profile*
%ADD12C,0.050000*%
G04 #@! TD*
%ADD13C,0.300000*%
%ADD14C,0.120000*%
G04 APERTURE END LIST*
D10*
X53595238Y-51028571D02*
X53928571Y-51028571D01*
X54071428Y-51552380D02*
X53595238Y-51552380D01*
X53595238Y-50552380D01*
X54071428Y-50552380D01*
X54357142Y-50552380D02*
X54690476Y-51552380D01*
X55023809Y-50552380D01*
X55357142Y-51171428D02*
X56119047Y-51171428D01*
X56928571Y-51028571D02*
X57071428Y-51076190D01*
X57119047Y-51123809D01*
X57166666Y-51219047D01*
X57166666Y-51361904D01*
X57119047Y-51457142D01*
X57071428Y-51504761D01*
X56976190Y-51552380D01*
X56595238Y-51552380D01*
X56595238Y-50552380D01*
X56928571Y-50552380D01*
X57023809Y-50600000D01*
X57071428Y-50647619D01*
X57119047Y-50742857D01*
X57119047Y-50838095D01*
X57071428Y-50933333D01*
X57023809Y-50980952D01*
X56928571Y-51028571D01*
X56595238Y-51028571D01*
X57547619Y-51266666D02*
X58023809Y-51266666D01*
X57452380Y-51552380D02*
X57785714Y-50552380D01*
X58119047Y-51552380D01*
X58357142Y-50552380D02*
X58976190Y-50552380D01*
X58642857Y-50933333D01*
X58785714Y-50933333D01*
X58880952Y-50980952D01*
X58928571Y-51028571D01*
X58976190Y-51123809D01*
X58976190Y-51361904D01*
X58928571Y-51457142D01*
X58880952Y-51504761D01*
X58785714Y-51552380D01*
X58500000Y-51552380D01*
X58404761Y-51504761D01*
X58357142Y-51457142D01*
X59309523Y-50552380D02*
X59928571Y-50552380D01*
X59595238Y-50933333D01*
X59738095Y-50933333D01*
X59833333Y-50980952D01*
X59880952Y-51028571D01*
X59928571Y-51123809D01*
X59928571Y-51361904D01*
X59880952Y-51457142D01*
X59833333Y-51504761D01*
X59738095Y-51552380D01*
X59452380Y-51552380D01*
X59357142Y-51504761D01*
X59309523Y-51457142D01*
X60357142Y-51552380D02*
X60357142Y-50552380D01*
X60595238Y-50552380D01*
X60738095Y-50600000D01*
X60833333Y-50695238D01*
X60880952Y-50790476D01*
X60928571Y-50980952D01*
X60928571Y-51123809D01*
X60880952Y-51314285D01*
X60833333Y-51409523D01*
X60738095Y-51504761D01*
X60595238Y-51552380D01*
X60357142Y-51552380D01*
X61261904Y-51552380D02*
X61785714Y-50885714D01*
X61261904Y-50885714D02*
X61785714Y-51552380D01*
X62071428Y-51552380D02*
X62595238Y-50885714D01*
X62071428Y-50885714D02*
X62595238Y-51552380D01*
X63642857Y-50885714D02*
X63880952Y-51552380D01*
X64119047Y-50885714D01*
X65023809Y-51552380D02*
X64452380Y-51552380D01*
X64738095Y-51552380D02*
X64738095Y-50552380D01*
X64642857Y-50695238D01*
X64547619Y-50790476D01*
X64452380Y-50838095D01*
X65452380Y-51457142D02*
X65500000Y-51504761D01*
X65452380Y-51552380D01*
X65404761Y-51504761D01*
X65452380Y-51457142D01*
X65452380Y-51552380D01*
X66119047Y-50552380D02*
X66214285Y-50552380D01*
X66309523Y-50600000D01*
X66357142Y-50647619D01*
X66404761Y-50742857D01*
X66452380Y-50933333D01*
X66452380Y-51171428D01*
X66404761Y-51361904D01*
X66357142Y-51457142D01*
X66309523Y-51504761D01*
X66214285Y-51552380D01*
X66119047Y-51552380D01*
X66023809Y-51504761D01*
X65976190Y-51457142D01*
X65928571Y-51361904D01*
X65880952Y-51171428D01*
X65880952Y-50933333D01*
X65928571Y-50742857D01*
X65976190Y-50647619D01*
X66023809Y-50600000D01*
X66119047Y-50552380D01*
D11*
G36*
X68500000Y-62800000D02*
G01*
X66500000Y-62800000D01*
X66500000Y-60800000D01*
X68500000Y-60800000D01*
X68500000Y-62800000D01*
G37*
X68500000Y-62800000D02*
X66500000Y-62800000D01*
X66500000Y-60800000D01*
X68500000Y-60800000D01*
X68500000Y-62800000D01*
G36*
X68500000Y-57700000D02*
G01*
X66500000Y-57700000D01*
X66500000Y-55700000D01*
X68500000Y-55700000D01*
X68500000Y-57700000D01*
G37*
X68500000Y-57700000D02*
X66500000Y-57700000D01*
X66500000Y-55700000D01*
X68500000Y-55700000D01*
X68500000Y-57700000D01*
D12*
X53000000Y-79000000D02*
G75*
G02*
X50000000Y-76000000I0J3000000D01*
G01*
X50000000Y-53000000D02*
G75*
G02*
X53000000Y-50000000I3000000J0D01*
G01*
X67000000Y-50000000D02*
G75*
G02*
X70000000Y-53000000I0J-3000000D01*
G01*
X70000000Y-76000000D02*
G75*
G02*
X67000000Y-79000000I-3000000J0D01*
G01*
X50000000Y-76000000D02*
X50000000Y-53000000D01*
X67000000Y-79000000D02*
X53000000Y-79000000D01*
X70000000Y-53000000D02*
X70000000Y-76000000D01*
D10*
X65592738Y-52652380D02*
X65926071Y-53652380D01*
X66259404Y-52652380D01*
X66783214Y-52652380D02*
X66973690Y-52652380D01*
X67068928Y-52700000D01*
X67164166Y-52795238D01*
X67211785Y-52985714D01*
X67211785Y-53319047D01*
X67164166Y-53509523D01*
X67068928Y-53604761D01*
X66973690Y-53652380D01*
X66783214Y-53652380D01*
X66687976Y-53604761D01*
X66592738Y-53509523D01*
X66545119Y-53319047D01*
X66545119Y-52985714D01*
X66592738Y-52795238D01*
X66687976Y-52700000D01*
X66783214Y-52652380D01*
X67592738Y-52747619D02*
X67640357Y-52700000D01*
X67735595Y-52652380D01*
X67973690Y-52652380D01*
X68068928Y-52700000D01*
X68116547Y-52747619D01*
X68164166Y-52842857D01*
X68164166Y-52938095D01*
X68116547Y-53080952D01*
X67545119Y-53652380D01*
X68164166Y-53652380D01*
X65735595Y-54921428D02*
X66497500Y-54921428D01*
X66116547Y-55302380D02*
X66116547Y-54540476D01*
X67497500Y-55302380D02*
X66926071Y-55302380D01*
X67211785Y-55302380D02*
X67211785Y-54302380D01*
X67116547Y-54445238D01*
X67021309Y-54540476D01*
X66926071Y-54588095D01*
X67783214Y-54302380D02*
X68116547Y-55302380D01*
X68449880Y-54302380D01*
X68926071Y-54730952D02*
X68830833Y-54683333D01*
X68783214Y-54635714D01*
X68735595Y-54540476D01*
X68735595Y-54492857D01*
X68783214Y-54397619D01*
X68830833Y-54350000D01*
X68926071Y-54302380D01*
X69116547Y-54302380D01*
X69211785Y-54350000D01*
X69259404Y-54397619D01*
X69307023Y-54492857D01*
X69307023Y-54540476D01*
X69259404Y-54635714D01*
X69211785Y-54683333D01*
X69116547Y-54730952D01*
X68926071Y-54730952D01*
X68830833Y-54778571D01*
X68783214Y-54826190D01*
X68735595Y-54921428D01*
X68735595Y-55111904D01*
X68783214Y-55207142D01*
X68830833Y-55254761D01*
X68926071Y-55302380D01*
X69116547Y-55302380D01*
X69211785Y-55254761D01*
X69259404Y-55207142D01*
X69307023Y-55111904D01*
X69307023Y-54921428D01*
X69259404Y-54826190D01*
X69211785Y-54778571D01*
X69116547Y-54730952D01*
X65735595Y-59871428D02*
X66497500Y-59871428D01*
X66116547Y-60252380D02*
X66116547Y-59490476D01*
X67497500Y-60252380D02*
X66926071Y-60252380D01*
X67211785Y-60252380D02*
X67211785Y-59252380D01*
X67116547Y-59395238D01*
X67021309Y-59490476D01*
X66926071Y-59538095D01*
X67783214Y-59252380D02*
X68116547Y-60252380D01*
X68449880Y-59252380D01*
X69259404Y-59252380D02*
X68783214Y-59252380D01*
X68735595Y-59728571D01*
X68783214Y-59680952D01*
X68878452Y-59633333D01*
X69116547Y-59633333D01*
X69211785Y-59680952D01*
X69259404Y-59728571D01*
X69307023Y-59823809D01*
X69307023Y-60061904D01*
X69259404Y-60157142D01*
X69211785Y-60204761D01*
X69116547Y-60252380D01*
X68878452Y-60252380D01*
X68783214Y-60204761D01*
X68735595Y-60157142D01*
X51840595Y-52627380D02*
X52173928Y-53627380D01*
X52507261Y-52627380D01*
X53031071Y-52627380D02*
X53221547Y-52627380D01*
X53316785Y-52675000D01*
X53412023Y-52770238D01*
X53459642Y-52960714D01*
X53459642Y-53294047D01*
X53412023Y-53484523D01*
X53316785Y-53579761D01*
X53221547Y-53627380D01*
X53031071Y-53627380D01*
X52935833Y-53579761D01*
X52840595Y-53484523D01*
X52792976Y-53294047D01*
X52792976Y-52960714D01*
X52840595Y-52770238D01*
X52935833Y-52675000D01*
X53031071Y-52627380D01*
X54412023Y-53627380D02*
X53840595Y-53627380D01*
X54126309Y-53627380D02*
X54126309Y-52627380D01*
X54031071Y-52770238D01*
X53935833Y-52865476D01*
X53840595Y-52913095D01*
X50840595Y-54896428D02*
X51602500Y-54896428D01*
X51221547Y-55277380D02*
X51221547Y-54515476D01*
X51983452Y-54277380D02*
X52602500Y-54277380D01*
X52269166Y-54658333D01*
X52412023Y-54658333D01*
X52507261Y-54705952D01*
X52554880Y-54753571D01*
X52602500Y-54848809D01*
X52602500Y-55086904D01*
X52554880Y-55182142D01*
X52507261Y-55229761D01*
X52412023Y-55277380D01*
X52126309Y-55277380D01*
X52031071Y-55229761D01*
X51983452Y-55182142D01*
X52888214Y-54277380D02*
X53221547Y-55277380D01*
X53554880Y-54277380D01*
X53792976Y-54277380D02*
X54412023Y-54277380D01*
X54078690Y-54658333D01*
X54221547Y-54658333D01*
X54316785Y-54705952D01*
X54364404Y-54753571D01*
X54412023Y-54848809D01*
X54412023Y-55086904D01*
X54364404Y-55182142D01*
X54316785Y-55229761D01*
X54221547Y-55277380D01*
X53935833Y-55277380D01*
X53840595Y-55229761D01*
X53792976Y-55182142D01*
D13*
X64278571Y-74962142D02*
X65778571Y-74462142D01*
X64278571Y-73962142D01*
X64278571Y-73176428D02*
X64278571Y-72890714D01*
X64350000Y-72747857D01*
X64492857Y-72605000D01*
X64778571Y-72533571D01*
X65278571Y-72533571D01*
X65564285Y-72605000D01*
X65707142Y-72747857D01*
X65778571Y-72890714D01*
X65778571Y-73176428D01*
X65707142Y-73319285D01*
X65564285Y-73462142D01*
X65278571Y-73533571D01*
X64778571Y-73533571D01*
X64492857Y-73462142D01*
X64350000Y-73319285D01*
X64278571Y-73176428D01*
X64421428Y-71962142D02*
X64350000Y-71890714D01*
X64278571Y-71747857D01*
X64278571Y-71390714D01*
X64350000Y-71247857D01*
X64421428Y-71176428D01*
X64564285Y-71105000D01*
X64707142Y-71105000D01*
X64921428Y-71176428D01*
X65778571Y-72033571D01*
X65778571Y-71105000D01*
X61678571Y-74962142D02*
X63178571Y-74462142D01*
X61678571Y-73962142D01*
X61678571Y-73176428D02*
X61678571Y-72890714D01*
X61750000Y-72747857D01*
X61892857Y-72605000D01*
X62178571Y-72533571D01*
X62678571Y-72533571D01*
X62964285Y-72605000D01*
X63107142Y-72747857D01*
X63178571Y-72890714D01*
X63178571Y-73176428D01*
X63107142Y-73319285D01*
X62964285Y-73462142D01*
X62678571Y-73533571D01*
X62178571Y-73533571D01*
X61892857Y-73462142D01*
X61750000Y-73319285D01*
X61678571Y-73176428D01*
X63178571Y-71105000D02*
X63178571Y-71962142D01*
X63178571Y-71533571D02*
X61678571Y-71533571D01*
X61892857Y-71676428D01*
X62035714Y-71819285D01*
X62107142Y-71962142D01*
X59250000Y-73962142D02*
X59178571Y-74105000D01*
X59178571Y-74319285D01*
X59250000Y-74533571D01*
X59392857Y-74676428D01*
X59535714Y-74747857D01*
X59821428Y-74819285D01*
X60035714Y-74819285D01*
X60321428Y-74747857D01*
X60464285Y-74676428D01*
X60607142Y-74533571D01*
X60678571Y-74319285D01*
X60678571Y-74176428D01*
X60607142Y-73962142D01*
X60535714Y-73890714D01*
X60035714Y-73890714D01*
X60035714Y-74176428D01*
X60678571Y-73247857D02*
X59178571Y-73247857D01*
X60678571Y-72390714D01*
X59178571Y-72390714D01*
X60678571Y-71676428D02*
X59178571Y-71676428D01*
X59178571Y-71319285D01*
X59250000Y-71105000D01*
X59392857Y-70962142D01*
X59535714Y-70890714D01*
X59821428Y-70819285D01*
X60035714Y-70819285D01*
X60321428Y-70890714D01*
X60464285Y-70962142D01*
X60607142Y-71105000D01*
X60678571Y-71319285D01*
X60678571Y-71676428D01*
X54078571Y-74962142D02*
X55578571Y-74462142D01*
X54078571Y-73962142D01*
X55578571Y-73462142D02*
X54078571Y-73462142D01*
X55578571Y-72747857D02*
X54078571Y-72747857D01*
X55578571Y-71890714D01*
X54078571Y-71890714D01*
D12*
X53000000Y-50000000D02*
X67000000Y-50000000D01*
D14*
X54900000Y-61885000D02*
X54900000Y-61185000D01*
X55500000Y-61885000D02*
X54900000Y-61885000D01*
X55500000Y-63285000D02*
X55500000Y-61885000D01*
X65100000Y-61885000D02*
X64500000Y-61885000D01*
X65100000Y-61185000D02*
X65100000Y-61885000D01*
X66390000Y-78530000D02*
X66390000Y-75870000D01*
X56170000Y-78530000D02*
X66390000Y-78530000D01*
X56170000Y-75870000D02*
X66390000Y-75870000D01*
X56170000Y-78530000D02*
X56170000Y-75870000D01*
X54900000Y-78530000D02*
X53570000Y-78530000D01*
X53570000Y-78530000D02*
X53570000Y-77200000D01*
X60602064Y-68160000D02*
X59397936Y-68160000D01*
X60602064Y-65440000D02*
X59397936Y-65440000D01*
X64597936Y-65440000D02*
X65802064Y-65440000D01*
X64597936Y-68160000D02*
X65802064Y-68160000D01*
X55402064Y-66010000D02*
X54197936Y-66010000D01*
X55402064Y-64190000D02*
X54197936Y-64190000D01*
M02*
