G04 #@! TF.GenerationSoftware,KiCad,Pcbnew,5.1.6-c6e7f7d~86~ubuntu20.04.1*
G04 #@! TF.CreationDate,2020-05-17T01:00:28+03:00*
G04 #@! TF.ProjectId,EV-BA33Dxx,45562d42-4133-4334-9478-782e6b696361,v1.0*
G04 #@! TF.SameCoordinates,Original*
G04 #@! TF.FileFunction,Soldermask,Top*
G04 #@! TF.FilePolarity,Negative*
%FSLAX46Y46*%
G04 Gerber Fmt 4.6, Leading zero omitted, Abs format (unit mm)*
G04 Created by KiCad (PCBNEW 5.1.6-c6e7f7d~86~ubuntu20.04.1) date 2020-05-17 01:00:28*
%MOMM*%
%LPD*%
G01*
G04 APERTURE LIST*
G04 #@! TA.AperFunction,Profile*
%ADD10C,0.050000*%
G04 #@! TD*
%ADD11R,1.070000X1.370000*%
%ADD12R,10.000000X9.000000*%
%ADD13O,1.700000X1.700000*%
%ADD14R,1.700000X1.700000*%
G04 APERTURE END LIST*
D10*
X53000000Y-79000000D02*
G75*
G02*
X50000000Y-76000000I0J3000000D01*
G01*
X50000000Y-53000000D02*
G75*
G02*
X53000000Y-50000000I3000000J0D01*
G01*
X67000000Y-50000000D02*
G75*
G02*
X70000000Y-53000000I0J-3000000D01*
G01*
X70000000Y-76000000D02*
G75*
G02*
X67000000Y-79000000I-3000000J0D01*
G01*
X50000000Y-76000000D02*
X50000000Y-53000000D01*
X67000000Y-79000000D02*
X53000000Y-79000000D01*
X70000000Y-53000000D02*
X70000000Y-76000000D01*
X53000000Y-50000000D02*
X67000000Y-50000000D01*
D11*
X56560000Y-62670000D03*
X58280000Y-62670000D03*
X60000000Y-62670000D03*
D12*
X60000000Y-56545000D03*
D11*
X61720000Y-62670000D03*
X63440000Y-62670000D03*
D13*
X65060000Y-77200000D03*
X62520000Y-77200000D03*
X59980000Y-77200000D03*
X57440000Y-77200000D03*
D14*
X54900000Y-77200000D03*
G36*
G01*
X59225000Y-65725000D02*
X59225000Y-67875000D01*
G75*
G02*
X58975000Y-68125000I-250000J0D01*
G01*
X58050000Y-68125000D01*
G75*
G02*
X57800000Y-67875000I0J250000D01*
G01*
X57800000Y-65725000D01*
G75*
G02*
X58050000Y-65475000I250000J0D01*
G01*
X58975000Y-65475000D01*
G75*
G02*
X59225000Y-65725000I0J-250000D01*
G01*
G37*
G36*
G01*
X62200000Y-65725000D02*
X62200000Y-67875000D01*
G75*
G02*
X61950000Y-68125000I-250000J0D01*
G01*
X61025000Y-68125000D01*
G75*
G02*
X60775000Y-67875000I0J250000D01*
G01*
X60775000Y-65725000D01*
G75*
G02*
X61025000Y-65475000I250000J0D01*
G01*
X61950000Y-65475000D01*
G75*
G02*
X62200000Y-65725000I0J-250000D01*
G01*
G37*
G36*
G01*
X65975000Y-67875000D02*
X65975000Y-65725000D01*
G75*
G02*
X66225000Y-65475000I250000J0D01*
G01*
X67150000Y-65475000D01*
G75*
G02*
X67400000Y-65725000I0J-250000D01*
G01*
X67400000Y-67875000D01*
G75*
G02*
X67150000Y-68125000I-250000J0D01*
G01*
X66225000Y-68125000D01*
G75*
G02*
X65975000Y-67875000I0J250000D01*
G01*
G37*
G36*
G01*
X63000000Y-67875000D02*
X63000000Y-65725000D01*
G75*
G02*
X63250000Y-65475000I250000J0D01*
G01*
X64175000Y-65475000D01*
G75*
G02*
X64425000Y-65725000I0J-250000D01*
G01*
X64425000Y-67875000D01*
G75*
G02*
X64175000Y-68125000I-250000J0D01*
G01*
X63250000Y-68125000D01*
G75*
G02*
X63000000Y-67875000I0J250000D01*
G01*
G37*
G36*
G01*
X54025000Y-64475000D02*
X54025000Y-65725000D01*
G75*
G02*
X53775000Y-65975000I-250000J0D01*
G01*
X52850000Y-65975000D01*
G75*
G02*
X52600000Y-65725000I0J250000D01*
G01*
X52600000Y-64475000D01*
G75*
G02*
X52850000Y-64225000I250000J0D01*
G01*
X53775000Y-64225000D01*
G75*
G02*
X54025000Y-64475000I0J-250000D01*
G01*
G37*
G36*
G01*
X57000000Y-64475000D02*
X57000000Y-65725000D01*
G75*
G02*
X56750000Y-65975000I-250000J0D01*
G01*
X55825000Y-65975000D01*
G75*
G02*
X55575000Y-65725000I0J250000D01*
G01*
X55575000Y-64475000D01*
G75*
G02*
X55825000Y-64225000I250000J0D01*
G01*
X56750000Y-64225000D01*
G75*
G02*
X57000000Y-64475000I0J-250000D01*
G01*
G37*
M02*
