%TF.GenerationSoftware,KiCad,Pcbnew,5.1.7-a382d34a8~87~ubuntu20.04.1*%
%TF.CreationDate,2020-11-06T18:30:24+02:00*%
%TF.ProjectId,BRK-WSON-6-1EP-2x2-P0.65-EP1x1.6,42524b2d-5753-44f4-9e2d-362d3145502d,v1.0*%
%TF.SameCoordinates,Original*%
%TF.FileFunction,Legend,Bot*%
%TF.FilePolarity,Positive*%
%FSLAX46Y46*%
G04 Gerber Fmt 4.6, Leading zero omitted, Abs format (unit mm)*
G04 Created by KiCad (PCBNEW 5.1.7-a382d34a8~87~ubuntu20.04.1) date 2020-11-06 18:30:24*
%MOMM*%
%LPD*%
G01*
G04 APERTURE LIST*
%ADD10C,0.250000*%
G04 APERTURE END LIST*
D10*
X106623809Y-85068095D02*
X106314285Y-86368095D01*
X106066666Y-85439523D01*
X105819047Y-86368095D01*
X105509523Y-85068095D01*
X105076190Y-86306190D02*
X104890476Y-86368095D01*
X104580952Y-86368095D01*
X104457142Y-86306190D01*
X104395238Y-86244285D01*
X104333333Y-86120476D01*
X104333333Y-85996666D01*
X104395238Y-85872857D01*
X104457142Y-85810952D01*
X104580952Y-85749047D01*
X104828571Y-85687142D01*
X104952380Y-85625238D01*
X105014285Y-85563333D01*
X105076190Y-85439523D01*
X105076190Y-85315714D01*
X105014285Y-85191904D01*
X104952380Y-85130000D01*
X104828571Y-85068095D01*
X104519047Y-85068095D01*
X104333333Y-85130000D01*
X103528571Y-85068095D02*
X103280952Y-85068095D01*
X103157142Y-85130000D01*
X103033333Y-85253809D01*
X102971428Y-85501428D01*
X102971428Y-85934761D01*
X103033333Y-86182380D01*
X103157142Y-86306190D01*
X103280952Y-86368095D01*
X103528571Y-86368095D01*
X103652380Y-86306190D01*
X103776190Y-86182380D01*
X103838095Y-85934761D01*
X103838095Y-85501428D01*
X103776190Y-85253809D01*
X103652380Y-85130000D01*
X103528571Y-85068095D01*
X102414285Y-86368095D02*
X102414285Y-85068095D01*
X101671428Y-86368095D01*
X101671428Y-85068095D01*
X101052380Y-85872857D02*
X100061904Y-85872857D01*
X98885714Y-85068095D02*
X99133333Y-85068095D01*
X99257142Y-85130000D01*
X99319047Y-85191904D01*
X99442857Y-85377619D01*
X99504761Y-85625238D01*
X99504761Y-86120476D01*
X99442857Y-86244285D01*
X99380952Y-86306190D01*
X99257142Y-86368095D01*
X99009523Y-86368095D01*
X98885714Y-86306190D01*
X98823809Y-86244285D01*
X98761904Y-86120476D01*
X98761904Y-85810952D01*
X98823809Y-85687142D01*
X98885714Y-85625238D01*
X99009523Y-85563333D01*
X99257142Y-85563333D01*
X99380952Y-85625238D01*
X99442857Y-85687142D01*
X99504761Y-85810952D01*
X98204761Y-85872857D02*
X97214285Y-85872857D01*
X95914285Y-86368095D02*
X96657142Y-86368095D01*
X96285714Y-86368095D02*
X96285714Y-85068095D01*
X96409523Y-85253809D01*
X96533333Y-85377619D01*
X96657142Y-85439523D01*
X95357142Y-85687142D02*
X94923809Y-85687142D01*
X94738095Y-86368095D02*
X95357142Y-86368095D01*
X95357142Y-85068095D01*
X94738095Y-85068095D01*
X94180952Y-86368095D02*
X94180952Y-85068095D01*
X93685714Y-85068095D01*
X93561904Y-85130000D01*
X93500000Y-85191904D01*
X93438095Y-85315714D01*
X93438095Y-85501428D01*
X93500000Y-85625238D01*
X93561904Y-85687142D01*
X93685714Y-85749047D01*
X94180952Y-85749047D01*
X105138095Y-87391904D02*
X105076190Y-87330000D01*
X104952380Y-87268095D01*
X104642857Y-87268095D01*
X104519047Y-87330000D01*
X104457142Y-87391904D01*
X104395238Y-87515714D01*
X104395238Y-87639523D01*
X104457142Y-87825238D01*
X105200000Y-88568095D01*
X104395238Y-88568095D01*
X103961904Y-88568095D02*
X103280952Y-87701428D01*
X103961904Y-87701428D02*
X103280952Y-88568095D01*
X102847619Y-87391904D02*
X102785714Y-87330000D01*
X102661904Y-87268095D01*
X102352380Y-87268095D01*
X102228571Y-87330000D01*
X102166666Y-87391904D01*
X102104761Y-87515714D01*
X102104761Y-87639523D01*
X102166666Y-87825238D01*
X102909523Y-88568095D01*
X102104761Y-88568095D01*
X101547619Y-88072857D02*
X100557142Y-88072857D01*
X99938095Y-88568095D02*
X99938095Y-87268095D01*
X99442857Y-87268095D01*
X99319047Y-87330000D01*
X99257142Y-87391904D01*
X99195238Y-87515714D01*
X99195238Y-87701428D01*
X99257142Y-87825238D01*
X99319047Y-87887142D01*
X99442857Y-87949047D01*
X99938095Y-87949047D01*
X98390476Y-87268095D02*
X98266666Y-87268095D01*
X98142857Y-87330000D01*
X98080952Y-87391904D01*
X98019047Y-87515714D01*
X97957142Y-87763333D01*
X97957142Y-88072857D01*
X98019047Y-88320476D01*
X98080952Y-88444285D01*
X98142857Y-88506190D01*
X98266666Y-88568095D01*
X98390476Y-88568095D01*
X98514285Y-88506190D01*
X98576190Y-88444285D01*
X98638095Y-88320476D01*
X98700000Y-88072857D01*
X98700000Y-87763333D01*
X98638095Y-87515714D01*
X98576190Y-87391904D01*
X98514285Y-87330000D01*
X98390476Y-87268095D01*
X97400000Y-88444285D02*
X97338095Y-88506190D01*
X97400000Y-88568095D01*
X97461904Y-88506190D01*
X97400000Y-88444285D01*
X97400000Y-88568095D01*
X96223809Y-87268095D02*
X96471428Y-87268095D01*
X96595238Y-87330000D01*
X96657142Y-87391904D01*
X96780952Y-87577619D01*
X96842857Y-87825238D01*
X96842857Y-88320476D01*
X96780952Y-88444285D01*
X96719047Y-88506190D01*
X96595238Y-88568095D01*
X96347619Y-88568095D01*
X96223809Y-88506190D01*
X96161904Y-88444285D01*
X96100000Y-88320476D01*
X96100000Y-88010952D01*
X96161904Y-87887142D01*
X96223809Y-87825238D01*
X96347619Y-87763333D01*
X96595238Y-87763333D01*
X96719047Y-87825238D01*
X96780952Y-87887142D01*
X96842857Y-88010952D01*
X94923809Y-87268095D02*
X95542857Y-87268095D01*
X95604761Y-87887142D01*
X95542857Y-87825238D01*
X95419047Y-87763333D01*
X95109523Y-87763333D01*
X94985714Y-87825238D01*
X94923809Y-87887142D01*
X94861904Y-88010952D01*
X94861904Y-88320476D01*
X94923809Y-88444285D01*
X94985714Y-88506190D01*
X95109523Y-88568095D01*
X95419047Y-88568095D01*
X95542857Y-88506190D01*
X95604761Y-88444285D01*
X103621428Y-90087142D02*
X103188095Y-90087142D01*
X103002380Y-90768095D02*
X103621428Y-90768095D01*
X103621428Y-89468095D01*
X103002380Y-89468095D01*
X102445238Y-90768095D02*
X102445238Y-89468095D01*
X101950000Y-89468095D01*
X101826190Y-89530000D01*
X101764285Y-89591904D01*
X101702380Y-89715714D01*
X101702380Y-89901428D01*
X101764285Y-90025238D01*
X101826190Y-90087142D01*
X101950000Y-90149047D01*
X102445238Y-90149047D01*
X100464285Y-90768095D02*
X101207142Y-90768095D01*
X100835714Y-90768095D02*
X100835714Y-89468095D01*
X100959523Y-89653809D01*
X101083333Y-89777619D01*
X101207142Y-89839523D01*
X100030952Y-90768095D02*
X99350000Y-89901428D01*
X100030952Y-89901428D02*
X99350000Y-90768095D01*
X98173809Y-90768095D02*
X98916666Y-90768095D01*
X98545238Y-90768095D02*
X98545238Y-89468095D01*
X98669047Y-89653809D01*
X98792857Y-89777619D01*
X98916666Y-89839523D01*
X97616666Y-90644285D02*
X97554761Y-90706190D01*
X97616666Y-90768095D01*
X97678571Y-90706190D01*
X97616666Y-90644285D01*
X97616666Y-90768095D01*
X96440476Y-89468095D02*
X96688095Y-89468095D01*
X96811904Y-89530000D01*
X96873809Y-89591904D01*
X96997619Y-89777619D01*
X97059523Y-90025238D01*
X97059523Y-90520476D01*
X96997619Y-90644285D01*
X96935714Y-90706190D01*
X96811904Y-90768095D01*
X96564285Y-90768095D01*
X96440476Y-90706190D01*
X96378571Y-90644285D01*
X96316666Y-90520476D01*
X96316666Y-90210952D01*
X96378571Y-90087142D01*
X96440476Y-90025238D01*
X96564285Y-89963333D01*
X96811904Y-89963333D01*
X96935714Y-90025238D01*
X96997619Y-90087142D01*
X97059523Y-90210952D01*
M02*
