%TF.GenerationSoftware,KiCad,Pcbnew,5.1.7-a382d34a8~87~ubuntu20.04.1*%
%TF.CreationDate,2020-11-06T18:30:24+02:00*%
%TF.ProjectId,BRK-WSON-6-1EP-2x2-P0.65-EP1x1.6,42524b2d-5753-44f4-9e2d-362d3145502d,v1.0*%
%TF.SameCoordinates,Original*%
%TF.FileFunction,Soldermask,Top*%
%TF.FilePolarity,Negative*%
%FSLAX46Y46*%
G04 Gerber Fmt 4.6, Leading zero omitted, Abs format (unit mm)*
G04 Created by KiCad (PCBNEW 5.1.7-a382d34a8~87~ubuntu20.04.1) date 2020-11-06 18:30:24*
%MOMM*%
%LPD*%
G01*
G04 APERTURE LIST*
%ADD10O,1.700000X1.700000*%
%ADD11R,1.700000X1.700000*%
%ADD12R,1.000000X1.600000*%
G04 APERTURE END LIST*
D10*
%TO.C,J2*%
X105080000Y-94920000D03*
X105080000Y-97460000D03*
X105080000Y-100000000D03*
D11*
X105080000Y-102540000D03*
%TD*%
D10*
%TO.C,J1*%
X94920000Y-102540000D03*
X94920000Y-100000000D03*
D11*
X94920000Y-97460000D03*
%TD*%
D12*
%TO.C,U1*%
X100000000Y-100000000D03*
G36*
G01*
X100700000Y-99456250D02*
X100700000Y-99243750D01*
G75*
G02*
X100793750Y-99150000I93750J0D01*
G01*
X100981250Y-99150000D01*
G75*
G02*
X101075000Y-99243750I0J-93750D01*
G01*
X101075000Y-99456250D01*
G75*
G02*
X100981250Y-99550000I-93750J0D01*
G01*
X100793750Y-99550000D01*
G75*
G02*
X100700000Y-99456250I0J93750D01*
G01*
G37*
G36*
G01*
X100700000Y-100106250D02*
X100700000Y-99893750D01*
G75*
G02*
X100793750Y-99800000I93750J0D01*
G01*
X100981250Y-99800000D01*
G75*
G02*
X101075000Y-99893750I0J-93750D01*
G01*
X101075000Y-100106250D01*
G75*
G02*
X100981250Y-100200000I-93750J0D01*
G01*
X100793750Y-100200000D01*
G75*
G02*
X100700000Y-100106250I0J93750D01*
G01*
G37*
G36*
G01*
X100700000Y-100756250D02*
X100700000Y-100543750D01*
G75*
G02*
X100793750Y-100450000I93750J0D01*
G01*
X100981250Y-100450000D01*
G75*
G02*
X101075000Y-100543750I0J-93750D01*
G01*
X101075000Y-100756250D01*
G75*
G02*
X100981250Y-100850000I-93750J0D01*
G01*
X100793750Y-100850000D01*
G75*
G02*
X100700000Y-100756250I0J93750D01*
G01*
G37*
G36*
G01*
X98925000Y-100756250D02*
X98925000Y-100543750D01*
G75*
G02*
X99018750Y-100450000I93750J0D01*
G01*
X99206250Y-100450000D01*
G75*
G02*
X99300000Y-100543750I0J-93750D01*
G01*
X99300000Y-100756250D01*
G75*
G02*
X99206250Y-100850000I-93750J0D01*
G01*
X99018750Y-100850000D01*
G75*
G02*
X98925000Y-100756250I0J93750D01*
G01*
G37*
G36*
G01*
X98925000Y-100106250D02*
X98925000Y-99893750D01*
G75*
G02*
X99018750Y-99800000I93750J0D01*
G01*
X99206250Y-99800000D01*
G75*
G02*
X99300000Y-99893750I0J-93750D01*
G01*
X99300000Y-100106250D01*
G75*
G02*
X99206250Y-100200000I-93750J0D01*
G01*
X99018750Y-100200000D01*
G75*
G02*
X98925000Y-100106250I0J93750D01*
G01*
G37*
G36*
G01*
X98925000Y-99456250D02*
X98925000Y-99243750D01*
G75*
G02*
X99018750Y-99150000I93750J0D01*
G01*
X99206250Y-99150000D01*
G75*
G02*
X99300000Y-99243750I0J-93750D01*
G01*
X99300000Y-99456250D01*
G75*
G02*
X99206250Y-99550000I-93750J0D01*
G01*
X99018750Y-99550000D01*
G75*
G02*
X98925000Y-99456250I0J93750D01*
G01*
G37*
%TD*%
M02*
