M48
; DRILL file {KiCad 5.1.5-52549c5~84~ubuntu19.10.1} date su  1. maaliskuuta 2020 16.09.58
; FORMAT={-:-/ absolute / inch / decimal}
; #@! TF.CreationDate,2020-03-01T16:09:58+02:00
; #@! TF.GenerationSoftware,Kicad,Pcbnew,5.1.5-52549c5~84~ubuntu19.10.1
; #@! TF.FileFunction,Plated,1,2,PTH
FMAT,2
INCH
T1C0.0157
T2C0.0400
%
G90
G05
T1
X2.0827Y-2.3898
X2.189Y-3.5157
X2.1969Y-3.0157
X2.4724Y-3.8937
X2.5039Y-2.2244
X2.7795Y-2.6024
X2.7913Y-3.7559
X2.8228Y-2.7165
X2.8307Y-3.0827
X2.8386Y-3.3819
X2.8504Y-2.8346
X2.8898Y-2.189
X2.9094Y-3.2165
X2.9252Y-2.6181
X2.9252Y-3.0591
X3.0512Y-3.1063
X3.2047Y-3.4882
X3.2205Y-2.4291
T2
X2.4409Y-2.5197
X2.4409Y-2.6197
X2.4409Y-2.7197
X2.4409Y-2.8197
X2.4409Y-2.9197
X2.4409Y-3.0197
X2.4409Y-3.1197
X2.4409Y-3.2197
X2.4409Y-3.3197
X2.4409Y-3.4197
X2.5409Y-2.5197
X2.5409Y-2.6197
X2.5409Y-2.7197
X2.5409Y-2.8197
X2.5409Y-2.9197
X2.5409Y-3.0197
X2.5409Y-3.1197
X2.5409Y-3.2197
X2.5409Y-3.3197
X2.5409Y-3.4197
X3.1283Y-2.7598
X3.1283Y-2.8598
X3.1283Y-2.9598
X3.1283Y-3.0598
X3.1283Y-3.1598
X3.2283Y-2.7598
X3.2283Y-2.8598
X3.2283Y-2.9598
X3.2283Y-3.0598
X3.2283Y-3.1598
T0
M30
