G04 #@! TF.GenerationSoftware,KiCad,Pcbnew,5.1.5-52549c5~84~ubuntu19.10.1*
G04 #@! TF.CreationDate,2020-03-01T16:09:57+02:00*
G04 #@! TF.ProjectId,ARM-JTAG-TC2050-AVR,41524d2d-4a54-4414-972d-544332303530,v1.0*
G04 #@! TF.SameCoordinates,Original*
G04 #@! TF.FileFunction,Copper,L2,Bot*
G04 #@! TF.FilePolarity,Positive*
%FSLAX46Y46*%
G04 Gerber Fmt 4.6, Leading zero omitted, Abs format (unit mm)*
G04 Created by KiCad (PCBNEW 5.1.5-52549c5~84~ubuntu19.10.1) date 2020-03-01 16:09:57*
%MOMM*%
%LPD*%
G04 APERTURE LIST*
%ADD10C,0.050000*%
%ADD11O,1.727200X1.727200*%
%ADD12R,1.727200X1.727200*%
%ADD13C,0.800000*%
%ADD14C,0.300000*%
%ADD15C,0.800000*%
%ADD16C,0.200000*%
G04 APERTURE END LIST*
D10*
X82000000Y-50000000D02*
G75*
G02X87000000Y-55000000I0J-5000000D01*
G01*
X87000000Y-96000000D02*
G75*
G02X82000000Y-101000000I-5000000J0D01*
G01*
X55000000Y-101000000D02*
G75*
G02X50000000Y-96000000I0J5000000D01*
G01*
X50000000Y-55000000D02*
G75*
G02X55000000Y-50000000I5000000J0D01*
G01*
X55000000Y-50000000D02*
X82000000Y-50000000D01*
X87000000Y-55000000D02*
X87000000Y-96000000D01*
X55000000Y-101000000D02*
X82000000Y-101000000D01*
X50000000Y-55000000D02*
X50000000Y-96000000D01*
D11*
X79460000Y-70100000D03*
X82000000Y-70100000D03*
X79460000Y-72640000D03*
X82000000Y-72640000D03*
X79460000Y-75180000D03*
X82000000Y-75180000D03*
X79460000Y-77720000D03*
X82000000Y-77720000D03*
X79460000Y-80260000D03*
D12*
X82000000Y-80260000D03*
D11*
X64540000Y-86860000D03*
X62000000Y-86860000D03*
X64540000Y-84320000D03*
X62000000Y-84320000D03*
X64540000Y-81780000D03*
X62000000Y-81780000D03*
X64540000Y-79240000D03*
X62000000Y-79240000D03*
X64540000Y-76700000D03*
X62000000Y-76700000D03*
X64540000Y-74160000D03*
X62000000Y-74160000D03*
X64540000Y-71620000D03*
X62000000Y-71620000D03*
X64540000Y-69080000D03*
X62000000Y-69080000D03*
X64540000Y-66540000D03*
X62000000Y-66540000D03*
X64540000Y-64000000D03*
D12*
X62000000Y-64000000D03*
D13*
X63600000Y-56500000D03*
X72400000Y-72000000D03*
X71900000Y-78300000D03*
X73900000Y-81700000D03*
X72100000Y-85900000D03*
X71700000Y-69000000D03*
X70600000Y-66100000D03*
X81800000Y-61700000D03*
X81400000Y-88600000D03*
X70900000Y-95400000D03*
X55600000Y-89300000D03*
X55800000Y-76600000D03*
X73400000Y-55600000D03*
X52900000Y-60700000D03*
X62800000Y-98900000D03*
X77500000Y-78900000D03*
X74300000Y-77700000D03*
X74300000Y-66500000D03*
D14*
X79460000Y-75180000D02*
X77500000Y-77140000D01*
X77500000Y-77140000D02*
X77500000Y-78900000D01*
D15*
X74300000Y-77700000D02*
X74300000Y-66500000D01*
D16*
G36*
X82827641Y-50400156D02*
G01*
X83629125Y-50619418D01*
X84379110Y-50977142D01*
X85053896Y-51462025D01*
X85632155Y-52058741D01*
X86095602Y-52748425D01*
X86429593Y-53509276D01*
X86624171Y-54319751D01*
X86675000Y-55011914D01*
X86675001Y-95985519D01*
X86599843Y-96827643D01*
X86380582Y-97629125D01*
X86022858Y-98379110D01*
X85537975Y-99053896D01*
X84941259Y-99632155D01*
X84251576Y-100095601D01*
X83490723Y-100429593D01*
X82680249Y-100624171D01*
X81988086Y-100675000D01*
X55014469Y-100675000D01*
X54172357Y-100599843D01*
X53370875Y-100380582D01*
X52620890Y-100022858D01*
X51946104Y-99537975D01*
X51367845Y-98941259D01*
X50904399Y-98251576D01*
X50570407Y-97490723D01*
X50375829Y-96680249D01*
X50325000Y-95988086D01*
X50325000Y-95812866D01*
X53100000Y-95812866D01*
X53100000Y-96187134D01*
X53173016Y-96554209D01*
X53316242Y-96899987D01*
X53524174Y-97211179D01*
X53788821Y-97475826D01*
X54100013Y-97683758D01*
X54445791Y-97826984D01*
X54812866Y-97900000D01*
X55187134Y-97900000D01*
X55554209Y-97826984D01*
X55899987Y-97683758D01*
X56211179Y-97475826D01*
X56475826Y-97211179D01*
X56683758Y-96899987D01*
X56826984Y-96554209D01*
X56900000Y-96187134D01*
X56900000Y-95812866D01*
X80100000Y-95812866D01*
X80100000Y-96187134D01*
X80173016Y-96554209D01*
X80316242Y-96899987D01*
X80524174Y-97211179D01*
X80788821Y-97475826D01*
X81100013Y-97683758D01*
X81445791Y-97826984D01*
X81812866Y-97900000D01*
X82187134Y-97900000D01*
X82554209Y-97826984D01*
X82899987Y-97683758D01*
X83211179Y-97475826D01*
X83475826Y-97211179D01*
X83683758Y-96899987D01*
X83826984Y-96554209D01*
X83900000Y-96187134D01*
X83900000Y-95812866D01*
X83826984Y-95445791D01*
X83683758Y-95100013D01*
X83475826Y-94788821D01*
X83211179Y-94524174D01*
X82899987Y-94316242D01*
X82554209Y-94173016D01*
X82187134Y-94100000D01*
X81812866Y-94100000D01*
X81445791Y-94173016D01*
X81100013Y-94316242D01*
X80788821Y-94524174D01*
X80524174Y-94788821D01*
X80316242Y-95100013D01*
X80173016Y-95445791D01*
X80100000Y-95812866D01*
X56900000Y-95812866D01*
X56826984Y-95445791D01*
X56683758Y-95100013D01*
X56475826Y-94788821D01*
X56211179Y-94524174D01*
X55899987Y-94316242D01*
X55554209Y-94173016D01*
X55187134Y-94100000D01*
X54812866Y-94100000D01*
X54445791Y-94173016D01*
X54100013Y-94316242D01*
X53788821Y-94524174D01*
X53524174Y-94788821D01*
X53316242Y-95100013D01*
X53173016Y-95445791D01*
X53100000Y-95812866D01*
X50325000Y-95812866D01*
X50325000Y-86745395D01*
X60836400Y-86745395D01*
X60836400Y-86974605D01*
X60881117Y-87199410D01*
X60968831Y-87411171D01*
X61096173Y-87601752D01*
X61258248Y-87763827D01*
X61448829Y-87891169D01*
X61660590Y-87978883D01*
X61885395Y-88023600D01*
X62114605Y-88023600D01*
X62339410Y-87978883D01*
X62551171Y-87891169D01*
X62741752Y-87763827D01*
X62903827Y-87601752D01*
X63031169Y-87411171D01*
X63118883Y-87199410D01*
X63163600Y-86974605D01*
X63163600Y-86745395D01*
X63118883Y-86520590D01*
X63031169Y-86308829D01*
X62903827Y-86118248D01*
X62741752Y-85956173D01*
X62551171Y-85828831D01*
X62339410Y-85741117D01*
X62114605Y-85696400D01*
X61885395Y-85696400D01*
X61660590Y-85741117D01*
X61448829Y-85828831D01*
X61258248Y-85956173D01*
X61096173Y-86118248D01*
X60968831Y-86308829D01*
X60881117Y-86520590D01*
X60836400Y-86745395D01*
X50325000Y-86745395D01*
X50325000Y-84205395D01*
X60836400Y-84205395D01*
X60836400Y-84434605D01*
X60881117Y-84659410D01*
X60968831Y-84871171D01*
X61096173Y-85061752D01*
X61258248Y-85223827D01*
X61448829Y-85351169D01*
X61660590Y-85438883D01*
X61885395Y-85483600D01*
X62114605Y-85483600D01*
X62339410Y-85438883D01*
X62551171Y-85351169D01*
X62741752Y-85223827D01*
X62903827Y-85061752D01*
X63031169Y-84871171D01*
X63118883Y-84659410D01*
X63163600Y-84434605D01*
X63163600Y-84205395D01*
X63118883Y-83980590D01*
X63031169Y-83768829D01*
X62903827Y-83578248D01*
X62741752Y-83416173D01*
X62551171Y-83288831D01*
X62339410Y-83201117D01*
X62114605Y-83156400D01*
X61885395Y-83156400D01*
X61660590Y-83201117D01*
X61448829Y-83288831D01*
X61258248Y-83416173D01*
X61096173Y-83578248D01*
X60968831Y-83768829D01*
X60881117Y-83980590D01*
X60836400Y-84205395D01*
X50325000Y-84205395D01*
X50325000Y-81665395D01*
X60836400Y-81665395D01*
X60836400Y-81894605D01*
X60881117Y-82119410D01*
X60968831Y-82331171D01*
X61096173Y-82521752D01*
X61258248Y-82683827D01*
X61448829Y-82811169D01*
X61660590Y-82898883D01*
X61885395Y-82943600D01*
X62114605Y-82943600D01*
X62339410Y-82898883D01*
X62551171Y-82811169D01*
X62741752Y-82683827D01*
X62903827Y-82521752D01*
X63031169Y-82331171D01*
X63118883Y-82119410D01*
X63163600Y-81894605D01*
X63163600Y-81665395D01*
X63118883Y-81440590D01*
X63031169Y-81228829D01*
X62903827Y-81038248D01*
X62741752Y-80876173D01*
X62551171Y-80748831D01*
X62339410Y-80661117D01*
X62114605Y-80616400D01*
X61885395Y-80616400D01*
X61660590Y-80661117D01*
X61448829Y-80748831D01*
X61258248Y-80876173D01*
X61096173Y-81038248D01*
X60968831Y-81228829D01*
X60881117Y-81440590D01*
X60836400Y-81665395D01*
X50325000Y-81665395D01*
X50325000Y-79125395D01*
X60836400Y-79125395D01*
X60836400Y-79354605D01*
X60881117Y-79579410D01*
X60968831Y-79791171D01*
X61096173Y-79981752D01*
X61258248Y-80143827D01*
X61448829Y-80271169D01*
X61660590Y-80358883D01*
X61885395Y-80403600D01*
X62114605Y-80403600D01*
X62339410Y-80358883D01*
X62551171Y-80271169D01*
X62741752Y-80143827D01*
X62903827Y-79981752D01*
X63031169Y-79791171D01*
X63118883Y-79579410D01*
X63163600Y-79354605D01*
X63163600Y-79125395D01*
X63118883Y-78900590D01*
X63090082Y-78831056D01*
X76800000Y-78831056D01*
X76800000Y-78968944D01*
X76826901Y-79104182D01*
X76879668Y-79231574D01*
X76956274Y-79346224D01*
X77053776Y-79443726D01*
X77168426Y-79520332D01*
X77295818Y-79573099D01*
X77431056Y-79600000D01*
X77568944Y-79600000D01*
X77704182Y-79573099D01*
X77831574Y-79520332D01*
X77946224Y-79443726D01*
X77993550Y-79396400D01*
X80834949Y-79396400D01*
X80834949Y-81123600D01*
X80840741Y-81182410D01*
X80857896Y-81238960D01*
X80885753Y-81291077D01*
X80923242Y-81336758D01*
X80968923Y-81374247D01*
X81021040Y-81402104D01*
X81077590Y-81419259D01*
X81136400Y-81425051D01*
X82863600Y-81425051D01*
X82922410Y-81419259D01*
X82978960Y-81402104D01*
X83031077Y-81374247D01*
X83076758Y-81336758D01*
X83114247Y-81291077D01*
X83142104Y-81238960D01*
X83159259Y-81182410D01*
X83165051Y-81123600D01*
X83165051Y-79396400D01*
X83159259Y-79337590D01*
X83142104Y-79281040D01*
X83114247Y-79228923D01*
X83076758Y-79183242D01*
X83031077Y-79145753D01*
X82978960Y-79117896D01*
X82922410Y-79100741D01*
X82863600Y-79094949D01*
X81136400Y-79094949D01*
X81077590Y-79100741D01*
X81021040Y-79117896D01*
X80968923Y-79145753D01*
X80923242Y-79183242D01*
X80885753Y-79228923D01*
X80857896Y-79281040D01*
X80840741Y-79337590D01*
X80834949Y-79396400D01*
X77993550Y-79396400D01*
X78043726Y-79346224D01*
X78120332Y-79231574D01*
X78173099Y-79104182D01*
X78200000Y-78968944D01*
X78200000Y-78831056D01*
X78173099Y-78695818D01*
X78120332Y-78568426D01*
X78043726Y-78453776D01*
X77950000Y-78360050D01*
X77950000Y-77605395D01*
X78296400Y-77605395D01*
X78296400Y-77834605D01*
X78341117Y-78059410D01*
X78428831Y-78271171D01*
X78556173Y-78461752D01*
X78718248Y-78623827D01*
X78908829Y-78751169D01*
X79120590Y-78838883D01*
X79345395Y-78883600D01*
X79574605Y-78883600D01*
X79799410Y-78838883D01*
X80011171Y-78751169D01*
X80201752Y-78623827D01*
X80363827Y-78461752D01*
X80491169Y-78271171D01*
X80578883Y-78059410D01*
X80623600Y-77834605D01*
X80623600Y-77605395D01*
X80836400Y-77605395D01*
X80836400Y-77834605D01*
X80881117Y-78059410D01*
X80968831Y-78271171D01*
X81096173Y-78461752D01*
X81258248Y-78623827D01*
X81448829Y-78751169D01*
X81660590Y-78838883D01*
X81885395Y-78883600D01*
X82114605Y-78883600D01*
X82339410Y-78838883D01*
X82551171Y-78751169D01*
X82741752Y-78623827D01*
X82903827Y-78461752D01*
X83031169Y-78271171D01*
X83118883Y-78059410D01*
X83163600Y-77834605D01*
X83163600Y-77605395D01*
X83118883Y-77380590D01*
X83031169Y-77168829D01*
X82903827Y-76978248D01*
X82741752Y-76816173D01*
X82551171Y-76688831D01*
X82339410Y-76601117D01*
X82114605Y-76556400D01*
X81885395Y-76556400D01*
X81660590Y-76601117D01*
X81448829Y-76688831D01*
X81258248Y-76816173D01*
X81096173Y-76978248D01*
X80968831Y-77168829D01*
X80881117Y-77380590D01*
X80836400Y-77605395D01*
X80623600Y-77605395D01*
X80578883Y-77380590D01*
X80491169Y-77168829D01*
X80363827Y-76978248D01*
X80201752Y-76816173D01*
X80011171Y-76688831D01*
X79799410Y-76601117D01*
X79574605Y-76556400D01*
X79345395Y-76556400D01*
X79120590Y-76601117D01*
X78908829Y-76688831D01*
X78718248Y-76816173D01*
X78556173Y-76978248D01*
X78428831Y-77168829D01*
X78341117Y-77380590D01*
X78296400Y-77605395D01*
X77950000Y-77605395D01*
X77950000Y-77326395D01*
X79019419Y-76256977D01*
X79120590Y-76298883D01*
X79345395Y-76343600D01*
X79574605Y-76343600D01*
X79799410Y-76298883D01*
X80011171Y-76211169D01*
X80201752Y-76083827D01*
X80363827Y-75921752D01*
X80491169Y-75731171D01*
X80578883Y-75519410D01*
X80623600Y-75294605D01*
X80623600Y-75065395D01*
X80836400Y-75065395D01*
X80836400Y-75294605D01*
X80881117Y-75519410D01*
X80968831Y-75731171D01*
X81096173Y-75921752D01*
X81258248Y-76083827D01*
X81448829Y-76211169D01*
X81660590Y-76298883D01*
X81885395Y-76343600D01*
X82114605Y-76343600D01*
X82339410Y-76298883D01*
X82551171Y-76211169D01*
X82741752Y-76083827D01*
X82903827Y-75921752D01*
X83031169Y-75731171D01*
X83118883Y-75519410D01*
X83163600Y-75294605D01*
X83163600Y-75065395D01*
X83118883Y-74840590D01*
X83031169Y-74628829D01*
X82903827Y-74438248D01*
X82741752Y-74276173D01*
X82551171Y-74148831D01*
X82339410Y-74061117D01*
X82114605Y-74016400D01*
X81885395Y-74016400D01*
X81660590Y-74061117D01*
X81448829Y-74148831D01*
X81258248Y-74276173D01*
X81096173Y-74438248D01*
X80968831Y-74628829D01*
X80881117Y-74840590D01*
X80836400Y-75065395D01*
X80623600Y-75065395D01*
X80578883Y-74840590D01*
X80491169Y-74628829D01*
X80363827Y-74438248D01*
X80201752Y-74276173D01*
X80011171Y-74148831D01*
X79799410Y-74061117D01*
X79574605Y-74016400D01*
X79345395Y-74016400D01*
X79120590Y-74061117D01*
X78908829Y-74148831D01*
X78718248Y-74276173D01*
X78556173Y-74438248D01*
X78428831Y-74628829D01*
X78341117Y-74840590D01*
X78296400Y-75065395D01*
X78296400Y-75294605D01*
X78341117Y-75519410D01*
X78383023Y-75620581D01*
X77197434Y-76806171D01*
X77180263Y-76820263D01*
X77166172Y-76837433D01*
X77124029Y-76888784D01*
X77082244Y-76966959D01*
X77082243Y-76966960D01*
X77056511Y-77051786D01*
X77050000Y-77117896D01*
X77050000Y-77117906D01*
X77047824Y-77140000D01*
X77050000Y-77162095D01*
X77050001Y-78360049D01*
X76956274Y-78453776D01*
X76879668Y-78568426D01*
X76826901Y-78695818D01*
X76800000Y-78831056D01*
X63090082Y-78831056D01*
X63031169Y-78688829D01*
X62903827Y-78498248D01*
X62741752Y-78336173D01*
X62551171Y-78208831D01*
X62339410Y-78121117D01*
X62114605Y-78076400D01*
X61885395Y-78076400D01*
X61660590Y-78121117D01*
X61448829Y-78208831D01*
X61258248Y-78336173D01*
X61096173Y-78498248D01*
X60968831Y-78688829D01*
X60881117Y-78900590D01*
X60836400Y-79125395D01*
X50325000Y-79125395D01*
X50325000Y-76585395D01*
X60836400Y-76585395D01*
X60836400Y-76814605D01*
X60881117Y-77039410D01*
X60968831Y-77251171D01*
X61096173Y-77441752D01*
X61258248Y-77603827D01*
X61448829Y-77731169D01*
X61660590Y-77818883D01*
X61885395Y-77863600D01*
X62114605Y-77863600D01*
X62339410Y-77818883D01*
X62551171Y-77731169D01*
X62741752Y-77603827D01*
X62903827Y-77441752D01*
X63031169Y-77251171D01*
X63118883Y-77039410D01*
X63163600Y-76814605D01*
X63163600Y-76585395D01*
X63118883Y-76360590D01*
X63031169Y-76148829D01*
X62903827Y-75958248D01*
X62741752Y-75796173D01*
X62551171Y-75668831D01*
X62339410Y-75581117D01*
X62114605Y-75536400D01*
X61885395Y-75536400D01*
X61660590Y-75581117D01*
X61448829Y-75668831D01*
X61258248Y-75796173D01*
X61096173Y-75958248D01*
X60968831Y-76148829D01*
X60881117Y-76360590D01*
X60836400Y-76585395D01*
X50325000Y-76585395D01*
X50325000Y-74045395D01*
X60836400Y-74045395D01*
X60836400Y-74274605D01*
X60881117Y-74499410D01*
X60968831Y-74711171D01*
X61096173Y-74901752D01*
X61258248Y-75063827D01*
X61448829Y-75191169D01*
X61660590Y-75278883D01*
X61885395Y-75323600D01*
X62114605Y-75323600D01*
X62339410Y-75278883D01*
X62551171Y-75191169D01*
X62741752Y-75063827D01*
X62903827Y-74901752D01*
X63031169Y-74711171D01*
X63118883Y-74499410D01*
X63163600Y-74274605D01*
X63163600Y-74045395D01*
X63118883Y-73820590D01*
X63031169Y-73608829D01*
X62903827Y-73418248D01*
X62741752Y-73256173D01*
X62551171Y-73128831D01*
X62339410Y-73041117D01*
X62114605Y-72996400D01*
X61885395Y-72996400D01*
X61660590Y-73041117D01*
X61448829Y-73128831D01*
X61258248Y-73256173D01*
X61096173Y-73418248D01*
X60968831Y-73608829D01*
X60881117Y-73820590D01*
X60836400Y-74045395D01*
X50325000Y-74045395D01*
X50325000Y-71505395D01*
X60836400Y-71505395D01*
X60836400Y-71734605D01*
X60881117Y-71959410D01*
X60968831Y-72171171D01*
X61096173Y-72361752D01*
X61258248Y-72523827D01*
X61448829Y-72651169D01*
X61660590Y-72738883D01*
X61885395Y-72783600D01*
X62114605Y-72783600D01*
X62339410Y-72738883D01*
X62551171Y-72651169D01*
X62741752Y-72523827D01*
X62903827Y-72361752D01*
X63031169Y-72171171D01*
X63118883Y-71959410D01*
X63163600Y-71734605D01*
X63163600Y-71505395D01*
X63118883Y-71280590D01*
X63031169Y-71068829D01*
X62903827Y-70878248D01*
X62741752Y-70716173D01*
X62551171Y-70588831D01*
X62339410Y-70501117D01*
X62114605Y-70456400D01*
X61885395Y-70456400D01*
X61660590Y-70501117D01*
X61448829Y-70588831D01*
X61258248Y-70716173D01*
X61096173Y-70878248D01*
X60968831Y-71068829D01*
X60881117Y-71280590D01*
X60836400Y-71505395D01*
X50325000Y-71505395D01*
X50325000Y-68965395D01*
X60836400Y-68965395D01*
X60836400Y-69194605D01*
X60881117Y-69419410D01*
X60968831Y-69631171D01*
X61096173Y-69821752D01*
X61258248Y-69983827D01*
X61448829Y-70111169D01*
X61660590Y-70198883D01*
X61885395Y-70243600D01*
X62114605Y-70243600D01*
X62339410Y-70198883D01*
X62551171Y-70111169D01*
X62741752Y-69983827D01*
X62903827Y-69821752D01*
X63031169Y-69631171D01*
X63118883Y-69419410D01*
X63163600Y-69194605D01*
X63163600Y-68965395D01*
X63118883Y-68740590D01*
X63031169Y-68528829D01*
X62903827Y-68338248D01*
X62741752Y-68176173D01*
X62551171Y-68048831D01*
X62339410Y-67961117D01*
X62114605Y-67916400D01*
X61885395Y-67916400D01*
X61660590Y-67961117D01*
X61448829Y-68048831D01*
X61258248Y-68176173D01*
X61096173Y-68338248D01*
X60968831Y-68528829D01*
X60881117Y-68740590D01*
X60836400Y-68965395D01*
X50325000Y-68965395D01*
X50325000Y-66425395D01*
X60836400Y-66425395D01*
X60836400Y-66654605D01*
X60881117Y-66879410D01*
X60968831Y-67091171D01*
X61096173Y-67281752D01*
X61258248Y-67443827D01*
X61448829Y-67571169D01*
X61660590Y-67658883D01*
X61885395Y-67703600D01*
X62114605Y-67703600D01*
X62339410Y-67658883D01*
X62551171Y-67571169D01*
X62741752Y-67443827D01*
X62903827Y-67281752D01*
X63031169Y-67091171D01*
X63118883Y-66879410D01*
X63163600Y-66654605D01*
X63163600Y-66431056D01*
X73600000Y-66431056D01*
X73600000Y-66568944D01*
X73600001Y-66568949D01*
X73600000Y-77631056D01*
X73600000Y-77768944D01*
X73606741Y-77802832D01*
X73610128Y-77837223D01*
X73620160Y-77870295D01*
X73626901Y-77904182D01*
X73640123Y-77936103D01*
X73650155Y-77969174D01*
X73666445Y-77999650D01*
X73679668Y-78031574D01*
X73698867Y-78060308D01*
X73715155Y-78090780D01*
X73737072Y-78117487D01*
X73756274Y-78146224D01*
X73780713Y-78170663D01*
X73802630Y-78197369D01*
X73829337Y-78219287D01*
X73853776Y-78243726D01*
X73882510Y-78262925D01*
X73909219Y-78284845D01*
X73939696Y-78301135D01*
X73968426Y-78320332D01*
X74000346Y-78333554D01*
X74030825Y-78349845D01*
X74063900Y-78359878D01*
X74095818Y-78373099D01*
X74129702Y-78379839D01*
X74162776Y-78389872D01*
X74197169Y-78393259D01*
X74231056Y-78400000D01*
X74265610Y-78400000D01*
X74300000Y-78403387D01*
X74334390Y-78400000D01*
X74368944Y-78400000D01*
X74402832Y-78393259D01*
X74437223Y-78389872D01*
X74470295Y-78379840D01*
X74504182Y-78373099D01*
X74536103Y-78359877D01*
X74569174Y-78349845D01*
X74599650Y-78333555D01*
X74631574Y-78320332D01*
X74660308Y-78301133D01*
X74690780Y-78284845D01*
X74717487Y-78262928D01*
X74746224Y-78243726D01*
X74770663Y-78219287D01*
X74797369Y-78197370D01*
X74819287Y-78170663D01*
X74843726Y-78146224D01*
X74862925Y-78117490D01*
X74884845Y-78090781D01*
X74901135Y-78060304D01*
X74920332Y-78031574D01*
X74933554Y-77999654D01*
X74949845Y-77969175D01*
X74959878Y-77936100D01*
X74973099Y-77904182D01*
X74979839Y-77870298D01*
X74989872Y-77837224D01*
X74993259Y-77802831D01*
X75000000Y-77768944D01*
X75000000Y-72525395D01*
X78296400Y-72525395D01*
X78296400Y-72754605D01*
X78341117Y-72979410D01*
X78428831Y-73191171D01*
X78556173Y-73381752D01*
X78718248Y-73543827D01*
X78908829Y-73671169D01*
X79120590Y-73758883D01*
X79345395Y-73803600D01*
X79574605Y-73803600D01*
X79799410Y-73758883D01*
X80011171Y-73671169D01*
X80201752Y-73543827D01*
X80363827Y-73381752D01*
X80491169Y-73191171D01*
X80578883Y-72979410D01*
X80623600Y-72754605D01*
X80623600Y-72525395D01*
X80836400Y-72525395D01*
X80836400Y-72754605D01*
X80881117Y-72979410D01*
X80968831Y-73191171D01*
X81096173Y-73381752D01*
X81258248Y-73543827D01*
X81448829Y-73671169D01*
X81660590Y-73758883D01*
X81885395Y-73803600D01*
X82114605Y-73803600D01*
X82339410Y-73758883D01*
X82551171Y-73671169D01*
X82741752Y-73543827D01*
X82903827Y-73381752D01*
X83031169Y-73191171D01*
X83118883Y-72979410D01*
X83163600Y-72754605D01*
X83163600Y-72525395D01*
X83118883Y-72300590D01*
X83031169Y-72088829D01*
X82903827Y-71898248D01*
X82741752Y-71736173D01*
X82551171Y-71608831D01*
X82339410Y-71521117D01*
X82114605Y-71476400D01*
X81885395Y-71476400D01*
X81660590Y-71521117D01*
X81448829Y-71608831D01*
X81258248Y-71736173D01*
X81096173Y-71898248D01*
X80968831Y-72088829D01*
X80881117Y-72300590D01*
X80836400Y-72525395D01*
X80623600Y-72525395D01*
X80578883Y-72300590D01*
X80491169Y-72088829D01*
X80363827Y-71898248D01*
X80201752Y-71736173D01*
X80011171Y-71608831D01*
X79799410Y-71521117D01*
X79574605Y-71476400D01*
X79345395Y-71476400D01*
X79120590Y-71521117D01*
X78908829Y-71608831D01*
X78718248Y-71736173D01*
X78556173Y-71898248D01*
X78428831Y-72088829D01*
X78341117Y-72300590D01*
X78296400Y-72525395D01*
X75000000Y-72525395D01*
X75000000Y-69985395D01*
X80836400Y-69985395D01*
X80836400Y-70214605D01*
X80881117Y-70439410D01*
X80968831Y-70651171D01*
X81096173Y-70841752D01*
X81258248Y-71003827D01*
X81448829Y-71131169D01*
X81660590Y-71218883D01*
X81885395Y-71263600D01*
X82114605Y-71263600D01*
X82339410Y-71218883D01*
X82551171Y-71131169D01*
X82741752Y-71003827D01*
X82903827Y-70841752D01*
X83031169Y-70651171D01*
X83118883Y-70439410D01*
X83163600Y-70214605D01*
X83163600Y-69985395D01*
X83118883Y-69760590D01*
X83031169Y-69548829D01*
X82903827Y-69358248D01*
X82741752Y-69196173D01*
X82551171Y-69068831D01*
X82339410Y-68981117D01*
X82114605Y-68936400D01*
X81885395Y-68936400D01*
X81660590Y-68981117D01*
X81448829Y-69068831D01*
X81258248Y-69196173D01*
X81096173Y-69358248D01*
X80968831Y-69548829D01*
X80881117Y-69760590D01*
X80836400Y-69985395D01*
X75000000Y-69985395D01*
X75000000Y-66431056D01*
X74993259Y-66397169D01*
X74989872Y-66362776D01*
X74979839Y-66329702D01*
X74973099Y-66295818D01*
X74959878Y-66263900D01*
X74949845Y-66230825D01*
X74933554Y-66200346D01*
X74920332Y-66168426D01*
X74901135Y-66139696D01*
X74884845Y-66109219D01*
X74862924Y-66082508D01*
X74843726Y-66053776D01*
X74819291Y-66029341D01*
X74797370Y-66002630D01*
X74770659Y-65980709D01*
X74746224Y-65956274D01*
X74717492Y-65937076D01*
X74690781Y-65915155D01*
X74660304Y-65898865D01*
X74631574Y-65879668D01*
X74599654Y-65866446D01*
X74569175Y-65850155D01*
X74536100Y-65840122D01*
X74504182Y-65826901D01*
X74470298Y-65820161D01*
X74437224Y-65810128D01*
X74402831Y-65806741D01*
X74368944Y-65800000D01*
X74334390Y-65800000D01*
X74300000Y-65796613D01*
X74265610Y-65800000D01*
X74231056Y-65800000D01*
X74197168Y-65806741D01*
X74162777Y-65810128D01*
X74129705Y-65820160D01*
X74095818Y-65826901D01*
X74063897Y-65840123D01*
X74030826Y-65850155D01*
X74000350Y-65866445D01*
X73968426Y-65879668D01*
X73939692Y-65898867D01*
X73909220Y-65915155D01*
X73882513Y-65937072D01*
X73853776Y-65956274D01*
X73829337Y-65980713D01*
X73802631Y-66002630D01*
X73780714Y-66029336D01*
X73756274Y-66053776D01*
X73737072Y-66082515D01*
X73715156Y-66109219D01*
X73698870Y-66139688D01*
X73679668Y-66168426D01*
X73666443Y-66200354D01*
X73650156Y-66230825D01*
X73640126Y-66263891D01*
X73626901Y-66295818D01*
X73620159Y-66329711D01*
X73610129Y-66362776D01*
X73606743Y-66397159D01*
X73600000Y-66431056D01*
X63163600Y-66431056D01*
X63163600Y-66425395D01*
X63118883Y-66200590D01*
X63031169Y-65988829D01*
X62903827Y-65798248D01*
X62741752Y-65636173D01*
X62551171Y-65508831D01*
X62339410Y-65421117D01*
X62114605Y-65376400D01*
X61885395Y-65376400D01*
X61660590Y-65421117D01*
X61448829Y-65508831D01*
X61258248Y-65636173D01*
X61096173Y-65798248D01*
X60968831Y-65988829D01*
X60881117Y-66200590D01*
X60836400Y-66425395D01*
X50325000Y-66425395D01*
X50325000Y-63136400D01*
X60834949Y-63136400D01*
X60834949Y-64863600D01*
X60840741Y-64922410D01*
X60857896Y-64978960D01*
X60885753Y-65031077D01*
X60923242Y-65076758D01*
X60968923Y-65114247D01*
X61021040Y-65142104D01*
X61077590Y-65159259D01*
X61136400Y-65165051D01*
X62863600Y-65165051D01*
X62922410Y-65159259D01*
X62978960Y-65142104D01*
X63031077Y-65114247D01*
X63076758Y-65076758D01*
X63114247Y-65031077D01*
X63142104Y-64978960D01*
X63159259Y-64922410D01*
X63165051Y-64863600D01*
X63165051Y-63885395D01*
X63376400Y-63885395D01*
X63376400Y-64114605D01*
X63421117Y-64339410D01*
X63508831Y-64551171D01*
X63636173Y-64741752D01*
X63798248Y-64903827D01*
X63988829Y-65031169D01*
X64200590Y-65118883D01*
X64425395Y-65163600D01*
X64654605Y-65163600D01*
X64879410Y-65118883D01*
X65091171Y-65031169D01*
X65281752Y-64903827D01*
X65443827Y-64741752D01*
X65571169Y-64551171D01*
X65658883Y-64339410D01*
X65703600Y-64114605D01*
X65703600Y-63885395D01*
X65658883Y-63660590D01*
X65571169Y-63448829D01*
X65443827Y-63258248D01*
X65281752Y-63096173D01*
X65091171Y-62968831D01*
X64879410Y-62881117D01*
X64654605Y-62836400D01*
X64425395Y-62836400D01*
X64200590Y-62881117D01*
X63988829Y-62968831D01*
X63798248Y-63096173D01*
X63636173Y-63258248D01*
X63508831Y-63448829D01*
X63421117Y-63660590D01*
X63376400Y-63885395D01*
X63165051Y-63885395D01*
X63165051Y-63136400D01*
X63159259Y-63077590D01*
X63142104Y-63021040D01*
X63114247Y-62968923D01*
X63076758Y-62923242D01*
X63031077Y-62885753D01*
X62978960Y-62857896D01*
X62922410Y-62840741D01*
X62863600Y-62834949D01*
X61136400Y-62834949D01*
X61077590Y-62840741D01*
X61021040Y-62857896D01*
X60968923Y-62885753D01*
X60923242Y-62923242D01*
X60885753Y-62968923D01*
X60857896Y-63021040D01*
X60840741Y-63077590D01*
X60834949Y-63136400D01*
X50325000Y-63136400D01*
X50325000Y-55014470D01*
X50342992Y-54812866D01*
X53100000Y-54812866D01*
X53100000Y-55187134D01*
X53173016Y-55554209D01*
X53316242Y-55899987D01*
X53524174Y-56211179D01*
X53788821Y-56475826D01*
X54100013Y-56683758D01*
X54445791Y-56826984D01*
X54812866Y-56900000D01*
X55187134Y-56900000D01*
X55554209Y-56826984D01*
X55899987Y-56683758D01*
X56211179Y-56475826D01*
X56475826Y-56211179D01*
X56683758Y-55899987D01*
X56826984Y-55554209D01*
X56900000Y-55187134D01*
X56900000Y-54812866D01*
X80100000Y-54812866D01*
X80100000Y-55187134D01*
X80173016Y-55554209D01*
X80316242Y-55899987D01*
X80524174Y-56211179D01*
X80788821Y-56475826D01*
X81100013Y-56683758D01*
X81445791Y-56826984D01*
X81812866Y-56900000D01*
X82187134Y-56900000D01*
X82554209Y-56826984D01*
X82899987Y-56683758D01*
X83211179Y-56475826D01*
X83475826Y-56211179D01*
X83683758Y-55899987D01*
X83826984Y-55554209D01*
X83900000Y-55187134D01*
X83900000Y-54812866D01*
X83826984Y-54445791D01*
X83683758Y-54100013D01*
X83475826Y-53788821D01*
X83211179Y-53524174D01*
X82899987Y-53316242D01*
X82554209Y-53173016D01*
X82187134Y-53100000D01*
X81812866Y-53100000D01*
X81445791Y-53173016D01*
X81100013Y-53316242D01*
X80788821Y-53524174D01*
X80524174Y-53788821D01*
X80316242Y-54100013D01*
X80173016Y-54445791D01*
X80100000Y-54812866D01*
X56900000Y-54812866D01*
X56826984Y-54445791D01*
X56683758Y-54100013D01*
X56475826Y-53788821D01*
X56211179Y-53524174D01*
X55899987Y-53316242D01*
X55554209Y-53173016D01*
X55187134Y-53100000D01*
X54812866Y-53100000D01*
X54445791Y-53173016D01*
X54100013Y-53316242D01*
X53788821Y-53524174D01*
X53524174Y-53788821D01*
X53316242Y-54100013D01*
X53173016Y-54445791D01*
X53100000Y-54812866D01*
X50342992Y-54812866D01*
X50400156Y-54172359D01*
X50619418Y-53370875D01*
X50977142Y-52620890D01*
X51462025Y-51946104D01*
X52058741Y-51367845D01*
X52748425Y-50904398D01*
X53509276Y-50570407D01*
X54319751Y-50375829D01*
X55011914Y-50325000D01*
X81985530Y-50325000D01*
X82827641Y-50400156D01*
G37*
X82827641Y-50400156D02*
X83629125Y-50619418D01*
X84379110Y-50977142D01*
X85053896Y-51462025D01*
X85632155Y-52058741D01*
X86095602Y-52748425D01*
X86429593Y-53509276D01*
X86624171Y-54319751D01*
X86675000Y-55011914D01*
X86675001Y-95985519D01*
X86599843Y-96827643D01*
X86380582Y-97629125D01*
X86022858Y-98379110D01*
X85537975Y-99053896D01*
X84941259Y-99632155D01*
X84251576Y-100095601D01*
X83490723Y-100429593D01*
X82680249Y-100624171D01*
X81988086Y-100675000D01*
X55014469Y-100675000D01*
X54172357Y-100599843D01*
X53370875Y-100380582D01*
X52620890Y-100022858D01*
X51946104Y-99537975D01*
X51367845Y-98941259D01*
X50904399Y-98251576D01*
X50570407Y-97490723D01*
X50375829Y-96680249D01*
X50325000Y-95988086D01*
X50325000Y-95812866D01*
X53100000Y-95812866D01*
X53100000Y-96187134D01*
X53173016Y-96554209D01*
X53316242Y-96899987D01*
X53524174Y-97211179D01*
X53788821Y-97475826D01*
X54100013Y-97683758D01*
X54445791Y-97826984D01*
X54812866Y-97900000D01*
X55187134Y-97900000D01*
X55554209Y-97826984D01*
X55899987Y-97683758D01*
X56211179Y-97475826D01*
X56475826Y-97211179D01*
X56683758Y-96899987D01*
X56826984Y-96554209D01*
X56900000Y-96187134D01*
X56900000Y-95812866D01*
X80100000Y-95812866D01*
X80100000Y-96187134D01*
X80173016Y-96554209D01*
X80316242Y-96899987D01*
X80524174Y-97211179D01*
X80788821Y-97475826D01*
X81100013Y-97683758D01*
X81445791Y-97826984D01*
X81812866Y-97900000D01*
X82187134Y-97900000D01*
X82554209Y-97826984D01*
X82899987Y-97683758D01*
X83211179Y-97475826D01*
X83475826Y-97211179D01*
X83683758Y-96899987D01*
X83826984Y-96554209D01*
X83900000Y-96187134D01*
X83900000Y-95812866D01*
X83826984Y-95445791D01*
X83683758Y-95100013D01*
X83475826Y-94788821D01*
X83211179Y-94524174D01*
X82899987Y-94316242D01*
X82554209Y-94173016D01*
X82187134Y-94100000D01*
X81812866Y-94100000D01*
X81445791Y-94173016D01*
X81100013Y-94316242D01*
X80788821Y-94524174D01*
X80524174Y-94788821D01*
X80316242Y-95100013D01*
X80173016Y-95445791D01*
X80100000Y-95812866D01*
X56900000Y-95812866D01*
X56826984Y-95445791D01*
X56683758Y-95100013D01*
X56475826Y-94788821D01*
X56211179Y-94524174D01*
X55899987Y-94316242D01*
X55554209Y-94173016D01*
X55187134Y-94100000D01*
X54812866Y-94100000D01*
X54445791Y-94173016D01*
X54100013Y-94316242D01*
X53788821Y-94524174D01*
X53524174Y-94788821D01*
X53316242Y-95100013D01*
X53173016Y-95445791D01*
X53100000Y-95812866D01*
X50325000Y-95812866D01*
X50325000Y-86745395D01*
X60836400Y-86745395D01*
X60836400Y-86974605D01*
X60881117Y-87199410D01*
X60968831Y-87411171D01*
X61096173Y-87601752D01*
X61258248Y-87763827D01*
X61448829Y-87891169D01*
X61660590Y-87978883D01*
X61885395Y-88023600D01*
X62114605Y-88023600D01*
X62339410Y-87978883D01*
X62551171Y-87891169D01*
X62741752Y-87763827D01*
X62903827Y-87601752D01*
X63031169Y-87411171D01*
X63118883Y-87199410D01*
X63163600Y-86974605D01*
X63163600Y-86745395D01*
X63118883Y-86520590D01*
X63031169Y-86308829D01*
X62903827Y-86118248D01*
X62741752Y-85956173D01*
X62551171Y-85828831D01*
X62339410Y-85741117D01*
X62114605Y-85696400D01*
X61885395Y-85696400D01*
X61660590Y-85741117D01*
X61448829Y-85828831D01*
X61258248Y-85956173D01*
X61096173Y-86118248D01*
X60968831Y-86308829D01*
X60881117Y-86520590D01*
X60836400Y-86745395D01*
X50325000Y-86745395D01*
X50325000Y-84205395D01*
X60836400Y-84205395D01*
X60836400Y-84434605D01*
X60881117Y-84659410D01*
X60968831Y-84871171D01*
X61096173Y-85061752D01*
X61258248Y-85223827D01*
X61448829Y-85351169D01*
X61660590Y-85438883D01*
X61885395Y-85483600D01*
X62114605Y-85483600D01*
X62339410Y-85438883D01*
X62551171Y-85351169D01*
X62741752Y-85223827D01*
X62903827Y-85061752D01*
X63031169Y-84871171D01*
X63118883Y-84659410D01*
X63163600Y-84434605D01*
X63163600Y-84205395D01*
X63118883Y-83980590D01*
X63031169Y-83768829D01*
X62903827Y-83578248D01*
X62741752Y-83416173D01*
X62551171Y-83288831D01*
X62339410Y-83201117D01*
X62114605Y-83156400D01*
X61885395Y-83156400D01*
X61660590Y-83201117D01*
X61448829Y-83288831D01*
X61258248Y-83416173D01*
X61096173Y-83578248D01*
X60968831Y-83768829D01*
X60881117Y-83980590D01*
X60836400Y-84205395D01*
X50325000Y-84205395D01*
X50325000Y-81665395D01*
X60836400Y-81665395D01*
X60836400Y-81894605D01*
X60881117Y-82119410D01*
X60968831Y-82331171D01*
X61096173Y-82521752D01*
X61258248Y-82683827D01*
X61448829Y-82811169D01*
X61660590Y-82898883D01*
X61885395Y-82943600D01*
X62114605Y-82943600D01*
X62339410Y-82898883D01*
X62551171Y-82811169D01*
X62741752Y-82683827D01*
X62903827Y-82521752D01*
X63031169Y-82331171D01*
X63118883Y-82119410D01*
X63163600Y-81894605D01*
X63163600Y-81665395D01*
X63118883Y-81440590D01*
X63031169Y-81228829D01*
X62903827Y-81038248D01*
X62741752Y-80876173D01*
X62551171Y-80748831D01*
X62339410Y-80661117D01*
X62114605Y-80616400D01*
X61885395Y-80616400D01*
X61660590Y-80661117D01*
X61448829Y-80748831D01*
X61258248Y-80876173D01*
X61096173Y-81038248D01*
X60968831Y-81228829D01*
X60881117Y-81440590D01*
X60836400Y-81665395D01*
X50325000Y-81665395D01*
X50325000Y-79125395D01*
X60836400Y-79125395D01*
X60836400Y-79354605D01*
X60881117Y-79579410D01*
X60968831Y-79791171D01*
X61096173Y-79981752D01*
X61258248Y-80143827D01*
X61448829Y-80271169D01*
X61660590Y-80358883D01*
X61885395Y-80403600D01*
X62114605Y-80403600D01*
X62339410Y-80358883D01*
X62551171Y-80271169D01*
X62741752Y-80143827D01*
X62903827Y-79981752D01*
X63031169Y-79791171D01*
X63118883Y-79579410D01*
X63163600Y-79354605D01*
X63163600Y-79125395D01*
X63118883Y-78900590D01*
X63090082Y-78831056D01*
X76800000Y-78831056D01*
X76800000Y-78968944D01*
X76826901Y-79104182D01*
X76879668Y-79231574D01*
X76956274Y-79346224D01*
X77053776Y-79443726D01*
X77168426Y-79520332D01*
X77295818Y-79573099D01*
X77431056Y-79600000D01*
X77568944Y-79600000D01*
X77704182Y-79573099D01*
X77831574Y-79520332D01*
X77946224Y-79443726D01*
X77993550Y-79396400D01*
X80834949Y-79396400D01*
X80834949Y-81123600D01*
X80840741Y-81182410D01*
X80857896Y-81238960D01*
X80885753Y-81291077D01*
X80923242Y-81336758D01*
X80968923Y-81374247D01*
X81021040Y-81402104D01*
X81077590Y-81419259D01*
X81136400Y-81425051D01*
X82863600Y-81425051D01*
X82922410Y-81419259D01*
X82978960Y-81402104D01*
X83031077Y-81374247D01*
X83076758Y-81336758D01*
X83114247Y-81291077D01*
X83142104Y-81238960D01*
X83159259Y-81182410D01*
X83165051Y-81123600D01*
X83165051Y-79396400D01*
X83159259Y-79337590D01*
X83142104Y-79281040D01*
X83114247Y-79228923D01*
X83076758Y-79183242D01*
X83031077Y-79145753D01*
X82978960Y-79117896D01*
X82922410Y-79100741D01*
X82863600Y-79094949D01*
X81136400Y-79094949D01*
X81077590Y-79100741D01*
X81021040Y-79117896D01*
X80968923Y-79145753D01*
X80923242Y-79183242D01*
X80885753Y-79228923D01*
X80857896Y-79281040D01*
X80840741Y-79337590D01*
X80834949Y-79396400D01*
X77993550Y-79396400D01*
X78043726Y-79346224D01*
X78120332Y-79231574D01*
X78173099Y-79104182D01*
X78200000Y-78968944D01*
X78200000Y-78831056D01*
X78173099Y-78695818D01*
X78120332Y-78568426D01*
X78043726Y-78453776D01*
X77950000Y-78360050D01*
X77950000Y-77605395D01*
X78296400Y-77605395D01*
X78296400Y-77834605D01*
X78341117Y-78059410D01*
X78428831Y-78271171D01*
X78556173Y-78461752D01*
X78718248Y-78623827D01*
X78908829Y-78751169D01*
X79120590Y-78838883D01*
X79345395Y-78883600D01*
X79574605Y-78883600D01*
X79799410Y-78838883D01*
X80011171Y-78751169D01*
X80201752Y-78623827D01*
X80363827Y-78461752D01*
X80491169Y-78271171D01*
X80578883Y-78059410D01*
X80623600Y-77834605D01*
X80623600Y-77605395D01*
X80836400Y-77605395D01*
X80836400Y-77834605D01*
X80881117Y-78059410D01*
X80968831Y-78271171D01*
X81096173Y-78461752D01*
X81258248Y-78623827D01*
X81448829Y-78751169D01*
X81660590Y-78838883D01*
X81885395Y-78883600D01*
X82114605Y-78883600D01*
X82339410Y-78838883D01*
X82551171Y-78751169D01*
X82741752Y-78623827D01*
X82903827Y-78461752D01*
X83031169Y-78271171D01*
X83118883Y-78059410D01*
X83163600Y-77834605D01*
X83163600Y-77605395D01*
X83118883Y-77380590D01*
X83031169Y-77168829D01*
X82903827Y-76978248D01*
X82741752Y-76816173D01*
X82551171Y-76688831D01*
X82339410Y-76601117D01*
X82114605Y-76556400D01*
X81885395Y-76556400D01*
X81660590Y-76601117D01*
X81448829Y-76688831D01*
X81258248Y-76816173D01*
X81096173Y-76978248D01*
X80968831Y-77168829D01*
X80881117Y-77380590D01*
X80836400Y-77605395D01*
X80623600Y-77605395D01*
X80578883Y-77380590D01*
X80491169Y-77168829D01*
X80363827Y-76978248D01*
X80201752Y-76816173D01*
X80011171Y-76688831D01*
X79799410Y-76601117D01*
X79574605Y-76556400D01*
X79345395Y-76556400D01*
X79120590Y-76601117D01*
X78908829Y-76688831D01*
X78718248Y-76816173D01*
X78556173Y-76978248D01*
X78428831Y-77168829D01*
X78341117Y-77380590D01*
X78296400Y-77605395D01*
X77950000Y-77605395D01*
X77950000Y-77326395D01*
X79019419Y-76256977D01*
X79120590Y-76298883D01*
X79345395Y-76343600D01*
X79574605Y-76343600D01*
X79799410Y-76298883D01*
X80011171Y-76211169D01*
X80201752Y-76083827D01*
X80363827Y-75921752D01*
X80491169Y-75731171D01*
X80578883Y-75519410D01*
X80623600Y-75294605D01*
X80623600Y-75065395D01*
X80836400Y-75065395D01*
X80836400Y-75294605D01*
X80881117Y-75519410D01*
X80968831Y-75731171D01*
X81096173Y-75921752D01*
X81258248Y-76083827D01*
X81448829Y-76211169D01*
X81660590Y-76298883D01*
X81885395Y-76343600D01*
X82114605Y-76343600D01*
X82339410Y-76298883D01*
X82551171Y-76211169D01*
X82741752Y-76083827D01*
X82903827Y-75921752D01*
X83031169Y-75731171D01*
X83118883Y-75519410D01*
X83163600Y-75294605D01*
X83163600Y-75065395D01*
X83118883Y-74840590D01*
X83031169Y-74628829D01*
X82903827Y-74438248D01*
X82741752Y-74276173D01*
X82551171Y-74148831D01*
X82339410Y-74061117D01*
X82114605Y-74016400D01*
X81885395Y-74016400D01*
X81660590Y-74061117D01*
X81448829Y-74148831D01*
X81258248Y-74276173D01*
X81096173Y-74438248D01*
X80968831Y-74628829D01*
X80881117Y-74840590D01*
X80836400Y-75065395D01*
X80623600Y-75065395D01*
X80578883Y-74840590D01*
X80491169Y-74628829D01*
X80363827Y-74438248D01*
X80201752Y-74276173D01*
X80011171Y-74148831D01*
X79799410Y-74061117D01*
X79574605Y-74016400D01*
X79345395Y-74016400D01*
X79120590Y-74061117D01*
X78908829Y-74148831D01*
X78718248Y-74276173D01*
X78556173Y-74438248D01*
X78428831Y-74628829D01*
X78341117Y-74840590D01*
X78296400Y-75065395D01*
X78296400Y-75294605D01*
X78341117Y-75519410D01*
X78383023Y-75620581D01*
X77197434Y-76806171D01*
X77180263Y-76820263D01*
X77166172Y-76837433D01*
X77124029Y-76888784D01*
X77082244Y-76966959D01*
X77082243Y-76966960D01*
X77056511Y-77051786D01*
X77050000Y-77117896D01*
X77050000Y-77117906D01*
X77047824Y-77140000D01*
X77050000Y-77162095D01*
X77050001Y-78360049D01*
X76956274Y-78453776D01*
X76879668Y-78568426D01*
X76826901Y-78695818D01*
X76800000Y-78831056D01*
X63090082Y-78831056D01*
X63031169Y-78688829D01*
X62903827Y-78498248D01*
X62741752Y-78336173D01*
X62551171Y-78208831D01*
X62339410Y-78121117D01*
X62114605Y-78076400D01*
X61885395Y-78076400D01*
X61660590Y-78121117D01*
X61448829Y-78208831D01*
X61258248Y-78336173D01*
X61096173Y-78498248D01*
X60968831Y-78688829D01*
X60881117Y-78900590D01*
X60836400Y-79125395D01*
X50325000Y-79125395D01*
X50325000Y-76585395D01*
X60836400Y-76585395D01*
X60836400Y-76814605D01*
X60881117Y-77039410D01*
X60968831Y-77251171D01*
X61096173Y-77441752D01*
X61258248Y-77603827D01*
X61448829Y-77731169D01*
X61660590Y-77818883D01*
X61885395Y-77863600D01*
X62114605Y-77863600D01*
X62339410Y-77818883D01*
X62551171Y-77731169D01*
X62741752Y-77603827D01*
X62903827Y-77441752D01*
X63031169Y-77251171D01*
X63118883Y-77039410D01*
X63163600Y-76814605D01*
X63163600Y-76585395D01*
X63118883Y-76360590D01*
X63031169Y-76148829D01*
X62903827Y-75958248D01*
X62741752Y-75796173D01*
X62551171Y-75668831D01*
X62339410Y-75581117D01*
X62114605Y-75536400D01*
X61885395Y-75536400D01*
X61660590Y-75581117D01*
X61448829Y-75668831D01*
X61258248Y-75796173D01*
X61096173Y-75958248D01*
X60968831Y-76148829D01*
X60881117Y-76360590D01*
X60836400Y-76585395D01*
X50325000Y-76585395D01*
X50325000Y-74045395D01*
X60836400Y-74045395D01*
X60836400Y-74274605D01*
X60881117Y-74499410D01*
X60968831Y-74711171D01*
X61096173Y-74901752D01*
X61258248Y-75063827D01*
X61448829Y-75191169D01*
X61660590Y-75278883D01*
X61885395Y-75323600D01*
X62114605Y-75323600D01*
X62339410Y-75278883D01*
X62551171Y-75191169D01*
X62741752Y-75063827D01*
X62903827Y-74901752D01*
X63031169Y-74711171D01*
X63118883Y-74499410D01*
X63163600Y-74274605D01*
X63163600Y-74045395D01*
X63118883Y-73820590D01*
X63031169Y-73608829D01*
X62903827Y-73418248D01*
X62741752Y-73256173D01*
X62551171Y-73128831D01*
X62339410Y-73041117D01*
X62114605Y-72996400D01*
X61885395Y-72996400D01*
X61660590Y-73041117D01*
X61448829Y-73128831D01*
X61258248Y-73256173D01*
X61096173Y-73418248D01*
X60968831Y-73608829D01*
X60881117Y-73820590D01*
X60836400Y-74045395D01*
X50325000Y-74045395D01*
X50325000Y-71505395D01*
X60836400Y-71505395D01*
X60836400Y-71734605D01*
X60881117Y-71959410D01*
X60968831Y-72171171D01*
X61096173Y-72361752D01*
X61258248Y-72523827D01*
X61448829Y-72651169D01*
X61660590Y-72738883D01*
X61885395Y-72783600D01*
X62114605Y-72783600D01*
X62339410Y-72738883D01*
X62551171Y-72651169D01*
X62741752Y-72523827D01*
X62903827Y-72361752D01*
X63031169Y-72171171D01*
X63118883Y-71959410D01*
X63163600Y-71734605D01*
X63163600Y-71505395D01*
X63118883Y-71280590D01*
X63031169Y-71068829D01*
X62903827Y-70878248D01*
X62741752Y-70716173D01*
X62551171Y-70588831D01*
X62339410Y-70501117D01*
X62114605Y-70456400D01*
X61885395Y-70456400D01*
X61660590Y-70501117D01*
X61448829Y-70588831D01*
X61258248Y-70716173D01*
X61096173Y-70878248D01*
X60968831Y-71068829D01*
X60881117Y-71280590D01*
X60836400Y-71505395D01*
X50325000Y-71505395D01*
X50325000Y-68965395D01*
X60836400Y-68965395D01*
X60836400Y-69194605D01*
X60881117Y-69419410D01*
X60968831Y-69631171D01*
X61096173Y-69821752D01*
X61258248Y-69983827D01*
X61448829Y-70111169D01*
X61660590Y-70198883D01*
X61885395Y-70243600D01*
X62114605Y-70243600D01*
X62339410Y-70198883D01*
X62551171Y-70111169D01*
X62741752Y-69983827D01*
X62903827Y-69821752D01*
X63031169Y-69631171D01*
X63118883Y-69419410D01*
X63163600Y-69194605D01*
X63163600Y-68965395D01*
X63118883Y-68740590D01*
X63031169Y-68528829D01*
X62903827Y-68338248D01*
X62741752Y-68176173D01*
X62551171Y-68048831D01*
X62339410Y-67961117D01*
X62114605Y-67916400D01*
X61885395Y-67916400D01*
X61660590Y-67961117D01*
X61448829Y-68048831D01*
X61258248Y-68176173D01*
X61096173Y-68338248D01*
X60968831Y-68528829D01*
X60881117Y-68740590D01*
X60836400Y-68965395D01*
X50325000Y-68965395D01*
X50325000Y-66425395D01*
X60836400Y-66425395D01*
X60836400Y-66654605D01*
X60881117Y-66879410D01*
X60968831Y-67091171D01*
X61096173Y-67281752D01*
X61258248Y-67443827D01*
X61448829Y-67571169D01*
X61660590Y-67658883D01*
X61885395Y-67703600D01*
X62114605Y-67703600D01*
X62339410Y-67658883D01*
X62551171Y-67571169D01*
X62741752Y-67443827D01*
X62903827Y-67281752D01*
X63031169Y-67091171D01*
X63118883Y-66879410D01*
X63163600Y-66654605D01*
X63163600Y-66431056D01*
X73600000Y-66431056D01*
X73600000Y-66568944D01*
X73600001Y-66568949D01*
X73600000Y-77631056D01*
X73600000Y-77768944D01*
X73606741Y-77802832D01*
X73610128Y-77837223D01*
X73620160Y-77870295D01*
X73626901Y-77904182D01*
X73640123Y-77936103D01*
X73650155Y-77969174D01*
X73666445Y-77999650D01*
X73679668Y-78031574D01*
X73698867Y-78060308D01*
X73715155Y-78090780D01*
X73737072Y-78117487D01*
X73756274Y-78146224D01*
X73780713Y-78170663D01*
X73802630Y-78197369D01*
X73829337Y-78219287D01*
X73853776Y-78243726D01*
X73882510Y-78262925D01*
X73909219Y-78284845D01*
X73939696Y-78301135D01*
X73968426Y-78320332D01*
X74000346Y-78333554D01*
X74030825Y-78349845D01*
X74063900Y-78359878D01*
X74095818Y-78373099D01*
X74129702Y-78379839D01*
X74162776Y-78389872D01*
X74197169Y-78393259D01*
X74231056Y-78400000D01*
X74265610Y-78400000D01*
X74300000Y-78403387D01*
X74334390Y-78400000D01*
X74368944Y-78400000D01*
X74402832Y-78393259D01*
X74437223Y-78389872D01*
X74470295Y-78379840D01*
X74504182Y-78373099D01*
X74536103Y-78359877D01*
X74569174Y-78349845D01*
X74599650Y-78333555D01*
X74631574Y-78320332D01*
X74660308Y-78301133D01*
X74690780Y-78284845D01*
X74717487Y-78262928D01*
X74746224Y-78243726D01*
X74770663Y-78219287D01*
X74797369Y-78197370D01*
X74819287Y-78170663D01*
X74843726Y-78146224D01*
X74862925Y-78117490D01*
X74884845Y-78090781D01*
X74901135Y-78060304D01*
X74920332Y-78031574D01*
X74933554Y-77999654D01*
X74949845Y-77969175D01*
X74959878Y-77936100D01*
X74973099Y-77904182D01*
X74979839Y-77870298D01*
X74989872Y-77837224D01*
X74993259Y-77802831D01*
X75000000Y-77768944D01*
X75000000Y-72525395D01*
X78296400Y-72525395D01*
X78296400Y-72754605D01*
X78341117Y-72979410D01*
X78428831Y-73191171D01*
X78556173Y-73381752D01*
X78718248Y-73543827D01*
X78908829Y-73671169D01*
X79120590Y-73758883D01*
X79345395Y-73803600D01*
X79574605Y-73803600D01*
X79799410Y-73758883D01*
X80011171Y-73671169D01*
X80201752Y-73543827D01*
X80363827Y-73381752D01*
X80491169Y-73191171D01*
X80578883Y-72979410D01*
X80623600Y-72754605D01*
X80623600Y-72525395D01*
X80836400Y-72525395D01*
X80836400Y-72754605D01*
X80881117Y-72979410D01*
X80968831Y-73191171D01*
X81096173Y-73381752D01*
X81258248Y-73543827D01*
X81448829Y-73671169D01*
X81660590Y-73758883D01*
X81885395Y-73803600D01*
X82114605Y-73803600D01*
X82339410Y-73758883D01*
X82551171Y-73671169D01*
X82741752Y-73543827D01*
X82903827Y-73381752D01*
X83031169Y-73191171D01*
X83118883Y-72979410D01*
X83163600Y-72754605D01*
X83163600Y-72525395D01*
X83118883Y-72300590D01*
X83031169Y-72088829D01*
X82903827Y-71898248D01*
X82741752Y-71736173D01*
X82551171Y-71608831D01*
X82339410Y-71521117D01*
X82114605Y-71476400D01*
X81885395Y-71476400D01*
X81660590Y-71521117D01*
X81448829Y-71608831D01*
X81258248Y-71736173D01*
X81096173Y-71898248D01*
X80968831Y-72088829D01*
X80881117Y-72300590D01*
X80836400Y-72525395D01*
X80623600Y-72525395D01*
X80578883Y-72300590D01*
X80491169Y-72088829D01*
X80363827Y-71898248D01*
X80201752Y-71736173D01*
X80011171Y-71608831D01*
X79799410Y-71521117D01*
X79574605Y-71476400D01*
X79345395Y-71476400D01*
X79120590Y-71521117D01*
X78908829Y-71608831D01*
X78718248Y-71736173D01*
X78556173Y-71898248D01*
X78428831Y-72088829D01*
X78341117Y-72300590D01*
X78296400Y-72525395D01*
X75000000Y-72525395D01*
X75000000Y-69985395D01*
X80836400Y-69985395D01*
X80836400Y-70214605D01*
X80881117Y-70439410D01*
X80968831Y-70651171D01*
X81096173Y-70841752D01*
X81258248Y-71003827D01*
X81448829Y-71131169D01*
X81660590Y-71218883D01*
X81885395Y-71263600D01*
X82114605Y-71263600D01*
X82339410Y-71218883D01*
X82551171Y-71131169D01*
X82741752Y-71003827D01*
X82903827Y-70841752D01*
X83031169Y-70651171D01*
X83118883Y-70439410D01*
X83163600Y-70214605D01*
X83163600Y-69985395D01*
X83118883Y-69760590D01*
X83031169Y-69548829D01*
X82903827Y-69358248D01*
X82741752Y-69196173D01*
X82551171Y-69068831D01*
X82339410Y-68981117D01*
X82114605Y-68936400D01*
X81885395Y-68936400D01*
X81660590Y-68981117D01*
X81448829Y-69068831D01*
X81258248Y-69196173D01*
X81096173Y-69358248D01*
X80968831Y-69548829D01*
X80881117Y-69760590D01*
X80836400Y-69985395D01*
X75000000Y-69985395D01*
X75000000Y-66431056D01*
X74993259Y-66397169D01*
X74989872Y-66362776D01*
X74979839Y-66329702D01*
X74973099Y-66295818D01*
X74959878Y-66263900D01*
X74949845Y-66230825D01*
X74933554Y-66200346D01*
X74920332Y-66168426D01*
X74901135Y-66139696D01*
X74884845Y-66109219D01*
X74862924Y-66082508D01*
X74843726Y-66053776D01*
X74819291Y-66029341D01*
X74797370Y-66002630D01*
X74770659Y-65980709D01*
X74746224Y-65956274D01*
X74717492Y-65937076D01*
X74690781Y-65915155D01*
X74660304Y-65898865D01*
X74631574Y-65879668D01*
X74599654Y-65866446D01*
X74569175Y-65850155D01*
X74536100Y-65840122D01*
X74504182Y-65826901D01*
X74470298Y-65820161D01*
X74437224Y-65810128D01*
X74402831Y-65806741D01*
X74368944Y-65800000D01*
X74334390Y-65800000D01*
X74300000Y-65796613D01*
X74265610Y-65800000D01*
X74231056Y-65800000D01*
X74197168Y-65806741D01*
X74162777Y-65810128D01*
X74129705Y-65820160D01*
X74095818Y-65826901D01*
X74063897Y-65840123D01*
X74030826Y-65850155D01*
X74000350Y-65866445D01*
X73968426Y-65879668D01*
X73939692Y-65898867D01*
X73909220Y-65915155D01*
X73882513Y-65937072D01*
X73853776Y-65956274D01*
X73829337Y-65980713D01*
X73802631Y-66002630D01*
X73780714Y-66029336D01*
X73756274Y-66053776D01*
X73737072Y-66082515D01*
X73715156Y-66109219D01*
X73698870Y-66139688D01*
X73679668Y-66168426D01*
X73666443Y-66200354D01*
X73650156Y-66230825D01*
X73640126Y-66263891D01*
X73626901Y-66295818D01*
X73620159Y-66329711D01*
X73610129Y-66362776D01*
X73606743Y-66397159D01*
X73600000Y-66431056D01*
X63163600Y-66431056D01*
X63163600Y-66425395D01*
X63118883Y-66200590D01*
X63031169Y-65988829D01*
X62903827Y-65798248D01*
X62741752Y-65636173D01*
X62551171Y-65508831D01*
X62339410Y-65421117D01*
X62114605Y-65376400D01*
X61885395Y-65376400D01*
X61660590Y-65421117D01*
X61448829Y-65508831D01*
X61258248Y-65636173D01*
X61096173Y-65798248D01*
X60968831Y-65988829D01*
X60881117Y-66200590D01*
X60836400Y-66425395D01*
X50325000Y-66425395D01*
X50325000Y-63136400D01*
X60834949Y-63136400D01*
X60834949Y-64863600D01*
X60840741Y-64922410D01*
X60857896Y-64978960D01*
X60885753Y-65031077D01*
X60923242Y-65076758D01*
X60968923Y-65114247D01*
X61021040Y-65142104D01*
X61077590Y-65159259D01*
X61136400Y-65165051D01*
X62863600Y-65165051D01*
X62922410Y-65159259D01*
X62978960Y-65142104D01*
X63031077Y-65114247D01*
X63076758Y-65076758D01*
X63114247Y-65031077D01*
X63142104Y-64978960D01*
X63159259Y-64922410D01*
X63165051Y-64863600D01*
X63165051Y-63885395D01*
X63376400Y-63885395D01*
X63376400Y-64114605D01*
X63421117Y-64339410D01*
X63508831Y-64551171D01*
X63636173Y-64741752D01*
X63798248Y-64903827D01*
X63988829Y-65031169D01*
X64200590Y-65118883D01*
X64425395Y-65163600D01*
X64654605Y-65163600D01*
X64879410Y-65118883D01*
X65091171Y-65031169D01*
X65281752Y-64903827D01*
X65443827Y-64741752D01*
X65571169Y-64551171D01*
X65658883Y-64339410D01*
X65703600Y-64114605D01*
X65703600Y-63885395D01*
X65658883Y-63660590D01*
X65571169Y-63448829D01*
X65443827Y-63258248D01*
X65281752Y-63096173D01*
X65091171Y-62968831D01*
X64879410Y-62881117D01*
X64654605Y-62836400D01*
X64425395Y-62836400D01*
X64200590Y-62881117D01*
X63988829Y-62968831D01*
X63798248Y-63096173D01*
X63636173Y-63258248D01*
X63508831Y-63448829D01*
X63421117Y-63660590D01*
X63376400Y-63885395D01*
X63165051Y-63885395D01*
X63165051Y-63136400D01*
X63159259Y-63077590D01*
X63142104Y-63021040D01*
X63114247Y-62968923D01*
X63076758Y-62923242D01*
X63031077Y-62885753D01*
X62978960Y-62857896D01*
X62922410Y-62840741D01*
X62863600Y-62834949D01*
X61136400Y-62834949D01*
X61077590Y-62840741D01*
X61021040Y-62857896D01*
X60968923Y-62885753D01*
X60923242Y-62923242D01*
X60885753Y-62968923D01*
X60857896Y-63021040D01*
X60840741Y-63077590D01*
X60834949Y-63136400D01*
X50325000Y-63136400D01*
X50325000Y-55014470D01*
X50342992Y-54812866D01*
X53100000Y-54812866D01*
X53100000Y-55187134D01*
X53173016Y-55554209D01*
X53316242Y-55899987D01*
X53524174Y-56211179D01*
X53788821Y-56475826D01*
X54100013Y-56683758D01*
X54445791Y-56826984D01*
X54812866Y-56900000D01*
X55187134Y-56900000D01*
X55554209Y-56826984D01*
X55899987Y-56683758D01*
X56211179Y-56475826D01*
X56475826Y-56211179D01*
X56683758Y-55899987D01*
X56826984Y-55554209D01*
X56900000Y-55187134D01*
X56900000Y-54812866D01*
X80100000Y-54812866D01*
X80100000Y-55187134D01*
X80173016Y-55554209D01*
X80316242Y-55899987D01*
X80524174Y-56211179D01*
X80788821Y-56475826D01*
X81100013Y-56683758D01*
X81445791Y-56826984D01*
X81812866Y-56900000D01*
X82187134Y-56900000D01*
X82554209Y-56826984D01*
X82899987Y-56683758D01*
X83211179Y-56475826D01*
X83475826Y-56211179D01*
X83683758Y-55899987D01*
X83826984Y-55554209D01*
X83900000Y-55187134D01*
X83900000Y-54812866D01*
X83826984Y-54445791D01*
X83683758Y-54100013D01*
X83475826Y-53788821D01*
X83211179Y-53524174D01*
X82899987Y-53316242D01*
X82554209Y-53173016D01*
X82187134Y-53100000D01*
X81812866Y-53100000D01*
X81445791Y-53173016D01*
X81100013Y-53316242D01*
X80788821Y-53524174D01*
X80524174Y-53788821D01*
X80316242Y-54100013D01*
X80173016Y-54445791D01*
X80100000Y-54812866D01*
X56900000Y-54812866D01*
X56826984Y-54445791D01*
X56683758Y-54100013D01*
X56475826Y-53788821D01*
X56211179Y-53524174D01*
X55899987Y-53316242D01*
X55554209Y-53173016D01*
X55187134Y-53100000D01*
X54812866Y-53100000D01*
X54445791Y-53173016D01*
X54100013Y-53316242D01*
X53788821Y-53524174D01*
X53524174Y-53788821D01*
X53316242Y-54100013D01*
X53173016Y-54445791D01*
X53100000Y-54812866D01*
X50342992Y-54812866D01*
X50400156Y-54172359D01*
X50619418Y-53370875D01*
X50977142Y-52620890D01*
X51462025Y-51946104D01*
X52058741Y-51367845D01*
X52748425Y-50904398D01*
X53509276Y-50570407D01*
X54319751Y-50375829D01*
X55011914Y-50325000D01*
X81985530Y-50325000D01*
X82827641Y-50400156D01*
M02*
