G04 #@! TF.GenerationSoftware,KiCad,Pcbnew,5.1.5-52549c5~84~ubuntu19.10.1*
G04 #@! TF.CreationDate,2020-03-01T16:09:57+02:00*
G04 #@! TF.ProjectId,ARM-JTAG-TC2050-AVR,41524d2d-4a54-4414-972d-544332303530,v1.0*
G04 #@! TF.SameCoordinates,Original*
G04 #@! TF.FileFunction,Soldermask,Bot*
G04 #@! TF.FilePolarity,Negative*
%FSLAX46Y46*%
G04 Gerber Fmt 4.6, Leading zero omitted, Abs format (unit mm)*
G04 Created by KiCad (PCBNEW 5.1.5-52549c5~84~ubuntu19.10.1) date 2020-03-01 16:09:57*
%MOMM*%
%LPD*%
G04 APERTURE LIST*
%ADD10C,0.050000*%
%ADD11C,3.200000*%
%ADD12O,1.727200X1.727200*%
%ADD13R,1.727200X1.727200*%
G04 APERTURE END LIST*
D10*
X82000000Y-50000000D02*
G75*
G02X87000000Y-55000000I0J-5000000D01*
G01*
X87000000Y-96000000D02*
G75*
G02X82000000Y-101000000I-5000000J0D01*
G01*
X55000000Y-101000000D02*
G75*
G02X50000000Y-96000000I0J5000000D01*
G01*
X50000000Y-55000000D02*
G75*
G02X55000000Y-50000000I5000000J0D01*
G01*
X55000000Y-50000000D02*
X82000000Y-50000000D01*
X87000000Y-55000000D02*
X87000000Y-96000000D01*
X55000000Y-101000000D02*
X82000000Y-101000000D01*
X50000000Y-55000000D02*
X50000000Y-96000000D01*
D11*
X82000000Y-96000000D03*
X82000000Y-55000000D03*
X55000000Y-96000000D03*
X55000000Y-55000000D03*
D12*
X79460000Y-70100000D03*
X82000000Y-70100000D03*
X79460000Y-72640000D03*
X82000000Y-72640000D03*
X79460000Y-75180000D03*
X82000000Y-75180000D03*
X79460000Y-77720000D03*
X82000000Y-77720000D03*
X79460000Y-80260000D03*
D13*
X82000000Y-80260000D03*
D12*
X64540000Y-86860000D03*
X62000000Y-86860000D03*
X64540000Y-84320000D03*
X62000000Y-84320000D03*
X64540000Y-81780000D03*
X62000000Y-81780000D03*
X64540000Y-79240000D03*
X62000000Y-79240000D03*
X64540000Y-76700000D03*
X62000000Y-76700000D03*
X64540000Y-74160000D03*
X62000000Y-74160000D03*
X64540000Y-71620000D03*
X62000000Y-71620000D03*
X64540000Y-69080000D03*
X62000000Y-69080000D03*
X64540000Y-66540000D03*
X62000000Y-66540000D03*
X64540000Y-64000000D03*
D13*
X62000000Y-64000000D03*
M02*
