G04 #@! TF.GenerationSoftware,KiCad,Pcbnew,5.1.4-e60b266~84~ubuntu19.04.1*
G04 #@! TF.CreationDate,2019-08-10T13:04:31+03:00*
G04 #@! TF.ProjectId,BRK-QFP-44-10x10-P0.8,42524b2d-5146-4502-9d34-342d31307831,v1.0*
G04 #@! TF.SameCoordinates,Original*
G04 #@! TF.FileFunction,Soldermask,Bot*
G04 #@! TF.FilePolarity,Negative*
%FSLAX46Y46*%
G04 Gerber Fmt 4.6, Leading zero omitted, Abs format (unit mm)*
G04 Created by KiCad (PCBNEW 5.1.4-e60b266~84~ubuntu19.04.1) date 2019-08-10 13:04:31*
%MOMM*%
%LPD*%
G04 APERTURE LIST*
%ADD10C,0.150000*%
%ADD11O,1.700000X1.700000*%
%ADD12R,1.700000X1.700000*%
G04 APERTURE END LIST*
D10*
X73400000Y-30400000D02*
G75*
G02X78400000Y-35400000I0J-5000000D01*
G01*
X38800000Y-35400000D02*
G75*
G02X43800000Y-30400000I5000000J0D01*
G01*
X78400000Y-77900000D02*
G75*
G02X73400000Y-82900000I-5000000J0D01*
G01*
X43800000Y-82900000D02*
G75*
G02X38800000Y-77900000I0J5000000D01*
G01*
X73400000Y-82900000D02*
X43800000Y-82900000D01*
X78400000Y-35400000D02*
X78400000Y-77900000D01*
X43800000Y-30400000D02*
X73400000Y-30400000D01*
X38800000Y-77900000D02*
X38800000Y-35400000D01*
D11*
X46400000Y-45100000D03*
X48940000Y-45100000D03*
X51480000Y-45100000D03*
X54020000Y-45100000D03*
X56560000Y-45100000D03*
X59100000Y-45100000D03*
X61640000Y-45100000D03*
X64180000Y-45100000D03*
X66720000Y-45100000D03*
X69260000Y-45100000D03*
D12*
X71800000Y-45100000D03*
D11*
X76600000Y-49900000D03*
X76600000Y-52440000D03*
X76600000Y-54980000D03*
X76600000Y-57520000D03*
X76600000Y-60060000D03*
X76600000Y-62600000D03*
X76600000Y-65140000D03*
X76600000Y-67680000D03*
X76600000Y-70220000D03*
X76600000Y-72760000D03*
D12*
X76600000Y-75300000D03*
D11*
X71800000Y-81100000D03*
X69260000Y-81100000D03*
X66720000Y-81100000D03*
X64180000Y-81100000D03*
X61640000Y-81100000D03*
X59100000Y-81100000D03*
X56560000Y-81100000D03*
X54020000Y-81100000D03*
X51480000Y-81100000D03*
X48940000Y-81100000D03*
D12*
X46400000Y-81100000D03*
D11*
X40600000Y-75300000D03*
X40600000Y-72760000D03*
X40600000Y-70220000D03*
X40600000Y-67680000D03*
X40600000Y-65140000D03*
X40600000Y-62600000D03*
X40600000Y-60060000D03*
X40600000Y-57520000D03*
X40600000Y-54980000D03*
X40600000Y-52440000D03*
D12*
X40600000Y-49900000D03*
M02*
