G04 #@! TF.GenerationSoftware,KiCad,Pcbnew,5.1.4-e60b266~84~ubuntu19.04.1*
G04 #@! TF.CreationDate,2019-08-10T13:04:31+03:00*
G04 #@! TF.ProjectId,BRK-QFP-44-10x10-P0.8,42524b2d-5146-4502-9d34-342d31307831,v1.0*
G04 #@! TF.SameCoordinates,Original*
G04 #@! TF.FileFunction,Paste,Top*
G04 #@! TF.FilePolarity,Positive*
%FSLAX46Y46*%
G04 Gerber Fmt 4.6, Leading zero omitted, Abs format (unit mm)*
G04 Created by KiCad (PCBNEW 5.1.4-e60b266~84~ubuntu19.04.1) date 2019-08-10 13:04:31*
%MOMM*%
%LPD*%
G04 APERTURE LIST*
%ADD10C,0.150000*%
%ADD11R,0.550000X1.500000*%
%ADD12R,1.500000X0.550000*%
G04 APERTURE END LIST*
D10*
X73400000Y-30400000D02*
G75*
G02X78400000Y-35400000I0J-5000000D01*
G01*
X38800000Y-35400000D02*
G75*
G02X43800000Y-30400000I5000000J0D01*
G01*
X78400000Y-77900000D02*
G75*
G02X73400000Y-82900000I-5000000J0D01*
G01*
X43800000Y-82900000D02*
G75*
G02X38800000Y-77900000I0J5000000D01*
G01*
X73400000Y-82900000D02*
X43800000Y-82900000D01*
X78400000Y-35400000D02*
X78400000Y-77900000D01*
X43800000Y-30400000D02*
X73400000Y-30400000D01*
X38800000Y-77900000D02*
X38800000Y-35400000D01*
D11*
X55100000Y-56900000D03*
X55900000Y-56900000D03*
X56700000Y-56900000D03*
X57500000Y-56900000D03*
X58300000Y-56900000D03*
X59100000Y-56900000D03*
X59900000Y-56900000D03*
X60700000Y-56900000D03*
X61500000Y-56900000D03*
X62300000Y-56900000D03*
X63100000Y-56900000D03*
D12*
X64800000Y-58600000D03*
X64800000Y-59400000D03*
X64800000Y-60200000D03*
X64800000Y-61000000D03*
X64800000Y-61800000D03*
X64800000Y-62600000D03*
X64800000Y-63400000D03*
X64800000Y-64200000D03*
X64800000Y-65000000D03*
X64800000Y-65800000D03*
X64800000Y-66600000D03*
D11*
X63100000Y-68300000D03*
X62300000Y-68300000D03*
X61500000Y-68300000D03*
X60700000Y-68300000D03*
X59900000Y-68300000D03*
X59100000Y-68300000D03*
X58300000Y-68300000D03*
X57500000Y-68300000D03*
X56700000Y-68300000D03*
X55900000Y-68300000D03*
X55100000Y-68300000D03*
D12*
X53400000Y-66600000D03*
X53400000Y-65800000D03*
X53400000Y-65000000D03*
X53400000Y-64200000D03*
X53400000Y-63400000D03*
X53400000Y-62600000D03*
X53400000Y-61800000D03*
X53400000Y-61000000D03*
X53400000Y-60200000D03*
X53400000Y-59400000D03*
X53400000Y-58600000D03*
M02*
