G04 #@! TF.GenerationSoftware,KiCad,Pcbnew,5.1.4-e60b266~84~ubuntu19.04.1*
G04 #@! TF.CreationDate,2019-08-10T13:04:31+03:00*
G04 #@! TF.ProjectId,BRK-QFP-44-10x10-P0.8,42524b2d-5146-4502-9d34-342d31307831,v1.0*
G04 #@! TF.SameCoordinates,Original*
G04 #@! TF.FileFunction,Copper,L1,Top*
G04 #@! TF.FilePolarity,Positive*
%FSLAX46Y46*%
G04 Gerber Fmt 4.6, Leading zero omitted, Abs format (unit mm)*
G04 Created by KiCad (PCBNEW 5.1.4-e60b266~84~ubuntu19.04.1) date 2019-08-10 13:04:31*
%MOMM*%
%LPD*%
G04 APERTURE LIST*
%ADD10C,0.150000*%
%ADD11R,0.550000X1.500000*%
%ADD12R,1.500000X0.550000*%
%ADD13O,1.700000X1.700000*%
%ADD14R,1.700000X1.700000*%
%ADD15C,0.300000*%
G04 APERTURE END LIST*
D10*
X73400000Y-30400000D02*
G75*
G02X78400000Y-35400000I0J-5000000D01*
G01*
X38800000Y-35400000D02*
G75*
G02X43800000Y-30400000I5000000J0D01*
G01*
X78400000Y-77900000D02*
G75*
G02X73400000Y-82900000I-5000000J0D01*
G01*
X43800000Y-82900000D02*
G75*
G02X38800000Y-77900000I0J5000000D01*
G01*
X73400000Y-82900000D02*
X43800000Y-82900000D01*
X78400000Y-35400000D02*
X78400000Y-77900000D01*
X43800000Y-30400000D02*
X73400000Y-30400000D01*
X38800000Y-77900000D02*
X38800000Y-35400000D01*
D11*
X55100000Y-56900000D03*
X55900000Y-56900000D03*
X56700000Y-56900000D03*
X57500000Y-56900000D03*
X58300000Y-56900000D03*
X59100000Y-56900000D03*
X59900000Y-56900000D03*
X60700000Y-56900000D03*
X61500000Y-56900000D03*
X62300000Y-56900000D03*
X63100000Y-56900000D03*
D12*
X64800000Y-58600000D03*
X64800000Y-59400000D03*
X64800000Y-60200000D03*
X64800000Y-61000000D03*
X64800000Y-61800000D03*
X64800000Y-62600000D03*
X64800000Y-63400000D03*
X64800000Y-64200000D03*
X64800000Y-65000000D03*
X64800000Y-65800000D03*
X64800000Y-66600000D03*
D11*
X63100000Y-68300000D03*
X62300000Y-68300000D03*
X61500000Y-68300000D03*
X60700000Y-68300000D03*
X59900000Y-68300000D03*
X59100000Y-68300000D03*
X58300000Y-68300000D03*
X57500000Y-68300000D03*
X56700000Y-68300000D03*
X55900000Y-68300000D03*
X55100000Y-68300000D03*
D12*
X53400000Y-66600000D03*
X53400000Y-65800000D03*
X53400000Y-65000000D03*
X53400000Y-64200000D03*
X53400000Y-63400000D03*
X53400000Y-62600000D03*
X53400000Y-61800000D03*
X53400000Y-61000000D03*
X53400000Y-60200000D03*
X53400000Y-59400000D03*
X53400000Y-58600000D03*
D13*
X46400000Y-45100000D03*
X48940000Y-45100000D03*
X51480000Y-45100000D03*
X54020000Y-45100000D03*
X56560000Y-45100000D03*
X59100000Y-45100000D03*
X61640000Y-45100000D03*
X64180000Y-45100000D03*
X66720000Y-45100000D03*
X69260000Y-45100000D03*
D14*
X71800000Y-45100000D03*
D13*
X76600000Y-49900000D03*
X76600000Y-52440000D03*
X76600000Y-54980000D03*
X76600000Y-57520000D03*
X76600000Y-60060000D03*
X76600000Y-62600000D03*
X76600000Y-65140000D03*
X76600000Y-67680000D03*
X76600000Y-70220000D03*
X76600000Y-72760000D03*
D14*
X76600000Y-75300000D03*
D13*
X71800000Y-81100000D03*
X69260000Y-81100000D03*
X66720000Y-81100000D03*
X64180000Y-81100000D03*
X61640000Y-81100000D03*
X59100000Y-81100000D03*
X56560000Y-81100000D03*
X54020000Y-81100000D03*
X51480000Y-81100000D03*
X48940000Y-81100000D03*
D14*
X46400000Y-81100000D03*
D13*
X40600000Y-75300000D03*
X40600000Y-72760000D03*
X40600000Y-70220000D03*
X40600000Y-67680000D03*
X40600000Y-65140000D03*
X40600000Y-62600000D03*
X40600000Y-60060000D03*
X40600000Y-57520000D03*
X40600000Y-54980000D03*
X40600000Y-52440000D03*
D14*
X40600000Y-49900000D03*
D15*
X44300000Y-51800000D02*
X44300000Y-53600000D01*
X49300000Y-58600000D02*
X53400000Y-58600000D01*
X44300000Y-53600000D02*
X49300000Y-58600000D01*
X40600000Y-49900000D02*
X42400000Y-49900000D01*
X42400000Y-49900000D02*
X44300000Y-51800000D01*
X47560000Y-59400000D02*
X40600000Y-52440000D01*
X53400000Y-59400000D02*
X47560000Y-59400000D01*
X45820000Y-60200000D02*
X40600000Y-54980000D01*
X53400000Y-60200000D02*
X45820000Y-60200000D01*
X46400000Y-78700000D02*
X46400000Y-81100000D01*
X48500000Y-76600000D02*
X46400000Y-78700000D01*
X55100000Y-68300000D02*
X55100000Y-72400000D01*
X50900000Y-76600000D02*
X48500000Y-76600000D01*
X55100000Y-72400000D02*
X50900000Y-76600000D01*
X55900000Y-74140000D02*
X48940000Y-81100000D01*
X55900000Y-68300000D02*
X55900000Y-74140000D01*
X56700000Y-75880000D02*
X51480000Y-81100000D01*
X56700000Y-68300000D02*
X56700000Y-75880000D01*
X49300000Y-66600000D02*
X40600000Y-75300000D01*
X53400000Y-66600000D02*
X49300000Y-66600000D01*
X47560000Y-65800000D02*
X40600000Y-72760000D01*
X53400000Y-65800000D02*
X47560000Y-65800000D01*
X45820000Y-65000000D02*
X40600000Y-70220000D01*
X53400000Y-65000000D02*
X45820000Y-65000000D01*
X44080000Y-64200000D02*
X40600000Y-67680000D01*
X53400000Y-64200000D02*
X44080000Y-64200000D01*
X42340000Y-63400000D02*
X40600000Y-65140000D01*
X53400000Y-63400000D02*
X42340000Y-63400000D01*
X53400000Y-62600000D02*
X40600000Y-62600000D01*
X42340000Y-61800000D02*
X40600000Y-60060000D01*
X53400000Y-61800000D02*
X42340000Y-61800000D01*
X44080000Y-61000000D02*
X40600000Y-57520000D01*
X53400000Y-61000000D02*
X44080000Y-61000000D01*
X63100000Y-72400000D02*
X71800000Y-81100000D01*
X63100000Y-68300000D02*
X63100000Y-72400000D01*
X62300000Y-74140000D02*
X69260000Y-81100000D01*
X62300000Y-68300000D02*
X62300000Y-74140000D01*
X61500000Y-75880000D02*
X66720000Y-81100000D01*
X61500000Y-68300000D02*
X61500000Y-75880000D01*
X60700000Y-77620000D02*
X64180000Y-81100000D01*
X60700000Y-68300000D02*
X60700000Y-77620000D01*
X59900000Y-79360000D02*
X61640000Y-81100000D01*
X59900000Y-68300000D02*
X59900000Y-79360000D01*
X59100000Y-68300000D02*
X59100000Y-81100000D01*
X58300000Y-79360000D02*
X56560000Y-81100000D01*
X58300000Y-68300000D02*
X58300000Y-79360000D01*
X57500000Y-77620000D02*
X54020000Y-81100000D01*
X57500000Y-68300000D02*
X57500000Y-77620000D01*
X67900000Y-58600000D02*
X76600000Y-49900000D01*
X64800000Y-58600000D02*
X67900000Y-58600000D01*
X69640000Y-59400000D02*
X76600000Y-52440000D01*
X64800000Y-59400000D02*
X69640000Y-59400000D01*
X71380000Y-60200000D02*
X76600000Y-54980000D01*
X64800000Y-60200000D02*
X71380000Y-60200000D01*
X73120000Y-61000000D02*
X76600000Y-57520000D01*
X64800000Y-61000000D02*
X73120000Y-61000000D01*
X74860000Y-61800000D02*
X76600000Y-60060000D01*
X64800000Y-61800000D02*
X74860000Y-61800000D01*
X64800000Y-62600000D02*
X76600000Y-62600000D01*
X74860000Y-63400000D02*
X76600000Y-65140000D01*
X64800000Y-63400000D02*
X74860000Y-63400000D01*
X73120000Y-64200000D02*
X76600000Y-67680000D01*
X64800000Y-64200000D02*
X73120000Y-64200000D01*
X71380000Y-65000000D02*
X76600000Y-70220000D01*
X64800000Y-65000000D02*
X71380000Y-65000000D01*
X69640000Y-65800000D02*
X76600000Y-72760000D01*
X64800000Y-65800000D02*
X69640000Y-65800000D01*
X74800000Y-75300000D02*
X76600000Y-75300000D01*
X72100000Y-72600000D02*
X74800000Y-75300000D01*
X72100000Y-70800000D02*
X72100000Y-72600000D01*
X64800000Y-66600000D02*
X67900000Y-66600000D01*
X67900000Y-66600000D02*
X72100000Y-70800000D01*
X55100000Y-53800000D02*
X46400000Y-45100000D01*
X55100000Y-56900000D02*
X55100000Y-53800000D01*
X55900000Y-52060000D02*
X48940000Y-45100000D01*
X55900000Y-56900000D02*
X55900000Y-52060000D01*
X56700000Y-50320000D02*
X51480000Y-45100000D01*
X56700000Y-56900000D02*
X56700000Y-50320000D01*
X57500000Y-48580000D02*
X54020000Y-45100000D01*
X57500000Y-56900000D02*
X57500000Y-48580000D01*
X58300000Y-46840000D02*
X56560000Y-45100000D01*
X58300000Y-56900000D02*
X58300000Y-46840000D01*
X59100000Y-56900000D02*
X59100000Y-45100000D01*
X59900000Y-46840000D02*
X61640000Y-45100000D01*
X59900000Y-56900000D02*
X59900000Y-46840000D01*
X60700000Y-48580000D02*
X64180000Y-45100000D01*
X60700000Y-56900000D02*
X60700000Y-48580000D01*
X61500000Y-50320000D02*
X66720000Y-45100000D01*
X61500000Y-56900000D02*
X61500000Y-50320000D01*
X62300000Y-52060000D02*
X69260000Y-45100000D01*
X62300000Y-56900000D02*
X62300000Y-52060000D01*
X69450000Y-49750000D02*
X71800000Y-47400000D01*
X67150000Y-49750000D02*
X69450000Y-49750000D01*
X63100000Y-56900000D02*
X63100000Y-53800000D01*
X71800000Y-47400000D02*
X71800000Y-45100000D01*
X63100000Y-53800000D02*
X67150000Y-49750000D01*
M02*
