G04 #@! TF.GenerationSoftware,KiCad,Pcbnew,5.1.4-e60b266~84~ubuntu19.04.1*
G04 #@! TF.CreationDate,2019-10-06T15:32:56+03:00*
G04 #@! TF.ProjectId,BRK-QFP-32-7x7-P0.8,42524b2d-5146-4502-9d33-322d3778372d,v1.0*
G04 #@! TF.SameCoordinates,Original*
G04 #@! TF.FileFunction,Legend,Top*
G04 #@! TF.FilePolarity,Positive*
%FSLAX46Y46*%
G04 Gerber Fmt 4.6, Leading zero omitted, Abs format (unit mm)*
G04 Created by KiCad (PCBNEW 5.1.4-e60b266~84~ubuntu19.04.1) date 2019-10-06 15:32:56*
%MOMM*%
%LPD*%
G04 APERTURE LIST*
%ADD10C,0.300000*%
%ADD11C,0.150000*%
%ADD12C,0.120000*%
G04 APERTURE END LIST*
D10*
X49542857Y-49209285D02*
X49542857Y-48466428D01*
X50000000Y-48866428D01*
X50000000Y-48695000D01*
X50057142Y-48580714D01*
X50114285Y-48523571D01*
X50228571Y-48466428D01*
X50514285Y-48466428D01*
X50628571Y-48523571D01*
X50685714Y-48580714D01*
X50742857Y-48695000D01*
X50742857Y-49037857D01*
X50685714Y-49152142D01*
X50628571Y-49209285D01*
X49657142Y-48009285D02*
X49600000Y-47952142D01*
X49542857Y-47837857D01*
X49542857Y-47552142D01*
X49600000Y-47437857D01*
X49657142Y-47380714D01*
X49771428Y-47323571D01*
X49885714Y-47323571D01*
X50057142Y-47380714D01*
X50742857Y-48066428D01*
X50742857Y-47323571D01*
X52142857Y-49209285D02*
X52142857Y-48466428D01*
X52600000Y-48866428D01*
X52600000Y-48695000D01*
X52657142Y-48580714D01*
X52714285Y-48523571D01*
X52828571Y-48466428D01*
X53114285Y-48466428D01*
X53228571Y-48523571D01*
X53285714Y-48580714D01*
X53342857Y-48695000D01*
X53342857Y-49037857D01*
X53285714Y-49152142D01*
X53228571Y-49209285D01*
X53342857Y-47323571D02*
X53342857Y-48009285D01*
X53342857Y-47666428D02*
X52142857Y-47666428D01*
X52314285Y-47780714D01*
X52428571Y-47895000D01*
X52485714Y-48009285D01*
X54642857Y-49209285D02*
X54642857Y-48466428D01*
X55100000Y-48866428D01*
X55100000Y-48695000D01*
X55157142Y-48580714D01*
X55214285Y-48523571D01*
X55328571Y-48466428D01*
X55614285Y-48466428D01*
X55728571Y-48523571D01*
X55785714Y-48580714D01*
X55842857Y-48695000D01*
X55842857Y-49037857D01*
X55785714Y-49152142D01*
X55728571Y-49209285D01*
X54642857Y-47723571D02*
X54642857Y-47609285D01*
X54700000Y-47495000D01*
X54757142Y-47437857D01*
X54871428Y-47380714D01*
X55100000Y-47323571D01*
X55385714Y-47323571D01*
X55614285Y-47380714D01*
X55728571Y-47437857D01*
X55785714Y-47495000D01*
X55842857Y-47609285D01*
X55842857Y-47723571D01*
X55785714Y-47837857D01*
X55728571Y-47895000D01*
X55614285Y-47952142D01*
X55385714Y-48009285D01*
X55100000Y-48009285D01*
X54871428Y-47952142D01*
X54757142Y-47895000D01*
X54700000Y-47837857D01*
X54642857Y-47723571D01*
X57257142Y-49152142D02*
X57200000Y-49095000D01*
X57142857Y-48980714D01*
X57142857Y-48695000D01*
X57200000Y-48580714D01*
X57257142Y-48523571D01*
X57371428Y-48466428D01*
X57485714Y-48466428D01*
X57657142Y-48523571D01*
X58342857Y-49209285D01*
X58342857Y-48466428D01*
X58342857Y-47895000D02*
X58342857Y-47666428D01*
X58285714Y-47552142D01*
X58228571Y-47495000D01*
X58057142Y-47380714D01*
X57828571Y-47323571D01*
X57371428Y-47323571D01*
X57257142Y-47380714D01*
X57200000Y-47437857D01*
X57142857Y-47552142D01*
X57142857Y-47780714D01*
X57200000Y-47895000D01*
X57257142Y-47952142D01*
X57371428Y-48009285D01*
X57657142Y-48009285D01*
X57771428Y-47952142D01*
X57828571Y-47895000D01*
X57885714Y-47780714D01*
X57885714Y-47552142D01*
X57828571Y-47437857D01*
X57771428Y-47380714D01*
X57657142Y-47323571D01*
X59757142Y-49152142D02*
X59700000Y-49095000D01*
X59642857Y-48980714D01*
X59642857Y-48695000D01*
X59700000Y-48580714D01*
X59757142Y-48523571D01*
X59871428Y-48466428D01*
X59985714Y-48466428D01*
X60157142Y-48523571D01*
X60842857Y-49209285D01*
X60842857Y-48466428D01*
X60157142Y-47780714D02*
X60100000Y-47895000D01*
X60042857Y-47952142D01*
X59928571Y-48009285D01*
X59871428Y-48009285D01*
X59757142Y-47952142D01*
X59700000Y-47895000D01*
X59642857Y-47780714D01*
X59642857Y-47552142D01*
X59700000Y-47437857D01*
X59757142Y-47380714D01*
X59871428Y-47323571D01*
X59928571Y-47323571D01*
X60042857Y-47380714D01*
X60100000Y-47437857D01*
X60157142Y-47552142D01*
X60157142Y-47780714D01*
X60214285Y-47895000D01*
X60271428Y-47952142D01*
X60385714Y-48009285D01*
X60614285Y-48009285D01*
X60728571Y-47952142D01*
X60785714Y-47895000D01*
X60842857Y-47780714D01*
X60842857Y-47552142D01*
X60785714Y-47437857D01*
X60728571Y-47380714D01*
X60614285Y-47323571D01*
X60385714Y-47323571D01*
X60271428Y-47380714D01*
X60214285Y-47437857D01*
X60157142Y-47552142D01*
X62357142Y-49152142D02*
X62300000Y-49095000D01*
X62242857Y-48980714D01*
X62242857Y-48695000D01*
X62300000Y-48580714D01*
X62357142Y-48523571D01*
X62471428Y-48466428D01*
X62585714Y-48466428D01*
X62757142Y-48523571D01*
X63442857Y-49209285D01*
X63442857Y-48466428D01*
X62242857Y-48066428D02*
X62242857Y-47266428D01*
X63442857Y-47780714D01*
X64957142Y-49152142D02*
X64900000Y-49095000D01*
X64842857Y-48980714D01*
X64842857Y-48695000D01*
X64900000Y-48580714D01*
X64957142Y-48523571D01*
X65071428Y-48466428D01*
X65185714Y-48466428D01*
X65357142Y-48523571D01*
X66042857Y-49209285D01*
X66042857Y-48466428D01*
X64842857Y-47437857D02*
X64842857Y-47666428D01*
X64900000Y-47780714D01*
X64957142Y-47837857D01*
X65128571Y-47952142D01*
X65357142Y-48009285D01*
X65814285Y-48009285D01*
X65928571Y-47952142D01*
X65985714Y-47895000D01*
X66042857Y-47780714D01*
X66042857Y-47552142D01*
X65985714Y-47437857D01*
X65928571Y-47380714D01*
X65814285Y-47323571D01*
X65528571Y-47323571D01*
X65414285Y-47380714D01*
X65357142Y-47437857D01*
X65300000Y-47552142D01*
X65300000Y-47780714D01*
X65357142Y-47895000D01*
X65414285Y-47952142D01*
X65528571Y-48009285D01*
X72547857Y-53157142D02*
X72605000Y-53100000D01*
X72719285Y-53042857D01*
X73005000Y-53042857D01*
X73119285Y-53100000D01*
X73176428Y-53157142D01*
X73233571Y-53271428D01*
X73233571Y-53385714D01*
X73176428Y-53557142D01*
X72490714Y-54242857D01*
X73233571Y-54242857D01*
X74262142Y-53442857D02*
X74262142Y-54242857D01*
X73976428Y-52985714D02*
X73690714Y-53842857D01*
X74433571Y-53842857D01*
X72547857Y-55657142D02*
X72605000Y-55600000D01*
X72719285Y-55542857D01*
X73005000Y-55542857D01*
X73119285Y-55600000D01*
X73176428Y-55657142D01*
X73233571Y-55771428D01*
X73233571Y-55885714D01*
X73176428Y-56057142D01*
X72490714Y-56742857D01*
X73233571Y-56742857D01*
X73633571Y-55542857D02*
X74376428Y-55542857D01*
X73976428Y-56000000D01*
X74147857Y-56000000D01*
X74262142Y-56057142D01*
X74319285Y-56114285D01*
X74376428Y-56228571D01*
X74376428Y-56514285D01*
X74319285Y-56628571D01*
X74262142Y-56685714D01*
X74147857Y-56742857D01*
X73805000Y-56742857D01*
X73690714Y-56685714D01*
X73633571Y-56628571D01*
X72547857Y-58257142D02*
X72605000Y-58200000D01*
X72719285Y-58142857D01*
X73005000Y-58142857D01*
X73119285Y-58200000D01*
X73176428Y-58257142D01*
X73233571Y-58371428D01*
X73233571Y-58485714D01*
X73176428Y-58657142D01*
X72490714Y-59342857D01*
X73233571Y-59342857D01*
X73690714Y-58257142D02*
X73747857Y-58200000D01*
X73862142Y-58142857D01*
X74147857Y-58142857D01*
X74262142Y-58200000D01*
X74319285Y-58257142D01*
X74376428Y-58371428D01*
X74376428Y-58485714D01*
X74319285Y-58657142D01*
X73633571Y-59342857D01*
X74376428Y-59342857D01*
X72547857Y-60857142D02*
X72605000Y-60800000D01*
X72719285Y-60742857D01*
X73005000Y-60742857D01*
X73119285Y-60800000D01*
X73176428Y-60857142D01*
X73233571Y-60971428D01*
X73233571Y-61085714D01*
X73176428Y-61257142D01*
X72490714Y-61942857D01*
X73233571Y-61942857D01*
X74376428Y-61942857D02*
X73690714Y-61942857D01*
X74033571Y-61942857D02*
X74033571Y-60742857D01*
X73919285Y-60914285D01*
X73805000Y-61028571D01*
X73690714Y-61085714D01*
X72547857Y-63357142D02*
X72605000Y-63300000D01*
X72719285Y-63242857D01*
X73005000Y-63242857D01*
X73119285Y-63300000D01*
X73176428Y-63357142D01*
X73233571Y-63471428D01*
X73233571Y-63585714D01*
X73176428Y-63757142D01*
X72490714Y-64442857D01*
X73233571Y-64442857D01*
X73976428Y-63242857D02*
X74090714Y-63242857D01*
X74205000Y-63300000D01*
X74262142Y-63357142D01*
X74319285Y-63471428D01*
X74376428Y-63700000D01*
X74376428Y-63985714D01*
X74319285Y-64214285D01*
X74262142Y-64328571D01*
X74205000Y-64385714D01*
X74090714Y-64442857D01*
X73976428Y-64442857D01*
X73862142Y-64385714D01*
X73805000Y-64328571D01*
X73747857Y-64214285D01*
X73690714Y-63985714D01*
X73690714Y-63700000D01*
X73747857Y-63471428D01*
X73805000Y-63357142D01*
X73862142Y-63300000D01*
X73976428Y-63242857D01*
X73233571Y-66942857D02*
X72547857Y-66942857D01*
X72890714Y-66942857D02*
X72890714Y-65742857D01*
X72776428Y-65914285D01*
X72662142Y-66028571D01*
X72547857Y-66085714D01*
X73805000Y-66942857D02*
X74033571Y-66942857D01*
X74147857Y-66885714D01*
X74205000Y-66828571D01*
X74319285Y-66657142D01*
X74376428Y-66428571D01*
X74376428Y-65971428D01*
X74319285Y-65857142D01*
X74262142Y-65800000D01*
X74147857Y-65742857D01*
X73919285Y-65742857D01*
X73805000Y-65800000D01*
X73747857Y-65857142D01*
X73690714Y-65971428D01*
X73690714Y-66257142D01*
X73747857Y-66371428D01*
X73805000Y-66428571D01*
X73919285Y-66485714D01*
X74147857Y-66485714D01*
X74262142Y-66428571D01*
X74319285Y-66371428D01*
X74376428Y-66257142D01*
X73233571Y-69542857D02*
X72547857Y-69542857D01*
X72890714Y-69542857D02*
X72890714Y-68342857D01*
X72776428Y-68514285D01*
X72662142Y-68628571D01*
X72547857Y-68685714D01*
X73919285Y-68857142D02*
X73805000Y-68800000D01*
X73747857Y-68742857D01*
X73690714Y-68628571D01*
X73690714Y-68571428D01*
X73747857Y-68457142D01*
X73805000Y-68400000D01*
X73919285Y-68342857D01*
X74147857Y-68342857D01*
X74262142Y-68400000D01*
X74319285Y-68457142D01*
X74376428Y-68571428D01*
X74376428Y-68628571D01*
X74319285Y-68742857D01*
X74262142Y-68800000D01*
X74147857Y-68857142D01*
X73919285Y-68857142D01*
X73805000Y-68914285D01*
X73747857Y-68971428D01*
X73690714Y-69085714D01*
X73690714Y-69314285D01*
X73747857Y-69428571D01*
X73805000Y-69485714D01*
X73919285Y-69542857D01*
X74147857Y-69542857D01*
X74262142Y-69485714D01*
X74319285Y-69428571D01*
X74376428Y-69314285D01*
X74376428Y-69085714D01*
X74319285Y-68971428D01*
X74262142Y-68914285D01*
X74147857Y-68857142D01*
X68542857Y-78190714D02*
X68542857Y-78876428D01*
X68542857Y-78533571D02*
X67342857Y-78533571D01*
X67514285Y-78647857D01*
X67628571Y-78762142D01*
X67685714Y-78876428D01*
X67342857Y-77162142D02*
X67342857Y-77390714D01*
X67400000Y-77505000D01*
X67457142Y-77562142D01*
X67628571Y-77676428D01*
X67857142Y-77733571D01*
X68314285Y-77733571D01*
X68428571Y-77676428D01*
X68485714Y-77619285D01*
X68542857Y-77505000D01*
X68542857Y-77276428D01*
X68485714Y-77162142D01*
X68428571Y-77105000D01*
X68314285Y-77047857D01*
X68028571Y-77047857D01*
X67914285Y-77105000D01*
X67857142Y-77162142D01*
X67800000Y-77276428D01*
X67800000Y-77505000D01*
X67857142Y-77619285D01*
X67914285Y-77676428D01*
X68028571Y-77733571D01*
X66042857Y-78190714D02*
X66042857Y-78876428D01*
X66042857Y-78533571D02*
X64842857Y-78533571D01*
X65014285Y-78647857D01*
X65128571Y-78762142D01*
X65185714Y-78876428D01*
X64842857Y-77105000D02*
X64842857Y-77676428D01*
X65414285Y-77733571D01*
X65357142Y-77676428D01*
X65300000Y-77562142D01*
X65300000Y-77276428D01*
X65357142Y-77162142D01*
X65414285Y-77105000D01*
X65528571Y-77047857D01*
X65814285Y-77047857D01*
X65928571Y-77105000D01*
X65985714Y-77162142D01*
X66042857Y-77276428D01*
X66042857Y-77562142D01*
X65985714Y-77676428D01*
X65928571Y-77733571D01*
X63442857Y-78190714D02*
X63442857Y-78876428D01*
X63442857Y-78533571D02*
X62242857Y-78533571D01*
X62414285Y-78647857D01*
X62528571Y-78762142D01*
X62585714Y-78876428D01*
X62642857Y-77162142D02*
X63442857Y-77162142D01*
X62185714Y-77447857D02*
X63042857Y-77733571D01*
X63042857Y-76990714D01*
X60942857Y-78190714D02*
X60942857Y-78876428D01*
X60942857Y-78533571D02*
X59742857Y-78533571D01*
X59914285Y-78647857D01*
X60028571Y-78762142D01*
X60085714Y-78876428D01*
X59742857Y-77790714D02*
X59742857Y-77047857D01*
X60200000Y-77447857D01*
X60200000Y-77276428D01*
X60257142Y-77162142D01*
X60314285Y-77105000D01*
X60428571Y-77047857D01*
X60714285Y-77047857D01*
X60828571Y-77105000D01*
X60885714Y-77162142D01*
X60942857Y-77276428D01*
X60942857Y-77619285D01*
X60885714Y-77733571D01*
X60828571Y-77790714D01*
X58342857Y-78190714D02*
X58342857Y-78876428D01*
X58342857Y-78533571D02*
X57142857Y-78533571D01*
X57314285Y-78647857D01*
X57428571Y-78762142D01*
X57485714Y-78876428D01*
X57257142Y-77733571D02*
X57200000Y-77676428D01*
X57142857Y-77562142D01*
X57142857Y-77276428D01*
X57200000Y-77162142D01*
X57257142Y-77105000D01*
X57371428Y-77047857D01*
X57485714Y-77047857D01*
X57657142Y-77105000D01*
X58342857Y-77790714D01*
X58342857Y-77047857D01*
X55842857Y-78190714D02*
X55842857Y-78876428D01*
X55842857Y-78533571D02*
X54642857Y-78533571D01*
X54814285Y-78647857D01*
X54928571Y-78762142D01*
X54985714Y-78876428D01*
X55842857Y-77047857D02*
X55842857Y-77733571D01*
X55842857Y-77390714D02*
X54642857Y-77390714D01*
X54814285Y-77505000D01*
X54928571Y-77619285D01*
X54985714Y-77733571D01*
X53342857Y-78190714D02*
X53342857Y-78876428D01*
X53342857Y-78533571D02*
X52142857Y-78533571D01*
X52314285Y-78647857D01*
X52428571Y-78762142D01*
X52485714Y-78876428D01*
X52142857Y-77447857D02*
X52142857Y-77333571D01*
X52200000Y-77219285D01*
X52257142Y-77162142D01*
X52371428Y-77105000D01*
X52600000Y-77047857D01*
X52885714Y-77047857D01*
X53114285Y-77105000D01*
X53228571Y-77162142D01*
X53285714Y-77219285D01*
X53342857Y-77333571D01*
X53342857Y-77447857D01*
X53285714Y-77562142D01*
X53228571Y-77619285D01*
X53114285Y-77676428D01*
X52885714Y-77733571D01*
X52600000Y-77733571D01*
X52371428Y-77676428D01*
X52257142Y-77619285D01*
X52200000Y-77562142D01*
X52142857Y-77447857D01*
X43052142Y-71457142D02*
X42937857Y-71400000D01*
X42880714Y-71342857D01*
X42823571Y-71228571D01*
X42823571Y-71171428D01*
X42880714Y-71057142D01*
X42937857Y-71000000D01*
X43052142Y-70942857D01*
X43280714Y-70942857D01*
X43395000Y-71000000D01*
X43452142Y-71057142D01*
X43509285Y-71171428D01*
X43509285Y-71228571D01*
X43452142Y-71342857D01*
X43395000Y-71400000D01*
X43280714Y-71457142D01*
X43052142Y-71457142D01*
X42937857Y-71514285D01*
X42880714Y-71571428D01*
X42823571Y-71685714D01*
X42823571Y-71914285D01*
X42880714Y-72028571D01*
X42937857Y-72085714D01*
X43052142Y-72142857D01*
X43280714Y-72142857D01*
X43395000Y-72085714D01*
X43452142Y-72028571D01*
X43509285Y-71914285D01*
X43509285Y-71685714D01*
X43452142Y-71571428D01*
X43395000Y-71514285D01*
X43280714Y-71457142D01*
X42766428Y-68242857D02*
X43566428Y-68242857D01*
X43052142Y-69442857D01*
X43395000Y-65742857D02*
X43166428Y-65742857D01*
X43052142Y-65800000D01*
X42995000Y-65857142D01*
X42880714Y-66028571D01*
X42823571Y-66257142D01*
X42823571Y-66714285D01*
X42880714Y-66828571D01*
X42937857Y-66885714D01*
X43052142Y-66942857D01*
X43280714Y-66942857D01*
X43395000Y-66885714D01*
X43452142Y-66828571D01*
X43509285Y-66714285D01*
X43509285Y-66428571D01*
X43452142Y-66314285D01*
X43395000Y-66257142D01*
X43280714Y-66200000D01*
X43052142Y-66200000D01*
X42937857Y-66257142D01*
X42880714Y-66314285D01*
X42823571Y-66428571D01*
X43452142Y-63242857D02*
X42880714Y-63242857D01*
X42823571Y-63814285D01*
X42880714Y-63757142D01*
X42995000Y-63700000D01*
X43280714Y-63700000D01*
X43395000Y-63757142D01*
X43452142Y-63814285D01*
X43509285Y-63928571D01*
X43509285Y-64214285D01*
X43452142Y-64328571D01*
X43395000Y-64385714D01*
X43280714Y-64442857D01*
X42995000Y-64442857D01*
X42880714Y-64385714D01*
X42823571Y-64328571D01*
X43395000Y-61142857D02*
X43395000Y-61942857D01*
X43109285Y-60685714D02*
X42823571Y-61542857D01*
X43566428Y-61542857D01*
X42766428Y-58142857D02*
X43509285Y-58142857D01*
X43109285Y-58600000D01*
X43280714Y-58600000D01*
X43395000Y-58657142D01*
X43452142Y-58714285D01*
X43509285Y-58828571D01*
X43509285Y-59114285D01*
X43452142Y-59228571D01*
X43395000Y-59285714D01*
X43280714Y-59342857D01*
X42937857Y-59342857D01*
X42823571Y-59285714D01*
X42766428Y-59228571D01*
X42823571Y-55657142D02*
X42880714Y-55600000D01*
X42995000Y-55542857D01*
X43280714Y-55542857D01*
X43395000Y-55600000D01*
X43452142Y-55657142D01*
X43509285Y-55771428D01*
X43509285Y-55885714D01*
X43452142Y-56057142D01*
X42766428Y-56742857D01*
X43509285Y-56742857D01*
X67457142Y-49152142D02*
X67400000Y-49095000D01*
X67342857Y-48980714D01*
X67342857Y-48695000D01*
X67400000Y-48580714D01*
X67457142Y-48523571D01*
X67571428Y-48466428D01*
X67685714Y-48466428D01*
X67857142Y-48523571D01*
X68542857Y-49209285D01*
X68542857Y-48466428D01*
X67342857Y-47380714D02*
X67342857Y-47952142D01*
X67914285Y-48009285D01*
X67857142Y-47952142D01*
X67800000Y-47837857D01*
X67800000Y-47552142D01*
X67857142Y-47437857D01*
X67914285Y-47380714D01*
X68028571Y-47323571D01*
X68314285Y-47323571D01*
X68428571Y-47380714D01*
X68485714Y-47437857D01*
X68542857Y-47552142D01*
X68542857Y-47837857D01*
X68485714Y-47952142D01*
X68428571Y-48009285D01*
X73233571Y-72042857D02*
X72547857Y-72042857D01*
X72890714Y-72042857D02*
X72890714Y-70842857D01*
X72776428Y-71014285D01*
X72662142Y-71128571D01*
X72547857Y-71185714D01*
X73633571Y-70842857D02*
X74433571Y-70842857D01*
X73919285Y-72042857D01*
D11*
X73400000Y-30400000D02*
G75*
G02X78400000Y-35400000I0J-5000000D01*
G01*
X38800000Y-35400000D02*
G75*
G02X43800000Y-30400000I5000000J0D01*
G01*
X78400000Y-77900000D02*
G75*
G02X73400000Y-82900000I-5000000J0D01*
G01*
D10*
X50742857Y-78762142D02*
X50742857Y-78533571D01*
X50685714Y-78419285D01*
X50628571Y-78362142D01*
X50457142Y-78247857D01*
X50228571Y-78190714D01*
X49771428Y-78190714D01*
X49657142Y-78247857D01*
X49600000Y-78305000D01*
X49542857Y-78419285D01*
X49542857Y-78647857D01*
X49600000Y-78762142D01*
X49657142Y-78819285D01*
X49771428Y-78876428D01*
X50057142Y-78876428D01*
X50171428Y-78819285D01*
X50228571Y-78762142D01*
X50285714Y-78647857D01*
X50285714Y-78419285D01*
X50228571Y-78305000D01*
X50171428Y-78247857D01*
X50057142Y-78190714D01*
D11*
X43800000Y-82900000D02*
G75*
G02X38800000Y-77900000I0J5000000D01*
G01*
D10*
X43509285Y-54242857D02*
X42823571Y-54242857D01*
X43166428Y-54242857D02*
X43166428Y-53042857D01*
X43052142Y-53214285D01*
X42937857Y-53328571D01*
X42823571Y-53385714D01*
D11*
X73400000Y-82900000D02*
X43800000Y-82900000D01*
G36*
X78000000Y-42100000D02*
G01*
X39300000Y-42100000D01*
X39300000Y-37100000D01*
X78000000Y-37100000D01*
X78000000Y-42100000D01*
G37*
X78000000Y-42100000D02*
X39300000Y-42100000D01*
X39300000Y-37100000D01*
X78000000Y-37100000D01*
X78000000Y-42100000D01*
X78400000Y-35400000D02*
X78400000Y-77900000D01*
D10*
X55921428Y-33546428D02*
X55778571Y-33475000D01*
X55635714Y-33332142D01*
X55421428Y-33117857D01*
X55278571Y-33046428D01*
X55135714Y-33046428D01*
X55207142Y-33403571D02*
X55064285Y-33332142D01*
X54921428Y-33189285D01*
X54850000Y-32903571D01*
X54850000Y-32403571D01*
X54921428Y-32117857D01*
X55064285Y-31975000D01*
X55207142Y-31903571D01*
X55492857Y-31903571D01*
X55635714Y-31975000D01*
X55778571Y-32117857D01*
X55850000Y-32403571D01*
X55850000Y-32903571D01*
X55778571Y-33189285D01*
X55635714Y-33332142D01*
X55492857Y-33403571D01*
X55207142Y-33403571D01*
X56992857Y-32617857D02*
X56492857Y-32617857D01*
X56492857Y-33403571D02*
X56492857Y-31903571D01*
X57207142Y-31903571D01*
X57778571Y-33403571D02*
X57778571Y-31903571D01*
X58350000Y-31903571D01*
X58492857Y-31975000D01*
X58564285Y-32046428D01*
X58635714Y-32189285D01*
X58635714Y-32403571D01*
X58564285Y-32546428D01*
X58492857Y-32617857D01*
X58350000Y-32689285D01*
X57778571Y-32689285D01*
X59278571Y-32832142D02*
X60421428Y-32832142D01*
X60992857Y-31903571D02*
X61921428Y-31903571D01*
X61421428Y-32475000D01*
X61635714Y-32475000D01*
X61778571Y-32546428D01*
X61850000Y-32617857D01*
X61921428Y-32760714D01*
X61921428Y-33117857D01*
X61850000Y-33260714D01*
X61778571Y-33332142D01*
X61635714Y-33403571D01*
X61207142Y-33403571D01*
X61064285Y-33332142D01*
X60992857Y-33260714D01*
X62492857Y-32046428D02*
X62564285Y-31975000D01*
X62707142Y-31903571D01*
X63064285Y-31903571D01*
X63207142Y-31975000D01*
X63278571Y-32046428D01*
X63350000Y-32189285D01*
X63350000Y-32332142D01*
X63278571Y-32546428D01*
X62421428Y-33403571D01*
X63350000Y-33403571D01*
X53814285Y-34453571D02*
X54814285Y-34453571D01*
X54171428Y-35953571D01*
X55242857Y-35953571D02*
X56028571Y-34953571D01*
X55242857Y-34953571D02*
X56028571Y-35953571D01*
X56457142Y-34453571D02*
X57457142Y-34453571D01*
X56814285Y-35953571D01*
X58028571Y-35382142D02*
X59171428Y-35382142D01*
X59885714Y-35953571D02*
X59885714Y-34453571D01*
X60457142Y-34453571D01*
X60600000Y-34525000D01*
X60671428Y-34596428D01*
X60742857Y-34739285D01*
X60742857Y-34953571D01*
X60671428Y-35096428D01*
X60600000Y-35167857D01*
X60457142Y-35239285D01*
X59885714Y-35239285D01*
X61671428Y-34453571D02*
X61814285Y-34453571D01*
X61957142Y-34525000D01*
X62028571Y-34596428D01*
X62100000Y-34739285D01*
X62171428Y-35025000D01*
X62171428Y-35382142D01*
X62100000Y-35667857D01*
X62028571Y-35810714D01*
X61957142Y-35882142D01*
X61814285Y-35953571D01*
X61671428Y-35953571D01*
X61528571Y-35882142D01*
X61457142Y-35810714D01*
X61385714Y-35667857D01*
X61314285Y-35382142D01*
X61314285Y-35025000D01*
X61385714Y-34739285D01*
X61457142Y-34596428D01*
X61528571Y-34525000D01*
X61671428Y-34453571D01*
X62814285Y-35810714D02*
X62885714Y-35882142D01*
X62814285Y-35953571D01*
X62742857Y-35882142D01*
X62814285Y-35810714D01*
X62814285Y-35953571D01*
X63742857Y-35096428D02*
X63600000Y-35025000D01*
X63528571Y-34953571D01*
X63457142Y-34810714D01*
X63457142Y-34739285D01*
X63528571Y-34596428D01*
X63600000Y-34525000D01*
X63742857Y-34453571D01*
X64028571Y-34453571D01*
X64171428Y-34525000D01*
X64242857Y-34596428D01*
X64314285Y-34739285D01*
X64314285Y-34810714D01*
X64242857Y-34953571D01*
X64171428Y-35025000D01*
X64028571Y-35096428D01*
X63742857Y-35096428D01*
X63600000Y-35167857D01*
X63528571Y-35239285D01*
X63457142Y-35382142D01*
X63457142Y-35667857D01*
X63528571Y-35810714D01*
X63600000Y-35882142D01*
X63742857Y-35953571D01*
X64028571Y-35953571D01*
X64171428Y-35882142D01*
X64242857Y-35810714D01*
X64314285Y-35667857D01*
X64314285Y-35382142D01*
X64242857Y-35239285D01*
X64171428Y-35167857D01*
X64028571Y-35096428D01*
D11*
X43800000Y-30400000D02*
X73400000Y-30400000D01*
X38800000Y-77900000D02*
X38800000Y-35400000D01*
X55475000Y-59200000D02*
X54050000Y-59200000D01*
X62725000Y-58975000D02*
X62400000Y-58975000D01*
X62725000Y-66225000D02*
X62400000Y-66225000D01*
X55475000Y-66225000D02*
X55800000Y-66225000D01*
X55475000Y-58975000D02*
X55800000Y-58975000D01*
X55475000Y-66225000D02*
X55475000Y-65900000D01*
X62725000Y-66225000D02*
X62725000Y-65900000D01*
X62725000Y-58975000D02*
X62725000Y-59300000D01*
X55475000Y-58975000D02*
X55475000Y-59200000D01*
D12*
X69320000Y-43770000D02*
X69320000Y-45100000D01*
X67990000Y-43770000D02*
X69320000Y-43770000D01*
X66720000Y-43770000D02*
X66720000Y-46430000D01*
X66720000Y-46430000D02*
X48880000Y-46430000D01*
X66720000Y-43770000D02*
X48880000Y-43770000D01*
X48880000Y-43770000D02*
X48880000Y-46430000D01*
X77930000Y-72820000D02*
X76600000Y-72820000D01*
X77930000Y-71490000D02*
X77930000Y-72820000D01*
X77930000Y-70220000D02*
X75270000Y-70220000D01*
X75270000Y-70220000D02*
X75270000Y-52380000D01*
X77930000Y-70220000D02*
X77930000Y-52380000D01*
X77930000Y-52380000D02*
X75270000Y-52380000D01*
X48880000Y-82430000D02*
X48880000Y-81100000D01*
X50210000Y-82430000D02*
X48880000Y-82430000D01*
X51480000Y-82430000D02*
X51480000Y-79770000D01*
X51480000Y-79770000D02*
X69320000Y-79770000D01*
X51480000Y-82430000D02*
X69320000Y-82430000D01*
X69320000Y-82430000D02*
X69320000Y-79770000D01*
X39270000Y-52380000D02*
X40600000Y-52380000D01*
X39270000Y-53710000D02*
X39270000Y-52380000D01*
X39270000Y-54980000D02*
X41930000Y-54980000D01*
X41930000Y-54980000D02*
X41930000Y-72820000D01*
X39270000Y-54980000D02*
X39270000Y-72820000D01*
X39270000Y-72820000D02*
X41930000Y-72820000D01*
M02*
