G04 #@! TF.GenerationSoftware,KiCad,Pcbnew,5.1.4-e60b266~84~ubuntu19.04.1*
G04 #@! TF.CreationDate,2019-10-06T15:32:56+03:00*
G04 #@! TF.ProjectId,BRK-QFP-32-7x7-P0.8,42524b2d-5146-4502-9d33-322d3778372d,v1.0*
G04 #@! TF.SameCoordinates,Original*
G04 #@! TF.FileFunction,Soldermask,Bot*
G04 #@! TF.FilePolarity,Negative*
%FSLAX46Y46*%
G04 Gerber Fmt 4.6, Leading zero omitted, Abs format (unit mm)*
G04 Created by KiCad (PCBNEW 5.1.4-e60b266~84~ubuntu19.04.1) date 2019-10-06 15:32:56*
%MOMM*%
%LPD*%
G04 APERTURE LIST*
%ADD10C,0.150000*%
%ADD11O,1.700000X1.700000*%
%ADD12R,1.700000X1.700000*%
G04 APERTURE END LIST*
D10*
X73400000Y-30400000D02*
G75*
G02X78400000Y-35400000I0J-5000000D01*
G01*
X38800000Y-35400000D02*
G75*
G02X43800000Y-30400000I5000000J0D01*
G01*
X78400000Y-77900000D02*
G75*
G02X73400000Y-82900000I-5000000J0D01*
G01*
X43800000Y-82900000D02*
G75*
G02X38800000Y-77900000I0J5000000D01*
G01*
X73400000Y-82900000D02*
X43800000Y-82900000D01*
X78400000Y-35400000D02*
X78400000Y-77900000D01*
X43800000Y-30400000D02*
X73400000Y-30400000D01*
X38800000Y-77900000D02*
X38800000Y-35400000D01*
D11*
X50210000Y-45100000D03*
X52750000Y-45100000D03*
X55290000Y-45100000D03*
X57830000Y-45100000D03*
X60370000Y-45100000D03*
X62910000Y-45100000D03*
X65450000Y-45100000D03*
D12*
X67990000Y-45100000D03*
D11*
X76600000Y-53710000D03*
X76600000Y-56250000D03*
X76600000Y-58790000D03*
X76600000Y-61330000D03*
X76600000Y-63870000D03*
X76600000Y-66410000D03*
X76600000Y-68950000D03*
D12*
X76600000Y-71490000D03*
D11*
X67990000Y-81100000D03*
X65450000Y-81100000D03*
X62910000Y-81100000D03*
X60370000Y-81100000D03*
X57830000Y-81100000D03*
X55290000Y-81100000D03*
X52750000Y-81100000D03*
D12*
X50210000Y-81100000D03*
D11*
X40600000Y-71490000D03*
X40600000Y-68950000D03*
X40600000Y-66410000D03*
X40600000Y-63870000D03*
X40600000Y-61330000D03*
X40600000Y-58790000D03*
X40600000Y-56250000D03*
D12*
X40600000Y-53710000D03*
M02*
