G04 #@! TF.GenerationSoftware,KiCad,Pcbnew,5.1.4-e60b266~84~ubuntu19.04.1*
G04 #@! TF.CreationDate,2019-10-06T15:32:56+03:00*
G04 #@! TF.ProjectId,BRK-QFP-32-7x7-P0.8,42524b2d-5146-4502-9d33-322d3778372d,v1.0*
G04 #@! TF.SameCoordinates,Original*
G04 #@! TF.FileFunction,Paste,Top*
G04 #@! TF.FilePolarity,Positive*
%FSLAX46Y46*%
G04 Gerber Fmt 4.6, Leading zero omitted, Abs format (unit mm)*
G04 Created by KiCad (PCBNEW 5.1.4-e60b266~84~ubuntu19.04.1) date 2019-10-06 15:32:56*
%MOMM*%
%LPD*%
G04 APERTURE LIST*
%ADD10C,0.150000*%
%ADD11R,0.550000X1.600000*%
%ADD12R,1.600000X0.550000*%
G04 APERTURE END LIST*
D10*
X73400000Y-30400000D02*
G75*
G02X78400000Y-35400000I0J-5000000D01*
G01*
X38800000Y-35400000D02*
G75*
G02X43800000Y-30400000I5000000J0D01*
G01*
X78400000Y-77900000D02*
G75*
G02X73400000Y-82900000I-5000000J0D01*
G01*
X43800000Y-82900000D02*
G75*
G02X38800000Y-77900000I0J5000000D01*
G01*
X73400000Y-82900000D02*
X43800000Y-82900000D01*
X78400000Y-35400000D02*
X78400000Y-77900000D01*
X43800000Y-30400000D02*
X73400000Y-30400000D01*
X38800000Y-77900000D02*
X38800000Y-35400000D01*
D11*
X56300000Y-58350000D03*
X57100000Y-58350000D03*
X57900000Y-58350000D03*
X58700000Y-58350000D03*
X59500000Y-58350000D03*
X60300000Y-58350000D03*
X61100000Y-58350000D03*
X61900000Y-58350000D03*
D12*
X63350000Y-59800000D03*
X63350000Y-60600000D03*
X63350000Y-61400000D03*
X63350000Y-62200000D03*
X63350000Y-63000000D03*
X63350000Y-63800000D03*
X63350000Y-64600000D03*
X63350000Y-65400000D03*
D11*
X61900000Y-66850000D03*
X61100000Y-66850000D03*
X60300000Y-66850000D03*
X59500000Y-66850000D03*
X58700000Y-66850000D03*
X57900000Y-66850000D03*
X57100000Y-66850000D03*
X56300000Y-66850000D03*
D12*
X54850000Y-65400000D03*
X54850000Y-64600000D03*
X54850000Y-63800000D03*
X54850000Y-63000000D03*
X54850000Y-62200000D03*
X54850000Y-61400000D03*
X54850000Y-60600000D03*
X54850000Y-59800000D03*
M02*
