M48
; DRILL file {KiCad 5.1.4-e60b266~84~ubuntu19.04.1} date su  6. lokakuuta 2019 15.32.58
; FORMAT={-:-/ absolute / inch / decimal}
; #@! TF.CreationDate,2019-10-06T15:32:58+03:00
; #@! TF.GenerationSoftware,Kicad,Pcbnew,5.1.4-e60b266~84~ubuntu19.04.1
; #@! TF.FileFunction,Plated,1,2,PTH
FMAT,2
INCH
T1C0.0394
%
G90
G05
T1
X1.9768Y-3.1929
X2.0768Y-3.1929
X2.1768Y-3.1929
X2.2768Y-3.1929
X2.3768Y-3.1929
X2.4768Y-3.1929
X2.5768Y-3.1929
X2.6768Y-3.1929
X1.9768Y-1.7756
X2.0768Y-1.7756
X2.1768Y-1.7756
X2.2768Y-1.7756
X2.3768Y-1.7756
X2.4768Y-1.7756
X2.5768Y-1.7756
X2.6768Y-1.7756
X3.0157Y-2.1146
X3.0157Y-2.2146
X3.0157Y-2.3146
X3.0157Y-2.4146
X3.0157Y-2.5146
X3.0157Y-2.6146
X3.0157Y-2.7146
X3.0157Y-2.8146
X1.5984Y-2.1146
X1.5984Y-2.2146
X1.5984Y-2.3146
X1.5984Y-2.4146
X1.5984Y-2.5146
X1.5984Y-2.6146
X1.5984Y-2.7146
X1.5984Y-2.8146
T0
M30
