G04 #@! TF.GenerationSoftware,KiCad,Pcbnew,5.1.4-e60b266~84~ubuntu19.04.1*
G04 #@! TF.CreationDate,2019-10-06T15:32:56+03:00*
G04 #@! TF.ProjectId,BRK-QFP-32-7x7-P0.8,42524b2d-5146-4502-9d33-322d3778372d,v1.0*
G04 #@! TF.SameCoordinates,Original*
G04 #@! TF.FileFunction,Copper,L1,Top*
G04 #@! TF.FilePolarity,Positive*
%FSLAX46Y46*%
G04 Gerber Fmt 4.6, Leading zero omitted, Abs format (unit mm)*
G04 Created by KiCad (PCBNEW 5.1.4-e60b266~84~ubuntu19.04.1) date 2019-10-06 15:32:56*
%MOMM*%
%LPD*%
G04 APERTURE LIST*
%ADD10C,0.150000*%
%ADD11R,0.550000X1.600000*%
%ADD12R,1.600000X0.550000*%
%ADD13O,1.700000X1.700000*%
%ADD14R,1.700000X1.700000*%
%ADD15C,0.300000*%
G04 APERTURE END LIST*
D10*
X73400000Y-30400000D02*
G75*
G02X78400000Y-35400000I0J-5000000D01*
G01*
X38800000Y-35400000D02*
G75*
G02X43800000Y-30400000I5000000J0D01*
G01*
X78400000Y-77900000D02*
G75*
G02X73400000Y-82900000I-5000000J0D01*
G01*
X43800000Y-82900000D02*
G75*
G02X38800000Y-77900000I0J5000000D01*
G01*
X73400000Y-82900000D02*
X43800000Y-82900000D01*
X78400000Y-35400000D02*
X78400000Y-77900000D01*
X43800000Y-30400000D02*
X73400000Y-30400000D01*
X38800000Y-77900000D02*
X38800000Y-35400000D01*
D11*
X56300000Y-58350000D03*
X57100000Y-58350000D03*
X57900000Y-58350000D03*
X58700000Y-58350000D03*
X59500000Y-58350000D03*
X60300000Y-58350000D03*
X61100000Y-58350000D03*
X61900000Y-58350000D03*
D12*
X63350000Y-59800000D03*
X63350000Y-60600000D03*
X63350000Y-61400000D03*
X63350000Y-62200000D03*
X63350000Y-63000000D03*
X63350000Y-63800000D03*
X63350000Y-64600000D03*
X63350000Y-65400000D03*
D11*
X61900000Y-66850000D03*
X61100000Y-66850000D03*
X60300000Y-66850000D03*
X59500000Y-66850000D03*
X58700000Y-66850000D03*
X57900000Y-66850000D03*
X57100000Y-66850000D03*
X56300000Y-66850000D03*
D12*
X54850000Y-65400000D03*
X54850000Y-64600000D03*
X54850000Y-63800000D03*
X54850000Y-63000000D03*
X54850000Y-62200000D03*
X54850000Y-61400000D03*
X54850000Y-60600000D03*
X54850000Y-59800000D03*
D13*
X50210000Y-45100000D03*
X52750000Y-45100000D03*
X55290000Y-45100000D03*
X57830000Y-45100000D03*
X60370000Y-45100000D03*
X62910000Y-45100000D03*
X65450000Y-45100000D03*
D14*
X67990000Y-45100000D03*
D13*
X76600000Y-53710000D03*
X76600000Y-56250000D03*
X76600000Y-58790000D03*
X76600000Y-61330000D03*
X76600000Y-63870000D03*
X76600000Y-66410000D03*
X76600000Y-68950000D03*
D14*
X76600000Y-71490000D03*
D13*
X67990000Y-81100000D03*
X65450000Y-81100000D03*
X62910000Y-81100000D03*
X60370000Y-81100000D03*
X57830000Y-81100000D03*
X55290000Y-81100000D03*
X52750000Y-81100000D03*
D14*
X50210000Y-81100000D03*
D13*
X40600000Y-71490000D03*
X40600000Y-68950000D03*
X40600000Y-66410000D03*
X40600000Y-63870000D03*
X40600000Y-61330000D03*
X40600000Y-58790000D03*
X40600000Y-56250000D03*
D14*
X40600000Y-53710000D03*
D15*
X41910000Y-53710000D02*
X40600000Y-53710000D01*
X54850000Y-59800000D02*
X48000000Y-59800000D01*
X48000000Y-59800000D02*
X41910000Y-53710000D01*
X44950000Y-60600000D02*
X40600000Y-56250000D01*
X54850000Y-60600000D02*
X44950000Y-60600000D01*
X43210000Y-61400000D02*
X40600000Y-58790000D01*
X54850000Y-61400000D02*
X43210000Y-61400000D01*
X50210000Y-79890000D02*
X50210000Y-81100000D01*
X56300000Y-66850000D02*
X56300000Y-73800000D01*
X56300000Y-73800000D02*
X50210000Y-79890000D01*
X57100000Y-76750000D02*
X52750000Y-81100000D01*
X57100000Y-66850000D02*
X57100000Y-76750000D01*
X57900000Y-78490000D02*
X55290000Y-81100000D01*
X57900000Y-66850000D02*
X57900000Y-78490000D01*
X46690000Y-65400000D02*
X40600000Y-71490000D01*
X54850000Y-65400000D02*
X46690000Y-65400000D01*
X44950000Y-64600000D02*
X40600000Y-68950000D01*
X54850000Y-64600000D02*
X44950000Y-64600000D01*
X43210000Y-63800000D02*
X40600000Y-66410000D01*
X54850000Y-63800000D02*
X43210000Y-63800000D01*
X41470000Y-63000000D02*
X40600000Y-63870000D01*
X54850000Y-63000000D02*
X41470000Y-63000000D01*
X41470000Y-62200000D02*
X40600000Y-61330000D01*
X54850000Y-62200000D02*
X41470000Y-62200000D01*
X61900000Y-75010000D02*
X67990000Y-81100000D01*
X61900000Y-66850000D02*
X61900000Y-75010000D01*
X61100000Y-76750000D02*
X65450000Y-81100000D01*
X61100000Y-66850000D02*
X61100000Y-76750000D01*
X60300000Y-78490000D02*
X62910000Y-81100000D01*
X60300000Y-66850000D02*
X60300000Y-78490000D01*
X59500000Y-80230000D02*
X60370000Y-81100000D01*
X59500000Y-66850000D02*
X59500000Y-80230000D01*
X58700000Y-80230000D02*
X57830000Y-81100000D01*
X58700000Y-66850000D02*
X58700000Y-80230000D01*
X70510000Y-59800000D02*
X76600000Y-53710000D01*
X63350000Y-59800000D02*
X70510000Y-59800000D01*
X72250000Y-60600000D02*
X76600000Y-56250000D01*
X63350000Y-60600000D02*
X72250000Y-60600000D01*
X73990000Y-61400000D02*
X76600000Y-58790000D01*
X63350000Y-61400000D02*
X73990000Y-61400000D01*
X75730000Y-62200000D02*
X76600000Y-61330000D01*
X63350000Y-62200000D02*
X75730000Y-62200000D01*
X75730000Y-63000000D02*
X76600000Y-63870000D01*
X63350000Y-63000000D02*
X75730000Y-63000000D01*
X73990000Y-63800000D02*
X76600000Y-66410000D01*
X63350000Y-63800000D02*
X73990000Y-63800000D01*
X72250000Y-64600000D02*
X76600000Y-68950000D01*
X63350000Y-64600000D02*
X72250000Y-64600000D01*
X75390000Y-71490000D02*
X76600000Y-71490000D01*
X63350000Y-65400000D02*
X69300000Y-65400000D01*
X69300000Y-65400000D02*
X75390000Y-71490000D01*
X56300000Y-51190000D02*
X50210000Y-45100000D01*
X56300000Y-58350000D02*
X56300000Y-51190000D01*
X57100000Y-49450000D02*
X52750000Y-45100000D01*
X57100000Y-58350000D02*
X57100000Y-49450000D01*
X57900000Y-47710000D02*
X55290000Y-45100000D01*
X57900000Y-58350000D02*
X57900000Y-47710000D01*
X58700000Y-45970000D02*
X57830000Y-45100000D01*
X58700000Y-58350000D02*
X58700000Y-45970000D01*
X59500000Y-45970000D02*
X60370000Y-45100000D01*
X59500000Y-58350000D02*
X59500000Y-45970000D01*
X60300000Y-47710000D02*
X62910000Y-45100000D01*
X60300000Y-58350000D02*
X60300000Y-47710000D01*
X61100000Y-49450000D02*
X65450000Y-45100000D01*
X61100000Y-58350000D02*
X61100000Y-49450000D01*
X67990000Y-46510000D02*
X67990000Y-45100000D01*
X61900000Y-58350000D02*
X61900000Y-52600000D01*
X61900000Y-52600000D02*
X67990000Y-46510000D01*
M02*
