G04 #@! TF.GenerationSoftware,KiCad,Pcbnew,5.1.6-c6e7f7d~86~ubuntu20.04.1*
G04 #@! TF.CreationDate,2020-05-17T01:15:33+03:00*
G04 #@! TF.ProjectId,BRK-SSOP-18-6x7.4-P0.8,42524b2d-5353-44f5-902d-31382d367837,v1.1*
G04 #@! TF.SameCoordinates,Original*
G04 #@! TF.FileFunction,Soldermask,Top*
G04 #@! TF.FilePolarity,Negative*
%FSLAX46Y46*%
G04 Gerber Fmt 4.6, Leading zero omitted, Abs format (unit mm)*
G04 Created by KiCad (PCBNEW 5.1.6-c6e7f7d~86~ubuntu20.04.1) date 2020-05-17 01:15:33*
%MOMM*%
%LPD*%
G01*
G04 APERTURE LIST*
G04 #@! TA.AperFunction,Profile*
%ADD10C,0.150000*%
G04 #@! TD*
%ADD11O,1.700000X1.700000*%
%ADD12R,1.700000X1.700000*%
G04 APERTURE END LIST*
D10*
X53000000Y-83300000D02*
G75*
G02*
X51000000Y-81300000I0J2000000D01*
G01*
X75000000Y-81300000D02*
G75*
G02*
X73000000Y-83300000I-2000000J0D01*
G01*
X73000000Y-48000000D02*
G75*
G02*
X75000000Y-50000000I0J-2000000D01*
G01*
X51000000Y-50000000D02*
G75*
G02*
X53000000Y-48000000I2000000J0D01*
G01*
X73000000Y-83300000D02*
X53000000Y-83300000D01*
X75000000Y-50000000D02*
X75000000Y-81300000D01*
X53000000Y-48000000D02*
X73000000Y-48000000D01*
X51000000Y-81300000D02*
X51000000Y-50000000D01*
D11*
X73120000Y-60100000D03*
X73120000Y-62640000D03*
X73120000Y-65180000D03*
X73120000Y-67720000D03*
X73120000Y-70260000D03*
X73120000Y-72800000D03*
X73120000Y-75340000D03*
X73120000Y-77880000D03*
D12*
X73120000Y-80420000D03*
X52800000Y-60100000D03*
D11*
X52800000Y-62640000D03*
X52800000Y-65180000D03*
X52800000Y-67720000D03*
X52800000Y-70260000D03*
X52800000Y-72800000D03*
X52800000Y-75340000D03*
X52800000Y-77880000D03*
X52800000Y-80420000D03*
G36*
G01*
X57860000Y-67197500D02*
X57860000Y-66922500D01*
G75*
G02*
X57997500Y-66785000I137500J0D01*
G01*
X59622500Y-66785000D01*
G75*
G02*
X59760000Y-66922500I0J-137500D01*
G01*
X59760000Y-67197500D01*
G75*
G02*
X59622500Y-67335000I-137500J0D01*
G01*
X57997500Y-67335000D01*
G75*
G02*
X57860000Y-67197500I0J137500D01*
G01*
G37*
G36*
G01*
X57860000Y-67997500D02*
X57860000Y-67722500D01*
G75*
G02*
X57997500Y-67585000I137500J0D01*
G01*
X59622500Y-67585000D01*
G75*
G02*
X59760000Y-67722500I0J-137500D01*
G01*
X59760000Y-67997500D01*
G75*
G02*
X59622500Y-68135000I-137500J0D01*
G01*
X57997500Y-68135000D01*
G75*
G02*
X57860000Y-67997500I0J137500D01*
G01*
G37*
G36*
G01*
X57860000Y-68797500D02*
X57860000Y-68522500D01*
G75*
G02*
X57997500Y-68385000I137500J0D01*
G01*
X59622500Y-68385000D01*
G75*
G02*
X59760000Y-68522500I0J-137500D01*
G01*
X59760000Y-68797500D01*
G75*
G02*
X59622500Y-68935000I-137500J0D01*
G01*
X57997500Y-68935000D01*
G75*
G02*
X57860000Y-68797500I0J137500D01*
G01*
G37*
G36*
G01*
X57860000Y-69597500D02*
X57860000Y-69322500D01*
G75*
G02*
X57997500Y-69185000I137500J0D01*
G01*
X59622500Y-69185000D01*
G75*
G02*
X59760000Y-69322500I0J-137500D01*
G01*
X59760000Y-69597500D01*
G75*
G02*
X59622500Y-69735000I-137500J0D01*
G01*
X57997500Y-69735000D01*
G75*
G02*
X57860000Y-69597500I0J137500D01*
G01*
G37*
G36*
G01*
X57860000Y-70397500D02*
X57860000Y-70122500D01*
G75*
G02*
X57997500Y-69985000I137500J0D01*
G01*
X59622500Y-69985000D01*
G75*
G02*
X59760000Y-70122500I0J-137500D01*
G01*
X59760000Y-70397500D01*
G75*
G02*
X59622500Y-70535000I-137500J0D01*
G01*
X57997500Y-70535000D01*
G75*
G02*
X57860000Y-70397500I0J137500D01*
G01*
G37*
G36*
G01*
X57860000Y-71197500D02*
X57860000Y-70922500D01*
G75*
G02*
X57997500Y-70785000I137500J0D01*
G01*
X59622500Y-70785000D01*
G75*
G02*
X59760000Y-70922500I0J-137500D01*
G01*
X59760000Y-71197500D01*
G75*
G02*
X59622500Y-71335000I-137500J0D01*
G01*
X57997500Y-71335000D01*
G75*
G02*
X57860000Y-71197500I0J137500D01*
G01*
G37*
G36*
G01*
X57860000Y-71997500D02*
X57860000Y-71722500D01*
G75*
G02*
X57997500Y-71585000I137500J0D01*
G01*
X59622500Y-71585000D01*
G75*
G02*
X59760000Y-71722500I0J-137500D01*
G01*
X59760000Y-71997500D01*
G75*
G02*
X59622500Y-72135000I-137500J0D01*
G01*
X57997500Y-72135000D01*
G75*
G02*
X57860000Y-71997500I0J137500D01*
G01*
G37*
G36*
G01*
X57860000Y-72797500D02*
X57860000Y-72522500D01*
G75*
G02*
X57997500Y-72385000I137500J0D01*
G01*
X59622500Y-72385000D01*
G75*
G02*
X59760000Y-72522500I0J-137500D01*
G01*
X59760000Y-72797500D01*
G75*
G02*
X59622500Y-72935000I-137500J0D01*
G01*
X57997500Y-72935000D01*
G75*
G02*
X57860000Y-72797500I0J137500D01*
G01*
G37*
G36*
G01*
X57860000Y-73597500D02*
X57860000Y-73322500D01*
G75*
G02*
X57997500Y-73185000I137500J0D01*
G01*
X59622500Y-73185000D01*
G75*
G02*
X59760000Y-73322500I0J-137500D01*
G01*
X59760000Y-73597500D01*
G75*
G02*
X59622500Y-73735000I-137500J0D01*
G01*
X57997500Y-73735000D01*
G75*
G02*
X57860000Y-73597500I0J137500D01*
G01*
G37*
G36*
G01*
X66160000Y-73597500D02*
X66160000Y-73322500D01*
G75*
G02*
X66297500Y-73185000I137500J0D01*
G01*
X67922500Y-73185000D01*
G75*
G02*
X68060000Y-73322500I0J-137500D01*
G01*
X68060000Y-73597500D01*
G75*
G02*
X67922500Y-73735000I-137500J0D01*
G01*
X66297500Y-73735000D01*
G75*
G02*
X66160000Y-73597500I0J137500D01*
G01*
G37*
G36*
G01*
X66160000Y-72797500D02*
X66160000Y-72522500D01*
G75*
G02*
X66297500Y-72385000I137500J0D01*
G01*
X67922500Y-72385000D01*
G75*
G02*
X68060000Y-72522500I0J-137500D01*
G01*
X68060000Y-72797500D01*
G75*
G02*
X67922500Y-72935000I-137500J0D01*
G01*
X66297500Y-72935000D01*
G75*
G02*
X66160000Y-72797500I0J137500D01*
G01*
G37*
G36*
G01*
X66160000Y-71997500D02*
X66160000Y-71722500D01*
G75*
G02*
X66297500Y-71585000I137500J0D01*
G01*
X67922500Y-71585000D01*
G75*
G02*
X68060000Y-71722500I0J-137500D01*
G01*
X68060000Y-71997500D01*
G75*
G02*
X67922500Y-72135000I-137500J0D01*
G01*
X66297500Y-72135000D01*
G75*
G02*
X66160000Y-71997500I0J137500D01*
G01*
G37*
G36*
G01*
X66160000Y-71197500D02*
X66160000Y-70922500D01*
G75*
G02*
X66297500Y-70785000I137500J0D01*
G01*
X67922500Y-70785000D01*
G75*
G02*
X68060000Y-70922500I0J-137500D01*
G01*
X68060000Y-71197500D01*
G75*
G02*
X67922500Y-71335000I-137500J0D01*
G01*
X66297500Y-71335000D01*
G75*
G02*
X66160000Y-71197500I0J137500D01*
G01*
G37*
G36*
G01*
X66160000Y-70397500D02*
X66160000Y-70122500D01*
G75*
G02*
X66297500Y-69985000I137500J0D01*
G01*
X67922500Y-69985000D01*
G75*
G02*
X68060000Y-70122500I0J-137500D01*
G01*
X68060000Y-70397500D01*
G75*
G02*
X67922500Y-70535000I-137500J0D01*
G01*
X66297500Y-70535000D01*
G75*
G02*
X66160000Y-70397500I0J137500D01*
G01*
G37*
G36*
G01*
X66160000Y-69597500D02*
X66160000Y-69322500D01*
G75*
G02*
X66297500Y-69185000I137500J0D01*
G01*
X67922500Y-69185000D01*
G75*
G02*
X68060000Y-69322500I0J-137500D01*
G01*
X68060000Y-69597500D01*
G75*
G02*
X67922500Y-69735000I-137500J0D01*
G01*
X66297500Y-69735000D01*
G75*
G02*
X66160000Y-69597500I0J137500D01*
G01*
G37*
G36*
G01*
X66160000Y-68797500D02*
X66160000Y-68522500D01*
G75*
G02*
X66297500Y-68385000I137500J0D01*
G01*
X67922500Y-68385000D01*
G75*
G02*
X68060000Y-68522500I0J-137500D01*
G01*
X68060000Y-68797500D01*
G75*
G02*
X67922500Y-68935000I-137500J0D01*
G01*
X66297500Y-68935000D01*
G75*
G02*
X66160000Y-68797500I0J137500D01*
G01*
G37*
G36*
G01*
X66160000Y-67997500D02*
X66160000Y-67722500D01*
G75*
G02*
X66297500Y-67585000I137500J0D01*
G01*
X67922500Y-67585000D01*
G75*
G02*
X68060000Y-67722500I0J-137500D01*
G01*
X68060000Y-67997500D01*
G75*
G02*
X67922500Y-68135000I-137500J0D01*
G01*
X66297500Y-68135000D01*
G75*
G02*
X66160000Y-67997500I0J137500D01*
G01*
G37*
G36*
G01*
X66160000Y-67197500D02*
X66160000Y-66922500D01*
G75*
G02*
X66297500Y-66785000I137500J0D01*
G01*
X67922500Y-66785000D01*
G75*
G02*
X68060000Y-66922500I0J-137500D01*
G01*
X68060000Y-67197500D01*
G75*
G02*
X67922500Y-67335000I-137500J0D01*
G01*
X66297500Y-67335000D01*
G75*
G02*
X66160000Y-67197500I0J137500D01*
G01*
G37*
M02*
