G04 #@! TF.GenerationSoftware,KiCad,Pcbnew,5.1.4-e60b266~84~ubuntu19.04.1*
G04 #@! TF.CreationDate,2019-08-10T11:02:08+03:00*
G04 #@! TF.ProjectId,BRK-SSOP-18-6x7.4-P0.8,42524b2d-5353-44f5-902d-31382d367837,v1.1*
G04 #@! TF.SameCoordinates,Original*
G04 #@! TF.FileFunction,Soldermask,Top*
G04 #@! TF.FilePolarity,Negative*
%FSLAX46Y46*%
G04 Gerber Fmt 4.6, Leading zero omitted, Abs format (unit mm)*
G04 Created by KiCad (PCBNEW 5.1.4-e60b266~84~ubuntu19.04.1) date 2019-08-10 11:02:08*
%MOMM*%
%LPD*%
G04 APERTURE LIST*
%ADD10C,0.150000*%
%ADD11C,0.100000*%
G04 APERTURE END LIST*
D10*
X53000000Y-83300000D02*
G75*
G02X51000000Y-81300000I0J2000000D01*
G01*
X75000000Y-81300000D02*
G75*
G02X73000000Y-83300000I-2000000J0D01*
G01*
X73000000Y-48000000D02*
G75*
G02X75000000Y-50000000I0J-2000000D01*
G01*
X51000000Y-50000000D02*
G75*
G02X53000000Y-48000000I2000000J0D01*
G01*
X73000000Y-83300000D02*
X53000000Y-83300000D01*
X75000000Y-50000000D02*
X75000000Y-81300000D01*
X53000000Y-48000000D02*
X73000000Y-48000000D01*
X51000000Y-81300000D02*
X51000000Y-50000000D01*
D11*
G36*
X73970000Y-81270000D02*
G01*
X72270000Y-81270000D01*
X72270000Y-79570000D01*
X73970000Y-79570000D01*
X73970000Y-81270000D01*
X73970000Y-81270000D01*
G37*
G36*
X52966627Y-79582299D02*
G01*
X53126856Y-79630903D01*
X53274519Y-79709830D01*
X53403949Y-79816051D01*
X53510170Y-79945481D01*
X53589097Y-80093144D01*
X53637702Y-80253373D01*
X53654113Y-80420000D01*
X53637702Y-80586627D01*
X53589097Y-80746856D01*
X53510170Y-80894519D01*
X53403949Y-81023949D01*
X53274519Y-81130170D01*
X53126856Y-81209097D01*
X52966627Y-81257701D01*
X52841757Y-81270000D01*
X52758243Y-81270000D01*
X52633373Y-81257701D01*
X52473144Y-81209097D01*
X52325481Y-81130170D01*
X52196051Y-81023949D01*
X52089830Y-80894519D01*
X52010903Y-80746856D01*
X51962298Y-80586627D01*
X51945887Y-80420000D01*
X51962298Y-80253373D01*
X52010903Y-80093144D01*
X52089830Y-79945481D01*
X52196051Y-79816051D01*
X52325481Y-79709830D01*
X52473144Y-79630903D01*
X52633373Y-79582299D01*
X52758243Y-79570000D01*
X52841757Y-79570000D01*
X52966627Y-79582299D01*
X52966627Y-79582299D01*
G37*
G36*
X73286627Y-77042299D02*
G01*
X73446856Y-77090903D01*
X73594519Y-77169830D01*
X73723949Y-77276051D01*
X73830170Y-77405481D01*
X73909097Y-77553144D01*
X73957702Y-77713373D01*
X73974113Y-77880000D01*
X73957702Y-78046627D01*
X73909097Y-78206856D01*
X73830170Y-78354519D01*
X73723949Y-78483949D01*
X73594519Y-78590170D01*
X73446856Y-78669097D01*
X73286627Y-78717701D01*
X73161757Y-78730000D01*
X73078243Y-78730000D01*
X72953373Y-78717701D01*
X72793144Y-78669097D01*
X72645481Y-78590170D01*
X72516051Y-78483949D01*
X72409830Y-78354519D01*
X72330903Y-78206856D01*
X72282298Y-78046627D01*
X72265887Y-77880000D01*
X72282298Y-77713373D01*
X72330903Y-77553144D01*
X72409830Y-77405481D01*
X72516051Y-77276051D01*
X72645481Y-77169830D01*
X72793144Y-77090903D01*
X72953373Y-77042299D01*
X73078243Y-77030000D01*
X73161757Y-77030000D01*
X73286627Y-77042299D01*
X73286627Y-77042299D01*
G37*
G36*
X52966627Y-77042299D02*
G01*
X53126856Y-77090903D01*
X53274519Y-77169830D01*
X53403949Y-77276051D01*
X53510170Y-77405481D01*
X53589097Y-77553144D01*
X53637702Y-77713373D01*
X53654113Y-77880000D01*
X53637702Y-78046627D01*
X53589097Y-78206856D01*
X53510170Y-78354519D01*
X53403949Y-78483949D01*
X53274519Y-78590170D01*
X53126856Y-78669097D01*
X52966627Y-78717701D01*
X52841757Y-78730000D01*
X52758243Y-78730000D01*
X52633373Y-78717701D01*
X52473144Y-78669097D01*
X52325481Y-78590170D01*
X52196051Y-78483949D01*
X52089830Y-78354519D01*
X52010903Y-78206856D01*
X51962298Y-78046627D01*
X51945887Y-77880000D01*
X51962298Y-77713373D01*
X52010903Y-77553144D01*
X52089830Y-77405481D01*
X52196051Y-77276051D01*
X52325481Y-77169830D01*
X52473144Y-77090903D01*
X52633373Y-77042299D01*
X52758243Y-77030000D01*
X52841757Y-77030000D01*
X52966627Y-77042299D01*
X52966627Y-77042299D01*
G37*
G36*
X52966627Y-74502299D02*
G01*
X53126856Y-74550903D01*
X53274519Y-74629830D01*
X53403949Y-74736051D01*
X53510170Y-74865481D01*
X53589097Y-75013144D01*
X53637702Y-75173373D01*
X53654113Y-75340000D01*
X53637702Y-75506627D01*
X53589097Y-75666856D01*
X53510170Y-75814519D01*
X53403949Y-75943949D01*
X53274519Y-76050170D01*
X53126856Y-76129097D01*
X52966627Y-76177701D01*
X52841757Y-76190000D01*
X52758243Y-76190000D01*
X52633373Y-76177701D01*
X52473144Y-76129097D01*
X52325481Y-76050170D01*
X52196051Y-75943949D01*
X52089830Y-75814519D01*
X52010903Y-75666856D01*
X51962298Y-75506627D01*
X51945887Y-75340000D01*
X51962298Y-75173373D01*
X52010903Y-75013144D01*
X52089830Y-74865481D01*
X52196051Y-74736051D01*
X52325481Y-74629830D01*
X52473144Y-74550903D01*
X52633373Y-74502299D01*
X52758243Y-74490000D01*
X52841757Y-74490000D01*
X52966627Y-74502299D01*
X52966627Y-74502299D01*
G37*
G36*
X73286627Y-74502299D02*
G01*
X73446856Y-74550903D01*
X73594519Y-74629830D01*
X73723949Y-74736051D01*
X73830170Y-74865481D01*
X73909097Y-75013144D01*
X73957702Y-75173373D01*
X73974113Y-75340000D01*
X73957702Y-75506627D01*
X73909097Y-75666856D01*
X73830170Y-75814519D01*
X73723949Y-75943949D01*
X73594519Y-76050170D01*
X73446856Y-76129097D01*
X73286627Y-76177701D01*
X73161757Y-76190000D01*
X73078243Y-76190000D01*
X72953373Y-76177701D01*
X72793144Y-76129097D01*
X72645481Y-76050170D01*
X72516051Y-75943949D01*
X72409830Y-75814519D01*
X72330903Y-75666856D01*
X72282298Y-75506627D01*
X72265887Y-75340000D01*
X72282298Y-75173373D01*
X72330903Y-75013144D01*
X72409830Y-74865481D01*
X72516051Y-74736051D01*
X72645481Y-74629830D01*
X72793144Y-74550903D01*
X72953373Y-74502299D01*
X73078243Y-74490000D01*
X73161757Y-74490000D01*
X73286627Y-74502299D01*
X73286627Y-74502299D01*
G37*
G36*
X67989474Y-73187155D02*
G01*
X68005800Y-73192108D01*
X68020845Y-73200149D01*
X68034030Y-73210970D01*
X68044851Y-73224155D01*
X68052892Y-73239200D01*
X68057845Y-73255526D01*
X68060000Y-73277409D01*
X68060000Y-73642591D01*
X68057845Y-73664474D01*
X68052892Y-73680800D01*
X68044851Y-73695845D01*
X68034030Y-73709030D01*
X68020845Y-73719851D01*
X68005800Y-73727892D01*
X67989474Y-73732845D01*
X67967591Y-73735000D01*
X66252409Y-73735000D01*
X66230526Y-73732845D01*
X66214200Y-73727892D01*
X66199155Y-73719851D01*
X66185970Y-73709030D01*
X66175149Y-73695845D01*
X66167108Y-73680800D01*
X66162155Y-73664474D01*
X66160000Y-73642591D01*
X66160000Y-73277409D01*
X66162155Y-73255526D01*
X66167108Y-73239200D01*
X66175149Y-73224155D01*
X66185970Y-73210970D01*
X66199155Y-73200149D01*
X66214200Y-73192108D01*
X66230526Y-73187155D01*
X66252409Y-73185000D01*
X67967591Y-73185000D01*
X67989474Y-73187155D01*
X67989474Y-73187155D01*
G37*
G36*
X59689474Y-73187155D02*
G01*
X59705800Y-73192108D01*
X59720845Y-73200149D01*
X59734030Y-73210970D01*
X59744851Y-73224155D01*
X59752892Y-73239200D01*
X59757845Y-73255526D01*
X59760000Y-73277409D01*
X59760000Y-73642591D01*
X59757845Y-73664474D01*
X59752892Y-73680800D01*
X59744851Y-73695845D01*
X59734030Y-73709030D01*
X59720845Y-73719851D01*
X59705800Y-73727892D01*
X59689474Y-73732845D01*
X59667591Y-73735000D01*
X57952409Y-73735000D01*
X57930526Y-73732845D01*
X57914200Y-73727892D01*
X57899155Y-73719851D01*
X57885970Y-73709030D01*
X57875149Y-73695845D01*
X57867108Y-73680800D01*
X57862155Y-73664474D01*
X57860000Y-73642591D01*
X57860000Y-73277409D01*
X57862155Y-73255526D01*
X57867108Y-73239200D01*
X57875149Y-73224155D01*
X57885970Y-73210970D01*
X57899155Y-73200149D01*
X57914200Y-73192108D01*
X57930526Y-73187155D01*
X57952409Y-73185000D01*
X59667591Y-73185000D01*
X59689474Y-73187155D01*
X59689474Y-73187155D01*
G37*
G36*
X52966627Y-71962299D02*
G01*
X53126856Y-72010903D01*
X53274519Y-72089830D01*
X53403949Y-72196051D01*
X53510170Y-72325481D01*
X53589097Y-72473144D01*
X53637702Y-72633373D01*
X53654113Y-72800000D01*
X53637702Y-72966627D01*
X53589097Y-73126856D01*
X53510170Y-73274519D01*
X53403949Y-73403949D01*
X53274519Y-73510170D01*
X53126856Y-73589097D01*
X52966627Y-73637701D01*
X52841757Y-73650000D01*
X52758243Y-73650000D01*
X52633373Y-73637701D01*
X52473144Y-73589097D01*
X52325481Y-73510170D01*
X52196051Y-73403949D01*
X52089830Y-73274519D01*
X52010903Y-73126856D01*
X51962298Y-72966627D01*
X51945887Y-72800000D01*
X51962298Y-72633373D01*
X52010903Y-72473144D01*
X52089830Y-72325481D01*
X52196051Y-72196051D01*
X52325481Y-72089830D01*
X52473144Y-72010903D01*
X52633373Y-71962299D01*
X52758243Y-71950000D01*
X52841757Y-71950000D01*
X52966627Y-71962299D01*
X52966627Y-71962299D01*
G37*
G36*
X73286627Y-71962299D02*
G01*
X73446856Y-72010903D01*
X73594519Y-72089830D01*
X73723949Y-72196051D01*
X73830170Y-72325481D01*
X73909097Y-72473144D01*
X73957702Y-72633373D01*
X73974113Y-72800000D01*
X73957702Y-72966627D01*
X73909097Y-73126856D01*
X73830170Y-73274519D01*
X73723949Y-73403949D01*
X73594519Y-73510170D01*
X73446856Y-73589097D01*
X73286627Y-73637701D01*
X73161757Y-73650000D01*
X73078243Y-73650000D01*
X72953373Y-73637701D01*
X72793144Y-73589097D01*
X72645481Y-73510170D01*
X72516051Y-73403949D01*
X72409830Y-73274519D01*
X72330903Y-73126856D01*
X72282298Y-72966627D01*
X72265887Y-72800000D01*
X72282298Y-72633373D01*
X72330903Y-72473144D01*
X72409830Y-72325481D01*
X72516051Y-72196051D01*
X72645481Y-72089830D01*
X72793144Y-72010903D01*
X72953373Y-71962299D01*
X73078243Y-71950000D01*
X73161757Y-71950000D01*
X73286627Y-71962299D01*
X73286627Y-71962299D01*
G37*
G36*
X67989474Y-72387155D02*
G01*
X68005800Y-72392108D01*
X68020845Y-72400149D01*
X68034030Y-72410970D01*
X68044851Y-72424155D01*
X68052892Y-72439200D01*
X68057845Y-72455526D01*
X68060000Y-72477409D01*
X68060000Y-72842591D01*
X68057845Y-72864474D01*
X68052892Y-72880800D01*
X68044851Y-72895845D01*
X68034030Y-72909030D01*
X68020845Y-72919851D01*
X68005800Y-72927892D01*
X67989474Y-72932845D01*
X67967591Y-72935000D01*
X66252409Y-72935000D01*
X66230526Y-72932845D01*
X66214200Y-72927892D01*
X66199155Y-72919851D01*
X66185970Y-72909030D01*
X66175149Y-72895845D01*
X66167108Y-72880800D01*
X66162155Y-72864474D01*
X66160000Y-72842591D01*
X66160000Y-72477409D01*
X66162155Y-72455526D01*
X66167108Y-72439200D01*
X66175149Y-72424155D01*
X66185970Y-72410970D01*
X66199155Y-72400149D01*
X66214200Y-72392108D01*
X66230526Y-72387155D01*
X66252409Y-72385000D01*
X67967591Y-72385000D01*
X67989474Y-72387155D01*
X67989474Y-72387155D01*
G37*
G36*
X59689474Y-72387155D02*
G01*
X59705800Y-72392108D01*
X59720845Y-72400149D01*
X59734030Y-72410970D01*
X59744851Y-72424155D01*
X59752892Y-72439200D01*
X59757845Y-72455526D01*
X59760000Y-72477409D01*
X59760000Y-72842591D01*
X59757845Y-72864474D01*
X59752892Y-72880800D01*
X59744851Y-72895845D01*
X59734030Y-72909030D01*
X59720845Y-72919851D01*
X59705800Y-72927892D01*
X59689474Y-72932845D01*
X59667591Y-72935000D01*
X57952409Y-72935000D01*
X57930526Y-72932845D01*
X57914200Y-72927892D01*
X57899155Y-72919851D01*
X57885970Y-72909030D01*
X57875149Y-72895845D01*
X57867108Y-72880800D01*
X57862155Y-72864474D01*
X57860000Y-72842591D01*
X57860000Y-72477409D01*
X57862155Y-72455526D01*
X57867108Y-72439200D01*
X57875149Y-72424155D01*
X57885970Y-72410970D01*
X57899155Y-72400149D01*
X57914200Y-72392108D01*
X57930526Y-72387155D01*
X57952409Y-72385000D01*
X59667591Y-72385000D01*
X59689474Y-72387155D01*
X59689474Y-72387155D01*
G37*
G36*
X67989474Y-71587155D02*
G01*
X68005800Y-71592108D01*
X68020845Y-71600149D01*
X68034030Y-71610970D01*
X68044851Y-71624155D01*
X68052892Y-71639200D01*
X68057845Y-71655526D01*
X68060000Y-71677409D01*
X68060000Y-72042591D01*
X68057845Y-72064474D01*
X68052892Y-72080800D01*
X68044851Y-72095845D01*
X68034030Y-72109030D01*
X68020845Y-72119851D01*
X68005800Y-72127892D01*
X67989474Y-72132845D01*
X67967591Y-72135000D01*
X66252409Y-72135000D01*
X66230526Y-72132845D01*
X66214200Y-72127892D01*
X66199155Y-72119851D01*
X66185970Y-72109030D01*
X66175149Y-72095845D01*
X66167108Y-72080800D01*
X66162155Y-72064474D01*
X66160000Y-72042591D01*
X66160000Y-71677409D01*
X66162155Y-71655526D01*
X66167108Y-71639200D01*
X66175149Y-71624155D01*
X66185970Y-71610970D01*
X66199155Y-71600149D01*
X66214200Y-71592108D01*
X66230526Y-71587155D01*
X66252409Y-71585000D01*
X67967591Y-71585000D01*
X67989474Y-71587155D01*
X67989474Y-71587155D01*
G37*
G36*
X59689474Y-71587155D02*
G01*
X59705800Y-71592108D01*
X59720845Y-71600149D01*
X59734030Y-71610970D01*
X59744851Y-71624155D01*
X59752892Y-71639200D01*
X59757845Y-71655526D01*
X59760000Y-71677409D01*
X59760000Y-72042591D01*
X59757845Y-72064474D01*
X59752892Y-72080800D01*
X59744851Y-72095845D01*
X59734030Y-72109030D01*
X59720845Y-72119851D01*
X59705800Y-72127892D01*
X59689474Y-72132845D01*
X59667591Y-72135000D01*
X57952409Y-72135000D01*
X57930526Y-72132845D01*
X57914200Y-72127892D01*
X57899155Y-72119851D01*
X57885970Y-72109030D01*
X57875149Y-72095845D01*
X57867108Y-72080800D01*
X57862155Y-72064474D01*
X57860000Y-72042591D01*
X57860000Y-71677409D01*
X57862155Y-71655526D01*
X57867108Y-71639200D01*
X57875149Y-71624155D01*
X57885970Y-71610970D01*
X57899155Y-71600149D01*
X57914200Y-71592108D01*
X57930526Y-71587155D01*
X57952409Y-71585000D01*
X59667591Y-71585000D01*
X59689474Y-71587155D01*
X59689474Y-71587155D01*
G37*
G36*
X67989474Y-70787155D02*
G01*
X68005800Y-70792108D01*
X68020845Y-70800149D01*
X68034030Y-70810970D01*
X68044851Y-70824155D01*
X68052892Y-70839200D01*
X68057845Y-70855526D01*
X68060000Y-70877409D01*
X68060000Y-71242591D01*
X68057845Y-71264474D01*
X68052892Y-71280800D01*
X68044851Y-71295845D01*
X68034030Y-71309030D01*
X68020845Y-71319851D01*
X68005800Y-71327892D01*
X67989474Y-71332845D01*
X67967591Y-71335000D01*
X66252409Y-71335000D01*
X66230526Y-71332845D01*
X66214200Y-71327892D01*
X66199155Y-71319851D01*
X66185970Y-71309030D01*
X66175149Y-71295845D01*
X66167108Y-71280800D01*
X66162155Y-71264474D01*
X66160000Y-71242591D01*
X66160000Y-70877409D01*
X66162155Y-70855526D01*
X66167108Y-70839200D01*
X66175149Y-70824155D01*
X66185970Y-70810970D01*
X66199155Y-70800149D01*
X66214200Y-70792108D01*
X66230526Y-70787155D01*
X66252409Y-70785000D01*
X67967591Y-70785000D01*
X67989474Y-70787155D01*
X67989474Y-70787155D01*
G37*
G36*
X59689474Y-70787155D02*
G01*
X59705800Y-70792108D01*
X59720845Y-70800149D01*
X59734030Y-70810970D01*
X59744851Y-70824155D01*
X59752892Y-70839200D01*
X59757845Y-70855526D01*
X59760000Y-70877409D01*
X59760000Y-71242591D01*
X59757845Y-71264474D01*
X59752892Y-71280800D01*
X59744851Y-71295845D01*
X59734030Y-71309030D01*
X59720845Y-71319851D01*
X59705800Y-71327892D01*
X59689474Y-71332845D01*
X59667591Y-71335000D01*
X57952409Y-71335000D01*
X57930526Y-71332845D01*
X57914200Y-71327892D01*
X57899155Y-71319851D01*
X57885970Y-71309030D01*
X57875149Y-71295845D01*
X57867108Y-71280800D01*
X57862155Y-71264474D01*
X57860000Y-71242591D01*
X57860000Y-70877409D01*
X57862155Y-70855526D01*
X57867108Y-70839200D01*
X57875149Y-70824155D01*
X57885970Y-70810970D01*
X57899155Y-70800149D01*
X57914200Y-70792108D01*
X57930526Y-70787155D01*
X57952409Y-70785000D01*
X59667591Y-70785000D01*
X59689474Y-70787155D01*
X59689474Y-70787155D01*
G37*
G36*
X52966627Y-69422299D02*
G01*
X53126856Y-69470903D01*
X53274519Y-69549830D01*
X53403949Y-69656051D01*
X53510170Y-69785481D01*
X53589097Y-69933144D01*
X53637702Y-70093373D01*
X53654113Y-70260000D01*
X53637702Y-70426627D01*
X53589097Y-70586856D01*
X53510170Y-70734519D01*
X53403949Y-70863949D01*
X53274519Y-70970170D01*
X53126856Y-71049097D01*
X52966627Y-71097701D01*
X52841757Y-71110000D01*
X52758243Y-71110000D01*
X52633373Y-71097701D01*
X52473144Y-71049097D01*
X52325481Y-70970170D01*
X52196051Y-70863949D01*
X52089830Y-70734519D01*
X52010903Y-70586856D01*
X51962298Y-70426627D01*
X51945887Y-70260000D01*
X51962298Y-70093373D01*
X52010903Y-69933144D01*
X52089830Y-69785481D01*
X52196051Y-69656051D01*
X52325481Y-69549830D01*
X52473144Y-69470903D01*
X52633373Y-69422299D01*
X52758243Y-69410000D01*
X52841757Y-69410000D01*
X52966627Y-69422299D01*
X52966627Y-69422299D01*
G37*
G36*
X73286627Y-69422299D02*
G01*
X73446856Y-69470903D01*
X73594519Y-69549830D01*
X73723949Y-69656051D01*
X73830170Y-69785481D01*
X73909097Y-69933144D01*
X73957702Y-70093373D01*
X73974113Y-70260000D01*
X73957702Y-70426627D01*
X73909097Y-70586856D01*
X73830170Y-70734519D01*
X73723949Y-70863949D01*
X73594519Y-70970170D01*
X73446856Y-71049097D01*
X73286627Y-71097701D01*
X73161757Y-71110000D01*
X73078243Y-71110000D01*
X72953373Y-71097701D01*
X72793144Y-71049097D01*
X72645481Y-70970170D01*
X72516051Y-70863949D01*
X72409830Y-70734519D01*
X72330903Y-70586856D01*
X72282298Y-70426627D01*
X72265887Y-70260000D01*
X72282298Y-70093373D01*
X72330903Y-69933144D01*
X72409830Y-69785481D01*
X72516051Y-69656051D01*
X72645481Y-69549830D01*
X72793144Y-69470903D01*
X72953373Y-69422299D01*
X73078243Y-69410000D01*
X73161757Y-69410000D01*
X73286627Y-69422299D01*
X73286627Y-69422299D01*
G37*
G36*
X67989474Y-69987155D02*
G01*
X68005800Y-69992108D01*
X68020845Y-70000149D01*
X68034030Y-70010970D01*
X68044851Y-70024155D01*
X68052892Y-70039200D01*
X68057845Y-70055526D01*
X68060000Y-70077409D01*
X68060000Y-70442591D01*
X68057845Y-70464474D01*
X68052892Y-70480800D01*
X68044851Y-70495845D01*
X68034030Y-70509030D01*
X68020845Y-70519851D01*
X68005800Y-70527892D01*
X67989474Y-70532845D01*
X67967591Y-70535000D01*
X66252409Y-70535000D01*
X66230526Y-70532845D01*
X66214200Y-70527892D01*
X66199155Y-70519851D01*
X66185970Y-70509030D01*
X66175149Y-70495845D01*
X66167108Y-70480800D01*
X66162155Y-70464474D01*
X66160000Y-70442591D01*
X66160000Y-70077409D01*
X66162155Y-70055526D01*
X66167108Y-70039200D01*
X66175149Y-70024155D01*
X66185970Y-70010970D01*
X66199155Y-70000149D01*
X66214200Y-69992108D01*
X66230526Y-69987155D01*
X66252409Y-69985000D01*
X67967591Y-69985000D01*
X67989474Y-69987155D01*
X67989474Y-69987155D01*
G37*
G36*
X59689474Y-69987155D02*
G01*
X59705800Y-69992108D01*
X59720845Y-70000149D01*
X59734030Y-70010970D01*
X59744851Y-70024155D01*
X59752892Y-70039200D01*
X59757845Y-70055526D01*
X59760000Y-70077409D01*
X59760000Y-70442591D01*
X59757845Y-70464474D01*
X59752892Y-70480800D01*
X59744851Y-70495845D01*
X59734030Y-70509030D01*
X59720845Y-70519851D01*
X59705800Y-70527892D01*
X59689474Y-70532845D01*
X59667591Y-70535000D01*
X57952409Y-70535000D01*
X57930526Y-70532845D01*
X57914200Y-70527892D01*
X57899155Y-70519851D01*
X57885970Y-70509030D01*
X57875149Y-70495845D01*
X57867108Y-70480800D01*
X57862155Y-70464474D01*
X57860000Y-70442591D01*
X57860000Y-70077409D01*
X57862155Y-70055526D01*
X57867108Y-70039200D01*
X57875149Y-70024155D01*
X57885970Y-70010970D01*
X57899155Y-70000149D01*
X57914200Y-69992108D01*
X57930526Y-69987155D01*
X57952409Y-69985000D01*
X59667591Y-69985000D01*
X59689474Y-69987155D01*
X59689474Y-69987155D01*
G37*
G36*
X67989474Y-69187155D02*
G01*
X68005800Y-69192108D01*
X68020845Y-69200149D01*
X68034030Y-69210970D01*
X68044851Y-69224155D01*
X68052892Y-69239200D01*
X68057845Y-69255526D01*
X68060000Y-69277409D01*
X68060000Y-69642591D01*
X68057845Y-69664474D01*
X68052892Y-69680800D01*
X68044851Y-69695845D01*
X68034030Y-69709030D01*
X68020845Y-69719851D01*
X68005800Y-69727892D01*
X67989474Y-69732845D01*
X67967591Y-69735000D01*
X66252409Y-69735000D01*
X66230526Y-69732845D01*
X66214200Y-69727892D01*
X66199155Y-69719851D01*
X66185970Y-69709030D01*
X66175149Y-69695845D01*
X66167108Y-69680800D01*
X66162155Y-69664474D01*
X66160000Y-69642591D01*
X66160000Y-69277409D01*
X66162155Y-69255526D01*
X66167108Y-69239200D01*
X66175149Y-69224155D01*
X66185970Y-69210970D01*
X66199155Y-69200149D01*
X66214200Y-69192108D01*
X66230526Y-69187155D01*
X66252409Y-69185000D01*
X67967591Y-69185000D01*
X67989474Y-69187155D01*
X67989474Y-69187155D01*
G37*
G36*
X59689474Y-69187155D02*
G01*
X59705800Y-69192108D01*
X59720845Y-69200149D01*
X59734030Y-69210970D01*
X59744851Y-69224155D01*
X59752892Y-69239200D01*
X59757845Y-69255526D01*
X59760000Y-69277409D01*
X59760000Y-69642591D01*
X59757845Y-69664474D01*
X59752892Y-69680800D01*
X59744851Y-69695845D01*
X59734030Y-69709030D01*
X59720845Y-69719851D01*
X59705800Y-69727892D01*
X59689474Y-69732845D01*
X59667591Y-69735000D01*
X57952409Y-69735000D01*
X57930526Y-69732845D01*
X57914200Y-69727892D01*
X57899155Y-69719851D01*
X57885970Y-69709030D01*
X57875149Y-69695845D01*
X57867108Y-69680800D01*
X57862155Y-69664474D01*
X57860000Y-69642591D01*
X57860000Y-69277409D01*
X57862155Y-69255526D01*
X57867108Y-69239200D01*
X57875149Y-69224155D01*
X57885970Y-69210970D01*
X57899155Y-69200149D01*
X57914200Y-69192108D01*
X57930526Y-69187155D01*
X57952409Y-69185000D01*
X59667591Y-69185000D01*
X59689474Y-69187155D01*
X59689474Y-69187155D01*
G37*
G36*
X59689474Y-68387155D02*
G01*
X59705800Y-68392108D01*
X59720845Y-68400149D01*
X59734030Y-68410970D01*
X59744851Y-68424155D01*
X59752892Y-68439200D01*
X59757845Y-68455526D01*
X59760000Y-68477409D01*
X59760000Y-68842591D01*
X59757845Y-68864474D01*
X59752892Y-68880800D01*
X59744851Y-68895845D01*
X59734030Y-68909030D01*
X59720845Y-68919851D01*
X59705800Y-68927892D01*
X59689474Y-68932845D01*
X59667591Y-68935000D01*
X57952409Y-68935000D01*
X57930526Y-68932845D01*
X57914200Y-68927892D01*
X57899155Y-68919851D01*
X57885970Y-68909030D01*
X57875149Y-68895845D01*
X57867108Y-68880800D01*
X57862155Y-68864474D01*
X57860000Y-68842591D01*
X57860000Y-68477409D01*
X57862155Y-68455526D01*
X57867108Y-68439200D01*
X57875149Y-68424155D01*
X57885970Y-68410970D01*
X57899155Y-68400149D01*
X57914200Y-68392108D01*
X57930526Y-68387155D01*
X57952409Y-68385000D01*
X59667591Y-68385000D01*
X59689474Y-68387155D01*
X59689474Y-68387155D01*
G37*
G36*
X67989474Y-68387155D02*
G01*
X68005800Y-68392108D01*
X68020845Y-68400149D01*
X68034030Y-68410970D01*
X68044851Y-68424155D01*
X68052892Y-68439200D01*
X68057845Y-68455526D01*
X68060000Y-68477409D01*
X68060000Y-68842591D01*
X68057845Y-68864474D01*
X68052892Y-68880800D01*
X68044851Y-68895845D01*
X68034030Y-68909030D01*
X68020845Y-68919851D01*
X68005800Y-68927892D01*
X67989474Y-68932845D01*
X67967591Y-68935000D01*
X66252409Y-68935000D01*
X66230526Y-68932845D01*
X66214200Y-68927892D01*
X66199155Y-68919851D01*
X66185970Y-68909030D01*
X66175149Y-68895845D01*
X66167108Y-68880800D01*
X66162155Y-68864474D01*
X66160000Y-68842591D01*
X66160000Y-68477409D01*
X66162155Y-68455526D01*
X66167108Y-68439200D01*
X66175149Y-68424155D01*
X66185970Y-68410970D01*
X66199155Y-68400149D01*
X66214200Y-68392108D01*
X66230526Y-68387155D01*
X66252409Y-68385000D01*
X67967591Y-68385000D01*
X67989474Y-68387155D01*
X67989474Y-68387155D01*
G37*
G36*
X73286627Y-66882299D02*
G01*
X73446856Y-66930903D01*
X73594519Y-67009830D01*
X73723949Y-67116051D01*
X73830170Y-67245481D01*
X73909097Y-67393144D01*
X73957702Y-67553373D01*
X73974113Y-67720000D01*
X73957702Y-67886627D01*
X73909097Y-68046856D01*
X73830170Y-68194519D01*
X73723949Y-68323949D01*
X73594519Y-68430170D01*
X73446856Y-68509097D01*
X73286627Y-68557701D01*
X73161757Y-68570000D01*
X73078243Y-68570000D01*
X72953373Y-68557701D01*
X72793144Y-68509097D01*
X72645481Y-68430170D01*
X72516051Y-68323949D01*
X72409830Y-68194519D01*
X72330903Y-68046856D01*
X72282298Y-67886627D01*
X72265887Y-67720000D01*
X72282298Y-67553373D01*
X72330903Y-67393144D01*
X72409830Y-67245481D01*
X72516051Y-67116051D01*
X72645481Y-67009830D01*
X72793144Y-66930903D01*
X72953373Y-66882299D01*
X73078243Y-66870000D01*
X73161757Y-66870000D01*
X73286627Y-66882299D01*
X73286627Y-66882299D01*
G37*
G36*
X52966627Y-66882299D02*
G01*
X53126856Y-66930903D01*
X53274519Y-67009830D01*
X53403949Y-67116051D01*
X53510170Y-67245481D01*
X53589097Y-67393144D01*
X53637702Y-67553373D01*
X53654113Y-67720000D01*
X53637702Y-67886627D01*
X53589097Y-68046856D01*
X53510170Y-68194519D01*
X53403949Y-68323949D01*
X53274519Y-68430170D01*
X53126856Y-68509097D01*
X52966627Y-68557701D01*
X52841757Y-68570000D01*
X52758243Y-68570000D01*
X52633373Y-68557701D01*
X52473144Y-68509097D01*
X52325481Y-68430170D01*
X52196051Y-68323949D01*
X52089830Y-68194519D01*
X52010903Y-68046856D01*
X51962298Y-67886627D01*
X51945887Y-67720000D01*
X51962298Y-67553373D01*
X52010903Y-67393144D01*
X52089830Y-67245481D01*
X52196051Y-67116051D01*
X52325481Y-67009830D01*
X52473144Y-66930903D01*
X52633373Y-66882299D01*
X52758243Y-66870000D01*
X52841757Y-66870000D01*
X52966627Y-66882299D01*
X52966627Y-66882299D01*
G37*
G36*
X59689474Y-67587155D02*
G01*
X59705800Y-67592108D01*
X59720845Y-67600149D01*
X59734030Y-67610970D01*
X59744851Y-67624155D01*
X59752892Y-67639200D01*
X59757845Y-67655526D01*
X59760000Y-67677409D01*
X59760000Y-68042591D01*
X59757845Y-68064474D01*
X59752892Y-68080800D01*
X59744851Y-68095845D01*
X59734030Y-68109030D01*
X59720845Y-68119851D01*
X59705800Y-68127892D01*
X59689474Y-68132845D01*
X59667591Y-68135000D01*
X57952409Y-68135000D01*
X57930526Y-68132845D01*
X57914200Y-68127892D01*
X57899155Y-68119851D01*
X57885970Y-68109030D01*
X57875149Y-68095845D01*
X57867108Y-68080800D01*
X57862155Y-68064474D01*
X57860000Y-68042591D01*
X57860000Y-67677409D01*
X57862155Y-67655526D01*
X57867108Y-67639200D01*
X57875149Y-67624155D01*
X57885970Y-67610970D01*
X57899155Y-67600149D01*
X57914200Y-67592108D01*
X57930526Y-67587155D01*
X57952409Y-67585000D01*
X59667591Y-67585000D01*
X59689474Y-67587155D01*
X59689474Y-67587155D01*
G37*
G36*
X67989474Y-67587155D02*
G01*
X68005800Y-67592108D01*
X68020845Y-67600149D01*
X68034030Y-67610970D01*
X68044851Y-67624155D01*
X68052892Y-67639200D01*
X68057845Y-67655526D01*
X68060000Y-67677409D01*
X68060000Y-68042591D01*
X68057845Y-68064474D01*
X68052892Y-68080800D01*
X68044851Y-68095845D01*
X68034030Y-68109030D01*
X68020845Y-68119851D01*
X68005800Y-68127892D01*
X67989474Y-68132845D01*
X67967591Y-68135000D01*
X66252409Y-68135000D01*
X66230526Y-68132845D01*
X66214200Y-68127892D01*
X66199155Y-68119851D01*
X66185970Y-68109030D01*
X66175149Y-68095845D01*
X66167108Y-68080800D01*
X66162155Y-68064474D01*
X66160000Y-68042591D01*
X66160000Y-67677409D01*
X66162155Y-67655526D01*
X66167108Y-67639200D01*
X66175149Y-67624155D01*
X66185970Y-67610970D01*
X66199155Y-67600149D01*
X66214200Y-67592108D01*
X66230526Y-67587155D01*
X66252409Y-67585000D01*
X67967591Y-67585000D01*
X67989474Y-67587155D01*
X67989474Y-67587155D01*
G37*
G36*
X67989474Y-66787155D02*
G01*
X68005800Y-66792108D01*
X68020845Y-66800149D01*
X68034030Y-66810970D01*
X68044851Y-66824155D01*
X68052892Y-66839200D01*
X68057845Y-66855526D01*
X68060000Y-66877409D01*
X68060000Y-67242591D01*
X68057845Y-67264474D01*
X68052892Y-67280800D01*
X68044851Y-67295845D01*
X68034030Y-67309030D01*
X68020845Y-67319851D01*
X68005800Y-67327892D01*
X67989474Y-67332845D01*
X67967591Y-67335000D01*
X66252409Y-67335000D01*
X66230526Y-67332845D01*
X66214200Y-67327892D01*
X66199155Y-67319851D01*
X66185970Y-67309030D01*
X66175149Y-67295845D01*
X66167108Y-67280800D01*
X66162155Y-67264474D01*
X66160000Y-67242591D01*
X66160000Y-66877409D01*
X66162155Y-66855526D01*
X66167108Y-66839200D01*
X66175149Y-66824155D01*
X66185970Y-66810970D01*
X66199155Y-66800149D01*
X66214200Y-66792108D01*
X66230526Y-66787155D01*
X66252409Y-66785000D01*
X67967591Y-66785000D01*
X67989474Y-66787155D01*
X67989474Y-66787155D01*
G37*
G36*
X59689474Y-66787155D02*
G01*
X59705800Y-66792108D01*
X59720845Y-66800149D01*
X59734030Y-66810970D01*
X59744851Y-66824155D01*
X59752892Y-66839200D01*
X59757845Y-66855526D01*
X59760000Y-66877409D01*
X59760000Y-67242591D01*
X59757845Y-67264474D01*
X59752892Y-67280800D01*
X59744851Y-67295845D01*
X59734030Y-67309030D01*
X59720845Y-67319851D01*
X59705800Y-67327892D01*
X59689474Y-67332845D01*
X59667591Y-67335000D01*
X57952409Y-67335000D01*
X57930526Y-67332845D01*
X57914200Y-67327892D01*
X57899155Y-67319851D01*
X57885970Y-67309030D01*
X57875149Y-67295845D01*
X57867108Y-67280800D01*
X57862155Y-67264474D01*
X57860000Y-67242591D01*
X57860000Y-66877409D01*
X57862155Y-66855526D01*
X57867108Y-66839200D01*
X57875149Y-66824155D01*
X57885970Y-66810970D01*
X57899155Y-66800149D01*
X57914200Y-66792108D01*
X57930526Y-66787155D01*
X57952409Y-66785000D01*
X59667591Y-66785000D01*
X59689474Y-66787155D01*
X59689474Y-66787155D01*
G37*
G36*
X52966627Y-64342299D02*
G01*
X53126856Y-64390903D01*
X53274519Y-64469830D01*
X53403949Y-64576051D01*
X53510170Y-64705481D01*
X53589097Y-64853144D01*
X53637702Y-65013373D01*
X53654113Y-65180000D01*
X53637702Y-65346627D01*
X53589097Y-65506856D01*
X53510170Y-65654519D01*
X53403949Y-65783949D01*
X53274519Y-65890170D01*
X53126856Y-65969097D01*
X52966627Y-66017701D01*
X52841757Y-66030000D01*
X52758243Y-66030000D01*
X52633373Y-66017701D01*
X52473144Y-65969097D01*
X52325481Y-65890170D01*
X52196051Y-65783949D01*
X52089830Y-65654519D01*
X52010903Y-65506856D01*
X51962298Y-65346627D01*
X51945887Y-65180000D01*
X51962298Y-65013373D01*
X52010903Y-64853144D01*
X52089830Y-64705481D01*
X52196051Y-64576051D01*
X52325481Y-64469830D01*
X52473144Y-64390903D01*
X52633373Y-64342299D01*
X52758243Y-64330000D01*
X52841757Y-64330000D01*
X52966627Y-64342299D01*
X52966627Y-64342299D01*
G37*
G36*
X73286627Y-64342299D02*
G01*
X73446856Y-64390903D01*
X73594519Y-64469830D01*
X73723949Y-64576051D01*
X73830170Y-64705481D01*
X73909097Y-64853144D01*
X73957702Y-65013373D01*
X73974113Y-65180000D01*
X73957702Y-65346627D01*
X73909097Y-65506856D01*
X73830170Y-65654519D01*
X73723949Y-65783949D01*
X73594519Y-65890170D01*
X73446856Y-65969097D01*
X73286627Y-66017701D01*
X73161757Y-66030000D01*
X73078243Y-66030000D01*
X72953373Y-66017701D01*
X72793144Y-65969097D01*
X72645481Y-65890170D01*
X72516051Y-65783949D01*
X72409830Y-65654519D01*
X72330903Y-65506856D01*
X72282298Y-65346627D01*
X72265887Y-65180000D01*
X72282298Y-65013373D01*
X72330903Y-64853144D01*
X72409830Y-64705481D01*
X72516051Y-64576051D01*
X72645481Y-64469830D01*
X72793144Y-64390903D01*
X72953373Y-64342299D01*
X73078243Y-64330000D01*
X73161757Y-64330000D01*
X73286627Y-64342299D01*
X73286627Y-64342299D01*
G37*
G36*
X52966627Y-61802299D02*
G01*
X53126856Y-61850903D01*
X53274519Y-61929830D01*
X53403949Y-62036051D01*
X53510170Y-62165481D01*
X53589097Y-62313144D01*
X53637702Y-62473373D01*
X53654113Y-62640000D01*
X53637702Y-62806627D01*
X53589097Y-62966856D01*
X53510170Y-63114519D01*
X53403949Y-63243949D01*
X53274519Y-63350170D01*
X53126856Y-63429097D01*
X52966627Y-63477701D01*
X52841757Y-63490000D01*
X52758243Y-63490000D01*
X52633373Y-63477701D01*
X52473144Y-63429097D01*
X52325481Y-63350170D01*
X52196051Y-63243949D01*
X52089830Y-63114519D01*
X52010903Y-62966856D01*
X51962298Y-62806627D01*
X51945887Y-62640000D01*
X51962298Y-62473373D01*
X52010903Y-62313144D01*
X52089830Y-62165481D01*
X52196051Y-62036051D01*
X52325481Y-61929830D01*
X52473144Y-61850903D01*
X52633373Y-61802299D01*
X52758243Y-61790000D01*
X52841757Y-61790000D01*
X52966627Y-61802299D01*
X52966627Y-61802299D01*
G37*
G36*
X73286627Y-61802299D02*
G01*
X73446856Y-61850903D01*
X73594519Y-61929830D01*
X73723949Y-62036051D01*
X73830170Y-62165481D01*
X73909097Y-62313144D01*
X73957702Y-62473373D01*
X73974113Y-62640000D01*
X73957702Y-62806627D01*
X73909097Y-62966856D01*
X73830170Y-63114519D01*
X73723949Y-63243949D01*
X73594519Y-63350170D01*
X73446856Y-63429097D01*
X73286627Y-63477701D01*
X73161757Y-63490000D01*
X73078243Y-63490000D01*
X72953373Y-63477701D01*
X72793144Y-63429097D01*
X72645481Y-63350170D01*
X72516051Y-63243949D01*
X72409830Y-63114519D01*
X72330903Y-62966856D01*
X72282298Y-62806627D01*
X72265887Y-62640000D01*
X72282298Y-62473373D01*
X72330903Y-62313144D01*
X72409830Y-62165481D01*
X72516051Y-62036051D01*
X72645481Y-61929830D01*
X72793144Y-61850903D01*
X72953373Y-61802299D01*
X73078243Y-61790000D01*
X73161757Y-61790000D01*
X73286627Y-61802299D01*
X73286627Y-61802299D01*
G37*
G36*
X53650000Y-60950000D02*
G01*
X51950000Y-60950000D01*
X51950000Y-59250000D01*
X53650000Y-59250000D01*
X53650000Y-60950000D01*
X53650000Y-60950000D01*
G37*
G36*
X73286627Y-59262299D02*
G01*
X73446856Y-59310903D01*
X73594519Y-59389830D01*
X73723949Y-59496051D01*
X73830170Y-59625481D01*
X73909097Y-59773144D01*
X73957702Y-59933373D01*
X73974113Y-60100000D01*
X73957702Y-60266627D01*
X73909097Y-60426856D01*
X73830170Y-60574519D01*
X73723949Y-60703949D01*
X73594519Y-60810170D01*
X73446856Y-60889097D01*
X73286627Y-60937701D01*
X73161757Y-60950000D01*
X73078243Y-60950000D01*
X72953373Y-60937701D01*
X72793144Y-60889097D01*
X72645481Y-60810170D01*
X72516051Y-60703949D01*
X72409830Y-60574519D01*
X72330903Y-60426856D01*
X72282298Y-60266627D01*
X72265887Y-60100000D01*
X72282298Y-59933373D01*
X72330903Y-59773144D01*
X72409830Y-59625481D01*
X72516051Y-59496051D01*
X72645481Y-59389830D01*
X72793144Y-59310903D01*
X72953373Y-59262299D01*
X73078243Y-59250000D01*
X73161757Y-59250000D01*
X73286627Y-59262299D01*
X73286627Y-59262299D01*
G37*
M02*
