G04 #@! TF.GenerationSoftware,KiCad,Pcbnew,5.1.4-e60b266~84~ubuntu19.04.1*
G04 #@! TF.CreationDate,2019-08-10T11:02:08+03:00*
G04 #@! TF.ProjectId,BRK-SSOP-18-6x7.4-P0.8,42524b2d-5353-44f5-902d-31382d367837,v1.1*
G04 #@! TF.SameCoordinates,Original*
G04 #@! TF.FileFunction,Paste,Top*
G04 #@! TF.FilePolarity,Positive*
%FSLAX46Y46*%
G04 Gerber Fmt 4.6, Leading zero omitted, Abs format (unit mm)*
G04 Created by KiCad (PCBNEW 5.1.4-e60b266~84~ubuntu19.04.1) date 2019-08-10 11:02:08*
%MOMM*%
%LPD*%
G04 APERTURE LIST*
%ADD10C,0.150000*%
%ADD11C,0.100000*%
%ADD12C,0.550000*%
G04 APERTURE END LIST*
D10*
X53000000Y-83300000D02*
G75*
G02X51000000Y-81300000I0J2000000D01*
G01*
X75000000Y-81300000D02*
G75*
G02X73000000Y-83300000I-2000000J0D01*
G01*
X73000000Y-48000000D02*
G75*
G02X75000000Y-50000000I0J-2000000D01*
G01*
X51000000Y-50000000D02*
G75*
G02X53000000Y-48000000I2000000J0D01*
G01*
X73000000Y-83300000D02*
X53000000Y-83300000D01*
X75000000Y-50000000D02*
X75000000Y-81300000D01*
X53000000Y-48000000D02*
X73000000Y-48000000D01*
X51000000Y-81300000D02*
X51000000Y-50000000D01*
D11*
G36*
X59635977Y-66785662D02*
G01*
X59649325Y-66787642D01*
X59662414Y-66790921D01*
X59675119Y-66795467D01*
X59687317Y-66801236D01*
X59698891Y-66808173D01*
X59709729Y-66816211D01*
X59719727Y-66825273D01*
X59728789Y-66835271D01*
X59736827Y-66846109D01*
X59743764Y-66857683D01*
X59749533Y-66869881D01*
X59754079Y-66882586D01*
X59757358Y-66895675D01*
X59759338Y-66909023D01*
X59760000Y-66922500D01*
X59760000Y-67197500D01*
X59759338Y-67210977D01*
X59757358Y-67224325D01*
X59754079Y-67237414D01*
X59749533Y-67250119D01*
X59743764Y-67262317D01*
X59736827Y-67273891D01*
X59728789Y-67284729D01*
X59719727Y-67294727D01*
X59709729Y-67303789D01*
X59698891Y-67311827D01*
X59687317Y-67318764D01*
X59675119Y-67324533D01*
X59662414Y-67329079D01*
X59649325Y-67332358D01*
X59635977Y-67334338D01*
X59622500Y-67335000D01*
X57997500Y-67335000D01*
X57984023Y-67334338D01*
X57970675Y-67332358D01*
X57957586Y-67329079D01*
X57944881Y-67324533D01*
X57932683Y-67318764D01*
X57921109Y-67311827D01*
X57910271Y-67303789D01*
X57900273Y-67294727D01*
X57891211Y-67284729D01*
X57883173Y-67273891D01*
X57876236Y-67262317D01*
X57870467Y-67250119D01*
X57865921Y-67237414D01*
X57862642Y-67224325D01*
X57860662Y-67210977D01*
X57860000Y-67197500D01*
X57860000Y-66922500D01*
X57860662Y-66909023D01*
X57862642Y-66895675D01*
X57865921Y-66882586D01*
X57870467Y-66869881D01*
X57876236Y-66857683D01*
X57883173Y-66846109D01*
X57891211Y-66835271D01*
X57900273Y-66825273D01*
X57910271Y-66816211D01*
X57921109Y-66808173D01*
X57932683Y-66801236D01*
X57944881Y-66795467D01*
X57957586Y-66790921D01*
X57970675Y-66787642D01*
X57984023Y-66785662D01*
X57997500Y-66785000D01*
X59622500Y-66785000D01*
X59635977Y-66785662D01*
X59635977Y-66785662D01*
G37*
D12*
X58810000Y-67060000D03*
D11*
G36*
X59635977Y-67585662D02*
G01*
X59649325Y-67587642D01*
X59662414Y-67590921D01*
X59675119Y-67595467D01*
X59687317Y-67601236D01*
X59698891Y-67608173D01*
X59709729Y-67616211D01*
X59719727Y-67625273D01*
X59728789Y-67635271D01*
X59736827Y-67646109D01*
X59743764Y-67657683D01*
X59749533Y-67669881D01*
X59754079Y-67682586D01*
X59757358Y-67695675D01*
X59759338Y-67709023D01*
X59760000Y-67722500D01*
X59760000Y-67997500D01*
X59759338Y-68010977D01*
X59757358Y-68024325D01*
X59754079Y-68037414D01*
X59749533Y-68050119D01*
X59743764Y-68062317D01*
X59736827Y-68073891D01*
X59728789Y-68084729D01*
X59719727Y-68094727D01*
X59709729Y-68103789D01*
X59698891Y-68111827D01*
X59687317Y-68118764D01*
X59675119Y-68124533D01*
X59662414Y-68129079D01*
X59649325Y-68132358D01*
X59635977Y-68134338D01*
X59622500Y-68135000D01*
X57997500Y-68135000D01*
X57984023Y-68134338D01*
X57970675Y-68132358D01*
X57957586Y-68129079D01*
X57944881Y-68124533D01*
X57932683Y-68118764D01*
X57921109Y-68111827D01*
X57910271Y-68103789D01*
X57900273Y-68094727D01*
X57891211Y-68084729D01*
X57883173Y-68073891D01*
X57876236Y-68062317D01*
X57870467Y-68050119D01*
X57865921Y-68037414D01*
X57862642Y-68024325D01*
X57860662Y-68010977D01*
X57860000Y-67997500D01*
X57860000Y-67722500D01*
X57860662Y-67709023D01*
X57862642Y-67695675D01*
X57865921Y-67682586D01*
X57870467Y-67669881D01*
X57876236Y-67657683D01*
X57883173Y-67646109D01*
X57891211Y-67635271D01*
X57900273Y-67625273D01*
X57910271Y-67616211D01*
X57921109Y-67608173D01*
X57932683Y-67601236D01*
X57944881Y-67595467D01*
X57957586Y-67590921D01*
X57970675Y-67587642D01*
X57984023Y-67585662D01*
X57997500Y-67585000D01*
X59622500Y-67585000D01*
X59635977Y-67585662D01*
X59635977Y-67585662D01*
G37*
D12*
X58810000Y-67860000D03*
D11*
G36*
X59635977Y-68385662D02*
G01*
X59649325Y-68387642D01*
X59662414Y-68390921D01*
X59675119Y-68395467D01*
X59687317Y-68401236D01*
X59698891Y-68408173D01*
X59709729Y-68416211D01*
X59719727Y-68425273D01*
X59728789Y-68435271D01*
X59736827Y-68446109D01*
X59743764Y-68457683D01*
X59749533Y-68469881D01*
X59754079Y-68482586D01*
X59757358Y-68495675D01*
X59759338Y-68509023D01*
X59760000Y-68522500D01*
X59760000Y-68797500D01*
X59759338Y-68810977D01*
X59757358Y-68824325D01*
X59754079Y-68837414D01*
X59749533Y-68850119D01*
X59743764Y-68862317D01*
X59736827Y-68873891D01*
X59728789Y-68884729D01*
X59719727Y-68894727D01*
X59709729Y-68903789D01*
X59698891Y-68911827D01*
X59687317Y-68918764D01*
X59675119Y-68924533D01*
X59662414Y-68929079D01*
X59649325Y-68932358D01*
X59635977Y-68934338D01*
X59622500Y-68935000D01*
X57997500Y-68935000D01*
X57984023Y-68934338D01*
X57970675Y-68932358D01*
X57957586Y-68929079D01*
X57944881Y-68924533D01*
X57932683Y-68918764D01*
X57921109Y-68911827D01*
X57910271Y-68903789D01*
X57900273Y-68894727D01*
X57891211Y-68884729D01*
X57883173Y-68873891D01*
X57876236Y-68862317D01*
X57870467Y-68850119D01*
X57865921Y-68837414D01*
X57862642Y-68824325D01*
X57860662Y-68810977D01*
X57860000Y-68797500D01*
X57860000Y-68522500D01*
X57860662Y-68509023D01*
X57862642Y-68495675D01*
X57865921Y-68482586D01*
X57870467Y-68469881D01*
X57876236Y-68457683D01*
X57883173Y-68446109D01*
X57891211Y-68435271D01*
X57900273Y-68425273D01*
X57910271Y-68416211D01*
X57921109Y-68408173D01*
X57932683Y-68401236D01*
X57944881Y-68395467D01*
X57957586Y-68390921D01*
X57970675Y-68387642D01*
X57984023Y-68385662D01*
X57997500Y-68385000D01*
X59622500Y-68385000D01*
X59635977Y-68385662D01*
X59635977Y-68385662D01*
G37*
D12*
X58810000Y-68660000D03*
D11*
G36*
X59635977Y-69185662D02*
G01*
X59649325Y-69187642D01*
X59662414Y-69190921D01*
X59675119Y-69195467D01*
X59687317Y-69201236D01*
X59698891Y-69208173D01*
X59709729Y-69216211D01*
X59719727Y-69225273D01*
X59728789Y-69235271D01*
X59736827Y-69246109D01*
X59743764Y-69257683D01*
X59749533Y-69269881D01*
X59754079Y-69282586D01*
X59757358Y-69295675D01*
X59759338Y-69309023D01*
X59760000Y-69322500D01*
X59760000Y-69597500D01*
X59759338Y-69610977D01*
X59757358Y-69624325D01*
X59754079Y-69637414D01*
X59749533Y-69650119D01*
X59743764Y-69662317D01*
X59736827Y-69673891D01*
X59728789Y-69684729D01*
X59719727Y-69694727D01*
X59709729Y-69703789D01*
X59698891Y-69711827D01*
X59687317Y-69718764D01*
X59675119Y-69724533D01*
X59662414Y-69729079D01*
X59649325Y-69732358D01*
X59635977Y-69734338D01*
X59622500Y-69735000D01*
X57997500Y-69735000D01*
X57984023Y-69734338D01*
X57970675Y-69732358D01*
X57957586Y-69729079D01*
X57944881Y-69724533D01*
X57932683Y-69718764D01*
X57921109Y-69711827D01*
X57910271Y-69703789D01*
X57900273Y-69694727D01*
X57891211Y-69684729D01*
X57883173Y-69673891D01*
X57876236Y-69662317D01*
X57870467Y-69650119D01*
X57865921Y-69637414D01*
X57862642Y-69624325D01*
X57860662Y-69610977D01*
X57860000Y-69597500D01*
X57860000Y-69322500D01*
X57860662Y-69309023D01*
X57862642Y-69295675D01*
X57865921Y-69282586D01*
X57870467Y-69269881D01*
X57876236Y-69257683D01*
X57883173Y-69246109D01*
X57891211Y-69235271D01*
X57900273Y-69225273D01*
X57910271Y-69216211D01*
X57921109Y-69208173D01*
X57932683Y-69201236D01*
X57944881Y-69195467D01*
X57957586Y-69190921D01*
X57970675Y-69187642D01*
X57984023Y-69185662D01*
X57997500Y-69185000D01*
X59622500Y-69185000D01*
X59635977Y-69185662D01*
X59635977Y-69185662D01*
G37*
D12*
X58810000Y-69460000D03*
D11*
G36*
X59635977Y-69985662D02*
G01*
X59649325Y-69987642D01*
X59662414Y-69990921D01*
X59675119Y-69995467D01*
X59687317Y-70001236D01*
X59698891Y-70008173D01*
X59709729Y-70016211D01*
X59719727Y-70025273D01*
X59728789Y-70035271D01*
X59736827Y-70046109D01*
X59743764Y-70057683D01*
X59749533Y-70069881D01*
X59754079Y-70082586D01*
X59757358Y-70095675D01*
X59759338Y-70109023D01*
X59760000Y-70122500D01*
X59760000Y-70397500D01*
X59759338Y-70410977D01*
X59757358Y-70424325D01*
X59754079Y-70437414D01*
X59749533Y-70450119D01*
X59743764Y-70462317D01*
X59736827Y-70473891D01*
X59728789Y-70484729D01*
X59719727Y-70494727D01*
X59709729Y-70503789D01*
X59698891Y-70511827D01*
X59687317Y-70518764D01*
X59675119Y-70524533D01*
X59662414Y-70529079D01*
X59649325Y-70532358D01*
X59635977Y-70534338D01*
X59622500Y-70535000D01*
X57997500Y-70535000D01*
X57984023Y-70534338D01*
X57970675Y-70532358D01*
X57957586Y-70529079D01*
X57944881Y-70524533D01*
X57932683Y-70518764D01*
X57921109Y-70511827D01*
X57910271Y-70503789D01*
X57900273Y-70494727D01*
X57891211Y-70484729D01*
X57883173Y-70473891D01*
X57876236Y-70462317D01*
X57870467Y-70450119D01*
X57865921Y-70437414D01*
X57862642Y-70424325D01*
X57860662Y-70410977D01*
X57860000Y-70397500D01*
X57860000Y-70122500D01*
X57860662Y-70109023D01*
X57862642Y-70095675D01*
X57865921Y-70082586D01*
X57870467Y-70069881D01*
X57876236Y-70057683D01*
X57883173Y-70046109D01*
X57891211Y-70035271D01*
X57900273Y-70025273D01*
X57910271Y-70016211D01*
X57921109Y-70008173D01*
X57932683Y-70001236D01*
X57944881Y-69995467D01*
X57957586Y-69990921D01*
X57970675Y-69987642D01*
X57984023Y-69985662D01*
X57997500Y-69985000D01*
X59622500Y-69985000D01*
X59635977Y-69985662D01*
X59635977Y-69985662D01*
G37*
D12*
X58810000Y-70260000D03*
D11*
G36*
X59635977Y-70785662D02*
G01*
X59649325Y-70787642D01*
X59662414Y-70790921D01*
X59675119Y-70795467D01*
X59687317Y-70801236D01*
X59698891Y-70808173D01*
X59709729Y-70816211D01*
X59719727Y-70825273D01*
X59728789Y-70835271D01*
X59736827Y-70846109D01*
X59743764Y-70857683D01*
X59749533Y-70869881D01*
X59754079Y-70882586D01*
X59757358Y-70895675D01*
X59759338Y-70909023D01*
X59760000Y-70922500D01*
X59760000Y-71197500D01*
X59759338Y-71210977D01*
X59757358Y-71224325D01*
X59754079Y-71237414D01*
X59749533Y-71250119D01*
X59743764Y-71262317D01*
X59736827Y-71273891D01*
X59728789Y-71284729D01*
X59719727Y-71294727D01*
X59709729Y-71303789D01*
X59698891Y-71311827D01*
X59687317Y-71318764D01*
X59675119Y-71324533D01*
X59662414Y-71329079D01*
X59649325Y-71332358D01*
X59635977Y-71334338D01*
X59622500Y-71335000D01*
X57997500Y-71335000D01*
X57984023Y-71334338D01*
X57970675Y-71332358D01*
X57957586Y-71329079D01*
X57944881Y-71324533D01*
X57932683Y-71318764D01*
X57921109Y-71311827D01*
X57910271Y-71303789D01*
X57900273Y-71294727D01*
X57891211Y-71284729D01*
X57883173Y-71273891D01*
X57876236Y-71262317D01*
X57870467Y-71250119D01*
X57865921Y-71237414D01*
X57862642Y-71224325D01*
X57860662Y-71210977D01*
X57860000Y-71197500D01*
X57860000Y-70922500D01*
X57860662Y-70909023D01*
X57862642Y-70895675D01*
X57865921Y-70882586D01*
X57870467Y-70869881D01*
X57876236Y-70857683D01*
X57883173Y-70846109D01*
X57891211Y-70835271D01*
X57900273Y-70825273D01*
X57910271Y-70816211D01*
X57921109Y-70808173D01*
X57932683Y-70801236D01*
X57944881Y-70795467D01*
X57957586Y-70790921D01*
X57970675Y-70787642D01*
X57984023Y-70785662D01*
X57997500Y-70785000D01*
X59622500Y-70785000D01*
X59635977Y-70785662D01*
X59635977Y-70785662D01*
G37*
D12*
X58810000Y-71060000D03*
D11*
G36*
X59635977Y-71585662D02*
G01*
X59649325Y-71587642D01*
X59662414Y-71590921D01*
X59675119Y-71595467D01*
X59687317Y-71601236D01*
X59698891Y-71608173D01*
X59709729Y-71616211D01*
X59719727Y-71625273D01*
X59728789Y-71635271D01*
X59736827Y-71646109D01*
X59743764Y-71657683D01*
X59749533Y-71669881D01*
X59754079Y-71682586D01*
X59757358Y-71695675D01*
X59759338Y-71709023D01*
X59760000Y-71722500D01*
X59760000Y-71997500D01*
X59759338Y-72010977D01*
X59757358Y-72024325D01*
X59754079Y-72037414D01*
X59749533Y-72050119D01*
X59743764Y-72062317D01*
X59736827Y-72073891D01*
X59728789Y-72084729D01*
X59719727Y-72094727D01*
X59709729Y-72103789D01*
X59698891Y-72111827D01*
X59687317Y-72118764D01*
X59675119Y-72124533D01*
X59662414Y-72129079D01*
X59649325Y-72132358D01*
X59635977Y-72134338D01*
X59622500Y-72135000D01*
X57997500Y-72135000D01*
X57984023Y-72134338D01*
X57970675Y-72132358D01*
X57957586Y-72129079D01*
X57944881Y-72124533D01*
X57932683Y-72118764D01*
X57921109Y-72111827D01*
X57910271Y-72103789D01*
X57900273Y-72094727D01*
X57891211Y-72084729D01*
X57883173Y-72073891D01*
X57876236Y-72062317D01*
X57870467Y-72050119D01*
X57865921Y-72037414D01*
X57862642Y-72024325D01*
X57860662Y-72010977D01*
X57860000Y-71997500D01*
X57860000Y-71722500D01*
X57860662Y-71709023D01*
X57862642Y-71695675D01*
X57865921Y-71682586D01*
X57870467Y-71669881D01*
X57876236Y-71657683D01*
X57883173Y-71646109D01*
X57891211Y-71635271D01*
X57900273Y-71625273D01*
X57910271Y-71616211D01*
X57921109Y-71608173D01*
X57932683Y-71601236D01*
X57944881Y-71595467D01*
X57957586Y-71590921D01*
X57970675Y-71587642D01*
X57984023Y-71585662D01*
X57997500Y-71585000D01*
X59622500Y-71585000D01*
X59635977Y-71585662D01*
X59635977Y-71585662D01*
G37*
D12*
X58810000Y-71860000D03*
D11*
G36*
X59635977Y-72385662D02*
G01*
X59649325Y-72387642D01*
X59662414Y-72390921D01*
X59675119Y-72395467D01*
X59687317Y-72401236D01*
X59698891Y-72408173D01*
X59709729Y-72416211D01*
X59719727Y-72425273D01*
X59728789Y-72435271D01*
X59736827Y-72446109D01*
X59743764Y-72457683D01*
X59749533Y-72469881D01*
X59754079Y-72482586D01*
X59757358Y-72495675D01*
X59759338Y-72509023D01*
X59760000Y-72522500D01*
X59760000Y-72797500D01*
X59759338Y-72810977D01*
X59757358Y-72824325D01*
X59754079Y-72837414D01*
X59749533Y-72850119D01*
X59743764Y-72862317D01*
X59736827Y-72873891D01*
X59728789Y-72884729D01*
X59719727Y-72894727D01*
X59709729Y-72903789D01*
X59698891Y-72911827D01*
X59687317Y-72918764D01*
X59675119Y-72924533D01*
X59662414Y-72929079D01*
X59649325Y-72932358D01*
X59635977Y-72934338D01*
X59622500Y-72935000D01*
X57997500Y-72935000D01*
X57984023Y-72934338D01*
X57970675Y-72932358D01*
X57957586Y-72929079D01*
X57944881Y-72924533D01*
X57932683Y-72918764D01*
X57921109Y-72911827D01*
X57910271Y-72903789D01*
X57900273Y-72894727D01*
X57891211Y-72884729D01*
X57883173Y-72873891D01*
X57876236Y-72862317D01*
X57870467Y-72850119D01*
X57865921Y-72837414D01*
X57862642Y-72824325D01*
X57860662Y-72810977D01*
X57860000Y-72797500D01*
X57860000Y-72522500D01*
X57860662Y-72509023D01*
X57862642Y-72495675D01*
X57865921Y-72482586D01*
X57870467Y-72469881D01*
X57876236Y-72457683D01*
X57883173Y-72446109D01*
X57891211Y-72435271D01*
X57900273Y-72425273D01*
X57910271Y-72416211D01*
X57921109Y-72408173D01*
X57932683Y-72401236D01*
X57944881Y-72395467D01*
X57957586Y-72390921D01*
X57970675Y-72387642D01*
X57984023Y-72385662D01*
X57997500Y-72385000D01*
X59622500Y-72385000D01*
X59635977Y-72385662D01*
X59635977Y-72385662D01*
G37*
D12*
X58810000Y-72660000D03*
D11*
G36*
X59635977Y-73185662D02*
G01*
X59649325Y-73187642D01*
X59662414Y-73190921D01*
X59675119Y-73195467D01*
X59687317Y-73201236D01*
X59698891Y-73208173D01*
X59709729Y-73216211D01*
X59719727Y-73225273D01*
X59728789Y-73235271D01*
X59736827Y-73246109D01*
X59743764Y-73257683D01*
X59749533Y-73269881D01*
X59754079Y-73282586D01*
X59757358Y-73295675D01*
X59759338Y-73309023D01*
X59760000Y-73322500D01*
X59760000Y-73597500D01*
X59759338Y-73610977D01*
X59757358Y-73624325D01*
X59754079Y-73637414D01*
X59749533Y-73650119D01*
X59743764Y-73662317D01*
X59736827Y-73673891D01*
X59728789Y-73684729D01*
X59719727Y-73694727D01*
X59709729Y-73703789D01*
X59698891Y-73711827D01*
X59687317Y-73718764D01*
X59675119Y-73724533D01*
X59662414Y-73729079D01*
X59649325Y-73732358D01*
X59635977Y-73734338D01*
X59622500Y-73735000D01*
X57997500Y-73735000D01*
X57984023Y-73734338D01*
X57970675Y-73732358D01*
X57957586Y-73729079D01*
X57944881Y-73724533D01*
X57932683Y-73718764D01*
X57921109Y-73711827D01*
X57910271Y-73703789D01*
X57900273Y-73694727D01*
X57891211Y-73684729D01*
X57883173Y-73673891D01*
X57876236Y-73662317D01*
X57870467Y-73650119D01*
X57865921Y-73637414D01*
X57862642Y-73624325D01*
X57860662Y-73610977D01*
X57860000Y-73597500D01*
X57860000Y-73322500D01*
X57860662Y-73309023D01*
X57862642Y-73295675D01*
X57865921Y-73282586D01*
X57870467Y-73269881D01*
X57876236Y-73257683D01*
X57883173Y-73246109D01*
X57891211Y-73235271D01*
X57900273Y-73225273D01*
X57910271Y-73216211D01*
X57921109Y-73208173D01*
X57932683Y-73201236D01*
X57944881Y-73195467D01*
X57957586Y-73190921D01*
X57970675Y-73187642D01*
X57984023Y-73185662D01*
X57997500Y-73185000D01*
X59622500Y-73185000D01*
X59635977Y-73185662D01*
X59635977Y-73185662D01*
G37*
D12*
X58810000Y-73460000D03*
D11*
G36*
X67935977Y-73185662D02*
G01*
X67949325Y-73187642D01*
X67962414Y-73190921D01*
X67975119Y-73195467D01*
X67987317Y-73201236D01*
X67998891Y-73208173D01*
X68009729Y-73216211D01*
X68019727Y-73225273D01*
X68028789Y-73235271D01*
X68036827Y-73246109D01*
X68043764Y-73257683D01*
X68049533Y-73269881D01*
X68054079Y-73282586D01*
X68057358Y-73295675D01*
X68059338Y-73309023D01*
X68060000Y-73322500D01*
X68060000Y-73597500D01*
X68059338Y-73610977D01*
X68057358Y-73624325D01*
X68054079Y-73637414D01*
X68049533Y-73650119D01*
X68043764Y-73662317D01*
X68036827Y-73673891D01*
X68028789Y-73684729D01*
X68019727Y-73694727D01*
X68009729Y-73703789D01*
X67998891Y-73711827D01*
X67987317Y-73718764D01*
X67975119Y-73724533D01*
X67962414Y-73729079D01*
X67949325Y-73732358D01*
X67935977Y-73734338D01*
X67922500Y-73735000D01*
X66297500Y-73735000D01*
X66284023Y-73734338D01*
X66270675Y-73732358D01*
X66257586Y-73729079D01*
X66244881Y-73724533D01*
X66232683Y-73718764D01*
X66221109Y-73711827D01*
X66210271Y-73703789D01*
X66200273Y-73694727D01*
X66191211Y-73684729D01*
X66183173Y-73673891D01*
X66176236Y-73662317D01*
X66170467Y-73650119D01*
X66165921Y-73637414D01*
X66162642Y-73624325D01*
X66160662Y-73610977D01*
X66160000Y-73597500D01*
X66160000Y-73322500D01*
X66160662Y-73309023D01*
X66162642Y-73295675D01*
X66165921Y-73282586D01*
X66170467Y-73269881D01*
X66176236Y-73257683D01*
X66183173Y-73246109D01*
X66191211Y-73235271D01*
X66200273Y-73225273D01*
X66210271Y-73216211D01*
X66221109Y-73208173D01*
X66232683Y-73201236D01*
X66244881Y-73195467D01*
X66257586Y-73190921D01*
X66270675Y-73187642D01*
X66284023Y-73185662D01*
X66297500Y-73185000D01*
X67922500Y-73185000D01*
X67935977Y-73185662D01*
X67935977Y-73185662D01*
G37*
D12*
X67110000Y-73460000D03*
D11*
G36*
X67935977Y-72385662D02*
G01*
X67949325Y-72387642D01*
X67962414Y-72390921D01*
X67975119Y-72395467D01*
X67987317Y-72401236D01*
X67998891Y-72408173D01*
X68009729Y-72416211D01*
X68019727Y-72425273D01*
X68028789Y-72435271D01*
X68036827Y-72446109D01*
X68043764Y-72457683D01*
X68049533Y-72469881D01*
X68054079Y-72482586D01*
X68057358Y-72495675D01*
X68059338Y-72509023D01*
X68060000Y-72522500D01*
X68060000Y-72797500D01*
X68059338Y-72810977D01*
X68057358Y-72824325D01*
X68054079Y-72837414D01*
X68049533Y-72850119D01*
X68043764Y-72862317D01*
X68036827Y-72873891D01*
X68028789Y-72884729D01*
X68019727Y-72894727D01*
X68009729Y-72903789D01*
X67998891Y-72911827D01*
X67987317Y-72918764D01*
X67975119Y-72924533D01*
X67962414Y-72929079D01*
X67949325Y-72932358D01*
X67935977Y-72934338D01*
X67922500Y-72935000D01*
X66297500Y-72935000D01*
X66284023Y-72934338D01*
X66270675Y-72932358D01*
X66257586Y-72929079D01*
X66244881Y-72924533D01*
X66232683Y-72918764D01*
X66221109Y-72911827D01*
X66210271Y-72903789D01*
X66200273Y-72894727D01*
X66191211Y-72884729D01*
X66183173Y-72873891D01*
X66176236Y-72862317D01*
X66170467Y-72850119D01*
X66165921Y-72837414D01*
X66162642Y-72824325D01*
X66160662Y-72810977D01*
X66160000Y-72797500D01*
X66160000Y-72522500D01*
X66160662Y-72509023D01*
X66162642Y-72495675D01*
X66165921Y-72482586D01*
X66170467Y-72469881D01*
X66176236Y-72457683D01*
X66183173Y-72446109D01*
X66191211Y-72435271D01*
X66200273Y-72425273D01*
X66210271Y-72416211D01*
X66221109Y-72408173D01*
X66232683Y-72401236D01*
X66244881Y-72395467D01*
X66257586Y-72390921D01*
X66270675Y-72387642D01*
X66284023Y-72385662D01*
X66297500Y-72385000D01*
X67922500Y-72385000D01*
X67935977Y-72385662D01*
X67935977Y-72385662D01*
G37*
D12*
X67110000Y-72660000D03*
D11*
G36*
X67935977Y-71585662D02*
G01*
X67949325Y-71587642D01*
X67962414Y-71590921D01*
X67975119Y-71595467D01*
X67987317Y-71601236D01*
X67998891Y-71608173D01*
X68009729Y-71616211D01*
X68019727Y-71625273D01*
X68028789Y-71635271D01*
X68036827Y-71646109D01*
X68043764Y-71657683D01*
X68049533Y-71669881D01*
X68054079Y-71682586D01*
X68057358Y-71695675D01*
X68059338Y-71709023D01*
X68060000Y-71722500D01*
X68060000Y-71997500D01*
X68059338Y-72010977D01*
X68057358Y-72024325D01*
X68054079Y-72037414D01*
X68049533Y-72050119D01*
X68043764Y-72062317D01*
X68036827Y-72073891D01*
X68028789Y-72084729D01*
X68019727Y-72094727D01*
X68009729Y-72103789D01*
X67998891Y-72111827D01*
X67987317Y-72118764D01*
X67975119Y-72124533D01*
X67962414Y-72129079D01*
X67949325Y-72132358D01*
X67935977Y-72134338D01*
X67922500Y-72135000D01*
X66297500Y-72135000D01*
X66284023Y-72134338D01*
X66270675Y-72132358D01*
X66257586Y-72129079D01*
X66244881Y-72124533D01*
X66232683Y-72118764D01*
X66221109Y-72111827D01*
X66210271Y-72103789D01*
X66200273Y-72094727D01*
X66191211Y-72084729D01*
X66183173Y-72073891D01*
X66176236Y-72062317D01*
X66170467Y-72050119D01*
X66165921Y-72037414D01*
X66162642Y-72024325D01*
X66160662Y-72010977D01*
X66160000Y-71997500D01*
X66160000Y-71722500D01*
X66160662Y-71709023D01*
X66162642Y-71695675D01*
X66165921Y-71682586D01*
X66170467Y-71669881D01*
X66176236Y-71657683D01*
X66183173Y-71646109D01*
X66191211Y-71635271D01*
X66200273Y-71625273D01*
X66210271Y-71616211D01*
X66221109Y-71608173D01*
X66232683Y-71601236D01*
X66244881Y-71595467D01*
X66257586Y-71590921D01*
X66270675Y-71587642D01*
X66284023Y-71585662D01*
X66297500Y-71585000D01*
X67922500Y-71585000D01*
X67935977Y-71585662D01*
X67935977Y-71585662D01*
G37*
D12*
X67110000Y-71860000D03*
D11*
G36*
X67935977Y-70785662D02*
G01*
X67949325Y-70787642D01*
X67962414Y-70790921D01*
X67975119Y-70795467D01*
X67987317Y-70801236D01*
X67998891Y-70808173D01*
X68009729Y-70816211D01*
X68019727Y-70825273D01*
X68028789Y-70835271D01*
X68036827Y-70846109D01*
X68043764Y-70857683D01*
X68049533Y-70869881D01*
X68054079Y-70882586D01*
X68057358Y-70895675D01*
X68059338Y-70909023D01*
X68060000Y-70922500D01*
X68060000Y-71197500D01*
X68059338Y-71210977D01*
X68057358Y-71224325D01*
X68054079Y-71237414D01*
X68049533Y-71250119D01*
X68043764Y-71262317D01*
X68036827Y-71273891D01*
X68028789Y-71284729D01*
X68019727Y-71294727D01*
X68009729Y-71303789D01*
X67998891Y-71311827D01*
X67987317Y-71318764D01*
X67975119Y-71324533D01*
X67962414Y-71329079D01*
X67949325Y-71332358D01*
X67935977Y-71334338D01*
X67922500Y-71335000D01*
X66297500Y-71335000D01*
X66284023Y-71334338D01*
X66270675Y-71332358D01*
X66257586Y-71329079D01*
X66244881Y-71324533D01*
X66232683Y-71318764D01*
X66221109Y-71311827D01*
X66210271Y-71303789D01*
X66200273Y-71294727D01*
X66191211Y-71284729D01*
X66183173Y-71273891D01*
X66176236Y-71262317D01*
X66170467Y-71250119D01*
X66165921Y-71237414D01*
X66162642Y-71224325D01*
X66160662Y-71210977D01*
X66160000Y-71197500D01*
X66160000Y-70922500D01*
X66160662Y-70909023D01*
X66162642Y-70895675D01*
X66165921Y-70882586D01*
X66170467Y-70869881D01*
X66176236Y-70857683D01*
X66183173Y-70846109D01*
X66191211Y-70835271D01*
X66200273Y-70825273D01*
X66210271Y-70816211D01*
X66221109Y-70808173D01*
X66232683Y-70801236D01*
X66244881Y-70795467D01*
X66257586Y-70790921D01*
X66270675Y-70787642D01*
X66284023Y-70785662D01*
X66297500Y-70785000D01*
X67922500Y-70785000D01*
X67935977Y-70785662D01*
X67935977Y-70785662D01*
G37*
D12*
X67110000Y-71060000D03*
D11*
G36*
X67935977Y-69985662D02*
G01*
X67949325Y-69987642D01*
X67962414Y-69990921D01*
X67975119Y-69995467D01*
X67987317Y-70001236D01*
X67998891Y-70008173D01*
X68009729Y-70016211D01*
X68019727Y-70025273D01*
X68028789Y-70035271D01*
X68036827Y-70046109D01*
X68043764Y-70057683D01*
X68049533Y-70069881D01*
X68054079Y-70082586D01*
X68057358Y-70095675D01*
X68059338Y-70109023D01*
X68060000Y-70122500D01*
X68060000Y-70397500D01*
X68059338Y-70410977D01*
X68057358Y-70424325D01*
X68054079Y-70437414D01*
X68049533Y-70450119D01*
X68043764Y-70462317D01*
X68036827Y-70473891D01*
X68028789Y-70484729D01*
X68019727Y-70494727D01*
X68009729Y-70503789D01*
X67998891Y-70511827D01*
X67987317Y-70518764D01*
X67975119Y-70524533D01*
X67962414Y-70529079D01*
X67949325Y-70532358D01*
X67935977Y-70534338D01*
X67922500Y-70535000D01*
X66297500Y-70535000D01*
X66284023Y-70534338D01*
X66270675Y-70532358D01*
X66257586Y-70529079D01*
X66244881Y-70524533D01*
X66232683Y-70518764D01*
X66221109Y-70511827D01*
X66210271Y-70503789D01*
X66200273Y-70494727D01*
X66191211Y-70484729D01*
X66183173Y-70473891D01*
X66176236Y-70462317D01*
X66170467Y-70450119D01*
X66165921Y-70437414D01*
X66162642Y-70424325D01*
X66160662Y-70410977D01*
X66160000Y-70397500D01*
X66160000Y-70122500D01*
X66160662Y-70109023D01*
X66162642Y-70095675D01*
X66165921Y-70082586D01*
X66170467Y-70069881D01*
X66176236Y-70057683D01*
X66183173Y-70046109D01*
X66191211Y-70035271D01*
X66200273Y-70025273D01*
X66210271Y-70016211D01*
X66221109Y-70008173D01*
X66232683Y-70001236D01*
X66244881Y-69995467D01*
X66257586Y-69990921D01*
X66270675Y-69987642D01*
X66284023Y-69985662D01*
X66297500Y-69985000D01*
X67922500Y-69985000D01*
X67935977Y-69985662D01*
X67935977Y-69985662D01*
G37*
D12*
X67110000Y-70260000D03*
D11*
G36*
X67935977Y-69185662D02*
G01*
X67949325Y-69187642D01*
X67962414Y-69190921D01*
X67975119Y-69195467D01*
X67987317Y-69201236D01*
X67998891Y-69208173D01*
X68009729Y-69216211D01*
X68019727Y-69225273D01*
X68028789Y-69235271D01*
X68036827Y-69246109D01*
X68043764Y-69257683D01*
X68049533Y-69269881D01*
X68054079Y-69282586D01*
X68057358Y-69295675D01*
X68059338Y-69309023D01*
X68060000Y-69322500D01*
X68060000Y-69597500D01*
X68059338Y-69610977D01*
X68057358Y-69624325D01*
X68054079Y-69637414D01*
X68049533Y-69650119D01*
X68043764Y-69662317D01*
X68036827Y-69673891D01*
X68028789Y-69684729D01*
X68019727Y-69694727D01*
X68009729Y-69703789D01*
X67998891Y-69711827D01*
X67987317Y-69718764D01*
X67975119Y-69724533D01*
X67962414Y-69729079D01*
X67949325Y-69732358D01*
X67935977Y-69734338D01*
X67922500Y-69735000D01*
X66297500Y-69735000D01*
X66284023Y-69734338D01*
X66270675Y-69732358D01*
X66257586Y-69729079D01*
X66244881Y-69724533D01*
X66232683Y-69718764D01*
X66221109Y-69711827D01*
X66210271Y-69703789D01*
X66200273Y-69694727D01*
X66191211Y-69684729D01*
X66183173Y-69673891D01*
X66176236Y-69662317D01*
X66170467Y-69650119D01*
X66165921Y-69637414D01*
X66162642Y-69624325D01*
X66160662Y-69610977D01*
X66160000Y-69597500D01*
X66160000Y-69322500D01*
X66160662Y-69309023D01*
X66162642Y-69295675D01*
X66165921Y-69282586D01*
X66170467Y-69269881D01*
X66176236Y-69257683D01*
X66183173Y-69246109D01*
X66191211Y-69235271D01*
X66200273Y-69225273D01*
X66210271Y-69216211D01*
X66221109Y-69208173D01*
X66232683Y-69201236D01*
X66244881Y-69195467D01*
X66257586Y-69190921D01*
X66270675Y-69187642D01*
X66284023Y-69185662D01*
X66297500Y-69185000D01*
X67922500Y-69185000D01*
X67935977Y-69185662D01*
X67935977Y-69185662D01*
G37*
D12*
X67110000Y-69460000D03*
D11*
G36*
X67935977Y-68385662D02*
G01*
X67949325Y-68387642D01*
X67962414Y-68390921D01*
X67975119Y-68395467D01*
X67987317Y-68401236D01*
X67998891Y-68408173D01*
X68009729Y-68416211D01*
X68019727Y-68425273D01*
X68028789Y-68435271D01*
X68036827Y-68446109D01*
X68043764Y-68457683D01*
X68049533Y-68469881D01*
X68054079Y-68482586D01*
X68057358Y-68495675D01*
X68059338Y-68509023D01*
X68060000Y-68522500D01*
X68060000Y-68797500D01*
X68059338Y-68810977D01*
X68057358Y-68824325D01*
X68054079Y-68837414D01*
X68049533Y-68850119D01*
X68043764Y-68862317D01*
X68036827Y-68873891D01*
X68028789Y-68884729D01*
X68019727Y-68894727D01*
X68009729Y-68903789D01*
X67998891Y-68911827D01*
X67987317Y-68918764D01*
X67975119Y-68924533D01*
X67962414Y-68929079D01*
X67949325Y-68932358D01*
X67935977Y-68934338D01*
X67922500Y-68935000D01*
X66297500Y-68935000D01*
X66284023Y-68934338D01*
X66270675Y-68932358D01*
X66257586Y-68929079D01*
X66244881Y-68924533D01*
X66232683Y-68918764D01*
X66221109Y-68911827D01*
X66210271Y-68903789D01*
X66200273Y-68894727D01*
X66191211Y-68884729D01*
X66183173Y-68873891D01*
X66176236Y-68862317D01*
X66170467Y-68850119D01*
X66165921Y-68837414D01*
X66162642Y-68824325D01*
X66160662Y-68810977D01*
X66160000Y-68797500D01*
X66160000Y-68522500D01*
X66160662Y-68509023D01*
X66162642Y-68495675D01*
X66165921Y-68482586D01*
X66170467Y-68469881D01*
X66176236Y-68457683D01*
X66183173Y-68446109D01*
X66191211Y-68435271D01*
X66200273Y-68425273D01*
X66210271Y-68416211D01*
X66221109Y-68408173D01*
X66232683Y-68401236D01*
X66244881Y-68395467D01*
X66257586Y-68390921D01*
X66270675Y-68387642D01*
X66284023Y-68385662D01*
X66297500Y-68385000D01*
X67922500Y-68385000D01*
X67935977Y-68385662D01*
X67935977Y-68385662D01*
G37*
D12*
X67110000Y-68660000D03*
D11*
G36*
X67935977Y-67585662D02*
G01*
X67949325Y-67587642D01*
X67962414Y-67590921D01*
X67975119Y-67595467D01*
X67987317Y-67601236D01*
X67998891Y-67608173D01*
X68009729Y-67616211D01*
X68019727Y-67625273D01*
X68028789Y-67635271D01*
X68036827Y-67646109D01*
X68043764Y-67657683D01*
X68049533Y-67669881D01*
X68054079Y-67682586D01*
X68057358Y-67695675D01*
X68059338Y-67709023D01*
X68060000Y-67722500D01*
X68060000Y-67997500D01*
X68059338Y-68010977D01*
X68057358Y-68024325D01*
X68054079Y-68037414D01*
X68049533Y-68050119D01*
X68043764Y-68062317D01*
X68036827Y-68073891D01*
X68028789Y-68084729D01*
X68019727Y-68094727D01*
X68009729Y-68103789D01*
X67998891Y-68111827D01*
X67987317Y-68118764D01*
X67975119Y-68124533D01*
X67962414Y-68129079D01*
X67949325Y-68132358D01*
X67935977Y-68134338D01*
X67922500Y-68135000D01*
X66297500Y-68135000D01*
X66284023Y-68134338D01*
X66270675Y-68132358D01*
X66257586Y-68129079D01*
X66244881Y-68124533D01*
X66232683Y-68118764D01*
X66221109Y-68111827D01*
X66210271Y-68103789D01*
X66200273Y-68094727D01*
X66191211Y-68084729D01*
X66183173Y-68073891D01*
X66176236Y-68062317D01*
X66170467Y-68050119D01*
X66165921Y-68037414D01*
X66162642Y-68024325D01*
X66160662Y-68010977D01*
X66160000Y-67997500D01*
X66160000Y-67722500D01*
X66160662Y-67709023D01*
X66162642Y-67695675D01*
X66165921Y-67682586D01*
X66170467Y-67669881D01*
X66176236Y-67657683D01*
X66183173Y-67646109D01*
X66191211Y-67635271D01*
X66200273Y-67625273D01*
X66210271Y-67616211D01*
X66221109Y-67608173D01*
X66232683Y-67601236D01*
X66244881Y-67595467D01*
X66257586Y-67590921D01*
X66270675Y-67587642D01*
X66284023Y-67585662D01*
X66297500Y-67585000D01*
X67922500Y-67585000D01*
X67935977Y-67585662D01*
X67935977Y-67585662D01*
G37*
D12*
X67110000Y-67860000D03*
D11*
G36*
X67935977Y-66785662D02*
G01*
X67949325Y-66787642D01*
X67962414Y-66790921D01*
X67975119Y-66795467D01*
X67987317Y-66801236D01*
X67998891Y-66808173D01*
X68009729Y-66816211D01*
X68019727Y-66825273D01*
X68028789Y-66835271D01*
X68036827Y-66846109D01*
X68043764Y-66857683D01*
X68049533Y-66869881D01*
X68054079Y-66882586D01*
X68057358Y-66895675D01*
X68059338Y-66909023D01*
X68060000Y-66922500D01*
X68060000Y-67197500D01*
X68059338Y-67210977D01*
X68057358Y-67224325D01*
X68054079Y-67237414D01*
X68049533Y-67250119D01*
X68043764Y-67262317D01*
X68036827Y-67273891D01*
X68028789Y-67284729D01*
X68019727Y-67294727D01*
X68009729Y-67303789D01*
X67998891Y-67311827D01*
X67987317Y-67318764D01*
X67975119Y-67324533D01*
X67962414Y-67329079D01*
X67949325Y-67332358D01*
X67935977Y-67334338D01*
X67922500Y-67335000D01*
X66297500Y-67335000D01*
X66284023Y-67334338D01*
X66270675Y-67332358D01*
X66257586Y-67329079D01*
X66244881Y-67324533D01*
X66232683Y-67318764D01*
X66221109Y-67311827D01*
X66210271Y-67303789D01*
X66200273Y-67294727D01*
X66191211Y-67284729D01*
X66183173Y-67273891D01*
X66176236Y-67262317D01*
X66170467Y-67250119D01*
X66165921Y-67237414D01*
X66162642Y-67224325D01*
X66160662Y-67210977D01*
X66160000Y-67197500D01*
X66160000Y-66922500D01*
X66160662Y-66909023D01*
X66162642Y-66895675D01*
X66165921Y-66882586D01*
X66170467Y-66869881D01*
X66176236Y-66857683D01*
X66183173Y-66846109D01*
X66191211Y-66835271D01*
X66200273Y-66825273D01*
X66210271Y-66816211D01*
X66221109Y-66808173D01*
X66232683Y-66801236D01*
X66244881Y-66795467D01*
X66257586Y-66790921D01*
X66270675Y-66787642D01*
X66284023Y-66785662D01*
X66297500Y-66785000D01*
X67922500Y-66785000D01*
X67935977Y-66785662D01*
X67935977Y-66785662D01*
G37*
D12*
X67110000Y-67060000D03*
M02*
