G04 #@! TF.GenerationSoftware,KiCad,Pcbnew,5.1.6-c6e7f7d~87~ubuntu20.04.1*
G04 #@! TF.CreationDate,2020-07-16T23:52:11+03:00*
G04 #@! TF.ProjectId,EV-MAX-V-E64,45562d4d-4158-42d5-962d-4536342e6b69,v1.0*
G04 #@! TF.SameCoordinates,Original*
G04 #@! TF.FileFunction,Soldermask,Top*
G04 #@! TF.FilePolarity,Negative*
%FSLAX46Y46*%
G04 Gerber Fmt 4.6, Leading zero omitted, Abs format (unit mm)*
G04 Created by KiCad (PCBNEW 5.1.6-c6e7f7d~87~ubuntu20.04.1) date 2020-07-16 23:52:11*
%MOMM*%
%LPD*%
G01*
G04 APERTURE LIST*
G04 #@! TA.AperFunction,Profile*
%ADD10C,0.050000*%
G04 #@! TD*
%ADD11R,4.600000X4.600000*%
%ADD12C,3.300000*%
%ADD13C,0.887400*%
%ADD14C,1.090600*%
%ADD15O,1.800000X1.800000*%
%ADD16R,1.800000X1.800000*%
%ADD17R,0.750000X1.660000*%
G04 APERTURE END LIST*
D10*
X65000000Y-70000000D02*
X65000000Y-130000000D01*
X130000000Y-65000000D02*
X70000000Y-65000000D01*
X135000000Y-130000000D02*
X135000000Y-70000000D01*
X70000000Y-135000000D02*
X130000000Y-135000000D01*
X70000000Y-135000000D02*
G75*
G02*
X65000000Y-130000000I0J5000000D01*
G01*
X65000000Y-70000000D02*
G75*
G02*
X70000000Y-65000000I5000000J0D01*
G01*
X130000000Y-65000000D02*
G75*
G02*
X135000000Y-70000000I0J-5000000D01*
G01*
X135000000Y-130000000D02*
G75*
G02*
X130000000Y-135000000I-5000000J0D01*
G01*
D11*
X100000000Y-100000000D03*
G36*
G01*
X96825000Y-96537500D02*
X96825000Y-95137500D01*
G75*
G02*
X96912500Y-95050000I87500J0D01*
G01*
X97087500Y-95050000D01*
G75*
G02*
X97175000Y-95137500I0J-87500D01*
G01*
X97175000Y-96537500D01*
G75*
G02*
X97087500Y-96625000I-87500J0D01*
G01*
X96912500Y-96625000D01*
G75*
G02*
X96825000Y-96537500I0J87500D01*
G01*
G37*
G36*
G01*
X97225000Y-96537500D02*
X97225000Y-95137500D01*
G75*
G02*
X97312500Y-95050000I87500J0D01*
G01*
X97487500Y-95050000D01*
G75*
G02*
X97575000Y-95137500I0J-87500D01*
G01*
X97575000Y-96537500D01*
G75*
G02*
X97487500Y-96625000I-87500J0D01*
G01*
X97312500Y-96625000D01*
G75*
G02*
X97225000Y-96537500I0J87500D01*
G01*
G37*
G36*
G01*
X97625000Y-96537500D02*
X97625000Y-95137500D01*
G75*
G02*
X97712500Y-95050000I87500J0D01*
G01*
X97887500Y-95050000D01*
G75*
G02*
X97975000Y-95137500I0J-87500D01*
G01*
X97975000Y-96537500D01*
G75*
G02*
X97887500Y-96625000I-87500J0D01*
G01*
X97712500Y-96625000D01*
G75*
G02*
X97625000Y-96537500I0J87500D01*
G01*
G37*
G36*
G01*
X98025000Y-96537500D02*
X98025000Y-95137500D01*
G75*
G02*
X98112500Y-95050000I87500J0D01*
G01*
X98287500Y-95050000D01*
G75*
G02*
X98375000Y-95137500I0J-87500D01*
G01*
X98375000Y-96537500D01*
G75*
G02*
X98287500Y-96625000I-87500J0D01*
G01*
X98112500Y-96625000D01*
G75*
G02*
X98025000Y-96537500I0J87500D01*
G01*
G37*
G36*
G01*
X98425000Y-96537500D02*
X98425000Y-95137500D01*
G75*
G02*
X98512500Y-95050000I87500J0D01*
G01*
X98687500Y-95050000D01*
G75*
G02*
X98775000Y-95137500I0J-87500D01*
G01*
X98775000Y-96537500D01*
G75*
G02*
X98687500Y-96625000I-87500J0D01*
G01*
X98512500Y-96625000D01*
G75*
G02*
X98425000Y-96537500I0J87500D01*
G01*
G37*
G36*
G01*
X98825000Y-96537500D02*
X98825000Y-95137500D01*
G75*
G02*
X98912500Y-95050000I87500J0D01*
G01*
X99087500Y-95050000D01*
G75*
G02*
X99175000Y-95137500I0J-87500D01*
G01*
X99175000Y-96537500D01*
G75*
G02*
X99087500Y-96625000I-87500J0D01*
G01*
X98912500Y-96625000D01*
G75*
G02*
X98825000Y-96537500I0J87500D01*
G01*
G37*
G36*
G01*
X99225000Y-96537500D02*
X99225000Y-95137500D01*
G75*
G02*
X99312500Y-95050000I87500J0D01*
G01*
X99487500Y-95050000D01*
G75*
G02*
X99575000Y-95137500I0J-87500D01*
G01*
X99575000Y-96537500D01*
G75*
G02*
X99487500Y-96625000I-87500J0D01*
G01*
X99312500Y-96625000D01*
G75*
G02*
X99225000Y-96537500I0J87500D01*
G01*
G37*
G36*
G01*
X99625000Y-96537500D02*
X99625000Y-95137500D01*
G75*
G02*
X99712500Y-95050000I87500J0D01*
G01*
X99887500Y-95050000D01*
G75*
G02*
X99975000Y-95137500I0J-87500D01*
G01*
X99975000Y-96537500D01*
G75*
G02*
X99887500Y-96625000I-87500J0D01*
G01*
X99712500Y-96625000D01*
G75*
G02*
X99625000Y-96537500I0J87500D01*
G01*
G37*
G36*
G01*
X100025000Y-96537500D02*
X100025000Y-95137500D01*
G75*
G02*
X100112500Y-95050000I87500J0D01*
G01*
X100287500Y-95050000D01*
G75*
G02*
X100375000Y-95137500I0J-87500D01*
G01*
X100375000Y-96537500D01*
G75*
G02*
X100287500Y-96625000I-87500J0D01*
G01*
X100112500Y-96625000D01*
G75*
G02*
X100025000Y-96537500I0J87500D01*
G01*
G37*
G36*
G01*
X100425000Y-96537500D02*
X100425000Y-95137500D01*
G75*
G02*
X100512500Y-95050000I87500J0D01*
G01*
X100687500Y-95050000D01*
G75*
G02*
X100775000Y-95137500I0J-87500D01*
G01*
X100775000Y-96537500D01*
G75*
G02*
X100687500Y-96625000I-87500J0D01*
G01*
X100512500Y-96625000D01*
G75*
G02*
X100425000Y-96537500I0J87500D01*
G01*
G37*
G36*
G01*
X100825000Y-96537500D02*
X100825000Y-95137500D01*
G75*
G02*
X100912500Y-95050000I87500J0D01*
G01*
X101087500Y-95050000D01*
G75*
G02*
X101175000Y-95137500I0J-87500D01*
G01*
X101175000Y-96537500D01*
G75*
G02*
X101087500Y-96625000I-87500J0D01*
G01*
X100912500Y-96625000D01*
G75*
G02*
X100825000Y-96537500I0J87500D01*
G01*
G37*
G36*
G01*
X101225000Y-96537500D02*
X101225000Y-95137500D01*
G75*
G02*
X101312500Y-95050000I87500J0D01*
G01*
X101487500Y-95050000D01*
G75*
G02*
X101575000Y-95137500I0J-87500D01*
G01*
X101575000Y-96537500D01*
G75*
G02*
X101487500Y-96625000I-87500J0D01*
G01*
X101312500Y-96625000D01*
G75*
G02*
X101225000Y-96537500I0J87500D01*
G01*
G37*
G36*
G01*
X101625000Y-96537500D02*
X101625000Y-95137500D01*
G75*
G02*
X101712500Y-95050000I87500J0D01*
G01*
X101887500Y-95050000D01*
G75*
G02*
X101975000Y-95137500I0J-87500D01*
G01*
X101975000Y-96537500D01*
G75*
G02*
X101887500Y-96625000I-87500J0D01*
G01*
X101712500Y-96625000D01*
G75*
G02*
X101625000Y-96537500I0J87500D01*
G01*
G37*
G36*
G01*
X102025000Y-96537500D02*
X102025000Y-95137500D01*
G75*
G02*
X102112500Y-95050000I87500J0D01*
G01*
X102287500Y-95050000D01*
G75*
G02*
X102375000Y-95137500I0J-87500D01*
G01*
X102375000Y-96537500D01*
G75*
G02*
X102287500Y-96625000I-87500J0D01*
G01*
X102112500Y-96625000D01*
G75*
G02*
X102025000Y-96537500I0J87500D01*
G01*
G37*
G36*
G01*
X102425000Y-96537500D02*
X102425000Y-95137500D01*
G75*
G02*
X102512500Y-95050000I87500J0D01*
G01*
X102687500Y-95050000D01*
G75*
G02*
X102775000Y-95137500I0J-87500D01*
G01*
X102775000Y-96537500D01*
G75*
G02*
X102687500Y-96625000I-87500J0D01*
G01*
X102512500Y-96625000D01*
G75*
G02*
X102425000Y-96537500I0J87500D01*
G01*
G37*
G36*
G01*
X102825000Y-96537500D02*
X102825000Y-95137500D01*
G75*
G02*
X102912500Y-95050000I87500J0D01*
G01*
X103087500Y-95050000D01*
G75*
G02*
X103175000Y-95137500I0J-87500D01*
G01*
X103175000Y-96537500D01*
G75*
G02*
X103087500Y-96625000I-87500J0D01*
G01*
X102912500Y-96625000D01*
G75*
G02*
X102825000Y-96537500I0J87500D01*
G01*
G37*
G36*
G01*
X103375000Y-97087500D02*
X103375000Y-96912500D01*
G75*
G02*
X103462500Y-96825000I87500J0D01*
G01*
X104862500Y-96825000D01*
G75*
G02*
X104950000Y-96912500I0J-87500D01*
G01*
X104950000Y-97087500D01*
G75*
G02*
X104862500Y-97175000I-87500J0D01*
G01*
X103462500Y-97175000D01*
G75*
G02*
X103375000Y-97087500I0J87500D01*
G01*
G37*
G36*
G01*
X103375000Y-97487500D02*
X103375000Y-97312500D01*
G75*
G02*
X103462500Y-97225000I87500J0D01*
G01*
X104862500Y-97225000D01*
G75*
G02*
X104950000Y-97312500I0J-87500D01*
G01*
X104950000Y-97487500D01*
G75*
G02*
X104862500Y-97575000I-87500J0D01*
G01*
X103462500Y-97575000D01*
G75*
G02*
X103375000Y-97487500I0J87500D01*
G01*
G37*
G36*
G01*
X103375000Y-97887500D02*
X103375000Y-97712500D01*
G75*
G02*
X103462500Y-97625000I87500J0D01*
G01*
X104862500Y-97625000D01*
G75*
G02*
X104950000Y-97712500I0J-87500D01*
G01*
X104950000Y-97887500D01*
G75*
G02*
X104862500Y-97975000I-87500J0D01*
G01*
X103462500Y-97975000D01*
G75*
G02*
X103375000Y-97887500I0J87500D01*
G01*
G37*
G36*
G01*
X103375000Y-98287500D02*
X103375000Y-98112500D01*
G75*
G02*
X103462500Y-98025000I87500J0D01*
G01*
X104862500Y-98025000D01*
G75*
G02*
X104950000Y-98112500I0J-87500D01*
G01*
X104950000Y-98287500D01*
G75*
G02*
X104862500Y-98375000I-87500J0D01*
G01*
X103462500Y-98375000D01*
G75*
G02*
X103375000Y-98287500I0J87500D01*
G01*
G37*
G36*
G01*
X103375000Y-98687500D02*
X103375000Y-98512500D01*
G75*
G02*
X103462500Y-98425000I87500J0D01*
G01*
X104862500Y-98425000D01*
G75*
G02*
X104950000Y-98512500I0J-87500D01*
G01*
X104950000Y-98687500D01*
G75*
G02*
X104862500Y-98775000I-87500J0D01*
G01*
X103462500Y-98775000D01*
G75*
G02*
X103375000Y-98687500I0J87500D01*
G01*
G37*
G36*
G01*
X103375000Y-99087500D02*
X103375000Y-98912500D01*
G75*
G02*
X103462500Y-98825000I87500J0D01*
G01*
X104862500Y-98825000D01*
G75*
G02*
X104950000Y-98912500I0J-87500D01*
G01*
X104950000Y-99087500D01*
G75*
G02*
X104862500Y-99175000I-87500J0D01*
G01*
X103462500Y-99175000D01*
G75*
G02*
X103375000Y-99087500I0J87500D01*
G01*
G37*
G36*
G01*
X103375000Y-99487500D02*
X103375000Y-99312500D01*
G75*
G02*
X103462500Y-99225000I87500J0D01*
G01*
X104862500Y-99225000D01*
G75*
G02*
X104950000Y-99312500I0J-87500D01*
G01*
X104950000Y-99487500D01*
G75*
G02*
X104862500Y-99575000I-87500J0D01*
G01*
X103462500Y-99575000D01*
G75*
G02*
X103375000Y-99487500I0J87500D01*
G01*
G37*
G36*
G01*
X103375000Y-99887500D02*
X103375000Y-99712500D01*
G75*
G02*
X103462500Y-99625000I87500J0D01*
G01*
X104862500Y-99625000D01*
G75*
G02*
X104950000Y-99712500I0J-87500D01*
G01*
X104950000Y-99887500D01*
G75*
G02*
X104862500Y-99975000I-87500J0D01*
G01*
X103462500Y-99975000D01*
G75*
G02*
X103375000Y-99887500I0J87500D01*
G01*
G37*
G36*
G01*
X103375000Y-100287500D02*
X103375000Y-100112500D01*
G75*
G02*
X103462500Y-100025000I87500J0D01*
G01*
X104862500Y-100025000D01*
G75*
G02*
X104950000Y-100112500I0J-87500D01*
G01*
X104950000Y-100287500D01*
G75*
G02*
X104862500Y-100375000I-87500J0D01*
G01*
X103462500Y-100375000D01*
G75*
G02*
X103375000Y-100287500I0J87500D01*
G01*
G37*
G36*
G01*
X103375000Y-100687500D02*
X103375000Y-100512500D01*
G75*
G02*
X103462500Y-100425000I87500J0D01*
G01*
X104862500Y-100425000D01*
G75*
G02*
X104950000Y-100512500I0J-87500D01*
G01*
X104950000Y-100687500D01*
G75*
G02*
X104862500Y-100775000I-87500J0D01*
G01*
X103462500Y-100775000D01*
G75*
G02*
X103375000Y-100687500I0J87500D01*
G01*
G37*
G36*
G01*
X103375000Y-101087500D02*
X103375000Y-100912500D01*
G75*
G02*
X103462500Y-100825000I87500J0D01*
G01*
X104862500Y-100825000D01*
G75*
G02*
X104950000Y-100912500I0J-87500D01*
G01*
X104950000Y-101087500D01*
G75*
G02*
X104862500Y-101175000I-87500J0D01*
G01*
X103462500Y-101175000D01*
G75*
G02*
X103375000Y-101087500I0J87500D01*
G01*
G37*
G36*
G01*
X103375000Y-101487500D02*
X103375000Y-101312500D01*
G75*
G02*
X103462500Y-101225000I87500J0D01*
G01*
X104862500Y-101225000D01*
G75*
G02*
X104950000Y-101312500I0J-87500D01*
G01*
X104950000Y-101487500D01*
G75*
G02*
X104862500Y-101575000I-87500J0D01*
G01*
X103462500Y-101575000D01*
G75*
G02*
X103375000Y-101487500I0J87500D01*
G01*
G37*
G36*
G01*
X103375000Y-101887500D02*
X103375000Y-101712500D01*
G75*
G02*
X103462500Y-101625000I87500J0D01*
G01*
X104862500Y-101625000D01*
G75*
G02*
X104950000Y-101712500I0J-87500D01*
G01*
X104950000Y-101887500D01*
G75*
G02*
X104862500Y-101975000I-87500J0D01*
G01*
X103462500Y-101975000D01*
G75*
G02*
X103375000Y-101887500I0J87500D01*
G01*
G37*
G36*
G01*
X103375000Y-102287500D02*
X103375000Y-102112500D01*
G75*
G02*
X103462500Y-102025000I87500J0D01*
G01*
X104862500Y-102025000D01*
G75*
G02*
X104950000Y-102112500I0J-87500D01*
G01*
X104950000Y-102287500D01*
G75*
G02*
X104862500Y-102375000I-87500J0D01*
G01*
X103462500Y-102375000D01*
G75*
G02*
X103375000Y-102287500I0J87500D01*
G01*
G37*
G36*
G01*
X103375000Y-102687500D02*
X103375000Y-102512500D01*
G75*
G02*
X103462500Y-102425000I87500J0D01*
G01*
X104862500Y-102425000D01*
G75*
G02*
X104950000Y-102512500I0J-87500D01*
G01*
X104950000Y-102687500D01*
G75*
G02*
X104862500Y-102775000I-87500J0D01*
G01*
X103462500Y-102775000D01*
G75*
G02*
X103375000Y-102687500I0J87500D01*
G01*
G37*
G36*
G01*
X103375000Y-103087500D02*
X103375000Y-102912500D01*
G75*
G02*
X103462500Y-102825000I87500J0D01*
G01*
X104862500Y-102825000D01*
G75*
G02*
X104950000Y-102912500I0J-87500D01*
G01*
X104950000Y-103087500D01*
G75*
G02*
X104862500Y-103175000I-87500J0D01*
G01*
X103462500Y-103175000D01*
G75*
G02*
X103375000Y-103087500I0J87500D01*
G01*
G37*
G36*
G01*
X102825000Y-104862500D02*
X102825000Y-103462500D01*
G75*
G02*
X102912500Y-103375000I87500J0D01*
G01*
X103087500Y-103375000D01*
G75*
G02*
X103175000Y-103462500I0J-87500D01*
G01*
X103175000Y-104862500D01*
G75*
G02*
X103087500Y-104950000I-87500J0D01*
G01*
X102912500Y-104950000D01*
G75*
G02*
X102825000Y-104862500I0J87500D01*
G01*
G37*
G36*
G01*
X102425000Y-104862500D02*
X102425000Y-103462500D01*
G75*
G02*
X102512500Y-103375000I87500J0D01*
G01*
X102687500Y-103375000D01*
G75*
G02*
X102775000Y-103462500I0J-87500D01*
G01*
X102775000Y-104862500D01*
G75*
G02*
X102687500Y-104950000I-87500J0D01*
G01*
X102512500Y-104950000D01*
G75*
G02*
X102425000Y-104862500I0J87500D01*
G01*
G37*
G36*
G01*
X102025000Y-104862500D02*
X102025000Y-103462500D01*
G75*
G02*
X102112500Y-103375000I87500J0D01*
G01*
X102287500Y-103375000D01*
G75*
G02*
X102375000Y-103462500I0J-87500D01*
G01*
X102375000Y-104862500D01*
G75*
G02*
X102287500Y-104950000I-87500J0D01*
G01*
X102112500Y-104950000D01*
G75*
G02*
X102025000Y-104862500I0J87500D01*
G01*
G37*
G36*
G01*
X101625000Y-104862500D02*
X101625000Y-103462500D01*
G75*
G02*
X101712500Y-103375000I87500J0D01*
G01*
X101887500Y-103375000D01*
G75*
G02*
X101975000Y-103462500I0J-87500D01*
G01*
X101975000Y-104862500D01*
G75*
G02*
X101887500Y-104950000I-87500J0D01*
G01*
X101712500Y-104950000D01*
G75*
G02*
X101625000Y-104862500I0J87500D01*
G01*
G37*
G36*
G01*
X101225000Y-104862500D02*
X101225000Y-103462500D01*
G75*
G02*
X101312500Y-103375000I87500J0D01*
G01*
X101487500Y-103375000D01*
G75*
G02*
X101575000Y-103462500I0J-87500D01*
G01*
X101575000Y-104862500D01*
G75*
G02*
X101487500Y-104950000I-87500J0D01*
G01*
X101312500Y-104950000D01*
G75*
G02*
X101225000Y-104862500I0J87500D01*
G01*
G37*
G36*
G01*
X100825000Y-104862500D02*
X100825000Y-103462500D01*
G75*
G02*
X100912500Y-103375000I87500J0D01*
G01*
X101087500Y-103375000D01*
G75*
G02*
X101175000Y-103462500I0J-87500D01*
G01*
X101175000Y-104862500D01*
G75*
G02*
X101087500Y-104950000I-87500J0D01*
G01*
X100912500Y-104950000D01*
G75*
G02*
X100825000Y-104862500I0J87500D01*
G01*
G37*
G36*
G01*
X100425000Y-104862500D02*
X100425000Y-103462500D01*
G75*
G02*
X100512500Y-103375000I87500J0D01*
G01*
X100687500Y-103375000D01*
G75*
G02*
X100775000Y-103462500I0J-87500D01*
G01*
X100775000Y-104862500D01*
G75*
G02*
X100687500Y-104950000I-87500J0D01*
G01*
X100512500Y-104950000D01*
G75*
G02*
X100425000Y-104862500I0J87500D01*
G01*
G37*
G36*
G01*
X100025000Y-104862500D02*
X100025000Y-103462500D01*
G75*
G02*
X100112500Y-103375000I87500J0D01*
G01*
X100287500Y-103375000D01*
G75*
G02*
X100375000Y-103462500I0J-87500D01*
G01*
X100375000Y-104862500D01*
G75*
G02*
X100287500Y-104950000I-87500J0D01*
G01*
X100112500Y-104950000D01*
G75*
G02*
X100025000Y-104862500I0J87500D01*
G01*
G37*
G36*
G01*
X99625000Y-104862500D02*
X99625000Y-103462500D01*
G75*
G02*
X99712500Y-103375000I87500J0D01*
G01*
X99887500Y-103375000D01*
G75*
G02*
X99975000Y-103462500I0J-87500D01*
G01*
X99975000Y-104862500D01*
G75*
G02*
X99887500Y-104950000I-87500J0D01*
G01*
X99712500Y-104950000D01*
G75*
G02*
X99625000Y-104862500I0J87500D01*
G01*
G37*
G36*
G01*
X99225000Y-104862500D02*
X99225000Y-103462500D01*
G75*
G02*
X99312500Y-103375000I87500J0D01*
G01*
X99487500Y-103375000D01*
G75*
G02*
X99575000Y-103462500I0J-87500D01*
G01*
X99575000Y-104862500D01*
G75*
G02*
X99487500Y-104950000I-87500J0D01*
G01*
X99312500Y-104950000D01*
G75*
G02*
X99225000Y-104862500I0J87500D01*
G01*
G37*
G36*
G01*
X98825000Y-104862500D02*
X98825000Y-103462500D01*
G75*
G02*
X98912500Y-103375000I87500J0D01*
G01*
X99087500Y-103375000D01*
G75*
G02*
X99175000Y-103462500I0J-87500D01*
G01*
X99175000Y-104862500D01*
G75*
G02*
X99087500Y-104950000I-87500J0D01*
G01*
X98912500Y-104950000D01*
G75*
G02*
X98825000Y-104862500I0J87500D01*
G01*
G37*
G36*
G01*
X98425000Y-104862500D02*
X98425000Y-103462500D01*
G75*
G02*
X98512500Y-103375000I87500J0D01*
G01*
X98687500Y-103375000D01*
G75*
G02*
X98775000Y-103462500I0J-87500D01*
G01*
X98775000Y-104862500D01*
G75*
G02*
X98687500Y-104950000I-87500J0D01*
G01*
X98512500Y-104950000D01*
G75*
G02*
X98425000Y-104862500I0J87500D01*
G01*
G37*
G36*
G01*
X98025000Y-104862500D02*
X98025000Y-103462500D01*
G75*
G02*
X98112500Y-103375000I87500J0D01*
G01*
X98287500Y-103375000D01*
G75*
G02*
X98375000Y-103462500I0J-87500D01*
G01*
X98375000Y-104862500D01*
G75*
G02*
X98287500Y-104950000I-87500J0D01*
G01*
X98112500Y-104950000D01*
G75*
G02*
X98025000Y-104862500I0J87500D01*
G01*
G37*
G36*
G01*
X97625000Y-104862500D02*
X97625000Y-103462500D01*
G75*
G02*
X97712500Y-103375000I87500J0D01*
G01*
X97887500Y-103375000D01*
G75*
G02*
X97975000Y-103462500I0J-87500D01*
G01*
X97975000Y-104862500D01*
G75*
G02*
X97887500Y-104950000I-87500J0D01*
G01*
X97712500Y-104950000D01*
G75*
G02*
X97625000Y-104862500I0J87500D01*
G01*
G37*
G36*
G01*
X97225000Y-104862500D02*
X97225000Y-103462500D01*
G75*
G02*
X97312500Y-103375000I87500J0D01*
G01*
X97487500Y-103375000D01*
G75*
G02*
X97575000Y-103462500I0J-87500D01*
G01*
X97575000Y-104862500D01*
G75*
G02*
X97487500Y-104950000I-87500J0D01*
G01*
X97312500Y-104950000D01*
G75*
G02*
X97225000Y-104862500I0J87500D01*
G01*
G37*
G36*
G01*
X96825000Y-104862500D02*
X96825000Y-103462500D01*
G75*
G02*
X96912500Y-103375000I87500J0D01*
G01*
X97087500Y-103375000D01*
G75*
G02*
X97175000Y-103462500I0J-87500D01*
G01*
X97175000Y-104862500D01*
G75*
G02*
X97087500Y-104950000I-87500J0D01*
G01*
X96912500Y-104950000D01*
G75*
G02*
X96825000Y-104862500I0J87500D01*
G01*
G37*
G36*
G01*
X95050000Y-103087500D02*
X95050000Y-102912500D01*
G75*
G02*
X95137500Y-102825000I87500J0D01*
G01*
X96537500Y-102825000D01*
G75*
G02*
X96625000Y-102912500I0J-87500D01*
G01*
X96625000Y-103087500D01*
G75*
G02*
X96537500Y-103175000I-87500J0D01*
G01*
X95137500Y-103175000D01*
G75*
G02*
X95050000Y-103087500I0J87500D01*
G01*
G37*
G36*
G01*
X95050000Y-102687500D02*
X95050000Y-102512500D01*
G75*
G02*
X95137500Y-102425000I87500J0D01*
G01*
X96537500Y-102425000D01*
G75*
G02*
X96625000Y-102512500I0J-87500D01*
G01*
X96625000Y-102687500D01*
G75*
G02*
X96537500Y-102775000I-87500J0D01*
G01*
X95137500Y-102775000D01*
G75*
G02*
X95050000Y-102687500I0J87500D01*
G01*
G37*
G36*
G01*
X95050000Y-102287500D02*
X95050000Y-102112500D01*
G75*
G02*
X95137500Y-102025000I87500J0D01*
G01*
X96537500Y-102025000D01*
G75*
G02*
X96625000Y-102112500I0J-87500D01*
G01*
X96625000Y-102287500D01*
G75*
G02*
X96537500Y-102375000I-87500J0D01*
G01*
X95137500Y-102375000D01*
G75*
G02*
X95050000Y-102287500I0J87500D01*
G01*
G37*
G36*
G01*
X95050000Y-101887500D02*
X95050000Y-101712500D01*
G75*
G02*
X95137500Y-101625000I87500J0D01*
G01*
X96537500Y-101625000D01*
G75*
G02*
X96625000Y-101712500I0J-87500D01*
G01*
X96625000Y-101887500D01*
G75*
G02*
X96537500Y-101975000I-87500J0D01*
G01*
X95137500Y-101975000D01*
G75*
G02*
X95050000Y-101887500I0J87500D01*
G01*
G37*
G36*
G01*
X95050000Y-101487500D02*
X95050000Y-101312500D01*
G75*
G02*
X95137500Y-101225000I87500J0D01*
G01*
X96537500Y-101225000D01*
G75*
G02*
X96625000Y-101312500I0J-87500D01*
G01*
X96625000Y-101487500D01*
G75*
G02*
X96537500Y-101575000I-87500J0D01*
G01*
X95137500Y-101575000D01*
G75*
G02*
X95050000Y-101487500I0J87500D01*
G01*
G37*
G36*
G01*
X95050000Y-101087500D02*
X95050000Y-100912500D01*
G75*
G02*
X95137500Y-100825000I87500J0D01*
G01*
X96537500Y-100825000D01*
G75*
G02*
X96625000Y-100912500I0J-87500D01*
G01*
X96625000Y-101087500D01*
G75*
G02*
X96537500Y-101175000I-87500J0D01*
G01*
X95137500Y-101175000D01*
G75*
G02*
X95050000Y-101087500I0J87500D01*
G01*
G37*
G36*
G01*
X95050000Y-100687500D02*
X95050000Y-100512500D01*
G75*
G02*
X95137500Y-100425000I87500J0D01*
G01*
X96537500Y-100425000D01*
G75*
G02*
X96625000Y-100512500I0J-87500D01*
G01*
X96625000Y-100687500D01*
G75*
G02*
X96537500Y-100775000I-87500J0D01*
G01*
X95137500Y-100775000D01*
G75*
G02*
X95050000Y-100687500I0J87500D01*
G01*
G37*
G36*
G01*
X95050000Y-100287500D02*
X95050000Y-100112500D01*
G75*
G02*
X95137500Y-100025000I87500J0D01*
G01*
X96537500Y-100025000D01*
G75*
G02*
X96625000Y-100112500I0J-87500D01*
G01*
X96625000Y-100287500D01*
G75*
G02*
X96537500Y-100375000I-87500J0D01*
G01*
X95137500Y-100375000D01*
G75*
G02*
X95050000Y-100287500I0J87500D01*
G01*
G37*
G36*
G01*
X95050000Y-99887500D02*
X95050000Y-99712500D01*
G75*
G02*
X95137500Y-99625000I87500J0D01*
G01*
X96537500Y-99625000D01*
G75*
G02*
X96625000Y-99712500I0J-87500D01*
G01*
X96625000Y-99887500D01*
G75*
G02*
X96537500Y-99975000I-87500J0D01*
G01*
X95137500Y-99975000D01*
G75*
G02*
X95050000Y-99887500I0J87500D01*
G01*
G37*
G36*
G01*
X95050000Y-99487500D02*
X95050000Y-99312500D01*
G75*
G02*
X95137500Y-99225000I87500J0D01*
G01*
X96537500Y-99225000D01*
G75*
G02*
X96625000Y-99312500I0J-87500D01*
G01*
X96625000Y-99487500D01*
G75*
G02*
X96537500Y-99575000I-87500J0D01*
G01*
X95137500Y-99575000D01*
G75*
G02*
X95050000Y-99487500I0J87500D01*
G01*
G37*
G36*
G01*
X95050000Y-99087500D02*
X95050000Y-98912500D01*
G75*
G02*
X95137500Y-98825000I87500J0D01*
G01*
X96537500Y-98825000D01*
G75*
G02*
X96625000Y-98912500I0J-87500D01*
G01*
X96625000Y-99087500D01*
G75*
G02*
X96537500Y-99175000I-87500J0D01*
G01*
X95137500Y-99175000D01*
G75*
G02*
X95050000Y-99087500I0J87500D01*
G01*
G37*
G36*
G01*
X95050000Y-98687500D02*
X95050000Y-98512500D01*
G75*
G02*
X95137500Y-98425000I87500J0D01*
G01*
X96537500Y-98425000D01*
G75*
G02*
X96625000Y-98512500I0J-87500D01*
G01*
X96625000Y-98687500D01*
G75*
G02*
X96537500Y-98775000I-87500J0D01*
G01*
X95137500Y-98775000D01*
G75*
G02*
X95050000Y-98687500I0J87500D01*
G01*
G37*
G36*
G01*
X95050000Y-98287500D02*
X95050000Y-98112500D01*
G75*
G02*
X95137500Y-98025000I87500J0D01*
G01*
X96537500Y-98025000D01*
G75*
G02*
X96625000Y-98112500I0J-87500D01*
G01*
X96625000Y-98287500D01*
G75*
G02*
X96537500Y-98375000I-87500J0D01*
G01*
X95137500Y-98375000D01*
G75*
G02*
X95050000Y-98287500I0J87500D01*
G01*
G37*
G36*
G01*
X95050000Y-97887500D02*
X95050000Y-97712500D01*
G75*
G02*
X95137500Y-97625000I87500J0D01*
G01*
X96537500Y-97625000D01*
G75*
G02*
X96625000Y-97712500I0J-87500D01*
G01*
X96625000Y-97887500D01*
G75*
G02*
X96537500Y-97975000I-87500J0D01*
G01*
X95137500Y-97975000D01*
G75*
G02*
X95050000Y-97887500I0J87500D01*
G01*
G37*
G36*
G01*
X95050000Y-97487500D02*
X95050000Y-97312500D01*
G75*
G02*
X95137500Y-97225000I87500J0D01*
G01*
X96537500Y-97225000D01*
G75*
G02*
X96625000Y-97312500I0J-87500D01*
G01*
X96625000Y-97487500D01*
G75*
G02*
X96537500Y-97575000I-87500J0D01*
G01*
X95137500Y-97575000D01*
G75*
G02*
X95050000Y-97487500I0J87500D01*
G01*
G37*
G36*
G01*
X95050000Y-97087500D02*
X95050000Y-96912500D01*
G75*
G02*
X95137500Y-96825000I87500J0D01*
G01*
X96537500Y-96825000D01*
G75*
G02*
X96625000Y-96912500I0J-87500D01*
G01*
X96625000Y-97087500D01*
G75*
G02*
X96537500Y-97175000I-87500J0D01*
G01*
X95137500Y-97175000D01*
G75*
G02*
X95050000Y-97087500I0J87500D01*
G01*
G37*
G36*
G01*
X120550000Y-85284375D02*
X120550000Y-84115625D01*
G75*
G02*
X120815625Y-83850000I265625J0D01*
G01*
X123384375Y-83850000D01*
G75*
G02*
X123650000Y-84115625I0J-265625D01*
G01*
X123650000Y-85284375D01*
G75*
G02*
X123384375Y-85550000I-265625J0D01*
G01*
X120815625Y-85550000D01*
G75*
G02*
X120550000Y-85284375I0J265625D01*
G01*
G37*
G36*
G01*
X116150000Y-85284375D02*
X116150000Y-84115625D01*
G75*
G02*
X116415625Y-83850000I265625J0D01*
G01*
X118984375Y-83850000D01*
G75*
G02*
X119250000Y-84115625I0J-265625D01*
G01*
X119250000Y-85284375D01*
G75*
G02*
X118984375Y-85550000I-265625J0D01*
G01*
X116415625Y-85550000D01*
G75*
G02*
X116150000Y-85284375I0J265625D01*
G01*
G37*
G36*
G01*
X68715625Y-122150000D02*
X69884375Y-122150000D01*
G75*
G02*
X70150000Y-122415625I0J-265625D01*
G01*
X70150000Y-124984375D01*
G75*
G02*
X69884375Y-125250000I-265625J0D01*
G01*
X68715625Y-125250000D01*
G75*
G02*
X68450000Y-124984375I0J265625D01*
G01*
X68450000Y-122415625D01*
G75*
G02*
X68715625Y-122150000I265625J0D01*
G01*
G37*
G36*
G01*
X68715625Y-117750000D02*
X69884375Y-117750000D01*
G75*
G02*
X70150000Y-118015625I0J-265625D01*
G01*
X70150000Y-120584375D01*
G75*
G02*
X69884375Y-120850000I-265625J0D01*
G01*
X68715625Y-120850000D01*
G75*
G02*
X68450000Y-120584375I0J265625D01*
G01*
X68450000Y-118015625D01*
G75*
G02*
X68715625Y-117750000I265625J0D01*
G01*
G37*
G36*
G01*
X118815625Y-119150000D02*
X119984375Y-119150000D01*
G75*
G02*
X120250000Y-119415625I0J-265625D01*
G01*
X120250000Y-121984375D01*
G75*
G02*
X119984375Y-122250000I-265625J0D01*
G01*
X118815625Y-122250000D01*
G75*
G02*
X118550000Y-121984375I0J265625D01*
G01*
X118550000Y-119415625D01*
G75*
G02*
X118815625Y-119150000I265625J0D01*
G01*
G37*
G36*
G01*
X118815625Y-114750000D02*
X119984375Y-114750000D01*
G75*
G02*
X120250000Y-115015625I0J-265625D01*
G01*
X120250000Y-117584375D01*
G75*
G02*
X119984375Y-117850000I-265625J0D01*
G01*
X118815625Y-117850000D01*
G75*
G02*
X118550000Y-117584375I0J265625D01*
G01*
X118550000Y-115015625D01*
G75*
G02*
X118815625Y-114750000I265625J0D01*
G01*
G37*
D12*
X130000000Y-130000000D03*
X130000000Y-70000000D03*
X70000000Y-130000000D03*
X70000000Y-70000000D03*
D13*
X80665000Y-121040000D03*
X80665000Y-119770000D03*
X80665000Y-118500000D03*
X80665000Y-117230000D03*
X80665000Y-115960000D03*
X81935000Y-115960000D03*
X81935000Y-117230000D03*
X81935000Y-118500000D03*
X81935000Y-119770000D03*
X81935000Y-121040000D03*
D14*
X81300000Y-122310000D03*
X82316000Y-114690000D03*
X80284000Y-114690000D03*
D15*
X83320000Y-127700000D03*
X80780000Y-127700000D03*
X78240000Y-127700000D03*
D16*
X75700000Y-127700000D03*
D15*
X91120000Y-82440000D03*
X91120000Y-79900000D03*
X93660000Y-82440000D03*
X93660000Y-79900000D03*
X96200000Y-82440000D03*
X96200000Y-79900000D03*
X98740000Y-82440000D03*
X98740000Y-79900000D03*
X101280000Y-82440000D03*
X101280000Y-79900000D03*
X103820000Y-82440000D03*
X103820000Y-79900000D03*
X106360000Y-82440000D03*
X106360000Y-79900000D03*
X108900000Y-82440000D03*
D16*
X108900000Y-79900000D03*
D15*
X117560000Y-91120000D03*
X120100000Y-91120000D03*
X117560000Y-93660000D03*
X120100000Y-93660000D03*
X117560000Y-96200000D03*
X120100000Y-96200000D03*
X117560000Y-98740000D03*
X120100000Y-98740000D03*
X117560000Y-101280000D03*
X120100000Y-101280000D03*
X117560000Y-103820000D03*
X120100000Y-103820000D03*
X117560000Y-106360000D03*
X120100000Y-106360000D03*
X117560000Y-108900000D03*
D16*
X120100000Y-108900000D03*
D15*
X108880000Y-117560000D03*
X108880000Y-120100000D03*
X106340000Y-117560000D03*
X106340000Y-120100000D03*
X103800000Y-117560000D03*
X103800000Y-120100000D03*
X101260000Y-117560000D03*
X101260000Y-120100000D03*
X98720000Y-117560000D03*
X98720000Y-120100000D03*
X96180000Y-117560000D03*
X96180000Y-120100000D03*
X93640000Y-117560000D03*
X93640000Y-120100000D03*
X91100000Y-117560000D03*
D16*
X91100000Y-120100000D03*
D15*
X82440000Y-108880000D03*
X79900000Y-108880000D03*
X82440000Y-106340000D03*
X79900000Y-106340000D03*
X82440000Y-103800000D03*
X79900000Y-103800000D03*
X82440000Y-101260000D03*
X79900000Y-101260000D03*
X82440000Y-98720000D03*
X79900000Y-98720000D03*
X82440000Y-96180000D03*
X79900000Y-96180000D03*
X82440000Y-93640000D03*
X79900000Y-93640000D03*
X82440000Y-91100000D03*
D16*
X79900000Y-91100000D03*
D17*
X82400000Y-80950000D03*
X83350000Y-80950000D03*
X81450000Y-80950000D03*
X81450000Y-78250000D03*
X82400000Y-78250000D03*
X83350000Y-78250000D03*
G36*
G01*
X74200000Y-120937500D02*
X74200000Y-121462500D01*
G75*
G02*
X73937500Y-121725000I-262500J0D01*
G01*
X73312500Y-121725000D01*
G75*
G02*
X73050000Y-121462500I0J262500D01*
G01*
X73050000Y-120937500D01*
G75*
G02*
X73312500Y-120675000I262500J0D01*
G01*
X73937500Y-120675000D01*
G75*
G02*
X74200000Y-120937500I0J-262500D01*
G01*
G37*
G36*
G01*
X75950000Y-120937500D02*
X75950000Y-121462500D01*
G75*
G02*
X75687500Y-121725000I-262500J0D01*
G01*
X75062500Y-121725000D01*
G75*
G02*
X74800000Y-121462500I0J262500D01*
G01*
X74800000Y-120937500D01*
G75*
G02*
X75062500Y-120675000I262500J0D01*
G01*
X75687500Y-120675000D01*
G75*
G02*
X75950000Y-120937500I0J-262500D01*
G01*
G37*
G36*
G01*
X85762500Y-116200000D02*
X85237500Y-116200000D01*
G75*
G02*
X84975000Y-115937500I0J262500D01*
G01*
X84975000Y-115312500D01*
G75*
G02*
X85237500Y-115050000I262500J0D01*
G01*
X85762500Y-115050000D01*
G75*
G02*
X86025000Y-115312500I0J-262500D01*
G01*
X86025000Y-115937500D01*
G75*
G02*
X85762500Y-116200000I-262500J0D01*
G01*
G37*
G36*
G01*
X85762500Y-117950000D02*
X85237500Y-117950000D01*
G75*
G02*
X84975000Y-117687500I0J262500D01*
G01*
X84975000Y-117062500D01*
G75*
G02*
X85237500Y-116800000I262500J0D01*
G01*
X85762500Y-116800000D01*
G75*
G02*
X86025000Y-117062500I0J-262500D01*
G01*
X86025000Y-117687500D01*
G75*
G02*
X85762500Y-117950000I-262500J0D01*
G01*
G37*
D15*
X80160000Y-68760000D03*
X82700000Y-68760000D03*
X80160000Y-71300000D03*
D16*
X82700000Y-71300000D03*
D15*
X114800000Y-78060000D03*
D16*
X114800000Y-80600000D03*
D15*
X69200000Y-111560000D03*
D16*
X69200000Y-114100000D03*
D15*
X126000000Y-113960000D03*
D16*
X126000000Y-116500000D03*
G36*
G01*
X80242544Y-85325000D02*
X81557456Y-85325000D01*
G75*
G02*
X81825000Y-85592544I0J-267544D01*
G01*
X81825000Y-86582456D01*
G75*
G02*
X81557456Y-86850000I-267544J0D01*
G01*
X80242544Y-86850000D01*
G75*
G02*
X79975000Y-86582456I0J267544D01*
G01*
X79975000Y-85592544D01*
G75*
G02*
X80242544Y-85325000I267544J0D01*
G01*
G37*
G36*
G01*
X80242544Y-82350000D02*
X81557456Y-82350000D01*
G75*
G02*
X81825000Y-82617544I0J-267544D01*
G01*
X81825000Y-83607456D01*
G75*
G02*
X81557456Y-83875000I-267544J0D01*
G01*
X80242544Y-83875000D01*
G75*
G02*
X79975000Y-83607456I0J267544D01*
G01*
X79975000Y-82617544D01*
G75*
G02*
X80242544Y-82350000I267544J0D01*
G01*
G37*
G36*
G01*
X83242544Y-85337500D02*
X84557456Y-85337500D01*
G75*
G02*
X84825000Y-85605044I0J-267544D01*
G01*
X84825000Y-86594956D01*
G75*
G02*
X84557456Y-86862500I-267544J0D01*
G01*
X83242544Y-86862500D01*
G75*
G02*
X82975000Y-86594956I0J267544D01*
G01*
X82975000Y-85605044D01*
G75*
G02*
X83242544Y-85337500I267544J0D01*
G01*
G37*
G36*
G01*
X83242544Y-82362500D02*
X84557456Y-82362500D01*
G75*
G02*
X84825000Y-82630044I0J-267544D01*
G01*
X84825000Y-83619956D01*
G75*
G02*
X84557456Y-83887500I-267544J0D01*
G01*
X83242544Y-83887500D01*
G75*
G02*
X82975000Y-83619956I0J267544D01*
G01*
X82975000Y-82630044D01*
G75*
G02*
X83242544Y-82362500I267544J0D01*
G01*
G37*
G36*
G01*
X84637500Y-76557456D02*
X84637500Y-75242544D01*
G75*
G02*
X84905044Y-74975000I267544J0D01*
G01*
X85894956Y-74975000D01*
G75*
G02*
X86162500Y-75242544I0J-267544D01*
G01*
X86162500Y-76557456D01*
G75*
G02*
X85894956Y-76825000I-267544J0D01*
G01*
X84905044Y-76825000D01*
G75*
G02*
X84637500Y-76557456I0J267544D01*
G01*
G37*
G36*
G01*
X81662500Y-76557456D02*
X81662500Y-75242544D01*
G75*
G02*
X81930044Y-74975000I267544J0D01*
G01*
X82919956Y-74975000D01*
G75*
G02*
X83187500Y-75242544I0J-267544D01*
G01*
X83187500Y-76557456D01*
G75*
G02*
X82919956Y-76825000I-267544J0D01*
G01*
X81930044Y-76825000D01*
G75*
G02*
X81662500Y-76557456I0J267544D01*
G01*
G37*
G36*
G01*
X74500000Y-77615625D02*
X74500000Y-78784375D01*
G75*
G02*
X74234375Y-79050000I-265625J0D01*
G01*
X71165625Y-79050000D01*
G75*
G02*
X70900000Y-78784375I0J265625D01*
G01*
X70900000Y-77615625D01*
G75*
G02*
X71165625Y-77350000I265625J0D01*
G01*
X74234375Y-77350000D01*
G75*
G02*
X74500000Y-77615625I0J-265625D01*
G01*
G37*
G36*
G01*
X79900000Y-77615625D02*
X79900000Y-78784375D01*
G75*
G02*
X79634375Y-79050000I-265625J0D01*
G01*
X76565625Y-79050000D01*
G75*
G02*
X76300000Y-78784375I0J265625D01*
G01*
X76300000Y-77615625D01*
G75*
G02*
X76565625Y-77350000I265625J0D01*
G01*
X79634375Y-77350000D01*
G75*
G02*
X79900000Y-77615625I0J-265625D01*
G01*
G37*
M02*
