M48
; DRILL file {KiCad 5.1.6-c6e7f7d~87~ubuntu20.04.1} date Thu Jul 16 23:52:12 2020
; FORMAT={-:-/ absolute / inch / decimal}
; #@! TF.CreationDate,2020-07-16T23:52:12+03:00
; #@! TF.GenerationSoftware,Kicad,Pcbnew,5.1.6-c6e7f7d~87~ubuntu20.04.1
; #@! TF.FileFunction,Plated,1,2,PTH
FMAT,2
INCH
T1C0.0157
T2C0.0394
%
G90
G05
T1
X2.6339Y-4.1024
X2.685Y-3.4173
X2.7283Y-4.9606
X2.7992Y-3.7835
X2.8543Y-4.9606
X2.8622Y-3.0236
X2.8622Y-3.1339
X2.8701Y-3.3386
X2.9252Y-4.9291
X2.937Y-2.6732
X3.0079Y-2.8346
X3.0157Y-4.8819
X3.0236Y-4.9291
X3.0276Y-5.1024
X3.0472Y-4.4606
X3.0512Y-4.0354
X3.0512Y-4.2323
X3.0551Y-3.6339
X3.0551Y-3.8346
X3.0669Y-4.8858
X3.0861Y-3.2721
X3.122Y-3.3898
X3.1575Y-2.937
X3.2441Y-3.2441
X3.3189Y-4.3937
X3.3543Y-4.7165
X3.3543Y-4.7677
X3.3583Y-5.1339
X3.3622Y-2.9252
X3.3622Y-3.0512
X3.3661Y-3.3898
X3.3661Y-4.3425
X3.3937Y-4.9055
X3.4094Y-4.9921
X3.4134Y-4.622
X3.4213Y-4.4921
X3.4646Y-4.4488
X3.4646Y-4.6575
X3.4646Y-4.7717
X3.4724Y-3.2559
X3.4961Y-3.4882
X3.5551Y-3.5472
X3.6024Y-4.3031
X3.6063Y-5.1417
X3.6102Y-3.6024
X3.6299Y-4.2087
X3.6339Y-4.8268
X3.6575Y-2.7717
X3.6693Y-3.6614
X3.7087Y-4.2008
X3.7244Y-4.1142
X3.7323Y-3.7244
X3.811Y-2.6417
X3.8268Y-3.8858
X3.8268Y-3.8268
X3.8268Y-3.937
X3.8268Y-4.0433
X3.937Y-3.8268
X3.937Y-3.937
X3.937Y-4.0472
X3.9488Y-4.8976
X4.0452Y-4.0449
X4.0472Y-3.8268
X4.0472Y-3.937
X4.0472Y-3.9882
X4.126Y-2.7244
X4.126Y-5.1496
X4.1339Y-4.8228
X4.1496Y-4.1457
X4.1654Y-3.748
X4.1811Y-3.7008
X4.2283Y-4.2677
X4.2756Y-3.6063
X4.311Y-4.2756
X4.3386Y-4.8268
X4.3465Y-4.3858
X4.4094Y-4.5827
X4.4291Y-3.2835
X4.4646Y-3.5276
X4.4921Y-4.4764
X4.5827Y-2.6654
X4.6102Y-2.9094
X4.6181Y-5.1654
X4.622Y-4.8583
X4.7008Y-4.8386
X4.8268Y-3.6339
X4.8268Y-3.9331
X4.8268Y-4.1339
X4.8937Y-3.3346
X5.0906Y-4.7717
X5.1102Y-3.0827
X5.1299Y-4.3307
X5.2008Y-3.5079
T2
X2.7244Y-4.3921
X2.7244Y-4.4921
X4.6283Y-3.5874
X4.6283Y-3.6874
X4.6283Y-3.7874
X4.6283Y-3.8874
X4.6283Y-3.9874
X4.6283Y-4.0874
X4.6283Y-4.1874
X4.6283Y-4.2874
X4.7283Y-3.5874
X4.7283Y-3.6874
X4.7283Y-3.7874
X4.7283Y-3.8874
X4.7283Y-3.9874
X4.7283Y-4.0874
X4.7283Y-4.1874
X4.7283Y-4.2874
X2.9803Y-5.0276
X3.0803Y-5.0276
X3.1803Y-5.0276
X3.2803Y-5.0276
X3.5866Y-4.6283
X3.5866Y-4.7283
X3.6866Y-4.6283
X3.6866Y-4.7283
X3.7866Y-4.6283
X3.7866Y-4.7283
X3.8866Y-4.6283
X3.8866Y-4.7283
X3.9866Y-4.6283
X3.9866Y-4.7283
X4.0866Y-4.6283
X4.0866Y-4.7283
X4.1866Y-4.6283
X4.1866Y-4.7283
X4.2866Y-4.6283
X4.2866Y-4.7283
X4.9606Y-4.4866
X4.9606Y-4.5866
X3.1559Y-2.7071
X3.1559Y-2.8071
X3.2559Y-2.7071
X3.2559Y-2.8071
X3.1457Y-3.5866
X3.1457Y-3.6866
X3.1457Y-3.7866
X3.1457Y-3.8866
X3.1457Y-3.9866
X3.1457Y-4.0866
X3.1457Y-4.1866
X3.1457Y-4.2866
X3.2457Y-3.5866
X3.2457Y-3.6866
X3.2457Y-3.7866
X3.2457Y-3.8866
X3.2457Y-3.9866
X3.2457Y-4.0866
X3.2457Y-4.1866
X3.2457Y-4.2866
X4.5197Y-3.0732
X4.5197Y-3.1732
X3.5874Y-3.1457
X3.5874Y-3.2457
X3.6874Y-3.1457
X3.6874Y-3.2457
X3.7874Y-3.1457
X3.7874Y-3.2457
X3.8874Y-3.1457
X3.8874Y-3.2457
X3.9874Y-3.1457
X3.9874Y-3.2457
X4.0874Y-3.1457
X4.0874Y-3.2457
X4.1874Y-3.1457
X4.1874Y-3.2457
X4.2874Y-3.1457
X4.2874Y-3.2457
T0
M30
