G04 #@! TF.GenerationSoftware,KiCad,Pcbnew,5.1.6-c6e7f7d~87~ubuntu20.04.1*
G04 #@! TF.CreationDate,2020-07-16T23:52:11+03:00*
G04 #@! TF.ProjectId,EV-MAX-V-E64,45562d4d-4158-42d5-962d-4536342e6b69,v1.0*
G04 #@! TF.SameCoordinates,Original*
G04 #@! TF.FileFunction,Legend,Bot*
G04 #@! TF.FilePolarity,Positive*
%FSLAX46Y46*%
G04 Gerber Fmt 4.6, Leading zero omitted, Abs format (unit mm)*
G04 Created by KiCad (PCBNEW 5.1.6-c6e7f7d~87~ubuntu20.04.1) date 2020-07-16 23:52:11*
%MOMM*%
%LPD*%
G01*
G04 APERTURE LIST*
G04 #@! TA.AperFunction,Profile*
%ADD10C,0.050000*%
G04 #@! TD*
%ADD11C,0.120000*%
%ADD12C,0.150000*%
G04 APERTURE END LIST*
D10*
X65000000Y-70000000D02*
X65000000Y-130000000D01*
X130000000Y-65000000D02*
X70000000Y-65000000D01*
X135000000Y-130000000D02*
X135000000Y-70000000D01*
X70000000Y-135000000D02*
X130000000Y-135000000D01*
X70000000Y-135000000D02*
G75*
G02*
X65000000Y-130000000I0J5000000D01*
G01*
X65000000Y-70000000D02*
G75*
G02*
X70000000Y-65000000I5000000J0D01*
G01*
X130000000Y-65000000D02*
G75*
G02*
X135000000Y-70000000I0J-5000000D01*
G01*
X135000000Y-130000000D02*
G75*
G02*
X130000000Y-135000000I-5000000J0D01*
G01*
D11*
X78760000Y-123970000D02*
X78760000Y-113030000D01*
X78760000Y-113030000D02*
X83840000Y-113030000D01*
X83840000Y-113030000D02*
X83840000Y-123970000D01*
X83840000Y-123970000D02*
X78760000Y-123970000D01*
X100938748Y-93290000D02*
X101461252Y-93290000D01*
X100938748Y-94710000D02*
X101461252Y-94710000D01*
X100828733Y-95290000D02*
X101171267Y-95290000D01*
X100828733Y-96310000D02*
X101171267Y-96310000D01*
X104710000Y-101728733D02*
X104710000Y-102071267D01*
X103690000Y-101728733D02*
X103690000Y-102071267D01*
X100238748Y-105290000D02*
X100761252Y-105290000D01*
X100238748Y-106710000D02*
X100761252Y-106710000D01*
X100528733Y-103690000D02*
X100871267Y-103690000D01*
X100528733Y-104710000D02*
X100871267Y-104710000D01*
X95290000Y-97871267D02*
X95290000Y-97528733D01*
X96310000Y-97871267D02*
X96310000Y-97528733D01*
X94710000Y-101038748D02*
X94710000Y-101561252D01*
X93290000Y-101038748D02*
X93290000Y-101561252D01*
X103690000Y-98671267D02*
X103690000Y-98328733D01*
X104710000Y-98671267D02*
X104710000Y-98328733D01*
X96310000Y-100928733D02*
X96310000Y-101271267D01*
X95290000Y-100928733D02*
X95290000Y-101271267D01*
D12*
X104366666Y-94157142D02*
X104414285Y-94204761D01*
X104557142Y-94252380D01*
X104652380Y-94252380D01*
X104795238Y-94204761D01*
X104890476Y-94109523D01*
X104938095Y-94014285D01*
X104985714Y-93823809D01*
X104985714Y-93680952D01*
X104938095Y-93490476D01*
X104890476Y-93395238D01*
X104795238Y-93300000D01*
X104652380Y-93252380D01*
X104557142Y-93252380D01*
X104414285Y-93300000D01*
X104366666Y-93347619D01*
X103890476Y-94252380D02*
X103700000Y-94252380D01*
X103604761Y-94204761D01*
X103557142Y-94157142D01*
X103461904Y-94014285D01*
X103414285Y-93823809D01*
X103414285Y-93442857D01*
X103461904Y-93347619D01*
X103509523Y-93300000D01*
X103604761Y-93252380D01*
X103795238Y-93252380D01*
X103890476Y-93300000D01*
X103938095Y-93347619D01*
X103985714Y-93442857D01*
X103985714Y-93680952D01*
X103938095Y-93776190D01*
X103890476Y-93823809D01*
X103795238Y-93871428D01*
X103604761Y-93871428D01*
X103509523Y-93823809D01*
X103461904Y-93776190D01*
X103414285Y-93680952D01*
X104666666Y-95957142D02*
X104714285Y-96004761D01*
X104857142Y-96052380D01*
X104952380Y-96052380D01*
X105095238Y-96004761D01*
X105190476Y-95909523D01*
X105238095Y-95814285D01*
X105285714Y-95623809D01*
X105285714Y-95480952D01*
X105238095Y-95290476D01*
X105190476Y-95195238D01*
X105095238Y-95100000D01*
X104952380Y-95052380D01*
X104857142Y-95052380D01*
X104714285Y-95100000D01*
X104666666Y-95147619D01*
X104095238Y-95480952D02*
X104190476Y-95433333D01*
X104238095Y-95385714D01*
X104285714Y-95290476D01*
X104285714Y-95242857D01*
X104238095Y-95147619D01*
X104190476Y-95100000D01*
X104095238Y-95052380D01*
X103904761Y-95052380D01*
X103809523Y-95100000D01*
X103761904Y-95147619D01*
X103714285Y-95242857D01*
X103714285Y-95290476D01*
X103761904Y-95385714D01*
X103809523Y-95433333D01*
X103904761Y-95480952D01*
X104095238Y-95480952D01*
X104190476Y-95528571D01*
X104238095Y-95576190D01*
X104285714Y-95671428D01*
X104285714Y-95861904D01*
X104238095Y-95957142D01*
X104190476Y-96004761D01*
X104095238Y-96052380D01*
X103904761Y-96052380D01*
X103809523Y-96004761D01*
X103761904Y-95957142D01*
X103714285Y-95861904D01*
X103714285Y-95671428D01*
X103761904Y-95576190D01*
X103809523Y-95528571D01*
X103904761Y-95480952D01*
X106366666Y-102257142D02*
X106414285Y-102304761D01*
X106557142Y-102352380D01*
X106652380Y-102352380D01*
X106795238Y-102304761D01*
X106890476Y-102209523D01*
X106938095Y-102114285D01*
X106985714Y-101923809D01*
X106985714Y-101780952D01*
X106938095Y-101590476D01*
X106890476Y-101495238D01*
X106795238Y-101400000D01*
X106652380Y-101352380D01*
X106557142Y-101352380D01*
X106414285Y-101400000D01*
X106366666Y-101447619D01*
X106033333Y-101352380D02*
X105366666Y-101352380D01*
X105795238Y-102352380D01*
X103466666Y-106457142D02*
X103514285Y-106504761D01*
X103657142Y-106552380D01*
X103752380Y-106552380D01*
X103895238Y-106504761D01*
X103990476Y-106409523D01*
X104038095Y-106314285D01*
X104085714Y-106123809D01*
X104085714Y-105980952D01*
X104038095Y-105790476D01*
X103990476Y-105695238D01*
X103895238Y-105600000D01*
X103752380Y-105552380D01*
X103657142Y-105552380D01*
X103514285Y-105600000D01*
X103466666Y-105647619D01*
X102609523Y-105552380D02*
X102800000Y-105552380D01*
X102895238Y-105600000D01*
X102942857Y-105647619D01*
X103038095Y-105790476D01*
X103085714Y-105980952D01*
X103085714Y-106361904D01*
X103038095Y-106457142D01*
X102990476Y-106504761D01*
X102895238Y-106552380D01*
X102704761Y-106552380D01*
X102609523Y-106504761D01*
X102561904Y-106457142D01*
X102514285Y-106361904D01*
X102514285Y-106123809D01*
X102561904Y-106028571D01*
X102609523Y-105980952D01*
X102704761Y-105933333D01*
X102895238Y-105933333D01*
X102990476Y-105980952D01*
X103038095Y-106028571D01*
X103085714Y-106123809D01*
X103366666Y-104657142D02*
X103414285Y-104704761D01*
X103557142Y-104752380D01*
X103652380Y-104752380D01*
X103795238Y-104704761D01*
X103890476Y-104609523D01*
X103938095Y-104514285D01*
X103985714Y-104323809D01*
X103985714Y-104180952D01*
X103938095Y-103990476D01*
X103890476Y-103895238D01*
X103795238Y-103800000D01*
X103652380Y-103752380D01*
X103557142Y-103752380D01*
X103414285Y-103800000D01*
X103366666Y-103847619D01*
X102461904Y-103752380D02*
X102938095Y-103752380D01*
X102985714Y-104228571D01*
X102938095Y-104180952D01*
X102842857Y-104133333D01*
X102604761Y-104133333D01*
X102509523Y-104180952D01*
X102461904Y-104228571D01*
X102414285Y-104323809D01*
X102414285Y-104561904D01*
X102461904Y-104657142D01*
X102509523Y-104704761D01*
X102604761Y-104752380D01*
X102842857Y-104752380D01*
X102938095Y-104704761D01*
X102985714Y-104657142D01*
X93966666Y-98057142D02*
X94014285Y-98104761D01*
X94157142Y-98152380D01*
X94252380Y-98152380D01*
X94395238Y-98104761D01*
X94490476Y-98009523D01*
X94538095Y-97914285D01*
X94585714Y-97723809D01*
X94585714Y-97580952D01*
X94538095Y-97390476D01*
X94490476Y-97295238D01*
X94395238Y-97200000D01*
X94252380Y-97152380D01*
X94157142Y-97152380D01*
X94014285Y-97200000D01*
X93966666Y-97247619D01*
X93109523Y-97485714D02*
X93109523Y-98152380D01*
X93347619Y-97104761D02*
X93585714Y-97819047D01*
X92966666Y-97819047D01*
X92166666Y-101657142D02*
X92214285Y-101704761D01*
X92357142Y-101752380D01*
X92452380Y-101752380D01*
X92595238Y-101704761D01*
X92690476Y-101609523D01*
X92738095Y-101514285D01*
X92785714Y-101323809D01*
X92785714Y-101180952D01*
X92738095Y-100990476D01*
X92690476Y-100895238D01*
X92595238Y-100800000D01*
X92452380Y-100752380D01*
X92357142Y-100752380D01*
X92214285Y-100800000D01*
X92166666Y-100847619D01*
X91833333Y-100752380D02*
X91214285Y-100752380D01*
X91547619Y-101133333D01*
X91404761Y-101133333D01*
X91309523Y-101180952D01*
X91261904Y-101228571D01*
X91214285Y-101323809D01*
X91214285Y-101561904D01*
X91261904Y-101657142D01*
X91309523Y-101704761D01*
X91404761Y-101752380D01*
X91690476Y-101752380D01*
X91785714Y-101704761D01*
X91833333Y-101657142D01*
X106366666Y-98857142D02*
X106414285Y-98904761D01*
X106557142Y-98952380D01*
X106652380Y-98952380D01*
X106795238Y-98904761D01*
X106890476Y-98809523D01*
X106938095Y-98714285D01*
X106985714Y-98523809D01*
X106985714Y-98380952D01*
X106938095Y-98190476D01*
X106890476Y-98095238D01*
X106795238Y-98000000D01*
X106652380Y-97952380D01*
X106557142Y-97952380D01*
X106414285Y-98000000D01*
X106366666Y-98047619D01*
X105985714Y-98047619D02*
X105938095Y-98000000D01*
X105842857Y-97952380D01*
X105604761Y-97952380D01*
X105509523Y-98000000D01*
X105461904Y-98047619D01*
X105414285Y-98142857D01*
X105414285Y-98238095D01*
X105461904Y-98380952D01*
X106033333Y-98952380D01*
X105414285Y-98952380D01*
X95966666Y-103857142D02*
X96014285Y-103904761D01*
X96157142Y-103952380D01*
X96252380Y-103952380D01*
X96395238Y-103904761D01*
X96490476Y-103809523D01*
X96538095Y-103714285D01*
X96585714Y-103523809D01*
X96585714Y-103380952D01*
X96538095Y-103190476D01*
X96490476Y-103095238D01*
X96395238Y-103000000D01*
X96252380Y-102952380D01*
X96157142Y-102952380D01*
X96014285Y-103000000D01*
X95966666Y-103047619D01*
X95014285Y-103952380D02*
X95585714Y-103952380D01*
X95300000Y-103952380D02*
X95300000Y-102952380D01*
X95395238Y-103095238D01*
X95490476Y-103190476D01*
X95585714Y-103238095D01*
M02*
