G04 #@! TF.GenerationSoftware,KiCad,Pcbnew,5.1.6-c6e7f7d~87~ubuntu20.04.1*
G04 #@! TF.CreationDate,2020-07-16T23:52:11+03:00*
G04 #@! TF.ProjectId,EV-MAX-V-E64,45562d4d-4158-42d5-962d-4536342e6b69,v1.0*
G04 #@! TF.SameCoordinates,Original*
G04 #@! TF.FileFunction,Soldermask,Bot*
G04 #@! TF.FilePolarity,Negative*
%FSLAX46Y46*%
G04 Gerber Fmt 4.6, Leading zero omitted, Abs format (unit mm)*
G04 Created by KiCad (PCBNEW 5.1.6-c6e7f7d~87~ubuntu20.04.1) date 2020-07-16 23:52:11*
%MOMM*%
%LPD*%
G01*
G04 APERTURE LIST*
G04 #@! TA.AperFunction,Profile*
%ADD10C,0.050000*%
G04 #@! TD*
%ADD11C,3.300000*%
%ADD12C,1.090600*%
%ADD13O,1.800000X1.800000*%
%ADD14R,1.800000X1.800000*%
G04 APERTURE END LIST*
D10*
X65000000Y-70000000D02*
X65000000Y-130000000D01*
X130000000Y-65000000D02*
X70000000Y-65000000D01*
X135000000Y-130000000D02*
X135000000Y-70000000D01*
X70000000Y-135000000D02*
X130000000Y-135000000D01*
X70000000Y-135000000D02*
G75*
G02*
X65000000Y-130000000I0J5000000D01*
G01*
X65000000Y-70000000D02*
G75*
G02*
X70000000Y-65000000I5000000J0D01*
G01*
X130000000Y-65000000D02*
G75*
G02*
X135000000Y-70000000I0J-5000000D01*
G01*
X135000000Y-130000000D02*
G75*
G02*
X130000000Y-135000000I-5000000J0D01*
G01*
D11*
X130000000Y-130000000D03*
X130000000Y-70000000D03*
X70000000Y-130000000D03*
X70000000Y-70000000D03*
D12*
X81300000Y-122310000D03*
X82316000Y-114690000D03*
X80284000Y-114690000D03*
D13*
X83320000Y-127700000D03*
X80780000Y-127700000D03*
X78240000Y-127700000D03*
D14*
X75700000Y-127700000D03*
D13*
X91120000Y-82440000D03*
X91120000Y-79900000D03*
X93660000Y-82440000D03*
X93660000Y-79900000D03*
X96200000Y-82440000D03*
X96200000Y-79900000D03*
X98740000Y-82440000D03*
X98740000Y-79900000D03*
X101280000Y-82440000D03*
X101280000Y-79900000D03*
X103820000Y-82440000D03*
X103820000Y-79900000D03*
X106360000Y-82440000D03*
X106360000Y-79900000D03*
X108900000Y-82440000D03*
D14*
X108900000Y-79900000D03*
D13*
X117560000Y-91120000D03*
X120100000Y-91120000D03*
X117560000Y-93660000D03*
X120100000Y-93660000D03*
X117560000Y-96200000D03*
X120100000Y-96200000D03*
X117560000Y-98740000D03*
X120100000Y-98740000D03*
X117560000Y-101280000D03*
X120100000Y-101280000D03*
X117560000Y-103820000D03*
X120100000Y-103820000D03*
X117560000Y-106360000D03*
X120100000Y-106360000D03*
X117560000Y-108900000D03*
D14*
X120100000Y-108900000D03*
D13*
X108880000Y-117560000D03*
X108880000Y-120100000D03*
X106340000Y-117560000D03*
X106340000Y-120100000D03*
X103800000Y-117560000D03*
X103800000Y-120100000D03*
X101260000Y-117560000D03*
X101260000Y-120100000D03*
X98720000Y-117560000D03*
X98720000Y-120100000D03*
X96180000Y-117560000D03*
X96180000Y-120100000D03*
X93640000Y-117560000D03*
X93640000Y-120100000D03*
X91100000Y-117560000D03*
D14*
X91100000Y-120100000D03*
D13*
X82440000Y-108880000D03*
X79900000Y-108880000D03*
X82440000Y-106340000D03*
X79900000Y-106340000D03*
X82440000Y-103800000D03*
X79900000Y-103800000D03*
X82440000Y-101260000D03*
X79900000Y-101260000D03*
X82440000Y-98720000D03*
X79900000Y-98720000D03*
X82440000Y-96180000D03*
X79900000Y-96180000D03*
X82440000Y-93640000D03*
X79900000Y-93640000D03*
X82440000Y-91100000D03*
D14*
X79900000Y-91100000D03*
G36*
G01*
X101600000Y-94478262D02*
X101600000Y-93521738D01*
G75*
G02*
X101871738Y-93250000I271738J0D01*
G01*
X102578262Y-93250000D01*
G75*
G02*
X102850000Y-93521738I0J-271738D01*
G01*
X102850000Y-94478262D01*
G75*
G02*
X102578262Y-94750000I-271738J0D01*
G01*
X101871738Y-94750000D01*
G75*
G02*
X101600000Y-94478262I0J271738D01*
G01*
G37*
G36*
G01*
X99550000Y-94478262D02*
X99550000Y-93521738D01*
G75*
G02*
X99821738Y-93250000I271738J0D01*
G01*
X100528262Y-93250000D01*
G75*
G02*
X100800000Y-93521738I0J-271738D01*
G01*
X100800000Y-94478262D01*
G75*
G02*
X100528262Y-94750000I-271738J0D01*
G01*
X99821738Y-94750000D01*
G75*
G02*
X99550000Y-94478262I0J271738D01*
G01*
G37*
G36*
G01*
X101300000Y-96062500D02*
X101300000Y-95537500D01*
G75*
G02*
X101562500Y-95275000I262500J0D01*
G01*
X102187500Y-95275000D01*
G75*
G02*
X102450000Y-95537500I0J-262500D01*
G01*
X102450000Y-96062500D01*
G75*
G02*
X102187500Y-96325000I-262500J0D01*
G01*
X101562500Y-96325000D01*
G75*
G02*
X101300000Y-96062500I0J262500D01*
G01*
G37*
G36*
G01*
X99550000Y-96062500D02*
X99550000Y-95537500D01*
G75*
G02*
X99812500Y-95275000I262500J0D01*
G01*
X100437500Y-95275000D01*
G75*
G02*
X100700000Y-95537500I0J-262500D01*
G01*
X100700000Y-96062500D01*
G75*
G02*
X100437500Y-96325000I-262500J0D01*
G01*
X99812500Y-96325000D01*
G75*
G02*
X99550000Y-96062500I0J262500D01*
G01*
G37*
G36*
G01*
X103937500Y-102200000D02*
X104462500Y-102200000D01*
G75*
G02*
X104725000Y-102462500I0J-262500D01*
G01*
X104725000Y-103087500D01*
G75*
G02*
X104462500Y-103350000I-262500J0D01*
G01*
X103937500Y-103350000D01*
G75*
G02*
X103675000Y-103087500I0J262500D01*
G01*
X103675000Y-102462500D01*
G75*
G02*
X103937500Y-102200000I262500J0D01*
G01*
G37*
G36*
G01*
X103937500Y-100450000D02*
X104462500Y-100450000D01*
G75*
G02*
X104725000Y-100712500I0J-262500D01*
G01*
X104725000Y-101337500D01*
G75*
G02*
X104462500Y-101600000I-262500J0D01*
G01*
X103937500Y-101600000D01*
G75*
G02*
X103675000Y-101337500I0J262500D01*
G01*
X103675000Y-100712500D01*
G75*
G02*
X103937500Y-100450000I262500J0D01*
G01*
G37*
G36*
G01*
X100900000Y-106478262D02*
X100900000Y-105521738D01*
G75*
G02*
X101171738Y-105250000I271738J0D01*
G01*
X101878262Y-105250000D01*
G75*
G02*
X102150000Y-105521738I0J-271738D01*
G01*
X102150000Y-106478262D01*
G75*
G02*
X101878262Y-106750000I-271738J0D01*
G01*
X101171738Y-106750000D01*
G75*
G02*
X100900000Y-106478262I0J271738D01*
G01*
G37*
G36*
G01*
X98850000Y-106478262D02*
X98850000Y-105521738D01*
G75*
G02*
X99121738Y-105250000I271738J0D01*
G01*
X99828262Y-105250000D01*
G75*
G02*
X100100000Y-105521738I0J-271738D01*
G01*
X100100000Y-106478262D01*
G75*
G02*
X99828262Y-106750000I-271738J0D01*
G01*
X99121738Y-106750000D01*
G75*
G02*
X98850000Y-106478262I0J271738D01*
G01*
G37*
G36*
G01*
X101000000Y-104462500D02*
X101000000Y-103937500D01*
G75*
G02*
X101262500Y-103675000I262500J0D01*
G01*
X101887500Y-103675000D01*
G75*
G02*
X102150000Y-103937500I0J-262500D01*
G01*
X102150000Y-104462500D01*
G75*
G02*
X101887500Y-104725000I-262500J0D01*
G01*
X101262500Y-104725000D01*
G75*
G02*
X101000000Y-104462500I0J262500D01*
G01*
G37*
G36*
G01*
X99250000Y-104462500D02*
X99250000Y-103937500D01*
G75*
G02*
X99512500Y-103675000I262500J0D01*
G01*
X100137500Y-103675000D01*
G75*
G02*
X100400000Y-103937500I0J-262500D01*
G01*
X100400000Y-104462500D01*
G75*
G02*
X100137500Y-104725000I-262500J0D01*
G01*
X99512500Y-104725000D01*
G75*
G02*
X99250000Y-104462500I0J262500D01*
G01*
G37*
G36*
G01*
X96062500Y-97400000D02*
X95537500Y-97400000D01*
G75*
G02*
X95275000Y-97137500I0J262500D01*
G01*
X95275000Y-96512500D01*
G75*
G02*
X95537500Y-96250000I262500J0D01*
G01*
X96062500Y-96250000D01*
G75*
G02*
X96325000Y-96512500I0J-262500D01*
G01*
X96325000Y-97137500D01*
G75*
G02*
X96062500Y-97400000I-262500J0D01*
G01*
G37*
G36*
G01*
X96062500Y-99150000D02*
X95537500Y-99150000D01*
G75*
G02*
X95275000Y-98887500I0J262500D01*
G01*
X95275000Y-98262500D01*
G75*
G02*
X95537500Y-98000000I262500J0D01*
G01*
X96062500Y-98000000D01*
G75*
G02*
X96325000Y-98262500I0J-262500D01*
G01*
X96325000Y-98887500D01*
G75*
G02*
X96062500Y-99150000I-262500J0D01*
G01*
G37*
G36*
G01*
X93521738Y-101700000D02*
X94478262Y-101700000D01*
G75*
G02*
X94750000Y-101971738I0J-271738D01*
G01*
X94750000Y-102678262D01*
G75*
G02*
X94478262Y-102950000I-271738J0D01*
G01*
X93521738Y-102950000D01*
G75*
G02*
X93250000Y-102678262I0J271738D01*
G01*
X93250000Y-101971738D01*
G75*
G02*
X93521738Y-101700000I271738J0D01*
G01*
G37*
G36*
G01*
X93521738Y-99650000D02*
X94478262Y-99650000D01*
G75*
G02*
X94750000Y-99921738I0J-271738D01*
G01*
X94750000Y-100628262D01*
G75*
G02*
X94478262Y-100900000I-271738J0D01*
G01*
X93521738Y-100900000D01*
G75*
G02*
X93250000Y-100628262I0J271738D01*
G01*
X93250000Y-99921738D01*
G75*
G02*
X93521738Y-99650000I271738J0D01*
G01*
G37*
G36*
G01*
X104462500Y-98200000D02*
X103937500Y-98200000D01*
G75*
G02*
X103675000Y-97937500I0J262500D01*
G01*
X103675000Y-97312500D01*
G75*
G02*
X103937500Y-97050000I262500J0D01*
G01*
X104462500Y-97050000D01*
G75*
G02*
X104725000Y-97312500I0J-262500D01*
G01*
X104725000Y-97937500D01*
G75*
G02*
X104462500Y-98200000I-262500J0D01*
G01*
G37*
G36*
G01*
X104462500Y-99950000D02*
X103937500Y-99950000D01*
G75*
G02*
X103675000Y-99687500I0J262500D01*
G01*
X103675000Y-99062500D01*
G75*
G02*
X103937500Y-98800000I262500J0D01*
G01*
X104462500Y-98800000D01*
G75*
G02*
X104725000Y-99062500I0J-262500D01*
G01*
X104725000Y-99687500D01*
G75*
G02*
X104462500Y-99950000I-262500J0D01*
G01*
G37*
G36*
G01*
X95537500Y-101400000D02*
X96062500Y-101400000D01*
G75*
G02*
X96325000Y-101662500I0J-262500D01*
G01*
X96325000Y-102287500D01*
G75*
G02*
X96062500Y-102550000I-262500J0D01*
G01*
X95537500Y-102550000D01*
G75*
G02*
X95275000Y-102287500I0J262500D01*
G01*
X95275000Y-101662500D01*
G75*
G02*
X95537500Y-101400000I262500J0D01*
G01*
G37*
G36*
G01*
X95537500Y-99650000D02*
X96062500Y-99650000D01*
G75*
G02*
X96325000Y-99912500I0J-262500D01*
G01*
X96325000Y-100537500D01*
G75*
G02*
X96062500Y-100800000I-262500J0D01*
G01*
X95537500Y-100800000D01*
G75*
G02*
X95275000Y-100537500I0J262500D01*
G01*
X95275000Y-99912500D01*
G75*
G02*
X95537500Y-99650000I262500J0D01*
G01*
G37*
D13*
X80160000Y-68760000D03*
X82700000Y-68760000D03*
X80160000Y-71300000D03*
D14*
X82700000Y-71300000D03*
D13*
X114800000Y-78060000D03*
D14*
X114800000Y-80600000D03*
D13*
X69200000Y-111560000D03*
D14*
X69200000Y-114100000D03*
D13*
X126000000Y-113960000D03*
D14*
X126000000Y-116500000D03*
M02*
