G04 #@! TF.GenerationSoftware,KiCad,Pcbnew,5.1.5-52549c5~84~ubuntu19.10.1*
G04 #@! TF.CreationDate,2020-02-23T01:12:38+02:00*
G04 #@! TF.ProjectId,BRK-TSSOP-14-4.4x5-P0.65,42524b2d-5453-4534-9f50-2d31342d342e,v1.0*
G04 #@! TF.SameCoordinates,Original*
G04 #@! TF.FileFunction,Legend,Top*
G04 #@! TF.FilePolarity,Positive*
%FSLAX46Y46*%
G04 Gerber Fmt 4.6, Leading zero omitted, Abs format (unit mm)*
G04 Created by KiCad (PCBNEW 5.1.5-52549c5~84~ubuntu19.10.1) date 2020-02-23 01:12:38*
%MOMM*%
%LPD*%
G04 APERTURE LIST*
%ADD10C,0.200000*%
%ADD11C,0.150000*%
%ADD12C,0.250000*%
%ADD13C,0.120000*%
G04 APERTURE END LIST*
D10*
X65598571Y-75180952D02*
X65503333Y-75133333D01*
X65455714Y-75085714D01*
X65408095Y-74990476D01*
X65408095Y-74942857D01*
X65455714Y-74847619D01*
X65503333Y-74800000D01*
X65598571Y-74752380D01*
X65789047Y-74752380D01*
X65884285Y-74800000D01*
X65931904Y-74847619D01*
X65979523Y-74942857D01*
X65979523Y-74990476D01*
X65931904Y-75085714D01*
X65884285Y-75133333D01*
X65789047Y-75180952D01*
X65598571Y-75180952D01*
X65503333Y-75228571D01*
X65455714Y-75276190D01*
X65408095Y-75371428D01*
X65408095Y-75561904D01*
X65455714Y-75657142D01*
X65503333Y-75704761D01*
X65598571Y-75752380D01*
X65789047Y-75752380D01*
X65884285Y-75704761D01*
X65931904Y-75657142D01*
X65979523Y-75561904D01*
X65979523Y-75371428D01*
X65931904Y-75276190D01*
X65884285Y-75228571D01*
X65789047Y-75180952D01*
X65503333Y-73252380D02*
X65693809Y-73252380D01*
X65789047Y-73204761D01*
X65836666Y-73157142D01*
X65931904Y-73014285D01*
X65979523Y-72823809D01*
X65979523Y-72442857D01*
X65931904Y-72347619D01*
X65884285Y-72300000D01*
X65789047Y-72252380D01*
X65598571Y-72252380D01*
X65503333Y-72300000D01*
X65455714Y-72347619D01*
X65408095Y-72442857D01*
X65408095Y-72680952D01*
X65455714Y-72776190D01*
X65503333Y-72823809D01*
X65598571Y-72871428D01*
X65789047Y-72871428D01*
X65884285Y-72823809D01*
X65931904Y-72776190D01*
X65979523Y-72680952D01*
X65027142Y-70652380D02*
X64455714Y-70652380D01*
X64741428Y-70652380D02*
X64741428Y-69652380D01*
X64646190Y-69795238D01*
X64550952Y-69890476D01*
X64455714Y-69938095D01*
X65646190Y-69652380D02*
X65741428Y-69652380D01*
X65836666Y-69700000D01*
X65884285Y-69747619D01*
X65931904Y-69842857D01*
X65979523Y-70033333D01*
X65979523Y-70271428D01*
X65931904Y-70461904D01*
X65884285Y-70557142D01*
X65836666Y-70604761D01*
X65741428Y-70652380D01*
X65646190Y-70652380D01*
X65550952Y-70604761D01*
X65503333Y-70557142D01*
X65455714Y-70461904D01*
X65408095Y-70271428D01*
X65408095Y-70033333D01*
X65455714Y-69842857D01*
X65503333Y-69747619D01*
X65550952Y-69700000D01*
X65646190Y-69652380D01*
X54872857Y-74852380D02*
X55539523Y-74852380D01*
X55110952Y-75852380D01*
X55396666Y-72252380D02*
X55206190Y-72252380D01*
X55110952Y-72300000D01*
X55063333Y-72347619D01*
X54968095Y-72490476D01*
X54920476Y-72680952D01*
X54920476Y-73061904D01*
X54968095Y-73157142D01*
X55015714Y-73204761D01*
X55110952Y-73252380D01*
X55301428Y-73252380D01*
X55396666Y-73204761D01*
X55444285Y-73157142D01*
X55491904Y-73061904D01*
X55491904Y-72823809D01*
X55444285Y-72728571D01*
X55396666Y-72680952D01*
X55301428Y-72633333D01*
X55110952Y-72633333D01*
X55015714Y-72680952D01*
X54968095Y-72728571D01*
X54920476Y-72823809D01*
X55444285Y-69752380D02*
X54968095Y-69752380D01*
X54920476Y-70228571D01*
X54968095Y-70180952D01*
X55063333Y-70133333D01*
X55301428Y-70133333D01*
X55396666Y-70180952D01*
X55444285Y-70228571D01*
X55491904Y-70323809D01*
X55491904Y-70561904D01*
X55444285Y-70657142D01*
X55396666Y-70704761D01*
X55301428Y-70752380D01*
X55063333Y-70752380D01*
X54968095Y-70704761D01*
X54920476Y-70657142D01*
X55396666Y-67485714D02*
X55396666Y-68152380D01*
X55158571Y-67104761D02*
X54920476Y-67819047D01*
X55539523Y-67819047D01*
X54872857Y-64652380D02*
X55491904Y-64652380D01*
X55158571Y-65033333D01*
X55301428Y-65033333D01*
X55396666Y-65080952D01*
X55444285Y-65128571D01*
X55491904Y-65223809D01*
X55491904Y-65461904D01*
X55444285Y-65557142D01*
X55396666Y-65604761D01*
X55301428Y-65652380D01*
X55015714Y-65652380D01*
X54920476Y-65604761D01*
X54872857Y-65557142D01*
X65027142Y-68202380D02*
X64455714Y-68202380D01*
X64741428Y-68202380D02*
X64741428Y-67202380D01*
X64646190Y-67345238D01*
X64550952Y-67440476D01*
X64455714Y-67488095D01*
X65979523Y-68202380D02*
X65408095Y-68202380D01*
X65693809Y-68202380D02*
X65693809Y-67202380D01*
X65598571Y-67345238D01*
X65503333Y-67440476D01*
X65408095Y-67488095D01*
D11*
X53000000Y-78200000D02*
G75*
G02X51000000Y-76200000I0J2000000D01*
G01*
X69900000Y-76200000D02*
G75*
G02X67900000Y-78200000I-2000000J0D01*
G01*
X67900000Y-48000000D02*
G75*
G02X69900000Y-50000000I0J-2000000D01*
G01*
X51000000Y-50000000D02*
G75*
G02X53000000Y-48000000I2000000J0D01*
G01*
D10*
X65027142Y-65652380D02*
X64455714Y-65652380D01*
X64741428Y-65652380D02*
X64741428Y-64652380D01*
X64646190Y-64795238D01*
X64550952Y-64890476D01*
X64455714Y-64938095D01*
X65408095Y-64747619D02*
X65455714Y-64700000D01*
X65550952Y-64652380D01*
X65789047Y-64652380D01*
X65884285Y-64700000D01*
X65931904Y-64747619D01*
X65979523Y-64842857D01*
X65979523Y-64938095D01*
X65931904Y-65080952D01*
X65360476Y-65652380D01*
X65979523Y-65652380D01*
X65027142Y-63152380D02*
X64455714Y-63152380D01*
X64741428Y-63152380D02*
X64741428Y-62152380D01*
X64646190Y-62295238D01*
X64550952Y-62390476D01*
X64455714Y-62438095D01*
X65360476Y-62152380D02*
X65979523Y-62152380D01*
X65646190Y-62533333D01*
X65789047Y-62533333D01*
X65884285Y-62580952D01*
X65931904Y-62628571D01*
X65979523Y-62723809D01*
X65979523Y-62961904D01*
X65931904Y-63057142D01*
X65884285Y-63104761D01*
X65789047Y-63152380D01*
X65503333Y-63152380D01*
X65408095Y-63104761D01*
X65360476Y-63057142D01*
X65027142Y-60592857D02*
X64455714Y-60592857D01*
X64741428Y-60592857D02*
X64741428Y-59392857D01*
X64646190Y-59564285D01*
X64550952Y-59678571D01*
X64455714Y-59735714D01*
X65884285Y-59792857D02*
X65884285Y-60592857D01*
X65646190Y-59335714D02*
X65408095Y-60192857D01*
X66027142Y-60192857D01*
X54920476Y-62197619D02*
X54968095Y-62150000D01*
X55063333Y-62102380D01*
X55301428Y-62102380D01*
X55396666Y-62150000D01*
X55444285Y-62197619D01*
X55491904Y-62292857D01*
X55491904Y-62388095D01*
X55444285Y-62530952D01*
X54872857Y-63102380D01*
X55491904Y-63102380D01*
X55491904Y-60552380D02*
X54920476Y-60552380D01*
X55206190Y-60552380D02*
X55206190Y-59552380D01*
X55110952Y-59695238D01*
X55015714Y-59790476D01*
X54920476Y-59838095D01*
D11*
X67900000Y-78200000D02*
X53000000Y-78200000D01*
G36*
X69400000Y-57500000D02*
G01*
X51500000Y-57500000D01*
X51500000Y-53500000D01*
X69400000Y-53500000D01*
X69400000Y-57500000D01*
G37*
X69400000Y-57500000D02*
X51500000Y-57500000D01*
X51500000Y-53500000D01*
X69400000Y-53500000D01*
X69400000Y-57500000D01*
X69900000Y-50000000D02*
X69900000Y-76200000D01*
D12*
X55466666Y-49188095D02*
X56209523Y-49188095D01*
X55838095Y-50488095D02*
X55838095Y-49188095D01*
X56580952Y-50426190D02*
X56766666Y-50488095D01*
X57076190Y-50488095D01*
X57200000Y-50426190D01*
X57261904Y-50364285D01*
X57323809Y-50240476D01*
X57323809Y-50116666D01*
X57261904Y-49992857D01*
X57200000Y-49930952D01*
X57076190Y-49869047D01*
X56828571Y-49807142D01*
X56704761Y-49745238D01*
X56642857Y-49683333D01*
X56580952Y-49559523D01*
X56580952Y-49435714D01*
X56642857Y-49311904D01*
X56704761Y-49250000D01*
X56828571Y-49188095D01*
X57138095Y-49188095D01*
X57323809Y-49250000D01*
X57819047Y-50426190D02*
X58004761Y-50488095D01*
X58314285Y-50488095D01*
X58438095Y-50426190D01*
X58500000Y-50364285D01*
X58561904Y-50240476D01*
X58561904Y-50116666D01*
X58500000Y-49992857D01*
X58438095Y-49930952D01*
X58314285Y-49869047D01*
X58066666Y-49807142D01*
X57942857Y-49745238D01*
X57880952Y-49683333D01*
X57819047Y-49559523D01*
X57819047Y-49435714D01*
X57880952Y-49311904D01*
X57942857Y-49250000D01*
X58066666Y-49188095D01*
X58376190Y-49188095D01*
X58561904Y-49250000D01*
X59366666Y-49188095D02*
X59614285Y-49188095D01*
X59738095Y-49250000D01*
X59861904Y-49373809D01*
X59923809Y-49621428D01*
X59923809Y-50054761D01*
X59861904Y-50302380D01*
X59738095Y-50426190D01*
X59614285Y-50488095D01*
X59366666Y-50488095D01*
X59242857Y-50426190D01*
X59119047Y-50302380D01*
X59057142Y-50054761D01*
X59057142Y-49621428D01*
X59119047Y-49373809D01*
X59242857Y-49250000D01*
X59366666Y-49188095D01*
X60480952Y-50488095D02*
X60480952Y-49188095D01*
X60976190Y-49188095D01*
X61100000Y-49250000D01*
X61161904Y-49311904D01*
X61223809Y-49435714D01*
X61223809Y-49621428D01*
X61161904Y-49745238D01*
X61100000Y-49807142D01*
X60976190Y-49869047D01*
X60480952Y-49869047D01*
X61780952Y-49992857D02*
X62771428Y-49992857D01*
X64071428Y-50488095D02*
X63328571Y-50488095D01*
X63700000Y-50488095D02*
X63700000Y-49188095D01*
X63576190Y-49373809D01*
X63452380Y-49497619D01*
X63328571Y-49559523D01*
X65185714Y-49621428D02*
X65185714Y-50488095D01*
X64876190Y-49126190D02*
X64566666Y-50054761D01*
X65371428Y-50054761D01*
X55002380Y-51821428D02*
X55002380Y-52688095D01*
X54692857Y-51326190D02*
X54383333Y-52254761D01*
X55188095Y-52254761D01*
X55683333Y-52564285D02*
X55745238Y-52626190D01*
X55683333Y-52688095D01*
X55621428Y-52626190D01*
X55683333Y-52564285D01*
X55683333Y-52688095D01*
X56859523Y-51821428D02*
X56859523Y-52688095D01*
X56550000Y-51326190D02*
X56240476Y-52254761D01*
X57045238Y-52254761D01*
X57416666Y-52688095D02*
X58097619Y-51821428D01*
X57416666Y-51821428D02*
X58097619Y-52688095D01*
X59211904Y-51388095D02*
X58592857Y-51388095D01*
X58530952Y-52007142D01*
X58592857Y-51945238D01*
X58716666Y-51883333D01*
X59026190Y-51883333D01*
X59150000Y-51945238D01*
X59211904Y-52007142D01*
X59273809Y-52130952D01*
X59273809Y-52440476D01*
X59211904Y-52564285D01*
X59150000Y-52626190D01*
X59026190Y-52688095D01*
X58716666Y-52688095D01*
X58592857Y-52626190D01*
X58530952Y-52564285D01*
X59830952Y-52192857D02*
X60821428Y-52192857D01*
X61440476Y-52688095D02*
X61440476Y-51388095D01*
X61935714Y-51388095D01*
X62059523Y-51450000D01*
X62121428Y-51511904D01*
X62183333Y-51635714D01*
X62183333Y-51821428D01*
X62121428Y-51945238D01*
X62059523Y-52007142D01*
X61935714Y-52069047D01*
X61440476Y-52069047D01*
X62988095Y-51388095D02*
X63111904Y-51388095D01*
X63235714Y-51450000D01*
X63297619Y-51511904D01*
X63359523Y-51635714D01*
X63421428Y-51883333D01*
X63421428Y-52192857D01*
X63359523Y-52440476D01*
X63297619Y-52564285D01*
X63235714Y-52626190D01*
X63111904Y-52688095D01*
X62988095Y-52688095D01*
X62864285Y-52626190D01*
X62802380Y-52564285D01*
X62740476Y-52440476D01*
X62678571Y-52192857D01*
X62678571Y-51883333D01*
X62740476Y-51635714D01*
X62802380Y-51511904D01*
X62864285Y-51450000D01*
X62988095Y-51388095D01*
X63978571Y-52564285D02*
X64040476Y-52626190D01*
X63978571Y-52688095D01*
X63916666Y-52626190D01*
X63978571Y-52564285D01*
X63978571Y-52688095D01*
X65154761Y-51388095D02*
X64907142Y-51388095D01*
X64783333Y-51450000D01*
X64721428Y-51511904D01*
X64597619Y-51697619D01*
X64535714Y-51945238D01*
X64535714Y-52440476D01*
X64597619Y-52564285D01*
X64659523Y-52626190D01*
X64783333Y-52688095D01*
X65030952Y-52688095D01*
X65154761Y-52626190D01*
X65216666Y-52564285D01*
X65278571Y-52440476D01*
X65278571Y-52130952D01*
X65216666Y-52007142D01*
X65154761Y-51945238D01*
X65030952Y-51883333D01*
X64783333Y-51883333D01*
X64659523Y-51945238D01*
X64597619Y-52007142D01*
X64535714Y-52130952D01*
X66454761Y-51388095D02*
X65835714Y-51388095D01*
X65773809Y-52007142D01*
X65835714Y-51945238D01*
X65959523Y-51883333D01*
X66269047Y-51883333D01*
X66392857Y-51945238D01*
X66454761Y-52007142D01*
X66516666Y-52130952D01*
X66516666Y-52440476D01*
X66454761Y-52564285D01*
X66392857Y-52626190D01*
X66269047Y-52688095D01*
X65959523Y-52688095D01*
X65835714Y-52626190D01*
X65773809Y-52564285D01*
D11*
X53000000Y-48000000D02*
X67900000Y-48000000D01*
X51000000Y-76200000D02*
X51000000Y-50000000D01*
X57675000Y-65180000D02*
X56325000Y-65180000D01*
X57675000Y-70305000D02*
X62325000Y-70305000D01*
X57675000Y-65055000D02*
X62325000Y-65055000D01*
X57675000Y-70305000D02*
X57675000Y-70080000D01*
X62325000Y-70305000D02*
X62325000Y-70080000D01*
X62325000Y-65055000D02*
X62325000Y-65280000D01*
X57675000Y-65055000D02*
X57675000Y-65180000D01*
D13*
X69370000Y-76670000D02*
X68040000Y-76670000D01*
X69370000Y-75340000D02*
X69370000Y-76670000D01*
X69370000Y-74070000D02*
X66710000Y-74070000D01*
X66710000Y-74070000D02*
X66710000Y-58770000D01*
X69370000Y-74070000D02*
X69370000Y-58770000D01*
X69370000Y-58770000D02*
X66710000Y-58770000D01*
X51470000Y-58770000D02*
X52800000Y-58770000D01*
X51470000Y-60100000D02*
X51470000Y-58770000D01*
X51470000Y-61370000D02*
X54130000Y-61370000D01*
X54130000Y-61370000D02*
X54130000Y-76670000D01*
X51470000Y-61370000D02*
X51470000Y-76670000D01*
X51470000Y-76670000D02*
X54130000Y-76670000D01*
M02*
