G04 #@! TF.GenerationSoftware,KiCad,Pcbnew,5.1.4-e60b266~84~ubuntu19.04.1*
G04 #@! TF.CreationDate,2019-08-10T13:04:58+03:00*
G04 #@! TF.ProjectId,BRK-QFP-56-10x10-P0.65,42524b2d-5146-4502-9d35-362d31307831,v1.0*
G04 #@! TF.SameCoordinates,Original*
G04 #@! TF.FileFunction,Legend,Top*
G04 #@! TF.FilePolarity,Positive*
%FSLAX46Y46*%
G04 Gerber Fmt 4.6, Leading zero omitted, Abs format (unit mm)*
G04 Created by KiCad (PCBNEW 5.1.4-e60b266~84~ubuntu19.04.1) date 2019-08-10 13:04:58*
%MOMM*%
%LPD*%
G04 APERTURE LIST*
%ADD10C,0.300000*%
%ADD11C,0.150000*%
%ADD12C,0.120000*%
G04 APERTURE END LIST*
D10*
X44442857Y-45523571D02*
X44442857Y-46095000D01*
X45014285Y-46152142D01*
X44957142Y-46095000D01*
X44900000Y-45980714D01*
X44900000Y-45695000D01*
X44957142Y-45580714D01*
X45014285Y-45523571D01*
X45128571Y-45466428D01*
X45414285Y-45466428D01*
X45528571Y-45523571D01*
X45585714Y-45580714D01*
X45642857Y-45695000D01*
X45642857Y-45980714D01*
X45585714Y-46095000D01*
X45528571Y-46152142D01*
X44442857Y-44380714D02*
X44442857Y-44952142D01*
X45014285Y-45009285D01*
X44957142Y-44952142D01*
X44900000Y-44837857D01*
X44900000Y-44552142D01*
X44957142Y-44437857D01*
X45014285Y-44380714D01*
X45128571Y-44323571D01*
X45414285Y-44323571D01*
X45528571Y-44380714D01*
X45585714Y-44437857D01*
X45642857Y-44552142D01*
X45642857Y-44837857D01*
X45585714Y-44952142D01*
X45528571Y-45009285D01*
X46942857Y-45523571D02*
X46942857Y-46095000D01*
X47514285Y-46152142D01*
X47457142Y-46095000D01*
X47400000Y-45980714D01*
X47400000Y-45695000D01*
X47457142Y-45580714D01*
X47514285Y-45523571D01*
X47628571Y-45466428D01*
X47914285Y-45466428D01*
X48028571Y-45523571D01*
X48085714Y-45580714D01*
X48142857Y-45695000D01*
X48142857Y-45980714D01*
X48085714Y-46095000D01*
X48028571Y-46152142D01*
X47342857Y-44437857D02*
X48142857Y-44437857D01*
X46885714Y-44723571D02*
X47742857Y-45009285D01*
X47742857Y-44266428D01*
X49442857Y-45523571D02*
X49442857Y-46095000D01*
X50014285Y-46152142D01*
X49957142Y-46095000D01*
X49900000Y-45980714D01*
X49900000Y-45695000D01*
X49957142Y-45580714D01*
X50014285Y-45523571D01*
X50128571Y-45466428D01*
X50414285Y-45466428D01*
X50528571Y-45523571D01*
X50585714Y-45580714D01*
X50642857Y-45695000D01*
X50642857Y-45980714D01*
X50585714Y-46095000D01*
X50528571Y-46152142D01*
X49442857Y-45066428D02*
X49442857Y-44323571D01*
X49900000Y-44723571D01*
X49900000Y-44552142D01*
X49957142Y-44437857D01*
X50014285Y-44380714D01*
X50128571Y-44323571D01*
X50414285Y-44323571D01*
X50528571Y-44380714D01*
X50585714Y-44437857D01*
X50642857Y-44552142D01*
X50642857Y-44895000D01*
X50585714Y-45009285D01*
X50528571Y-45066428D01*
X52042857Y-45523571D02*
X52042857Y-46095000D01*
X52614285Y-46152142D01*
X52557142Y-46095000D01*
X52500000Y-45980714D01*
X52500000Y-45695000D01*
X52557142Y-45580714D01*
X52614285Y-45523571D01*
X52728571Y-45466428D01*
X53014285Y-45466428D01*
X53128571Y-45523571D01*
X53185714Y-45580714D01*
X53242857Y-45695000D01*
X53242857Y-45980714D01*
X53185714Y-46095000D01*
X53128571Y-46152142D01*
X52157142Y-45009285D02*
X52100000Y-44952142D01*
X52042857Y-44837857D01*
X52042857Y-44552142D01*
X52100000Y-44437857D01*
X52157142Y-44380714D01*
X52271428Y-44323571D01*
X52385714Y-44323571D01*
X52557142Y-44380714D01*
X53242857Y-45066428D01*
X53242857Y-44323571D01*
X54542857Y-45523571D02*
X54542857Y-46095000D01*
X55114285Y-46152142D01*
X55057142Y-46095000D01*
X55000000Y-45980714D01*
X55000000Y-45695000D01*
X55057142Y-45580714D01*
X55114285Y-45523571D01*
X55228571Y-45466428D01*
X55514285Y-45466428D01*
X55628571Y-45523571D01*
X55685714Y-45580714D01*
X55742857Y-45695000D01*
X55742857Y-45980714D01*
X55685714Y-46095000D01*
X55628571Y-46152142D01*
X55742857Y-44323571D02*
X55742857Y-45009285D01*
X55742857Y-44666428D02*
X54542857Y-44666428D01*
X54714285Y-44780714D01*
X54828571Y-44895000D01*
X54885714Y-45009285D01*
X57042857Y-45523571D02*
X57042857Y-46095000D01*
X57614285Y-46152142D01*
X57557142Y-46095000D01*
X57500000Y-45980714D01*
X57500000Y-45695000D01*
X57557142Y-45580714D01*
X57614285Y-45523571D01*
X57728571Y-45466428D01*
X58014285Y-45466428D01*
X58128571Y-45523571D01*
X58185714Y-45580714D01*
X58242857Y-45695000D01*
X58242857Y-45980714D01*
X58185714Y-46095000D01*
X58128571Y-46152142D01*
X57042857Y-44723571D02*
X57042857Y-44609285D01*
X57100000Y-44495000D01*
X57157142Y-44437857D01*
X57271428Y-44380714D01*
X57500000Y-44323571D01*
X57785714Y-44323571D01*
X58014285Y-44380714D01*
X58128571Y-44437857D01*
X58185714Y-44495000D01*
X58242857Y-44609285D01*
X58242857Y-44723571D01*
X58185714Y-44837857D01*
X58128571Y-44895000D01*
X58014285Y-44952142D01*
X57785714Y-45009285D01*
X57500000Y-45009285D01*
X57271428Y-44952142D01*
X57157142Y-44895000D01*
X57100000Y-44837857D01*
X57042857Y-44723571D01*
X60042857Y-45580714D02*
X60842857Y-45580714D01*
X59585714Y-45866428D02*
X60442857Y-46152142D01*
X60442857Y-45409285D01*
X60842857Y-44895000D02*
X60842857Y-44666428D01*
X60785714Y-44552142D01*
X60728571Y-44495000D01*
X60557142Y-44380714D01*
X60328571Y-44323571D01*
X59871428Y-44323571D01*
X59757142Y-44380714D01*
X59700000Y-44437857D01*
X59642857Y-44552142D01*
X59642857Y-44780714D01*
X59700000Y-44895000D01*
X59757142Y-44952142D01*
X59871428Y-45009285D01*
X60157142Y-45009285D01*
X60271428Y-44952142D01*
X60328571Y-44895000D01*
X60385714Y-44780714D01*
X60385714Y-44552142D01*
X60328571Y-44437857D01*
X60271428Y-44380714D01*
X60157142Y-44323571D01*
X62542857Y-45580714D02*
X63342857Y-45580714D01*
X62085714Y-45866428D02*
X62942857Y-46152142D01*
X62942857Y-45409285D01*
X62657142Y-44780714D02*
X62600000Y-44895000D01*
X62542857Y-44952142D01*
X62428571Y-45009285D01*
X62371428Y-45009285D01*
X62257142Y-44952142D01*
X62200000Y-44895000D01*
X62142857Y-44780714D01*
X62142857Y-44552142D01*
X62200000Y-44437857D01*
X62257142Y-44380714D01*
X62371428Y-44323571D01*
X62428571Y-44323571D01*
X62542857Y-44380714D01*
X62600000Y-44437857D01*
X62657142Y-44552142D01*
X62657142Y-44780714D01*
X62714285Y-44895000D01*
X62771428Y-44952142D01*
X62885714Y-45009285D01*
X63114285Y-45009285D01*
X63228571Y-44952142D01*
X63285714Y-44895000D01*
X63342857Y-44780714D01*
X63342857Y-44552142D01*
X63285714Y-44437857D01*
X63228571Y-44380714D01*
X63114285Y-44323571D01*
X62885714Y-44323571D01*
X62771428Y-44380714D01*
X62714285Y-44437857D01*
X62657142Y-44552142D01*
X65042857Y-45580714D02*
X65842857Y-45580714D01*
X64585714Y-45866428D02*
X65442857Y-46152142D01*
X65442857Y-45409285D01*
X64642857Y-45066428D02*
X64642857Y-44266428D01*
X65842857Y-44780714D01*
X67642857Y-45580714D02*
X68442857Y-45580714D01*
X67185714Y-45866428D02*
X68042857Y-46152142D01*
X68042857Y-45409285D01*
X67242857Y-44437857D02*
X67242857Y-44666428D01*
X67300000Y-44780714D01*
X67357142Y-44837857D01*
X67528571Y-44952142D01*
X67757142Y-45009285D01*
X68214285Y-45009285D01*
X68328571Y-44952142D01*
X68385714Y-44895000D01*
X68442857Y-44780714D01*
X68442857Y-44552142D01*
X68385714Y-44437857D01*
X68328571Y-44380714D01*
X68214285Y-44323571D01*
X67928571Y-44323571D01*
X67814285Y-44380714D01*
X67757142Y-44437857D01*
X67700000Y-44552142D01*
X67700000Y-44780714D01*
X67757142Y-44895000D01*
X67814285Y-44952142D01*
X67928571Y-45009285D01*
X70142857Y-45580714D02*
X70942857Y-45580714D01*
X69685714Y-45866428D02*
X70542857Y-46152142D01*
X70542857Y-45409285D01*
X69742857Y-44380714D02*
X69742857Y-44952142D01*
X70314285Y-45009285D01*
X70257142Y-44952142D01*
X70200000Y-44837857D01*
X70200000Y-44552142D01*
X70257142Y-44437857D01*
X70314285Y-44380714D01*
X70428571Y-44323571D01*
X70714285Y-44323571D01*
X70828571Y-44380714D01*
X70885714Y-44437857D01*
X70942857Y-44552142D01*
X70942857Y-44837857D01*
X70885714Y-44952142D01*
X70828571Y-45009285D01*
X78395000Y-41842857D02*
X78395000Y-42642857D01*
X78109285Y-41385714D02*
X77823571Y-42242857D01*
X78566428Y-42242857D01*
X78909285Y-41442857D02*
X79652142Y-41442857D01*
X79252142Y-41900000D01*
X79423571Y-41900000D01*
X79537857Y-41957142D01*
X79595000Y-42014285D01*
X79652142Y-42128571D01*
X79652142Y-42414285D01*
X79595000Y-42528571D01*
X79537857Y-42585714D01*
X79423571Y-42642857D01*
X79080714Y-42642857D01*
X78966428Y-42585714D01*
X78909285Y-42528571D01*
X76119285Y-45842857D02*
X76119285Y-46642857D01*
X75833571Y-45385714D02*
X75547857Y-46242857D01*
X76290714Y-46242857D01*
X76690714Y-45557142D02*
X76747857Y-45500000D01*
X76862142Y-45442857D01*
X77147857Y-45442857D01*
X77262142Y-45500000D01*
X77319285Y-45557142D01*
X77376428Y-45671428D01*
X77376428Y-45785714D01*
X77319285Y-45957142D01*
X76633571Y-46642857D01*
X77376428Y-46642857D01*
X76119285Y-48442857D02*
X76119285Y-49242857D01*
X75833571Y-47985714D02*
X75547857Y-48842857D01*
X76290714Y-48842857D01*
X77376428Y-49242857D02*
X76690714Y-49242857D01*
X77033571Y-49242857D02*
X77033571Y-48042857D01*
X76919285Y-48214285D01*
X76805000Y-48328571D01*
X76690714Y-48385714D01*
X76119285Y-51042857D02*
X76119285Y-51842857D01*
X75833571Y-50585714D02*
X75547857Y-51442857D01*
X76290714Y-51442857D01*
X76976428Y-50642857D02*
X77090714Y-50642857D01*
X77205000Y-50700000D01*
X77262142Y-50757142D01*
X77319285Y-50871428D01*
X77376428Y-51100000D01*
X77376428Y-51385714D01*
X77319285Y-51614285D01*
X77262142Y-51728571D01*
X77205000Y-51785714D01*
X77090714Y-51842857D01*
X76976428Y-51842857D01*
X76862142Y-51785714D01*
X76805000Y-51728571D01*
X76747857Y-51614285D01*
X76690714Y-51385714D01*
X76690714Y-51100000D01*
X76747857Y-50871428D01*
X76805000Y-50757142D01*
X76862142Y-50700000D01*
X76976428Y-50642857D01*
X75490714Y-53142857D02*
X76233571Y-53142857D01*
X75833571Y-53600000D01*
X76005000Y-53600000D01*
X76119285Y-53657142D01*
X76176428Y-53714285D01*
X76233571Y-53828571D01*
X76233571Y-54114285D01*
X76176428Y-54228571D01*
X76119285Y-54285714D01*
X76005000Y-54342857D01*
X75662142Y-54342857D01*
X75547857Y-54285714D01*
X75490714Y-54228571D01*
X76805000Y-54342857D02*
X77033571Y-54342857D01*
X77147857Y-54285714D01*
X77205000Y-54228571D01*
X77319285Y-54057142D01*
X77376428Y-53828571D01*
X77376428Y-53371428D01*
X77319285Y-53257142D01*
X77262142Y-53200000D01*
X77147857Y-53142857D01*
X76919285Y-53142857D01*
X76805000Y-53200000D01*
X76747857Y-53257142D01*
X76690714Y-53371428D01*
X76690714Y-53657142D01*
X76747857Y-53771428D01*
X76805000Y-53828571D01*
X76919285Y-53885714D01*
X77147857Y-53885714D01*
X77262142Y-53828571D01*
X77319285Y-53771428D01*
X77376428Y-53657142D01*
X75490714Y-55742857D02*
X76233571Y-55742857D01*
X75833571Y-56200000D01*
X76005000Y-56200000D01*
X76119285Y-56257142D01*
X76176428Y-56314285D01*
X76233571Y-56428571D01*
X76233571Y-56714285D01*
X76176428Y-56828571D01*
X76119285Y-56885714D01*
X76005000Y-56942857D01*
X75662142Y-56942857D01*
X75547857Y-56885714D01*
X75490714Y-56828571D01*
X76919285Y-56257142D02*
X76805000Y-56200000D01*
X76747857Y-56142857D01*
X76690714Y-56028571D01*
X76690714Y-55971428D01*
X76747857Y-55857142D01*
X76805000Y-55800000D01*
X76919285Y-55742857D01*
X77147857Y-55742857D01*
X77262142Y-55800000D01*
X77319285Y-55857142D01*
X77376428Y-55971428D01*
X77376428Y-56028571D01*
X77319285Y-56142857D01*
X77262142Y-56200000D01*
X77147857Y-56257142D01*
X76919285Y-56257142D01*
X76805000Y-56314285D01*
X76747857Y-56371428D01*
X76690714Y-56485714D01*
X76690714Y-56714285D01*
X76747857Y-56828571D01*
X76805000Y-56885714D01*
X76919285Y-56942857D01*
X77147857Y-56942857D01*
X77262142Y-56885714D01*
X77319285Y-56828571D01*
X77376428Y-56714285D01*
X77376428Y-56485714D01*
X77319285Y-56371428D01*
X77262142Y-56314285D01*
X77147857Y-56257142D01*
X75490714Y-58242857D02*
X76233571Y-58242857D01*
X75833571Y-58700000D01*
X76005000Y-58700000D01*
X76119285Y-58757142D01*
X76176428Y-58814285D01*
X76233571Y-58928571D01*
X76233571Y-59214285D01*
X76176428Y-59328571D01*
X76119285Y-59385714D01*
X76005000Y-59442857D01*
X75662142Y-59442857D01*
X75547857Y-59385714D01*
X75490714Y-59328571D01*
X76633571Y-58242857D02*
X77433571Y-58242857D01*
X76919285Y-59442857D01*
X75490714Y-60842857D02*
X76233571Y-60842857D01*
X75833571Y-61300000D01*
X76005000Y-61300000D01*
X76119285Y-61357142D01*
X76176428Y-61414285D01*
X76233571Y-61528571D01*
X76233571Y-61814285D01*
X76176428Y-61928571D01*
X76119285Y-61985714D01*
X76005000Y-62042857D01*
X75662142Y-62042857D01*
X75547857Y-61985714D01*
X75490714Y-61928571D01*
X77262142Y-60842857D02*
X77033571Y-60842857D01*
X76919285Y-60900000D01*
X76862142Y-60957142D01*
X76747857Y-61128571D01*
X76690714Y-61357142D01*
X76690714Y-61814285D01*
X76747857Y-61928571D01*
X76805000Y-61985714D01*
X76919285Y-62042857D01*
X77147857Y-62042857D01*
X77262142Y-61985714D01*
X77319285Y-61928571D01*
X77376428Y-61814285D01*
X77376428Y-61528571D01*
X77319285Y-61414285D01*
X77262142Y-61357142D01*
X77147857Y-61300000D01*
X76919285Y-61300000D01*
X76805000Y-61357142D01*
X76747857Y-61414285D01*
X76690714Y-61528571D01*
X75490714Y-63342857D02*
X76233571Y-63342857D01*
X75833571Y-63800000D01*
X76005000Y-63800000D01*
X76119285Y-63857142D01*
X76176428Y-63914285D01*
X76233571Y-64028571D01*
X76233571Y-64314285D01*
X76176428Y-64428571D01*
X76119285Y-64485714D01*
X76005000Y-64542857D01*
X75662142Y-64542857D01*
X75547857Y-64485714D01*
X75490714Y-64428571D01*
X77319285Y-63342857D02*
X76747857Y-63342857D01*
X76690714Y-63914285D01*
X76747857Y-63857142D01*
X76862142Y-63800000D01*
X77147857Y-63800000D01*
X77262142Y-63857142D01*
X77319285Y-63914285D01*
X77376428Y-64028571D01*
X77376428Y-64314285D01*
X77319285Y-64428571D01*
X77262142Y-64485714D01*
X77147857Y-64542857D01*
X76862142Y-64542857D01*
X76747857Y-64485714D01*
X76690714Y-64428571D01*
X75490714Y-65742857D02*
X76233571Y-65742857D01*
X75833571Y-66200000D01*
X76005000Y-66200000D01*
X76119285Y-66257142D01*
X76176428Y-66314285D01*
X76233571Y-66428571D01*
X76233571Y-66714285D01*
X76176428Y-66828571D01*
X76119285Y-66885714D01*
X76005000Y-66942857D01*
X75662142Y-66942857D01*
X75547857Y-66885714D01*
X75490714Y-66828571D01*
X77262142Y-66142857D02*
X77262142Y-66942857D01*
X76976428Y-65685714D02*
X76690714Y-66542857D01*
X77433571Y-66542857D01*
X75490714Y-68342857D02*
X76233571Y-68342857D01*
X75833571Y-68800000D01*
X76005000Y-68800000D01*
X76119285Y-68857142D01*
X76176428Y-68914285D01*
X76233571Y-69028571D01*
X76233571Y-69314285D01*
X76176428Y-69428571D01*
X76119285Y-69485714D01*
X76005000Y-69542857D01*
X75662142Y-69542857D01*
X75547857Y-69485714D01*
X75490714Y-69428571D01*
X76633571Y-68342857D02*
X77376428Y-68342857D01*
X76976428Y-68800000D01*
X77147857Y-68800000D01*
X77262142Y-68857142D01*
X77319285Y-68914285D01*
X77376428Y-69028571D01*
X77376428Y-69314285D01*
X77319285Y-69428571D01*
X77262142Y-69485714D01*
X77147857Y-69542857D01*
X76805000Y-69542857D01*
X76690714Y-69485714D01*
X76633571Y-69428571D01*
X75490714Y-70742857D02*
X76233571Y-70742857D01*
X75833571Y-71200000D01*
X76005000Y-71200000D01*
X76119285Y-71257142D01*
X76176428Y-71314285D01*
X76233571Y-71428571D01*
X76233571Y-71714285D01*
X76176428Y-71828571D01*
X76119285Y-71885714D01*
X76005000Y-71942857D01*
X75662142Y-71942857D01*
X75547857Y-71885714D01*
X75490714Y-71828571D01*
X76690714Y-70857142D02*
X76747857Y-70800000D01*
X76862142Y-70742857D01*
X77147857Y-70742857D01*
X77262142Y-70800000D01*
X77319285Y-70857142D01*
X77376428Y-70971428D01*
X77376428Y-71085714D01*
X77319285Y-71257142D01*
X76633571Y-71942857D01*
X77376428Y-71942857D01*
X75490714Y-73342857D02*
X76233571Y-73342857D01*
X75833571Y-73800000D01*
X76005000Y-73800000D01*
X76119285Y-73857142D01*
X76176428Y-73914285D01*
X76233571Y-74028571D01*
X76233571Y-74314285D01*
X76176428Y-74428571D01*
X76119285Y-74485714D01*
X76005000Y-74542857D01*
X75662142Y-74542857D01*
X75547857Y-74485714D01*
X75490714Y-74428571D01*
X77376428Y-74542857D02*
X76690714Y-74542857D01*
X77033571Y-74542857D02*
X77033571Y-73342857D01*
X76919285Y-73514285D01*
X76805000Y-73628571D01*
X76690714Y-73685714D01*
X75490714Y-75942857D02*
X76233571Y-75942857D01*
X75833571Y-76400000D01*
X76005000Y-76400000D01*
X76119285Y-76457142D01*
X76176428Y-76514285D01*
X76233571Y-76628571D01*
X76233571Y-76914285D01*
X76176428Y-77028571D01*
X76119285Y-77085714D01*
X76005000Y-77142857D01*
X75662142Y-77142857D01*
X75547857Y-77085714D01*
X75490714Y-77028571D01*
X76976428Y-75942857D02*
X77090714Y-75942857D01*
X77205000Y-76000000D01*
X77262142Y-76057142D01*
X77319285Y-76171428D01*
X77376428Y-76400000D01*
X77376428Y-76685714D01*
X77319285Y-76914285D01*
X77262142Y-77028571D01*
X77205000Y-77085714D01*
X77090714Y-77142857D01*
X76976428Y-77142857D01*
X76862142Y-77085714D01*
X76805000Y-77028571D01*
X76747857Y-76914285D01*
X76690714Y-76685714D01*
X76690714Y-76400000D01*
X76747857Y-76171428D01*
X76805000Y-76057142D01*
X76862142Y-76000000D01*
X76976428Y-75942857D01*
X77657142Y-83576428D02*
X77600000Y-83519285D01*
X77542857Y-83405000D01*
X77542857Y-83119285D01*
X77600000Y-83005000D01*
X77657142Y-82947857D01*
X77771428Y-82890714D01*
X77885714Y-82890714D01*
X78057142Y-82947857D01*
X78742857Y-83633571D01*
X78742857Y-82890714D01*
X78057142Y-82205000D02*
X78000000Y-82319285D01*
X77942857Y-82376428D01*
X77828571Y-82433571D01*
X77771428Y-82433571D01*
X77657142Y-82376428D01*
X77600000Y-82319285D01*
X77542857Y-82205000D01*
X77542857Y-81976428D01*
X77600000Y-81862142D01*
X77657142Y-81805000D01*
X77771428Y-81747857D01*
X77828571Y-81747857D01*
X77942857Y-81805000D01*
X78000000Y-81862142D01*
X78057142Y-81976428D01*
X78057142Y-82205000D01*
X78114285Y-82319285D01*
X78171428Y-82376428D01*
X78285714Y-82433571D01*
X78514285Y-82433571D01*
X78628571Y-82376428D01*
X78685714Y-82319285D01*
X78742857Y-82205000D01*
X78742857Y-81976428D01*
X78685714Y-81862142D01*
X78628571Y-81805000D01*
X78514285Y-81747857D01*
X78285714Y-81747857D01*
X78171428Y-81805000D01*
X78114285Y-81862142D01*
X78057142Y-81976428D01*
X72357142Y-80876428D02*
X72300000Y-80819285D01*
X72242857Y-80705000D01*
X72242857Y-80419285D01*
X72300000Y-80305000D01*
X72357142Y-80247857D01*
X72471428Y-80190714D01*
X72585714Y-80190714D01*
X72757142Y-80247857D01*
X73442857Y-80933571D01*
X73442857Y-80190714D01*
X72242857Y-79790714D02*
X72242857Y-78990714D01*
X73442857Y-79505000D01*
X69857142Y-80876428D02*
X69800000Y-80819285D01*
X69742857Y-80705000D01*
X69742857Y-80419285D01*
X69800000Y-80305000D01*
X69857142Y-80247857D01*
X69971428Y-80190714D01*
X70085714Y-80190714D01*
X70257142Y-80247857D01*
X70942857Y-80933571D01*
X70942857Y-80190714D01*
X69742857Y-79162142D02*
X69742857Y-79390714D01*
X69800000Y-79505000D01*
X69857142Y-79562142D01*
X70028571Y-79676428D01*
X70257142Y-79733571D01*
X70714285Y-79733571D01*
X70828571Y-79676428D01*
X70885714Y-79619285D01*
X70942857Y-79505000D01*
X70942857Y-79276428D01*
X70885714Y-79162142D01*
X70828571Y-79105000D01*
X70714285Y-79047857D01*
X70428571Y-79047857D01*
X70314285Y-79105000D01*
X70257142Y-79162142D01*
X70200000Y-79276428D01*
X70200000Y-79505000D01*
X70257142Y-79619285D01*
X70314285Y-79676428D01*
X70428571Y-79733571D01*
X67357142Y-80876428D02*
X67300000Y-80819285D01*
X67242857Y-80705000D01*
X67242857Y-80419285D01*
X67300000Y-80305000D01*
X67357142Y-80247857D01*
X67471428Y-80190714D01*
X67585714Y-80190714D01*
X67757142Y-80247857D01*
X68442857Y-80933571D01*
X68442857Y-80190714D01*
X67242857Y-79105000D02*
X67242857Y-79676428D01*
X67814285Y-79733571D01*
X67757142Y-79676428D01*
X67700000Y-79562142D01*
X67700000Y-79276428D01*
X67757142Y-79162142D01*
X67814285Y-79105000D01*
X67928571Y-79047857D01*
X68214285Y-79047857D01*
X68328571Y-79105000D01*
X68385714Y-79162142D01*
X68442857Y-79276428D01*
X68442857Y-79562142D01*
X68385714Y-79676428D01*
X68328571Y-79733571D01*
X64757142Y-80876428D02*
X64700000Y-80819285D01*
X64642857Y-80705000D01*
X64642857Y-80419285D01*
X64700000Y-80305000D01*
X64757142Y-80247857D01*
X64871428Y-80190714D01*
X64985714Y-80190714D01*
X65157142Y-80247857D01*
X65842857Y-80933571D01*
X65842857Y-80190714D01*
X65042857Y-79162142D02*
X65842857Y-79162142D01*
X64585714Y-79447857D02*
X65442857Y-79733571D01*
X65442857Y-78990714D01*
X62257142Y-80876428D02*
X62200000Y-80819285D01*
X62142857Y-80705000D01*
X62142857Y-80419285D01*
X62200000Y-80305000D01*
X62257142Y-80247857D01*
X62371428Y-80190714D01*
X62485714Y-80190714D01*
X62657142Y-80247857D01*
X63342857Y-80933571D01*
X63342857Y-80190714D01*
X62142857Y-79790714D02*
X62142857Y-79047857D01*
X62600000Y-79447857D01*
X62600000Y-79276428D01*
X62657142Y-79162142D01*
X62714285Y-79105000D01*
X62828571Y-79047857D01*
X63114285Y-79047857D01*
X63228571Y-79105000D01*
X63285714Y-79162142D01*
X63342857Y-79276428D01*
X63342857Y-79619285D01*
X63285714Y-79733571D01*
X63228571Y-79790714D01*
X59657142Y-80876428D02*
X59600000Y-80819285D01*
X59542857Y-80705000D01*
X59542857Y-80419285D01*
X59600000Y-80305000D01*
X59657142Y-80247857D01*
X59771428Y-80190714D01*
X59885714Y-80190714D01*
X60057142Y-80247857D01*
X60742857Y-80933571D01*
X60742857Y-80190714D01*
X59657142Y-79733571D02*
X59600000Y-79676428D01*
X59542857Y-79562142D01*
X59542857Y-79276428D01*
X59600000Y-79162142D01*
X59657142Y-79105000D01*
X59771428Y-79047857D01*
X59885714Y-79047857D01*
X60057142Y-79105000D01*
X60742857Y-79790714D01*
X60742857Y-79047857D01*
X57157142Y-80876428D02*
X57100000Y-80819285D01*
X57042857Y-80705000D01*
X57042857Y-80419285D01*
X57100000Y-80305000D01*
X57157142Y-80247857D01*
X57271428Y-80190714D01*
X57385714Y-80190714D01*
X57557142Y-80247857D01*
X58242857Y-80933571D01*
X58242857Y-80190714D01*
X58242857Y-79047857D02*
X58242857Y-79733571D01*
X58242857Y-79390714D02*
X57042857Y-79390714D01*
X57214285Y-79505000D01*
X57328571Y-79619285D01*
X57385714Y-79733571D01*
X54657142Y-80876428D02*
X54600000Y-80819285D01*
X54542857Y-80705000D01*
X54542857Y-80419285D01*
X54600000Y-80305000D01*
X54657142Y-80247857D01*
X54771428Y-80190714D01*
X54885714Y-80190714D01*
X55057142Y-80247857D01*
X55742857Y-80933571D01*
X55742857Y-80190714D01*
X54542857Y-79447857D02*
X54542857Y-79333571D01*
X54600000Y-79219285D01*
X54657142Y-79162142D01*
X54771428Y-79105000D01*
X55000000Y-79047857D01*
X55285714Y-79047857D01*
X55514285Y-79105000D01*
X55628571Y-79162142D01*
X55685714Y-79219285D01*
X55742857Y-79333571D01*
X55742857Y-79447857D01*
X55685714Y-79562142D01*
X55628571Y-79619285D01*
X55514285Y-79676428D01*
X55285714Y-79733571D01*
X55000000Y-79733571D01*
X54771428Y-79676428D01*
X54657142Y-79619285D01*
X54600000Y-79562142D01*
X54542857Y-79447857D01*
X53242857Y-80190714D02*
X53242857Y-80876428D01*
X53242857Y-80533571D02*
X52042857Y-80533571D01*
X52214285Y-80647857D01*
X52328571Y-80762142D01*
X52385714Y-80876428D01*
X53242857Y-79619285D02*
X53242857Y-79390714D01*
X53185714Y-79276428D01*
X53128571Y-79219285D01*
X52957142Y-79105000D01*
X52728571Y-79047857D01*
X52271428Y-79047857D01*
X52157142Y-79105000D01*
X52100000Y-79162142D01*
X52042857Y-79276428D01*
X52042857Y-79505000D01*
X52100000Y-79619285D01*
X52157142Y-79676428D01*
X52271428Y-79733571D01*
X52557142Y-79733571D01*
X52671428Y-79676428D01*
X52728571Y-79619285D01*
X52785714Y-79505000D01*
X52785714Y-79276428D01*
X52728571Y-79162142D01*
X52671428Y-79105000D01*
X52557142Y-79047857D01*
X50642857Y-80190714D02*
X50642857Y-80876428D01*
X50642857Y-80533571D02*
X49442857Y-80533571D01*
X49614285Y-80647857D01*
X49728571Y-80762142D01*
X49785714Y-80876428D01*
X49957142Y-79505000D02*
X49900000Y-79619285D01*
X49842857Y-79676428D01*
X49728571Y-79733571D01*
X49671428Y-79733571D01*
X49557142Y-79676428D01*
X49500000Y-79619285D01*
X49442857Y-79505000D01*
X49442857Y-79276428D01*
X49500000Y-79162142D01*
X49557142Y-79105000D01*
X49671428Y-79047857D01*
X49728571Y-79047857D01*
X49842857Y-79105000D01*
X49900000Y-79162142D01*
X49957142Y-79276428D01*
X49957142Y-79505000D01*
X50014285Y-79619285D01*
X50071428Y-79676428D01*
X50185714Y-79733571D01*
X50414285Y-79733571D01*
X50528571Y-79676428D01*
X50585714Y-79619285D01*
X50642857Y-79505000D01*
X50642857Y-79276428D01*
X50585714Y-79162142D01*
X50528571Y-79105000D01*
X50414285Y-79047857D01*
X50185714Y-79047857D01*
X50071428Y-79105000D01*
X50014285Y-79162142D01*
X49957142Y-79276428D01*
X48142857Y-80190714D02*
X48142857Y-80876428D01*
X48142857Y-80533571D02*
X46942857Y-80533571D01*
X47114285Y-80647857D01*
X47228571Y-80762142D01*
X47285714Y-80876428D01*
X46942857Y-79790714D02*
X46942857Y-78990714D01*
X48142857Y-79505000D01*
X40509285Y-79542857D02*
X39823571Y-79542857D01*
X40166428Y-79542857D02*
X40166428Y-78342857D01*
X40052142Y-78514285D01*
X39937857Y-78628571D01*
X39823571Y-78685714D01*
X41537857Y-78742857D02*
X41537857Y-79542857D01*
X41252142Y-78285714D02*
X40966428Y-79142857D01*
X41709285Y-79142857D01*
X40509285Y-76942857D02*
X39823571Y-76942857D01*
X40166428Y-76942857D02*
X40166428Y-75742857D01*
X40052142Y-75914285D01*
X39937857Y-76028571D01*
X39823571Y-76085714D01*
X40909285Y-75742857D02*
X41652142Y-75742857D01*
X41252142Y-76200000D01*
X41423571Y-76200000D01*
X41537857Y-76257142D01*
X41595000Y-76314285D01*
X41652142Y-76428571D01*
X41652142Y-76714285D01*
X41595000Y-76828571D01*
X41537857Y-76885714D01*
X41423571Y-76942857D01*
X41080714Y-76942857D01*
X40966428Y-76885714D01*
X40909285Y-76828571D01*
X40509285Y-74442857D02*
X39823571Y-74442857D01*
X40166428Y-74442857D02*
X40166428Y-73242857D01*
X40052142Y-73414285D01*
X39937857Y-73528571D01*
X39823571Y-73585714D01*
X40966428Y-73357142D02*
X41023571Y-73300000D01*
X41137857Y-73242857D01*
X41423571Y-73242857D01*
X41537857Y-73300000D01*
X41595000Y-73357142D01*
X41652142Y-73471428D01*
X41652142Y-73585714D01*
X41595000Y-73757142D01*
X40909285Y-74442857D01*
X41652142Y-74442857D01*
X39076428Y-41442857D02*
X38505000Y-41442857D01*
X38447857Y-42014285D01*
X38505000Y-41957142D01*
X38619285Y-41900000D01*
X38905000Y-41900000D01*
X39019285Y-41957142D01*
X39076428Y-42014285D01*
X39133571Y-42128571D01*
X39133571Y-42414285D01*
X39076428Y-42528571D01*
X39019285Y-42585714D01*
X38905000Y-42642857D01*
X38619285Y-42642857D01*
X38505000Y-42585714D01*
X38447857Y-42528571D01*
X40162142Y-41442857D02*
X39933571Y-41442857D01*
X39819285Y-41500000D01*
X39762142Y-41557142D01*
X39647857Y-41728571D01*
X39590714Y-41957142D01*
X39590714Y-42414285D01*
X39647857Y-42528571D01*
X39705000Y-42585714D01*
X39819285Y-42642857D01*
X40047857Y-42642857D01*
X40162142Y-42585714D01*
X40219285Y-42528571D01*
X40276428Y-42414285D01*
X40276428Y-42128571D01*
X40219285Y-42014285D01*
X40162142Y-41957142D01*
X40047857Y-41900000D01*
X39819285Y-41900000D01*
X39705000Y-41957142D01*
X39647857Y-42014285D01*
X39590714Y-42128571D01*
X72742857Y-45580714D02*
X73542857Y-45580714D01*
X72285714Y-45866428D02*
X73142857Y-46152142D01*
X73142857Y-45409285D01*
X72742857Y-44437857D02*
X73542857Y-44437857D01*
X72285714Y-44723571D02*
X73142857Y-45009285D01*
X73142857Y-44266428D01*
X75547857Y-78557142D02*
X75605000Y-78500000D01*
X75719285Y-78442857D01*
X76005000Y-78442857D01*
X76119285Y-78500000D01*
X76176428Y-78557142D01*
X76233571Y-78671428D01*
X76233571Y-78785714D01*
X76176428Y-78957142D01*
X75490714Y-79642857D01*
X76233571Y-79642857D01*
X76805000Y-79642857D02*
X77033571Y-79642857D01*
X77147857Y-79585714D01*
X77205000Y-79528571D01*
X77319285Y-79357142D01*
X77376428Y-79128571D01*
X77376428Y-78671428D01*
X77319285Y-78557142D01*
X77262142Y-78500000D01*
X77147857Y-78442857D01*
X76919285Y-78442857D01*
X76805000Y-78500000D01*
X76747857Y-78557142D01*
X76690714Y-78671428D01*
X76690714Y-78957142D01*
X76747857Y-79071428D01*
X76805000Y-79128571D01*
X76919285Y-79185714D01*
X77147857Y-79185714D01*
X77262142Y-79128571D01*
X77319285Y-79071428D01*
X77376428Y-78957142D01*
D11*
X76400000Y-27600000D02*
G75*
G02X81400000Y-32600000I0J-5000000D01*
G01*
X35800000Y-32600000D02*
G75*
G02X40800000Y-27600000I5000000J0D01*
G01*
X81400000Y-79900000D02*
G75*
G02X76400000Y-84900000I-5000000J0D01*
G01*
D10*
X40509285Y-69342857D02*
X39823571Y-69342857D01*
X40166428Y-69342857D02*
X40166428Y-68142857D01*
X40052142Y-68314285D01*
X39937857Y-68428571D01*
X39823571Y-68485714D01*
X41252142Y-68142857D02*
X41366428Y-68142857D01*
X41480714Y-68200000D01*
X41537857Y-68257142D01*
X41595000Y-68371428D01*
X41652142Y-68600000D01*
X41652142Y-68885714D01*
X41595000Y-69114285D01*
X41537857Y-69228571D01*
X41480714Y-69285714D01*
X41366428Y-69342857D01*
X41252142Y-69342857D01*
X41137857Y-69285714D01*
X41080714Y-69228571D01*
X41023571Y-69114285D01*
X40966428Y-68885714D01*
X40966428Y-68600000D01*
X41023571Y-68371428D01*
X41080714Y-68257142D01*
X41137857Y-68200000D01*
X41252142Y-68142857D01*
X39937857Y-66742857D02*
X40166428Y-66742857D01*
X40280714Y-66685714D01*
X40337857Y-66628571D01*
X40452142Y-66457142D01*
X40509285Y-66228571D01*
X40509285Y-65771428D01*
X40452142Y-65657142D01*
X40395000Y-65600000D01*
X40280714Y-65542857D01*
X40052142Y-65542857D01*
X39937857Y-65600000D01*
X39880714Y-65657142D01*
X39823571Y-65771428D01*
X39823571Y-66057142D01*
X39880714Y-66171428D01*
X39937857Y-66228571D01*
X40052142Y-66285714D01*
X40280714Y-66285714D01*
X40395000Y-66228571D01*
X40452142Y-66171428D01*
X40509285Y-66057142D01*
X40052142Y-63457142D02*
X39937857Y-63400000D01*
X39880714Y-63342857D01*
X39823571Y-63228571D01*
X39823571Y-63171428D01*
X39880714Y-63057142D01*
X39937857Y-63000000D01*
X40052142Y-62942857D01*
X40280714Y-62942857D01*
X40395000Y-63000000D01*
X40452142Y-63057142D01*
X40509285Y-63171428D01*
X40509285Y-63228571D01*
X40452142Y-63342857D01*
X40395000Y-63400000D01*
X40280714Y-63457142D01*
X40052142Y-63457142D01*
X39937857Y-63514285D01*
X39880714Y-63571428D01*
X39823571Y-63685714D01*
X39823571Y-63914285D01*
X39880714Y-64028571D01*
X39937857Y-64085714D01*
X40052142Y-64142857D01*
X40280714Y-64142857D01*
X40395000Y-64085714D01*
X40452142Y-64028571D01*
X40509285Y-63914285D01*
X40509285Y-63685714D01*
X40452142Y-63571428D01*
X40395000Y-63514285D01*
X40280714Y-63457142D01*
X39766428Y-60442857D02*
X40566428Y-60442857D01*
X40052142Y-61642857D01*
X40395000Y-57942857D02*
X40166428Y-57942857D01*
X40052142Y-58000000D01*
X39995000Y-58057142D01*
X39880714Y-58228571D01*
X39823571Y-58457142D01*
X39823571Y-58914285D01*
X39880714Y-59028571D01*
X39937857Y-59085714D01*
X40052142Y-59142857D01*
X40280714Y-59142857D01*
X40395000Y-59085714D01*
X40452142Y-59028571D01*
X40509285Y-58914285D01*
X40509285Y-58628571D01*
X40452142Y-58514285D01*
X40395000Y-58457142D01*
X40280714Y-58400000D01*
X40052142Y-58400000D01*
X39937857Y-58457142D01*
X39880714Y-58514285D01*
X39823571Y-58628571D01*
X40452142Y-55442857D02*
X39880714Y-55442857D01*
X39823571Y-56014285D01*
X39880714Y-55957142D01*
X39995000Y-55900000D01*
X40280714Y-55900000D01*
X40395000Y-55957142D01*
X40452142Y-56014285D01*
X40509285Y-56128571D01*
X40509285Y-56414285D01*
X40452142Y-56528571D01*
X40395000Y-56585714D01*
X40280714Y-56642857D01*
X39995000Y-56642857D01*
X39880714Y-56585714D01*
X39823571Y-56528571D01*
X40395000Y-53342857D02*
X40395000Y-54142857D01*
X40109285Y-52885714D02*
X39823571Y-53742857D01*
X40566428Y-53742857D01*
X39766428Y-50342857D02*
X40509285Y-50342857D01*
X40109285Y-50800000D01*
X40280714Y-50800000D01*
X40395000Y-50857142D01*
X40452142Y-50914285D01*
X40509285Y-51028571D01*
X40509285Y-51314285D01*
X40452142Y-51428571D01*
X40395000Y-51485714D01*
X40280714Y-51542857D01*
X39937857Y-51542857D01*
X39823571Y-51485714D01*
X39766428Y-51428571D01*
X45542857Y-80190714D02*
X45542857Y-80876428D01*
X45542857Y-80533571D02*
X44342857Y-80533571D01*
X44514285Y-80647857D01*
X44628571Y-80762142D01*
X44685714Y-80876428D01*
X44342857Y-79162142D02*
X44342857Y-79390714D01*
X44400000Y-79505000D01*
X44457142Y-79562142D01*
X44628571Y-79676428D01*
X44857142Y-79733571D01*
X45314285Y-79733571D01*
X45428571Y-79676428D01*
X45485714Y-79619285D01*
X45542857Y-79505000D01*
X45542857Y-79276428D01*
X45485714Y-79162142D01*
X45428571Y-79105000D01*
X45314285Y-79047857D01*
X45028571Y-79047857D01*
X44914285Y-79105000D01*
X44857142Y-79162142D01*
X44800000Y-79276428D01*
X44800000Y-79505000D01*
X44857142Y-79619285D01*
X44914285Y-79676428D01*
X45028571Y-79733571D01*
X40242857Y-82890714D02*
X40242857Y-83576428D01*
X40242857Y-83233571D02*
X39042857Y-83233571D01*
X39214285Y-83347857D01*
X39328571Y-83462142D01*
X39385714Y-83576428D01*
X39042857Y-81805000D02*
X39042857Y-82376428D01*
X39614285Y-82433571D01*
X39557142Y-82376428D01*
X39500000Y-82262142D01*
X39500000Y-81976428D01*
X39557142Y-81862142D01*
X39614285Y-81805000D01*
X39728571Y-81747857D01*
X40014285Y-81747857D01*
X40128571Y-81805000D01*
X40185714Y-81862142D01*
X40242857Y-81976428D01*
X40242857Y-82262142D01*
X40185714Y-82376428D01*
X40128571Y-82433571D01*
X40509285Y-71842857D02*
X39823571Y-71842857D01*
X40166428Y-71842857D02*
X40166428Y-70642857D01*
X40052142Y-70814285D01*
X39937857Y-70928571D01*
X39823571Y-70985714D01*
X41652142Y-71842857D02*
X40966428Y-71842857D01*
X41309285Y-71842857D02*
X41309285Y-70642857D01*
X41195000Y-70814285D01*
X41080714Y-70928571D01*
X40966428Y-70985714D01*
X39823571Y-47957142D02*
X39880714Y-47900000D01*
X39995000Y-47842857D01*
X40280714Y-47842857D01*
X40395000Y-47900000D01*
X40452142Y-47957142D01*
X40509285Y-48071428D01*
X40509285Y-48185714D01*
X40452142Y-48357142D01*
X39766428Y-49042857D01*
X40509285Y-49042857D01*
D11*
X40800000Y-84900000D02*
G75*
G02X35800000Y-79900000I0J5000000D01*
G01*
D10*
X40509285Y-46542857D02*
X39823571Y-46542857D01*
X40166428Y-46542857D02*
X40166428Y-45342857D01*
X40052142Y-45514285D01*
X39937857Y-45628571D01*
X39823571Y-45685714D01*
D11*
X76400000Y-84900000D02*
X40800000Y-84900000D01*
G36*
X80900000Y-39100000D02*
G01*
X36300000Y-39100000D01*
X36300000Y-34100000D01*
X80900000Y-34100000D01*
X80900000Y-39100000D01*
G37*
X80900000Y-39100000D02*
X36300000Y-39100000D01*
X36300000Y-34100000D01*
X80900000Y-34100000D01*
X80900000Y-39100000D01*
X81400000Y-32600000D02*
X81400000Y-79900000D01*
D10*
X55921428Y-30546428D02*
X55778571Y-30475000D01*
X55635714Y-30332142D01*
X55421428Y-30117857D01*
X55278571Y-30046428D01*
X55135714Y-30046428D01*
X55207142Y-30403571D02*
X55064285Y-30332142D01*
X54921428Y-30189285D01*
X54850000Y-29903571D01*
X54850000Y-29403571D01*
X54921428Y-29117857D01*
X55064285Y-28975000D01*
X55207142Y-28903571D01*
X55492857Y-28903571D01*
X55635714Y-28975000D01*
X55778571Y-29117857D01*
X55850000Y-29403571D01*
X55850000Y-29903571D01*
X55778571Y-30189285D01*
X55635714Y-30332142D01*
X55492857Y-30403571D01*
X55207142Y-30403571D01*
X56992857Y-29617857D02*
X56492857Y-29617857D01*
X56492857Y-30403571D02*
X56492857Y-28903571D01*
X57207142Y-28903571D01*
X57778571Y-30403571D02*
X57778571Y-28903571D01*
X58350000Y-28903571D01*
X58492857Y-28975000D01*
X58564285Y-29046428D01*
X58635714Y-29189285D01*
X58635714Y-29403571D01*
X58564285Y-29546428D01*
X58492857Y-29617857D01*
X58350000Y-29689285D01*
X57778571Y-29689285D01*
X59278571Y-29832142D02*
X60421428Y-29832142D01*
X61850000Y-28903571D02*
X61135714Y-28903571D01*
X61064285Y-29617857D01*
X61135714Y-29546428D01*
X61278571Y-29475000D01*
X61635714Y-29475000D01*
X61778571Y-29546428D01*
X61850000Y-29617857D01*
X61921428Y-29760714D01*
X61921428Y-30117857D01*
X61850000Y-30260714D01*
X61778571Y-30332142D01*
X61635714Y-30403571D01*
X61278571Y-30403571D01*
X61135714Y-30332142D01*
X61064285Y-30260714D01*
X63207142Y-28903571D02*
X62921428Y-28903571D01*
X62778571Y-28975000D01*
X62707142Y-29046428D01*
X62564285Y-29260714D01*
X62492857Y-29546428D01*
X62492857Y-30117857D01*
X62564285Y-30260714D01*
X62635714Y-30332142D01*
X62778571Y-30403571D01*
X63064285Y-30403571D01*
X63207142Y-30332142D01*
X63278571Y-30260714D01*
X63350000Y-30117857D01*
X63350000Y-29760714D01*
X63278571Y-29617857D01*
X63207142Y-29546428D01*
X63064285Y-29475000D01*
X62778571Y-29475000D01*
X62635714Y-29546428D01*
X62564285Y-29617857D01*
X62492857Y-29760714D01*
X52600000Y-32953571D02*
X51742857Y-32953571D01*
X52171428Y-32953571D02*
X52171428Y-31453571D01*
X52028571Y-31667857D01*
X51885714Y-31810714D01*
X51742857Y-31882142D01*
X53528571Y-31453571D02*
X53671428Y-31453571D01*
X53814285Y-31525000D01*
X53885714Y-31596428D01*
X53957142Y-31739285D01*
X54028571Y-32025000D01*
X54028571Y-32382142D01*
X53957142Y-32667857D01*
X53885714Y-32810714D01*
X53814285Y-32882142D01*
X53671428Y-32953571D01*
X53528571Y-32953571D01*
X53385714Y-32882142D01*
X53314285Y-32810714D01*
X53242857Y-32667857D01*
X53171428Y-32382142D01*
X53171428Y-32025000D01*
X53242857Y-31739285D01*
X53314285Y-31596428D01*
X53385714Y-31525000D01*
X53528571Y-31453571D01*
X54528571Y-32953571D02*
X55314285Y-31953571D01*
X54528571Y-31953571D02*
X55314285Y-32953571D01*
X56671428Y-32953571D02*
X55814285Y-32953571D01*
X56242857Y-32953571D02*
X56242857Y-31453571D01*
X56100000Y-31667857D01*
X55957142Y-31810714D01*
X55814285Y-31882142D01*
X57600000Y-31453571D02*
X57742857Y-31453571D01*
X57885714Y-31525000D01*
X57957142Y-31596428D01*
X58028571Y-31739285D01*
X58100000Y-32025000D01*
X58100000Y-32382142D01*
X58028571Y-32667857D01*
X57957142Y-32810714D01*
X57885714Y-32882142D01*
X57742857Y-32953571D01*
X57600000Y-32953571D01*
X57457142Y-32882142D01*
X57385714Y-32810714D01*
X57314285Y-32667857D01*
X57242857Y-32382142D01*
X57242857Y-32025000D01*
X57314285Y-31739285D01*
X57385714Y-31596428D01*
X57457142Y-31525000D01*
X57600000Y-31453571D01*
X58742857Y-32382142D02*
X59885714Y-32382142D01*
X60600000Y-32953571D02*
X60600000Y-31453571D01*
X61171428Y-31453571D01*
X61314285Y-31525000D01*
X61385714Y-31596428D01*
X61457142Y-31739285D01*
X61457142Y-31953571D01*
X61385714Y-32096428D01*
X61314285Y-32167857D01*
X61171428Y-32239285D01*
X60600000Y-32239285D01*
X62385714Y-31453571D02*
X62528571Y-31453571D01*
X62671428Y-31525000D01*
X62742857Y-31596428D01*
X62814285Y-31739285D01*
X62885714Y-32025000D01*
X62885714Y-32382142D01*
X62814285Y-32667857D01*
X62742857Y-32810714D01*
X62671428Y-32882142D01*
X62528571Y-32953571D01*
X62385714Y-32953571D01*
X62242857Y-32882142D01*
X62171428Y-32810714D01*
X62100000Y-32667857D01*
X62028571Y-32382142D01*
X62028571Y-32025000D01*
X62100000Y-31739285D01*
X62171428Y-31596428D01*
X62242857Y-31525000D01*
X62385714Y-31453571D01*
X63528571Y-32810714D02*
X63600000Y-32882142D01*
X63528571Y-32953571D01*
X63457142Y-32882142D01*
X63528571Y-32810714D01*
X63528571Y-32953571D01*
X64885714Y-31453571D02*
X64600000Y-31453571D01*
X64457142Y-31525000D01*
X64385714Y-31596428D01*
X64242857Y-31810714D01*
X64171428Y-32096428D01*
X64171428Y-32667857D01*
X64242857Y-32810714D01*
X64314285Y-32882142D01*
X64457142Y-32953571D01*
X64742857Y-32953571D01*
X64885714Y-32882142D01*
X64957142Y-32810714D01*
X65028571Y-32667857D01*
X65028571Y-32310714D01*
X64957142Y-32167857D01*
X64885714Y-32096428D01*
X64742857Y-32025000D01*
X64457142Y-32025000D01*
X64314285Y-32096428D01*
X64242857Y-32167857D01*
X64171428Y-32310714D01*
X66385714Y-31453571D02*
X65671428Y-31453571D01*
X65600000Y-32167857D01*
X65671428Y-32096428D01*
X65814285Y-32025000D01*
X66171428Y-32025000D01*
X66314285Y-32096428D01*
X66385714Y-32167857D01*
X66457142Y-32310714D01*
X66457142Y-32667857D01*
X66385714Y-32810714D01*
X66314285Y-32882142D01*
X66171428Y-32953571D01*
X65814285Y-32953571D01*
X65671428Y-32882142D01*
X65600000Y-32810714D01*
D11*
X40800000Y-27600000D02*
X76400000Y-27600000D01*
X35800000Y-79900000D02*
X35800000Y-32600000D01*
D12*
X53990000Y-57865000D02*
X52400000Y-57865000D01*
X53990000Y-57490000D02*
X53990000Y-57865000D01*
X54365000Y-57490000D02*
X53990000Y-57490000D01*
X64210000Y-57490000D02*
X64210000Y-57865000D01*
X63835000Y-57490000D02*
X64210000Y-57490000D01*
X53990000Y-67710000D02*
X53990000Y-67335000D01*
X54365000Y-67710000D02*
X53990000Y-67710000D01*
X64210000Y-67710000D02*
X64210000Y-67335000D01*
X63835000Y-67710000D02*
X64210000Y-67710000D01*
X41190000Y-40770000D02*
X41190000Y-43430000D01*
X74270000Y-40770000D02*
X41190000Y-40770000D01*
X74270000Y-43430000D02*
X41190000Y-43430000D01*
X74270000Y-40770000D02*
X74270000Y-43430000D01*
X75540000Y-40770000D02*
X76870000Y-40770000D01*
X76870000Y-40770000D02*
X76870000Y-42100000D01*
X80930000Y-44750000D02*
X78270000Y-44750000D01*
X80930000Y-77830000D02*
X80930000Y-44750000D01*
X78270000Y-77830000D02*
X78270000Y-44750000D01*
X80930000Y-77830000D02*
X78270000Y-77830000D01*
X80930000Y-79100000D02*
X80930000Y-80430000D01*
X80930000Y-80430000D02*
X79600000Y-80430000D01*
X41130000Y-84430000D02*
X41130000Y-83100000D01*
X42460000Y-84430000D02*
X41130000Y-84430000D01*
X43730000Y-84430000D02*
X43730000Y-81770000D01*
X43730000Y-81770000D02*
X76810000Y-81770000D01*
X43730000Y-84430000D02*
X76810000Y-84430000D01*
X76810000Y-84430000D02*
X76810000Y-81770000D01*
X36270000Y-44670000D02*
X37600000Y-44670000D01*
X36270000Y-46000000D02*
X36270000Y-44670000D01*
X36270000Y-47270000D02*
X38930000Y-47270000D01*
X38930000Y-47270000D02*
X38930000Y-80350000D01*
X36270000Y-47270000D02*
X36270000Y-80350000D01*
X36270000Y-80350000D02*
X38930000Y-80350000D01*
M02*
