M48
; DRILL file {KiCad 5.1.4-e60b266~84~ubuntu19.04.1} date la 10. elokuuta 2019 13.05.00
; FORMAT={-:-/ absolute / inch / decimal}
; #@! TF.CreationDate,2019-08-10T13:05:00+03:00
; #@! TF.GenerationSoftware,Kicad,Pcbnew,5.1.4-e60b266~84~ubuntu19.04.1
; #@! TF.FileFunction,Plated,1,2,PTH
FMAT,2
INCH
T1C0.0394
%
G90
G05
T1
X3.1339Y-1.8142
X3.1339Y-1.9142
X3.1339Y-2.0142
X3.1339Y-2.1142
X3.1339Y-2.2142
X3.1339Y-2.3142
X3.1339Y-2.4142
X3.1339Y-2.5142
X3.1339Y-2.6142
X3.1339Y-2.7142
X3.1339Y-2.8142
X3.1339Y-2.9142
X3.1339Y-3.0142
X3.1339Y-3.1142
X1.674Y-1.6575
X1.774Y-1.6575
X1.874Y-1.6575
X1.974Y-1.6575
X2.074Y-1.6575
X2.174Y-1.6575
X2.274Y-1.6575
X2.374Y-1.6575
X2.474Y-1.6575
X2.574Y-1.6575
X2.674Y-1.6575
X2.774Y-1.6575
X2.874Y-1.6575
X2.974Y-1.6575
X1.6717Y-3.2717
X1.7717Y-3.2717
X1.8717Y-3.2717
X1.9717Y-3.2717
X2.0717Y-3.2717
X2.1717Y-3.2717
X2.2717Y-3.2717
X2.3717Y-3.2717
X2.4717Y-3.2717
X2.5717Y-3.2717
X2.6717Y-3.2717
X2.7717Y-3.2717
X2.8717Y-3.2717
X2.9717Y-3.2717
X1.4803Y-1.811
X1.4803Y-1.911
X1.4803Y-2.011
X1.4803Y-2.111
X1.4803Y-2.211
X1.4803Y-2.311
X1.4803Y-2.411
X1.4803Y-2.511
X1.4803Y-2.611
X1.4803Y-2.711
X1.4803Y-2.811
X1.4803Y-2.911
X1.4803Y-3.011
X1.4803Y-3.111
T0
M30
