G04 #@! TF.GenerationSoftware,KiCad,Pcbnew,5.1.4-e60b266~84~ubuntu19.04.1*
G04 #@! TF.CreationDate,2019-08-10T10:30:13+03:00*
G04 #@! TF.ProjectId,BRK-MSOP-8-3x3-P0.65,42524b2d-4d53-44f5-902d-382d3378332d,v1.1*
G04 #@! TF.SameCoordinates,Original*
G04 #@! TF.FileFunction,Copper,L1,Top*
G04 #@! TF.FilePolarity,Positive*
%FSLAX46Y46*%
G04 Gerber Fmt 4.6, Leading zero omitted, Abs format (unit mm)*
G04 Created by KiCad (PCBNEW 5.1.4-e60b266~84~ubuntu19.04.1) date 2019-08-10 10:30:13*
%MOMM*%
%LPD*%
G04 APERTURE LIST*
%ADD10C,0.150000*%
%ADD11R,1.450000X0.450000*%
%ADD12O,1.700000X1.700000*%
%ADD13R,1.700000X1.700000*%
%ADD14C,0.300000*%
G04 APERTURE END LIST*
D10*
X53000000Y-70600000D02*
G75*
G02X51000000Y-68600000I0J2000000D01*
G01*
X67300000Y-68600000D02*
G75*
G02X65300000Y-70600000I-2000000J0D01*
G01*
X65300000Y-48000000D02*
G75*
G02X67300000Y-50000000I0J-2000000D01*
G01*
X51000000Y-50000000D02*
G75*
G02X53000000Y-48000000I2000000J0D01*
G01*
X65300000Y-70600000D02*
X53000000Y-70600000D01*
X67300000Y-50000000D02*
X67300000Y-68600000D01*
X53000000Y-48000000D02*
X65300000Y-48000000D01*
X51000000Y-68600000D02*
X51000000Y-50000000D01*
D11*
X61350000Y-62895000D03*
X61350000Y-63545000D03*
X61350000Y-64195000D03*
X61350000Y-64845000D03*
X56950000Y-64845000D03*
X56950000Y-64195000D03*
X56950000Y-63545000D03*
X56950000Y-62895000D03*
D12*
X65500000Y-60100000D03*
X65500000Y-62640000D03*
X65500000Y-65180000D03*
D13*
X65500000Y-67720000D03*
D12*
X52800000Y-67720000D03*
X52800000Y-65180000D03*
X52800000Y-62640000D03*
D13*
X52800000Y-60100000D03*
D14*
X53950000Y-60100000D02*
X54400000Y-60550000D01*
X52800000Y-60100000D02*
X53950000Y-60100000D01*
X54400000Y-60550000D02*
X54400000Y-62100000D01*
X55195000Y-62895000D02*
X56950000Y-62895000D01*
X54400000Y-62100000D02*
X55195000Y-62895000D01*
X52840000Y-62600000D02*
X52800000Y-62640000D01*
X53705000Y-63545000D02*
X56950000Y-63545000D01*
X52800000Y-62640000D02*
X53705000Y-63545000D01*
X53785000Y-64195000D02*
X56950000Y-64195000D01*
X52800000Y-65180000D02*
X53785000Y-64195000D01*
X62745000Y-64845000D02*
X61350000Y-64845000D01*
X63500000Y-65600000D02*
X62745000Y-64845000D01*
X63500000Y-66870000D02*
X63500000Y-65600000D01*
X65500000Y-67720000D02*
X64350000Y-67720000D01*
X64350000Y-67720000D02*
X63500000Y-66870000D01*
X65500000Y-65180000D02*
X64515000Y-64195000D01*
X64515000Y-64195000D02*
X61561410Y-64195000D01*
X65460000Y-62600000D02*
X65500000Y-62640000D01*
X64595000Y-63545000D02*
X61350000Y-63545000D01*
X65500000Y-62640000D02*
X64595000Y-63545000D01*
X55675000Y-64845000D02*
X56950000Y-64845000D01*
X52800000Y-67720000D02*
X55675000Y-64845000D01*
X62705000Y-62895000D02*
X61350000Y-62895000D01*
X65500000Y-60100000D02*
X62705000Y-62895000D01*
M02*
