G04 #@! TF.GenerationSoftware,KiCad,Pcbnew,5.1.6-c6e7f7d~86~ubuntu20.04.1*
G04 #@! TF.CreationDate,2020-05-17T01:14:02+03:00*
G04 #@! TF.ProjectId,BRK-MSOP-8-3x3-P0.65,42524b2d-4d53-44f5-902d-382d3378332d,v1.1*
G04 #@! TF.SameCoordinates,Original*
G04 #@! TF.FileFunction,Legend,Top*
G04 #@! TF.FilePolarity,Positive*
%FSLAX46Y46*%
G04 Gerber Fmt 4.6, Leading zero omitted, Abs format (unit mm)*
G04 Created by KiCad (PCBNEW 5.1.6-c6e7f7d~86~ubuntu20.04.1) date 2020-05-17 01:14:02*
%MOMM*%
%LPD*%
G01*
G04 APERTURE LIST*
%ADD10C,0.300000*%
G04 #@! TA.AperFunction,Profile*
%ADD11C,0.150000*%
G04 #@! TD*
%ADD12C,0.150000*%
%ADD13C,0.250000*%
%ADD14C,0.120000*%
G04 APERTURE END LIST*
D10*
X55595000Y-67492857D02*
X55595000Y-68292857D01*
X55309285Y-67035714D02*
X55023571Y-67892857D01*
X55766428Y-67892857D01*
X63219285Y-67092857D02*
X62647857Y-67092857D01*
X62590714Y-67664285D01*
X62647857Y-67607142D01*
X62762142Y-67550000D01*
X63047857Y-67550000D01*
X63162142Y-67607142D01*
X63219285Y-67664285D01*
X63276428Y-67778571D01*
X63276428Y-68064285D01*
X63219285Y-68178571D01*
X63162142Y-68235714D01*
X63047857Y-68292857D01*
X62762142Y-68292857D01*
X62647857Y-68235714D01*
X62590714Y-68178571D01*
D11*
X53000000Y-70600000D02*
G75*
G02*
X51000000Y-68600000I0J2000000D01*
G01*
X67300000Y-68600000D02*
G75*
G02*
X65300000Y-70600000I-2000000J0D01*
G01*
X65300000Y-48000000D02*
G75*
G02*
X67300000Y-50000000I0J-2000000D01*
G01*
X51000000Y-50000000D02*
G75*
G02*
X53000000Y-48000000I2000000J0D01*
G01*
D10*
X63162142Y-64542857D02*
X62933571Y-64542857D01*
X62819285Y-64600000D01*
X62762142Y-64657142D01*
X62647857Y-64828571D01*
X62590714Y-65057142D01*
X62590714Y-65514285D01*
X62647857Y-65628571D01*
X62705000Y-65685714D01*
X62819285Y-65742857D01*
X63047857Y-65742857D01*
X63162142Y-65685714D01*
X63219285Y-65628571D01*
X63276428Y-65514285D01*
X63276428Y-65228571D01*
X63219285Y-65114285D01*
X63162142Y-65057142D01*
X63047857Y-65000000D01*
X62819285Y-65000000D01*
X62705000Y-65057142D01*
X62647857Y-65114285D01*
X62590714Y-65228571D01*
X62533571Y-62042857D02*
X63333571Y-62042857D01*
X62819285Y-63242857D01*
X62819285Y-59907142D02*
X62705000Y-59850000D01*
X62647857Y-59792857D01*
X62590714Y-59678571D01*
X62590714Y-59621428D01*
X62647857Y-59507142D01*
X62705000Y-59450000D01*
X62819285Y-59392857D01*
X63047857Y-59392857D01*
X63162142Y-59450000D01*
X63219285Y-59507142D01*
X63276428Y-59621428D01*
X63276428Y-59678571D01*
X63219285Y-59792857D01*
X63162142Y-59850000D01*
X63047857Y-59907142D01*
X62819285Y-59907142D01*
X62705000Y-59964285D01*
X62647857Y-60021428D01*
X62590714Y-60135714D01*
X62590714Y-60364285D01*
X62647857Y-60478571D01*
X62705000Y-60535714D01*
X62819285Y-60592857D01*
X63047857Y-60592857D01*
X63162142Y-60535714D01*
X63219285Y-60478571D01*
X63276428Y-60364285D01*
X63276428Y-60135714D01*
X63219285Y-60021428D01*
X63162142Y-59964285D01*
X63047857Y-59907142D01*
X54966428Y-64592857D02*
X55709285Y-64592857D01*
X55309285Y-65050000D01*
X55480714Y-65050000D01*
X55595000Y-65107142D01*
X55652142Y-65164285D01*
X55709285Y-65278571D01*
X55709285Y-65564285D01*
X55652142Y-65678571D01*
X55595000Y-65735714D01*
X55480714Y-65792857D01*
X55137857Y-65792857D01*
X55023571Y-65735714D01*
X54966428Y-65678571D01*
X55023571Y-62107142D02*
X55080714Y-62050000D01*
X55195000Y-61992857D01*
X55480714Y-61992857D01*
X55595000Y-62050000D01*
X55652142Y-62107142D01*
X55709285Y-62221428D01*
X55709285Y-62335714D01*
X55652142Y-62507142D01*
X54966428Y-63192857D01*
X55709285Y-63192857D01*
X55709285Y-60642857D02*
X55023571Y-60642857D01*
X55366428Y-60642857D02*
X55366428Y-59442857D01*
X55252142Y-59614285D01*
X55137857Y-59728571D01*
X55023571Y-59785714D01*
D11*
X65300000Y-70600000D02*
X53000000Y-70600000D01*
D12*
G36*
X66800000Y-57500000D02*
G01*
X51500000Y-57500000D01*
X51500000Y-53500000D01*
X66800000Y-53500000D01*
X66800000Y-57500000D01*
G37*
X66800000Y-57500000D02*
X51500000Y-57500000D01*
X51500000Y-53500000D01*
X66800000Y-53500000D01*
X66800000Y-57500000D01*
D11*
X67300000Y-50000000D02*
X67300000Y-68600000D01*
D13*
X55342857Y-50488095D02*
X55342857Y-49188095D01*
X55776190Y-50116666D01*
X56209523Y-49188095D01*
X56209523Y-50488095D01*
X56766666Y-50426190D02*
X56952380Y-50488095D01*
X57261904Y-50488095D01*
X57385714Y-50426190D01*
X57447619Y-50364285D01*
X57509523Y-50240476D01*
X57509523Y-50116666D01*
X57447619Y-49992857D01*
X57385714Y-49930952D01*
X57261904Y-49869047D01*
X57014285Y-49807142D01*
X56890476Y-49745238D01*
X56828571Y-49683333D01*
X56766666Y-49559523D01*
X56766666Y-49435714D01*
X56828571Y-49311904D01*
X56890476Y-49250000D01*
X57014285Y-49188095D01*
X57323809Y-49188095D01*
X57509523Y-49250000D01*
X58314285Y-49188095D02*
X58561904Y-49188095D01*
X58685714Y-49250000D01*
X58809523Y-49373809D01*
X58871428Y-49621428D01*
X58871428Y-50054761D01*
X58809523Y-50302380D01*
X58685714Y-50426190D01*
X58561904Y-50488095D01*
X58314285Y-50488095D01*
X58190476Y-50426190D01*
X58066666Y-50302380D01*
X58004761Y-50054761D01*
X58004761Y-49621428D01*
X58066666Y-49373809D01*
X58190476Y-49250000D01*
X58314285Y-49188095D01*
X59428571Y-50488095D02*
X59428571Y-49188095D01*
X59923809Y-49188095D01*
X60047619Y-49250000D01*
X60109523Y-49311904D01*
X60171428Y-49435714D01*
X60171428Y-49621428D01*
X60109523Y-49745238D01*
X60047619Y-49807142D01*
X59923809Y-49869047D01*
X59428571Y-49869047D01*
X60728571Y-49992857D02*
X61719047Y-49992857D01*
X62523809Y-49745238D02*
X62400000Y-49683333D01*
X62338095Y-49621428D01*
X62276190Y-49497619D01*
X62276190Y-49435714D01*
X62338095Y-49311904D01*
X62400000Y-49250000D01*
X62523809Y-49188095D01*
X62771428Y-49188095D01*
X62895238Y-49250000D01*
X62957142Y-49311904D01*
X63019047Y-49435714D01*
X63019047Y-49497619D01*
X62957142Y-49621428D01*
X62895238Y-49683333D01*
X62771428Y-49745238D01*
X62523809Y-49745238D01*
X62400000Y-49807142D01*
X62338095Y-49869047D01*
X62276190Y-49992857D01*
X62276190Y-50240476D01*
X62338095Y-50364285D01*
X62400000Y-50426190D01*
X62523809Y-50488095D01*
X62771428Y-50488095D01*
X62895238Y-50426190D01*
X62957142Y-50364285D01*
X63019047Y-50240476D01*
X63019047Y-49992857D01*
X62957142Y-49869047D01*
X62895238Y-49807142D01*
X62771428Y-49745238D01*
X53950000Y-51388095D02*
X54754761Y-51388095D01*
X54321428Y-51883333D01*
X54507142Y-51883333D01*
X54630952Y-51945238D01*
X54692857Y-52007142D01*
X54754761Y-52130952D01*
X54754761Y-52440476D01*
X54692857Y-52564285D01*
X54630952Y-52626190D01*
X54507142Y-52688095D01*
X54135714Y-52688095D01*
X54011904Y-52626190D01*
X53950000Y-52564285D01*
X55188095Y-52688095D02*
X55869047Y-51821428D01*
X55188095Y-51821428D02*
X55869047Y-52688095D01*
X56240476Y-51388095D02*
X57045238Y-51388095D01*
X56611904Y-51883333D01*
X56797619Y-51883333D01*
X56921428Y-51945238D01*
X56983333Y-52007142D01*
X57045238Y-52130952D01*
X57045238Y-52440476D01*
X56983333Y-52564285D01*
X56921428Y-52626190D01*
X56797619Y-52688095D01*
X56426190Y-52688095D01*
X56302380Y-52626190D01*
X56240476Y-52564285D01*
X57602380Y-52192857D02*
X58592857Y-52192857D01*
X59211904Y-52688095D02*
X59211904Y-51388095D01*
X59707142Y-51388095D01*
X59830952Y-51450000D01*
X59892857Y-51511904D01*
X59954761Y-51635714D01*
X59954761Y-51821428D01*
X59892857Y-51945238D01*
X59830952Y-52007142D01*
X59707142Y-52069047D01*
X59211904Y-52069047D01*
X60759523Y-51388095D02*
X60883333Y-51388095D01*
X61007142Y-51450000D01*
X61069047Y-51511904D01*
X61130952Y-51635714D01*
X61192857Y-51883333D01*
X61192857Y-52192857D01*
X61130952Y-52440476D01*
X61069047Y-52564285D01*
X61007142Y-52626190D01*
X60883333Y-52688095D01*
X60759523Y-52688095D01*
X60635714Y-52626190D01*
X60573809Y-52564285D01*
X60511904Y-52440476D01*
X60450000Y-52192857D01*
X60450000Y-51883333D01*
X60511904Y-51635714D01*
X60573809Y-51511904D01*
X60635714Y-51450000D01*
X60759523Y-51388095D01*
X61750000Y-52564285D02*
X61811904Y-52626190D01*
X61750000Y-52688095D01*
X61688095Y-52626190D01*
X61750000Y-52564285D01*
X61750000Y-52688095D01*
X62926190Y-51388095D02*
X62678571Y-51388095D01*
X62554761Y-51450000D01*
X62492857Y-51511904D01*
X62369047Y-51697619D01*
X62307142Y-51945238D01*
X62307142Y-52440476D01*
X62369047Y-52564285D01*
X62430952Y-52626190D01*
X62554761Y-52688095D01*
X62802380Y-52688095D01*
X62926190Y-52626190D01*
X62988095Y-52564285D01*
X63050000Y-52440476D01*
X63050000Y-52130952D01*
X62988095Y-52007142D01*
X62926190Y-51945238D01*
X62802380Y-51883333D01*
X62554761Y-51883333D01*
X62430952Y-51945238D01*
X62369047Y-52007142D01*
X62307142Y-52130952D01*
X64226190Y-51388095D02*
X63607142Y-51388095D01*
X63545238Y-52007142D01*
X63607142Y-51945238D01*
X63730952Y-51883333D01*
X64040476Y-51883333D01*
X64164285Y-51945238D01*
X64226190Y-52007142D01*
X64288095Y-52130952D01*
X64288095Y-52440476D01*
X64226190Y-52564285D01*
X64164285Y-52626190D01*
X64040476Y-52688095D01*
X63730952Y-52688095D01*
X63607142Y-52626190D01*
X63545238Y-52564285D01*
D11*
X53000000Y-48000000D02*
X65300000Y-48000000D01*
X51000000Y-68600000D02*
X51000000Y-50000000D01*
D12*
X57475000Y-62195000D02*
X57475000Y-62370000D01*
X60825000Y-62195000D02*
X60825000Y-62445000D01*
X60825000Y-65545000D02*
X60825000Y-65295000D01*
X57475000Y-65545000D02*
X57475000Y-65295000D01*
X57475000Y-62195000D02*
X60825000Y-62195000D01*
X57475000Y-65545000D02*
X60825000Y-65545000D01*
X57475000Y-62370000D02*
X56225000Y-62370000D01*
D14*
X66830000Y-58770000D02*
X64170000Y-58770000D01*
X66830000Y-66450000D02*
X66830000Y-58770000D01*
X64170000Y-66450000D02*
X64170000Y-58770000D01*
X66830000Y-66450000D02*
X64170000Y-66450000D01*
X66830000Y-67720000D02*
X66830000Y-69050000D01*
X66830000Y-69050000D02*
X65500000Y-69050000D01*
X51470000Y-69050000D02*
X54130000Y-69050000D01*
X51470000Y-61370000D02*
X51470000Y-69050000D01*
X54130000Y-61370000D02*
X54130000Y-69050000D01*
X51470000Y-61370000D02*
X54130000Y-61370000D01*
X51470000Y-60100000D02*
X51470000Y-58770000D01*
X51470000Y-58770000D02*
X52800000Y-58770000D01*
M02*
