G04 #@! TF.GenerationSoftware,KiCad,Pcbnew,5.1.5-52549c5~84~ubuntu19.10.1*
G04 #@! TF.CreationDate,2020-03-01T16:10:10+02:00*
G04 #@! TF.ProjectId,PIC-ICSP-TC2030,5049432d-4943-4535-902d-544332303330,v1.0*
G04 #@! TF.SameCoordinates,Original*
G04 #@! TF.FileFunction,Copper,L1,Top*
G04 #@! TF.FilePolarity,Positive*
%FSLAX46Y46*%
G04 Gerber Fmt 4.6, Leading zero omitted, Abs format (unit mm)*
G04 Created by KiCad (PCBNEW 5.1.5-52549c5~84~ubuntu19.10.1) date 2020-03-01 16:10:10*
%MOMM*%
%LPD*%
G04 APERTURE LIST*
%ADD10C,0.050000*%
%ADD11R,1.700000X1.700000*%
%ADD12O,1.700000X1.700000*%
%ADD13O,1.727200X1.727200*%
%ADD14R,1.727200X1.727200*%
%ADD15C,0.800000*%
%ADD16C,0.800000*%
%ADD17C,0.200000*%
G04 APERTURE END LIST*
D10*
X70000000Y-50000000D02*
G75*
G02X75000000Y-55000000I0J-5000000D01*
G01*
X75000000Y-80000000D02*
G75*
G02X70000000Y-85000000I-5000000J0D01*
G01*
X55000000Y-85000000D02*
G75*
G02X50000000Y-80000000I0J5000000D01*
G01*
X50000000Y-55000000D02*
G75*
G02X55000000Y-50000000I5000000J0D01*
G01*
X70000000Y-50000000D02*
X55000000Y-50000000D01*
X75000000Y-80000000D02*
X75000000Y-55000000D01*
X55000000Y-85000000D02*
X70000000Y-85000000D01*
X50000000Y-55000000D02*
X50000000Y-80000000D01*
D11*
X71000000Y-61065000D03*
D12*
X71000000Y-63605000D03*
X71000000Y-66145000D03*
X71000000Y-68685000D03*
X71000000Y-71225000D03*
X71000000Y-73765000D03*
D13*
X56940000Y-70080000D03*
X54400000Y-70080000D03*
X56940000Y-67540000D03*
X54400000Y-67540000D03*
X56940000Y-65000000D03*
D14*
X54400000Y-65000000D03*
D15*
X61400000Y-73700000D03*
X62900000Y-56000000D03*
X61700000Y-80600000D03*
X62000000Y-65900000D03*
X53200000Y-61500000D03*
X53000000Y-73500000D03*
X73200000Y-76600000D03*
X73200000Y-58100000D03*
D16*
X70935000Y-73700000D02*
X71000000Y-73765000D01*
X61400000Y-73700000D02*
X70935000Y-73700000D01*
X59475000Y-71225000D02*
X71000000Y-71225000D01*
X54400000Y-71100000D02*
X55800000Y-72500000D01*
X55800000Y-72500000D02*
X58200000Y-72500000D01*
X54400000Y-70080000D02*
X54400000Y-71100000D01*
X58200000Y-72500000D02*
X59475000Y-71225000D01*
X69885000Y-68700000D02*
X69900000Y-68685000D01*
X70985000Y-68700000D02*
X71000000Y-68685000D01*
X69885000Y-68700000D02*
X70985000Y-68700000D01*
X59600000Y-68700000D02*
X69885000Y-68700000D01*
X56940000Y-67540000D02*
X58440000Y-67540000D01*
X58440000Y-67540000D02*
X59600000Y-68700000D01*
X58495000Y-63605000D02*
X71000000Y-63605000D01*
X56940000Y-65000000D02*
X57100000Y-65000000D01*
X57100000Y-65000000D02*
X58495000Y-63605000D01*
X56671400Y-61065000D02*
X71000000Y-61065000D01*
X54400000Y-63336400D02*
X56671400Y-61065000D01*
X54400000Y-65000000D02*
X54400000Y-63336400D01*
D17*
G36*
X70827641Y-50400156D02*
G01*
X71629125Y-50619418D01*
X72379110Y-50977142D01*
X73053896Y-51462025D01*
X73632155Y-52058741D01*
X74095602Y-52748425D01*
X74429593Y-53509276D01*
X74624171Y-54319751D01*
X74675001Y-55011928D01*
X74675000Y-79985531D01*
X74599843Y-80827643D01*
X74380582Y-81629125D01*
X74022858Y-82379110D01*
X73537975Y-83053896D01*
X72941259Y-83632155D01*
X72251576Y-84095601D01*
X71490723Y-84429593D01*
X70680249Y-84624171D01*
X69988086Y-84675000D01*
X55014469Y-84675000D01*
X54172357Y-84599843D01*
X53370875Y-84380582D01*
X52620890Y-84022858D01*
X51946104Y-83537975D01*
X51367845Y-82941259D01*
X50904399Y-82251576D01*
X50570407Y-81490723D01*
X50375829Y-80680249D01*
X50325000Y-79988086D01*
X50325000Y-79803017D01*
X53000000Y-79803017D01*
X53000000Y-80196983D01*
X53076859Y-80583378D01*
X53227623Y-80947355D01*
X53446499Y-81274926D01*
X53725074Y-81553501D01*
X54052645Y-81772377D01*
X54416622Y-81923141D01*
X54803017Y-82000000D01*
X55196983Y-82000000D01*
X55583378Y-81923141D01*
X55947355Y-81772377D01*
X56274926Y-81553501D01*
X56553501Y-81274926D01*
X56772377Y-80947355D01*
X56923141Y-80583378D01*
X57000000Y-80196983D01*
X57000000Y-79803017D01*
X68000000Y-79803017D01*
X68000000Y-80196983D01*
X68076859Y-80583378D01*
X68227623Y-80947355D01*
X68446499Y-81274926D01*
X68725074Y-81553501D01*
X69052645Y-81772377D01*
X69416622Y-81923141D01*
X69803017Y-82000000D01*
X70196983Y-82000000D01*
X70583378Y-81923141D01*
X70947355Y-81772377D01*
X71274926Y-81553501D01*
X71553501Y-81274926D01*
X71772377Y-80947355D01*
X71923141Y-80583378D01*
X72000000Y-80196983D01*
X72000000Y-79803017D01*
X71923141Y-79416622D01*
X71772377Y-79052645D01*
X71553501Y-78725074D01*
X71274926Y-78446499D01*
X70947355Y-78227623D01*
X70583378Y-78076859D01*
X70196983Y-78000000D01*
X69803017Y-78000000D01*
X69416622Y-78076859D01*
X69052645Y-78227623D01*
X68725074Y-78446499D01*
X68446499Y-78725074D01*
X68227623Y-79052645D01*
X68076859Y-79416622D01*
X68000000Y-79803017D01*
X57000000Y-79803017D01*
X56923141Y-79416622D01*
X56772377Y-79052645D01*
X56553501Y-78725074D01*
X56274926Y-78446499D01*
X55947355Y-78227623D01*
X55583378Y-78076859D01*
X55196983Y-78000000D01*
X54803017Y-78000000D01*
X54416622Y-78076859D01*
X54052645Y-78227623D01*
X53725074Y-78446499D01*
X53446499Y-78725074D01*
X53227623Y-79052645D01*
X53076859Y-79416622D01*
X53000000Y-79803017D01*
X50325000Y-79803017D01*
X50325000Y-73700000D01*
X60596130Y-73700000D01*
X60600000Y-73739293D01*
X60600000Y-73778793D01*
X60607706Y-73817535D01*
X60611576Y-73856827D01*
X60623037Y-73894607D01*
X60630743Y-73933351D01*
X60645860Y-73969848D01*
X60657321Y-74007628D01*
X60675932Y-74042446D01*
X60691049Y-74078942D01*
X60712997Y-74111790D01*
X60731607Y-74146606D01*
X60756651Y-74177122D01*
X60778599Y-74209970D01*
X60806530Y-74237901D01*
X60831578Y-74268422D01*
X60862098Y-74293469D01*
X60890030Y-74321401D01*
X60922878Y-74343349D01*
X60953394Y-74368393D01*
X60988210Y-74387003D01*
X61021058Y-74408951D01*
X61057554Y-74424068D01*
X61092372Y-74442679D01*
X61130152Y-74454140D01*
X61166649Y-74469257D01*
X61205393Y-74476963D01*
X61243173Y-74488424D01*
X61282465Y-74492294D01*
X61321207Y-74500000D01*
X69987750Y-74500000D01*
X70029062Y-74561828D01*
X70203172Y-74735938D01*
X70407903Y-74872735D01*
X70635389Y-74966963D01*
X70876886Y-75015000D01*
X71123114Y-75015000D01*
X71364611Y-74966963D01*
X71592097Y-74872735D01*
X71796828Y-74735938D01*
X71970938Y-74561828D01*
X72107735Y-74357097D01*
X72201963Y-74129611D01*
X72250000Y-73888114D01*
X72250000Y-73641886D01*
X72201963Y-73400389D01*
X72107735Y-73172903D01*
X71970938Y-72968172D01*
X71796828Y-72794062D01*
X71592097Y-72657265D01*
X71364611Y-72563037D01*
X71123114Y-72515000D01*
X70876886Y-72515000D01*
X70635389Y-72563037D01*
X70407903Y-72657265D01*
X70203172Y-72794062D01*
X70097234Y-72900000D01*
X61321207Y-72900000D01*
X61282465Y-72907706D01*
X61243173Y-72911576D01*
X61205393Y-72923037D01*
X61166649Y-72930743D01*
X61130152Y-72945860D01*
X61092372Y-72957321D01*
X61057554Y-72975932D01*
X61021058Y-72991049D01*
X60988210Y-73012997D01*
X60953394Y-73031607D01*
X60922878Y-73056651D01*
X60890030Y-73078599D01*
X60862098Y-73106531D01*
X60831578Y-73131578D01*
X60806531Y-73162098D01*
X60778599Y-73190030D01*
X60756651Y-73222878D01*
X60731607Y-73253394D01*
X60712997Y-73288210D01*
X60691049Y-73321058D01*
X60675932Y-73357554D01*
X60657321Y-73392372D01*
X60645860Y-73430152D01*
X60630743Y-73466649D01*
X60623037Y-73505393D01*
X60611576Y-73543173D01*
X60607706Y-73582465D01*
X60600000Y-73621207D01*
X60600000Y-73660707D01*
X60596130Y-73700000D01*
X50325000Y-73700000D01*
X50325000Y-69955546D01*
X53136400Y-69955546D01*
X53136400Y-70204454D01*
X53184959Y-70448579D01*
X53280212Y-70678539D01*
X53418498Y-70885498D01*
X53594502Y-71061502D01*
X53599587Y-71064900D01*
X53596130Y-71100000D01*
X53611577Y-71256827D01*
X53657321Y-71407627D01*
X53731607Y-71546606D01*
X53806531Y-71637901D01*
X53831579Y-71668422D01*
X53862098Y-71693468D01*
X55206531Y-73037902D01*
X55231578Y-73068422D01*
X55262098Y-73093469D01*
X55353393Y-73168393D01*
X55463226Y-73227100D01*
X55492372Y-73242679D01*
X55643173Y-73288424D01*
X55760707Y-73300000D01*
X55760709Y-73300000D01*
X55800000Y-73303870D01*
X55839291Y-73300000D01*
X58160709Y-73300000D01*
X58200000Y-73303870D01*
X58239291Y-73300000D01*
X58239293Y-73300000D01*
X58356827Y-73288424D01*
X58507628Y-73242679D01*
X58646606Y-73168393D01*
X58768422Y-73068422D01*
X58793473Y-73037897D01*
X59806371Y-72025000D01*
X70032234Y-72025000D01*
X70203172Y-72195938D01*
X70407903Y-72332735D01*
X70635389Y-72426963D01*
X70876886Y-72475000D01*
X71123114Y-72475000D01*
X71364611Y-72426963D01*
X71592097Y-72332735D01*
X71796828Y-72195938D01*
X71970938Y-72021828D01*
X72107735Y-71817097D01*
X72201963Y-71589611D01*
X72250000Y-71348114D01*
X72250000Y-71101886D01*
X72201963Y-70860389D01*
X72107735Y-70632903D01*
X71970938Y-70428172D01*
X71796828Y-70254062D01*
X71592097Y-70117265D01*
X71364611Y-70023037D01*
X71123114Y-69975000D01*
X70876886Y-69975000D01*
X70635389Y-70023037D01*
X70407903Y-70117265D01*
X70203172Y-70254062D01*
X70032234Y-70425000D01*
X59514282Y-70425000D01*
X59474999Y-70421131D01*
X59435716Y-70425000D01*
X59435707Y-70425000D01*
X59318173Y-70436576D01*
X59167372Y-70482321D01*
X59076803Y-70530731D01*
X59028393Y-70556607D01*
X58937098Y-70631531D01*
X58906578Y-70656578D01*
X58881531Y-70687098D01*
X57868630Y-71700000D01*
X56131371Y-71700000D01*
X55349185Y-70917815D01*
X55381502Y-70885498D01*
X55519788Y-70678539D01*
X55615041Y-70448579D01*
X55663600Y-70204454D01*
X55663600Y-69955546D01*
X55676400Y-69955546D01*
X55676400Y-70204454D01*
X55724959Y-70448579D01*
X55820212Y-70678539D01*
X55958498Y-70885498D01*
X56134502Y-71061502D01*
X56341461Y-71199788D01*
X56571421Y-71295041D01*
X56815546Y-71343600D01*
X57064454Y-71343600D01*
X57308579Y-71295041D01*
X57538539Y-71199788D01*
X57745498Y-71061502D01*
X57921502Y-70885498D01*
X58059788Y-70678539D01*
X58155041Y-70448579D01*
X58203600Y-70204454D01*
X58203600Y-69955546D01*
X58155041Y-69711421D01*
X58059788Y-69481461D01*
X57921502Y-69274502D01*
X57745498Y-69098498D01*
X57538539Y-68960212D01*
X57308579Y-68864959D01*
X57064454Y-68816400D01*
X56815546Y-68816400D01*
X56571421Y-68864959D01*
X56341461Y-68960212D01*
X56134502Y-69098498D01*
X55958498Y-69274502D01*
X55820212Y-69481461D01*
X55724959Y-69711421D01*
X55676400Y-69955546D01*
X55663600Y-69955546D01*
X55615041Y-69711421D01*
X55519788Y-69481461D01*
X55381502Y-69274502D01*
X55205498Y-69098498D01*
X54998539Y-68960212D01*
X54768579Y-68864959D01*
X54524454Y-68816400D01*
X54275546Y-68816400D01*
X54031421Y-68864959D01*
X53801461Y-68960212D01*
X53594502Y-69098498D01*
X53418498Y-69274502D01*
X53280212Y-69481461D01*
X53184959Y-69711421D01*
X53136400Y-69955546D01*
X50325000Y-69955546D01*
X50325000Y-67415546D01*
X55676400Y-67415546D01*
X55676400Y-67664454D01*
X55724959Y-67908579D01*
X55820212Y-68138539D01*
X55958498Y-68345498D01*
X56134502Y-68521502D01*
X56341461Y-68659788D01*
X56571421Y-68755041D01*
X56815546Y-68803600D01*
X57064454Y-68803600D01*
X57308579Y-68755041D01*
X57538539Y-68659788D01*
X57745498Y-68521502D01*
X57921502Y-68345498D01*
X57925176Y-68340000D01*
X58108630Y-68340000D01*
X59006527Y-69237897D01*
X59031578Y-69268422D01*
X59105233Y-69328869D01*
X59153393Y-69368393D01*
X59234241Y-69411607D01*
X59292372Y-69442679D01*
X59443173Y-69488424D01*
X59560707Y-69500000D01*
X59560709Y-69500000D01*
X59600000Y-69503870D01*
X59639291Y-69500000D01*
X69845709Y-69500000D01*
X69885000Y-69503870D01*
X69924291Y-69500000D01*
X70047234Y-69500000D01*
X70203172Y-69655938D01*
X70407903Y-69792735D01*
X70635389Y-69886963D01*
X70876886Y-69935000D01*
X71123114Y-69935000D01*
X71364611Y-69886963D01*
X71592097Y-69792735D01*
X71796828Y-69655938D01*
X71970938Y-69481828D01*
X72107735Y-69277097D01*
X72201963Y-69049611D01*
X72250000Y-68808114D01*
X72250000Y-68561886D01*
X72201963Y-68320389D01*
X72107735Y-68092903D01*
X71970938Y-67888172D01*
X71796828Y-67714062D01*
X71592097Y-67577265D01*
X71364611Y-67483037D01*
X71123114Y-67435000D01*
X70876886Y-67435000D01*
X70635389Y-67483037D01*
X70407903Y-67577265D01*
X70203172Y-67714062D01*
X70029062Y-67888172D01*
X70025507Y-67893492D01*
X69899999Y-67881131D01*
X69743173Y-67896577D01*
X69731889Y-67900000D01*
X59931370Y-67900000D01*
X59033473Y-67002103D01*
X59008422Y-66971578D01*
X58886606Y-66871607D01*
X58747628Y-66797321D01*
X58596827Y-66751576D01*
X58479293Y-66740000D01*
X58479291Y-66740000D01*
X58440000Y-66736130D01*
X58400709Y-66740000D01*
X57925176Y-66740000D01*
X57921502Y-66734502D01*
X57745498Y-66558498D01*
X57538539Y-66420212D01*
X57308579Y-66324959D01*
X57064454Y-66276400D01*
X56815546Y-66276400D01*
X56571421Y-66324959D01*
X56341461Y-66420212D01*
X56134502Y-66558498D01*
X55958498Y-66734502D01*
X55820212Y-66941461D01*
X55724959Y-67171421D01*
X55676400Y-67415546D01*
X50325000Y-67415546D01*
X50325000Y-64136400D01*
X53134465Y-64136400D01*
X53134465Y-65863600D01*
X53142188Y-65942014D01*
X53165060Y-66017414D01*
X53202203Y-66086903D01*
X53252189Y-66147811D01*
X53313097Y-66197797D01*
X53382586Y-66234940D01*
X53457986Y-66257812D01*
X53536400Y-66265535D01*
X55263600Y-66265535D01*
X55342014Y-66257812D01*
X55417414Y-66234940D01*
X55486903Y-66197797D01*
X55547811Y-66147811D01*
X55597797Y-66086903D01*
X55634940Y-66017414D01*
X55657812Y-65942014D01*
X55665535Y-65863600D01*
X55665535Y-64875546D01*
X55676400Y-64875546D01*
X55676400Y-65124454D01*
X55724959Y-65368579D01*
X55820212Y-65598539D01*
X55958498Y-65805498D01*
X56134502Y-65981502D01*
X56341461Y-66119788D01*
X56571421Y-66215041D01*
X56815546Y-66263600D01*
X57064454Y-66263600D01*
X57308579Y-66215041D01*
X57538539Y-66119788D01*
X57745498Y-65981502D01*
X57921502Y-65805498D01*
X58059788Y-65598539D01*
X58155041Y-65368579D01*
X58203600Y-65124454D01*
X58203600Y-65027770D01*
X58826371Y-64405000D01*
X70032234Y-64405000D01*
X70203172Y-64575938D01*
X70407903Y-64712735D01*
X70635389Y-64806963D01*
X70876886Y-64855000D01*
X71123114Y-64855000D01*
X71364611Y-64806963D01*
X71592097Y-64712735D01*
X71796828Y-64575938D01*
X71970938Y-64401828D01*
X72107735Y-64197097D01*
X72201963Y-63969611D01*
X72250000Y-63728114D01*
X72250000Y-63481886D01*
X72201963Y-63240389D01*
X72107735Y-63012903D01*
X71970938Y-62808172D01*
X71796828Y-62634062D01*
X71592097Y-62497265D01*
X71364611Y-62403037D01*
X71123114Y-62355000D01*
X70876886Y-62355000D01*
X70635389Y-62403037D01*
X70407903Y-62497265D01*
X70203172Y-62634062D01*
X70032234Y-62805000D01*
X58534291Y-62805000D01*
X58495000Y-62801130D01*
X58455709Y-62805000D01*
X58455707Y-62805000D01*
X58338173Y-62816576D01*
X58187372Y-62862321D01*
X58048393Y-62936607D01*
X57957098Y-63011531D01*
X57926578Y-63036578D01*
X57901531Y-63067098D01*
X57204394Y-63764236D01*
X57064454Y-63736400D01*
X56815546Y-63736400D01*
X56571421Y-63784959D01*
X56341461Y-63880212D01*
X56134502Y-64018498D01*
X55958498Y-64194502D01*
X55820212Y-64401461D01*
X55724959Y-64631421D01*
X55676400Y-64875546D01*
X55665535Y-64875546D01*
X55665535Y-64136400D01*
X55657812Y-64057986D01*
X55634940Y-63982586D01*
X55597797Y-63913097D01*
X55547811Y-63852189D01*
X55486903Y-63802203D01*
X55417414Y-63765060D01*
X55342014Y-63742188D01*
X55263600Y-63734465D01*
X55200000Y-63734465D01*
X55200000Y-63667770D01*
X57002770Y-61865000D01*
X69748065Y-61865000D01*
X69748065Y-61915000D01*
X69755788Y-61993414D01*
X69778660Y-62068814D01*
X69815803Y-62138303D01*
X69865789Y-62199211D01*
X69926697Y-62249197D01*
X69996186Y-62286340D01*
X70071586Y-62309212D01*
X70150000Y-62316935D01*
X71850000Y-62316935D01*
X71928414Y-62309212D01*
X72003814Y-62286340D01*
X72073303Y-62249197D01*
X72134211Y-62199211D01*
X72184197Y-62138303D01*
X72221340Y-62068814D01*
X72244212Y-61993414D01*
X72251935Y-61915000D01*
X72251935Y-60215000D01*
X72244212Y-60136586D01*
X72221340Y-60061186D01*
X72184197Y-59991697D01*
X72134211Y-59930789D01*
X72073303Y-59880803D01*
X72003814Y-59843660D01*
X71928414Y-59820788D01*
X71850000Y-59813065D01*
X70150000Y-59813065D01*
X70071586Y-59820788D01*
X69996186Y-59843660D01*
X69926697Y-59880803D01*
X69865789Y-59930789D01*
X69815803Y-59991697D01*
X69778660Y-60061186D01*
X69755788Y-60136586D01*
X69748065Y-60215000D01*
X69748065Y-60265000D01*
X56710691Y-60265000D01*
X56671400Y-60261130D01*
X56632109Y-60265000D01*
X56632107Y-60265000D01*
X56514573Y-60276576D01*
X56363772Y-60322321D01*
X56224793Y-60396607D01*
X56176633Y-60436131D01*
X56102978Y-60496578D01*
X56077927Y-60527103D01*
X53862099Y-62742931D01*
X53831579Y-62767978D01*
X53806532Y-62798498D01*
X53806531Y-62798499D01*
X53731607Y-62889794D01*
X53657321Y-63028773D01*
X53611577Y-63179573D01*
X53596130Y-63336400D01*
X53600001Y-63375700D01*
X53600001Y-63734465D01*
X53536400Y-63734465D01*
X53457986Y-63742188D01*
X53382586Y-63765060D01*
X53313097Y-63802203D01*
X53252189Y-63852189D01*
X53202203Y-63913097D01*
X53165060Y-63982586D01*
X53142188Y-64057986D01*
X53134465Y-64136400D01*
X50325000Y-64136400D01*
X50325000Y-55014470D01*
X50343871Y-54803017D01*
X53000000Y-54803017D01*
X53000000Y-55196983D01*
X53076859Y-55583378D01*
X53227623Y-55947355D01*
X53446499Y-56274926D01*
X53725074Y-56553501D01*
X54052645Y-56772377D01*
X54416622Y-56923141D01*
X54803017Y-57000000D01*
X55196983Y-57000000D01*
X55583378Y-56923141D01*
X55947355Y-56772377D01*
X56274926Y-56553501D01*
X56553501Y-56274926D01*
X56772377Y-55947355D01*
X56923141Y-55583378D01*
X57000000Y-55196983D01*
X57000000Y-54803017D01*
X68000000Y-54803017D01*
X68000000Y-55196983D01*
X68076859Y-55583378D01*
X68227623Y-55947355D01*
X68446499Y-56274926D01*
X68725074Y-56553501D01*
X69052645Y-56772377D01*
X69416622Y-56923141D01*
X69803017Y-57000000D01*
X70196983Y-57000000D01*
X70583378Y-56923141D01*
X70947355Y-56772377D01*
X71274926Y-56553501D01*
X71553501Y-56274926D01*
X71772377Y-55947355D01*
X71923141Y-55583378D01*
X72000000Y-55196983D01*
X72000000Y-54803017D01*
X71923141Y-54416622D01*
X71772377Y-54052645D01*
X71553501Y-53725074D01*
X71274926Y-53446499D01*
X70947355Y-53227623D01*
X70583378Y-53076859D01*
X70196983Y-53000000D01*
X69803017Y-53000000D01*
X69416622Y-53076859D01*
X69052645Y-53227623D01*
X68725074Y-53446499D01*
X68446499Y-53725074D01*
X68227623Y-54052645D01*
X68076859Y-54416622D01*
X68000000Y-54803017D01*
X57000000Y-54803017D01*
X56923141Y-54416622D01*
X56772377Y-54052645D01*
X56553501Y-53725074D01*
X56274926Y-53446499D01*
X55947355Y-53227623D01*
X55583378Y-53076859D01*
X55196983Y-53000000D01*
X54803017Y-53000000D01*
X54416622Y-53076859D01*
X54052645Y-53227623D01*
X53725074Y-53446499D01*
X53446499Y-53725074D01*
X53227623Y-54052645D01*
X53076859Y-54416622D01*
X53000000Y-54803017D01*
X50343871Y-54803017D01*
X50400156Y-54172359D01*
X50619418Y-53370875D01*
X50977142Y-52620890D01*
X51462025Y-51946104D01*
X52058741Y-51367845D01*
X52748425Y-50904398D01*
X53509276Y-50570407D01*
X54319751Y-50375829D01*
X55011914Y-50325000D01*
X69985530Y-50325000D01*
X70827641Y-50400156D01*
G37*
X70827641Y-50400156D02*
X71629125Y-50619418D01*
X72379110Y-50977142D01*
X73053896Y-51462025D01*
X73632155Y-52058741D01*
X74095602Y-52748425D01*
X74429593Y-53509276D01*
X74624171Y-54319751D01*
X74675001Y-55011928D01*
X74675000Y-79985531D01*
X74599843Y-80827643D01*
X74380582Y-81629125D01*
X74022858Y-82379110D01*
X73537975Y-83053896D01*
X72941259Y-83632155D01*
X72251576Y-84095601D01*
X71490723Y-84429593D01*
X70680249Y-84624171D01*
X69988086Y-84675000D01*
X55014469Y-84675000D01*
X54172357Y-84599843D01*
X53370875Y-84380582D01*
X52620890Y-84022858D01*
X51946104Y-83537975D01*
X51367845Y-82941259D01*
X50904399Y-82251576D01*
X50570407Y-81490723D01*
X50375829Y-80680249D01*
X50325000Y-79988086D01*
X50325000Y-79803017D01*
X53000000Y-79803017D01*
X53000000Y-80196983D01*
X53076859Y-80583378D01*
X53227623Y-80947355D01*
X53446499Y-81274926D01*
X53725074Y-81553501D01*
X54052645Y-81772377D01*
X54416622Y-81923141D01*
X54803017Y-82000000D01*
X55196983Y-82000000D01*
X55583378Y-81923141D01*
X55947355Y-81772377D01*
X56274926Y-81553501D01*
X56553501Y-81274926D01*
X56772377Y-80947355D01*
X56923141Y-80583378D01*
X57000000Y-80196983D01*
X57000000Y-79803017D01*
X68000000Y-79803017D01*
X68000000Y-80196983D01*
X68076859Y-80583378D01*
X68227623Y-80947355D01*
X68446499Y-81274926D01*
X68725074Y-81553501D01*
X69052645Y-81772377D01*
X69416622Y-81923141D01*
X69803017Y-82000000D01*
X70196983Y-82000000D01*
X70583378Y-81923141D01*
X70947355Y-81772377D01*
X71274926Y-81553501D01*
X71553501Y-81274926D01*
X71772377Y-80947355D01*
X71923141Y-80583378D01*
X72000000Y-80196983D01*
X72000000Y-79803017D01*
X71923141Y-79416622D01*
X71772377Y-79052645D01*
X71553501Y-78725074D01*
X71274926Y-78446499D01*
X70947355Y-78227623D01*
X70583378Y-78076859D01*
X70196983Y-78000000D01*
X69803017Y-78000000D01*
X69416622Y-78076859D01*
X69052645Y-78227623D01*
X68725074Y-78446499D01*
X68446499Y-78725074D01*
X68227623Y-79052645D01*
X68076859Y-79416622D01*
X68000000Y-79803017D01*
X57000000Y-79803017D01*
X56923141Y-79416622D01*
X56772377Y-79052645D01*
X56553501Y-78725074D01*
X56274926Y-78446499D01*
X55947355Y-78227623D01*
X55583378Y-78076859D01*
X55196983Y-78000000D01*
X54803017Y-78000000D01*
X54416622Y-78076859D01*
X54052645Y-78227623D01*
X53725074Y-78446499D01*
X53446499Y-78725074D01*
X53227623Y-79052645D01*
X53076859Y-79416622D01*
X53000000Y-79803017D01*
X50325000Y-79803017D01*
X50325000Y-73700000D01*
X60596130Y-73700000D01*
X60600000Y-73739293D01*
X60600000Y-73778793D01*
X60607706Y-73817535D01*
X60611576Y-73856827D01*
X60623037Y-73894607D01*
X60630743Y-73933351D01*
X60645860Y-73969848D01*
X60657321Y-74007628D01*
X60675932Y-74042446D01*
X60691049Y-74078942D01*
X60712997Y-74111790D01*
X60731607Y-74146606D01*
X60756651Y-74177122D01*
X60778599Y-74209970D01*
X60806530Y-74237901D01*
X60831578Y-74268422D01*
X60862098Y-74293469D01*
X60890030Y-74321401D01*
X60922878Y-74343349D01*
X60953394Y-74368393D01*
X60988210Y-74387003D01*
X61021058Y-74408951D01*
X61057554Y-74424068D01*
X61092372Y-74442679D01*
X61130152Y-74454140D01*
X61166649Y-74469257D01*
X61205393Y-74476963D01*
X61243173Y-74488424D01*
X61282465Y-74492294D01*
X61321207Y-74500000D01*
X69987750Y-74500000D01*
X70029062Y-74561828D01*
X70203172Y-74735938D01*
X70407903Y-74872735D01*
X70635389Y-74966963D01*
X70876886Y-75015000D01*
X71123114Y-75015000D01*
X71364611Y-74966963D01*
X71592097Y-74872735D01*
X71796828Y-74735938D01*
X71970938Y-74561828D01*
X72107735Y-74357097D01*
X72201963Y-74129611D01*
X72250000Y-73888114D01*
X72250000Y-73641886D01*
X72201963Y-73400389D01*
X72107735Y-73172903D01*
X71970938Y-72968172D01*
X71796828Y-72794062D01*
X71592097Y-72657265D01*
X71364611Y-72563037D01*
X71123114Y-72515000D01*
X70876886Y-72515000D01*
X70635389Y-72563037D01*
X70407903Y-72657265D01*
X70203172Y-72794062D01*
X70097234Y-72900000D01*
X61321207Y-72900000D01*
X61282465Y-72907706D01*
X61243173Y-72911576D01*
X61205393Y-72923037D01*
X61166649Y-72930743D01*
X61130152Y-72945860D01*
X61092372Y-72957321D01*
X61057554Y-72975932D01*
X61021058Y-72991049D01*
X60988210Y-73012997D01*
X60953394Y-73031607D01*
X60922878Y-73056651D01*
X60890030Y-73078599D01*
X60862098Y-73106531D01*
X60831578Y-73131578D01*
X60806531Y-73162098D01*
X60778599Y-73190030D01*
X60756651Y-73222878D01*
X60731607Y-73253394D01*
X60712997Y-73288210D01*
X60691049Y-73321058D01*
X60675932Y-73357554D01*
X60657321Y-73392372D01*
X60645860Y-73430152D01*
X60630743Y-73466649D01*
X60623037Y-73505393D01*
X60611576Y-73543173D01*
X60607706Y-73582465D01*
X60600000Y-73621207D01*
X60600000Y-73660707D01*
X60596130Y-73700000D01*
X50325000Y-73700000D01*
X50325000Y-69955546D01*
X53136400Y-69955546D01*
X53136400Y-70204454D01*
X53184959Y-70448579D01*
X53280212Y-70678539D01*
X53418498Y-70885498D01*
X53594502Y-71061502D01*
X53599587Y-71064900D01*
X53596130Y-71100000D01*
X53611577Y-71256827D01*
X53657321Y-71407627D01*
X53731607Y-71546606D01*
X53806531Y-71637901D01*
X53831579Y-71668422D01*
X53862098Y-71693468D01*
X55206531Y-73037902D01*
X55231578Y-73068422D01*
X55262098Y-73093469D01*
X55353393Y-73168393D01*
X55463226Y-73227100D01*
X55492372Y-73242679D01*
X55643173Y-73288424D01*
X55760707Y-73300000D01*
X55760709Y-73300000D01*
X55800000Y-73303870D01*
X55839291Y-73300000D01*
X58160709Y-73300000D01*
X58200000Y-73303870D01*
X58239291Y-73300000D01*
X58239293Y-73300000D01*
X58356827Y-73288424D01*
X58507628Y-73242679D01*
X58646606Y-73168393D01*
X58768422Y-73068422D01*
X58793473Y-73037897D01*
X59806371Y-72025000D01*
X70032234Y-72025000D01*
X70203172Y-72195938D01*
X70407903Y-72332735D01*
X70635389Y-72426963D01*
X70876886Y-72475000D01*
X71123114Y-72475000D01*
X71364611Y-72426963D01*
X71592097Y-72332735D01*
X71796828Y-72195938D01*
X71970938Y-72021828D01*
X72107735Y-71817097D01*
X72201963Y-71589611D01*
X72250000Y-71348114D01*
X72250000Y-71101886D01*
X72201963Y-70860389D01*
X72107735Y-70632903D01*
X71970938Y-70428172D01*
X71796828Y-70254062D01*
X71592097Y-70117265D01*
X71364611Y-70023037D01*
X71123114Y-69975000D01*
X70876886Y-69975000D01*
X70635389Y-70023037D01*
X70407903Y-70117265D01*
X70203172Y-70254062D01*
X70032234Y-70425000D01*
X59514282Y-70425000D01*
X59474999Y-70421131D01*
X59435716Y-70425000D01*
X59435707Y-70425000D01*
X59318173Y-70436576D01*
X59167372Y-70482321D01*
X59076803Y-70530731D01*
X59028393Y-70556607D01*
X58937098Y-70631531D01*
X58906578Y-70656578D01*
X58881531Y-70687098D01*
X57868630Y-71700000D01*
X56131371Y-71700000D01*
X55349185Y-70917815D01*
X55381502Y-70885498D01*
X55519788Y-70678539D01*
X55615041Y-70448579D01*
X55663600Y-70204454D01*
X55663600Y-69955546D01*
X55676400Y-69955546D01*
X55676400Y-70204454D01*
X55724959Y-70448579D01*
X55820212Y-70678539D01*
X55958498Y-70885498D01*
X56134502Y-71061502D01*
X56341461Y-71199788D01*
X56571421Y-71295041D01*
X56815546Y-71343600D01*
X57064454Y-71343600D01*
X57308579Y-71295041D01*
X57538539Y-71199788D01*
X57745498Y-71061502D01*
X57921502Y-70885498D01*
X58059788Y-70678539D01*
X58155041Y-70448579D01*
X58203600Y-70204454D01*
X58203600Y-69955546D01*
X58155041Y-69711421D01*
X58059788Y-69481461D01*
X57921502Y-69274502D01*
X57745498Y-69098498D01*
X57538539Y-68960212D01*
X57308579Y-68864959D01*
X57064454Y-68816400D01*
X56815546Y-68816400D01*
X56571421Y-68864959D01*
X56341461Y-68960212D01*
X56134502Y-69098498D01*
X55958498Y-69274502D01*
X55820212Y-69481461D01*
X55724959Y-69711421D01*
X55676400Y-69955546D01*
X55663600Y-69955546D01*
X55615041Y-69711421D01*
X55519788Y-69481461D01*
X55381502Y-69274502D01*
X55205498Y-69098498D01*
X54998539Y-68960212D01*
X54768579Y-68864959D01*
X54524454Y-68816400D01*
X54275546Y-68816400D01*
X54031421Y-68864959D01*
X53801461Y-68960212D01*
X53594502Y-69098498D01*
X53418498Y-69274502D01*
X53280212Y-69481461D01*
X53184959Y-69711421D01*
X53136400Y-69955546D01*
X50325000Y-69955546D01*
X50325000Y-67415546D01*
X55676400Y-67415546D01*
X55676400Y-67664454D01*
X55724959Y-67908579D01*
X55820212Y-68138539D01*
X55958498Y-68345498D01*
X56134502Y-68521502D01*
X56341461Y-68659788D01*
X56571421Y-68755041D01*
X56815546Y-68803600D01*
X57064454Y-68803600D01*
X57308579Y-68755041D01*
X57538539Y-68659788D01*
X57745498Y-68521502D01*
X57921502Y-68345498D01*
X57925176Y-68340000D01*
X58108630Y-68340000D01*
X59006527Y-69237897D01*
X59031578Y-69268422D01*
X59105233Y-69328869D01*
X59153393Y-69368393D01*
X59234241Y-69411607D01*
X59292372Y-69442679D01*
X59443173Y-69488424D01*
X59560707Y-69500000D01*
X59560709Y-69500000D01*
X59600000Y-69503870D01*
X59639291Y-69500000D01*
X69845709Y-69500000D01*
X69885000Y-69503870D01*
X69924291Y-69500000D01*
X70047234Y-69500000D01*
X70203172Y-69655938D01*
X70407903Y-69792735D01*
X70635389Y-69886963D01*
X70876886Y-69935000D01*
X71123114Y-69935000D01*
X71364611Y-69886963D01*
X71592097Y-69792735D01*
X71796828Y-69655938D01*
X71970938Y-69481828D01*
X72107735Y-69277097D01*
X72201963Y-69049611D01*
X72250000Y-68808114D01*
X72250000Y-68561886D01*
X72201963Y-68320389D01*
X72107735Y-68092903D01*
X71970938Y-67888172D01*
X71796828Y-67714062D01*
X71592097Y-67577265D01*
X71364611Y-67483037D01*
X71123114Y-67435000D01*
X70876886Y-67435000D01*
X70635389Y-67483037D01*
X70407903Y-67577265D01*
X70203172Y-67714062D01*
X70029062Y-67888172D01*
X70025507Y-67893492D01*
X69899999Y-67881131D01*
X69743173Y-67896577D01*
X69731889Y-67900000D01*
X59931370Y-67900000D01*
X59033473Y-67002103D01*
X59008422Y-66971578D01*
X58886606Y-66871607D01*
X58747628Y-66797321D01*
X58596827Y-66751576D01*
X58479293Y-66740000D01*
X58479291Y-66740000D01*
X58440000Y-66736130D01*
X58400709Y-66740000D01*
X57925176Y-66740000D01*
X57921502Y-66734502D01*
X57745498Y-66558498D01*
X57538539Y-66420212D01*
X57308579Y-66324959D01*
X57064454Y-66276400D01*
X56815546Y-66276400D01*
X56571421Y-66324959D01*
X56341461Y-66420212D01*
X56134502Y-66558498D01*
X55958498Y-66734502D01*
X55820212Y-66941461D01*
X55724959Y-67171421D01*
X55676400Y-67415546D01*
X50325000Y-67415546D01*
X50325000Y-64136400D01*
X53134465Y-64136400D01*
X53134465Y-65863600D01*
X53142188Y-65942014D01*
X53165060Y-66017414D01*
X53202203Y-66086903D01*
X53252189Y-66147811D01*
X53313097Y-66197797D01*
X53382586Y-66234940D01*
X53457986Y-66257812D01*
X53536400Y-66265535D01*
X55263600Y-66265535D01*
X55342014Y-66257812D01*
X55417414Y-66234940D01*
X55486903Y-66197797D01*
X55547811Y-66147811D01*
X55597797Y-66086903D01*
X55634940Y-66017414D01*
X55657812Y-65942014D01*
X55665535Y-65863600D01*
X55665535Y-64875546D01*
X55676400Y-64875546D01*
X55676400Y-65124454D01*
X55724959Y-65368579D01*
X55820212Y-65598539D01*
X55958498Y-65805498D01*
X56134502Y-65981502D01*
X56341461Y-66119788D01*
X56571421Y-66215041D01*
X56815546Y-66263600D01*
X57064454Y-66263600D01*
X57308579Y-66215041D01*
X57538539Y-66119788D01*
X57745498Y-65981502D01*
X57921502Y-65805498D01*
X58059788Y-65598539D01*
X58155041Y-65368579D01*
X58203600Y-65124454D01*
X58203600Y-65027770D01*
X58826371Y-64405000D01*
X70032234Y-64405000D01*
X70203172Y-64575938D01*
X70407903Y-64712735D01*
X70635389Y-64806963D01*
X70876886Y-64855000D01*
X71123114Y-64855000D01*
X71364611Y-64806963D01*
X71592097Y-64712735D01*
X71796828Y-64575938D01*
X71970938Y-64401828D01*
X72107735Y-64197097D01*
X72201963Y-63969611D01*
X72250000Y-63728114D01*
X72250000Y-63481886D01*
X72201963Y-63240389D01*
X72107735Y-63012903D01*
X71970938Y-62808172D01*
X71796828Y-62634062D01*
X71592097Y-62497265D01*
X71364611Y-62403037D01*
X71123114Y-62355000D01*
X70876886Y-62355000D01*
X70635389Y-62403037D01*
X70407903Y-62497265D01*
X70203172Y-62634062D01*
X70032234Y-62805000D01*
X58534291Y-62805000D01*
X58495000Y-62801130D01*
X58455709Y-62805000D01*
X58455707Y-62805000D01*
X58338173Y-62816576D01*
X58187372Y-62862321D01*
X58048393Y-62936607D01*
X57957098Y-63011531D01*
X57926578Y-63036578D01*
X57901531Y-63067098D01*
X57204394Y-63764236D01*
X57064454Y-63736400D01*
X56815546Y-63736400D01*
X56571421Y-63784959D01*
X56341461Y-63880212D01*
X56134502Y-64018498D01*
X55958498Y-64194502D01*
X55820212Y-64401461D01*
X55724959Y-64631421D01*
X55676400Y-64875546D01*
X55665535Y-64875546D01*
X55665535Y-64136400D01*
X55657812Y-64057986D01*
X55634940Y-63982586D01*
X55597797Y-63913097D01*
X55547811Y-63852189D01*
X55486903Y-63802203D01*
X55417414Y-63765060D01*
X55342014Y-63742188D01*
X55263600Y-63734465D01*
X55200000Y-63734465D01*
X55200000Y-63667770D01*
X57002770Y-61865000D01*
X69748065Y-61865000D01*
X69748065Y-61915000D01*
X69755788Y-61993414D01*
X69778660Y-62068814D01*
X69815803Y-62138303D01*
X69865789Y-62199211D01*
X69926697Y-62249197D01*
X69996186Y-62286340D01*
X70071586Y-62309212D01*
X70150000Y-62316935D01*
X71850000Y-62316935D01*
X71928414Y-62309212D01*
X72003814Y-62286340D01*
X72073303Y-62249197D01*
X72134211Y-62199211D01*
X72184197Y-62138303D01*
X72221340Y-62068814D01*
X72244212Y-61993414D01*
X72251935Y-61915000D01*
X72251935Y-60215000D01*
X72244212Y-60136586D01*
X72221340Y-60061186D01*
X72184197Y-59991697D01*
X72134211Y-59930789D01*
X72073303Y-59880803D01*
X72003814Y-59843660D01*
X71928414Y-59820788D01*
X71850000Y-59813065D01*
X70150000Y-59813065D01*
X70071586Y-59820788D01*
X69996186Y-59843660D01*
X69926697Y-59880803D01*
X69865789Y-59930789D01*
X69815803Y-59991697D01*
X69778660Y-60061186D01*
X69755788Y-60136586D01*
X69748065Y-60215000D01*
X69748065Y-60265000D01*
X56710691Y-60265000D01*
X56671400Y-60261130D01*
X56632109Y-60265000D01*
X56632107Y-60265000D01*
X56514573Y-60276576D01*
X56363772Y-60322321D01*
X56224793Y-60396607D01*
X56176633Y-60436131D01*
X56102978Y-60496578D01*
X56077927Y-60527103D01*
X53862099Y-62742931D01*
X53831579Y-62767978D01*
X53806532Y-62798498D01*
X53806531Y-62798499D01*
X53731607Y-62889794D01*
X53657321Y-63028773D01*
X53611577Y-63179573D01*
X53596130Y-63336400D01*
X53600001Y-63375700D01*
X53600001Y-63734465D01*
X53536400Y-63734465D01*
X53457986Y-63742188D01*
X53382586Y-63765060D01*
X53313097Y-63802203D01*
X53252189Y-63852189D01*
X53202203Y-63913097D01*
X53165060Y-63982586D01*
X53142188Y-64057986D01*
X53134465Y-64136400D01*
X50325000Y-64136400D01*
X50325000Y-55014470D01*
X50343871Y-54803017D01*
X53000000Y-54803017D01*
X53000000Y-55196983D01*
X53076859Y-55583378D01*
X53227623Y-55947355D01*
X53446499Y-56274926D01*
X53725074Y-56553501D01*
X54052645Y-56772377D01*
X54416622Y-56923141D01*
X54803017Y-57000000D01*
X55196983Y-57000000D01*
X55583378Y-56923141D01*
X55947355Y-56772377D01*
X56274926Y-56553501D01*
X56553501Y-56274926D01*
X56772377Y-55947355D01*
X56923141Y-55583378D01*
X57000000Y-55196983D01*
X57000000Y-54803017D01*
X68000000Y-54803017D01*
X68000000Y-55196983D01*
X68076859Y-55583378D01*
X68227623Y-55947355D01*
X68446499Y-56274926D01*
X68725074Y-56553501D01*
X69052645Y-56772377D01*
X69416622Y-56923141D01*
X69803017Y-57000000D01*
X70196983Y-57000000D01*
X70583378Y-56923141D01*
X70947355Y-56772377D01*
X71274926Y-56553501D01*
X71553501Y-56274926D01*
X71772377Y-55947355D01*
X71923141Y-55583378D01*
X72000000Y-55196983D01*
X72000000Y-54803017D01*
X71923141Y-54416622D01*
X71772377Y-54052645D01*
X71553501Y-53725074D01*
X71274926Y-53446499D01*
X70947355Y-53227623D01*
X70583378Y-53076859D01*
X70196983Y-53000000D01*
X69803017Y-53000000D01*
X69416622Y-53076859D01*
X69052645Y-53227623D01*
X68725074Y-53446499D01*
X68446499Y-53725074D01*
X68227623Y-54052645D01*
X68076859Y-54416622D01*
X68000000Y-54803017D01*
X57000000Y-54803017D01*
X56923141Y-54416622D01*
X56772377Y-54052645D01*
X56553501Y-53725074D01*
X56274926Y-53446499D01*
X55947355Y-53227623D01*
X55583378Y-53076859D01*
X55196983Y-53000000D01*
X54803017Y-53000000D01*
X54416622Y-53076859D01*
X54052645Y-53227623D01*
X53725074Y-53446499D01*
X53446499Y-53725074D01*
X53227623Y-54052645D01*
X53076859Y-54416622D01*
X53000000Y-54803017D01*
X50343871Y-54803017D01*
X50400156Y-54172359D01*
X50619418Y-53370875D01*
X50977142Y-52620890D01*
X51462025Y-51946104D01*
X52058741Y-51367845D01*
X52748425Y-50904398D01*
X53509276Y-50570407D01*
X54319751Y-50375829D01*
X55011914Y-50325000D01*
X69985530Y-50325000D01*
X70827641Y-50400156D01*
M02*
