M48
; DRILL file {KiCad 5.1.5-52549c5~84~ubuntu19.10.1} date su  1. maaliskuuta 2020 16.10.11
; FORMAT={-:-/ absolute / inch / decimal}
; #@! TF.CreationDate,2020-03-01T16:10:11+02:00
; #@! TF.GenerationSoftware,Kicad,Pcbnew,5.1.5-52549c5~84~ubuntu19.10.1
; #@! TF.FileFunction,Plated,1,2,PTH
FMAT,2
INCH
T1C0.0157
T2C0.0394
T3C0.0400
%
G90
G05
T1
X2.0866Y-2.8937
X2.0945Y-2.4213
X2.4173Y-2.9016
X2.4291Y-3.1732
X2.4409Y-2.5945
X2.4764Y-2.2047
X2.8819Y-2.2874
X2.8819Y-3.0157
T2
X2.7953Y-2.4041
X2.7953Y-2.5041
X2.7953Y-2.6041
X2.7953Y-2.7041
X2.7953Y-2.8041
X2.7953Y-2.9041
T3
X2.1417Y-2.5591
X2.1417Y-2.6591
X2.1417Y-2.7591
X2.2417Y-2.5591
X2.2417Y-2.6591
X2.2417Y-2.7591
T0
M30
