G04 #@! TF.GenerationSoftware,KiCad,Pcbnew,5.1.5-52549c5~84~ubuntu19.10.1*
G04 #@! TF.CreationDate,2020-03-01T16:10:10+02:00*
G04 #@! TF.ProjectId,PIC-ICSP-TC2030,5049432d-4943-4535-902d-544332303330,v1.0*
G04 #@! TF.SameCoordinates,Original*
G04 #@! TF.FileFunction,Legend,Top*
G04 #@! TF.FilePolarity,Positive*
%FSLAX46Y46*%
G04 Gerber Fmt 4.6, Leading zero omitted, Abs format (unit mm)*
G04 Created by KiCad (PCBNEW 5.1.5-52549c5~84~ubuntu19.10.1) date 2020-03-01 16:10:10*
%MOMM*%
%LPD*%
G04 APERTURE LIST*
%ADD10C,0.200000*%
%ADD11C,0.050000*%
%ADD12C,0.300000*%
%ADD13C,0.120000*%
G04 APERTURE END LIST*
D10*
X53740476Y-52513095D02*
X53740476Y-51213095D01*
X54235714Y-51213095D01*
X54359523Y-51275000D01*
X54421428Y-51336904D01*
X54483333Y-51460714D01*
X54483333Y-51646428D01*
X54421428Y-51770238D01*
X54359523Y-51832142D01*
X54235714Y-51894047D01*
X53740476Y-51894047D01*
X55040476Y-52513095D02*
X55040476Y-51213095D01*
X56402380Y-52389285D02*
X56340476Y-52451190D01*
X56154761Y-52513095D01*
X56030952Y-52513095D01*
X55845238Y-52451190D01*
X55721428Y-52327380D01*
X55659523Y-52203571D01*
X55597619Y-51955952D01*
X55597619Y-51770238D01*
X55659523Y-51522619D01*
X55721428Y-51398809D01*
X55845238Y-51275000D01*
X56030952Y-51213095D01*
X56154761Y-51213095D01*
X56340476Y-51275000D01*
X56402380Y-51336904D01*
X56959523Y-52017857D02*
X57950000Y-52017857D01*
X58569047Y-52513095D02*
X58569047Y-51213095D01*
X59930952Y-52389285D02*
X59869047Y-52451190D01*
X59683333Y-52513095D01*
X59559523Y-52513095D01*
X59373809Y-52451190D01*
X59250000Y-52327380D01*
X59188095Y-52203571D01*
X59126190Y-51955952D01*
X59126190Y-51770238D01*
X59188095Y-51522619D01*
X59250000Y-51398809D01*
X59373809Y-51275000D01*
X59559523Y-51213095D01*
X59683333Y-51213095D01*
X59869047Y-51275000D01*
X59930952Y-51336904D01*
X60426190Y-52451190D02*
X60611904Y-52513095D01*
X60921428Y-52513095D01*
X61045238Y-52451190D01*
X61107142Y-52389285D01*
X61169047Y-52265476D01*
X61169047Y-52141666D01*
X61107142Y-52017857D01*
X61045238Y-51955952D01*
X60921428Y-51894047D01*
X60673809Y-51832142D01*
X60550000Y-51770238D01*
X60488095Y-51708333D01*
X60426190Y-51584523D01*
X60426190Y-51460714D01*
X60488095Y-51336904D01*
X60550000Y-51275000D01*
X60673809Y-51213095D01*
X60983333Y-51213095D01*
X61169047Y-51275000D01*
X61726190Y-52513095D02*
X61726190Y-51213095D01*
X62221428Y-51213095D01*
X62345238Y-51275000D01*
X62407142Y-51336904D01*
X62469047Y-51460714D01*
X62469047Y-51646428D01*
X62407142Y-51770238D01*
X62345238Y-51832142D01*
X62221428Y-51894047D01*
X61726190Y-51894047D01*
X63026190Y-52017857D02*
X64016666Y-52017857D01*
X64450000Y-51213095D02*
X65192857Y-51213095D01*
X64821428Y-52513095D02*
X64821428Y-51213095D01*
X66369047Y-52389285D02*
X66307142Y-52451190D01*
X66121428Y-52513095D01*
X65997619Y-52513095D01*
X65811904Y-52451190D01*
X65688095Y-52327380D01*
X65626190Y-52203571D01*
X65564285Y-51955952D01*
X65564285Y-51770238D01*
X65626190Y-51522619D01*
X65688095Y-51398809D01*
X65811904Y-51275000D01*
X65997619Y-51213095D01*
X66121428Y-51213095D01*
X66307142Y-51275000D01*
X66369047Y-51336904D01*
X66864285Y-51336904D02*
X66926190Y-51275000D01*
X67050000Y-51213095D01*
X67359523Y-51213095D01*
X67483333Y-51275000D01*
X67545238Y-51336904D01*
X67607142Y-51460714D01*
X67607142Y-51584523D01*
X67545238Y-51770238D01*
X66802380Y-52513095D01*
X67607142Y-52513095D01*
X68411904Y-51213095D02*
X68535714Y-51213095D01*
X68659523Y-51275000D01*
X68721428Y-51336904D01*
X68783333Y-51460714D01*
X68845238Y-51708333D01*
X68845238Y-52017857D01*
X68783333Y-52265476D01*
X68721428Y-52389285D01*
X68659523Y-52451190D01*
X68535714Y-52513095D01*
X68411904Y-52513095D01*
X68288095Y-52451190D01*
X68226190Y-52389285D01*
X68164285Y-52265476D01*
X68102380Y-52017857D01*
X68102380Y-51708333D01*
X68164285Y-51460714D01*
X68226190Y-51336904D01*
X68288095Y-51275000D01*
X68411904Y-51213095D01*
X69278571Y-51213095D02*
X70083333Y-51213095D01*
X69650000Y-51708333D01*
X69835714Y-51708333D01*
X69959523Y-51770238D01*
X70021428Y-51832142D01*
X70083333Y-51955952D01*
X70083333Y-52265476D01*
X70021428Y-52389285D01*
X69959523Y-52451190D01*
X69835714Y-52513095D01*
X69464285Y-52513095D01*
X69340476Y-52451190D01*
X69278571Y-52389285D01*
X70888095Y-51213095D02*
X71011904Y-51213095D01*
X71135714Y-51275000D01*
X71197619Y-51336904D01*
X71259523Y-51460714D01*
X71321428Y-51708333D01*
X71321428Y-52017857D01*
X71259523Y-52265476D01*
X71197619Y-52389285D01*
X71135714Y-52451190D01*
X71011904Y-52513095D01*
X70888095Y-52513095D01*
X70764285Y-52451190D01*
X70702380Y-52389285D01*
X70640476Y-52265476D01*
X70578571Y-52017857D01*
X70578571Y-51708333D01*
X70640476Y-51460714D01*
X70702380Y-51336904D01*
X70764285Y-51275000D01*
X70888095Y-51213095D01*
X60642857Y-53796428D02*
X60952380Y-54663095D01*
X61261904Y-53796428D01*
X62438095Y-54663095D02*
X61695238Y-54663095D01*
X62066666Y-54663095D02*
X62066666Y-53363095D01*
X61942857Y-53548809D01*
X61819047Y-53672619D01*
X61695238Y-53734523D01*
X62995238Y-54539285D02*
X63057142Y-54601190D01*
X62995238Y-54663095D01*
X62933333Y-54601190D01*
X62995238Y-54539285D01*
X62995238Y-54663095D01*
X63861904Y-53363095D02*
X63985714Y-53363095D01*
X64109523Y-53425000D01*
X64171428Y-53486904D01*
X64233333Y-53610714D01*
X64295238Y-53858333D01*
X64295238Y-54167857D01*
X64233333Y-54415476D01*
X64171428Y-54539285D01*
X64109523Y-54601190D01*
X63985714Y-54663095D01*
X63861904Y-54663095D01*
X63738095Y-54601190D01*
X63676190Y-54539285D01*
X63614285Y-54415476D01*
X63552380Y-54167857D01*
X63552380Y-53858333D01*
X63614285Y-53610714D01*
X63676190Y-53486904D01*
X63738095Y-53425000D01*
X63861904Y-53363095D01*
X54607142Y-83788095D02*
X54607142Y-82488095D01*
X55164285Y-83788095D02*
X55164285Y-83107142D01*
X55102380Y-82983333D01*
X54978571Y-82921428D01*
X54792857Y-82921428D01*
X54669047Y-82983333D01*
X54607142Y-83045238D01*
X55597619Y-82921428D02*
X56092857Y-82921428D01*
X55783333Y-82488095D02*
X55783333Y-83602380D01*
X55845238Y-83726190D01*
X55969047Y-83788095D01*
X56092857Y-83788095D01*
X56340476Y-82921428D02*
X56835714Y-82921428D01*
X56526190Y-82488095D02*
X56526190Y-83602380D01*
X56588095Y-83726190D01*
X56711904Y-83788095D01*
X56835714Y-83788095D01*
X57269047Y-82921428D02*
X57269047Y-84221428D01*
X57269047Y-82983333D02*
X57392857Y-82921428D01*
X57640476Y-82921428D01*
X57764285Y-82983333D01*
X57826190Y-83045238D01*
X57888095Y-83169047D01*
X57888095Y-83540476D01*
X57826190Y-83664285D01*
X57764285Y-83726190D01*
X57640476Y-83788095D01*
X57392857Y-83788095D01*
X57269047Y-83726190D01*
X58383333Y-83726190D02*
X58507142Y-83788095D01*
X58754761Y-83788095D01*
X58878571Y-83726190D01*
X58940476Y-83602380D01*
X58940476Y-83540476D01*
X58878571Y-83416666D01*
X58754761Y-83354761D01*
X58569047Y-83354761D01*
X58445238Y-83292857D01*
X58383333Y-83169047D01*
X58383333Y-83107142D01*
X58445238Y-82983333D01*
X58569047Y-82921428D01*
X58754761Y-82921428D01*
X58878571Y-82983333D01*
X59497619Y-83664285D02*
X59559523Y-83726190D01*
X59497619Y-83788095D01*
X59435714Y-83726190D01*
X59497619Y-83664285D01*
X59497619Y-83788095D01*
X59497619Y-82983333D02*
X59559523Y-83045238D01*
X59497619Y-83107142D01*
X59435714Y-83045238D01*
X59497619Y-82983333D01*
X59497619Y-83107142D01*
X61045238Y-82426190D02*
X59930952Y-84097619D01*
X62407142Y-82426190D02*
X61292857Y-84097619D01*
X63397619Y-82921428D02*
X63397619Y-83973809D01*
X63335714Y-84097619D01*
X63273809Y-84159523D01*
X63150000Y-84221428D01*
X62964285Y-84221428D01*
X62840476Y-84159523D01*
X63397619Y-83726190D02*
X63273809Y-83788095D01*
X63026190Y-83788095D01*
X62902380Y-83726190D01*
X62840476Y-83664285D01*
X62778571Y-83540476D01*
X62778571Y-83169047D01*
X62840476Y-83045238D01*
X62902380Y-82983333D01*
X63026190Y-82921428D01*
X63273809Y-82921428D01*
X63397619Y-82983333D01*
X64511904Y-83726190D02*
X64388095Y-83788095D01*
X64140476Y-83788095D01*
X64016666Y-83726190D01*
X63954761Y-83602380D01*
X63954761Y-83107142D01*
X64016666Y-82983333D01*
X64140476Y-82921428D01*
X64388095Y-82921428D01*
X64511904Y-82983333D01*
X64573809Y-83107142D01*
X64573809Y-83230952D01*
X63954761Y-83354761D01*
X65130952Y-83788095D02*
X65130952Y-82488095D01*
X65254761Y-83292857D02*
X65626190Y-83788095D01*
X65626190Y-82921428D02*
X65130952Y-83416666D01*
X66183333Y-83788095D02*
X66183333Y-82488095D01*
X66307142Y-83292857D02*
X66678571Y-83788095D01*
X66678571Y-82921428D02*
X66183333Y-83416666D01*
X67235714Y-83788095D02*
X67235714Y-82921428D01*
X67235714Y-82488095D02*
X67173809Y-82550000D01*
X67235714Y-82611904D01*
X67297619Y-82550000D01*
X67235714Y-82488095D01*
X67235714Y-82611904D01*
X68040476Y-83788095D02*
X67916666Y-83726190D01*
X67854761Y-83664285D01*
X67792857Y-83540476D01*
X67792857Y-83169047D01*
X67854761Y-83045238D01*
X67916666Y-82983333D01*
X68040476Y-82921428D01*
X68226190Y-82921428D01*
X68350000Y-82983333D01*
X68411904Y-83045238D01*
X68473809Y-83169047D01*
X68473809Y-83540476D01*
X68411904Y-83664285D01*
X68350000Y-83726190D01*
X68226190Y-83788095D01*
X68040476Y-83788095D01*
X69030952Y-83664285D02*
X69092857Y-83726190D01*
X69030952Y-83788095D01*
X68969047Y-83726190D01*
X69030952Y-83664285D01*
X69030952Y-83788095D01*
X69464285Y-82921428D02*
X69959523Y-82921428D01*
X69650000Y-83788095D02*
X69650000Y-82673809D01*
X69711904Y-82550000D01*
X69835714Y-82488095D01*
X69959523Y-82488095D01*
X70392857Y-83788095D02*
X70392857Y-82921428D01*
X70392857Y-82488095D02*
X70330952Y-82550000D01*
X70392857Y-82611904D01*
X70454761Y-82550000D01*
X70392857Y-82488095D01*
X70392857Y-82611904D01*
D11*
X70000000Y-50000000D02*
G75*
G02X75000000Y-55000000I0J-5000000D01*
G01*
X75000000Y-80000000D02*
G75*
G02X70000000Y-85000000I-5000000J0D01*
G01*
X55000000Y-85000000D02*
G75*
G02X50000000Y-80000000I0J5000000D01*
G01*
X50000000Y-55000000D02*
G75*
G02X55000000Y-50000000I5000000J0D01*
G01*
D12*
X64490714Y-74378571D02*
X64490714Y-72878571D01*
X65347857Y-74378571D01*
X65347857Y-72878571D01*
X66919285Y-74235714D02*
X66847857Y-74307142D01*
X66633571Y-74378571D01*
X66490714Y-74378571D01*
X66276428Y-74307142D01*
X66133571Y-74164285D01*
X66062142Y-74021428D01*
X65990714Y-73735714D01*
X65990714Y-73521428D01*
X66062142Y-73235714D01*
X66133571Y-73092857D01*
X66276428Y-72950000D01*
X66490714Y-72878571D01*
X66633571Y-72878571D01*
X66847857Y-72950000D01*
X66919285Y-73021428D01*
X63062142Y-71778571D02*
X63062142Y-70278571D01*
X63633571Y-70278571D01*
X63776428Y-70350000D01*
X63847857Y-70421428D01*
X63919285Y-70564285D01*
X63919285Y-70778571D01*
X63847857Y-70921428D01*
X63776428Y-70992857D01*
X63633571Y-71064285D01*
X63062142Y-71064285D01*
X65347857Y-70350000D02*
X65205000Y-70278571D01*
X64990714Y-70278571D01*
X64776428Y-70350000D01*
X64633571Y-70492857D01*
X64562142Y-70635714D01*
X64490714Y-70921428D01*
X64490714Y-71135714D01*
X64562142Y-71421428D01*
X64633571Y-71564285D01*
X64776428Y-71707142D01*
X64990714Y-71778571D01*
X65133571Y-71778571D01*
X65347857Y-71707142D01*
X65419285Y-71635714D01*
X65419285Y-71135714D01*
X65133571Y-71135714D01*
X66919285Y-71635714D02*
X66847857Y-71707142D01*
X66633571Y-71778571D01*
X66490714Y-71778571D01*
X66276428Y-71707142D01*
X66133571Y-71564285D01*
X66062142Y-71421428D01*
X65990714Y-71135714D01*
X65990714Y-70921428D01*
X66062142Y-70635714D01*
X66133571Y-70492857D01*
X66276428Y-70350000D01*
X66490714Y-70278571D01*
X66633571Y-70278571D01*
X66847857Y-70350000D01*
X66919285Y-70421428D01*
X63062142Y-69278571D02*
X63062142Y-67778571D01*
X63633571Y-67778571D01*
X63776428Y-67850000D01*
X63847857Y-67921428D01*
X63919285Y-68064285D01*
X63919285Y-68278571D01*
X63847857Y-68421428D01*
X63776428Y-68492857D01*
X63633571Y-68564285D01*
X63062142Y-68564285D01*
X65347857Y-67850000D02*
X65205000Y-67778571D01*
X64990714Y-67778571D01*
X64776428Y-67850000D01*
X64633571Y-67992857D01*
X64562142Y-68135714D01*
X64490714Y-68421428D01*
X64490714Y-68635714D01*
X64562142Y-68921428D01*
X64633571Y-69064285D01*
X64776428Y-69207142D01*
X64990714Y-69278571D01*
X65133571Y-69278571D01*
X65347857Y-69207142D01*
X65419285Y-69135714D01*
X65419285Y-68635714D01*
X65133571Y-68635714D01*
X66062142Y-69278571D02*
X66062142Y-67778571D01*
X66419285Y-67778571D01*
X66633571Y-67850000D01*
X66776428Y-67992857D01*
X66847857Y-68135714D01*
X66919285Y-68421428D01*
X66919285Y-68635714D01*
X66847857Y-68921428D01*
X66776428Y-69064285D01*
X66633571Y-69207142D01*
X66419285Y-69278571D01*
X66062142Y-69278571D01*
X63776428Y-65450000D02*
X63633571Y-65378571D01*
X63419285Y-65378571D01*
X63205000Y-65450000D01*
X63062142Y-65592857D01*
X62990714Y-65735714D01*
X62919285Y-66021428D01*
X62919285Y-66235714D01*
X62990714Y-66521428D01*
X63062142Y-66664285D01*
X63205000Y-66807142D01*
X63419285Y-66878571D01*
X63562142Y-66878571D01*
X63776428Y-66807142D01*
X63847857Y-66735714D01*
X63847857Y-66235714D01*
X63562142Y-66235714D01*
X64490714Y-66878571D02*
X64490714Y-65378571D01*
X65347857Y-66878571D01*
X65347857Y-65378571D01*
X66062142Y-66878571D02*
X66062142Y-65378571D01*
X66419285Y-65378571D01*
X66633571Y-65450000D01*
X66776428Y-65592857D01*
X66847857Y-65735714D01*
X66919285Y-66021428D01*
X66919285Y-66235714D01*
X66847857Y-66521428D01*
X66776428Y-66664285D01*
X66633571Y-66807142D01*
X66419285Y-66878571D01*
X66062142Y-66878571D01*
X63062142Y-62778571D02*
X63562142Y-64278571D01*
X64062142Y-62778571D01*
X64562142Y-64278571D02*
X64562142Y-62778571D01*
X64919285Y-62778571D01*
X65133571Y-62850000D01*
X65276428Y-62992857D01*
X65347857Y-63135714D01*
X65419285Y-63421428D01*
X65419285Y-63635714D01*
X65347857Y-63921428D01*
X65276428Y-64064285D01*
X65133571Y-64207142D01*
X64919285Y-64278571D01*
X64562142Y-64278571D01*
X66062142Y-64278571D02*
X66062142Y-62778571D01*
X66419285Y-62778571D01*
X66633571Y-62850000D01*
X66776428Y-62992857D01*
X66847857Y-63135714D01*
X66919285Y-63421428D01*
X66919285Y-63635714D01*
X66847857Y-63921428D01*
X66776428Y-64064285D01*
X66633571Y-64207142D01*
X66419285Y-64278571D01*
X66062142Y-64278571D01*
X63062142Y-60278571D02*
X63562142Y-61778571D01*
X64062142Y-60278571D01*
X64562142Y-61778571D02*
X64562142Y-60278571D01*
X65133571Y-60278571D01*
X65276428Y-60350000D01*
X65347857Y-60421428D01*
X65419285Y-60564285D01*
X65419285Y-60778571D01*
X65347857Y-60921428D01*
X65276428Y-60992857D01*
X65133571Y-61064285D01*
X64562142Y-61064285D01*
X66062142Y-61778571D02*
X66062142Y-60278571D01*
X66633571Y-60278571D01*
X66776428Y-60350000D01*
X66847857Y-60421428D01*
X66919285Y-60564285D01*
X66919285Y-60778571D01*
X66847857Y-60921428D01*
X66776428Y-60992857D01*
X66633571Y-61064285D01*
X66062142Y-61064285D01*
D11*
X70000000Y-50000000D02*
X55000000Y-50000000D01*
X75000000Y-80000000D02*
X75000000Y-55000000D01*
X55000000Y-85000000D02*
X70000000Y-85000000D01*
X50000000Y-55000000D02*
X50000000Y-80000000D01*
D13*
X69670000Y-75095000D02*
X72330000Y-75095000D01*
X69670000Y-62335000D02*
X69670000Y-75095000D01*
X72330000Y-62335000D02*
X72330000Y-75095000D01*
X69670000Y-62335000D02*
X72330000Y-62335000D01*
X69670000Y-61065000D02*
X69670000Y-59735000D01*
X69670000Y-59735000D02*
X71000000Y-59735000D01*
X50745000Y-59400000D02*
X53285000Y-59400000D01*
X50745000Y-59400000D02*
X50745000Y-61940000D01*
X50995000Y-59650000D02*
X60345000Y-59650000D01*
X50995000Y-75430000D02*
X50995000Y-59650000D01*
X60345000Y-75430000D02*
X50995000Y-75430000D01*
X60345000Y-59650000D02*
X60345000Y-75430000D01*
M02*
