%TF.GenerationSoftware,KiCad,Pcbnew,5.1.7-a382d34a8~87~ubuntu20.04.1*%
%TF.CreationDate,2020-11-06T18:29:56+02:00*%
%TF.ProjectId,BRK-SOT-23-6,42524b2d-534f-4542-9d32-332d362e6b69,v1.0*%
%TF.SameCoordinates,Original*%
%TF.FileFunction,Legend,Bot*%
%TF.FilePolarity,Positive*%
%FSLAX46Y46*%
G04 Gerber Fmt 4.6, Leading zero omitted, Abs format (unit mm)*
G04 Created by KiCad (PCBNEW 5.1.7-a382d34a8~87~ubuntu20.04.1) date 2020-11-06 18:29:56*
%MOMM*%
%LPD*%
G01*
G04 APERTURE LIST*
%ADD10C,0.250000*%
G04 APERTURE END LIST*
D10*
X105014285Y-93246190D02*
X104828571Y-93308095D01*
X104519047Y-93308095D01*
X104395238Y-93246190D01*
X104333333Y-93184285D01*
X104271428Y-93060476D01*
X104271428Y-92936666D01*
X104333333Y-92812857D01*
X104395238Y-92750952D01*
X104519047Y-92689047D01*
X104766666Y-92627142D01*
X104890476Y-92565238D01*
X104952380Y-92503333D01*
X105014285Y-92379523D01*
X105014285Y-92255714D01*
X104952380Y-92131904D01*
X104890476Y-92070000D01*
X104766666Y-92008095D01*
X104457142Y-92008095D01*
X104271428Y-92070000D01*
X103466666Y-92008095D02*
X103219047Y-92008095D01*
X103095238Y-92070000D01*
X102971428Y-92193809D01*
X102909523Y-92441428D01*
X102909523Y-92874761D01*
X102971428Y-93122380D01*
X103095238Y-93246190D01*
X103219047Y-93308095D01*
X103466666Y-93308095D01*
X103590476Y-93246190D01*
X103714285Y-93122380D01*
X103776190Y-92874761D01*
X103776190Y-92441428D01*
X103714285Y-92193809D01*
X103590476Y-92070000D01*
X103466666Y-92008095D01*
X102538095Y-92008095D02*
X101795238Y-92008095D01*
X102166666Y-93308095D02*
X102166666Y-92008095D01*
X101361904Y-92812857D02*
X100371428Y-92812857D01*
X99814285Y-92131904D02*
X99752380Y-92070000D01*
X99628571Y-92008095D01*
X99319047Y-92008095D01*
X99195238Y-92070000D01*
X99133333Y-92131904D01*
X99071428Y-92255714D01*
X99071428Y-92379523D01*
X99133333Y-92565238D01*
X99876190Y-93308095D01*
X99071428Y-93308095D01*
X98638095Y-92008095D02*
X97833333Y-92008095D01*
X98266666Y-92503333D01*
X98080952Y-92503333D01*
X97957142Y-92565238D01*
X97895238Y-92627142D01*
X97833333Y-92750952D01*
X97833333Y-93060476D01*
X97895238Y-93184285D01*
X97957142Y-93246190D01*
X98080952Y-93308095D01*
X98452380Y-93308095D01*
X98576190Y-93246190D01*
X98638095Y-93184285D01*
X97276190Y-92812857D02*
X96285714Y-92812857D01*
X95109523Y-92008095D02*
X95357142Y-92008095D01*
X95480952Y-92070000D01*
X95542857Y-92131904D01*
X95666666Y-92317619D01*
X95728571Y-92565238D01*
X95728571Y-93060476D01*
X95666666Y-93184285D01*
X95604761Y-93246190D01*
X95480952Y-93308095D01*
X95233333Y-93308095D01*
X95109523Y-93246190D01*
X95047619Y-93184285D01*
X94985714Y-93060476D01*
X94985714Y-92750952D01*
X95047619Y-92627142D01*
X95109523Y-92565238D01*
X95233333Y-92503333D01*
X95480952Y-92503333D01*
X95604761Y-92565238D01*
X95666666Y-92627142D01*
X95728571Y-92750952D01*
M02*
