G04 #@! TF.GenerationSoftware,KiCad,Pcbnew,5.0.1-33cea8e~68~ubuntu18.10.1*
G04 #@! TF.CreationDate,2018-11-20T09:40:52+02:00*
G04 #@! TF.ProjectId,BRK-SOT-23-3,42524B2D534F542D32332D332E6B6963,v1.0*
G04 #@! TF.SameCoordinates,Original*
G04 #@! TF.FileFunction,Soldermask,Bot*
G04 #@! TF.FilePolarity,Negative*
%FSLAX46Y46*%
G04 Gerber Fmt 4.6, Leading zero omitted, Abs format (unit mm)*
G04 Created by KiCad (PCBNEW 5.0.1-33cea8e~68~ubuntu18.10.1) date ti 20. marraskuuta 2018 09.40.52*
%MOMM*%
%LPD*%
G01*
G04 APERTURE LIST*
%ADD10C,0.150000*%
%ADD11C,0.100000*%
G04 APERTURE END LIST*
D10*
X68300000Y-70900000D02*
G75*
G02X66300000Y-72900000I-2000000J0D01*
G01*
X52000000Y-72900000D02*
G75*
G02X50000000Y-70900000I0J2000000D01*
G01*
X66300000Y-50000000D02*
G75*
G02X68300000Y-52000000I0J-2000000D01*
G01*
X50000000Y-52000000D02*
G75*
G02X52000000Y-50000000I2000000J0D01*
G01*
X66300000Y-72900000D02*
X52000000Y-72900000D01*
X68300000Y-52000000D02*
X68300000Y-70900000D01*
X52000000Y-50000000D02*
X66300000Y-50000000D01*
X50000000Y-70900000D02*
X50000000Y-52000000D01*
D11*
G36*
X66350000Y-66030000D02*
X64650000Y-66030000D01*
X64650000Y-64330000D01*
X66350000Y-64330000D01*
X66350000Y-66030000D01*
X66350000Y-66030000D01*
G37*
G36*
X52966630Y-64342299D02*
X53126855Y-64390903D01*
X53274520Y-64469831D01*
X53403949Y-64576051D01*
X53510169Y-64705480D01*
X53589097Y-64853145D01*
X53637701Y-65013370D01*
X53654112Y-65180000D01*
X53637701Y-65346630D01*
X53589097Y-65506855D01*
X53510169Y-65654520D01*
X53403949Y-65783949D01*
X53274520Y-65890169D01*
X53126855Y-65969097D01*
X52966630Y-66017701D01*
X52841752Y-66030000D01*
X52758248Y-66030000D01*
X52633370Y-66017701D01*
X52473145Y-65969097D01*
X52325480Y-65890169D01*
X52196051Y-65783949D01*
X52089831Y-65654520D01*
X52010903Y-65506855D01*
X51962299Y-65346630D01*
X51945888Y-65180000D01*
X51962299Y-65013370D01*
X52010903Y-64853145D01*
X52089831Y-64705480D01*
X52196051Y-64576051D01*
X52325480Y-64469831D01*
X52473145Y-64390903D01*
X52633370Y-64342299D01*
X52758248Y-64330000D01*
X52841752Y-64330000D01*
X52966630Y-64342299D01*
X52966630Y-64342299D01*
G37*
G36*
X65666630Y-61802299D02*
X65826855Y-61850903D01*
X65974520Y-61929831D01*
X66103949Y-62036051D01*
X66210169Y-62165480D01*
X66289097Y-62313145D01*
X66337701Y-62473370D01*
X66354112Y-62640000D01*
X66337701Y-62806630D01*
X66289097Y-62966855D01*
X66210169Y-63114520D01*
X66103949Y-63243949D01*
X65974520Y-63350169D01*
X65826855Y-63429097D01*
X65666630Y-63477701D01*
X65541752Y-63490000D01*
X65458248Y-63490000D01*
X65333370Y-63477701D01*
X65173145Y-63429097D01*
X65025480Y-63350169D01*
X64896051Y-63243949D01*
X64789831Y-63114520D01*
X64710903Y-62966855D01*
X64662299Y-62806630D01*
X64645888Y-62640000D01*
X64662299Y-62473370D01*
X64710903Y-62313145D01*
X64789831Y-62165480D01*
X64896051Y-62036051D01*
X65025480Y-61929831D01*
X65173145Y-61850903D01*
X65333370Y-61802299D01*
X65458248Y-61790000D01*
X65541752Y-61790000D01*
X65666630Y-61802299D01*
X65666630Y-61802299D01*
G37*
G36*
X52966630Y-61802299D02*
X53126855Y-61850903D01*
X53274520Y-61929831D01*
X53403949Y-62036051D01*
X53510169Y-62165480D01*
X53589097Y-62313145D01*
X53637701Y-62473370D01*
X53654112Y-62640000D01*
X53637701Y-62806630D01*
X53589097Y-62966855D01*
X53510169Y-63114520D01*
X53403949Y-63243949D01*
X53274520Y-63350169D01*
X53126855Y-63429097D01*
X52966630Y-63477701D01*
X52841752Y-63490000D01*
X52758248Y-63490000D01*
X52633370Y-63477701D01*
X52473145Y-63429097D01*
X52325480Y-63350169D01*
X52196051Y-63243949D01*
X52089831Y-63114520D01*
X52010903Y-62966855D01*
X51962299Y-62806630D01*
X51945888Y-62640000D01*
X51962299Y-62473370D01*
X52010903Y-62313145D01*
X52089831Y-62165480D01*
X52196051Y-62036051D01*
X52325480Y-61929831D01*
X52473145Y-61850903D01*
X52633370Y-61802299D01*
X52758248Y-61790000D01*
X52841752Y-61790000D01*
X52966630Y-61802299D01*
X52966630Y-61802299D01*
G37*
G36*
X65666630Y-59262299D02*
X65826855Y-59310903D01*
X65974520Y-59389831D01*
X66103949Y-59496051D01*
X66210169Y-59625480D01*
X66289097Y-59773145D01*
X66337701Y-59933370D01*
X66354112Y-60100000D01*
X66337701Y-60266630D01*
X66289097Y-60426855D01*
X66210169Y-60574520D01*
X66103949Y-60703949D01*
X65974520Y-60810169D01*
X65826855Y-60889097D01*
X65666630Y-60937701D01*
X65541752Y-60950000D01*
X65458248Y-60950000D01*
X65333370Y-60937701D01*
X65173145Y-60889097D01*
X65025480Y-60810169D01*
X64896051Y-60703949D01*
X64789831Y-60574520D01*
X64710903Y-60426855D01*
X64662299Y-60266630D01*
X64645888Y-60100000D01*
X64662299Y-59933370D01*
X64710903Y-59773145D01*
X64789831Y-59625480D01*
X64896051Y-59496051D01*
X65025480Y-59389831D01*
X65173145Y-59310903D01*
X65333370Y-59262299D01*
X65458248Y-59250000D01*
X65541752Y-59250000D01*
X65666630Y-59262299D01*
X65666630Y-59262299D01*
G37*
G36*
X53650000Y-60950000D02*
X51950000Y-60950000D01*
X51950000Y-59250000D01*
X53650000Y-59250000D01*
X53650000Y-60950000D01*
X53650000Y-60950000D01*
G37*
M02*
