G04 #@! TF.GenerationSoftware,KiCad,Pcbnew,5.1.6-c6e7f7d~86~ubuntu20.04.1*
G04 #@! TF.CreationDate,2020-05-17T01:14:38+03:00*
G04 #@! TF.ProjectId,BRK-SOT-23-3,42524b2d-534f-4542-9d32-332d332e6b69,v1.1*
G04 #@! TF.SameCoordinates,Original*
G04 #@! TF.FileFunction,Copper,L1,Top*
G04 #@! TF.FilePolarity,Positive*
%FSLAX46Y46*%
G04 Gerber Fmt 4.6, Leading zero omitted, Abs format (unit mm)*
G04 Created by KiCad (PCBNEW 5.1.6-c6e7f7d~86~ubuntu20.04.1) date 2020-05-17 01:14:38*
%MOMM*%
%LPD*%
G01*
G04 APERTURE LIST*
G04 #@! TA.AperFunction,Profile*
%ADD10C,0.150000*%
G04 #@! TD*
G04 #@! TA.AperFunction,ComponentPad*
%ADD11O,1.700000X1.700000*%
G04 #@! TD*
G04 #@! TA.AperFunction,ComponentPad*
%ADD12R,1.700000X1.700000*%
G04 #@! TD*
G04 #@! TA.AperFunction,SMDPad,CuDef*
%ADD13R,1.900000X0.800000*%
G04 #@! TD*
G04 #@! TA.AperFunction,Conductor*
%ADD14C,0.600000*%
G04 #@! TD*
G04 APERTURE END LIST*
D10*
X67300000Y-71400000D02*
G75*
G02*
X65300000Y-73400000I-2000000J0D01*
G01*
X53000000Y-73400000D02*
G75*
G02*
X51000000Y-71400000I0J2000000D01*
G01*
X65300000Y-50000000D02*
G75*
G02*
X67300000Y-52000000I0J-2000000D01*
G01*
X51000000Y-52000000D02*
G75*
G02*
X53000000Y-50000000I2000000J0D01*
G01*
X65300000Y-73400000D02*
X53000000Y-73400000D01*
X67300000Y-52000000D02*
X67300000Y-71400000D01*
X53000000Y-50000000D02*
X65300000Y-50000000D01*
X51000000Y-71400000D02*
X51000000Y-52000000D01*
D11*
X65500000Y-60100000D03*
X65500000Y-62640000D03*
D12*
X65500000Y-65180000D03*
D11*
X52800000Y-65180000D03*
X52800000Y-62640000D03*
D12*
X52800000Y-60100000D03*
D13*
X57650000Y-65230000D03*
X60650000Y-64280000D03*
X60650000Y-66180000D03*
X60650000Y-60050000D03*
X57650000Y-61000000D03*
X57650000Y-59100000D03*
D14*
X56100000Y-59100000D02*
X55100000Y-60100000D01*
X57650000Y-59100000D02*
X56100000Y-59100000D01*
X55100000Y-60100000D02*
X52800000Y-60100000D01*
X56100000Y-61000000D02*
X54450000Y-62650000D01*
X57650000Y-61000000D02*
X56100000Y-61000000D01*
X54440000Y-62640000D02*
X52800000Y-62640000D01*
X54450000Y-62650000D02*
X54440000Y-62640000D01*
X65450000Y-60050000D02*
X65500000Y-60100000D01*
X60650000Y-60050000D02*
X65450000Y-60050000D01*
X52850000Y-65230000D02*
X52800000Y-65180000D01*
X57650000Y-65230000D02*
X52850000Y-65230000D01*
X63840000Y-62640000D02*
X65500000Y-62640000D01*
X60650000Y-64280000D02*
X62200000Y-64280000D01*
X62200000Y-64280000D02*
X63840000Y-62640000D01*
X60650000Y-66180000D02*
X63070000Y-66180000D01*
X63070000Y-66180000D02*
X64050000Y-65200000D01*
X65480000Y-65200000D02*
X65500000Y-65180000D01*
X64050000Y-65200000D02*
X65480000Y-65200000D01*
M02*
