G04 #@! TF.GenerationSoftware,KiCad,Pcbnew,5.1.4-e60b266~84~ubuntu19.04.1*
G04 #@! TF.CreationDate,2019-08-10T10:36:48+03:00*
G04 #@! TF.ProjectId,BRK-SOT-23-3,42524b2d-534f-4542-9d32-332d332e6b69,v1.1*
G04 #@! TF.SameCoordinates,Original*
G04 #@! TF.FileFunction,Soldermask,Top*
G04 #@! TF.FilePolarity,Negative*
%FSLAX46Y46*%
G04 Gerber Fmt 4.6, Leading zero omitted, Abs format (unit mm)*
G04 Created by KiCad (PCBNEW 5.1.4-e60b266~84~ubuntu19.04.1) date 2019-08-10 10:36:48*
%MOMM*%
%LPD*%
G04 APERTURE LIST*
%ADD10C,0.150000*%
%ADD11C,0.100000*%
G04 APERTURE END LIST*
D10*
X67300000Y-71400000D02*
G75*
G02X65300000Y-73400000I-2000000J0D01*
G01*
X53000000Y-73400000D02*
G75*
G02X51000000Y-71400000I0J2000000D01*
G01*
X65300000Y-50000000D02*
G75*
G02X67300000Y-52000000I0J-2000000D01*
G01*
X51000000Y-52000000D02*
G75*
G02X53000000Y-50000000I2000000J0D01*
G01*
X65300000Y-73400000D02*
X53000000Y-73400000D01*
X67300000Y-52000000D02*
X67300000Y-71400000D01*
X53000000Y-50000000D02*
X65300000Y-50000000D01*
X51000000Y-71400000D02*
X51000000Y-52000000D01*
D11*
G36*
X61600000Y-66580000D02*
G01*
X59700000Y-66580000D01*
X59700000Y-65780000D01*
X61600000Y-65780000D01*
X61600000Y-66580000D01*
X61600000Y-66580000D01*
G37*
G36*
X66350000Y-66030000D02*
G01*
X64650000Y-66030000D01*
X64650000Y-64330000D01*
X66350000Y-64330000D01*
X66350000Y-66030000D01*
X66350000Y-66030000D01*
G37*
G36*
X52966627Y-64342299D02*
G01*
X53126856Y-64390903D01*
X53274519Y-64469830D01*
X53403949Y-64576051D01*
X53510170Y-64705481D01*
X53589097Y-64853144D01*
X53637702Y-65013373D01*
X53654113Y-65180000D01*
X53637702Y-65346627D01*
X53589097Y-65506856D01*
X53510170Y-65654519D01*
X53403949Y-65783949D01*
X53274519Y-65890170D01*
X53126856Y-65969097D01*
X52966627Y-66017701D01*
X52841757Y-66030000D01*
X52758243Y-66030000D01*
X52633373Y-66017701D01*
X52473144Y-65969097D01*
X52325481Y-65890170D01*
X52196051Y-65783949D01*
X52089830Y-65654519D01*
X52010903Y-65506856D01*
X51962298Y-65346627D01*
X51945887Y-65180000D01*
X51962298Y-65013373D01*
X52010903Y-64853144D01*
X52089830Y-64705481D01*
X52196051Y-64576051D01*
X52325481Y-64469830D01*
X52473144Y-64390903D01*
X52633373Y-64342299D01*
X52758243Y-64330000D01*
X52841757Y-64330000D01*
X52966627Y-64342299D01*
X52966627Y-64342299D01*
G37*
G36*
X58600000Y-65630000D02*
G01*
X56700000Y-65630000D01*
X56700000Y-64830000D01*
X58600000Y-64830000D01*
X58600000Y-65630000D01*
X58600000Y-65630000D01*
G37*
G36*
X61600000Y-64680000D02*
G01*
X59700000Y-64680000D01*
X59700000Y-63880000D01*
X61600000Y-63880000D01*
X61600000Y-64680000D01*
X61600000Y-64680000D01*
G37*
G36*
X52966627Y-61802299D02*
G01*
X53126856Y-61850903D01*
X53274519Y-61929830D01*
X53403949Y-62036051D01*
X53510170Y-62165481D01*
X53589097Y-62313144D01*
X53637702Y-62473373D01*
X53654113Y-62640000D01*
X53637702Y-62806627D01*
X53589097Y-62966856D01*
X53510170Y-63114519D01*
X53403949Y-63243949D01*
X53274519Y-63350170D01*
X53126856Y-63429097D01*
X52966627Y-63477701D01*
X52841757Y-63490000D01*
X52758243Y-63490000D01*
X52633373Y-63477701D01*
X52473144Y-63429097D01*
X52325481Y-63350170D01*
X52196051Y-63243949D01*
X52089830Y-63114519D01*
X52010903Y-62966856D01*
X51962298Y-62806627D01*
X51945887Y-62640000D01*
X51962298Y-62473373D01*
X52010903Y-62313144D01*
X52089830Y-62165481D01*
X52196051Y-62036051D01*
X52325481Y-61929830D01*
X52473144Y-61850903D01*
X52633373Y-61802299D01*
X52758243Y-61790000D01*
X52841757Y-61790000D01*
X52966627Y-61802299D01*
X52966627Y-61802299D01*
G37*
G36*
X65666627Y-61802299D02*
G01*
X65826856Y-61850903D01*
X65974519Y-61929830D01*
X66103949Y-62036051D01*
X66210170Y-62165481D01*
X66289097Y-62313144D01*
X66337702Y-62473373D01*
X66354113Y-62640000D01*
X66337702Y-62806627D01*
X66289097Y-62966856D01*
X66210170Y-63114519D01*
X66103949Y-63243949D01*
X65974519Y-63350170D01*
X65826856Y-63429097D01*
X65666627Y-63477701D01*
X65541757Y-63490000D01*
X65458243Y-63490000D01*
X65333373Y-63477701D01*
X65173144Y-63429097D01*
X65025481Y-63350170D01*
X64896051Y-63243949D01*
X64789830Y-63114519D01*
X64710903Y-62966856D01*
X64662298Y-62806627D01*
X64645887Y-62640000D01*
X64662298Y-62473373D01*
X64710903Y-62313144D01*
X64789830Y-62165481D01*
X64896051Y-62036051D01*
X65025481Y-61929830D01*
X65173144Y-61850903D01*
X65333373Y-61802299D01*
X65458243Y-61790000D01*
X65541757Y-61790000D01*
X65666627Y-61802299D01*
X65666627Y-61802299D01*
G37*
G36*
X58600000Y-61400000D02*
G01*
X56700000Y-61400000D01*
X56700000Y-60600000D01*
X58600000Y-60600000D01*
X58600000Y-61400000D01*
X58600000Y-61400000D01*
G37*
G36*
X65666627Y-59262299D02*
G01*
X65826856Y-59310903D01*
X65974519Y-59389830D01*
X66103949Y-59496051D01*
X66210170Y-59625481D01*
X66289097Y-59773144D01*
X66337702Y-59933373D01*
X66354113Y-60100000D01*
X66337702Y-60266627D01*
X66289097Y-60426856D01*
X66210170Y-60574519D01*
X66103949Y-60703949D01*
X65974519Y-60810170D01*
X65826856Y-60889097D01*
X65666627Y-60937701D01*
X65541757Y-60950000D01*
X65458243Y-60950000D01*
X65333373Y-60937701D01*
X65173144Y-60889097D01*
X65025481Y-60810170D01*
X64896051Y-60703949D01*
X64789830Y-60574519D01*
X64710903Y-60426856D01*
X64662298Y-60266627D01*
X64645887Y-60100000D01*
X64662298Y-59933373D01*
X64710903Y-59773144D01*
X64789830Y-59625481D01*
X64896051Y-59496051D01*
X65025481Y-59389830D01*
X65173144Y-59310903D01*
X65333373Y-59262299D01*
X65458243Y-59250000D01*
X65541757Y-59250000D01*
X65666627Y-59262299D01*
X65666627Y-59262299D01*
G37*
G36*
X53650000Y-60950000D02*
G01*
X51950000Y-60950000D01*
X51950000Y-59250000D01*
X53650000Y-59250000D01*
X53650000Y-60950000D01*
X53650000Y-60950000D01*
G37*
G36*
X61600000Y-60450000D02*
G01*
X59700000Y-60450000D01*
X59700000Y-59650000D01*
X61600000Y-59650000D01*
X61600000Y-60450000D01*
X61600000Y-60450000D01*
G37*
G36*
X58600000Y-59500000D02*
G01*
X56700000Y-59500000D01*
X56700000Y-58700000D01*
X58600000Y-58700000D01*
X58600000Y-59500000D01*
X58600000Y-59500000D01*
G37*
M02*
