M48
; DRILL file {KiCad 5.1.4-e60b266~84~ubuntu19.04.1} date su  6. lokakuuta 2019 15.33.41
; FORMAT={-:-/ absolute / inch / decimal}
; #@! TF.CreationDate,2019-10-06T15:33:41+03:00
; #@! TF.GenerationSoftware,Kicad,Pcbnew,5.1.4-e60b266~84~ubuntu19.04.1
; #@! TF.FileFunction,Plated,1,2,PTH
FMAT,2
INCH
T1C0.0394
%
G90
G05
T1
X1.8268Y-3.1929
X1.9268Y-3.1929
X2.0268Y-3.1929
X2.1268Y-3.1929
X2.2268Y-3.1929
X2.3268Y-3.1929
X2.4268Y-3.1929
X2.5268Y-3.1929
X2.6268Y-3.1929
X2.7268Y-3.1929
X2.8268Y-3.1929
X1.8268Y-1.7756
X1.9268Y-1.7756
X2.0268Y-1.7756
X2.1268Y-1.7756
X2.2268Y-1.7756
X2.3268Y-1.7756
X2.4268Y-1.7756
X2.5268Y-1.7756
X2.6268Y-1.7756
X2.7268Y-1.7756
X2.8268Y-1.7756
X1.5984Y-1.9646
X1.5984Y-2.0646
X1.5984Y-2.1646
X1.5984Y-2.2646
X1.5984Y-2.3646
X1.5984Y-2.4646
X1.5984Y-2.5646
X1.5984Y-2.6646
X1.5984Y-2.7646
X1.5984Y-2.8646
X1.5984Y-2.9646
X3.0157Y-1.9646
X3.0157Y-2.0646
X3.0157Y-2.1646
X3.0157Y-2.2646
X3.0157Y-2.3646
X3.0157Y-2.4646
X3.0157Y-2.5646
X3.0157Y-2.6646
X3.0157Y-2.7646
X3.0157Y-2.8646
X3.0157Y-2.9646
T0
M30
