G04 #@! TF.GenerationSoftware,KiCad,Pcbnew,5.1.4-e60b266~84~ubuntu19.04.1*
G04 #@! TF.CreationDate,2019-10-06T15:33:40+03:00*
G04 #@! TF.ProjectId,BRK-QFP-44-10x10-P0.8-Sharp,42524b2d-5146-4502-9d34-342d31307831,v1.0*
G04 #@! TF.SameCoordinates,Original*
G04 #@! TF.FileFunction,Legend,Top*
G04 #@! TF.FilePolarity,Positive*
%FSLAX46Y46*%
G04 Gerber Fmt 4.6, Leading zero omitted, Abs format (unit mm)*
G04 Created by KiCad (PCBNEW 5.1.4-e60b266~84~ubuntu19.04.1) date 2019-10-06 15:33:40*
%MOMM*%
%LPD*%
G04 APERTURE LIST*
%ADD10C,0.300000*%
%ADD11C,0.150000*%
%ADD12C,0.120000*%
G04 APERTURE END LIST*
D10*
X42919285Y-44842857D02*
X42919285Y-45642857D01*
X42633571Y-44385714D02*
X42347857Y-45242857D01*
X43090714Y-45242857D01*
X44062142Y-44842857D02*
X44062142Y-45642857D01*
X43776428Y-44385714D02*
X43490714Y-45242857D01*
X44233571Y-45242857D01*
X48642857Y-48580714D02*
X49442857Y-48580714D01*
X48185714Y-48866428D02*
X49042857Y-49152142D01*
X49042857Y-48409285D01*
X48242857Y-48066428D02*
X48242857Y-47323571D01*
X48700000Y-47723571D01*
X48700000Y-47552142D01*
X48757142Y-47437857D01*
X48814285Y-47380714D01*
X48928571Y-47323571D01*
X49214285Y-47323571D01*
X49328571Y-47380714D01*
X49385714Y-47437857D01*
X49442857Y-47552142D01*
X49442857Y-47895000D01*
X49385714Y-48009285D01*
X49328571Y-48066428D01*
X51242857Y-48580714D02*
X52042857Y-48580714D01*
X50785714Y-48866428D02*
X51642857Y-49152142D01*
X51642857Y-48409285D01*
X50957142Y-48009285D02*
X50900000Y-47952142D01*
X50842857Y-47837857D01*
X50842857Y-47552142D01*
X50900000Y-47437857D01*
X50957142Y-47380714D01*
X51071428Y-47323571D01*
X51185714Y-47323571D01*
X51357142Y-47380714D01*
X52042857Y-48066428D01*
X52042857Y-47323571D01*
X53742857Y-48580714D02*
X54542857Y-48580714D01*
X53285714Y-48866428D02*
X54142857Y-49152142D01*
X54142857Y-48409285D01*
X54542857Y-47323571D02*
X54542857Y-48009285D01*
X54542857Y-47666428D02*
X53342857Y-47666428D01*
X53514285Y-47780714D01*
X53628571Y-47895000D01*
X53685714Y-48009285D01*
X56242857Y-48580714D02*
X57042857Y-48580714D01*
X55785714Y-48866428D02*
X56642857Y-49152142D01*
X56642857Y-48409285D01*
X55842857Y-47723571D02*
X55842857Y-47609285D01*
X55900000Y-47495000D01*
X55957142Y-47437857D01*
X56071428Y-47380714D01*
X56300000Y-47323571D01*
X56585714Y-47323571D01*
X56814285Y-47380714D01*
X56928571Y-47437857D01*
X56985714Y-47495000D01*
X57042857Y-47609285D01*
X57042857Y-47723571D01*
X56985714Y-47837857D01*
X56928571Y-47895000D01*
X56814285Y-47952142D01*
X56585714Y-48009285D01*
X56300000Y-48009285D01*
X56071428Y-47952142D01*
X55957142Y-47895000D01*
X55900000Y-47837857D01*
X55842857Y-47723571D01*
X58442857Y-49209285D02*
X58442857Y-48466428D01*
X58900000Y-48866428D01*
X58900000Y-48695000D01*
X58957142Y-48580714D01*
X59014285Y-48523571D01*
X59128571Y-48466428D01*
X59414285Y-48466428D01*
X59528571Y-48523571D01*
X59585714Y-48580714D01*
X59642857Y-48695000D01*
X59642857Y-49037857D01*
X59585714Y-49152142D01*
X59528571Y-49209285D01*
X59642857Y-47895000D02*
X59642857Y-47666428D01*
X59585714Y-47552142D01*
X59528571Y-47495000D01*
X59357142Y-47380714D01*
X59128571Y-47323571D01*
X58671428Y-47323571D01*
X58557142Y-47380714D01*
X58500000Y-47437857D01*
X58442857Y-47552142D01*
X58442857Y-47780714D01*
X58500000Y-47895000D01*
X58557142Y-47952142D01*
X58671428Y-48009285D01*
X58957142Y-48009285D01*
X59071428Y-47952142D01*
X59128571Y-47895000D01*
X59185714Y-47780714D01*
X59185714Y-47552142D01*
X59128571Y-47437857D01*
X59071428Y-47380714D01*
X58957142Y-47323571D01*
X60942857Y-49209285D02*
X60942857Y-48466428D01*
X61400000Y-48866428D01*
X61400000Y-48695000D01*
X61457142Y-48580714D01*
X61514285Y-48523571D01*
X61628571Y-48466428D01*
X61914285Y-48466428D01*
X62028571Y-48523571D01*
X62085714Y-48580714D01*
X62142857Y-48695000D01*
X62142857Y-49037857D01*
X62085714Y-49152142D01*
X62028571Y-49209285D01*
X61457142Y-47780714D02*
X61400000Y-47895000D01*
X61342857Y-47952142D01*
X61228571Y-48009285D01*
X61171428Y-48009285D01*
X61057142Y-47952142D01*
X61000000Y-47895000D01*
X60942857Y-47780714D01*
X60942857Y-47552142D01*
X61000000Y-47437857D01*
X61057142Y-47380714D01*
X61171428Y-47323571D01*
X61228571Y-47323571D01*
X61342857Y-47380714D01*
X61400000Y-47437857D01*
X61457142Y-47552142D01*
X61457142Y-47780714D01*
X61514285Y-47895000D01*
X61571428Y-47952142D01*
X61685714Y-48009285D01*
X61914285Y-48009285D01*
X62028571Y-47952142D01*
X62085714Y-47895000D01*
X62142857Y-47780714D01*
X62142857Y-47552142D01*
X62085714Y-47437857D01*
X62028571Y-47380714D01*
X61914285Y-47323571D01*
X61685714Y-47323571D01*
X61571428Y-47380714D01*
X61514285Y-47437857D01*
X61457142Y-47552142D01*
X63442857Y-49209285D02*
X63442857Y-48466428D01*
X63900000Y-48866428D01*
X63900000Y-48695000D01*
X63957142Y-48580714D01*
X64014285Y-48523571D01*
X64128571Y-48466428D01*
X64414285Y-48466428D01*
X64528571Y-48523571D01*
X64585714Y-48580714D01*
X64642857Y-48695000D01*
X64642857Y-49037857D01*
X64585714Y-49152142D01*
X64528571Y-49209285D01*
X63442857Y-48066428D02*
X63442857Y-47266428D01*
X64642857Y-47780714D01*
X66042857Y-49209285D02*
X66042857Y-48466428D01*
X66500000Y-48866428D01*
X66500000Y-48695000D01*
X66557142Y-48580714D01*
X66614285Y-48523571D01*
X66728571Y-48466428D01*
X67014285Y-48466428D01*
X67128571Y-48523571D01*
X67185714Y-48580714D01*
X67242857Y-48695000D01*
X67242857Y-49037857D01*
X67185714Y-49152142D01*
X67128571Y-49209285D01*
X66042857Y-47437857D02*
X66042857Y-47666428D01*
X66100000Y-47780714D01*
X66157142Y-47837857D01*
X66328571Y-47952142D01*
X66557142Y-48009285D01*
X67014285Y-48009285D01*
X67128571Y-47952142D01*
X67185714Y-47895000D01*
X67242857Y-47780714D01*
X67242857Y-47552142D01*
X67185714Y-47437857D01*
X67128571Y-47380714D01*
X67014285Y-47323571D01*
X66728571Y-47323571D01*
X66614285Y-47380714D01*
X66557142Y-47437857D01*
X66500000Y-47552142D01*
X66500000Y-47780714D01*
X66557142Y-47895000D01*
X66614285Y-47952142D01*
X66728571Y-48009285D01*
X68542857Y-49209285D02*
X68542857Y-48466428D01*
X69000000Y-48866428D01*
X69000000Y-48695000D01*
X69057142Y-48580714D01*
X69114285Y-48523571D01*
X69228571Y-48466428D01*
X69514285Y-48466428D01*
X69628571Y-48523571D01*
X69685714Y-48580714D01*
X69742857Y-48695000D01*
X69742857Y-49037857D01*
X69685714Y-49152142D01*
X69628571Y-49209285D01*
X68542857Y-47380714D02*
X68542857Y-47952142D01*
X69114285Y-48009285D01*
X69057142Y-47952142D01*
X69000000Y-47837857D01*
X69000000Y-47552142D01*
X69057142Y-47437857D01*
X69114285Y-47380714D01*
X69228571Y-47323571D01*
X69514285Y-47323571D01*
X69628571Y-47380714D01*
X69685714Y-47437857D01*
X69742857Y-47552142D01*
X69742857Y-47837857D01*
X69685714Y-47952142D01*
X69628571Y-48009285D01*
X73966428Y-44442857D02*
X74709285Y-44442857D01*
X74309285Y-44900000D01*
X74480714Y-44900000D01*
X74595000Y-44957142D01*
X74652142Y-45014285D01*
X74709285Y-45128571D01*
X74709285Y-45414285D01*
X74652142Y-45528571D01*
X74595000Y-45585714D01*
X74480714Y-45642857D01*
X74137857Y-45642857D01*
X74023571Y-45585714D01*
X73966428Y-45528571D01*
X75737857Y-44842857D02*
X75737857Y-45642857D01*
X75452142Y-44385714D02*
X75166428Y-45242857D01*
X75909285Y-45242857D01*
X72490714Y-49242857D02*
X73233571Y-49242857D01*
X72833571Y-49700000D01*
X73005000Y-49700000D01*
X73119285Y-49757142D01*
X73176428Y-49814285D01*
X73233571Y-49928571D01*
X73233571Y-50214285D01*
X73176428Y-50328571D01*
X73119285Y-50385714D01*
X73005000Y-50442857D01*
X72662142Y-50442857D01*
X72547857Y-50385714D01*
X72490714Y-50328571D01*
X73633571Y-49242857D02*
X74376428Y-49242857D01*
X73976428Y-49700000D01*
X74147857Y-49700000D01*
X74262142Y-49757142D01*
X74319285Y-49814285D01*
X74376428Y-49928571D01*
X74376428Y-50214285D01*
X74319285Y-50328571D01*
X74262142Y-50385714D01*
X74147857Y-50442857D01*
X73805000Y-50442857D01*
X73690714Y-50385714D01*
X73633571Y-50328571D01*
X72490714Y-51842857D02*
X73233571Y-51842857D01*
X72833571Y-52300000D01*
X73005000Y-52300000D01*
X73119285Y-52357142D01*
X73176428Y-52414285D01*
X73233571Y-52528571D01*
X73233571Y-52814285D01*
X73176428Y-52928571D01*
X73119285Y-52985714D01*
X73005000Y-53042857D01*
X72662142Y-53042857D01*
X72547857Y-52985714D01*
X72490714Y-52928571D01*
X73690714Y-51957142D02*
X73747857Y-51900000D01*
X73862142Y-51842857D01*
X74147857Y-51842857D01*
X74262142Y-51900000D01*
X74319285Y-51957142D01*
X74376428Y-52071428D01*
X74376428Y-52185714D01*
X74319285Y-52357142D01*
X73633571Y-53042857D01*
X74376428Y-53042857D01*
X72490714Y-54342857D02*
X73233571Y-54342857D01*
X72833571Y-54800000D01*
X73005000Y-54800000D01*
X73119285Y-54857142D01*
X73176428Y-54914285D01*
X73233571Y-55028571D01*
X73233571Y-55314285D01*
X73176428Y-55428571D01*
X73119285Y-55485714D01*
X73005000Y-55542857D01*
X72662142Y-55542857D01*
X72547857Y-55485714D01*
X72490714Y-55428571D01*
X74376428Y-55542857D02*
X73690714Y-55542857D01*
X74033571Y-55542857D02*
X74033571Y-54342857D01*
X73919285Y-54514285D01*
X73805000Y-54628571D01*
X73690714Y-54685714D01*
X72490714Y-56842857D02*
X73233571Y-56842857D01*
X72833571Y-57300000D01*
X73005000Y-57300000D01*
X73119285Y-57357142D01*
X73176428Y-57414285D01*
X73233571Y-57528571D01*
X73233571Y-57814285D01*
X73176428Y-57928571D01*
X73119285Y-57985714D01*
X73005000Y-58042857D01*
X72662142Y-58042857D01*
X72547857Y-57985714D01*
X72490714Y-57928571D01*
X73976428Y-56842857D02*
X74090714Y-56842857D01*
X74205000Y-56900000D01*
X74262142Y-56957142D01*
X74319285Y-57071428D01*
X74376428Y-57300000D01*
X74376428Y-57585714D01*
X74319285Y-57814285D01*
X74262142Y-57928571D01*
X74205000Y-57985714D01*
X74090714Y-58042857D01*
X73976428Y-58042857D01*
X73862142Y-57985714D01*
X73805000Y-57928571D01*
X73747857Y-57814285D01*
X73690714Y-57585714D01*
X73690714Y-57300000D01*
X73747857Y-57071428D01*
X73805000Y-56957142D01*
X73862142Y-56900000D01*
X73976428Y-56842857D01*
X72547857Y-59557142D02*
X72605000Y-59500000D01*
X72719285Y-59442857D01*
X73005000Y-59442857D01*
X73119285Y-59500000D01*
X73176428Y-59557142D01*
X73233571Y-59671428D01*
X73233571Y-59785714D01*
X73176428Y-59957142D01*
X72490714Y-60642857D01*
X73233571Y-60642857D01*
X73805000Y-60642857D02*
X74033571Y-60642857D01*
X74147857Y-60585714D01*
X74205000Y-60528571D01*
X74319285Y-60357142D01*
X74376428Y-60128571D01*
X74376428Y-59671428D01*
X74319285Y-59557142D01*
X74262142Y-59500000D01*
X74147857Y-59442857D01*
X73919285Y-59442857D01*
X73805000Y-59500000D01*
X73747857Y-59557142D01*
X73690714Y-59671428D01*
X73690714Y-59957142D01*
X73747857Y-60071428D01*
X73805000Y-60128571D01*
X73919285Y-60185714D01*
X74147857Y-60185714D01*
X74262142Y-60128571D01*
X74319285Y-60071428D01*
X74376428Y-59957142D01*
X72547857Y-62057142D02*
X72605000Y-62000000D01*
X72719285Y-61942857D01*
X73005000Y-61942857D01*
X73119285Y-62000000D01*
X73176428Y-62057142D01*
X73233571Y-62171428D01*
X73233571Y-62285714D01*
X73176428Y-62457142D01*
X72490714Y-63142857D01*
X73233571Y-63142857D01*
X73919285Y-62457142D02*
X73805000Y-62400000D01*
X73747857Y-62342857D01*
X73690714Y-62228571D01*
X73690714Y-62171428D01*
X73747857Y-62057142D01*
X73805000Y-62000000D01*
X73919285Y-61942857D01*
X74147857Y-61942857D01*
X74262142Y-62000000D01*
X74319285Y-62057142D01*
X74376428Y-62171428D01*
X74376428Y-62228571D01*
X74319285Y-62342857D01*
X74262142Y-62400000D01*
X74147857Y-62457142D01*
X73919285Y-62457142D01*
X73805000Y-62514285D01*
X73747857Y-62571428D01*
X73690714Y-62685714D01*
X73690714Y-62914285D01*
X73747857Y-63028571D01*
X73805000Y-63085714D01*
X73919285Y-63142857D01*
X74147857Y-63142857D01*
X74262142Y-63085714D01*
X74319285Y-63028571D01*
X74376428Y-62914285D01*
X74376428Y-62685714D01*
X74319285Y-62571428D01*
X74262142Y-62514285D01*
X74147857Y-62457142D01*
X72547857Y-64557142D02*
X72605000Y-64500000D01*
X72719285Y-64442857D01*
X73005000Y-64442857D01*
X73119285Y-64500000D01*
X73176428Y-64557142D01*
X73233571Y-64671428D01*
X73233571Y-64785714D01*
X73176428Y-64957142D01*
X72490714Y-65642857D01*
X73233571Y-65642857D01*
X73633571Y-64442857D02*
X74433571Y-64442857D01*
X73919285Y-65642857D01*
X72547857Y-67057142D02*
X72605000Y-67000000D01*
X72719285Y-66942857D01*
X73005000Y-66942857D01*
X73119285Y-67000000D01*
X73176428Y-67057142D01*
X73233571Y-67171428D01*
X73233571Y-67285714D01*
X73176428Y-67457142D01*
X72490714Y-68142857D01*
X73233571Y-68142857D01*
X74262142Y-66942857D02*
X74033571Y-66942857D01*
X73919285Y-67000000D01*
X73862142Y-67057142D01*
X73747857Y-67228571D01*
X73690714Y-67457142D01*
X73690714Y-67914285D01*
X73747857Y-68028571D01*
X73805000Y-68085714D01*
X73919285Y-68142857D01*
X74147857Y-68142857D01*
X74262142Y-68085714D01*
X74319285Y-68028571D01*
X74376428Y-67914285D01*
X74376428Y-67628571D01*
X74319285Y-67514285D01*
X74262142Y-67457142D01*
X74147857Y-67400000D01*
X73919285Y-67400000D01*
X73805000Y-67457142D01*
X73747857Y-67514285D01*
X73690714Y-67628571D01*
X72547857Y-69657142D02*
X72605000Y-69600000D01*
X72719285Y-69542857D01*
X73005000Y-69542857D01*
X73119285Y-69600000D01*
X73176428Y-69657142D01*
X73233571Y-69771428D01*
X73233571Y-69885714D01*
X73176428Y-70057142D01*
X72490714Y-70742857D01*
X73233571Y-70742857D01*
X74319285Y-69542857D02*
X73747857Y-69542857D01*
X73690714Y-70114285D01*
X73747857Y-70057142D01*
X73862142Y-70000000D01*
X74147857Y-70000000D01*
X74262142Y-70057142D01*
X74319285Y-70114285D01*
X74376428Y-70228571D01*
X74376428Y-70514285D01*
X74319285Y-70628571D01*
X74262142Y-70685714D01*
X74147857Y-70742857D01*
X73862142Y-70742857D01*
X73747857Y-70685714D01*
X73690714Y-70628571D01*
X72547857Y-72157142D02*
X72605000Y-72100000D01*
X72719285Y-72042857D01*
X73005000Y-72042857D01*
X73119285Y-72100000D01*
X73176428Y-72157142D01*
X73233571Y-72271428D01*
X73233571Y-72385714D01*
X73176428Y-72557142D01*
X72490714Y-73242857D01*
X73233571Y-73242857D01*
X74262142Y-72442857D02*
X74262142Y-73242857D01*
X73976428Y-71985714D02*
X73690714Y-72842857D01*
X74433571Y-72842857D01*
X72547857Y-74757142D02*
X72605000Y-74700000D01*
X72719285Y-74642857D01*
X73005000Y-74642857D01*
X73119285Y-74700000D01*
X73176428Y-74757142D01*
X73233571Y-74871428D01*
X73233571Y-74985714D01*
X73176428Y-75157142D01*
X72490714Y-75842857D01*
X73233571Y-75842857D01*
X73633571Y-74642857D02*
X74376428Y-74642857D01*
X73976428Y-75100000D01*
X74147857Y-75100000D01*
X74262142Y-75157142D01*
X74319285Y-75214285D01*
X74376428Y-75328571D01*
X74376428Y-75614285D01*
X74319285Y-75728571D01*
X74262142Y-75785714D01*
X74147857Y-75842857D01*
X73805000Y-75842857D01*
X73690714Y-75785714D01*
X73633571Y-75728571D01*
X71257142Y-78876428D02*
X71200000Y-78819285D01*
X71142857Y-78705000D01*
X71142857Y-78419285D01*
X71200000Y-78305000D01*
X71257142Y-78247857D01*
X71371428Y-78190714D01*
X71485714Y-78190714D01*
X71657142Y-78247857D01*
X72342857Y-78933571D01*
X72342857Y-78190714D01*
X71257142Y-77733571D02*
X71200000Y-77676428D01*
X71142857Y-77562142D01*
X71142857Y-77276428D01*
X71200000Y-77162142D01*
X71257142Y-77105000D01*
X71371428Y-77047857D01*
X71485714Y-77047857D01*
X71657142Y-77105000D01*
X72342857Y-77790714D01*
X72342857Y-77047857D01*
X68657142Y-78876428D02*
X68600000Y-78819285D01*
X68542857Y-78705000D01*
X68542857Y-78419285D01*
X68600000Y-78305000D01*
X68657142Y-78247857D01*
X68771428Y-78190714D01*
X68885714Y-78190714D01*
X69057142Y-78247857D01*
X69742857Y-78933571D01*
X69742857Y-78190714D01*
X69742857Y-77047857D02*
X69742857Y-77733571D01*
X69742857Y-77390714D02*
X68542857Y-77390714D01*
X68714285Y-77505000D01*
X68828571Y-77619285D01*
X68885714Y-77733571D01*
X66157142Y-78876428D02*
X66100000Y-78819285D01*
X66042857Y-78705000D01*
X66042857Y-78419285D01*
X66100000Y-78305000D01*
X66157142Y-78247857D01*
X66271428Y-78190714D01*
X66385714Y-78190714D01*
X66557142Y-78247857D01*
X67242857Y-78933571D01*
X67242857Y-78190714D01*
X66042857Y-77447857D02*
X66042857Y-77333571D01*
X66100000Y-77219285D01*
X66157142Y-77162142D01*
X66271428Y-77105000D01*
X66500000Y-77047857D01*
X66785714Y-77047857D01*
X67014285Y-77105000D01*
X67128571Y-77162142D01*
X67185714Y-77219285D01*
X67242857Y-77333571D01*
X67242857Y-77447857D01*
X67185714Y-77562142D01*
X67128571Y-77619285D01*
X67014285Y-77676428D01*
X66785714Y-77733571D01*
X66500000Y-77733571D01*
X66271428Y-77676428D01*
X66157142Y-77619285D01*
X66100000Y-77562142D01*
X66042857Y-77447857D01*
X64742857Y-78190714D02*
X64742857Y-78876428D01*
X64742857Y-78533571D02*
X63542857Y-78533571D01*
X63714285Y-78647857D01*
X63828571Y-78762142D01*
X63885714Y-78876428D01*
X64742857Y-77619285D02*
X64742857Y-77390714D01*
X64685714Y-77276428D01*
X64628571Y-77219285D01*
X64457142Y-77105000D01*
X64228571Y-77047857D01*
X63771428Y-77047857D01*
X63657142Y-77105000D01*
X63600000Y-77162142D01*
X63542857Y-77276428D01*
X63542857Y-77505000D01*
X63600000Y-77619285D01*
X63657142Y-77676428D01*
X63771428Y-77733571D01*
X64057142Y-77733571D01*
X64171428Y-77676428D01*
X64228571Y-77619285D01*
X64285714Y-77505000D01*
X64285714Y-77276428D01*
X64228571Y-77162142D01*
X64171428Y-77105000D01*
X64057142Y-77047857D01*
X62142857Y-78190714D02*
X62142857Y-78876428D01*
X62142857Y-78533571D02*
X60942857Y-78533571D01*
X61114285Y-78647857D01*
X61228571Y-78762142D01*
X61285714Y-78876428D01*
X61457142Y-77505000D02*
X61400000Y-77619285D01*
X61342857Y-77676428D01*
X61228571Y-77733571D01*
X61171428Y-77733571D01*
X61057142Y-77676428D01*
X61000000Y-77619285D01*
X60942857Y-77505000D01*
X60942857Y-77276428D01*
X61000000Y-77162142D01*
X61057142Y-77105000D01*
X61171428Y-77047857D01*
X61228571Y-77047857D01*
X61342857Y-77105000D01*
X61400000Y-77162142D01*
X61457142Y-77276428D01*
X61457142Y-77505000D01*
X61514285Y-77619285D01*
X61571428Y-77676428D01*
X61685714Y-77733571D01*
X61914285Y-77733571D01*
X62028571Y-77676428D01*
X62085714Y-77619285D01*
X62142857Y-77505000D01*
X62142857Y-77276428D01*
X62085714Y-77162142D01*
X62028571Y-77105000D01*
X61914285Y-77047857D01*
X61685714Y-77047857D01*
X61571428Y-77105000D01*
X61514285Y-77162142D01*
X61457142Y-77276428D01*
X59642857Y-78190714D02*
X59642857Y-78876428D01*
X59642857Y-78533571D02*
X58442857Y-78533571D01*
X58614285Y-78647857D01*
X58728571Y-78762142D01*
X58785714Y-78876428D01*
X58442857Y-77790714D02*
X58442857Y-76990714D01*
X59642857Y-77505000D01*
X57142857Y-78190714D02*
X57142857Y-78876428D01*
X57142857Y-78533571D02*
X55942857Y-78533571D01*
X56114285Y-78647857D01*
X56228571Y-78762142D01*
X56285714Y-78876428D01*
X55942857Y-77162142D02*
X55942857Y-77390714D01*
X56000000Y-77505000D01*
X56057142Y-77562142D01*
X56228571Y-77676428D01*
X56457142Y-77733571D01*
X56914285Y-77733571D01*
X57028571Y-77676428D01*
X57085714Y-77619285D01*
X57142857Y-77505000D01*
X57142857Y-77276428D01*
X57085714Y-77162142D01*
X57028571Y-77105000D01*
X56914285Y-77047857D01*
X56628571Y-77047857D01*
X56514285Y-77105000D01*
X56457142Y-77162142D01*
X56400000Y-77276428D01*
X56400000Y-77505000D01*
X56457142Y-77619285D01*
X56514285Y-77676428D01*
X56628571Y-77733571D01*
X54542857Y-78190714D02*
X54542857Y-78876428D01*
X54542857Y-78533571D02*
X53342857Y-78533571D01*
X53514285Y-78647857D01*
X53628571Y-78762142D01*
X53685714Y-78876428D01*
X53342857Y-77105000D02*
X53342857Y-77676428D01*
X53914285Y-77733571D01*
X53857142Y-77676428D01*
X53800000Y-77562142D01*
X53800000Y-77276428D01*
X53857142Y-77162142D01*
X53914285Y-77105000D01*
X54028571Y-77047857D01*
X54314285Y-77047857D01*
X54428571Y-77105000D01*
X54485714Y-77162142D01*
X54542857Y-77276428D01*
X54542857Y-77562142D01*
X54485714Y-77676428D01*
X54428571Y-77733571D01*
X52042857Y-78190714D02*
X52042857Y-78876428D01*
X52042857Y-78533571D02*
X50842857Y-78533571D01*
X51014285Y-78647857D01*
X51128571Y-78762142D01*
X51185714Y-78876428D01*
X51242857Y-77162142D02*
X52042857Y-77162142D01*
X50785714Y-77447857D02*
X51642857Y-77733571D01*
X51642857Y-76990714D01*
D11*
X73400000Y-30400000D02*
G75*
G02X78400000Y-35400000I0J-5000000D01*
G01*
X38800000Y-35400000D02*
G75*
G02X43800000Y-30400000I5000000J0D01*
G01*
X78400000Y-77900000D02*
G75*
G02X73400000Y-82900000I-5000000J0D01*
G01*
D10*
X43509285Y-73342857D02*
X42823571Y-73342857D01*
X43166428Y-73342857D02*
X43166428Y-72142857D01*
X43052142Y-72314285D01*
X42937857Y-72428571D01*
X42823571Y-72485714D01*
X44252142Y-72142857D02*
X44366428Y-72142857D01*
X44480714Y-72200000D01*
X44537857Y-72257142D01*
X44595000Y-72371428D01*
X44652142Y-72600000D01*
X44652142Y-72885714D01*
X44595000Y-73114285D01*
X44537857Y-73228571D01*
X44480714Y-73285714D01*
X44366428Y-73342857D01*
X44252142Y-73342857D01*
X44137857Y-73285714D01*
X44080714Y-73228571D01*
X44023571Y-73114285D01*
X43966428Y-72885714D01*
X43966428Y-72600000D01*
X44023571Y-72371428D01*
X44080714Y-72257142D01*
X44137857Y-72200000D01*
X44252142Y-72142857D01*
X42937857Y-70742857D02*
X43166428Y-70742857D01*
X43280714Y-70685714D01*
X43337857Y-70628571D01*
X43452142Y-70457142D01*
X43509285Y-70228571D01*
X43509285Y-69771428D01*
X43452142Y-69657142D01*
X43395000Y-69600000D01*
X43280714Y-69542857D01*
X43052142Y-69542857D01*
X42937857Y-69600000D01*
X42880714Y-69657142D01*
X42823571Y-69771428D01*
X42823571Y-70057142D01*
X42880714Y-70171428D01*
X42937857Y-70228571D01*
X43052142Y-70285714D01*
X43280714Y-70285714D01*
X43395000Y-70228571D01*
X43452142Y-70171428D01*
X43509285Y-70057142D01*
X43052142Y-67457142D02*
X42937857Y-67400000D01*
X42880714Y-67342857D01*
X42823571Y-67228571D01*
X42823571Y-67171428D01*
X42880714Y-67057142D01*
X42937857Y-67000000D01*
X43052142Y-66942857D01*
X43280714Y-66942857D01*
X43395000Y-67000000D01*
X43452142Y-67057142D01*
X43509285Y-67171428D01*
X43509285Y-67228571D01*
X43452142Y-67342857D01*
X43395000Y-67400000D01*
X43280714Y-67457142D01*
X43052142Y-67457142D01*
X42937857Y-67514285D01*
X42880714Y-67571428D01*
X42823571Y-67685714D01*
X42823571Y-67914285D01*
X42880714Y-68028571D01*
X42937857Y-68085714D01*
X43052142Y-68142857D01*
X43280714Y-68142857D01*
X43395000Y-68085714D01*
X43452142Y-68028571D01*
X43509285Y-67914285D01*
X43509285Y-67685714D01*
X43452142Y-67571428D01*
X43395000Y-67514285D01*
X43280714Y-67457142D01*
X42766428Y-64442857D02*
X43566428Y-64442857D01*
X43052142Y-65642857D01*
X43395000Y-61942857D02*
X43166428Y-61942857D01*
X43052142Y-62000000D01*
X42995000Y-62057142D01*
X42880714Y-62228571D01*
X42823571Y-62457142D01*
X42823571Y-62914285D01*
X42880714Y-63028571D01*
X42937857Y-63085714D01*
X43052142Y-63142857D01*
X43280714Y-63142857D01*
X43395000Y-63085714D01*
X43452142Y-63028571D01*
X43509285Y-62914285D01*
X43509285Y-62628571D01*
X43452142Y-62514285D01*
X43395000Y-62457142D01*
X43280714Y-62400000D01*
X43052142Y-62400000D01*
X42937857Y-62457142D01*
X42880714Y-62514285D01*
X42823571Y-62628571D01*
X43452142Y-59442857D02*
X42880714Y-59442857D01*
X42823571Y-60014285D01*
X42880714Y-59957142D01*
X42995000Y-59900000D01*
X43280714Y-59900000D01*
X43395000Y-59957142D01*
X43452142Y-60014285D01*
X43509285Y-60128571D01*
X43509285Y-60414285D01*
X43452142Y-60528571D01*
X43395000Y-60585714D01*
X43280714Y-60642857D01*
X42995000Y-60642857D01*
X42880714Y-60585714D01*
X42823571Y-60528571D01*
X43395000Y-57342857D02*
X43395000Y-58142857D01*
X43109285Y-56885714D02*
X42823571Y-57742857D01*
X43566428Y-57742857D01*
X42766428Y-54342857D02*
X43509285Y-54342857D01*
X43109285Y-54800000D01*
X43280714Y-54800000D01*
X43395000Y-54857142D01*
X43452142Y-54914285D01*
X43509285Y-55028571D01*
X43509285Y-55314285D01*
X43452142Y-55428571D01*
X43395000Y-55485714D01*
X43280714Y-55542857D01*
X42937857Y-55542857D01*
X42823571Y-55485714D01*
X42766428Y-55428571D01*
X49542857Y-78190714D02*
X49542857Y-78876428D01*
X49542857Y-78533571D02*
X48342857Y-78533571D01*
X48514285Y-78647857D01*
X48628571Y-78762142D01*
X48685714Y-78876428D01*
X48342857Y-77790714D02*
X48342857Y-77047857D01*
X48800000Y-77447857D01*
X48800000Y-77276428D01*
X48857142Y-77162142D01*
X48914285Y-77105000D01*
X49028571Y-77047857D01*
X49314285Y-77047857D01*
X49428571Y-77105000D01*
X49485714Y-77162142D01*
X49542857Y-77276428D01*
X49542857Y-77619285D01*
X49485714Y-77733571D01*
X49428571Y-77790714D01*
X46942857Y-78190714D02*
X46942857Y-78876428D01*
X46942857Y-78533571D02*
X45742857Y-78533571D01*
X45914285Y-78647857D01*
X46028571Y-78762142D01*
X46085714Y-78876428D01*
X45857142Y-77733571D02*
X45800000Y-77676428D01*
X45742857Y-77562142D01*
X45742857Y-77276428D01*
X45800000Y-77162142D01*
X45857142Y-77105000D01*
X45971428Y-77047857D01*
X46085714Y-77047857D01*
X46257142Y-77105000D01*
X46942857Y-77790714D01*
X46942857Y-77047857D01*
X43509285Y-75842857D02*
X42823571Y-75842857D01*
X43166428Y-75842857D02*
X43166428Y-74642857D01*
X43052142Y-74814285D01*
X42937857Y-74928571D01*
X42823571Y-74985714D01*
X44652142Y-75842857D02*
X43966428Y-75842857D01*
X44309285Y-75842857D02*
X44309285Y-74642857D01*
X44195000Y-74814285D01*
X44080714Y-74928571D01*
X43966428Y-74985714D01*
X42823571Y-51957142D02*
X42880714Y-51900000D01*
X42995000Y-51842857D01*
X43280714Y-51842857D01*
X43395000Y-51900000D01*
X43452142Y-51957142D01*
X43509285Y-52071428D01*
X43509285Y-52185714D01*
X43452142Y-52357142D01*
X42766428Y-53042857D01*
X43509285Y-53042857D01*
D11*
X43800000Y-82900000D02*
G75*
G02X38800000Y-77900000I0J5000000D01*
G01*
D10*
X43509285Y-50542857D02*
X42823571Y-50542857D01*
X43166428Y-50542857D02*
X43166428Y-49342857D01*
X43052142Y-49514285D01*
X42937857Y-49628571D01*
X42823571Y-49685714D01*
D11*
X73400000Y-82900000D02*
X43800000Y-82900000D01*
G36*
X78000000Y-42100000D02*
G01*
X39300000Y-42100000D01*
X39300000Y-37100000D01*
X78000000Y-37100000D01*
X78000000Y-42100000D01*
G37*
X78000000Y-42100000D02*
X39300000Y-42100000D01*
X39300000Y-37100000D01*
X78000000Y-37100000D01*
X78000000Y-42100000D01*
X78400000Y-35400000D02*
X78400000Y-77900000D01*
D10*
X51778571Y-33546428D02*
X51635714Y-33475000D01*
X51492857Y-33332142D01*
X51278571Y-33117857D01*
X51135714Y-33046428D01*
X50992857Y-33046428D01*
X51064285Y-33403571D02*
X50921428Y-33332142D01*
X50778571Y-33189285D01*
X50707142Y-32903571D01*
X50707142Y-32403571D01*
X50778571Y-32117857D01*
X50921428Y-31975000D01*
X51064285Y-31903571D01*
X51349999Y-31903571D01*
X51492857Y-31975000D01*
X51635714Y-32117857D01*
X51707142Y-32403571D01*
X51707142Y-32903571D01*
X51635714Y-33189285D01*
X51492857Y-33332142D01*
X51349999Y-33403571D01*
X51064285Y-33403571D01*
X52849999Y-32617857D02*
X52349999Y-32617857D01*
X52349999Y-33403571D02*
X52349999Y-31903571D01*
X53064285Y-31903571D01*
X53635714Y-33403571D02*
X53635714Y-31903571D01*
X54207142Y-31903571D01*
X54349999Y-31975000D01*
X54421428Y-32046428D01*
X54492857Y-32189285D01*
X54492857Y-32403571D01*
X54421428Y-32546428D01*
X54349999Y-32617857D01*
X54207142Y-32689285D01*
X53635714Y-32689285D01*
X55135714Y-32832142D02*
X56278571Y-32832142D01*
X57635714Y-32403571D02*
X57635714Y-33403571D01*
X57278571Y-31832142D02*
X56921428Y-32903571D01*
X57849999Y-32903571D01*
X59064285Y-32403571D02*
X59064285Y-33403571D01*
X58707142Y-31832142D02*
X58349999Y-32903571D01*
X59278571Y-32903571D01*
X59849999Y-32832142D02*
X60992857Y-32832142D01*
X61635714Y-33332142D02*
X61850000Y-33403571D01*
X62207142Y-33403571D01*
X62350000Y-33332142D01*
X62421428Y-33260714D01*
X62492857Y-33117857D01*
X62492857Y-32975000D01*
X62421428Y-32832142D01*
X62350000Y-32760714D01*
X62207142Y-32689285D01*
X61921428Y-32617857D01*
X61778571Y-32546428D01*
X61707142Y-32475000D01*
X61635714Y-32332142D01*
X61635714Y-32189285D01*
X61707142Y-32046428D01*
X61778571Y-31975000D01*
X61921428Y-31903571D01*
X62278571Y-31903571D01*
X62492857Y-31975000D01*
X63135714Y-33403571D02*
X63135714Y-31903571D01*
X63778571Y-33403571D02*
X63778571Y-32617857D01*
X63707142Y-32475000D01*
X63564285Y-32403571D01*
X63350000Y-32403571D01*
X63207142Y-32475000D01*
X63135714Y-32546428D01*
X65135714Y-33403571D02*
X65135714Y-32617857D01*
X65064285Y-32475000D01*
X64921428Y-32403571D01*
X64635714Y-32403571D01*
X64492857Y-32475000D01*
X65135714Y-33332142D02*
X64992857Y-33403571D01*
X64635714Y-33403571D01*
X64492857Y-33332142D01*
X64421428Y-33189285D01*
X64421428Y-33046428D01*
X64492857Y-32903571D01*
X64635714Y-32832142D01*
X64992857Y-32832142D01*
X65135714Y-32760714D01*
X65849999Y-33403571D02*
X65849999Y-32403571D01*
X65849999Y-32689285D02*
X65921428Y-32546428D01*
X65992857Y-32475000D01*
X66135714Y-32403571D01*
X66278571Y-32403571D01*
X66778571Y-32403571D02*
X66778571Y-33903571D01*
X66778571Y-32475000D02*
X66921428Y-32403571D01*
X67207142Y-32403571D01*
X67350000Y-32475000D01*
X67421428Y-32546428D01*
X67492857Y-32689285D01*
X67492857Y-33117857D01*
X67421428Y-33260714D01*
X67350000Y-33332142D01*
X67207142Y-33403571D01*
X66921428Y-33403571D01*
X66778571Y-33332142D01*
X53314285Y-35953571D02*
X52457142Y-35953571D01*
X52885714Y-35953571D02*
X52885714Y-34453571D01*
X52742857Y-34667857D01*
X52599999Y-34810714D01*
X52457142Y-34882142D01*
X54242857Y-34453571D02*
X54385714Y-34453571D01*
X54528571Y-34525000D01*
X54599999Y-34596428D01*
X54671428Y-34739285D01*
X54742857Y-35025000D01*
X54742857Y-35382142D01*
X54671428Y-35667857D01*
X54599999Y-35810714D01*
X54528571Y-35882142D01*
X54385714Y-35953571D01*
X54242857Y-35953571D01*
X54099999Y-35882142D01*
X54028571Y-35810714D01*
X53957142Y-35667857D01*
X53885714Y-35382142D01*
X53885714Y-35025000D01*
X53957142Y-34739285D01*
X54028571Y-34596428D01*
X54099999Y-34525000D01*
X54242857Y-34453571D01*
X55242857Y-35953571D02*
X56028571Y-34953571D01*
X55242857Y-34953571D02*
X56028571Y-35953571D01*
X57385714Y-35953571D02*
X56528571Y-35953571D01*
X56957142Y-35953571D02*
X56957142Y-34453571D01*
X56814285Y-34667857D01*
X56671428Y-34810714D01*
X56528571Y-34882142D01*
X58314285Y-34453571D02*
X58457142Y-34453571D01*
X58599999Y-34525000D01*
X58671428Y-34596428D01*
X58742857Y-34739285D01*
X58814285Y-35025000D01*
X58814285Y-35382142D01*
X58742857Y-35667857D01*
X58671428Y-35810714D01*
X58599999Y-35882142D01*
X58457142Y-35953571D01*
X58314285Y-35953571D01*
X58171428Y-35882142D01*
X58099999Y-35810714D01*
X58028571Y-35667857D01*
X57957142Y-35382142D01*
X57957142Y-35025000D01*
X58028571Y-34739285D01*
X58099999Y-34596428D01*
X58171428Y-34525000D01*
X58314285Y-34453571D01*
X59457142Y-35382142D02*
X60599999Y-35382142D01*
X61314285Y-35953571D02*
X61314285Y-34453571D01*
X61885714Y-34453571D01*
X62028571Y-34525000D01*
X62099999Y-34596428D01*
X62171428Y-34739285D01*
X62171428Y-34953571D01*
X62099999Y-35096428D01*
X62028571Y-35167857D01*
X61885714Y-35239285D01*
X61314285Y-35239285D01*
X63099999Y-34453571D02*
X63242857Y-34453571D01*
X63385714Y-34525000D01*
X63457142Y-34596428D01*
X63528571Y-34739285D01*
X63599999Y-35025000D01*
X63599999Y-35382142D01*
X63528571Y-35667857D01*
X63457142Y-35810714D01*
X63385714Y-35882142D01*
X63242857Y-35953571D01*
X63099999Y-35953571D01*
X62957142Y-35882142D01*
X62885714Y-35810714D01*
X62814285Y-35667857D01*
X62742857Y-35382142D01*
X62742857Y-35025000D01*
X62814285Y-34739285D01*
X62885714Y-34596428D01*
X62957142Y-34525000D01*
X63099999Y-34453571D01*
X64242857Y-35810714D02*
X64314285Y-35882142D01*
X64242857Y-35953571D01*
X64171428Y-35882142D01*
X64242857Y-35810714D01*
X64242857Y-35953571D01*
X65171428Y-35096428D02*
X65028571Y-35025000D01*
X64957142Y-34953571D01*
X64885714Y-34810714D01*
X64885714Y-34739285D01*
X64957142Y-34596428D01*
X65028571Y-34525000D01*
X65171428Y-34453571D01*
X65457142Y-34453571D01*
X65599999Y-34525000D01*
X65671428Y-34596428D01*
X65742857Y-34739285D01*
X65742857Y-34810714D01*
X65671428Y-34953571D01*
X65599999Y-35025000D01*
X65457142Y-35096428D01*
X65171428Y-35096428D01*
X65028571Y-35167857D01*
X64957142Y-35239285D01*
X64885714Y-35382142D01*
X64885714Y-35667857D01*
X64957142Y-35810714D01*
X65028571Y-35882142D01*
X65171428Y-35953571D01*
X65457142Y-35953571D01*
X65599999Y-35882142D01*
X65671428Y-35810714D01*
X65742857Y-35667857D01*
X65742857Y-35382142D01*
X65671428Y-35239285D01*
X65599999Y-35167857D01*
X65457142Y-35096428D01*
D11*
X43800000Y-30400000D02*
X73400000Y-30400000D01*
X38800000Y-77900000D02*
X38800000Y-35400000D01*
D12*
X53990000Y-58065000D02*
X51800000Y-58065000D01*
X53990000Y-57490000D02*
X53990000Y-58065000D01*
X54565000Y-57490000D02*
X53990000Y-57490000D01*
X64210000Y-57490000D02*
X64210000Y-58065000D01*
X63635000Y-57490000D02*
X64210000Y-57490000D01*
X53990000Y-67710000D02*
X53990000Y-67135000D01*
X54565000Y-67710000D02*
X53990000Y-67710000D01*
X64210000Y-67710000D02*
X64210000Y-67135000D01*
X63635000Y-67710000D02*
X64210000Y-67710000D01*
X73130000Y-43770000D02*
X73130000Y-45100000D01*
X71800000Y-43770000D02*
X73130000Y-43770000D01*
X70530000Y-43770000D02*
X70530000Y-46430000D01*
X70530000Y-46430000D02*
X45070000Y-46430000D01*
X70530000Y-43770000D02*
X45070000Y-43770000D01*
X45070000Y-43770000D02*
X45070000Y-46430000D01*
X77930000Y-76630000D02*
X76600000Y-76630000D01*
X77930000Y-75300000D02*
X77930000Y-76630000D01*
X77930000Y-74030000D02*
X75270000Y-74030000D01*
X75270000Y-74030000D02*
X75270000Y-48570000D01*
X77930000Y-74030000D02*
X77930000Y-48570000D01*
X77930000Y-48570000D02*
X75270000Y-48570000D01*
X45070000Y-82430000D02*
X45070000Y-81100000D01*
X46400000Y-82430000D02*
X45070000Y-82430000D01*
X47670000Y-82430000D02*
X47670000Y-79770000D01*
X47670000Y-79770000D02*
X73130000Y-79770000D01*
X47670000Y-82430000D02*
X73130000Y-82430000D01*
X73130000Y-82430000D02*
X73130000Y-79770000D01*
X39270000Y-48570000D02*
X40600000Y-48570000D01*
X39270000Y-49900000D02*
X39270000Y-48570000D01*
X39270000Y-51170000D02*
X41930000Y-51170000D01*
X41930000Y-51170000D02*
X41930000Y-76630000D01*
X39270000Y-51170000D02*
X39270000Y-76630000D01*
X39270000Y-76630000D02*
X41930000Y-76630000D01*
M02*
