%TF.GenerationSoftware,KiCad,Pcbnew,5.1.7-a382d34a8~87~ubuntu20.04.1*%
%TF.CreationDate,2020-11-06T18:30:14+02:00*%
%TF.ProjectId,BRK-VSON-10-1EP-3x3-P0.5-EP1.65x2.4,42524b2d-5653-44f4-9e2d-31302d314550,v1.0*%
%TF.SameCoordinates,Original*%
%TF.FileFunction,Copper,L1,Top*%
%TF.FilePolarity,Positive*%
%FSLAX46Y46*%
G04 Gerber Fmt 4.6, Leading zero omitted, Abs format (unit mm)*
G04 Created by KiCad (PCBNEW 5.1.7-a382d34a8~87~ubuntu20.04.1) date 2020-11-06 18:30:14*
%MOMM*%
%LPD*%
G01*
G04 APERTURE LIST*
%TA.AperFunction,ComponentPad*%
%ADD10O,1.700000X1.700000*%
%TD*%
%TA.AperFunction,ComponentPad*%
%ADD11R,1.700000X1.700000*%
%TD*%
%TA.AperFunction,SMDPad,CuDef*%
%ADD12R,0.280000X0.700000*%
%TD*%
%TA.AperFunction,SMDPad,CuDef*%
%ADD13R,1.650000X2.400000*%
%TD*%
%TA.AperFunction,SMDPad,CuDef*%
%ADD14R,0.850000X0.280000*%
%TD*%
%TA.AperFunction,ViaPad*%
%ADD15C,0.600000*%
%TD*%
%TA.AperFunction,Conductor*%
%ADD16C,0.250000*%
%TD*%
%TA.AperFunction,Conductor*%
%ADD17C,0.800000*%
%TD*%
G04 APERTURE END LIST*
D10*
%TO.P,J2,6*%
%TO.N,EP*%
X106350000Y-92380000D03*
%TO.P,J2,5*%
%TO.N,PIN10*%
X106350000Y-94920000D03*
%TO.P,J2,4*%
%TO.N,PIN9*%
X106350000Y-97460000D03*
%TO.P,J2,3*%
%TO.N,PIN8*%
X106350000Y-100000000D03*
%TO.P,J2,2*%
%TO.N,PIN7*%
X106350000Y-102540000D03*
D11*
%TO.P,J2,1*%
%TO.N,PIN6*%
X106350000Y-105080000D03*
%TD*%
D10*
%TO.P,J1,5*%
%TO.N,PIN5*%
X93650000Y-105080000D03*
%TO.P,J1,4*%
%TO.N,PIN4*%
X93650000Y-102540000D03*
%TO.P,J1,3*%
%TO.N,PIN3*%
X93650000Y-100000000D03*
%TO.P,J1,2*%
%TO.N,PIN2*%
X93650000Y-97460000D03*
D11*
%TO.P,J1,1*%
%TO.N,PIN1*%
X93650000Y-94920000D03*
%TD*%
D12*
%TO.P,U1,11*%
%TO.N,EP*%
X100250000Y-101550000D03*
X100250000Y-98450000D03*
X99750000Y-101550000D03*
X99750000Y-98450000D03*
D13*
X100000000Y-100000000D03*
D14*
%TO.P,U1,10*%
%TO.N,PIN10*%
X101475000Y-99000000D03*
%TO.P,U1,9*%
%TO.N,PIN9*%
X101475000Y-99500000D03*
%TO.P,U1,8*%
%TO.N,PIN8*%
X101475000Y-100000000D03*
%TO.P,U1,7*%
%TO.N,PIN7*%
X101475000Y-100500000D03*
%TO.P,U1,6*%
%TO.N,PIN6*%
X101475000Y-101000000D03*
%TO.P,U1,5*%
%TO.N,PIN5*%
X98525000Y-101000000D03*
%TO.P,U1,4*%
%TO.N,PIN4*%
X98525000Y-100500000D03*
%TO.P,U1,3*%
%TO.N,PIN3*%
X98525000Y-100000000D03*
%TO.P,U1,2*%
%TO.N,PIN2*%
X98525000Y-99500000D03*
%TO.P,U1,1*%
%TO.N,PIN1*%
X98525000Y-99000000D03*
%TD*%
D15*
%TO.N,EP*%
X100000000Y-100000000D03*
%TD*%
D16*
%TO.N,PIN1*%
X94620000Y-94920000D02*
X93650000Y-94920000D01*
X95500000Y-95800000D02*
X94620000Y-94920000D01*
X95500000Y-96800000D02*
X95500000Y-95800000D01*
X97700000Y-99000000D02*
X95500000Y-96800000D01*
X98525000Y-99000000D02*
X97700000Y-99000000D01*
%TO.N,PIN2*%
X95690000Y-99500000D02*
X93650000Y-97460000D01*
X98525000Y-99500000D02*
X95690000Y-99500000D01*
%TO.N,PIN3*%
X98525000Y-100000000D02*
X93650000Y-100000000D01*
%TO.N,PIN4*%
X95690000Y-100500000D02*
X93650000Y-102540000D01*
X98525000Y-100500000D02*
X95690000Y-100500000D01*
%TO.N,PIN5*%
X97730000Y-101000000D02*
X93650000Y-105080000D01*
X98525000Y-101000000D02*
X97730000Y-101000000D01*
%TO.N,PIN6*%
X105480000Y-105080000D02*
X106350000Y-105080000D01*
X104500000Y-104100000D02*
X105480000Y-105080000D01*
X104500000Y-103200000D02*
X104500000Y-104100000D01*
X102300000Y-101000000D02*
X104500000Y-103200000D01*
X101475000Y-101000000D02*
X102300000Y-101000000D01*
%TO.N,PIN7*%
X104310000Y-100500000D02*
X106350000Y-102540000D01*
X101475000Y-100500000D02*
X104310000Y-100500000D01*
%TO.N,PIN8*%
X101475000Y-100000000D02*
X106350000Y-100000000D01*
%TO.N,PIN9*%
X104310000Y-99500000D02*
X106350000Y-97460000D01*
X101475000Y-99500000D02*
X104310000Y-99500000D01*
%TO.N,PIN10*%
X102270000Y-99000000D02*
X106350000Y-94920000D01*
X101475000Y-99000000D02*
X102270000Y-99000000D01*
D17*
%TO.N,EP*%
X100000000Y-100000000D02*
X100000000Y-97500000D01*
X100000000Y-97500000D02*
X105120000Y-92380000D01*
X105120000Y-92380000D02*
X106350000Y-92380000D01*
D16*
X99750000Y-100250000D02*
X100000000Y-100000000D01*
X99750000Y-101550000D02*
X99750000Y-100250000D01*
X100250000Y-100250000D02*
X100000000Y-100000000D01*
X100250000Y-101550000D02*
X100250000Y-100250000D01*
%TD*%
M02*
