M48
; DRILL file {KiCad 5.1.6-c6e7f7d~86~ubuntu20.04.1} date Sun May 17 01:16:50 2020
; FORMAT={-:-/ absolute / inch / decimal}
; #@! TF.CreationDate,2020-05-17T01:16:50+03:00
; #@! TF.GenerationSoftware,Kicad,Pcbnew,5.1.6-c6e7f7d~86~ubuntu20.04.1
; #@! TF.FileFunction,Plated,1,2,PTH
FMAT,2
INCH
T1C0.0394
%
G90
G05
T1
X2.6787Y-2.3661
X2.6787Y-2.4661
X2.6787Y-2.5661
X2.6787Y-2.6661
X2.6787Y-2.7661
X2.6787Y-2.8661
X2.6787Y-2.9661
X2.6787Y-3.0661
X2.6787Y-3.1661
X2.6787Y-3.2661
X2.0787Y-2.3661
X2.0787Y-2.4661
X2.0787Y-2.5661
X2.0787Y-2.6661
X2.0787Y-2.7661
X2.0787Y-2.8661
X2.0787Y-2.9661
X2.0787Y-3.0661
X2.0787Y-3.1661
X2.0787Y-3.2661
T0
M30
