G04 #@! TF.GenerationSoftware,KiCad,Pcbnew,5.1.5-52549c5~84~ubuntu19.10.1*
G04 #@! TF.CreationDate,2020-02-23T01:13:04+02:00*
G04 #@! TF.ProjectId,BRK-TSSOP-20-4.4x6.5-P0.65,42524b2d-5453-4534-9f50-2d32302d342e,v1.0*
G04 #@! TF.SameCoordinates,Original*
G04 #@! TF.FileFunction,Soldermask,Top*
G04 #@! TF.FilePolarity,Negative*
%FSLAX46Y46*%
G04 Gerber Fmt 4.6, Leading zero omitted, Abs format (unit mm)*
G04 Created by KiCad (PCBNEW 5.1.5-52549c5~84~ubuntu19.10.1) date 2020-02-23 01:13:04*
%MOMM*%
%LPD*%
G04 APERTURE LIST*
%ADD10C,0.150000*%
%ADD11C,0.100000*%
G04 APERTURE END LIST*
D10*
X53000000Y-85800000D02*
G75*
G02X51000000Y-83800000I0J2000000D01*
G01*
X69900000Y-83800000D02*
G75*
G02X67900000Y-85800000I-2000000J0D01*
G01*
X67900000Y-48000000D02*
G75*
G02X69900000Y-50000000I0J-2000000D01*
G01*
X51000000Y-50000000D02*
G75*
G02X53000000Y-48000000I2000000J0D01*
G01*
X67900000Y-85800000D02*
X53000000Y-85800000D01*
X69900000Y-50000000D02*
X69900000Y-83800000D01*
X53000000Y-48000000D02*
X67900000Y-48000000D01*
X51000000Y-83800000D02*
X51000000Y-50000000D01*
D11*
G36*
X68890000Y-83810000D02*
G01*
X67190000Y-83810000D01*
X67190000Y-82110000D01*
X68890000Y-82110000D01*
X68890000Y-83810000D01*
G37*
G36*
X53047936Y-82142665D02*
G01*
X53047938Y-82142666D01*
X53047939Y-82142666D01*
X53202628Y-82206740D01*
X53341842Y-82299760D01*
X53460240Y-82418158D01*
X53553260Y-82557372D01*
X53617334Y-82712061D01*
X53650000Y-82876284D01*
X53650000Y-83043716D01*
X53617334Y-83207939D01*
X53553260Y-83362628D01*
X53460240Y-83501842D01*
X53341842Y-83620240D01*
X53202628Y-83713260D01*
X53047939Y-83777334D01*
X53047938Y-83777334D01*
X53047936Y-83777335D01*
X52883718Y-83810000D01*
X52716282Y-83810000D01*
X52552064Y-83777335D01*
X52552062Y-83777334D01*
X52552061Y-83777334D01*
X52397372Y-83713260D01*
X52258158Y-83620240D01*
X52139760Y-83501842D01*
X52046740Y-83362628D01*
X51982666Y-83207939D01*
X51950000Y-83043716D01*
X51950000Y-82876284D01*
X51982666Y-82712061D01*
X52046740Y-82557372D01*
X52139760Y-82418158D01*
X52258158Y-82299760D01*
X52397372Y-82206740D01*
X52552061Y-82142666D01*
X52552062Y-82142666D01*
X52552064Y-82142665D01*
X52716282Y-82110000D01*
X52883718Y-82110000D01*
X53047936Y-82142665D01*
G37*
G36*
X53047936Y-79602665D02*
G01*
X53047938Y-79602666D01*
X53047939Y-79602666D01*
X53202628Y-79666740D01*
X53341842Y-79759760D01*
X53460240Y-79878158D01*
X53553260Y-80017372D01*
X53617334Y-80172061D01*
X53650000Y-80336284D01*
X53650000Y-80503716D01*
X53617334Y-80667939D01*
X53553260Y-80822628D01*
X53460240Y-80961842D01*
X53341842Y-81080240D01*
X53202628Y-81173260D01*
X53047939Y-81237334D01*
X53047938Y-81237334D01*
X53047936Y-81237335D01*
X52883718Y-81270000D01*
X52716282Y-81270000D01*
X52552064Y-81237335D01*
X52552062Y-81237334D01*
X52552061Y-81237334D01*
X52397372Y-81173260D01*
X52258158Y-81080240D01*
X52139760Y-80961842D01*
X52046740Y-80822628D01*
X51982666Y-80667939D01*
X51950000Y-80503716D01*
X51950000Y-80336284D01*
X51982666Y-80172061D01*
X52046740Y-80017372D01*
X52139760Y-79878158D01*
X52258158Y-79759760D01*
X52397372Y-79666740D01*
X52552061Y-79602666D01*
X52552062Y-79602666D01*
X52552064Y-79602665D01*
X52716282Y-79570000D01*
X52883718Y-79570000D01*
X53047936Y-79602665D01*
G37*
G36*
X68287936Y-79602665D02*
G01*
X68287938Y-79602666D01*
X68287939Y-79602666D01*
X68442628Y-79666740D01*
X68581842Y-79759760D01*
X68700240Y-79878158D01*
X68793260Y-80017372D01*
X68857334Y-80172061D01*
X68890000Y-80336284D01*
X68890000Y-80503716D01*
X68857334Y-80667939D01*
X68793260Y-80822628D01*
X68700240Y-80961842D01*
X68581842Y-81080240D01*
X68442628Y-81173260D01*
X68287939Y-81237334D01*
X68287938Y-81237334D01*
X68287936Y-81237335D01*
X68123718Y-81270000D01*
X67956282Y-81270000D01*
X67792064Y-81237335D01*
X67792062Y-81237334D01*
X67792061Y-81237334D01*
X67637372Y-81173260D01*
X67498158Y-81080240D01*
X67379760Y-80961842D01*
X67286740Y-80822628D01*
X67222666Y-80667939D01*
X67190000Y-80503716D01*
X67190000Y-80336284D01*
X67222666Y-80172061D01*
X67286740Y-80017372D01*
X67379760Y-79878158D01*
X67498158Y-79759760D01*
X67637372Y-79666740D01*
X67792061Y-79602666D01*
X67792062Y-79602666D01*
X67792064Y-79602665D01*
X67956282Y-79570000D01*
X68123718Y-79570000D01*
X68287936Y-79602665D01*
G37*
G36*
X68287936Y-77062665D02*
G01*
X68287938Y-77062666D01*
X68287939Y-77062666D01*
X68442628Y-77126740D01*
X68581842Y-77219760D01*
X68700240Y-77338158D01*
X68793260Y-77477372D01*
X68857334Y-77632061D01*
X68890000Y-77796284D01*
X68890000Y-77963716D01*
X68857334Y-78127939D01*
X68793260Y-78282628D01*
X68700240Y-78421842D01*
X68581842Y-78540240D01*
X68442628Y-78633260D01*
X68287939Y-78697334D01*
X68287938Y-78697334D01*
X68287936Y-78697335D01*
X68123718Y-78730000D01*
X67956282Y-78730000D01*
X67792064Y-78697335D01*
X67792062Y-78697334D01*
X67792061Y-78697334D01*
X67637372Y-78633260D01*
X67498158Y-78540240D01*
X67379760Y-78421842D01*
X67286740Y-78282628D01*
X67222666Y-78127939D01*
X67190000Y-77963716D01*
X67190000Y-77796284D01*
X67222666Y-77632061D01*
X67286740Y-77477372D01*
X67379760Y-77338158D01*
X67498158Y-77219760D01*
X67637372Y-77126740D01*
X67792061Y-77062666D01*
X67792062Y-77062666D01*
X67792064Y-77062665D01*
X67956282Y-77030000D01*
X68123718Y-77030000D01*
X68287936Y-77062665D01*
G37*
G36*
X53047936Y-77062665D02*
G01*
X53047938Y-77062666D01*
X53047939Y-77062666D01*
X53202628Y-77126740D01*
X53341842Y-77219760D01*
X53460240Y-77338158D01*
X53553260Y-77477372D01*
X53617334Y-77632061D01*
X53650000Y-77796284D01*
X53650000Y-77963716D01*
X53617334Y-78127939D01*
X53553260Y-78282628D01*
X53460240Y-78421842D01*
X53341842Y-78540240D01*
X53202628Y-78633260D01*
X53047939Y-78697334D01*
X53047938Y-78697334D01*
X53047936Y-78697335D01*
X52883718Y-78730000D01*
X52716282Y-78730000D01*
X52552064Y-78697335D01*
X52552062Y-78697334D01*
X52552061Y-78697334D01*
X52397372Y-78633260D01*
X52258158Y-78540240D01*
X52139760Y-78421842D01*
X52046740Y-78282628D01*
X51982666Y-78127939D01*
X51950000Y-77963716D01*
X51950000Y-77796284D01*
X51982666Y-77632061D01*
X52046740Y-77477372D01*
X52139760Y-77338158D01*
X52258158Y-77219760D01*
X52397372Y-77126740D01*
X52552061Y-77062666D01*
X52552062Y-77062666D01*
X52552064Y-77062665D01*
X52716282Y-77030000D01*
X52883718Y-77030000D01*
X53047936Y-77062665D01*
G37*
G36*
X68287936Y-74522665D02*
G01*
X68287938Y-74522666D01*
X68287939Y-74522666D01*
X68442628Y-74586740D01*
X68581842Y-74679760D01*
X68700240Y-74798158D01*
X68793260Y-74937372D01*
X68857334Y-75092061D01*
X68890000Y-75256284D01*
X68890000Y-75423716D01*
X68857334Y-75587939D01*
X68793260Y-75742628D01*
X68700240Y-75881842D01*
X68581842Y-76000240D01*
X68442628Y-76093260D01*
X68287939Y-76157334D01*
X68287938Y-76157334D01*
X68287936Y-76157335D01*
X68123718Y-76190000D01*
X67956282Y-76190000D01*
X67792064Y-76157335D01*
X67792062Y-76157334D01*
X67792061Y-76157334D01*
X67637372Y-76093260D01*
X67498158Y-76000240D01*
X67379760Y-75881842D01*
X67286740Y-75742628D01*
X67222666Y-75587939D01*
X67190000Y-75423716D01*
X67190000Y-75256284D01*
X67222666Y-75092061D01*
X67286740Y-74937372D01*
X67379760Y-74798158D01*
X67498158Y-74679760D01*
X67637372Y-74586740D01*
X67792061Y-74522666D01*
X67792062Y-74522666D01*
X67792064Y-74522665D01*
X67956282Y-74490000D01*
X68123718Y-74490000D01*
X68287936Y-74522665D01*
G37*
G36*
X53047936Y-74522665D02*
G01*
X53047938Y-74522666D01*
X53047939Y-74522666D01*
X53202628Y-74586740D01*
X53341842Y-74679760D01*
X53460240Y-74798158D01*
X53553260Y-74937372D01*
X53617334Y-75092061D01*
X53650000Y-75256284D01*
X53650000Y-75423716D01*
X53617334Y-75587939D01*
X53553260Y-75742628D01*
X53460240Y-75881842D01*
X53341842Y-76000240D01*
X53202628Y-76093260D01*
X53047939Y-76157334D01*
X53047938Y-76157334D01*
X53047936Y-76157335D01*
X52883718Y-76190000D01*
X52716282Y-76190000D01*
X52552064Y-76157335D01*
X52552062Y-76157334D01*
X52552061Y-76157334D01*
X52397372Y-76093260D01*
X52258158Y-76000240D01*
X52139760Y-75881842D01*
X52046740Y-75742628D01*
X51982666Y-75587939D01*
X51950000Y-75423716D01*
X51950000Y-75256284D01*
X51982666Y-75092061D01*
X52046740Y-74937372D01*
X52139760Y-74798158D01*
X52258158Y-74679760D01*
X52397372Y-74586740D01*
X52552061Y-74522666D01*
X52552062Y-74522666D01*
X52552064Y-74522665D01*
X52716282Y-74490000D01*
X52883718Y-74490000D01*
X53047936Y-74522665D01*
G37*
G36*
X57775000Y-74650000D02*
G01*
X56325000Y-74650000D01*
X56325000Y-74200000D01*
X57775000Y-74200000D01*
X57775000Y-74650000D01*
G37*
G36*
X63675000Y-74650000D02*
G01*
X62225000Y-74650000D01*
X62225000Y-74200000D01*
X63675000Y-74200000D01*
X63675000Y-74650000D01*
G37*
G36*
X63675000Y-74000000D02*
G01*
X62225000Y-74000000D01*
X62225000Y-73550000D01*
X63675000Y-73550000D01*
X63675000Y-74000000D01*
G37*
G36*
X57775000Y-74000000D02*
G01*
X56325000Y-74000000D01*
X56325000Y-73550000D01*
X57775000Y-73550000D01*
X57775000Y-74000000D01*
G37*
G36*
X68287936Y-71982665D02*
G01*
X68287938Y-71982666D01*
X68287939Y-71982666D01*
X68442628Y-72046740D01*
X68581842Y-72139760D01*
X68700240Y-72258158D01*
X68793260Y-72397372D01*
X68857334Y-72552061D01*
X68890000Y-72716284D01*
X68890000Y-72883716D01*
X68857334Y-73047939D01*
X68793260Y-73202628D01*
X68700240Y-73341842D01*
X68581842Y-73460240D01*
X68442628Y-73553260D01*
X68287939Y-73617334D01*
X68287938Y-73617334D01*
X68287936Y-73617335D01*
X68123718Y-73650000D01*
X67956282Y-73650000D01*
X67792064Y-73617335D01*
X67792062Y-73617334D01*
X67792061Y-73617334D01*
X67637372Y-73553260D01*
X67498158Y-73460240D01*
X67379760Y-73341842D01*
X67286740Y-73202628D01*
X67222666Y-73047939D01*
X67190000Y-72883716D01*
X67190000Y-72716284D01*
X67222666Y-72552061D01*
X67286740Y-72397372D01*
X67379760Y-72258158D01*
X67498158Y-72139760D01*
X67637372Y-72046740D01*
X67792061Y-71982666D01*
X67792062Y-71982666D01*
X67792064Y-71982665D01*
X67956282Y-71950000D01*
X68123718Y-71950000D01*
X68287936Y-71982665D01*
G37*
G36*
X53047936Y-71982665D02*
G01*
X53047938Y-71982666D01*
X53047939Y-71982666D01*
X53202628Y-72046740D01*
X53341842Y-72139760D01*
X53460240Y-72258158D01*
X53553260Y-72397372D01*
X53617334Y-72552061D01*
X53650000Y-72716284D01*
X53650000Y-72883716D01*
X53617334Y-73047939D01*
X53553260Y-73202628D01*
X53460240Y-73341842D01*
X53341842Y-73460240D01*
X53202628Y-73553260D01*
X53047939Y-73617334D01*
X53047938Y-73617334D01*
X53047936Y-73617335D01*
X52883718Y-73650000D01*
X52716282Y-73650000D01*
X52552064Y-73617335D01*
X52552062Y-73617334D01*
X52552061Y-73617334D01*
X52397372Y-73553260D01*
X52258158Y-73460240D01*
X52139760Y-73341842D01*
X52046740Y-73202628D01*
X51982666Y-73047939D01*
X51950000Y-72883716D01*
X51950000Y-72716284D01*
X51982666Y-72552061D01*
X52046740Y-72397372D01*
X52139760Y-72258158D01*
X52258158Y-72139760D01*
X52397372Y-72046740D01*
X52552061Y-71982666D01*
X52552062Y-71982666D01*
X52552064Y-71982665D01*
X52716282Y-71950000D01*
X52883718Y-71950000D01*
X53047936Y-71982665D01*
G37*
G36*
X57775000Y-73350000D02*
G01*
X56325000Y-73350000D01*
X56325000Y-72900000D01*
X57775000Y-72900000D01*
X57775000Y-73350000D01*
G37*
G36*
X63675000Y-73350000D02*
G01*
X62225000Y-73350000D01*
X62225000Y-72900000D01*
X63675000Y-72900000D01*
X63675000Y-73350000D01*
G37*
G36*
X57775000Y-72700000D02*
G01*
X56325000Y-72700000D01*
X56325000Y-72250000D01*
X57775000Y-72250000D01*
X57775000Y-72700000D01*
G37*
G36*
X63675000Y-72700000D02*
G01*
X62225000Y-72700000D01*
X62225000Y-72250000D01*
X63675000Y-72250000D01*
X63675000Y-72700000D01*
G37*
G36*
X63675000Y-72050000D02*
G01*
X62225000Y-72050000D01*
X62225000Y-71600000D01*
X63675000Y-71600000D01*
X63675000Y-72050000D01*
G37*
G36*
X57775000Y-72050000D02*
G01*
X56325000Y-72050000D01*
X56325000Y-71600000D01*
X57775000Y-71600000D01*
X57775000Y-72050000D01*
G37*
G36*
X63675000Y-71400000D02*
G01*
X62225000Y-71400000D01*
X62225000Y-70950000D01*
X63675000Y-70950000D01*
X63675000Y-71400000D01*
G37*
G36*
X57775000Y-71400000D02*
G01*
X56325000Y-71400000D01*
X56325000Y-70950000D01*
X57775000Y-70950000D01*
X57775000Y-71400000D01*
G37*
G36*
X68287936Y-69442665D02*
G01*
X68287938Y-69442666D01*
X68287939Y-69442666D01*
X68442628Y-69506740D01*
X68581842Y-69599760D01*
X68700240Y-69718158D01*
X68793260Y-69857372D01*
X68857334Y-70012061D01*
X68857335Y-70012064D01*
X68890000Y-70176282D01*
X68890000Y-70343716D01*
X68857334Y-70507939D01*
X68793260Y-70662628D01*
X68700240Y-70801842D01*
X68581842Y-70920240D01*
X68442628Y-71013260D01*
X68287939Y-71077334D01*
X68287938Y-71077334D01*
X68287936Y-71077335D01*
X68123718Y-71110000D01*
X67956282Y-71110000D01*
X67792064Y-71077335D01*
X67792062Y-71077334D01*
X67792061Y-71077334D01*
X67637372Y-71013260D01*
X67498158Y-70920240D01*
X67379760Y-70801842D01*
X67286740Y-70662628D01*
X67222666Y-70507939D01*
X67190000Y-70343716D01*
X67190000Y-70176282D01*
X67222665Y-70012064D01*
X67222666Y-70012061D01*
X67286740Y-69857372D01*
X67379760Y-69718158D01*
X67498158Y-69599760D01*
X67637372Y-69506740D01*
X67792061Y-69442666D01*
X67792062Y-69442666D01*
X67792064Y-69442665D01*
X67956282Y-69410000D01*
X68123718Y-69410000D01*
X68287936Y-69442665D01*
G37*
G36*
X53047936Y-69442665D02*
G01*
X53047938Y-69442666D01*
X53047939Y-69442666D01*
X53202628Y-69506740D01*
X53341842Y-69599760D01*
X53460240Y-69718158D01*
X53553260Y-69857372D01*
X53617334Y-70012061D01*
X53617335Y-70012064D01*
X53650000Y-70176282D01*
X53650000Y-70343716D01*
X53617334Y-70507939D01*
X53553260Y-70662628D01*
X53460240Y-70801842D01*
X53341842Y-70920240D01*
X53202628Y-71013260D01*
X53047939Y-71077334D01*
X53047938Y-71077334D01*
X53047936Y-71077335D01*
X52883718Y-71110000D01*
X52716282Y-71110000D01*
X52552064Y-71077335D01*
X52552062Y-71077334D01*
X52552061Y-71077334D01*
X52397372Y-71013260D01*
X52258158Y-70920240D01*
X52139760Y-70801842D01*
X52046740Y-70662628D01*
X51982666Y-70507939D01*
X51950000Y-70343716D01*
X51950000Y-70176282D01*
X51982665Y-70012064D01*
X51982666Y-70012061D01*
X52046740Y-69857372D01*
X52139760Y-69718158D01*
X52258158Y-69599760D01*
X52397372Y-69506740D01*
X52552061Y-69442666D01*
X52552062Y-69442666D01*
X52552064Y-69442665D01*
X52716282Y-69410000D01*
X52883718Y-69410000D01*
X53047936Y-69442665D01*
G37*
G36*
X63675000Y-70750000D02*
G01*
X62225000Y-70750000D01*
X62225000Y-70300000D01*
X63675000Y-70300000D01*
X63675000Y-70750000D01*
G37*
G36*
X57775000Y-70750000D02*
G01*
X56325000Y-70750000D01*
X56325000Y-70300000D01*
X57775000Y-70300000D01*
X57775000Y-70750000D01*
G37*
G36*
X63675000Y-70100000D02*
G01*
X62225000Y-70100000D01*
X62225000Y-69650000D01*
X63675000Y-69650000D01*
X63675000Y-70100000D01*
G37*
G36*
X57775000Y-70100000D02*
G01*
X56325000Y-70100000D01*
X56325000Y-69650000D01*
X57775000Y-69650000D01*
X57775000Y-70100000D01*
G37*
G36*
X63675000Y-69450000D02*
G01*
X62225000Y-69450000D01*
X62225000Y-69000000D01*
X63675000Y-69000000D01*
X63675000Y-69450000D01*
G37*
G36*
X57775000Y-69450000D02*
G01*
X56325000Y-69450000D01*
X56325000Y-69000000D01*
X57775000Y-69000000D01*
X57775000Y-69450000D01*
G37*
G36*
X63675000Y-68800000D02*
G01*
X62225000Y-68800000D01*
X62225000Y-68350000D01*
X63675000Y-68350000D01*
X63675000Y-68800000D01*
G37*
G36*
X57775000Y-68800000D02*
G01*
X56325000Y-68800000D01*
X56325000Y-68350000D01*
X57775000Y-68350000D01*
X57775000Y-68800000D01*
G37*
G36*
X68287936Y-66902665D02*
G01*
X68287938Y-66902666D01*
X68287939Y-66902666D01*
X68442628Y-66966740D01*
X68581842Y-67059760D01*
X68700240Y-67178158D01*
X68793260Y-67317372D01*
X68857334Y-67472061D01*
X68890000Y-67636284D01*
X68890000Y-67803716D01*
X68857334Y-67967939D01*
X68793260Y-68122628D01*
X68700240Y-68261842D01*
X68581842Y-68380240D01*
X68442628Y-68473260D01*
X68287939Y-68537334D01*
X68287938Y-68537334D01*
X68287936Y-68537335D01*
X68123718Y-68570000D01*
X67956282Y-68570000D01*
X67792064Y-68537335D01*
X67792062Y-68537334D01*
X67792061Y-68537334D01*
X67637372Y-68473260D01*
X67498158Y-68380240D01*
X67379760Y-68261842D01*
X67286740Y-68122628D01*
X67222666Y-67967939D01*
X67190000Y-67803716D01*
X67190000Y-67636284D01*
X67222666Y-67472061D01*
X67286740Y-67317372D01*
X67379760Y-67178158D01*
X67498158Y-67059760D01*
X67637372Y-66966740D01*
X67792061Y-66902666D01*
X67792062Y-66902666D01*
X67792064Y-66902665D01*
X67956282Y-66870000D01*
X68123718Y-66870000D01*
X68287936Y-66902665D01*
G37*
G36*
X53047936Y-66902665D02*
G01*
X53047938Y-66902666D01*
X53047939Y-66902666D01*
X53202628Y-66966740D01*
X53341842Y-67059760D01*
X53460240Y-67178158D01*
X53553260Y-67317372D01*
X53617334Y-67472061D01*
X53650000Y-67636284D01*
X53650000Y-67803716D01*
X53617334Y-67967939D01*
X53553260Y-68122628D01*
X53460240Y-68261842D01*
X53341842Y-68380240D01*
X53202628Y-68473260D01*
X53047939Y-68537334D01*
X53047938Y-68537334D01*
X53047936Y-68537335D01*
X52883718Y-68570000D01*
X52716282Y-68570000D01*
X52552064Y-68537335D01*
X52552062Y-68537334D01*
X52552061Y-68537334D01*
X52397372Y-68473260D01*
X52258158Y-68380240D01*
X52139760Y-68261842D01*
X52046740Y-68122628D01*
X51982666Y-67967939D01*
X51950000Y-67803716D01*
X51950000Y-67636284D01*
X51982666Y-67472061D01*
X52046740Y-67317372D01*
X52139760Y-67178158D01*
X52258158Y-67059760D01*
X52397372Y-66966740D01*
X52552061Y-66902666D01*
X52552062Y-66902666D01*
X52552064Y-66902665D01*
X52716282Y-66870000D01*
X52883718Y-66870000D01*
X53047936Y-66902665D01*
G37*
G36*
X68287936Y-64362665D02*
G01*
X68287938Y-64362666D01*
X68287939Y-64362666D01*
X68442628Y-64426740D01*
X68581842Y-64519760D01*
X68700240Y-64638158D01*
X68793260Y-64777372D01*
X68857334Y-64932061D01*
X68890000Y-65096284D01*
X68890000Y-65263716D01*
X68857334Y-65427939D01*
X68793260Y-65582628D01*
X68700240Y-65721842D01*
X68581842Y-65840240D01*
X68442628Y-65933260D01*
X68287939Y-65997334D01*
X68287938Y-65997334D01*
X68287936Y-65997335D01*
X68123718Y-66030000D01*
X67956282Y-66030000D01*
X67792064Y-65997335D01*
X67792062Y-65997334D01*
X67792061Y-65997334D01*
X67637372Y-65933260D01*
X67498158Y-65840240D01*
X67379760Y-65721842D01*
X67286740Y-65582628D01*
X67222666Y-65427939D01*
X67190000Y-65263716D01*
X67190000Y-65096284D01*
X67222666Y-64932061D01*
X67286740Y-64777372D01*
X67379760Y-64638158D01*
X67498158Y-64519760D01*
X67637372Y-64426740D01*
X67792061Y-64362666D01*
X67792062Y-64362666D01*
X67792064Y-64362665D01*
X67956282Y-64330000D01*
X68123718Y-64330000D01*
X68287936Y-64362665D01*
G37*
G36*
X53047936Y-64362665D02*
G01*
X53047938Y-64362666D01*
X53047939Y-64362666D01*
X53202628Y-64426740D01*
X53341842Y-64519760D01*
X53460240Y-64638158D01*
X53553260Y-64777372D01*
X53617334Y-64932061D01*
X53650000Y-65096284D01*
X53650000Y-65263716D01*
X53617334Y-65427939D01*
X53553260Y-65582628D01*
X53460240Y-65721842D01*
X53341842Y-65840240D01*
X53202628Y-65933260D01*
X53047939Y-65997334D01*
X53047938Y-65997334D01*
X53047936Y-65997335D01*
X52883718Y-66030000D01*
X52716282Y-66030000D01*
X52552064Y-65997335D01*
X52552062Y-65997334D01*
X52552061Y-65997334D01*
X52397372Y-65933260D01*
X52258158Y-65840240D01*
X52139760Y-65721842D01*
X52046740Y-65582628D01*
X51982666Y-65427939D01*
X51950000Y-65263716D01*
X51950000Y-65096284D01*
X51982666Y-64932061D01*
X52046740Y-64777372D01*
X52139760Y-64638158D01*
X52258158Y-64519760D01*
X52397372Y-64426740D01*
X52552061Y-64362666D01*
X52552062Y-64362666D01*
X52552064Y-64362665D01*
X52716282Y-64330000D01*
X52883718Y-64330000D01*
X53047936Y-64362665D01*
G37*
G36*
X68287936Y-61822665D02*
G01*
X68287938Y-61822666D01*
X68287939Y-61822666D01*
X68442628Y-61886740D01*
X68581842Y-61979760D01*
X68700240Y-62098158D01*
X68793260Y-62237372D01*
X68857334Y-62392061D01*
X68890000Y-62556284D01*
X68890000Y-62723716D01*
X68857334Y-62887939D01*
X68793260Y-63042628D01*
X68700240Y-63181842D01*
X68581842Y-63300240D01*
X68442628Y-63393260D01*
X68287939Y-63457334D01*
X68287938Y-63457334D01*
X68287936Y-63457335D01*
X68123718Y-63490000D01*
X67956282Y-63490000D01*
X67792064Y-63457335D01*
X67792062Y-63457334D01*
X67792061Y-63457334D01*
X67637372Y-63393260D01*
X67498158Y-63300240D01*
X67379760Y-63181842D01*
X67286740Y-63042628D01*
X67222666Y-62887939D01*
X67190000Y-62723716D01*
X67190000Y-62556284D01*
X67222666Y-62392061D01*
X67286740Y-62237372D01*
X67379760Y-62098158D01*
X67498158Y-61979760D01*
X67637372Y-61886740D01*
X67792061Y-61822666D01*
X67792062Y-61822666D01*
X67792064Y-61822665D01*
X67956282Y-61790000D01*
X68123718Y-61790000D01*
X68287936Y-61822665D01*
G37*
G36*
X53047936Y-61822665D02*
G01*
X53047938Y-61822666D01*
X53047939Y-61822666D01*
X53202628Y-61886740D01*
X53341842Y-61979760D01*
X53460240Y-62098158D01*
X53553260Y-62237372D01*
X53617334Y-62392061D01*
X53650000Y-62556284D01*
X53650000Y-62723716D01*
X53617334Y-62887939D01*
X53553260Y-63042628D01*
X53460240Y-63181842D01*
X53341842Y-63300240D01*
X53202628Y-63393260D01*
X53047939Y-63457334D01*
X53047938Y-63457334D01*
X53047936Y-63457335D01*
X52883718Y-63490000D01*
X52716282Y-63490000D01*
X52552064Y-63457335D01*
X52552062Y-63457334D01*
X52552061Y-63457334D01*
X52397372Y-63393260D01*
X52258158Y-63300240D01*
X52139760Y-63181842D01*
X52046740Y-63042628D01*
X51982666Y-62887939D01*
X51950000Y-62723716D01*
X51950000Y-62556284D01*
X51982666Y-62392061D01*
X52046740Y-62237372D01*
X52139760Y-62098158D01*
X52258158Y-61979760D01*
X52397372Y-61886740D01*
X52552061Y-61822666D01*
X52552062Y-61822666D01*
X52552064Y-61822665D01*
X52716282Y-61790000D01*
X52883718Y-61790000D01*
X53047936Y-61822665D01*
G37*
G36*
X68287936Y-59282665D02*
G01*
X68287938Y-59282666D01*
X68287939Y-59282666D01*
X68442628Y-59346740D01*
X68581842Y-59439760D01*
X68700240Y-59558158D01*
X68793260Y-59697372D01*
X68857334Y-59852061D01*
X68890000Y-60016284D01*
X68890000Y-60183716D01*
X68857334Y-60347939D01*
X68793260Y-60502628D01*
X68700240Y-60641842D01*
X68581842Y-60760240D01*
X68442628Y-60853260D01*
X68287939Y-60917334D01*
X68287938Y-60917334D01*
X68287936Y-60917335D01*
X68123718Y-60950000D01*
X67956282Y-60950000D01*
X67792064Y-60917335D01*
X67792062Y-60917334D01*
X67792061Y-60917334D01*
X67637372Y-60853260D01*
X67498158Y-60760240D01*
X67379760Y-60641842D01*
X67286740Y-60502628D01*
X67222666Y-60347939D01*
X67190000Y-60183716D01*
X67190000Y-60016284D01*
X67222666Y-59852061D01*
X67286740Y-59697372D01*
X67379760Y-59558158D01*
X67498158Y-59439760D01*
X67637372Y-59346740D01*
X67792061Y-59282666D01*
X67792062Y-59282666D01*
X67792064Y-59282665D01*
X67956282Y-59250000D01*
X68123718Y-59250000D01*
X68287936Y-59282665D01*
G37*
G36*
X53650000Y-60950000D02*
G01*
X51950000Y-60950000D01*
X51950000Y-59250000D01*
X53650000Y-59250000D01*
X53650000Y-60950000D01*
G37*
M02*
