G04 #@! TF.GenerationSoftware,KiCad,Pcbnew,5.1.5-52549c5~84~ubuntu19.10.1*
G04 #@! TF.CreationDate,2020-02-23T01:13:04+02:00*
G04 #@! TF.ProjectId,BRK-TSSOP-20-4.4x6.5-P0.65,42524b2d-5453-4534-9f50-2d32302d342e,v1.0*
G04 #@! TF.SameCoordinates,Original*
G04 #@! TF.FileFunction,Copper,L1,Top*
G04 #@! TF.FilePolarity,Positive*
%FSLAX46Y46*%
G04 Gerber Fmt 4.6, Leading zero omitted, Abs format (unit mm)*
G04 Created by KiCad (PCBNEW 5.1.5-52549c5~84~ubuntu19.10.1) date 2020-02-23 01:13:04*
%MOMM*%
%LPD*%
G04 APERTURE LIST*
%ADD10C,0.150000*%
%ADD11R,1.450000X0.450000*%
%ADD12O,1.700000X1.700000*%
%ADD13R,1.700000X1.700000*%
%ADD14C,0.300000*%
G04 APERTURE END LIST*
D10*
X53000000Y-85800000D02*
G75*
G02X51000000Y-83800000I0J2000000D01*
G01*
X69900000Y-83800000D02*
G75*
G02X67900000Y-85800000I-2000000J0D01*
G01*
X67900000Y-48000000D02*
G75*
G02X69900000Y-50000000I0J-2000000D01*
G01*
X51000000Y-50000000D02*
G75*
G02X53000000Y-48000000I2000000J0D01*
G01*
X67900000Y-85800000D02*
X53000000Y-85800000D01*
X69900000Y-50000000D02*
X69900000Y-83800000D01*
X53000000Y-48000000D02*
X67900000Y-48000000D01*
X51000000Y-83800000D02*
X51000000Y-50000000D01*
D11*
X62950000Y-68575000D03*
X62950000Y-69225000D03*
X62950000Y-69875000D03*
X62950000Y-70525000D03*
X62950000Y-71175000D03*
X62950000Y-71825000D03*
X62950000Y-72475000D03*
X62950000Y-73125000D03*
X62950000Y-73775000D03*
X62950000Y-74425000D03*
X57050000Y-74425000D03*
X57050000Y-73775000D03*
X57050000Y-73125000D03*
X57050000Y-72475000D03*
X57050000Y-71825000D03*
X57050000Y-71175000D03*
X57050000Y-70525000D03*
X57050000Y-69875000D03*
X57050000Y-69225000D03*
X57050000Y-68575000D03*
D12*
X68040000Y-60100000D03*
X68040000Y-62640000D03*
X68040000Y-65180000D03*
X68040000Y-67720000D03*
X68040000Y-70260000D03*
X68040000Y-72800000D03*
X68040000Y-75340000D03*
X68040000Y-77880000D03*
X68040000Y-80420000D03*
D13*
X68040000Y-82960000D03*
D12*
X52800000Y-82960000D03*
X52800000Y-80420000D03*
X52800000Y-77880000D03*
X52800000Y-75340000D03*
X52800000Y-72800000D03*
X52800000Y-70260000D03*
X52800000Y-67720000D03*
X52800000Y-65180000D03*
X52800000Y-62640000D03*
D13*
X52800000Y-60100000D03*
D14*
X53950000Y-60100000D02*
X52800000Y-60100000D01*
X57050000Y-68575000D02*
X56075000Y-68575000D01*
X55600000Y-61750000D02*
X53950000Y-60100000D01*
X55600000Y-68100000D02*
X55600000Y-61750000D01*
X56075000Y-68575000D02*
X55600000Y-68100000D01*
X52840000Y-62600000D02*
X52800000Y-62640000D01*
X55000000Y-64840000D02*
X53649999Y-63489999D01*
X55000000Y-68400000D02*
X55000000Y-64840000D01*
X57050000Y-69225000D02*
X55825000Y-69225000D01*
X53649999Y-63489999D02*
X52800000Y-62640000D01*
X55825000Y-69225000D02*
X55000000Y-68400000D01*
X54400000Y-66780000D02*
X53649999Y-66029999D01*
X57050000Y-69875000D02*
X55575000Y-69875000D01*
X53649999Y-66029999D02*
X52800000Y-65180000D01*
X54400000Y-68700000D02*
X54400000Y-66780000D01*
X55575000Y-69875000D02*
X54400000Y-68700000D01*
X64700000Y-80770000D02*
X66890000Y-82960000D01*
X64700000Y-75100000D02*
X64700000Y-80770000D01*
X62950000Y-74425000D02*
X64025000Y-74425000D01*
X66890000Y-82960000D02*
X68040000Y-82960000D01*
X64025000Y-74425000D02*
X64700000Y-75100000D01*
X65500000Y-77880000D02*
X68040000Y-80420000D01*
X65500000Y-74800000D02*
X65500000Y-77880000D01*
X62950000Y-73775000D02*
X64475000Y-73775000D01*
X64475000Y-73775000D02*
X65500000Y-74800000D01*
X66400000Y-76240000D02*
X68040000Y-77880000D01*
X66400000Y-74500000D02*
X66400000Y-76240000D01*
X62950000Y-73125000D02*
X65025000Y-73125000D01*
X65025000Y-73125000D02*
X66400000Y-74500000D01*
X52800000Y-68200000D02*
X52800000Y-67720000D01*
X57050000Y-70525000D02*
X55125000Y-70525000D01*
X55125000Y-70525000D02*
X52800000Y-68200000D01*
X68040000Y-75040000D02*
X68040000Y-75340000D01*
X62950000Y-72475000D02*
X65475000Y-72475000D01*
X65475000Y-72475000D02*
X68040000Y-75040000D01*
X52800000Y-74700000D02*
X52800000Y-75340000D01*
X57050000Y-72475000D02*
X55025000Y-72475000D01*
X55025000Y-72475000D02*
X52800000Y-74700000D01*
X53775000Y-71825000D02*
X52800000Y-72800000D01*
X57050000Y-71825000D02*
X53775000Y-71825000D01*
X53715000Y-71175000D02*
X52800000Y-70260000D01*
X57050000Y-71175000D02*
X53715000Y-71175000D01*
X68040000Y-67960000D02*
X68040000Y-67720000D01*
X62950000Y-70525000D02*
X65475000Y-70525000D01*
X65475000Y-70525000D02*
X68040000Y-67960000D01*
X67125000Y-71175000D02*
X68040000Y-70260000D01*
X62950000Y-71175000D02*
X67125000Y-71175000D01*
X67065000Y-71825000D02*
X68040000Y-72800000D01*
X62950000Y-71825000D02*
X67065000Y-71825000D01*
X55600000Y-80160000D02*
X52800000Y-82960000D01*
X55600000Y-74800000D02*
X55600000Y-80160000D01*
X57050000Y-74425000D02*
X55975000Y-74425000D01*
X55975000Y-74425000D02*
X55600000Y-74800000D01*
X53649999Y-79570001D02*
X52800000Y-80420000D01*
X54900000Y-78320000D02*
X53649999Y-79570001D01*
X54900000Y-74500000D02*
X54900000Y-78320000D01*
X57050000Y-73775000D02*
X55625000Y-73775000D01*
X55625000Y-73775000D02*
X54900000Y-74500000D01*
X53649999Y-77030001D02*
X52800000Y-77880000D01*
X54200000Y-76480000D02*
X53649999Y-77030001D01*
X54200000Y-74300000D02*
X54200000Y-76480000D01*
X57050000Y-73125000D02*
X55375000Y-73125000D01*
X55375000Y-73125000D02*
X54200000Y-74300000D01*
X65000000Y-67700000D02*
X65000000Y-63140000D01*
X65000000Y-63140000D02*
X68040000Y-60100000D01*
X62950000Y-68575000D02*
X64125000Y-68575000D01*
X64125000Y-68575000D02*
X65000000Y-67700000D01*
X67190001Y-63489999D02*
X68040000Y-62640000D01*
X65700000Y-64980000D02*
X67190001Y-63489999D01*
X65700000Y-68000000D02*
X65700000Y-64980000D01*
X62950000Y-69225000D02*
X64475000Y-69225000D01*
X64475000Y-69225000D02*
X65700000Y-68000000D01*
X66400000Y-66820000D02*
X68040000Y-65180000D01*
X66400000Y-68500000D02*
X66400000Y-66820000D01*
X62950000Y-69875000D02*
X65025000Y-69875000D01*
X65025000Y-69875000D02*
X66400000Y-68500000D01*
M02*
