G04 #@! TF.GenerationSoftware,KiCad,Pcbnew,5.1.6-c6e7f7d~86~ubuntu20.04.1*
G04 #@! TF.CreationDate,2020-05-16T23:21:58+03:00*
G04 #@! TF.ProjectId,TC2050-OOPS,54433230-3530-42d4-9f4f-50532e6b6963,v1.0*
G04 #@! TF.SameCoordinates,Original*
G04 #@! TF.FileFunction,Legend,Top*
G04 #@! TF.FilePolarity,Positive*
%FSLAX46Y46*%
G04 Gerber Fmt 4.6, Leading zero omitted, Abs format (unit mm)*
G04 Created by KiCad (PCBNEW 5.1.6-c6e7f7d~86~ubuntu20.04.1) date 2020-05-16 23:21:58*
%MOMM*%
%LPD*%
G01*
G04 APERTURE LIST*
G04 #@! TA.AperFunction,Profile*
%ADD10C,0.050000*%
G04 #@! TD*
%ADD11C,0.150000*%
%ADD12C,0.120000*%
G04 APERTURE END LIST*
D10*
X74000000Y-49000000D02*
G75*
G02*
X76000000Y-51000000I0J-2000000D01*
G01*
X76000000Y-72000000D02*
G75*
G02*
X74000000Y-74000000I-2000000J0D01*
G01*
X51000000Y-74000000D02*
G75*
G02*
X49000000Y-72000000I0J2000000D01*
G01*
D11*
X63152380Y-63552380D02*
X63152380Y-63361904D01*
X63200000Y-63266666D01*
X63295238Y-63171428D01*
X63485714Y-63123809D01*
X63819047Y-63123809D01*
X64009523Y-63171428D01*
X64104761Y-63266666D01*
X64152380Y-63361904D01*
X64152380Y-63552380D01*
X64104761Y-63647619D01*
X64009523Y-63742857D01*
X63819047Y-63790476D01*
X63485714Y-63790476D01*
X63295238Y-63742857D01*
X63200000Y-63647619D01*
X63152380Y-63552380D01*
X63152380Y-62838095D02*
X63152380Y-62266666D01*
X64152380Y-62552380D02*
X63152380Y-62552380D01*
X64152380Y-61933333D02*
X63152380Y-61933333D01*
X63628571Y-61933333D02*
X63628571Y-61361904D01*
X64152380Y-61361904D02*
X63152380Y-61361904D01*
X63628571Y-60885714D02*
X63628571Y-60552380D01*
X64152380Y-60409523D02*
X64152380Y-60885714D01*
X63152380Y-60885714D01*
X63152380Y-60409523D01*
X64152380Y-59409523D02*
X63676190Y-59742857D01*
X64152380Y-59980952D02*
X63152380Y-59980952D01*
X63152380Y-59600000D01*
X63200000Y-59504761D01*
X63247619Y-59457142D01*
X63342857Y-59409523D01*
X63485714Y-59409523D01*
X63580952Y-59457142D01*
X63628571Y-59504761D01*
X63676190Y-59600000D01*
X63676190Y-59980952D01*
X61947619Y-58909523D02*
X61947619Y-59480952D01*
X60947619Y-59195238D02*
X61947619Y-59195238D01*
X61042857Y-60385714D02*
X60995238Y-60338095D01*
X60947619Y-60195238D01*
X60947619Y-60100000D01*
X60995238Y-59957142D01*
X61090476Y-59861904D01*
X61185714Y-59814285D01*
X61376190Y-59766666D01*
X61519047Y-59766666D01*
X61709523Y-59814285D01*
X61804761Y-59861904D01*
X61900000Y-59957142D01*
X61947619Y-60100000D01*
X61947619Y-60195238D01*
X61900000Y-60338095D01*
X61852380Y-60385714D01*
X61852380Y-60766666D02*
X61900000Y-60814285D01*
X61947619Y-60909523D01*
X61947619Y-61147619D01*
X61900000Y-61242857D01*
X61852380Y-61290476D01*
X61757142Y-61338095D01*
X61661904Y-61338095D01*
X61519047Y-61290476D01*
X60947619Y-60719047D01*
X60947619Y-61338095D01*
X61947619Y-61957142D02*
X61947619Y-62052380D01*
X61900000Y-62147619D01*
X61852380Y-62195238D01*
X61757142Y-62242857D01*
X61566666Y-62290476D01*
X61328571Y-62290476D01*
X61138095Y-62242857D01*
X61042857Y-62195238D01*
X60995238Y-62147619D01*
X60947619Y-62052380D01*
X60947619Y-61957142D01*
X60995238Y-61861904D01*
X61042857Y-61814285D01*
X61138095Y-61766666D01*
X61328571Y-61719047D01*
X61566666Y-61719047D01*
X61757142Y-61766666D01*
X61852380Y-61814285D01*
X61900000Y-61861904D01*
X61947619Y-61957142D01*
X61947619Y-63195238D02*
X61947619Y-62719047D01*
X61471428Y-62671428D01*
X61519047Y-62719047D01*
X61566666Y-62814285D01*
X61566666Y-63052380D01*
X61519047Y-63147619D01*
X61471428Y-63195238D01*
X61376190Y-63242857D01*
X61138095Y-63242857D01*
X61042857Y-63195238D01*
X60995238Y-63147619D01*
X60947619Y-63052380D01*
X60947619Y-62814285D01*
X60995238Y-62719047D01*
X61042857Y-62671428D01*
X61947619Y-63861904D02*
X61947619Y-63957142D01*
X61900000Y-64052380D01*
X61852380Y-64100000D01*
X61757142Y-64147619D01*
X61566666Y-64195238D01*
X61328571Y-64195238D01*
X61138095Y-64147619D01*
X61042857Y-64100000D01*
X60995238Y-64052380D01*
X60947619Y-63957142D01*
X60947619Y-63861904D01*
X60995238Y-63766666D01*
X61042857Y-63719047D01*
X61138095Y-63671428D01*
X61328571Y-63623809D01*
X61566666Y-63623809D01*
X61757142Y-63671428D01*
X61852380Y-63719047D01*
X61900000Y-63766666D01*
X61947619Y-63861904D01*
D10*
X49000000Y-51000000D02*
G75*
G02*
X51000000Y-49000000I2000000J0D01*
G01*
X74000000Y-49000000D02*
X51000000Y-49000000D01*
X76000000Y-72000000D02*
X76000000Y-51000000D01*
X51000000Y-74000000D02*
X74000000Y-74000000D01*
X49000000Y-51000000D02*
X49000000Y-72000000D01*
D12*
X50020000Y-56900000D02*
X51020000Y-56400000D01*
X50020000Y-55900000D02*
X50020000Y-56900000D01*
X51020000Y-56400000D02*
X50020000Y-55900000D01*
X52720000Y-63530000D02*
X51410000Y-63530000D01*
X52720000Y-63530000D02*
X52720000Y-63530000D01*
X52720000Y-70470000D02*
X52720000Y-63530000D01*
X59220000Y-70470000D02*
X52720000Y-70470000D01*
X59220000Y-52490000D02*
X59220000Y-70470000D01*
X52720000Y-52490000D02*
X59220000Y-52490000D01*
X52720000Y-59430000D02*
X52720000Y-52490000D01*
X51410000Y-59430000D02*
X52720000Y-59430000D01*
X51410000Y-71770000D02*
X51410000Y-51190000D01*
X60530000Y-71770000D02*
X51410000Y-71770000D01*
X60530000Y-51190000D02*
X60530000Y-71770000D01*
X51410000Y-51190000D02*
X60530000Y-51190000D01*
X74980000Y-66100000D02*
X73980000Y-66600000D01*
X74980000Y-67100000D02*
X74980000Y-66100000D01*
X73980000Y-66600000D02*
X74980000Y-67100000D01*
X72280000Y-59470000D02*
X73590000Y-59470000D01*
X72280000Y-59470000D02*
X72280000Y-59470000D01*
X72280000Y-52530000D02*
X72280000Y-59470000D01*
X65780000Y-52530000D02*
X72280000Y-52530000D01*
X65780000Y-70510000D02*
X65780000Y-52530000D01*
X72280000Y-70510000D02*
X65780000Y-70510000D01*
X72280000Y-63570000D02*
X72280000Y-70510000D01*
X73590000Y-63570000D02*
X72280000Y-63570000D01*
X73590000Y-51230000D02*
X73590000Y-71810000D01*
X64470000Y-51230000D02*
X73590000Y-51230000D01*
X64470000Y-71810000D02*
X64470000Y-51230000D01*
X73590000Y-71810000D02*
X64470000Y-71810000D01*
M02*
