M48
; DRILL file {KiCad 5.1.6-c6e7f7d~86~ubuntu20.04.1} date Sat May 16 23:21:59 2020
; FORMAT={-:-/ absolute / inch / decimal}
; #@! TF.CreationDate,2020-05-16T23:21:59+03:00
; #@! TF.GenerationSoftware,Kicad,Pcbnew,5.1.6-c6e7f7d~86~ubuntu20.04.1
; #@! TF.FileFunction,Plated,1,2,PTH
FMAT,2
INCH
T1C0.0157
T2C0.0394
%
G90
G05
T1
X2.4409Y-2.2441
X2.5787Y-2.5079
T2
X2.1535Y-2.2205
X2.1535Y-2.3205
X2.1535Y-2.4205
X2.1535Y-2.5205
X2.1535Y-2.6205
X2.2535Y-2.2205
X2.2535Y-2.3205
X2.2535Y-2.4205
X2.2535Y-2.5205
X2.2535Y-2.6205
X2.6677Y-2.222
X2.6677Y-2.322
X2.6677Y-2.422
X2.6677Y-2.522
X2.6677Y-2.622
X2.7677Y-2.222
X2.7677Y-2.322
X2.7677Y-2.422
X2.7677Y-2.522
X2.7677Y-2.622
T0
M30
