G04 #@! TF.GenerationSoftware,KiCad,Pcbnew,5.1.6-c6e7f7d~86~ubuntu20.04.1*
G04 #@! TF.CreationDate,2020-05-16T23:21:58+03:00*
G04 #@! TF.ProjectId,TC2050-OOPS,54433230-3530-42d4-9f4f-50532e6b6963,v1.0*
G04 #@! TF.SameCoordinates,Original*
G04 #@! TF.FileFunction,Copper,L1,Top*
G04 #@! TF.FilePolarity,Positive*
%FSLAX46Y46*%
G04 Gerber Fmt 4.6, Leading zero omitted, Abs format (unit mm)*
G04 Created by KiCad (PCBNEW 5.1.6-c6e7f7d~86~ubuntu20.04.1) date 2020-05-16 23:21:58*
%MOMM*%
%LPD*%
G01*
G04 APERTURE LIST*
G04 #@! TA.AperFunction,Profile*
%ADD10C,0.050000*%
G04 #@! TD*
G04 #@! TA.AperFunction,ComponentPad*
%ADD11C,1.700000*%
G04 #@! TD*
G04 #@! TA.AperFunction,ViaPad*
%ADD12C,0.800000*%
G04 #@! TD*
G04 #@! TA.AperFunction,Conductor*
%ADD13C,0.400000*%
G04 #@! TD*
G04 APERTURE END LIST*
D10*
X74000000Y-49000000D02*
G75*
G02*
X76000000Y-51000000I0J-2000000D01*
G01*
X76000000Y-72000000D02*
G75*
G02*
X74000000Y-74000000I-2000000J0D01*
G01*
X51000000Y-74000000D02*
G75*
G02*
X49000000Y-72000000I0J2000000D01*
G01*
X49000000Y-51000000D02*
G75*
G02*
X51000000Y-49000000I2000000J0D01*
G01*
X74000000Y-49000000D02*
X51000000Y-49000000D01*
X76000000Y-72000000D02*
X76000000Y-51000000D01*
X51000000Y-74000000D02*
X74000000Y-74000000D01*
X49000000Y-51000000D02*
X49000000Y-72000000D01*
D11*
X57240000Y-66560000D03*
X57240000Y-64020000D03*
X57240000Y-61480000D03*
X57240000Y-58940000D03*
X57240000Y-56400000D03*
X54700000Y-66560000D03*
X54700000Y-64020000D03*
X54700000Y-61480000D03*
X54700000Y-58940000D03*
G04 #@! TA.AperFunction,ComponentPad*
G36*
G01*
X53850000Y-57000000D02*
X53850000Y-55800000D01*
G75*
G02*
X54100000Y-55550000I250000J0D01*
G01*
X55300000Y-55550000D01*
G75*
G02*
X55550000Y-55800000I0J-250000D01*
G01*
X55550000Y-57000000D01*
G75*
G02*
X55300000Y-57250000I-250000J0D01*
G01*
X54100000Y-57250000D01*
G75*
G02*
X53850000Y-57000000I0J250000D01*
G01*
G37*
G04 #@! TD.AperFunction*
X67760000Y-56440000D03*
X67760000Y-58980000D03*
X67760000Y-61520000D03*
X67760000Y-64060000D03*
X67760000Y-66600000D03*
X70300000Y-56440000D03*
X70300000Y-58980000D03*
X70300000Y-61520000D03*
X70300000Y-64060000D03*
G04 #@! TA.AperFunction,ComponentPad*
G36*
G01*
X71150000Y-66000000D02*
X71150000Y-67200000D01*
G75*
G02*
X70900000Y-67450000I-250000J0D01*
G01*
X69700000Y-67450000D01*
G75*
G02*
X69450000Y-67200000I0J250000D01*
G01*
X69450000Y-66000000D01*
G75*
G02*
X69700000Y-65750000I250000J0D01*
G01*
X70900000Y-65750000D01*
G75*
G02*
X71150000Y-66000000I0J-250000D01*
G01*
G37*
G04 #@! TD.AperFunction*
D12*
X62000000Y-57000000D03*
X65500000Y-63700000D03*
D13*
X67060000Y-56440000D02*
X67760000Y-56440000D01*
X57240000Y-61480000D02*
X62020000Y-61480000D01*
X62020000Y-61480000D02*
X67060000Y-56440000D01*
X61096399Y-60203601D02*
X66300000Y-55000000D01*
X68860000Y-55000000D02*
X70300000Y-56440000D01*
X66300000Y-55000000D02*
X68860000Y-55000000D01*
X54700000Y-61480000D02*
X55976399Y-60203601D01*
X55976399Y-60203601D02*
X61096399Y-60203601D01*
X66620000Y-58980000D02*
X67760000Y-58980000D01*
X54700000Y-64020000D02*
X55963601Y-62756399D01*
X62843601Y-62756399D02*
X66620000Y-58980000D01*
X55963601Y-62756399D02*
X62843601Y-62756399D01*
X60060000Y-58940000D02*
X62000000Y-57000000D01*
X57240000Y-58940000D02*
X60060000Y-58940000D01*
X65980000Y-61520000D02*
X67760000Y-61520000D01*
X57240000Y-64020000D02*
X63480000Y-64020000D01*
X63480000Y-64020000D02*
X65980000Y-61520000D01*
X66416399Y-62783601D02*
X65899999Y-63300001D01*
X65899999Y-63300001D02*
X65500000Y-63700000D01*
X69036399Y-62783601D02*
X66416399Y-62783601D01*
X70300000Y-61520000D02*
X69036399Y-62783601D01*
X55563599Y-65696401D02*
X54700000Y-66560000D01*
X55976399Y-65283601D02*
X55563599Y-65696401D01*
X66536399Y-65283601D02*
X55976399Y-65283601D01*
X67760000Y-64060000D02*
X66536399Y-65283601D01*
X67720000Y-66560000D02*
X67760000Y-66600000D01*
X57240000Y-66560000D02*
X67720000Y-66560000D01*
X70300000Y-67863600D02*
X69463600Y-68700000D01*
X52800000Y-57036400D02*
X53436400Y-56400000D01*
X54300000Y-68700000D02*
X52800000Y-67200000D01*
X53436400Y-56400000D02*
X54700000Y-56400000D01*
X70300000Y-66600000D02*
X70300000Y-67863600D01*
X69463600Y-68700000D02*
X54300000Y-68700000D01*
X52800000Y-67200000D02*
X52800000Y-57036400D01*
M02*
