G04 #@! TF.GenerationSoftware,KiCad,Pcbnew,5.1.6-c6e7f7d~86~ubuntu20.04.1*
G04 #@! TF.CreationDate,2020-05-17T01:14:59+03:00*
G04 #@! TF.ProjectId,BRK-SOT-23-6,42524b2d-534f-4542-9d32-332d362e6b69,v1.1*
G04 #@! TF.SameCoordinates,Original*
G04 #@! TF.FileFunction,Legend,Top*
G04 #@! TF.FilePolarity,Positive*
%FSLAX46Y46*%
G04 Gerber Fmt 4.6, Leading zero omitted, Abs format (unit mm)*
G04 Created by KiCad (PCBNEW 5.1.6-c6e7f7d~86~ubuntu20.04.1) date 2020-05-17 01:14:59*
%MOMM*%
%LPD*%
G01*
G04 APERTURE LIST*
G04 #@! TA.AperFunction,Profile*
%ADD10C,0.150000*%
G04 #@! TD*
%ADD11C,0.300000*%
%ADD12C,0.150000*%
%ADD13C,0.120000*%
G04 APERTURE END LIST*
D10*
X53000000Y-68000000D02*
G75*
G02*
X51000000Y-66000000I0J2000000D01*
G01*
X67300000Y-66000000D02*
G75*
G02*
X65300000Y-68000000I-2000000J0D01*
G01*
X65300000Y-50000000D02*
G75*
G02*
X67300000Y-52000000I0J-2000000D01*
G01*
X51000000Y-52000000D02*
G75*
G02*
X53000000Y-50000000I2000000J0D01*
G01*
D11*
X63162142Y-64942857D02*
X63162142Y-65742857D01*
X62876428Y-64485714D02*
X62590714Y-65342857D01*
X63333571Y-65342857D01*
X63219285Y-62042857D02*
X62647857Y-62042857D01*
X62590714Y-62614285D01*
X62647857Y-62557142D01*
X62762142Y-62500000D01*
X63047857Y-62500000D01*
X63162142Y-62557142D01*
X63219285Y-62614285D01*
X63276428Y-62728571D01*
X63276428Y-63014285D01*
X63219285Y-63128571D01*
X63162142Y-63185714D01*
X63047857Y-63242857D01*
X62762142Y-63242857D01*
X62647857Y-63185714D01*
X62590714Y-63128571D01*
X63162142Y-59392857D02*
X62933571Y-59392857D01*
X62819285Y-59450000D01*
X62762142Y-59507142D01*
X62647857Y-59678571D01*
X62590714Y-59907142D01*
X62590714Y-60364285D01*
X62647857Y-60478571D01*
X62705000Y-60535714D01*
X62819285Y-60592857D01*
X63047857Y-60592857D01*
X63162142Y-60535714D01*
X63219285Y-60478571D01*
X63276428Y-60364285D01*
X63276428Y-60078571D01*
X63219285Y-59964285D01*
X63162142Y-59907142D01*
X63047857Y-59850000D01*
X62819285Y-59850000D01*
X62705000Y-59907142D01*
X62647857Y-59964285D01*
X62590714Y-60078571D01*
X54966428Y-64592857D02*
X55709285Y-64592857D01*
X55309285Y-65050000D01*
X55480714Y-65050000D01*
X55595000Y-65107142D01*
X55652142Y-65164285D01*
X55709285Y-65278571D01*
X55709285Y-65564285D01*
X55652142Y-65678571D01*
X55595000Y-65735714D01*
X55480714Y-65792857D01*
X55137857Y-65792857D01*
X55023571Y-65735714D01*
X54966428Y-65678571D01*
X55023571Y-62107142D02*
X55080714Y-62050000D01*
X55195000Y-61992857D01*
X55480714Y-61992857D01*
X55595000Y-62050000D01*
X55652142Y-62107142D01*
X55709285Y-62221428D01*
X55709285Y-62335714D01*
X55652142Y-62507142D01*
X54966428Y-63192857D01*
X55709285Y-63192857D01*
X55709285Y-60642857D02*
X55023571Y-60642857D01*
X55366428Y-60642857D02*
X55366428Y-59442857D01*
X55252142Y-59614285D01*
X55137857Y-59728571D01*
X55023571Y-59785714D01*
D10*
X65300000Y-68000000D02*
X53000000Y-68000000D01*
D12*
G36*
X66800000Y-57500000D02*
G01*
X51500000Y-57500000D01*
X51500000Y-53500000D01*
X66800000Y-53500000D01*
X66800000Y-57500000D01*
G37*
X66800000Y-57500000D02*
X51500000Y-57500000D01*
X51500000Y-53500000D01*
X66800000Y-53500000D01*
X66800000Y-57500000D01*
D10*
X67300000Y-52000000D02*
X67300000Y-66000000D01*
D11*
X53364285Y-52607142D02*
X53578571Y-52678571D01*
X53935714Y-52678571D01*
X54078571Y-52607142D01*
X54150000Y-52535714D01*
X54221428Y-52392857D01*
X54221428Y-52250000D01*
X54150000Y-52107142D01*
X54078571Y-52035714D01*
X53935714Y-51964285D01*
X53650000Y-51892857D01*
X53507142Y-51821428D01*
X53435714Y-51750000D01*
X53364285Y-51607142D01*
X53364285Y-51464285D01*
X53435714Y-51321428D01*
X53507142Y-51250000D01*
X53650000Y-51178571D01*
X54007142Y-51178571D01*
X54221428Y-51250000D01*
X55150000Y-51178571D02*
X55435714Y-51178571D01*
X55578571Y-51250000D01*
X55721428Y-51392857D01*
X55792857Y-51678571D01*
X55792857Y-52178571D01*
X55721428Y-52464285D01*
X55578571Y-52607142D01*
X55435714Y-52678571D01*
X55150000Y-52678571D01*
X55007142Y-52607142D01*
X54864285Y-52464285D01*
X54792857Y-52178571D01*
X54792857Y-51678571D01*
X54864285Y-51392857D01*
X55007142Y-51250000D01*
X55150000Y-51178571D01*
X56221428Y-51178571D02*
X57078571Y-51178571D01*
X56650000Y-52678571D02*
X56650000Y-51178571D01*
X57578571Y-52107142D02*
X58721428Y-52107142D01*
X59364285Y-51321428D02*
X59435714Y-51250000D01*
X59578571Y-51178571D01*
X59935714Y-51178571D01*
X60078571Y-51250000D01*
X60150000Y-51321428D01*
X60221428Y-51464285D01*
X60221428Y-51607142D01*
X60150000Y-51821428D01*
X59292857Y-52678571D01*
X60221428Y-52678571D01*
X60721428Y-51178571D02*
X61650000Y-51178571D01*
X61150000Y-51750000D01*
X61364285Y-51750000D01*
X61507142Y-51821428D01*
X61578571Y-51892857D01*
X61650000Y-52035714D01*
X61650000Y-52392857D01*
X61578571Y-52535714D01*
X61507142Y-52607142D01*
X61364285Y-52678571D01*
X60935714Y-52678571D01*
X60792857Y-52607142D01*
X60721428Y-52535714D01*
X62292857Y-52107142D02*
X63435714Y-52107142D01*
X64792857Y-51178571D02*
X64507142Y-51178571D01*
X64364285Y-51250000D01*
X64292857Y-51321428D01*
X64150000Y-51535714D01*
X64078571Y-51821428D01*
X64078571Y-52392857D01*
X64150000Y-52535714D01*
X64221428Y-52607142D01*
X64364285Y-52678571D01*
X64650000Y-52678571D01*
X64792857Y-52607142D01*
X64864285Y-52535714D01*
X64935714Y-52392857D01*
X64935714Y-52035714D01*
X64864285Y-51892857D01*
X64792857Y-51821428D01*
X64650000Y-51750000D01*
X64364285Y-51750000D01*
X64221428Y-51821428D01*
X64150000Y-51892857D01*
X64078571Y-52035714D01*
D10*
X53000000Y-50000000D02*
X65300000Y-50000000D01*
X51000000Y-66000000D02*
X51000000Y-52000000D01*
D13*
X58250000Y-64210000D02*
X60050000Y-64210000D01*
X60050000Y-60990000D02*
X57100000Y-60990000D01*
X66830000Y-58770000D02*
X64170000Y-58770000D01*
X66830000Y-63910000D02*
X66830000Y-58770000D01*
X64170000Y-63910000D02*
X64170000Y-58770000D01*
X66830000Y-63910000D02*
X64170000Y-63910000D01*
X66830000Y-65180000D02*
X66830000Y-66510000D01*
X66830000Y-66510000D02*
X65500000Y-66510000D01*
X51470000Y-66510000D02*
X54130000Y-66510000D01*
X51470000Y-61370000D02*
X51470000Y-66510000D01*
X54130000Y-61370000D02*
X54130000Y-66510000D01*
X51470000Y-61370000D02*
X54130000Y-61370000D01*
X51470000Y-60100000D02*
X51470000Y-58770000D01*
X51470000Y-58770000D02*
X52800000Y-58770000D01*
M02*
