G04 #@! TF.GenerationSoftware,KiCad,Pcbnew,5.0.1-33cea8e~68~ubuntu18.10.1*
G04 #@! TF.CreationDate,2018-12-01T22:14:16+02:00*
G04 #@! TF.ProjectId,BRK-SOT-23-6,42524B2D534F542D32332D362E6B6963,v1.0*
G04 #@! TF.SameCoordinates,Original*
G04 #@! TF.FileFunction,Soldermask,Top*
G04 #@! TF.FilePolarity,Negative*
%FSLAX46Y46*%
G04 Gerber Fmt 4.6, Leading zero omitted, Abs format (unit mm)*
G04 Created by KiCad (PCBNEW 5.0.1-33cea8e~68~ubuntu18.10.1) date la  1. joulukuuta 2018 22.14.16*
%MOMM*%
%LPD*%
G01*
G04 APERTURE LIST*
%ADD10C,0.150000*%
%ADD11C,0.100000*%
G04 APERTURE END LIST*
D10*
X52000000Y-68000000D02*
G75*
G02X50000000Y-66000000I0J2000000D01*
G01*
X68300000Y-66000000D02*
G75*
G02X66300000Y-68000000I-2000000J0D01*
G01*
X66300000Y-50000000D02*
G75*
G02X68300000Y-52000000I0J-2000000D01*
G01*
X50000000Y-52000000D02*
G75*
G02X52000000Y-50000000I2000000J0D01*
G01*
X66300000Y-68000000D02*
X52000000Y-68000000D01*
X68300000Y-52000000D02*
X68300000Y-66000000D01*
X52000000Y-50000000D02*
X66300000Y-50000000D01*
X50000000Y-66000000D02*
X50000000Y-52000000D01*
D11*
G36*
X52966627Y-64342299D02*
X53057088Y-64369740D01*
X53126855Y-64390903D01*
X53180712Y-64419691D01*
X53274517Y-64469830D01*
X53403948Y-64576052D01*
X53510170Y-64705483D01*
X53560309Y-64799288D01*
X53589097Y-64853145D01*
X53589097Y-64853146D01*
X53637701Y-65013373D01*
X53654113Y-65180000D01*
X53637701Y-65346627D01*
X53637700Y-65346629D01*
X53589097Y-65506855D01*
X53560309Y-65560712D01*
X53510170Y-65654517D01*
X53403948Y-65783948D01*
X53274517Y-65890170D01*
X53180712Y-65940309D01*
X53126855Y-65969097D01*
X53057088Y-65990260D01*
X52966627Y-66017701D01*
X52841757Y-66030000D01*
X52758243Y-66030000D01*
X52633373Y-66017701D01*
X52542912Y-65990260D01*
X52473145Y-65969097D01*
X52419288Y-65940309D01*
X52325483Y-65890170D01*
X52196052Y-65783948D01*
X52089830Y-65654517D01*
X52039691Y-65560712D01*
X52010903Y-65506855D01*
X51962300Y-65346629D01*
X51962299Y-65346627D01*
X51945887Y-65180000D01*
X51962299Y-65013373D01*
X52010903Y-64853146D01*
X52010903Y-64853145D01*
X52039691Y-64799288D01*
X52089830Y-64705483D01*
X52196052Y-64576052D01*
X52325483Y-64469830D01*
X52419288Y-64419691D01*
X52473145Y-64390903D01*
X52542912Y-64369740D01*
X52633373Y-64342299D01*
X52758243Y-64330000D01*
X52841757Y-64330000D01*
X52966627Y-64342299D01*
X52966627Y-64342299D01*
G37*
G36*
X66350000Y-66030000D02*
X64650000Y-66030000D01*
X64650000Y-64330000D01*
X66350000Y-64330000D01*
X66350000Y-66030000D01*
X66350000Y-66030000D01*
G37*
G36*
X61280000Y-63875000D02*
X59720000Y-63875000D01*
X59720000Y-63225000D01*
X61280000Y-63225000D01*
X61280000Y-63875000D01*
X61280000Y-63875000D01*
G37*
G36*
X58580000Y-63875000D02*
X57020000Y-63875000D01*
X57020000Y-63225000D01*
X58580000Y-63225000D01*
X58580000Y-63875000D01*
X58580000Y-63875000D01*
G37*
G36*
X65666627Y-61802299D02*
X65757088Y-61829740D01*
X65826855Y-61850903D01*
X65880712Y-61879691D01*
X65974517Y-61929830D01*
X66103948Y-62036052D01*
X66210170Y-62165483D01*
X66260309Y-62259288D01*
X66289097Y-62313145D01*
X66289097Y-62313146D01*
X66337701Y-62473373D01*
X66354113Y-62640000D01*
X66337701Y-62806627D01*
X66337700Y-62806629D01*
X66289097Y-62966855D01*
X66260309Y-63020712D01*
X66210170Y-63114517D01*
X66103948Y-63243948D01*
X65974517Y-63350170D01*
X65880712Y-63400309D01*
X65826855Y-63429097D01*
X65757088Y-63450260D01*
X65666627Y-63477701D01*
X65541757Y-63490000D01*
X65458243Y-63490000D01*
X65333373Y-63477701D01*
X65242912Y-63450260D01*
X65173145Y-63429097D01*
X65119288Y-63400309D01*
X65025483Y-63350170D01*
X64896052Y-63243948D01*
X64789830Y-63114517D01*
X64739691Y-63020712D01*
X64710903Y-62966855D01*
X64662300Y-62806629D01*
X64662299Y-62806627D01*
X64645887Y-62640000D01*
X64662299Y-62473373D01*
X64710903Y-62313146D01*
X64710903Y-62313145D01*
X64739691Y-62259288D01*
X64789830Y-62165483D01*
X64896052Y-62036052D01*
X65025483Y-61929830D01*
X65119288Y-61879691D01*
X65173145Y-61850903D01*
X65242912Y-61829740D01*
X65333373Y-61802299D01*
X65458243Y-61790000D01*
X65541757Y-61790000D01*
X65666627Y-61802299D01*
X65666627Y-61802299D01*
G37*
G36*
X52966627Y-61802299D02*
X53057088Y-61829740D01*
X53126855Y-61850903D01*
X53180712Y-61879691D01*
X53274517Y-61929830D01*
X53403948Y-62036052D01*
X53510170Y-62165483D01*
X53560309Y-62259288D01*
X53589097Y-62313145D01*
X53589097Y-62313146D01*
X53637701Y-62473373D01*
X53654113Y-62640000D01*
X53637701Y-62806627D01*
X53637700Y-62806629D01*
X53589097Y-62966855D01*
X53560309Y-63020712D01*
X53510170Y-63114517D01*
X53403948Y-63243948D01*
X53274517Y-63350170D01*
X53180712Y-63400309D01*
X53126855Y-63429097D01*
X53057088Y-63450260D01*
X52966627Y-63477701D01*
X52841757Y-63490000D01*
X52758243Y-63490000D01*
X52633373Y-63477701D01*
X52542912Y-63450260D01*
X52473145Y-63429097D01*
X52419288Y-63400309D01*
X52325483Y-63350170D01*
X52196052Y-63243948D01*
X52089830Y-63114517D01*
X52039691Y-63020712D01*
X52010903Y-62966855D01*
X51962300Y-62806629D01*
X51962299Y-62806627D01*
X51945887Y-62640000D01*
X51962299Y-62473373D01*
X52010903Y-62313146D01*
X52010903Y-62313145D01*
X52039691Y-62259288D01*
X52089830Y-62165483D01*
X52196052Y-62036052D01*
X52325483Y-61929830D01*
X52419288Y-61879691D01*
X52473145Y-61850903D01*
X52542912Y-61829740D01*
X52633373Y-61802299D01*
X52758243Y-61790000D01*
X52841757Y-61790000D01*
X52966627Y-61802299D01*
X52966627Y-61802299D01*
G37*
G36*
X61280000Y-62925000D02*
X59720000Y-62925000D01*
X59720000Y-62275000D01*
X61280000Y-62275000D01*
X61280000Y-62925000D01*
X61280000Y-62925000D01*
G37*
G36*
X58580000Y-62925000D02*
X57020000Y-62925000D01*
X57020000Y-62275000D01*
X58580000Y-62275000D01*
X58580000Y-62925000D01*
X58580000Y-62925000D01*
G37*
G36*
X61280000Y-61975000D02*
X59720000Y-61975000D01*
X59720000Y-61325000D01*
X61280000Y-61325000D01*
X61280000Y-61975000D01*
X61280000Y-61975000D01*
G37*
G36*
X58580000Y-61975000D02*
X57020000Y-61975000D01*
X57020000Y-61325000D01*
X58580000Y-61325000D01*
X58580000Y-61975000D01*
X58580000Y-61975000D01*
G37*
G36*
X53650000Y-60950000D02*
X51950000Y-60950000D01*
X51950000Y-59250000D01*
X53650000Y-59250000D01*
X53650000Y-60950000D01*
X53650000Y-60950000D01*
G37*
G36*
X65666627Y-59262299D02*
X65757088Y-59289740D01*
X65826855Y-59310903D01*
X65880712Y-59339691D01*
X65974517Y-59389830D01*
X66103948Y-59496052D01*
X66210170Y-59625483D01*
X66260309Y-59719288D01*
X66289097Y-59773145D01*
X66289097Y-59773146D01*
X66337701Y-59933373D01*
X66354113Y-60100000D01*
X66337701Y-60266627D01*
X66337700Y-60266629D01*
X66289097Y-60426855D01*
X66260309Y-60480712D01*
X66210170Y-60574517D01*
X66103948Y-60703948D01*
X65974517Y-60810170D01*
X65880712Y-60860309D01*
X65826855Y-60889097D01*
X65757088Y-60910260D01*
X65666627Y-60937701D01*
X65541757Y-60950000D01*
X65458243Y-60950000D01*
X65333373Y-60937701D01*
X65242912Y-60910260D01*
X65173145Y-60889097D01*
X65119288Y-60860309D01*
X65025483Y-60810170D01*
X64896052Y-60703948D01*
X64789830Y-60574517D01*
X64739691Y-60480712D01*
X64710903Y-60426855D01*
X64662300Y-60266629D01*
X64662299Y-60266627D01*
X64645887Y-60100000D01*
X64662299Y-59933373D01*
X64710903Y-59773146D01*
X64710903Y-59773145D01*
X64739691Y-59719288D01*
X64789830Y-59625483D01*
X64896052Y-59496052D01*
X65025483Y-59389830D01*
X65119288Y-59339691D01*
X65173145Y-59310903D01*
X65242912Y-59289740D01*
X65333373Y-59262299D01*
X65458243Y-59250000D01*
X65541757Y-59250000D01*
X65666627Y-59262299D01*
X65666627Y-59262299D01*
G37*
M02*
