%TF.GenerationSoftware,KiCad,Pcbnew,5.1.7-a382d34a8~87~ubuntu20.04.1*%
%TF.CreationDate,2020-11-06T18:29:30+02:00*%
%TF.ProjectId,BRK-SC-70-6,42524b2d-5343-42d3-9730-2d362e6b6963,v1.0*%
%TF.SameCoordinates,Original*%
%TF.FileFunction,Legend,Bot*%
%TF.FilePolarity,Positive*%
%FSLAX46Y46*%
G04 Gerber Fmt 4.6, Leading zero omitted, Abs format (unit mm)*
G04 Created by KiCad (PCBNEW 5.1.7-a382d34a8~87~ubuntu20.04.1) date 2020-11-06 18:29:30*
%MOMM*%
%LPD*%
G01*
G04 APERTURE LIST*
%ADD10C,0.250000*%
G04 APERTURE END LIST*
D10*
X104488095Y-93246190D02*
X104302380Y-93308095D01*
X103992857Y-93308095D01*
X103869047Y-93246190D01*
X103807142Y-93184285D01*
X103745238Y-93060476D01*
X103745238Y-92936666D01*
X103807142Y-92812857D01*
X103869047Y-92750952D01*
X103992857Y-92689047D01*
X104240476Y-92627142D01*
X104364285Y-92565238D01*
X104426190Y-92503333D01*
X104488095Y-92379523D01*
X104488095Y-92255714D01*
X104426190Y-92131904D01*
X104364285Y-92070000D01*
X104240476Y-92008095D01*
X103930952Y-92008095D01*
X103745238Y-92070000D01*
X102445238Y-93184285D02*
X102507142Y-93246190D01*
X102692857Y-93308095D01*
X102816666Y-93308095D01*
X103002380Y-93246190D01*
X103126190Y-93122380D01*
X103188095Y-92998571D01*
X103250000Y-92750952D01*
X103250000Y-92565238D01*
X103188095Y-92317619D01*
X103126190Y-92193809D01*
X103002380Y-92070000D01*
X102816666Y-92008095D01*
X102692857Y-92008095D01*
X102507142Y-92070000D01*
X102445238Y-92131904D01*
X101888095Y-92812857D02*
X100897619Y-92812857D01*
X100402380Y-92008095D02*
X99535714Y-92008095D01*
X100092857Y-93308095D01*
X98792857Y-92008095D02*
X98669047Y-92008095D01*
X98545238Y-92070000D01*
X98483333Y-92131904D01*
X98421428Y-92255714D01*
X98359523Y-92503333D01*
X98359523Y-92812857D01*
X98421428Y-93060476D01*
X98483333Y-93184285D01*
X98545238Y-93246190D01*
X98669047Y-93308095D01*
X98792857Y-93308095D01*
X98916666Y-93246190D01*
X98978571Y-93184285D01*
X99040476Y-93060476D01*
X99102380Y-92812857D01*
X99102380Y-92503333D01*
X99040476Y-92255714D01*
X98978571Y-92131904D01*
X98916666Y-92070000D01*
X98792857Y-92008095D01*
X97802380Y-92812857D02*
X96811904Y-92812857D01*
X95635714Y-92008095D02*
X95883333Y-92008095D01*
X96007142Y-92070000D01*
X96069047Y-92131904D01*
X96192857Y-92317619D01*
X96254761Y-92565238D01*
X96254761Y-93060476D01*
X96192857Y-93184285D01*
X96130952Y-93246190D01*
X96007142Y-93308095D01*
X95759523Y-93308095D01*
X95635714Y-93246190D01*
X95573809Y-93184285D01*
X95511904Y-93060476D01*
X95511904Y-92750952D01*
X95573809Y-92627142D01*
X95635714Y-92565238D01*
X95759523Y-92503333D01*
X96007142Y-92503333D01*
X96130952Y-92565238D01*
X96192857Y-92627142D01*
X96254761Y-92750952D01*
M02*
