M48
;DRILL file {KiCad 5.0.1-33cea8e~68~ubuntu18.10.1} date ma 26. marraskuuta 2018 23.37.13
;FORMAT={-:-/ absolute / inch / decimal}
FMAT,2
INCH,TZ
T1C0.0236
T2C0.0400
%
G90
G05
M72
T1
X2.3228Y-2.8465
X2.6693Y-2.4134
X2.9016Y-2.7953
T2
X2.5102Y-2.4969
X2.5102Y-2.5969
X2.5102Y-2.6969
X2.5102Y-2.7969
X2.5102Y-2.8969
X2.6102Y-2.4969
X2.6102Y-2.5969
X2.6102Y-2.6969
X2.6102Y-2.7969
X2.6102Y-2.8969
X3.2717Y-2.2472
X3.2717Y-2.3472
X3.2717Y-2.4472
X3.2717Y-2.5472
X3.2717Y-2.6472
X3.2717Y-2.7472
X3.2717Y-2.8472
X3.2717Y-2.9472
X3.2717Y-3.0472
X3.2717Y-3.1472
X3.3717Y-2.2472
X3.3717Y-2.3472
X3.3717Y-2.4472
X3.3717Y-2.5472
X3.3717Y-2.6472
X3.3717Y-2.7472
X3.3717Y-2.8472
X3.3717Y-2.9472
X3.3717Y-3.0472
X3.3717Y-3.1472
T0
M30
