G04 #@! TF.GenerationSoftware,KiCad,Pcbnew,5.0.1-33cea8e~68~ubuntu18.04.1*
G04 #@! TF.CreationDate,2018-10-27T22:05:29+03:00*
G04 #@! TF.ProjectId,BUS-BLASTER-AVR,4255532D424C41535445522D4156522E,v1.0*
G04 #@! TF.SameCoordinates,Original*
G04 #@! TF.FileFunction,Copper,L2,Bot,Signal*
G04 #@! TF.FilePolarity,Positive*
%FSLAX46Y46*%
G04 Gerber Fmt 4.6, Leading zero omitted, Abs format (unit mm)*
G04 Created by KiCad (PCBNEW 5.0.1-33cea8e~68~ubuntu18.04.1) date la 27. lokakuuta 2018 22.05.29*
%MOMM*%
%LPD*%
G01*
G04 APERTURE LIST*
G04 #@! TA.AperFunction,NonConductor*
%ADD10C,0.150000*%
G04 #@! TD*
G04 #@! TA.AperFunction,ComponentPad*
%ADD11R,1.727200X1.727200*%
G04 #@! TD*
G04 #@! TA.AperFunction,ComponentPad*
%ADD12O,1.727200X1.727200*%
G04 #@! TD*
G04 #@! TA.AperFunction,ViaPad*
%ADD13C,1.000000*%
G04 #@! TD*
G04 #@! TA.AperFunction,Conductor*
%ADD14C,0.600000*%
G04 #@! TD*
G04 #@! TA.AperFunction,Conductor*
%ADD15C,1.000000*%
G04 #@! TD*
G04 #@! TA.AperFunction,Conductor*
%ADD16C,0.200000*%
G04 #@! TD*
G04 APERTURE END LIST*
D10*
X48000000Y-50000000D02*
X102000000Y-50000000D01*
X102000000Y-87000000D02*
X102000000Y-50000000D01*
X48000000Y-87000000D02*
X102000000Y-87000000D01*
X48000000Y-50000000D02*
X48000000Y-87000000D01*
D11*
G04 #@! TO.P,J1,1*
G04 #@! TO.N,TCK*
X66300000Y-73580000D03*
D12*
G04 #@! TO.P,J1,2*
G04 #@! TO.N,GND*
X63760000Y-73580000D03*
G04 #@! TO.P,J1,3*
G04 #@! TO.N,TDO*
X66300000Y-71040000D03*
G04 #@! TO.P,J1,4*
G04 #@! TO.N,VREF*
X63760000Y-71040000D03*
G04 #@! TO.P,J1,5*
G04 #@! TO.N,TMS*
X66300000Y-68500000D03*
G04 #@! TO.P,J1,6*
G04 #@! TO.N,nSRST*
X63760000Y-68500000D03*
G04 #@! TO.P,J1,7*
G04 #@! TO.N,Net-(J1-Pad7)*
X66300000Y-65960000D03*
G04 #@! TO.P,J1,8*
G04 #@! TO.N,nTRST*
X63760000Y-65960000D03*
G04 #@! TO.P,J1,9*
G04 #@! TO.N,TDI*
X66300000Y-63420000D03*
G04 #@! TO.P,J1,10*
G04 #@! TO.N,GND*
X63760000Y-63420000D03*
G04 #@! TD*
D11*
G04 #@! TO.P,J2,1*
G04 #@! TO.N,VREF*
X83100000Y-57080000D03*
D12*
G04 #@! TO.P,J2,2*
X85640000Y-57080000D03*
G04 #@! TO.P,J2,3*
G04 #@! TO.N,nTRST*
X83100000Y-59620000D03*
G04 #@! TO.P,J2,4*
G04 #@! TO.N,GND*
X85640000Y-59620000D03*
G04 #@! TO.P,J2,5*
G04 #@! TO.N,TDI*
X83100000Y-62160000D03*
G04 #@! TO.P,J2,6*
G04 #@! TO.N,GND*
X85640000Y-62160000D03*
G04 #@! TO.P,J2,7*
G04 #@! TO.N,TMS*
X83100000Y-64700000D03*
G04 #@! TO.P,J2,8*
G04 #@! TO.N,GND*
X85640000Y-64700000D03*
G04 #@! TO.P,J2,9*
G04 #@! TO.N,TCK*
X83100000Y-67240000D03*
G04 #@! TO.P,J2,10*
G04 #@! TO.N,GND*
X85640000Y-67240000D03*
G04 #@! TO.P,J2,11*
G04 #@! TO.N,Net-(J2-Pad11)*
X83100000Y-69780000D03*
G04 #@! TO.P,J2,12*
G04 #@! TO.N,GND*
X85640000Y-69780000D03*
G04 #@! TO.P,J2,13*
G04 #@! TO.N,TDO*
X83100000Y-72320000D03*
G04 #@! TO.P,J2,14*
G04 #@! TO.N,GND*
X85640000Y-72320000D03*
G04 #@! TO.P,J2,15*
G04 #@! TO.N,nSRST*
X83100000Y-74860000D03*
G04 #@! TO.P,J2,16*
G04 #@! TO.N,GND*
X85640000Y-74860000D03*
G04 #@! TO.P,J2,17*
G04 #@! TO.N,Net-(J2-Pad17)*
X83100000Y-77400000D03*
G04 #@! TO.P,J2,18*
G04 #@! TO.N,GND*
X85640000Y-77400000D03*
G04 #@! TO.P,J2,19*
G04 #@! TO.N,Net-(J2-Pad19)*
X83100000Y-79940000D03*
G04 #@! TO.P,J2,20*
G04 #@! TO.N,GND*
X85640000Y-79940000D03*
G04 #@! TD*
D13*
G04 #@! TO.N,GND*
X67800000Y-61300000D03*
G04 #@! TO.N,TDO*
X73700000Y-71000000D03*
G04 #@! TO.N,nSRST*
X59000000Y-72300000D03*
G04 #@! TD*
D14*
G04 #@! TO.N,TDO*
X73700000Y-71000000D02*
X66340000Y-71000000D01*
X66340000Y-71000000D02*
X66300000Y-71040000D01*
G04 #@! TO.N,nSRST*
X59000000Y-72300000D02*
X59000000Y-70400000D01*
X59000000Y-70400000D02*
X60900000Y-68500000D01*
X60900000Y-68500000D02*
X63760000Y-68500000D01*
D15*
G04 #@! TO.N,TDI*
X83100000Y-62180000D02*
X83100000Y-62405870D01*
G04 #@! TD*
D16*
G04 #@! TO.N,GND*
G36*
X101325000Y-86325000D02*
X48675000Y-86325000D01*
X48675000Y-81542501D01*
X50700000Y-81542501D01*
X50700000Y-82457499D01*
X51050154Y-83302846D01*
X51697154Y-83949846D01*
X52542501Y-84300000D01*
X53457499Y-84300000D01*
X54302846Y-83949846D01*
X54949846Y-83302846D01*
X55300000Y-82457499D01*
X55300000Y-81542501D01*
X94700000Y-81542501D01*
X94700000Y-82457499D01*
X95050154Y-83302846D01*
X95697154Y-83949846D01*
X96542501Y-84300000D01*
X97457499Y-84300000D01*
X98302846Y-83949846D01*
X98949846Y-83302846D01*
X99300000Y-82457499D01*
X99300000Y-81542501D01*
X98949846Y-80697154D01*
X98302846Y-80050154D01*
X97457499Y-79700000D01*
X96542501Y-79700000D01*
X95697154Y-80050154D01*
X95050154Y-80697154D01*
X94700000Y-81542501D01*
X55300000Y-81542501D01*
X54949846Y-80697154D01*
X54302846Y-80050154D01*
X53457499Y-79700000D01*
X52542501Y-79700000D01*
X51697154Y-80050154D01*
X51050154Y-80697154D01*
X50700000Y-81542501D01*
X48675000Y-81542501D01*
X48675000Y-73961049D01*
X62338589Y-73961049D01*
X62485459Y-74315654D01*
X62864000Y-74747402D01*
X63378949Y-75001423D01*
X63606000Y-74891532D01*
X63606000Y-73734000D01*
X62449417Y-73734000D01*
X62338589Y-73961049D01*
X48675000Y-73961049D01*
X48675000Y-72061305D01*
X57800000Y-72061305D01*
X57800000Y-72538695D01*
X57982689Y-72979745D01*
X58320255Y-73317311D01*
X58761305Y-73500000D01*
X59238695Y-73500000D01*
X59679745Y-73317311D01*
X60017311Y-72979745D01*
X60200000Y-72538695D01*
X60200000Y-72061305D01*
X60017311Y-71620255D01*
X60000000Y-71602944D01*
X60000000Y-70814212D01*
X61314213Y-69500000D01*
X62547654Y-69500000D01*
X62632708Y-69627292D01*
X62846286Y-69770000D01*
X62632708Y-69912708D01*
X62287122Y-70429914D01*
X62165768Y-71040000D01*
X62287122Y-71650086D01*
X62632708Y-72167292D01*
X62942144Y-72374050D01*
X62864000Y-72412598D01*
X62485459Y-72844346D01*
X62338589Y-73198951D01*
X62449417Y-73426000D01*
X63606000Y-73426000D01*
X63606000Y-73406000D01*
X63914000Y-73406000D01*
X63914000Y-73426000D01*
X63934000Y-73426000D01*
X63934000Y-73734000D01*
X63914000Y-73734000D01*
X63914000Y-74891532D01*
X64141051Y-75001423D01*
X64656000Y-74747402D01*
X64759611Y-74629228D01*
X64777015Y-74716726D01*
X64931729Y-74948271D01*
X65163274Y-75102985D01*
X65436400Y-75157313D01*
X67163600Y-75157313D01*
X67436726Y-75102985D01*
X67668271Y-74948271D01*
X67822985Y-74716726D01*
X67877313Y-74443600D01*
X67877313Y-72716400D01*
X67822985Y-72443274D01*
X67668271Y-72211729D01*
X67481145Y-72086695D01*
X67539073Y-72000000D01*
X73002944Y-72000000D01*
X73020255Y-72017311D01*
X73461305Y-72200000D01*
X73938695Y-72200000D01*
X74379745Y-72017311D01*
X74717311Y-71679745D01*
X74900000Y-71238695D01*
X74900000Y-70761305D01*
X74717311Y-70320255D01*
X74379745Y-69982689D01*
X73938695Y-69800000D01*
X73461305Y-69800000D01*
X73020255Y-69982689D01*
X73002944Y-70000000D01*
X67485619Y-70000000D01*
X67427292Y-69912708D01*
X67213714Y-69770000D01*
X67427292Y-69627292D01*
X67772878Y-69110086D01*
X67894232Y-68500000D01*
X67772878Y-67889914D01*
X67427292Y-67372708D01*
X67213714Y-67230000D01*
X67427292Y-67087292D01*
X67772878Y-66570086D01*
X67894232Y-65960000D01*
X67772878Y-65349914D01*
X67427292Y-64832708D01*
X67213714Y-64690000D01*
X67427292Y-64547292D01*
X67772878Y-64030086D01*
X67894232Y-63420000D01*
X67772878Y-62809914D01*
X67427292Y-62292708D01*
X66910086Y-61947122D01*
X66453997Y-61856400D01*
X66146003Y-61856400D01*
X65689914Y-61947122D01*
X65172708Y-62292708D01*
X64964444Y-62604397D01*
X64656000Y-62252598D01*
X64141051Y-61998577D01*
X63914000Y-62108468D01*
X63914000Y-63266000D01*
X63934000Y-63266000D01*
X63934000Y-63574000D01*
X63914000Y-63574000D01*
X63914000Y-63594000D01*
X63606000Y-63594000D01*
X63606000Y-63574000D01*
X62449417Y-63574000D01*
X62338589Y-63801049D01*
X62485459Y-64155654D01*
X62864000Y-64587402D01*
X62942144Y-64625950D01*
X62632708Y-64832708D01*
X62287122Y-65349914D01*
X62165768Y-65960000D01*
X62287122Y-66570086D01*
X62632708Y-67087292D01*
X62846286Y-67230000D01*
X62632708Y-67372708D01*
X62547654Y-67500000D01*
X60998490Y-67500000D01*
X60900000Y-67480409D01*
X60801510Y-67500000D01*
X60509819Y-67558021D01*
X60179040Y-67779040D01*
X60123247Y-67862540D01*
X58362540Y-69623248D01*
X58279041Y-69679040D01*
X58122909Y-69912708D01*
X58058021Y-70009820D01*
X57980409Y-70400000D01*
X58000001Y-70498495D01*
X58000000Y-71602944D01*
X57982689Y-71620255D01*
X57800000Y-72061305D01*
X48675000Y-72061305D01*
X48675000Y-63038951D01*
X62338589Y-63038951D01*
X62449417Y-63266000D01*
X63606000Y-63266000D01*
X63606000Y-62108468D01*
X63378949Y-61998577D01*
X62864000Y-62252598D01*
X62485459Y-62684346D01*
X62338589Y-63038951D01*
X48675000Y-63038951D01*
X48675000Y-59620000D01*
X81505768Y-59620000D01*
X81627122Y-60230086D01*
X81972708Y-60747292D01*
X82186286Y-60890000D01*
X81972708Y-61032708D01*
X81627122Y-61549914D01*
X81505768Y-62160000D01*
X81627122Y-62770086D01*
X81972708Y-63287292D01*
X82186286Y-63430000D01*
X81972708Y-63572708D01*
X81627122Y-64089914D01*
X81505768Y-64700000D01*
X81627122Y-65310086D01*
X81972708Y-65827292D01*
X82186286Y-65970000D01*
X81972708Y-66112708D01*
X81627122Y-66629914D01*
X81505768Y-67240000D01*
X81627122Y-67850086D01*
X81972708Y-68367292D01*
X82186286Y-68510000D01*
X81972708Y-68652708D01*
X81627122Y-69169914D01*
X81505768Y-69780000D01*
X81627122Y-70390086D01*
X81972708Y-70907292D01*
X82186286Y-71050000D01*
X81972708Y-71192708D01*
X81627122Y-71709914D01*
X81505768Y-72320000D01*
X81627122Y-72930086D01*
X81972708Y-73447292D01*
X82186286Y-73590000D01*
X81972708Y-73732708D01*
X81627122Y-74249914D01*
X81505768Y-74860000D01*
X81627122Y-75470086D01*
X81972708Y-75987292D01*
X82186286Y-76130000D01*
X81972708Y-76272708D01*
X81627122Y-76789914D01*
X81505768Y-77400000D01*
X81627122Y-78010086D01*
X81972708Y-78527292D01*
X82186286Y-78670000D01*
X81972708Y-78812708D01*
X81627122Y-79329914D01*
X81505768Y-79940000D01*
X81627122Y-80550086D01*
X81972708Y-81067292D01*
X82489914Y-81412878D01*
X82946003Y-81503600D01*
X83253997Y-81503600D01*
X83710086Y-81412878D01*
X84227292Y-81067292D01*
X84435556Y-80755603D01*
X84744000Y-81107402D01*
X85258949Y-81361423D01*
X85486000Y-81251532D01*
X85486000Y-80094000D01*
X85794000Y-80094000D01*
X85794000Y-81251532D01*
X86021051Y-81361423D01*
X86536000Y-81107402D01*
X86914541Y-80675654D01*
X87061411Y-80321049D01*
X86950583Y-80094000D01*
X85794000Y-80094000D01*
X85486000Y-80094000D01*
X85466000Y-80094000D01*
X85466000Y-79786000D01*
X85486000Y-79786000D01*
X85486000Y-77554000D01*
X85794000Y-77554000D01*
X85794000Y-79786000D01*
X86950583Y-79786000D01*
X87061411Y-79558951D01*
X86914541Y-79204346D01*
X86536000Y-78772598D01*
X86328014Y-78670000D01*
X86536000Y-78567402D01*
X86914541Y-78135654D01*
X87061411Y-77781049D01*
X86950583Y-77554000D01*
X85794000Y-77554000D01*
X85486000Y-77554000D01*
X85466000Y-77554000D01*
X85466000Y-77246000D01*
X85486000Y-77246000D01*
X85486000Y-75014000D01*
X85794000Y-75014000D01*
X85794000Y-77246000D01*
X86950583Y-77246000D01*
X87061411Y-77018951D01*
X86914541Y-76664346D01*
X86536000Y-76232598D01*
X86328014Y-76130000D01*
X86536000Y-76027402D01*
X86914541Y-75595654D01*
X87061411Y-75241049D01*
X86950583Y-75014000D01*
X85794000Y-75014000D01*
X85486000Y-75014000D01*
X85466000Y-75014000D01*
X85466000Y-74706000D01*
X85486000Y-74706000D01*
X85486000Y-72474000D01*
X85794000Y-72474000D01*
X85794000Y-74706000D01*
X86950583Y-74706000D01*
X87061411Y-74478951D01*
X86914541Y-74124346D01*
X86536000Y-73692598D01*
X86328014Y-73590000D01*
X86536000Y-73487402D01*
X86914541Y-73055654D01*
X87061411Y-72701049D01*
X86950583Y-72474000D01*
X85794000Y-72474000D01*
X85486000Y-72474000D01*
X85466000Y-72474000D01*
X85466000Y-72166000D01*
X85486000Y-72166000D01*
X85486000Y-69934000D01*
X85794000Y-69934000D01*
X85794000Y-72166000D01*
X86950583Y-72166000D01*
X87061411Y-71938951D01*
X86914541Y-71584346D01*
X86536000Y-71152598D01*
X86328014Y-71050000D01*
X86536000Y-70947402D01*
X86914541Y-70515654D01*
X87061411Y-70161049D01*
X86950583Y-69934000D01*
X85794000Y-69934000D01*
X85486000Y-69934000D01*
X85466000Y-69934000D01*
X85466000Y-69626000D01*
X85486000Y-69626000D01*
X85486000Y-67394000D01*
X85794000Y-67394000D01*
X85794000Y-69626000D01*
X86950583Y-69626000D01*
X87061411Y-69398951D01*
X86914541Y-69044346D01*
X86536000Y-68612598D01*
X86328014Y-68510000D01*
X86536000Y-68407402D01*
X86914541Y-67975654D01*
X87061411Y-67621049D01*
X86950583Y-67394000D01*
X85794000Y-67394000D01*
X85486000Y-67394000D01*
X85466000Y-67394000D01*
X85466000Y-67086000D01*
X85486000Y-67086000D01*
X85486000Y-64854000D01*
X85794000Y-64854000D01*
X85794000Y-67086000D01*
X86950583Y-67086000D01*
X87061411Y-66858951D01*
X86914541Y-66504346D01*
X86536000Y-66072598D01*
X86328014Y-65970000D01*
X86536000Y-65867402D01*
X86914541Y-65435654D01*
X87061411Y-65081049D01*
X86950583Y-64854000D01*
X85794000Y-64854000D01*
X85486000Y-64854000D01*
X85466000Y-64854000D01*
X85466000Y-64546000D01*
X85486000Y-64546000D01*
X85486000Y-62314000D01*
X85794000Y-62314000D01*
X85794000Y-64546000D01*
X86950583Y-64546000D01*
X87061411Y-64318951D01*
X86914541Y-63964346D01*
X86536000Y-63532598D01*
X86328014Y-63430000D01*
X86536000Y-63327402D01*
X86914541Y-62895654D01*
X87061411Y-62541049D01*
X86950583Y-62314000D01*
X85794000Y-62314000D01*
X85486000Y-62314000D01*
X85466000Y-62314000D01*
X85466000Y-62006000D01*
X85486000Y-62006000D01*
X85486000Y-59774000D01*
X85794000Y-59774000D01*
X85794000Y-62006000D01*
X86950583Y-62006000D01*
X87061411Y-61778951D01*
X86914541Y-61424346D01*
X86536000Y-60992598D01*
X86328014Y-60890000D01*
X86536000Y-60787402D01*
X86914541Y-60355654D01*
X87061411Y-60001049D01*
X86950583Y-59774000D01*
X85794000Y-59774000D01*
X85486000Y-59774000D01*
X85466000Y-59774000D01*
X85466000Y-59466000D01*
X85486000Y-59466000D01*
X85486000Y-59446000D01*
X85794000Y-59446000D01*
X85794000Y-59466000D01*
X86950583Y-59466000D01*
X87061411Y-59238951D01*
X86914541Y-58884346D01*
X86536000Y-58452598D01*
X86457856Y-58414050D01*
X86767292Y-58207292D01*
X87112878Y-57690086D01*
X87234232Y-57080000D01*
X87112878Y-56469914D01*
X86767292Y-55952708D01*
X86250086Y-55607122D01*
X85793997Y-55516400D01*
X85486003Y-55516400D01*
X85029914Y-55607122D01*
X84593305Y-55898855D01*
X84468271Y-55711729D01*
X84236726Y-55557015D01*
X83963600Y-55502687D01*
X82236400Y-55502687D01*
X81963274Y-55557015D01*
X81731729Y-55711729D01*
X81577015Y-55943274D01*
X81522687Y-56216400D01*
X81522687Y-57943600D01*
X81577015Y-58216726D01*
X81731729Y-58448271D01*
X81918855Y-58573305D01*
X81627122Y-59009914D01*
X81505768Y-59620000D01*
X48675000Y-59620000D01*
X48675000Y-54542501D01*
X50700000Y-54542501D01*
X50700000Y-55457499D01*
X51050154Y-56302846D01*
X51697154Y-56949846D01*
X52542501Y-57300000D01*
X53457499Y-57300000D01*
X54302846Y-56949846D01*
X54949846Y-56302846D01*
X55300000Y-55457499D01*
X55300000Y-54542501D01*
X94700000Y-54542501D01*
X94700000Y-55457499D01*
X95050154Y-56302846D01*
X95697154Y-56949846D01*
X96542501Y-57300000D01*
X97457499Y-57300000D01*
X98302846Y-56949846D01*
X98949846Y-56302846D01*
X99300000Y-55457499D01*
X99300000Y-54542501D01*
X98949846Y-53697154D01*
X98302846Y-53050154D01*
X97457499Y-52700000D01*
X96542501Y-52700000D01*
X95697154Y-53050154D01*
X95050154Y-53697154D01*
X94700000Y-54542501D01*
X55300000Y-54542501D01*
X54949846Y-53697154D01*
X54302846Y-53050154D01*
X53457499Y-52700000D01*
X52542501Y-52700000D01*
X51697154Y-53050154D01*
X51050154Y-53697154D01*
X50700000Y-54542501D01*
X48675000Y-54542501D01*
X48675000Y-50675000D01*
X101325001Y-50675000D01*
X101325000Y-86325000D01*
X101325000Y-86325000D01*
G37*
X101325000Y-86325000D02*
X48675000Y-86325000D01*
X48675000Y-81542501D01*
X50700000Y-81542501D01*
X50700000Y-82457499D01*
X51050154Y-83302846D01*
X51697154Y-83949846D01*
X52542501Y-84300000D01*
X53457499Y-84300000D01*
X54302846Y-83949846D01*
X54949846Y-83302846D01*
X55300000Y-82457499D01*
X55300000Y-81542501D01*
X94700000Y-81542501D01*
X94700000Y-82457499D01*
X95050154Y-83302846D01*
X95697154Y-83949846D01*
X96542501Y-84300000D01*
X97457499Y-84300000D01*
X98302846Y-83949846D01*
X98949846Y-83302846D01*
X99300000Y-82457499D01*
X99300000Y-81542501D01*
X98949846Y-80697154D01*
X98302846Y-80050154D01*
X97457499Y-79700000D01*
X96542501Y-79700000D01*
X95697154Y-80050154D01*
X95050154Y-80697154D01*
X94700000Y-81542501D01*
X55300000Y-81542501D01*
X54949846Y-80697154D01*
X54302846Y-80050154D01*
X53457499Y-79700000D01*
X52542501Y-79700000D01*
X51697154Y-80050154D01*
X51050154Y-80697154D01*
X50700000Y-81542501D01*
X48675000Y-81542501D01*
X48675000Y-73961049D01*
X62338589Y-73961049D01*
X62485459Y-74315654D01*
X62864000Y-74747402D01*
X63378949Y-75001423D01*
X63606000Y-74891532D01*
X63606000Y-73734000D01*
X62449417Y-73734000D01*
X62338589Y-73961049D01*
X48675000Y-73961049D01*
X48675000Y-72061305D01*
X57800000Y-72061305D01*
X57800000Y-72538695D01*
X57982689Y-72979745D01*
X58320255Y-73317311D01*
X58761305Y-73500000D01*
X59238695Y-73500000D01*
X59679745Y-73317311D01*
X60017311Y-72979745D01*
X60200000Y-72538695D01*
X60200000Y-72061305D01*
X60017311Y-71620255D01*
X60000000Y-71602944D01*
X60000000Y-70814212D01*
X61314213Y-69500000D01*
X62547654Y-69500000D01*
X62632708Y-69627292D01*
X62846286Y-69770000D01*
X62632708Y-69912708D01*
X62287122Y-70429914D01*
X62165768Y-71040000D01*
X62287122Y-71650086D01*
X62632708Y-72167292D01*
X62942144Y-72374050D01*
X62864000Y-72412598D01*
X62485459Y-72844346D01*
X62338589Y-73198951D01*
X62449417Y-73426000D01*
X63606000Y-73426000D01*
X63606000Y-73406000D01*
X63914000Y-73406000D01*
X63914000Y-73426000D01*
X63934000Y-73426000D01*
X63934000Y-73734000D01*
X63914000Y-73734000D01*
X63914000Y-74891532D01*
X64141051Y-75001423D01*
X64656000Y-74747402D01*
X64759611Y-74629228D01*
X64777015Y-74716726D01*
X64931729Y-74948271D01*
X65163274Y-75102985D01*
X65436400Y-75157313D01*
X67163600Y-75157313D01*
X67436726Y-75102985D01*
X67668271Y-74948271D01*
X67822985Y-74716726D01*
X67877313Y-74443600D01*
X67877313Y-72716400D01*
X67822985Y-72443274D01*
X67668271Y-72211729D01*
X67481145Y-72086695D01*
X67539073Y-72000000D01*
X73002944Y-72000000D01*
X73020255Y-72017311D01*
X73461305Y-72200000D01*
X73938695Y-72200000D01*
X74379745Y-72017311D01*
X74717311Y-71679745D01*
X74900000Y-71238695D01*
X74900000Y-70761305D01*
X74717311Y-70320255D01*
X74379745Y-69982689D01*
X73938695Y-69800000D01*
X73461305Y-69800000D01*
X73020255Y-69982689D01*
X73002944Y-70000000D01*
X67485619Y-70000000D01*
X67427292Y-69912708D01*
X67213714Y-69770000D01*
X67427292Y-69627292D01*
X67772878Y-69110086D01*
X67894232Y-68500000D01*
X67772878Y-67889914D01*
X67427292Y-67372708D01*
X67213714Y-67230000D01*
X67427292Y-67087292D01*
X67772878Y-66570086D01*
X67894232Y-65960000D01*
X67772878Y-65349914D01*
X67427292Y-64832708D01*
X67213714Y-64690000D01*
X67427292Y-64547292D01*
X67772878Y-64030086D01*
X67894232Y-63420000D01*
X67772878Y-62809914D01*
X67427292Y-62292708D01*
X66910086Y-61947122D01*
X66453997Y-61856400D01*
X66146003Y-61856400D01*
X65689914Y-61947122D01*
X65172708Y-62292708D01*
X64964444Y-62604397D01*
X64656000Y-62252598D01*
X64141051Y-61998577D01*
X63914000Y-62108468D01*
X63914000Y-63266000D01*
X63934000Y-63266000D01*
X63934000Y-63574000D01*
X63914000Y-63574000D01*
X63914000Y-63594000D01*
X63606000Y-63594000D01*
X63606000Y-63574000D01*
X62449417Y-63574000D01*
X62338589Y-63801049D01*
X62485459Y-64155654D01*
X62864000Y-64587402D01*
X62942144Y-64625950D01*
X62632708Y-64832708D01*
X62287122Y-65349914D01*
X62165768Y-65960000D01*
X62287122Y-66570086D01*
X62632708Y-67087292D01*
X62846286Y-67230000D01*
X62632708Y-67372708D01*
X62547654Y-67500000D01*
X60998490Y-67500000D01*
X60900000Y-67480409D01*
X60801510Y-67500000D01*
X60509819Y-67558021D01*
X60179040Y-67779040D01*
X60123247Y-67862540D01*
X58362540Y-69623248D01*
X58279041Y-69679040D01*
X58122909Y-69912708D01*
X58058021Y-70009820D01*
X57980409Y-70400000D01*
X58000001Y-70498495D01*
X58000000Y-71602944D01*
X57982689Y-71620255D01*
X57800000Y-72061305D01*
X48675000Y-72061305D01*
X48675000Y-63038951D01*
X62338589Y-63038951D01*
X62449417Y-63266000D01*
X63606000Y-63266000D01*
X63606000Y-62108468D01*
X63378949Y-61998577D01*
X62864000Y-62252598D01*
X62485459Y-62684346D01*
X62338589Y-63038951D01*
X48675000Y-63038951D01*
X48675000Y-59620000D01*
X81505768Y-59620000D01*
X81627122Y-60230086D01*
X81972708Y-60747292D01*
X82186286Y-60890000D01*
X81972708Y-61032708D01*
X81627122Y-61549914D01*
X81505768Y-62160000D01*
X81627122Y-62770086D01*
X81972708Y-63287292D01*
X82186286Y-63430000D01*
X81972708Y-63572708D01*
X81627122Y-64089914D01*
X81505768Y-64700000D01*
X81627122Y-65310086D01*
X81972708Y-65827292D01*
X82186286Y-65970000D01*
X81972708Y-66112708D01*
X81627122Y-66629914D01*
X81505768Y-67240000D01*
X81627122Y-67850086D01*
X81972708Y-68367292D01*
X82186286Y-68510000D01*
X81972708Y-68652708D01*
X81627122Y-69169914D01*
X81505768Y-69780000D01*
X81627122Y-70390086D01*
X81972708Y-70907292D01*
X82186286Y-71050000D01*
X81972708Y-71192708D01*
X81627122Y-71709914D01*
X81505768Y-72320000D01*
X81627122Y-72930086D01*
X81972708Y-73447292D01*
X82186286Y-73590000D01*
X81972708Y-73732708D01*
X81627122Y-74249914D01*
X81505768Y-74860000D01*
X81627122Y-75470086D01*
X81972708Y-75987292D01*
X82186286Y-76130000D01*
X81972708Y-76272708D01*
X81627122Y-76789914D01*
X81505768Y-77400000D01*
X81627122Y-78010086D01*
X81972708Y-78527292D01*
X82186286Y-78670000D01*
X81972708Y-78812708D01*
X81627122Y-79329914D01*
X81505768Y-79940000D01*
X81627122Y-80550086D01*
X81972708Y-81067292D01*
X82489914Y-81412878D01*
X82946003Y-81503600D01*
X83253997Y-81503600D01*
X83710086Y-81412878D01*
X84227292Y-81067292D01*
X84435556Y-80755603D01*
X84744000Y-81107402D01*
X85258949Y-81361423D01*
X85486000Y-81251532D01*
X85486000Y-80094000D01*
X85794000Y-80094000D01*
X85794000Y-81251532D01*
X86021051Y-81361423D01*
X86536000Y-81107402D01*
X86914541Y-80675654D01*
X87061411Y-80321049D01*
X86950583Y-80094000D01*
X85794000Y-80094000D01*
X85486000Y-80094000D01*
X85466000Y-80094000D01*
X85466000Y-79786000D01*
X85486000Y-79786000D01*
X85486000Y-77554000D01*
X85794000Y-77554000D01*
X85794000Y-79786000D01*
X86950583Y-79786000D01*
X87061411Y-79558951D01*
X86914541Y-79204346D01*
X86536000Y-78772598D01*
X86328014Y-78670000D01*
X86536000Y-78567402D01*
X86914541Y-78135654D01*
X87061411Y-77781049D01*
X86950583Y-77554000D01*
X85794000Y-77554000D01*
X85486000Y-77554000D01*
X85466000Y-77554000D01*
X85466000Y-77246000D01*
X85486000Y-77246000D01*
X85486000Y-75014000D01*
X85794000Y-75014000D01*
X85794000Y-77246000D01*
X86950583Y-77246000D01*
X87061411Y-77018951D01*
X86914541Y-76664346D01*
X86536000Y-76232598D01*
X86328014Y-76130000D01*
X86536000Y-76027402D01*
X86914541Y-75595654D01*
X87061411Y-75241049D01*
X86950583Y-75014000D01*
X85794000Y-75014000D01*
X85486000Y-75014000D01*
X85466000Y-75014000D01*
X85466000Y-74706000D01*
X85486000Y-74706000D01*
X85486000Y-72474000D01*
X85794000Y-72474000D01*
X85794000Y-74706000D01*
X86950583Y-74706000D01*
X87061411Y-74478951D01*
X86914541Y-74124346D01*
X86536000Y-73692598D01*
X86328014Y-73590000D01*
X86536000Y-73487402D01*
X86914541Y-73055654D01*
X87061411Y-72701049D01*
X86950583Y-72474000D01*
X85794000Y-72474000D01*
X85486000Y-72474000D01*
X85466000Y-72474000D01*
X85466000Y-72166000D01*
X85486000Y-72166000D01*
X85486000Y-69934000D01*
X85794000Y-69934000D01*
X85794000Y-72166000D01*
X86950583Y-72166000D01*
X87061411Y-71938951D01*
X86914541Y-71584346D01*
X86536000Y-71152598D01*
X86328014Y-71050000D01*
X86536000Y-70947402D01*
X86914541Y-70515654D01*
X87061411Y-70161049D01*
X86950583Y-69934000D01*
X85794000Y-69934000D01*
X85486000Y-69934000D01*
X85466000Y-69934000D01*
X85466000Y-69626000D01*
X85486000Y-69626000D01*
X85486000Y-67394000D01*
X85794000Y-67394000D01*
X85794000Y-69626000D01*
X86950583Y-69626000D01*
X87061411Y-69398951D01*
X86914541Y-69044346D01*
X86536000Y-68612598D01*
X86328014Y-68510000D01*
X86536000Y-68407402D01*
X86914541Y-67975654D01*
X87061411Y-67621049D01*
X86950583Y-67394000D01*
X85794000Y-67394000D01*
X85486000Y-67394000D01*
X85466000Y-67394000D01*
X85466000Y-67086000D01*
X85486000Y-67086000D01*
X85486000Y-64854000D01*
X85794000Y-64854000D01*
X85794000Y-67086000D01*
X86950583Y-67086000D01*
X87061411Y-66858951D01*
X86914541Y-66504346D01*
X86536000Y-66072598D01*
X86328014Y-65970000D01*
X86536000Y-65867402D01*
X86914541Y-65435654D01*
X87061411Y-65081049D01*
X86950583Y-64854000D01*
X85794000Y-64854000D01*
X85486000Y-64854000D01*
X85466000Y-64854000D01*
X85466000Y-64546000D01*
X85486000Y-64546000D01*
X85486000Y-62314000D01*
X85794000Y-62314000D01*
X85794000Y-64546000D01*
X86950583Y-64546000D01*
X87061411Y-64318951D01*
X86914541Y-63964346D01*
X86536000Y-63532598D01*
X86328014Y-63430000D01*
X86536000Y-63327402D01*
X86914541Y-62895654D01*
X87061411Y-62541049D01*
X86950583Y-62314000D01*
X85794000Y-62314000D01*
X85486000Y-62314000D01*
X85466000Y-62314000D01*
X85466000Y-62006000D01*
X85486000Y-62006000D01*
X85486000Y-59774000D01*
X85794000Y-59774000D01*
X85794000Y-62006000D01*
X86950583Y-62006000D01*
X87061411Y-61778951D01*
X86914541Y-61424346D01*
X86536000Y-60992598D01*
X86328014Y-60890000D01*
X86536000Y-60787402D01*
X86914541Y-60355654D01*
X87061411Y-60001049D01*
X86950583Y-59774000D01*
X85794000Y-59774000D01*
X85486000Y-59774000D01*
X85466000Y-59774000D01*
X85466000Y-59466000D01*
X85486000Y-59466000D01*
X85486000Y-59446000D01*
X85794000Y-59446000D01*
X85794000Y-59466000D01*
X86950583Y-59466000D01*
X87061411Y-59238951D01*
X86914541Y-58884346D01*
X86536000Y-58452598D01*
X86457856Y-58414050D01*
X86767292Y-58207292D01*
X87112878Y-57690086D01*
X87234232Y-57080000D01*
X87112878Y-56469914D01*
X86767292Y-55952708D01*
X86250086Y-55607122D01*
X85793997Y-55516400D01*
X85486003Y-55516400D01*
X85029914Y-55607122D01*
X84593305Y-55898855D01*
X84468271Y-55711729D01*
X84236726Y-55557015D01*
X83963600Y-55502687D01*
X82236400Y-55502687D01*
X81963274Y-55557015D01*
X81731729Y-55711729D01*
X81577015Y-55943274D01*
X81522687Y-56216400D01*
X81522687Y-57943600D01*
X81577015Y-58216726D01*
X81731729Y-58448271D01*
X81918855Y-58573305D01*
X81627122Y-59009914D01*
X81505768Y-59620000D01*
X48675000Y-59620000D01*
X48675000Y-54542501D01*
X50700000Y-54542501D01*
X50700000Y-55457499D01*
X51050154Y-56302846D01*
X51697154Y-56949846D01*
X52542501Y-57300000D01*
X53457499Y-57300000D01*
X54302846Y-56949846D01*
X54949846Y-56302846D01*
X55300000Y-55457499D01*
X55300000Y-54542501D01*
X94700000Y-54542501D01*
X94700000Y-55457499D01*
X95050154Y-56302846D01*
X95697154Y-56949846D01*
X96542501Y-57300000D01*
X97457499Y-57300000D01*
X98302846Y-56949846D01*
X98949846Y-56302846D01*
X99300000Y-55457499D01*
X99300000Y-54542501D01*
X98949846Y-53697154D01*
X98302846Y-53050154D01*
X97457499Y-52700000D01*
X96542501Y-52700000D01*
X95697154Y-53050154D01*
X95050154Y-53697154D01*
X94700000Y-54542501D01*
X55300000Y-54542501D01*
X54949846Y-53697154D01*
X54302846Y-53050154D01*
X53457499Y-52700000D01*
X52542501Y-52700000D01*
X51697154Y-53050154D01*
X51050154Y-53697154D01*
X50700000Y-54542501D01*
X48675000Y-54542501D01*
X48675000Y-50675000D01*
X101325001Y-50675000D01*
X101325000Y-86325000D01*
G04 #@! TD*
M02*
