G04 #@! TF.GenerationSoftware,KiCad,Pcbnew,5.0.1-33cea8e~68~ubuntu18.04.1*
G04 #@! TF.CreationDate,2018-10-27T22:05:29+03:00*
G04 #@! TF.ProjectId,BUS-BLASTER-AVR,4255532D424C41535445522D4156522E,v1.0*
G04 #@! TF.SameCoordinates,Original*
G04 #@! TF.FileFunction,Legend,Top*
G04 #@! TF.FilePolarity,Positive*
%FSLAX46Y46*%
G04 Gerber Fmt 4.6, Leading zero omitted, Abs format (unit mm)*
G04 Created by KiCad (PCBNEW 5.0.1-33cea8e~68~ubuntu18.04.1) date la 27. lokakuuta 2018 22.05.29*
%MOMM*%
%LPD*%
G01*
G04 APERTURE LIST*
%ADD10C,0.300000*%
%ADD11C,0.150000*%
%ADD12C,0.200000*%
%ADD13C,0.120000*%
G04 APERTURE END LIST*
D10*
X57257142Y-52264285D02*
X57428571Y-52321428D01*
X57485714Y-52378571D01*
X57542857Y-52492857D01*
X57542857Y-52664285D01*
X57485714Y-52778571D01*
X57428571Y-52835714D01*
X57314285Y-52892857D01*
X56857142Y-52892857D01*
X56857142Y-51692857D01*
X57257142Y-51692857D01*
X57371428Y-51750000D01*
X57428571Y-51807142D01*
X57485714Y-51921428D01*
X57485714Y-52035714D01*
X57428571Y-52150000D01*
X57371428Y-52207142D01*
X57257142Y-52264285D01*
X56857142Y-52264285D01*
X58057142Y-51692857D02*
X58057142Y-52664285D01*
X58114285Y-52778571D01*
X58171428Y-52835714D01*
X58285714Y-52892857D01*
X58514285Y-52892857D01*
X58628571Y-52835714D01*
X58685714Y-52778571D01*
X58742857Y-52664285D01*
X58742857Y-51692857D01*
X59257142Y-52835714D02*
X59428571Y-52892857D01*
X59714285Y-52892857D01*
X59828571Y-52835714D01*
X59885714Y-52778571D01*
X59942857Y-52664285D01*
X59942857Y-52550000D01*
X59885714Y-52435714D01*
X59828571Y-52378571D01*
X59714285Y-52321428D01*
X59485714Y-52264285D01*
X59371428Y-52207142D01*
X59314285Y-52150000D01*
X59257142Y-52035714D01*
X59257142Y-51921428D01*
X59314285Y-51807142D01*
X59371428Y-51750000D01*
X59485714Y-51692857D01*
X59771428Y-51692857D01*
X59942857Y-51750000D01*
X60457142Y-52435714D02*
X61371428Y-52435714D01*
X62342857Y-52264285D02*
X62514285Y-52321428D01*
X62571428Y-52378571D01*
X62628571Y-52492857D01*
X62628571Y-52664285D01*
X62571428Y-52778571D01*
X62514285Y-52835714D01*
X62399999Y-52892857D01*
X61942857Y-52892857D01*
X61942857Y-51692857D01*
X62342857Y-51692857D01*
X62457142Y-51750000D01*
X62514285Y-51807142D01*
X62571428Y-51921428D01*
X62571428Y-52035714D01*
X62514285Y-52150000D01*
X62457142Y-52207142D01*
X62342857Y-52264285D01*
X61942857Y-52264285D01*
X63714285Y-52892857D02*
X63142857Y-52892857D01*
X63142857Y-51692857D01*
X64057142Y-52550000D02*
X64628571Y-52550000D01*
X63942857Y-52892857D02*
X64342857Y-51692857D01*
X64742857Y-52892857D01*
X65085714Y-52835714D02*
X65257142Y-52892857D01*
X65542857Y-52892857D01*
X65657142Y-52835714D01*
X65714285Y-52778571D01*
X65771428Y-52664285D01*
X65771428Y-52550000D01*
X65714285Y-52435714D01*
X65657142Y-52378571D01*
X65542857Y-52321428D01*
X65314285Y-52264285D01*
X65200000Y-52207142D01*
X65142857Y-52150000D01*
X65085714Y-52035714D01*
X65085714Y-51921428D01*
X65142857Y-51807142D01*
X65200000Y-51750000D01*
X65314285Y-51692857D01*
X65600000Y-51692857D01*
X65771428Y-51750000D01*
X66114285Y-51692857D02*
X66800000Y-51692857D01*
X66457142Y-52892857D02*
X66457142Y-51692857D01*
X67200000Y-52264285D02*
X67600000Y-52264285D01*
X67771428Y-52892857D02*
X67200000Y-52892857D01*
X67200000Y-51692857D01*
X67771428Y-51692857D01*
X68971428Y-52892857D02*
X68571428Y-52321428D01*
X68285714Y-52892857D02*
X68285714Y-51692857D01*
X68742857Y-51692857D01*
X68857142Y-51750000D01*
X68914285Y-51807142D01*
X68971428Y-51921428D01*
X68971428Y-52092857D01*
X68914285Y-52207142D01*
X68857142Y-52264285D01*
X68742857Y-52321428D01*
X68285714Y-52321428D01*
X69485714Y-52435714D02*
X70400000Y-52435714D01*
X70914285Y-52550000D02*
X71485714Y-52550000D01*
X70800000Y-52892857D02*
X71200000Y-51692857D01*
X71600000Y-52892857D01*
X71828571Y-51692857D02*
X72228571Y-52892857D01*
X72628571Y-51692857D01*
X73714285Y-52892857D02*
X73314285Y-52321428D01*
X73028571Y-52892857D02*
X73028571Y-51692857D01*
X73485714Y-51692857D01*
X73600000Y-51750000D01*
X73657142Y-51807142D01*
X73714285Y-51921428D01*
X73714285Y-52092857D01*
X73657142Y-52207142D01*
X73600000Y-52264285D01*
X73485714Y-52321428D01*
X73028571Y-52321428D01*
X75028571Y-52092857D02*
X75314285Y-52892857D01*
X75600000Y-52092857D01*
X76685714Y-52892857D02*
X76000000Y-52892857D01*
X76342857Y-52892857D02*
X76342857Y-51692857D01*
X76228571Y-51864285D01*
X76114285Y-51978571D01*
X76000000Y-52035714D01*
X77200000Y-52778571D02*
X77257142Y-52835714D01*
X77200000Y-52892857D01*
X77142857Y-52835714D01*
X77200000Y-52778571D01*
X77200000Y-52892857D01*
X77999999Y-51692857D02*
X78114285Y-51692857D01*
X78228571Y-51750000D01*
X78285714Y-51807142D01*
X78342857Y-51921428D01*
X78399999Y-52150000D01*
X78399999Y-52435714D01*
X78342857Y-52664285D01*
X78285714Y-52778571D01*
X78228571Y-52835714D01*
X78114285Y-52892857D01*
X77999999Y-52892857D01*
X77885714Y-52835714D01*
X77828571Y-52778571D01*
X77771428Y-52664285D01*
X77714285Y-52435714D01*
X77714285Y-52150000D01*
X77771428Y-51921428D01*
X77828571Y-51807142D01*
X77885714Y-51750000D01*
X77999999Y-51692857D01*
X60314285Y-54992857D02*
X60314285Y-53792857D01*
X60828571Y-54992857D02*
X60828571Y-54364285D01*
X60771428Y-54250000D01*
X60657142Y-54192857D01*
X60485714Y-54192857D01*
X60371428Y-54250000D01*
X60314285Y-54307142D01*
X61228571Y-54192857D02*
X61685714Y-54192857D01*
X61400000Y-53792857D02*
X61400000Y-54821428D01*
X61457142Y-54935714D01*
X61571428Y-54992857D01*
X61685714Y-54992857D01*
X61914285Y-54192857D02*
X62371428Y-54192857D01*
X62085714Y-53792857D02*
X62085714Y-54821428D01*
X62142857Y-54935714D01*
X62257142Y-54992857D01*
X62371428Y-54992857D01*
X62771428Y-54192857D02*
X62771428Y-55392857D01*
X62771428Y-54250000D02*
X62885714Y-54192857D01*
X63114285Y-54192857D01*
X63228571Y-54250000D01*
X63285714Y-54307142D01*
X63342857Y-54421428D01*
X63342857Y-54764285D01*
X63285714Y-54878571D01*
X63228571Y-54935714D01*
X63114285Y-54992857D01*
X62885714Y-54992857D01*
X62771428Y-54935714D01*
X63800000Y-54935714D02*
X63914285Y-54992857D01*
X64142857Y-54992857D01*
X64257142Y-54935714D01*
X64314285Y-54821428D01*
X64314285Y-54764285D01*
X64257142Y-54650000D01*
X64142857Y-54592857D01*
X63971428Y-54592857D01*
X63857142Y-54535714D01*
X63800000Y-54421428D01*
X63800000Y-54364285D01*
X63857142Y-54250000D01*
X63971428Y-54192857D01*
X64142857Y-54192857D01*
X64257142Y-54250000D01*
X64828571Y-54878571D02*
X64885714Y-54935714D01*
X64828571Y-54992857D01*
X64771428Y-54935714D01*
X64828571Y-54878571D01*
X64828571Y-54992857D01*
X64828571Y-54250000D02*
X64885714Y-54307142D01*
X64828571Y-54364285D01*
X64771428Y-54307142D01*
X64828571Y-54250000D01*
X64828571Y-54364285D01*
X66257142Y-53735714D02*
X65228571Y-55278571D01*
X67514285Y-53735714D02*
X66485714Y-55278571D01*
X68428571Y-54192857D02*
X68428571Y-55164285D01*
X68371428Y-55278571D01*
X68314285Y-55335714D01*
X68200000Y-55392857D01*
X68028571Y-55392857D01*
X67914285Y-55335714D01*
X68428571Y-54935714D02*
X68314285Y-54992857D01*
X68085714Y-54992857D01*
X67971428Y-54935714D01*
X67914285Y-54878571D01*
X67857142Y-54764285D01*
X67857142Y-54421428D01*
X67914285Y-54307142D01*
X67971428Y-54250000D01*
X68085714Y-54192857D01*
X68314285Y-54192857D01*
X68428571Y-54250000D01*
X69457142Y-54935714D02*
X69342857Y-54992857D01*
X69114285Y-54992857D01*
X69000000Y-54935714D01*
X68942857Y-54821428D01*
X68942857Y-54364285D01*
X69000000Y-54250000D01*
X69114285Y-54192857D01*
X69342857Y-54192857D01*
X69457142Y-54250000D01*
X69514285Y-54364285D01*
X69514285Y-54478571D01*
X68942857Y-54592857D01*
X70028571Y-54992857D02*
X70028571Y-53792857D01*
X70142857Y-54535714D02*
X70485714Y-54992857D01*
X70485714Y-54192857D02*
X70028571Y-54650000D01*
X71000000Y-54992857D02*
X71000000Y-53792857D01*
X71114285Y-54535714D02*
X71457142Y-54992857D01*
X71457142Y-54192857D02*
X71000000Y-54650000D01*
X71971428Y-54992857D02*
X71971428Y-54192857D01*
X71971428Y-53792857D02*
X71914285Y-53850000D01*
X71971428Y-53907142D01*
X72028571Y-53850000D01*
X71971428Y-53792857D01*
X71971428Y-53907142D01*
X72714285Y-54992857D02*
X72600000Y-54935714D01*
X72542857Y-54878571D01*
X72485714Y-54764285D01*
X72485714Y-54421428D01*
X72542857Y-54307142D01*
X72600000Y-54250000D01*
X72714285Y-54192857D01*
X72885714Y-54192857D01*
X73000000Y-54250000D01*
X73057142Y-54307142D01*
X73114285Y-54421428D01*
X73114285Y-54764285D01*
X73057142Y-54878571D01*
X73000000Y-54935714D01*
X72885714Y-54992857D01*
X72714285Y-54992857D01*
X73628571Y-54878571D02*
X73685714Y-54935714D01*
X73628571Y-54992857D01*
X73571428Y-54935714D01*
X73628571Y-54878571D01*
X73628571Y-54992857D01*
X74028571Y-54192857D02*
X74485714Y-54192857D01*
X74200000Y-54992857D02*
X74200000Y-53964285D01*
X74257142Y-53850000D01*
X74371428Y-53792857D01*
X74485714Y-53792857D01*
X74885714Y-54992857D02*
X74885714Y-54192857D01*
X74885714Y-53792857D02*
X74828571Y-53850000D01*
X74885714Y-53907142D01*
X74942857Y-53850000D01*
X74885714Y-53792857D01*
X74885714Y-53907142D01*
D11*
X57616785Y-73100000D02*
X57521547Y-73052380D01*
X57378690Y-73052380D01*
X57235833Y-73100000D01*
X57140595Y-73195238D01*
X57092976Y-73290476D01*
X57045357Y-73480952D01*
X57045357Y-73623809D01*
X57092976Y-73814285D01*
X57140595Y-73909523D01*
X57235833Y-74004761D01*
X57378690Y-74052380D01*
X57473928Y-74052380D01*
X57616785Y-74004761D01*
X57664404Y-73957142D01*
X57664404Y-73623809D01*
X57473928Y-73623809D01*
X58092976Y-74052380D02*
X58092976Y-73052380D01*
X58664404Y-74052380D01*
X58664404Y-73052380D01*
X59140595Y-74052380D02*
X59140595Y-73052380D01*
X59378690Y-73052380D01*
X59521547Y-73100000D01*
X59616785Y-73195238D01*
X59664404Y-73290476D01*
X59712023Y-73480952D01*
X59712023Y-73623809D01*
X59664404Y-73814285D01*
X59616785Y-73909523D01*
X59521547Y-74004761D01*
X59378690Y-74052380D01*
X59140595Y-74052380D01*
X57616785Y-63000000D02*
X57521547Y-62952380D01*
X57378690Y-62952380D01*
X57235833Y-63000000D01*
X57140595Y-63095238D01*
X57092976Y-63190476D01*
X57045357Y-63380952D01*
X57045357Y-63523809D01*
X57092976Y-63714285D01*
X57140595Y-63809523D01*
X57235833Y-63904761D01*
X57378690Y-63952380D01*
X57473928Y-63952380D01*
X57616785Y-63904761D01*
X57664404Y-63857142D01*
X57664404Y-63523809D01*
X57473928Y-63523809D01*
X58092976Y-63952380D02*
X58092976Y-62952380D01*
X58664404Y-63952380D01*
X58664404Y-62952380D01*
X59140595Y-63952380D02*
X59140595Y-62952380D01*
X59378690Y-62952380D01*
X59521547Y-63000000D01*
X59616785Y-63095238D01*
X59664404Y-63190476D01*
X59712023Y-63380952D01*
X59712023Y-63523809D01*
X59664404Y-63714285D01*
X59616785Y-63809523D01*
X59521547Y-63904761D01*
X59378690Y-63952380D01*
X59140595Y-63952380D01*
X70292738Y-62852380D02*
X70864166Y-62852380D01*
X70578452Y-63852380D02*
X70578452Y-62852380D01*
X71197500Y-63852380D02*
X71197500Y-62852380D01*
X71435595Y-62852380D01*
X71578452Y-62900000D01*
X71673690Y-62995238D01*
X71721309Y-63090476D01*
X71768928Y-63280952D01*
X71768928Y-63423809D01*
X71721309Y-63614285D01*
X71673690Y-63709523D01*
X71578452Y-63804761D01*
X71435595Y-63852380D01*
X71197500Y-63852380D01*
X72197500Y-63852380D02*
X72197500Y-62852380D01*
X70292738Y-67952380D02*
X70864166Y-67952380D01*
X70578452Y-68952380D02*
X70578452Y-67952380D01*
X71197500Y-68952380D02*
X71197500Y-67952380D01*
X71530833Y-68666666D01*
X71864166Y-67952380D01*
X71864166Y-68952380D01*
X72292738Y-68904761D02*
X72435595Y-68952380D01*
X72673690Y-68952380D01*
X72768928Y-68904761D01*
X72816547Y-68857142D01*
X72864166Y-68761904D01*
X72864166Y-68666666D01*
X72816547Y-68571428D01*
X72768928Y-68523809D01*
X72673690Y-68476190D01*
X72483214Y-68428571D01*
X72387976Y-68380952D01*
X72340357Y-68333333D01*
X72292738Y-68238095D01*
X72292738Y-68142857D01*
X72340357Y-68047619D01*
X72387976Y-68000000D01*
X72483214Y-67952380D01*
X72721309Y-67952380D01*
X72864166Y-68000000D01*
X70292738Y-73052380D02*
X70864166Y-73052380D01*
X70578452Y-74052380D02*
X70578452Y-73052380D01*
X71768928Y-73957142D02*
X71721309Y-74004761D01*
X71578452Y-74052380D01*
X71483214Y-74052380D01*
X71340357Y-74004761D01*
X71245119Y-73909523D01*
X71197500Y-73814285D01*
X71149880Y-73623809D01*
X71149880Y-73480952D01*
X71197500Y-73290476D01*
X71245119Y-73195238D01*
X71340357Y-73100000D01*
X71483214Y-73052380D01*
X71578452Y-73052380D01*
X71721309Y-73100000D01*
X71768928Y-73147619D01*
X72197500Y-74052380D02*
X72197500Y-73052380D01*
X72768928Y-74052380D02*
X72340357Y-73480952D01*
X72768928Y-73052380D02*
X72197500Y-73623809D01*
X70292738Y-70452380D02*
X70864166Y-70452380D01*
X70578452Y-71452380D02*
X70578452Y-70452380D01*
X71197500Y-71452380D02*
X71197500Y-70452380D01*
X71435595Y-70452380D01*
X71578452Y-70500000D01*
X71673690Y-70595238D01*
X71721309Y-70690476D01*
X71768928Y-70880952D01*
X71768928Y-71023809D01*
X71721309Y-71214285D01*
X71673690Y-71309523D01*
X71578452Y-71404761D01*
X71435595Y-71452380D01*
X71197500Y-71452380D01*
X72387976Y-70452380D02*
X72578452Y-70452380D01*
X72673690Y-70500000D01*
X72768928Y-70595238D01*
X72816547Y-70785714D01*
X72816547Y-71119047D01*
X72768928Y-71309523D01*
X72673690Y-71404761D01*
X72578452Y-71452380D01*
X72387976Y-71452380D01*
X72292738Y-71404761D01*
X72197500Y-71309523D01*
X72149880Y-71119047D01*
X72149880Y-70785714D01*
X72197500Y-70595238D01*
X72292738Y-70500000D01*
X72387976Y-70452380D01*
X55569166Y-68285714D02*
X55569166Y-68952380D01*
X55569166Y-68380952D02*
X55616785Y-68333333D01*
X55712023Y-68285714D01*
X55854880Y-68285714D01*
X55950119Y-68333333D01*
X55997738Y-68428571D01*
X55997738Y-68952380D01*
X56426309Y-68904761D02*
X56569166Y-68952380D01*
X56807261Y-68952380D01*
X56902500Y-68904761D01*
X56950119Y-68857142D01*
X56997738Y-68761904D01*
X56997738Y-68666666D01*
X56950119Y-68571428D01*
X56902500Y-68523809D01*
X56807261Y-68476190D01*
X56616785Y-68428571D01*
X56521547Y-68380952D01*
X56473928Y-68333333D01*
X56426309Y-68238095D01*
X56426309Y-68142857D01*
X56473928Y-68047619D01*
X56521547Y-68000000D01*
X56616785Y-67952380D01*
X56854880Y-67952380D01*
X56997738Y-68000000D01*
X57997738Y-68952380D02*
X57664404Y-68476190D01*
X57426309Y-68952380D02*
X57426309Y-67952380D01*
X57807261Y-67952380D01*
X57902500Y-68000000D01*
X57950119Y-68047619D01*
X57997738Y-68142857D01*
X57997738Y-68285714D01*
X57950119Y-68380952D01*
X57902500Y-68428571D01*
X57807261Y-68476190D01*
X57426309Y-68476190D01*
X58378690Y-68904761D02*
X58521547Y-68952380D01*
X58759642Y-68952380D01*
X58854880Y-68904761D01*
X58902500Y-68857142D01*
X58950119Y-68761904D01*
X58950119Y-68666666D01*
X58902500Y-68571428D01*
X58854880Y-68523809D01*
X58759642Y-68476190D01*
X58569166Y-68428571D01*
X58473928Y-68380952D01*
X58426309Y-68333333D01*
X58378690Y-68238095D01*
X58378690Y-68142857D01*
X58426309Y-68047619D01*
X58473928Y-68000000D01*
X58569166Y-67952380D01*
X58807261Y-67952380D01*
X58950119Y-68000000D01*
X59235833Y-67952380D02*
X59807261Y-67952380D01*
X59521547Y-68952380D02*
X59521547Y-67952380D01*
X55759642Y-65785714D02*
X55759642Y-66452380D01*
X55759642Y-65880952D02*
X55807261Y-65833333D01*
X55902500Y-65785714D01*
X56045357Y-65785714D01*
X56140595Y-65833333D01*
X56188214Y-65928571D01*
X56188214Y-66452380D01*
X56521547Y-65452380D02*
X57092976Y-65452380D01*
X56807261Y-66452380D02*
X56807261Y-65452380D01*
X57997738Y-66452380D02*
X57664404Y-65976190D01*
X57426309Y-66452380D02*
X57426309Y-65452380D01*
X57807261Y-65452380D01*
X57902500Y-65500000D01*
X57950119Y-65547619D01*
X57997738Y-65642857D01*
X57997738Y-65785714D01*
X57950119Y-65880952D01*
X57902500Y-65928571D01*
X57807261Y-65976190D01*
X57426309Y-65976190D01*
X58378690Y-66404761D02*
X58521547Y-66452380D01*
X58759642Y-66452380D01*
X58854880Y-66404761D01*
X58902500Y-66357142D01*
X58950119Y-66261904D01*
X58950119Y-66166666D01*
X58902500Y-66071428D01*
X58854880Y-66023809D01*
X58759642Y-65976190D01*
X58569166Y-65928571D01*
X58473928Y-65880952D01*
X58426309Y-65833333D01*
X58378690Y-65738095D01*
X58378690Y-65642857D01*
X58426309Y-65547619D01*
X58473928Y-65500000D01*
X58569166Y-65452380D01*
X58807261Y-65452380D01*
X58950119Y-65500000D01*
X59235833Y-65452380D02*
X59807261Y-65452380D01*
X59521547Y-66452380D02*
X59521547Y-65452380D01*
X56378690Y-70452380D02*
X56712023Y-71452380D01*
X57045357Y-70452380D01*
X57950119Y-71452380D02*
X57616785Y-70976190D01*
X57378690Y-71452380D02*
X57378690Y-70452380D01*
X57759642Y-70452380D01*
X57854880Y-70500000D01*
X57902500Y-70547619D01*
X57950119Y-70642857D01*
X57950119Y-70785714D01*
X57902500Y-70880952D01*
X57854880Y-70928571D01*
X57759642Y-70976190D01*
X57378690Y-70976190D01*
X58378690Y-70928571D02*
X58712023Y-70928571D01*
X58854880Y-71452380D02*
X58378690Y-71452380D01*
X58378690Y-70452380D01*
X58854880Y-70452380D01*
X59616785Y-70928571D02*
X59283452Y-70928571D01*
X59283452Y-71452380D02*
X59283452Y-70452380D01*
X59759642Y-70452380D01*
X74869166Y-74685714D02*
X74869166Y-75352380D01*
X74869166Y-74780952D02*
X74916785Y-74733333D01*
X75012023Y-74685714D01*
X75154880Y-74685714D01*
X75250119Y-74733333D01*
X75297738Y-74828571D01*
X75297738Y-75352380D01*
X75726309Y-75304761D02*
X75869166Y-75352380D01*
X76107261Y-75352380D01*
X76202500Y-75304761D01*
X76250119Y-75257142D01*
X76297738Y-75161904D01*
X76297738Y-75066666D01*
X76250119Y-74971428D01*
X76202500Y-74923809D01*
X76107261Y-74876190D01*
X75916785Y-74828571D01*
X75821547Y-74780952D01*
X75773928Y-74733333D01*
X75726309Y-74638095D01*
X75726309Y-74542857D01*
X75773928Y-74447619D01*
X75821547Y-74400000D01*
X75916785Y-74352380D01*
X76154880Y-74352380D01*
X76297738Y-74400000D01*
X77297738Y-75352380D02*
X76964404Y-74876190D01*
X76726309Y-75352380D02*
X76726309Y-74352380D01*
X77107261Y-74352380D01*
X77202500Y-74400000D01*
X77250119Y-74447619D01*
X77297738Y-74542857D01*
X77297738Y-74685714D01*
X77250119Y-74780952D01*
X77202500Y-74828571D01*
X77107261Y-74876190D01*
X76726309Y-74876190D01*
X77678690Y-75304761D02*
X77821547Y-75352380D01*
X78059642Y-75352380D01*
X78154880Y-75304761D01*
X78202500Y-75257142D01*
X78250119Y-75161904D01*
X78250119Y-75066666D01*
X78202500Y-74971428D01*
X78154880Y-74923809D01*
X78059642Y-74876190D01*
X77869166Y-74828571D01*
X77773928Y-74780952D01*
X77726309Y-74733333D01*
X77678690Y-74638095D01*
X77678690Y-74542857D01*
X77726309Y-74447619D01*
X77773928Y-74400000D01*
X77869166Y-74352380D01*
X78107261Y-74352380D01*
X78250119Y-74400000D01*
X78535833Y-74352380D02*
X79107261Y-74352380D01*
X78821547Y-75352380D02*
X78821547Y-74352380D01*
X76488214Y-71852380D02*
X77059642Y-71852380D01*
X76773928Y-72852380D02*
X76773928Y-71852380D01*
X77392976Y-72852380D02*
X77392976Y-71852380D01*
X77631071Y-71852380D01*
X77773928Y-71900000D01*
X77869166Y-71995238D01*
X77916785Y-72090476D01*
X77964404Y-72280952D01*
X77964404Y-72423809D01*
X77916785Y-72614285D01*
X77869166Y-72709523D01*
X77773928Y-72804761D01*
X77631071Y-72852380D01*
X77392976Y-72852380D01*
X78583452Y-71852380D02*
X78773928Y-71852380D01*
X78869166Y-71900000D01*
X78964404Y-71995238D01*
X79012023Y-72185714D01*
X79012023Y-72519047D01*
X78964404Y-72709523D01*
X78869166Y-72804761D01*
X78773928Y-72852380D01*
X78583452Y-72852380D01*
X78488214Y-72804761D01*
X78392976Y-72709523D01*
X78345357Y-72519047D01*
X78345357Y-72185714D01*
X78392976Y-71995238D01*
X78488214Y-71900000D01*
X78583452Y-71852380D01*
X76535833Y-66652380D02*
X77107261Y-66652380D01*
X76821547Y-67652380D02*
X76821547Y-66652380D01*
X78012023Y-67557142D02*
X77964404Y-67604761D01*
X77821547Y-67652380D01*
X77726309Y-67652380D01*
X77583452Y-67604761D01*
X77488214Y-67509523D01*
X77440595Y-67414285D01*
X77392976Y-67223809D01*
X77392976Y-67080952D01*
X77440595Y-66890476D01*
X77488214Y-66795238D01*
X77583452Y-66700000D01*
X77726309Y-66652380D01*
X77821547Y-66652380D01*
X77964404Y-66700000D01*
X78012023Y-66747619D01*
X78440595Y-67652380D02*
X78440595Y-66652380D01*
X79012023Y-67652380D02*
X78583452Y-67080952D01*
X79012023Y-66652380D02*
X78440595Y-67223809D01*
X76440595Y-64152380D02*
X77012023Y-64152380D01*
X76726309Y-65152380D02*
X76726309Y-64152380D01*
X77345357Y-65152380D02*
X77345357Y-64152380D01*
X77678690Y-64866666D01*
X78012023Y-64152380D01*
X78012023Y-65152380D01*
X78440595Y-65104761D02*
X78583452Y-65152380D01*
X78821547Y-65152380D01*
X78916785Y-65104761D01*
X78964404Y-65057142D01*
X79012023Y-64961904D01*
X79012023Y-64866666D01*
X78964404Y-64771428D01*
X78916785Y-64723809D01*
X78821547Y-64676190D01*
X78631071Y-64628571D01*
X78535833Y-64580952D01*
X78488214Y-64533333D01*
X78440595Y-64438095D01*
X78440595Y-64342857D01*
X78488214Y-64247619D01*
X78535833Y-64200000D01*
X78631071Y-64152380D01*
X78869166Y-64152380D01*
X79012023Y-64200000D01*
X77059642Y-61552380D02*
X77631071Y-61552380D01*
X77345357Y-62552380D02*
X77345357Y-61552380D01*
X77964404Y-62552380D02*
X77964404Y-61552380D01*
X78202500Y-61552380D01*
X78345357Y-61600000D01*
X78440595Y-61695238D01*
X78488214Y-61790476D01*
X78535833Y-61980952D01*
X78535833Y-62123809D01*
X78488214Y-62314285D01*
X78440595Y-62409523D01*
X78345357Y-62504761D01*
X78202500Y-62552380D01*
X77964404Y-62552380D01*
X78964404Y-62552380D02*
X78964404Y-61552380D01*
X75059642Y-59385714D02*
X75059642Y-60052380D01*
X75059642Y-59480952D02*
X75107261Y-59433333D01*
X75202500Y-59385714D01*
X75345357Y-59385714D01*
X75440595Y-59433333D01*
X75488214Y-59528571D01*
X75488214Y-60052380D01*
X75821547Y-59052380D02*
X76392976Y-59052380D01*
X76107261Y-60052380D02*
X76107261Y-59052380D01*
X77297738Y-60052380D02*
X76964404Y-59576190D01*
X76726309Y-60052380D02*
X76726309Y-59052380D01*
X77107261Y-59052380D01*
X77202500Y-59100000D01*
X77250119Y-59147619D01*
X77297738Y-59242857D01*
X77297738Y-59385714D01*
X77250119Y-59480952D01*
X77202500Y-59528571D01*
X77107261Y-59576190D01*
X76726309Y-59576190D01*
X77678690Y-60004761D02*
X77821547Y-60052380D01*
X78059642Y-60052380D01*
X78154880Y-60004761D01*
X78202500Y-59957142D01*
X78250119Y-59861904D01*
X78250119Y-59766666D01*
X78202500Y-59671428D01*
X78154880Y-59623809D01*
X78059642Y-59576190D01*
X77869166Y-59528571D01*
X77773928Y-59480952D01*
X77726309Y-59433333D01*
X77678690Y-59338095D01*
X77678690Y-59242857D01*
X77726309Y-59147619D01*
X77773928Y-59100000D01*
X77869166Y-59052380D01*
X78107261Y-59052380D01*
X78250119Y-59100000D01*
X78535833Y-59052380D02*
X79107261Y-59052380D01*
X78821547Y-60052380D02*
X78821547Y-59052380D01*
X75678690Y-56552380D02*
X76012023Y-57552380D01*
X76345357Y-56552380D01*
X77250119Y-57552380D02*
X76916785Y-57076190D01*
X76678690Y-57552380D02*
X76678690Y-56552380D01*
X77059642Y-56552380D01*
X77154880Y-56600000D01*
X77202500Y-56647619D01*
X77250119Y-56742857D01*
X77250119Y-56885714D01*
X77202500Y-56980952D01*
X77154880Y-57028571D01*
X77059642Y-57076190D01*
X76678690Y-57076190D01*
X77678690Y-57028571D02*
X78012023Y-57028571D01*
X78154880Y-57552380D02*
X77678690Y-57552380D01*
X77678690Y-56552380D01*
X78154880Y-56552380D01*
X78916785Y-57028571D02*
X78583452Y-57028571D01*
X78583452Y-57552380D02*
X78583452Y-56552380D01*
X79059642Y-56552380D01*
D12*
X91000000Y-80000000D02*
X91000000Y-69800000D01*
X89400000Y-80000000D02*
X91000000Y-80000000D01*
X91000000Y-59600000D02*
X91000000Y-67050000D01*
X89500000Y-59600000D02*
X91000000Y-59600000D01*
D10*
X91337857Y-67750000D02*
X91195000Y-67678571D01*
X90980714Y-67678571D01*
X90766428Y-67750000D01*
X90623571Y-67892857D01*
X90552142Y-68035714D01*
X90480714Y-68321428D01*
X90480714Y-68535714D01*
X90552142Y-68821428D01*
X90623571Y-68964285D01*
X90766428Y-69107142D01*
X90980714Y-69178571D01*
X91123571Y-69178571D01*
X91337857Y-69107142D01*
X91409285Y-69035714D01*
X91409285Y-68535714D01*
X91123571Y-68535714D01*
X92052142Y-69178571D02*
X92052142Y-67678571D01*
X92909285Y-69178571D01*
X92909285Y-67678571D01*
X93623571Y-69178571D02*
X93623571Y-67678571D01*
X93980714Y-67678571D01*
X94195000Y-67750000D01*
X94337857Y-67892857D01*
X94409285Y-68035714D01*
X94480714Y-68321428D01*
X94480714Y-68535714D01*
X94409285Y-68821428D01*
X94337857Y-68964285D01*
X94195000Y-69107142D01*
X93980714Y-69178571D01*
X93623571Y-69178571D01*
D11*
X89592738Y-56552380D02*
X89926071Y-57552380D01*
X90259404Y-56552380D01*
X91164166Y-57552380D02*
X90830833Y-57076190D01*
X90592738Y-57552380D02*
X90592738Y-56552380D01*
X90973690Y-56552380D01*
X91068928Y-56600000D01*
X91116547Y-56647619D01*
X91164166Y-56742857D01*
X91164166Y-56885714D01*
X91116547Y-56980952D01*
X91068928Y-57028571D01*
X90973690Y-57076190D01*
X90592738Y-57076190D01*
X91592738Y-57028571D02*
X91926071Y-57028571D01*
X92068928Y-57552380D02*
X91592738Y-57552380D01*
X91592738Y-56552380D01*
X92068928Y-56552380D01*
X92830833Y-57028571D02*
X92497500Y-57028571D01*
X92497500Y-57552380D02*
X92497500Y-56552380D01*
X92973690Y-56552380D01*
X48000000Y-50000000D02*
X102000000Y-50000000D01*
X102000000Y-87000000D02*
X102000000Y-50000000D01*
X48000000Y-87000000D02*
X102000000Y-87000000D01*
X48000000Y-50000000D02*
X48000000Y-87000000D01*
D13*
G04 #@! TO.C,J1*
X60355000Y-78930000D02*
X60355000Y-58070000D01*
X60355000Y-58070000D02*
X69705000Y-58070000D01*
X69705000Y-58070000D02*
X69705000Y-78930000D01*
X69705000Y-78930000D02*
X60355000Y-78930000D01*
X69955000Y-79180000D02*
X69955000Y-76640000D01*
X69955000Y-79180000D02*
X67415000Y-79180000D01*
G04 #@! TO.C,J2*
X89045000Y-51730000D02*
X89045000Y-85290000D01*
X89045000Y-85290000D02*
X79695000Y-85290000D01*
X79695000Y-85290000D02*
X79695000Y-51730000D01*
X79695000Y-51730000D02*
X89045000Y-51730000D01*
X79445000Y-51480000D02*
X79445000Y-54020000D01*
X79445000Y-51480000D02*
X81985000Y-51480000D01*
G04 #@! TD*
G04 #@! TO.C,J1*
D11*
X58866666Y-77352380D02*
X58866666Y-78066666D01*
X58819047Y-78209523D01*
X58723809Y-78304761D01*
X58580952Y-78352380D01*
X58485714Y-78352380D01*
X59866666Y-78352380D02*
X59295238Y-78352380D01*
X59580952Y-78352380D02*
X59580952Y-77352380D01*
X59485714Y-77495238D01*
X59390476Y-77590476D01*
X59295238Y-77638095D01*
G04 #@! TO.C,J2*
X90016666Y-83702380D02*
X90016666Y-84416666D01*
X89969047Y-84559523D01*
X89873809Y-84654761D01*
X89730952Y-84702380D01*
X89635714Y-84702380D01*
X90445238Y-83797619D02*
X90492857Y-83750000D01*
X90588095Y-83702380D01*
X90826190Y-83702380D01*
X90921428Y-83750000D01*
X90969047Y-83797619D01*
X91016666Y-83892857D01*
X91016666Y-83988095D01*
X90969047Y-84130952D01*
X90397619Y-84702380D01*
X91016666Y-84702380D01*
G04 #@! TD*
M02*
