G04 #@! TF.GenerationSoftware,KiCad,Pcbnew,5.0.1-33cea8e~68~ubuntu18.04.1*
G04 #@! TF.CreationDate,2018-10-27T22:05:29+03:00*
G04 #@! TF.ProjectId,BUS-BLASTER-AVR,4255532D424C41535445522D4156522E,v1.0*
G04 #@! TF.SameCoordinates,Original*
G04 #@! TF.FileFunction,Soldermask,Top*
G04 #@! TF.FilePolarity,Negative*
%FSLAX46Y46*%
G04 Gerber Fmt 4.6, Leading zero omitted, Abs format (unit mm)*
G04 Created by KiCad (PCBNEW 5.0.1-33cea8e~68~ubuntu18.04.1) date la 27. lokakuuta 2018 22.05.29*
%MOMM*%
%LPD*%
G01*
G04 APERTURE LIST*
%ADD10C,0.150000*%
%ADD11C,0.100000*%
G04 APERTURE END LIST*
D10*
X48000000Y-50000000D02*
X102000000Y-50000000D01*
X102000000Y-87000000D02*
X102000000Y-50000000D01*
X48000000Y-87000000D02*
X102000000Y-87000000D01*
X48000000Y-50000000D02*
X48000000Y-87000000D01*
D11*
G36*
X97525041Y-80269173D02*
X97852620Y-80404861D01*
X98147433Y-80601849D01*
X98398151Y-80852567D01*
X98595139Y-81147380D01*
X98730827Y-81474959D01*
X98800000Y-81822716D01*
X98800000Y-82177284D01*
X98730827Y-82525041D01*
X98595139Y-82852620D01*
X98398151Y-83147433D01*
X98147433Y-83398151D01*
X97852620Y-83595139D01*
X97525041Y-83730827D01*
X97177284Y-83800000D01*
X96822716Y-83800000D01*
X96474959Y-83730827D01*
X96147380Y-83595139D01*
X95852567Y-83398151D01*
X95601849Y-83147433D01*
X95404861Y-82852620D01*
X95269173Y-82525041D01*
X95200000Y-82177284D01*
X95200000Y-81822716D01*
X95269173Y-81474959D01*
X95404861Y-81147380D01*
X95601849Y-80852567D01*
X95852567Y-80601849D01*
X96147380Y-80404861D01*
X96474959Y-80269173D01*
X96822716Y-80200000D01*
X97177284Y-80200000D01*
X97525041Y-80269173D01*
X97525041Y-80269173D01*
G37*
G36*
X53525041Y-80269173D02*
X53852620Y-80404861D01*
X54147433Y-80601849D01*
X54398151Y-80852567D01*
X54595139Y-81147380D01*
X54730827Y-81474959D01*
X54800000Y-81822716D01*
X54800000Y-82177284D01*
X54730827Y-82525041D01*
X54595139Y-82852620D01*
X54398151Y-83147433D01*
X54147433Y-83398151D01*
X53852620Y-83595139D01*
X53525041Y-83730827D01*
X53177284Y-83800000D01*
X52822716Y-83800000D01*
X52474959Y-83730827D01*
X52147380Y-83595139D01*
X51852567Y-83398151D01*
X51601849Y-83147433D01*
X51404861Y-82852620D01*
X51269173Y-82525041D01*
X51200000Y-82177284D01*
X51200000Y-81822716D01*
X51269173Y-81474959D01*
X51404861Y-81147380D01*
X51601849Y-80852567D01*
X51852567Y-80601849D01*
X52147380Y-80404861D01*
X52474959Y-80269173D01*
X52822716Y-80200000D01*
X53177284Y-80200000D01*
X53525041Y-80269173D01*
X53525041Y-80269173D01*
G37*
G36*
X83308500Y-78891789D02*
X83508990Y-78952606D01*
X83601377Y-79001989D01*
X83693763Y-79051370D01*
X83855718Y-79184282D01*
X83988629Y-79346236D01*
X84087394Y-79531010D01*
X84148211Y-79731500D01*
X84168747Y-79940000D01*
X84148211Y-80148500D01*
X84087394Y-80348990D01*
X84087393Y-80348991D01*
X83988630Y-80533763D01*
X83855718Y-80695718D01*
X83693763Y-80828630D01*
X83648980Y-80852567D01*
X83508990Y-80927394D01*
X83308500Y-80988211D01*
X83152255Y-81003600D01*
X83047745Y-81003600D01*
X82891500Y-80988211D01*
X82691010Y-80927394D01*
X82551020Y-80852567D01*
X82506237Y-80828630D01*
X82344282Y-80695718D01*
X82211370Y-80533763D01*
X82112607Y-80348991D01*
X82112606Y-80348990D01*
X82051789Y-80148500D01*
X82031253Y-79940000D01*
X82051789Y-79731500D01*
X82112606Y-79531010D01*
X82211371Y-79346236D01*
X82344282Y-79184282D01*
X82506237Y-79051370D01*
X82598623Y-79001989D01*
X82691010Y-78952606D01*
X82891500Y-78891789D01*
X83047745Y-78876400D01*
X83152255Y-78876400D01*
X83308500Y-78891789D01*
X83308500Y-78891789D01*
G37*
G36*
X85848500Y-78891789D02*
X86048990Y-78952606D01*
X86141377Y-79001989D01*
X86233763Y-79051370D01*
X86395718Y-79184282D01*
X86528629Y-79346236D01*
X86627394Y-79531010D01*
X86688211Y-79731500D01*
X86708747Y-79940000D01*
X86688211Y-80148500D01*
X86627394Y-80348990D01*
X86627393Y-80348991D01*
X86528630Y-80533763D01*
X86395718Y-80695718D01*
X86233763Y-80828630D01*
X86188980Y-80852567D01*
X86048990Y-80927394D01*
X85848500Y-80988211D01*
X85692255Y-81003600D01*
X85587745Y-81003600D01*
X85431500Y-80988211D01*
X85231010Y-80927394D01*
X85091020Y-80852567D01*
X85046237Y-80828630D01*
X84884282Y-80695718D01*
X84751370Y-80533763D01*
X84652607Y-80348991D01*
X84652606Y-80348990D01*
X84591789Y-80148500D01*
X84571253Y-79940000D01*
X84591789Y-79731500D01*
X84652606Y-79531010D01*
X84751371Y-79346236D01*
X84884282Y-79184282D01*
X85046237Y-79051370D01*
X85138623Y-79001989D01*
X85231010Y-78952606D01*
X85431500Y-78891789D01*
X85587745Y-78876400D01*
X85692255Y-78876400D01*
X85848500Y-78891789D01*
X85848500Y-78891789D01*
G37*
G36*
X85848500Y-76351789D02*
X86048990Y-76412606D01*
X86141377Y-76461989D01*
X86233763Y-76511370D01*
X86395718Y-76644282D01*
X86528629Y-76806236D01*
X86627394Y-76991010D01*
X86688211Y-77191500D01*
X86708747Y-77400000D01*
X86688211Y-77608500D01*
X86627394Y-77808990D01*
X86627393Y-77808991D01*
X86528630Y-77993763D01*
X86395718Y-78155718D01*
X86233763Y-78288630D01*
X86141377Y-78338012D01*
X86048990Y-78387394D01*
X85848500Y-78448211D01*
X85692255Y-78463600D01*
X85587745Y-78463600D01*
X85431500Y-78448211D01*
X85231010Y-78387394D01*
X85138623Y-78338012D01*
X85046237Y-78288630D01*
X84884282Y-78155718D01*
X84751370Y-77993763D01*
X84652607Y-77808991D01*
X84652606Y-77808990D01*
X84591789Y-77608500D01*
X84571253Y-77400000D01*
X84591789Y-77191500D01*
X84652606Y-76991010D01*
X84751371Y-76806236D01*
X84884282Y-76644282D01*
X85046237Y-76511370D01*
X85138623Y-76461989D01*
X85231010Y-76412606D01*
X85431500Y-76351789D01*
X85587745Y-76336400D01*
X85692255Y-76336400D01*
X85848500Y-76351789D01*
X85848500Y-76351789D01*
G37*
G36*
X83308500Y-76351789D02*
X83508990Y-76412606D01*
X83601377Y-76461989D01*
X83693763Y-76511370D01*
X83855718Y-76644282D01*
X83988629Y-76806236D01*
X84087394Y-76991010D01*
X84148211Y-77191500D01*
X84168747Y-77400000D01*
X84148211Y-77608500D01*
X84087394Y-77808990D01*
X84087393Y-77808991D01*
X83988630Y-77993763D01*
X83855718Y-78155718D01*
X83693763Y-78288630D01*
X83601377Y-78338012D01*
X83508990Y-78387394D01*
X83308500Y-78448211D01*
X83152255Y-78463600D01*
X83047745Y-78463600D01*
X82891500Y-78448211D01*
X82691010Y-78387394D01*
X82598623Y-78338012D01*
X82506237Y-78288630D01*
X82344282Y-78155718D01*
X82211370Y-77993763D01*
X82112607Y-77808991D01*
X82112606Y-77808990D01*
X82051789Y-77608500D01*
X82031253Y-77400000D01*
X82051789Y-77191500D01*
X82112606Y-76991010D01*
X82211371Y-76806236D01*
X82344282Y-76644282D01*
X82506237Y-76511370D01*
X82598623Y-76461989D01*
X82691010Y-76412606D01*
X82891500Y-76351789D01*
X83047745Y-76336400D01*
X83152255Y-76336400D01*
X83308500Y-76351789D01*
X83308500Y-76351789D01*
G37*
G36*
X85848500Y-73811789D02*
X86048990Y-73872606D01*
X86141377Y-73921988D01*
X86233763Y-73971370D01*
X86395718Y-74104282D01*
X86528629Y-74266236D01*
X86627394Y-74451010D01*
X86688211Y-74651500D01*
X86708747Y-74860000D01*
X86688211Y-75068500D01*
X86627394Y-75268990D01*
X86627393Y-75268991D01*
X86528630Y-75453763D01*
X86395718Y-75615718D01*
X86233763Y-75748630D01*
X86141377Y-75798011D01*
X86048990Y-75847394D01*
X85848500Y-75908211D01*
X85692255Y-75923600D01*
X85587745Y-75923600D01*
X85431500Y-75908211D01*
X85231010Y-75847394D01*
X85138623Y-75798011D01*
X85046237Y-75748630D01*
X84884282Y-75615718D01*
X84751370Y-75453763D01*
X84652607Y-75268991D01*
X84652606Y-75268990D01*
X84591789Y-75068500D01*
X84571253Y-74860000D01*
X84591789Y-74651500D01*
X84652606Y-74451010D01*
X84751371Y-74266236D01*
X84884282Y-74104282D01*
X85046237Y-73971370D01*
X85138623Y-73921988D01*
X85231010Y-73872606D01*
X85431500Y-73811789D01*
X85587745Y-73796400D01*
X85692255Y-73796400D01*
X85848500Y-73811789D01*
X85848500Y-73811789D01*
G37*
G36*
X83308500Y-73811789D02*
X83508990Y-73872606D01*
X83601377Y-73921988D01*
X83693763Y-73971370D01*
X83855718Y-74104282D01*
X83988629Y-74266236D01*
X84087394Y-74451010D01*
X84148211Y-74651500D01*
X84168747Y-74860000D01*
X84148211Y-75068500D01*
X84087394Y-75268990D01*
X84087393Y-75268991D01*
X83988630Y-75453763D01*
X83855718Y-75615718D01*
X83693763Y-75748630D01*
X83601377Y-75798011D01*
X83508990Y-75847394D01*
X83308500Y-75908211D01*
X83152255Y-75923600D01*
X83047745Y-75923600D01*
X82891500Y-75908211D01*
X82691010Y-75847394D01*
X82598623Y-75798011D01*
X82506237Y-75748630D01*
X82344282Y-75615718D01*
X82211370Y-75453763D01*
X82112607Y-75268991D01*
X82112606Y-75268990D01*
X82051789Y-75068500D01*
X82031253Y-74860000D01*
X82051789Y-74651500D01*
X82112606Y-74451010D01*
X82211371Y-74266236D01*
X82344282Y-74104282D01*
X82506237Y-73971370D01*
X82598623Y-73921988D01*
X82691010Y-73872606D01*
X82891500Y-73811789D01*
X83047745Y-73796400D01*
X83152255Y-73796400D01*
X83308500Y-73811789D01*
X83308500Y-73811789D01*
G37*
G36*
X63968500Y-72531789D02*
X64168990Y-72592606D01*
X64261377Y-72641989D01*
X64353763Y-72691370D01*
X64515718Y-72824282D01*
X64648629Y-72986236D01*
X64747394Y-73171010D01*
X64808211Y-73371500D01*
X64828747Y-73580000D01*
X64808211Y-73788500D01*
X64747394Y-73988990D01*
X64747393Y-73988991D01*
X64648630Y-74173763D01*
X64515718Y-74335718D01*
X64353763Y-74468630D01*
X64261377Y-74518012D01*
X64168990Y-74567394D01*
X63968500Y-74628211D01*
X63812255Y-74643600D01*
X63707745Y-74643600D01*
X63551500Y-74628211D01*
X63351010Y-74567394D01*
X63258623Y-74518012D01*
X63166237Y-74468630D01*
X63004282Y-74335718D01*
X62871370Y-74173763D01*
X62772607Y-73988991D01*
X62772606Y-73988990D01*
X62711789Y-73788500D01*
X62691253Y-73580000D01*
X62711789Y-73371500D01*
X62772606Y-73171010D01*
X62871371Y-72986236D01*
X63004282Y-72824282D01*
X63166237Y-72691370D01*
X63258623Y-72641989D01*
X63351010Y-72592606D01*
X63551500Y-72531789D01*
X63707745Y-72516400D01*
X63812255Y-72516400D01*
X63968500Y-72531789D01*
X63968500Y-72531789D01*
G37*
G36*
X67363600Y-74643600D02*
X65236400Y-74643600D01*
X65236400Y-72516400D01*
X67363600Y-72516400D01*
X67363600Y-74643600D01*
X67363600Y-74643600D01*
G37*
G36*
X85848500Y-71271789D02*
X86048990Y-71332606D01*
X86141377Y-71381988D01*
X86233763Y-71431370D01*
X86395718Y-71564282D01*
X86528629Y-71726236D01*
X86627394Y-71911010D01*
X86688211Y-72111500D01*
X86708747Y-72320000D01*
X86688211Y-72528500D01*
X86627394Y-72728990D01*
X86627393Y-72728991D01*
X86528630Y-72913763D01*
X86395718Y-73075718D01*
X86233763Y-73208630D01*
X86141377Y-73258011D01*
X86048990Y-73307394D01*
X85848500Y-73368211D01*
X85692255Y-73383600D01*
X85587745Y-73383600D01*
X85431500Y-73368211D01*
X85231010Y-73307394D01*
X85138623Y-73258011D01*
X85046237Y-73208630D01*
X84884282Y-73075718D01*
X84751370Y-72913763D01*
X84652607Y-72728991D01*
X84652606Y-72728990D01*
X84591789Y-72528500D01*
X84571253Y-72320000D01*
X84591789Y-72111500D01*
X84652606Y-71911010D01*
X84751371Y-71726236D01*
X84884282Y-71564282D01*
X85046237Y-71431370D01*
X85138623Y-71381988D01*
X85231010Y-71332606D01*
X85431500Y-71271789D01*
X85587745Y-71256400D01*
X85692255Y-71256400D01*
X85848500Y-71271789D01*
X85848500Y-71271789D01*
G37*
G36*
X83308500Y-71271789D02*
X83508990Y-71332606D01*
X83601377Y-71381988D01*
X83693763Y-71431370D01*
X83855718Y-71564282D01*
X83988629Y-71726236D01*
X84087394Y-71911010D01*
X84148211Y-72111500D01*
X84168747Y-72320000D01*
X84148211Y-72528500D01*
X84087394Y-72728990D01*
X84087393Y-72728991D01*
X83988630Y-72913763D01*
X83855718Y-73075718D01*
X83693763Y-73208630D01*
X83601377Y-73258011D01*
X83508990Y-73307394D01*
X83308500Y-73368211D01*
X83152255Y-73383600D01*
X83047745Y-73383600D01*
X82891500Y-73368211D01*
X82691010Y-73307394D01*
X82598623Y-73258011D01*
X82506237Y-73208630D01*
X82344282Y-73075718D01*
X82211370Y-72913763D01*
X82112607Y-72728991D01*
X82112606Y-72728990D01*
X82051789Y-72528500D01*
X82031253Y-72320000D01*
X82051789Y-72111500D01*
X82112606Y-71911010D01*
X82211371Y-71726236D01*
X82344282Y-71564282D01*
X82506237Y-71431370D01*
X82598623Y-71381988D01*
X82691010Y-71332606D01*
X82891500Y-71271789D01*
X83047745Y-71256400D01*
X83152255Y-71256400D01*
X83308500Y-71271789D01*
X83308500Y-71271789D01*
G37*
G36*
X66508500Y-69991789D02*
X66708990Y-70052606D01*
X66801377Y-70101989D01*
X66893763Y-70151370D01*
X67055718Y-70284282D01*
X67188629Y-70446236D01*
X67287394Y-70631010D01*
X67348211Y-70831500D01*
X67368747Y-71040000D01*
X67348211Y-71248500D01*
X67287394Y-71448990D01*
X67287393Y-71448991D01*
X67188630Y-71633763D01*
X67055718Y-71795718D01*
X66893763Y-71928630D01*
X66801377Y-71978012D01*
X66708990Y-72027394D01*
X66508500Y-72088211D01*
X66352255Y-72103600D01*
X66247745Y-72103600D01*
X66091500Y-72088211D01*
X65891010Y-72027394D01*
X65798623Y-71978012D01*
X65706237Y-71928630D01*
X65544282Y-71795718D01*
X65411370Y-71633763D01*
X65312607Y-71448991D01*
X65312606Y-71448990D01*
X65251789Y-71248500D01*
X65231253Y-71040000D01*
X65251789Y-70831500D01*
X65312606Y-70631010D01*
X65411371Y-70446236D01*
X65544282Y-70284282D01*
X65706237Y-70151370D01*
X65798623Y-70101989D01*
X65891010Y-70052606D01*
X66091500Y-69991789D01*
X66247745Y-69976400D01*
X66352255Y-69976400D01*
X66508500Y-69991789D01*
X66508500Y-69991789D01*
G37*
G36*
X63968500Y-69991789D02*
X64168990Y-70052606D01*
X64261377Y-70101989D01*
X64353763Y-70151370D01*
X64515718Y-70284282D01*
X64648629Y-70446236D01*
X64747394Y-70631010D01*
X64808211Y-70831500D01*
X64828747Y-71040000D01*
X64808211Y-71248500D01*
X64747394Y-71448990D01*
X64747393Y-71448991D01*
X64648630Y-71633763D01*
X64515718Y-71795718D01*
X64353763Y-71928630D01*
X64261377Y-71978012D01*
X64168990Y-72027394D01*
X63968500Y-72088211D01*
X63812255Y-72103600D01*
X63707745Y-72103600D01*
X63551500Y-72088211D01*
X63351010Y-72027394D01*
X63258623Y-71978012D01*
X63166237Y-71928630D01*
X63004282Y-71795718D01*
X62871370Y-71633763D01*
X62772607Y-71448991D01*
X62772606Y-71448990D01*
X62711789Y-71248500D01*
X62691253Y-71040000D01*
X62711789Y-70831500D01*
X62772606Y-70631010D01*
X62871371Y-70446236D01*
X63004282Y-70284282D01*
X63166237Y-70151370D01*
X63258623Y-70101989D01*
X63351010Y-70052606D01*
X63551500Y-69991789D01*
X63707745Y-69976400D01*
X63812255Y-69976400D01*
X63968500Y-69991789D01*
X63968500Y-69991789D01*
G37*
G36*
X85848500Y-68731789D02*
X86048990Y-68792606D01*
X86141377Y-68841989D01*
X86233763Y-68891370D01*
X86395718Y-69024282D01*
X86528629Y-69186236D01*
X86627394Y-69371010D01*
X86688211Y-69571500D01*
X86708747Y-69780000D01*
X86688211Y-69988500D01*
X86627394Y-70188990D01*
X86627393Y-70188991D01*
X86528630Y-70373763D01*
X86395718Y-70535718D01*
X86233763Y-70668630D01*
X86141377Y-70718011D01*
X86048990Y-70767394D01*
X85848500Y-70828211D01*
X85692255Y-70843600D01*
X85587745Y-70843600D01*
X85431500Y-70828211D01*
X85231010Y-70767394D01*
X85138623Y-70718012D01*
X85046237Y-70668630D01*
X84884282Y-70535718D01*
X84751370Y-70373763D01*
X84652607Y-70188991D01*
X84652606Y-70188990D01*
X84591789Y-69988500D01*
X84571253Y-69780000D01*
X84591789Y-69571500D01*
X84652606Y-69371010D01*
X84751371Y-69186236D01*
X84884282Y-69024282D01*
X85046237Y-68891370D01*
X85138623Y-68841988D01*
X85231010Y-68792606D01*
X85431500Y-68731789D01*
X85587745Y-68716400D01*
X85692255Y-68716400D01*
X85848500Y-68731789D01*
X85848500Y-68731789D01*
G37*
G36*
X83308500Y-68731789D02*
X83508990Y-68792606D01*
X83601377Y-68841989D01*
X83693763Y-68891370D01*
X83855718Y-69024282D01*
X83988629Y-69186236D01*
X84087394Y-69371010D01*
X84148211Y-69571500D01*
X84168747Y-69780000D01*
X84148211Y-69988500D01*
X84087394Y-70188990D01*
X84087393Y-70188991D01*
X83988630Y-70373763D01*
X83855718Y-70535718D01*
X83693763Y-70668630D01*
X83601377Y-70718011D01*
X83508990Y-70767394D01*
X83308500Y-70828211D01*
X83152255Y-70843600D01*
X83047745Y-70843600D01*
X82891500Y-70828211D01*
X82691010Y-70767394D01*
X82598623Y-70718012D01*
X82506237Y-70668630D01*
X82344282Y-70535718D01*
X82211370Y-70373763D01*
X82112607Y-70188991D01*
X82112606Y-70188990D01*
X82051789Y-69988500D01*
X82031253Y-69780000D01*
X82051789Y-69571500D01*
X82112606Y-69371010D01*
X82211371Y-69186236D01*
X82344282Y-69024282D01*
X82506237Y-68891370D01*
X82598623Y-68841988D01*
X82691010Y-68792606D01*
X82891500Y-68731789D01*
X83047745Y-68716400D01*
X83152255Y-68716400D01*
X83308500Y-68731789D01*
X83308500Y-68731789D01*
G37*
G36*
X63968500Y-67451789D02*
X64168990Y-67512606D01*
X64261377Y-67561988D01*
X64353763Y-67611370D01*
X64515718Y-67744282D01*
X64648629Y-67906236D01*
X64747394Y-68091010D01*
X64808211Y-68291500D01*
X64828747Y-68500000D01*
X64808211Y-68708500D01*
X64747394Y-68908990D01*
X64747393Y-68908991D01*
X64648630Y-69093763D01*
X64515718Y-69255718D01*
X64353763Y-69388630D01*
X64261377Y-69438011D01*
X64168990Y-69487394D01*
X63968500Y-69548211D01*
X63812255Y-69563600D01*
X63707745Y-69563600D01*
X63551500Y-69548211D01*
X63351010Y-69487394D01*
X63258623Y-69438011D01*
X63166237Y-69388630D01*
X63004282Y-69255718D01*
X62871370Y-69093763D01*
X62772607Y-68908991D01*
X62772606Y-68908990D01*
X62711789Y-68708500D01*
X62691253Y-68500000D01*
X62711789Y-68291500D01*
X62772606Y-68091010D01*
X62871371Y-67906236D01*
X63004282Y-67744282D01*
X63166237Y-67611370D01*
X63258623Y-67561988D01*
X63351010Y-67512606D01*
X63551500Y-67451789D01*
X63707745Y-67436400D01*
X63812255Y-67436400D01*
X63968500Y-67451789D01*
X63968500Y-67451789D01*
G37*
G36*
X66508500Y-67451789D02*
X66708990Y-67512606D01*
X66801377Y-67561988D01*
X66893763Y-67611370D01*
X67055718Y-67744282D01*
X67188629Y-67906236D01*
X67287394Y-68091010D01*
X67348211Y-68291500D01*
X67368747Y-68500000D01*
X67348211Y-68708500D01*
X67287394Y-68908990D01*
X67287393Y-68908991D01*
X67188630Y-69093763D01*
X67055718Y-69255718D01*
X66893763Y-69388630D01*
X66801377Y-69438011D01*
X66708990Y-69487394D01*
X66508500Y-69548211D01*
X66352255Y-69563600D01*
X66247745Y-69563600D01*
X66091500Y-69548211D01*
X65891010Y-69487394D01*
X65798623Y-69438011D01*
X65706237Y-69388630D01*
X65544282Y-69255718D01*
X65411370Y-69093763D01*
X65312607Y-68908991D01*
X65312606Y-68908990D01*
X65251789Y-68708500D01*
X65231253Y-68500000D01*
X65251789Y-68291500D01*
X65312606Y-68091010D01*
X65411371Y-67906236D01*
X65544282Y-67744282D01*
X65706237Y-67611370D01*
X65798623Y-67561988D01*
X65891010Y-67512606D01*
X66091500Y-67451789D01*
X66247745Y-67436400D01*
X66352255Y-67436400D01*
X66508500Y-67451789D01*
X66508500Y-67451789D01*
G37*
G36*
X83308500Y-66191789D02*
X83508990Y-66252606D01*
X83601377Y-66301989D01*
X83693763Y-66351370D01*
X83855718Y-66484282D01*
X83988629Y-66646236D01*
X84087394Y-66831010D01*
X84148211Y-67031500D01*
X84168747Y-67240000D01*
X84148211Y-67448500D01*
X84087394Y-67648990D01*
X84087393Y-67648991D01*
X83988630Y-67833763D01*
X83855718Y-67995718D01*
X83693763Y-68128630D01*
X83601377Y-68178012D01*
X83508990Y-68227394D01*
X83308500Y-68288211D01*
X83152255Y-68303600D01*
X83047745Y-68303600D01*
X82891500Y-68288211D01*
X82691010Y-68227394D01*
X82598623Y-68178011D01*
X82506237Y-68128630D01*
X82344282Y-67995718D01*
X82211370Y-67833763D01*
X82112607Y-67648991D01*
X82112606Y-67648990D01*
X82051789Y-67448500D01*
X82031253Y-67240000D01*
X82051789Y-67031500D01*
X82112606Y-66831010D01*
X82211371Y-66646236D01*
X82344282Y-66484282D01*
X82506237Y-66351370D01*
X82598623Y-66301989D01*
X82691010Y-66252606D01*
X82891500Y-66191789D01*
X83047745Y-66176400D01*
X83152255Y-66176400D01*
X83308500Y-66191789D01*
X83308500Y-66191789D01*
G37*
G36*
X85848500Y-66191789D02*
X86048990Y-66252606D01*
X86141377Y-66301989D01*
X86233763Y-66351370D01*
X86395718Y-66484282D01*
X86528629Y-66646236D01*
X86627394Y-66831010D01*
X86688211Y-67031500D01*
X86708747Y-67240000D01*
X86688211Y-67448500D01*
X86627394Y-67648990D01*
X86627393Y-67648991D01*
X86528630Y-67833763D01*
X86395718Y-67995718D01*
X86233763Y-68128630D01*
X86141377Y-68178012D01*
X86048990Y-68227394D01*
X85848500Y-68288211D01*
X85692255Y-68303600D01*
X85587745Y-68303600D01*
X85431500Y-68288211D01*
X85231010Y-68227394D01*
X85138623Y-68178011D01*
X85046237Y-68128630D01*
X84884282Y-67995718D01*
X84751370Y-67833763D01*
X84652607Y-67648991D01*
X84652606Y-67648990D01*
X84591789Y-67448500D01*
X84571253Y-67240000D01*
X84591789Y-67031500D01*
X84652606Y-66831010D01*
X84751371Y-66646236D01*
X84884282Y-66484282D01*
X85046237Y-66351370D01*
X85138623Y-66301989D01*
X85231010Y-66252606D01*
X85431500Y-66191789D01*
X85587745Y-66176400D01*
X85692255Y-66176400D01*
X85848500Y-66191789D01*
X85848500Y-66191789D01*
G37*
G36*
X63968500Y-64911789D02*
X64168990Y-64972606D01*
X64261377Y-65021989D01*
X64353763Y-65071370D01*
X64515718Y-65204282D01*
X64648629Y-65366236D01*
X64747394Y-65551010D01*
X64808211Y-65751500D01*
X64828747Y-65960000D01*
X64808211Y-66168500D01*
X64747394Y-66368990D01*
X64747393Y-66368991D01*
X64648630Y-66553763D01*
X64515718Y-66715718D01*
X64353763Y-66848630D01*
X64261377Y-66898012D01*
X64168990Y-66947394D01*
X63968500Y-67008211D01*
X63812255Y-67023600D01*
X63707745Y-67023600D01*
X63551500Y-67008211D01*
X63351010Y-66947394D01*
X63258623Y-66898012D01*
X63166237Y-66848630D01*
X63004282Y-66715718D01*
X62871370Y-66553763D01*
X62772607Y-66368991D01*
X62772606Y-66368990D01*
X62711789Y-66168500D01*
X62691253Y-65960000D01*
X62711789Y-65751500D01*
X62772606Y-65551010D01*
X62871371Y-65366236D01*
X63004282Y-65204282D01*
X63166237Y-65071370D01*
X63258623Y-65021989D01*
X63351010Y-64972606D01*
X63551500Y-64911789D01*
X63707745Y-64896400D01*
X63812255Y-64896400D01*
X63968500Y-64911789D01*
X63968500Y-64911789D01*
G37*
G36*
X66508500Y-64911789D02*
X66708990Y-64972606D01*
X66801377Y-65021989D01*
X66893763Y-65071370D01*
X67055718Y-65204282D01*
X67188629Y-65366236D01*
X67287394Y-65551010D01*
X67348211Y-65751500D01*
X67368747Y-65960000D01*
X67348211Y-66168500D01*
X67287394Y-66368990D01*
X67287393Y-66368991D01*
X67188630Y-66553763D01*
X67055718Y-66715718D01*
X66893763Y-66848630D01*
X66801377Y-66898012D01*
X66708990Y-66947394D01*
X66508500Y-67008211D01*
X66352255Y-67023600D01*
X66247745Y-67023600D01*
X66091500Y-67008211D01*
X65891010Y-66947394D01*
X65798623Y-66898012D01*
X65706237Y-66848630D01*
X65544282Y-66715718D01*
X65411370Y-66553763D01*
X65312607Y-66368991D01*
X65312606Y-66368990D01*
X65251789Y-66168500D01*
X65231253Y-65960000D01*
X65251789Y-65751500D01*
X65312606Y-65551010D01*
X65411371Y-65366236D01*
X65544282Y-65204282D01*
X65706237Y-65071370D01*
X65798623Y-65021989D01*
X65891010Y-64972606D01*
X66091500Y-64911789D01*
X66247745Y-64896400D01*
X66352255Y-64896400D01*
X66508500Y-64911789D01*
X66508500Y-64911789D01*
G37*
G36*
X85848500Y-63651789D02*
X86048990Y-63712606D01*
X86141377Y-63761988D01*
X86233763Y-63811370D01*
X86395718Y-63944282D01*
X86528629Y-64106236D01*
X86627394Y-64291010D01*
X86688211Y-64491500D01*
X86708747Y-64700000D01*
X86688211Y-64908500D01*
X86627394Y-65108990D01*
X86627393Y-65108991D01*
X86528630Y-65293763D01*
X86395718Y-65455718D01*
X86233763Y-65588630D01*
X86141377Y-65638012D01*
X86048990Y-65687394D01*
X85848500Y-65748211D01*
X85692255Y-65763600D01*
X85587745Y-65763600D01*
X85431500Y-65748211D01*
X85231010Y-65687394D01*
X85138623Y-65638011D01*
X85046237Y-65588630D01*
X84884282Y-65455718D01*
X84751370Y-65293763D01*
X84652607Y-65108991D01*
X84652606Y-65108990D01*
X84591789Y-64908500D01*
X84571253Y-64700000D01*
X84591789Y-64491500D01*
X84652606Y-64291010D01*
X84751371Y-64106236D01*
X84884282Y-63944282D01*
X85046237Y-63811370D01*
X85138623Y-63761989D01*
X85231010Y-63712606D01*
X85431500Y-63651789D01*
X85587745Y-63636400D01*
X85692255Y-63636400D01*
X85848500Y-63651789D01*
X85848500Y-63651789D01*
G37*
G36*
X83308500Y-63651789D02*
X83508990Y-63712606D01*
X83601377Y-63761988D01*
X83693763Y-63811370D01*
X83855718Y-63944282D01*
X83988629Y-64106236D01*
X84087394Y-64291010D01*
X84148211Y-64491500D01*
X84168747Y-64700000D01*
X84148211Y-64908500D01*
X84087394Y-65108990D01*
X84087393Y-65108991D01*
X83988630Y-65293763D01*
X83855718Y-65455718D01*
X83693763Y-65588630D01*
X83601377Y-65638012D01*
X83508990Y-65687394D01*
X83308500Y-65748211D01*
X83152255Y-65763600D01*
X83047745Y-65763600D01*
X82891500Y-65748211D01*
X82691010Y-65687394D01*
X82598623Y-65638011D01*
X82506237Y-65588630D01*
X82344282Y-65455718D01*
X82211370Y-65293763D01*
X82112607Y-65108991D01*
X82112606Y-65108990D01*
X82051789Y-64908500D01*
X82031253Y-64700000D01*
X82051789Y-64491500D01*
X82112606Y-64291010D01*
X82211371Y-64106236D01*
X82344282Y-63944282D01*
X82506237Y-63811370D01*
X82598623Y-63761989D01*
X82691010Y-63712606D01*
X82891500Y-63651789D01*
X83047745Y-63636400D01*
X83152255Y-63636400D01*
X83308500Y-63651789D01*
X83308500Y-63651789D01*
G37*
G36*
X63968500Y-62371789D02*
X64168990Y-62432606D01*
X64261377Y-62481988D01*
X64353763Y-62531370D01*
X64515718Y-62664282D01*
X64648629Y-62826236D01*
X64747394Y-63011010D01*
X64808211Y-63211500D01*
X64828747Y-63420000D01*
X64808211Y-63628500D01*
X64747394Y-63828990D01*
X64747393Y-63828991D01*
X64648630Y-64013763D01*
X64515718Y-64175718D01*
X64353763Y-64308630D01*
X64261377Y-64358012D01*
X64168990Y-64407394D01*
X63968500Y-64468211D01*
X63812255Y-64483600D01*
X63707745Y-64483600D01*
X63551500Y-64468211D01*
X63351010Y-64407394D01*
X63258623Y-64358011D01*
X63166237Y-64308630D01*
X63004282Y-64175718D01*
X62871370Y-64013763D01*
X62772607Y-63828991D01*
X62772606Y-63828990D01*
X62711789Y-63628500D01*
X62691253Y-63420000D01*
X62711789Y-63211500D01*
X62772606Y-63011010D01*
X62871371Y-62826236D01*
X63004282Y-62664282D01*
X63166237Y-62531370D01*
X63258623Y-62481989D01*
X63351010Y-62432606D01*
X63551500Y-62371789D01*
X63707745Y-62356400D01*
X63812255Y-62356400D01*
X63968500Y-62371789D01*
X63968500Y-62371789D01*
G37*
G36*
X66508500Y-62371789D02*
X66708990Y-62432606D01*
X66801377Y-62481988D01*
X66893763Y-62531370D01*
X67055718Y-62664282D01*
X67188629Y-62826236D01*
X67287394Y-63011010D01*
X67348211Y-63211500D01*
X67368747Y-63420000D01*
X67348211Y-63628500D01*
X67287394Y-63828990D01*
X67287393Y-63828991D01*
X67188630Y-64013763D01*
X67055718Y-64175718D01*
X66893763Y-64308630D01*
X66801377Y-64358012D01*
X66708990Y-64407394D01*
X66508500Y-64468211D01*
X66352255Y-64483600D01*
X66247745Y-64483600D01*
X66091500Y-64468211D01*
X65891010Y-64407394D01*
X65798623Y-64358011D01*
X65706237Y-64308630D01*
X65544282Y-64175718D01*
X65411370Y-64013763D01*
X65312607Y-63828991D01*
X65312606Y-63828990D01*
X65251789Y-63628500D01*
X65231253Y-63420000D01*
X65251789Y-63211500D01*
X65312606Y-63011010D01*
X65411371Y-62826236D01*
X65544282Y-62664282D01*
X65706237Y-62531370D01*
X65798623Y-62481989D01*
X65891010Y-62432606D01*
X66091500Y-62371789D01*
X66247745Y-62356400D01*
X66352255Y-62356400D01*
X66508500Y-62371789D01*
X66508500Y-62371789D01*
G37*
G36*
X83308500Y-61111789D02*
X83508990Y-61172606D01*
X83601377Y-61221989D01*
X83693763Y-61271370D01*
X83855718Y-61404282D01*
X83988629Y-61566236D01*
X84087394Y-61751010D01*
X84148211Y-61951500D01*
X84168747Y-62160000D01*
X84148211Y-62368500D01*
X84087394Y-62568990D01*
X84087393Y-62568991D01*
X83988630Y-62753763D01*
X83855718Y-62915718D01*
X83693763Y-63048630D01*
X83601377Y-63098011D01*
X83508990Y-63147394D01*
X83308500Y-63208211D01*
X83152255Y-63223600D01*
X83047745Y-63223600D01*
X82891500Y-63208211D01*
X82691010Y-63147394D01*
X82598623Y-63098012D01*
X82506237Y-63048630D01*
X82344282Y-62915718D01*
X82211370Y-62753763D01*
X82112607Y-62568991D01*
X82112606Y-62568990D01*
X82051789Y-62368500D01*
X82031253Y-62160000D01*
X82051789Y-61951500D01*
X82112606Y-61751010D01*
X82211371Y-61566236D01*
X82344282Y-61404282D01*
X82506237Y-61271370D01*
X82598623Y-61221988D01*
X82691010Y-61172606D01*
X82891500Y-61111789D01*
X83047745Y-61096400D01*
X83152255Y-61096400D01*
X83308500Y-61111789D01*
X83308500Y-61111789D01*
G37*
G36*
X85848500Y-61111789D02*
X86048990Y-61172606D01*
X86141377Y-61221989D01*
X86233763Y-61271370D01*
X86395718Y-61404282D01*
X86528629Y-61566236D01*
X86627394Y-61751010D01*
X86688211Y-61951500D01*
X86708747Y-62160000D01*
X86688211Y-62368500D01*
X86627394Y-62568990D01*
X86627393Y-62568991D01*
X86528630Y-62753763D01*
X86395718Y-62915718D01*
X86233763Y-63048630D01*
X86141377Y-63098011D01*
X86048990Y-63147394D01*
X85848500Y-63208211D01*
X85692255Y-63223600D01*
X85587745Y-63223600D01*
X85431500Y-63208211D01*
X85231010Y-63147394D01*
X85138623Y-63098012D01*
X85046237Y-63048630D01*
X84884282Y-62915718D01*
X84751370Y-62753763D01*
X84652607Y-62568991D01*
X84652606Y-62568990D01*
X84591789Y-62368500D01*
X84571253Y-62160000D01*
X84591789Y-61951500D01*
X84652606Y-61751010D01*
X84751371Y-61566236D01*
X84884282Y-61404282D01*
X85046237Y-61271370D01*
X85138623Y-61221988D01*
X85231010Y-61172606D01*
X85431500Y-61111789D01*
X85587745Y-61096400D01*
X85692255Y-61096400D01*
X85848500Y-61111789D01*
X85848500Y-61111789D01*
G37*
G36*
X83308500Y-58571789D02*
X83508990Y-58632606D01*
X83601377Y-58681988D01*
X83693763Y-58731370D01*
X83855718Y-58864282D01*
X83988629Y-59026236D01*
X84087394Y-59211010D01*
X84148211Y-59411500D01*
X84168747Y-59620000D01*
X84148211Y-59828500D01*
X84087394Y-60028990D01*
X84087393Y-60028991D01*
X83988630Y-60213763D01*
X83855718Y-60375718D01*
X83693763Y-60508630D01*
X83601377Y-60558012D01*
X83508990Y-60607394D01*
X83308500Y-60668211D01*
X83152255Y-60683600D01*
X83047745Y-60683600D01*
X82891500Y-60668211D01*
X82691010Y-60607394D01*
X82598623Y-60558012D01*
X82506237Y-60508630D01*
X82344282Y-60375718D01*
X82211370Y-60213763D01*
X82112607Y-60028991D01*
X82112606Y-60028990D01*
X82051789Y-59828500D01*
X82031253Y-59620000D01*
X82051789Y-59411500D01*
X82112606Y-59211010D01*
X82211371Y-59026236D01*
X82344282Y-58864282D01*
X82506237Y-58731370D01*
X82598623Y-58681989D01*
X82691010Y-58632606D01*
X82891500Y-58571789D01*
X83047745Y-58556400D01*
X83152255Y-58556400D01*
X83308500Y-58571789D01*
X83308500Y-58571789D01*
G37*
G36*
X85848500Y-58571789D02*
X86048990Y-58632606D01*
X86141377Y-58681988D01*
X86233763Y-58731370D01*
X86395718Y-58864282D01*
X86528629Y-59026236D01*
X86627394Y-59211010D01*
X86688211Y-59411500D01*
X86708747Y-59620000D01*
X86688211Y-59828500D01*
X86627394Y-60028990D01*
X86627393Y-60028991D01*
X86528630Y-60213763D01*
X86395718Y-60375718D01*
X86233763Y-60508630D01*
X86141377Y-60558012D01*
X86048990Y-60607394D01*
X85848500Y-60668211D01*
X85692255Y-60683600D01*
X85587745Y-60683600D01*
X85431500Y-60668211D01*
X85231010Y-60607394D01*
X85138623Y-60558012D01*
X85046237Y-60508630D01*
X84884282Y-60375718D01*
X84751370Y-60213763D01*
X84652607Y-60028991D01*
X84652606Y-60028990D01*
X84591789Y-59828500D01*
X84571253Y-59620000D01*
X84591789Y-59411500D01*
X84652606Y-59211010D01*
X84751371Y-59026236D01*
X84884282Y-58864282D01*
X85046237Y-58731370D01*
X85138623Y-58681989D01*
X85231010Y-58632606D01*
X85431500Y-58571789D01*
X85587745Y-58556400D01*
X85692255Y-58556400D01*
X85848500Y-58571789D01*
X85848500Y-58571789D01*
G37*
G36*
X85848500Y-56031789D02*
X86048990Y-56092606D01*
X86141377Y-56141989D01*
X86233763Y-56191370D01*
X86395718Y-56324282D01*
X86528629Y-56486236D01*
X86627394Y-56671010D01*
X86688211Y-56871500D01*
X86708747Y-57080000D01*
X86688211Y-57288500D01*
X86627394Y-57488990D01*
X86627393Y-57488991D01*
X86528630Y-57673763D01*
X86395718Y-57835718D01*
X86233763Y-57968630D01*
X86141377Y-58018011D01*
X86048990Y-58067394D01*
X85848500Y-58128211D01*
X85692255Y-58143600D01*
X85587745Y-58143600D01*
X85431500Y-58128211D01*
X85231010Y-58067394D01*
X85138623Y-58018011D01*
X85046237Y-57968630D01*
X84884282Y-57835718D01*
X84751370Y-57673763D01*
X84652607Y-57488991D01*
X84652606Y-57488990D01*
X84591789Y-57288500D01*
X84571253Y-57080000D01*
X84591789Y-56871500D01*
X84652606Y-56671010D01*
X84751371Y-56486236D01*
X84884282Y-56324282D01*
X85046237Y-56191370D01*
X85138623Y-56141988D01*
X85231010Y-56092606D01*
X85431500Y-56031789D01*
X85587745Y-56016400D01*
X85692255Y-56016400D01*
X85848500Y-56031789D01*
X85848500Y-56031789D01*
G37*
G36*
X84163600Y-58143600D02*
X82036400Y-58143600D01*
X82036400Y-56016400D01*
X84163600Y-56016400D01*
X84163600Y-58143600D01*
X84163600Y-58143600D01*
G37*
G36*
X97525041Y-53269173D02*
X97852620Y-53404861D01*
X98147433Y-53601849D01*
X98398151Y-53852567D01*
X98595139Y-54147380D01*
X98730827Y-54474959D01*
X98800000Y-54822716D01*
X98800000Y-55177284D01*
X98730827Y-55525041D01*
X98595139Y-55852620D01*
X98398151Y-56147433D01*
X98147433Y-56398151D01*
X97852620Y-56595139D01*
X97525041Y-56730827D01*
X97177284Y-56800000D01*
X96822716Y-56800000D01*
X96474959Y-56730827D01*
X96147380Y-56595139D01*
X95852567Y-56398151D01*
X95601849Y-56147433D01*
X95404861Y-55852620D01*
X95269173Y-55525041D01*
X95200000Y-55177284D01*
X95200000Y-54822716D01*
X95269173Y-54474959D01*
X95404861Y-54147380D01*
X95601849Y-53852567D01*
X95852567Y-53601849D01*
X96147380Y-53404861D01*
X96474959Y-53269173D01*
X96822716Y-53200000D01*
X97177284Y-53200000D01*
X97525041Y-53269173D01*
X97525041Y-53269173D01*
G37*
G36*
X53525041Y-53269173D02*
X53852620Y-53404861D01*
X54147433Y-53601849D01*
X54398151Y-53852567D01*
X54595139Y-54147380D01*
X54730827Y-54474959D01*
X54800000Y-54822716D01*
X54800000Y-55177284D01*
X54730827Y-55525041D01*
X54595139Y-55852620D01*
X54398151Y-56147433D01*
X54147433Y-56398151D01*
X53852620Y-56595139D01*
X53525041Y-56730827D01*
X53177284Y-56800000D01*
X52822716Y-56800000D01*
X52474959Y-56730827D01*
X52147380Y-56595139D01*
X51852567Y-56398151D01*
X51601849Y-56147433D01*
X51404861Y-55852620D01*
X51269173Y-55525041D01*
X51200000Y-55177284D01*
X51200000Y-54822716D01*
X51269173Y-54474959D01*
X51404861Y-54147380D01*
X51601849Y-53852567D01*
X51852567Y-53601849D01*
X52147380Y-53404861D01*
X52474959Y-53269173D01*
X52822716Y-53200000D01*
X53177284Y-53200000D01*
X53525041Y-53269173D01*
X53525041Y-53269173D01*
G37*
M02*
